<svg xmlns="http://www.w3.org/2000/svg" width="214" height="215" fill="none"><rect width="214" height="214" y=".724" fill="#DFE1F1" rx="16"/><g clip-path="url(#a)"><path fill="#66757F" d="M125.667 116.789a1.561 1.561 0 0 1-1.695.339 1.559 1.559 0 0 1-.505-.339l-2.199-2.199a1.565 1.565 0 0 1-.339-.504 1.565 1.565 0 0 1 0-1.192c.079-.188.194-.36.339-.504l4.399-4.399a1.56 1.56 0 0 1 1.695-.337c.189.078.36.193.504.337l2.2 2.2a1.541 1.541 0 0 1 .338 1.695c-.078.189-.193.36-.338.504l-4.399 4.399Zm-23.333-23.333a1.562 1.562 0 0 1-1.1.457 1.552 1.552 0 0 1-1.1-.457l-2.2-2.2a1.552 1.552 0 0 1 0-2.2l4.4-4.398a1.546 1.546 0 0 1 1.099-.456 1.555 1.555 0 0 1 1.1.456l2.2 2.2a1.541 1.541 0 0 1 .457 1.1 1.541 1.541 0 0 1-.457 1.099l-4.399 4.399Z"/><path fill="#55ACEE" d="M82.111 113.946c3.111 0 17.111 1.555 17.111 1.555s1.556 14 1.556 17.112c0 3.111-3.111 3.111-4.667 1.555-1.556-1.555-6.222-9.333-6.222-9.333s-7.778-4.667-9.334-6.222c-1.555-1.556-1.555-4.667 1.556-4.667Zm3.111-24.828c4.667-.061 38.889 1.495 38.889 1.495s1.437 34.222 1.496 38.888c.06 4.667-4.298 6.226-6.007.002-1.71-6.224-7.933-26.446-7.933-26.446s-21.708-6.87-26.453-7.936c-6.214-1.397-4.66-5.944.008-6.003Z"/><path fill="#CCD6DD" d="M121 84.39c3.111-3.11 10.889-4.666 12.444-3.11 1.556 1.555 0 9.332-3.111 12.444-3.111 3.11-29.555 28-29.555 28s-10.112 7-12.445 4.666C86 124.057 93 113.946 93 113.946s24.889-26.445 28-29.556Z"/><path fill="#66757F" d="M100.778 113.946s.777.778-6.223 7.778-7.777 6.222-7.777 6.222-.778-.778 6.222-7.778 7.778-6.222 7.778-6.222Zm23.333-28a4.666 4.666 0 0 1 4.667 4.667h1.252c.177-.49.303-1.004.303-1.556a4.663 4.663 0 0 0-4.666-4.667c-.553 0-1.066.126-1.556.304v1.252Z"/></g><defs><clipPath id="a"><path fill="#fff" d="M79 79.724h56v56H79z"/></clipPath></defs></svg>