<svg xmlns="http://www.w3.org/2000/svg" width="380" height="801" fill="none"><g clip-path="url(#a)"><rect width="380" height="800" y=".724" fill="#fff" rx="50"/><path fill="#1A191E" d="M45.943 61.871H44.17a2.71 2.71 0 0 0-1.062-1.733 2.94 2.94 0 0 0-.903-.454 3.526 3.526 0 0 0-1.052-.154c-.67 0-1.27.169-1.8.506-.527.337-.944.831-1.25 1.483-.304.651-.455 1.447-.455 2.386 0 .947.151 1.747.454 2.398.307.652.726 1.144 1.256 1.477.53.334 1.127.5 1.79.5.367 0 .716-.049 1.045-.147a3.01 3.01 0 0 0 .904-.45 2.72 2.72 0 0 0 1.074-1.71l1.772.006a4.746 4.746 0 0 1-.551 1.58c-.269.477-.616.89-1.04 1.238-.42.345-.901.612-1.443.802a5.337 5.337 0 0 1-1.773.284c-1.007 0-1.905-.239-2.693-.716-.788-.481-1.409-1.169-1.863-2.063-.451-.894-.677-1.96-.677-3.199 0-1.242.228-2.308.682-3.199.455-.893 1.076-1.579 1.864-2.056.788-.481 1.684-.722 2.687-.722.618 0 1.194.09 1.728.267.538.174 1.02.432 1.449.773.427.337.782.75 1.062 1.238.28.485.47 1.04.568 1.665Zm7.493 4.233v-5.108h1.705v8.728h-1.67v-1.512h-.092c-.2.466-.523.854-.966 1.165-.439.307-.986.46-1.642.46-.56 0-1.056-.123-1.488-.37-.428-.25-.766-.618-1.012-1.107-.242-.489-.363-1.093-.363-1.813v-5.55h1.698v5.346c0 .595.165 1.068.495 1.42.33.353.757.529 1.284.529.318 0 .634-.08.949-.239.318-.159.581-.4.79-.721.212-.322.316-.731.312-1.228Zm3.987 3.62v-8.728h1.642v1.387h.091c.16-.47.44-.84.841-1.108.406-.273.864-.41 1.375-.41a7.242 7.242 0 0 1 .722.04v1.625a3.048 3.048 0 0 0-.364-.062 3.472 3.472 0 0 0-.523-.04c-.401 0-.76.085-1.074.256a1.9 1.9 0 0 0-1.01 1.71v5.33h-1.7Zm6.14 0v-8.728h1.643v1.387h.09c.16-.47.44-.84.842-1.108.405-.273.863-.41 1.375-.41a7.242 7.242 0 0 1 .721.04v1.625a3.048 3.048 0 0 0-.363-.062 3.47 3.47 0 0 0-.523-.04c-.401 0-.76.085-1.074.256a1.9 1.9 0 0 0-1.011 1.71v5.33h-1.7Zm9.59.176c-.86 0-1.6-.184-2.221-.551a3.739 3.739 0 0 1-1.432-1.563c-.333-.674-.5-1.464-.5-2.37 0-.893.167-1.681.5-2.363a3.883 3.883 0 0 1 1.41-1.596c.605-.383 1.314-.574 2.124-.574.492 0 .97.081 1.432.244.462.163.877.418 1.244.767.368.349.657.801.87 1.358.212.553.318 1.225.318 2.017v.602H69.96V64.6h5.273c0-.447-.091-.843-.273-1.188a2.062 2.062 0 0 0-.767-.824c-.326-.2-.708-.3-1.147-.3-.478 0-.895.117-1.25.351a2.365 2.365 0 0 0-.819.91c-.19.37-.284.774-.284 1.21v.994c0 .583.103 1.08.307 1.489.208.409.498.721.87.937.37.212.804.318 1.3.318.322 0 .616-.045.881-.136a1.9 1.9 0 0 0 .688-.42c.193-.186.34-.415.443-.688l1.608.29c-.129.473-.36.888-.693 1.244a3.36 3.36 0 0 1-1.245.824c-.496.193-1.062.29-1.699.29Zm7.328-5.358v5.182h-1.698v-8.728h1.63v1.42h.108c.201-.461.516-.833.944-1.113.431-.28.975-.42 1.63-.42.595 0 1.116.125 1.563.375.447.246.793.613 1.04 1.102.246.489.369 1.093.369 1.812v5.552h-1.7v-5.347c0-.633-.164-1.127-.493-1.483-.33-.36-.783-.54-1.358-.54-.394 0-.745.086-1.052.256a1.84 1.84 0 0 0-.721.75c-.174.326-.261.72-.261 1.182Zm11.938-3.546v1.364h-4.767v-1.364h4.767Zm-3.489-2.09h1.7v8.255c0 .33.049.578.147.744a.77.77 0 0 0 .38.336c.16.056.332.085.518.085.136 0 .255-.01.358-.029l.238-.045.307 1.403a2.858 2.858 0 0 1-.42.114c-.182.042-.41.064-.682.068a2.991 2.991 0 0 1-1.25-.238 2.144 2.144 0 0 1-.938-.773c-.238-.349-.358-.786-.358-1.313v-8.608Zm9.739 10.818V58.087h1.699v4.324h.102c.099-.182.241-.392.426-.63.186-.24.443-.448.773-.626.33-.181.765-.272 1.307-.272.704 0 1.333.178 1.886.534.553.356.987.87 1.301 1.54.319.67.478 1.477.478 2.42 0 .943-.158 1.752-.472 2.426-.314.67-.746 1.188-1.295 1.551-.55.36-1.177.54-1.881.54-.53 0-.964-.089-1.301-.267a2.45 2.45 0 0 1-.784-.625 4.663 4.663 0 0 1-.438-.636h-.142v1.358h-1.659Zm1.665-4.364c0 .614.089 1.151.267 1.614.178.462.435.823.773 1.085.337.257.75.386 1.238.386.508 0 .932-.134 1.273-.403.341-.273.598-.642.773-1.108.178-.466.267-.99.267-1.574 0-.576-.087-1.093-.262-1.551-.17-.459-.428-.82-.772-1.085-.341-.266-.767-.398-1.279-.398-.492 0-.909.127-1.25.38-.337.254-.593.608-.767 1.063-.174.455-.261.985-.261 1.59Zm10.754 4.557a3.563 3.563 0 0 1-1.5-.307 2.522 2.522 0 0 1-1.062-.903c-.258-.394-.387-.877-.387-1.45 0-.492.095-.897.284-1.215a2.1 2.1 0 0 1 .767-.756 4.006 4.006 0 0 1 1.08-.42c.398-.095.803-.167 1.216-.216l1.273-.148c.325-.042.562-.108.71-.199.147-.09.221-.239.221-.443v-.04c0-.496-.14-.88-.42-1.153-.277-.273-.69-.41-1.239-.41-.572 0-1.022.128-1.352.381-.326.25-.551.529-.676.836l-1.597-.364c.19-.53.466-.958.83-1.284.367-.33.79-.568 1.267-.716a4.945 4.945 0 0 1 1.506-.227c.348 0 .717.041 1.107.125.394.08.762.227 1.103.443.344.216.627.524.846.926.22.398.33.915.33 1.551v5.796h-1.659V68.53h-.068c-.11.22-.275.436-.495.648a2.623 2.623 0 0 1-.846.529c-.345.14-.758.21-1.239.21Zm.369-1.364c.47 0 .872-.093 1.205-.278.337-.186.593-.428.767-.728.178-.303.267-.626.267-.971V65.45c-.061.06-.178.117-.352.17-.171.05-.366.093-.585.131l-.643.097c-.208.026-.382.049-.522.068a4.21 4.21 0 0 0-.904.21c-.269.099-.485.24-.647.426-.159.182-.239.424-.239.727 0 .42.155.739.466.955.31.212.706.318 1.187.318Zm7.9-10.466v11.637h-1.699V58.087h1.699Zm4.825 11.83a3.563 3.563 0 0 1-1.5-.307 2.531 2.531 0 0 1-1.063-.903c-.257-.394-.386-.877-.386-1.45 0-.492.095-.897.284-1.215.189-.318.445-.57.767-.756a4.006 4.006 0 0 1 1.08-.42c.397-.095.803-.167 1.216-.216l1.272-.148c.326-.042.563-.108.71-.199.148-.09.222-.239.222-.443v-.04c0-.496-.14-.88-.42-1.153-.277-.273-.69-.41-1.239-.41-.572 0-1.023.128-1.352.381-.326.25-.551.529-.676.836l-1.597-.364c.189-.53.466-.958.83-1.284.367-.33.789-.568 1.267-.716a4.944 4.944 0 0 1 1.505-.227c.349 0 .718.041 1.108.125.394.08.762.227 1.102.443.345.216.627.524.847.926.22.398.33.915.33 1.551v5.796h-1.659V68.53h-.069c-.109.22-.274.436-.494.648-.22.212-.502.388-.847.529-.344.14-.757.21-1.238.21Zm.369-1.364c.47 0 .871-.093 1.205-.278.337-.186.592-.428.767-.728.178-.303.267-.626.267-.971V65.45c-.061.06-.178.117-.352.17-.171.05-.366.093-.586.131l-.642.097c-.208.026-.382.049-.522.068a4.21 4.21 0 0 0-.904.21c-.269.099-.485.24-.648.426-.159.182-.238.424-.238.727 0 .42.155.739.466.955.31.212.706.318 1.187.318Zm7.899-4.011v5.182h-1.699v-8.728h1.631v1.42h.108c.201-.461.515-.833.943-1.113.432-.28.976-.42 1.631-.42.595 0 1.115.125 1.562.375.447.246.794.613 1.04 1.102.246.489.37 1.093.37 1.812v5.552h-1.699v-5.347c0-.633-.165-1.127-.495-1.483-.329-.36-.782-.54-1.358-.54-.394 0-.744.086-1.051.256-.303.17-.543.42-.721.75-.175.326-.262.72-.262 1.182Zm11.54 5.358c-.845 0-1.572-.192-2.182-.574a3.792 3.792 0 0 1-1.397-1.597c-.326-.678-.489-1.454-.489-2.33 0-.886.167-1.668.5-2.346a3.828 3.828 0 0 1 1.409-1.596c.606-.383 1.32-.574 2.142-.574.663 0 1.254.123 1.773.369.519.242.937.583 1.255 1.023.322.44.514.952.574 1.54h-1.653a1.98 1.98 0 0 0-.625-1.057c-.322-.296-.754-.444-1.296-.444a2.11 2.11 0 0 0-1.244.376c-.352.246-.627.598-.824 1.056-.197.455-.295.993-.295 1.614 0 .636.096 1.186.29 1.648.193.462.465.82.818 1.074.356.253.774.38 1.255.38.322 0 .614-.059.875-.176a1.78 1.78 0 0 0 .665-.517c.182-.224.309-.492.381-.807h1.653a3.204 3.204 0 0 1-.551 1.512 3.174 3.174 0 0 1-1.233 1.045c-.511.254-1.112.38-1.801.38Zm9.163 0c-.859 0-1.6-.184-2.221-.551a3.735 3.735 0 0 1-1.432-1.563c-.333-.674-.5-1.464-.5-2.37 0-.893.167-1.681.5-2.363a3.884 3.884 0 0 1 1.409-1.596c.606-.383 1.314-.574 2.125-.574.493 0 .97.081 1.432.244.462.163.877.418 1.244.767.368.349.657.801.87 1.358.212.553.318 1.225.318 2.017v.602h-6.938V64.6h5.273c0-.447-.091-.843-.273-1.188a2.06 2.06 0 0 0-.767-.824c-.326-.2-.708-.3-1.148-.3-.477 0-.893.117-1.25.351a2.365 2.365 0 0 0-.818.91 2.63 2.63 0 0 0-.284 1.21v.994c0 .583.102 1.08.307 1.489.208.409.498.721.869.937.372.212.805.318 1.301.318.322 0 .616-.045.881-.136.265-.095.494-.235.688-.42.193-.186.341-.415.443-.688l1.608.29c-.129.473-.36.888-.693 1.244-.33.352-.745.627-1.245.824-.496.193-1.062.29-1.699.29ZM218.28 76.16v-2.156c-1.829-.206-3.295-.85-4.396-1.932-1.101-1.083-1.661-2.502-1.68-4.256h3.136c.019.877.28 1.652.784 2.324.504.653 1.223 1.092 2.156 1.316v-6.748a6.568 6.568 0 0 1-.476-.14 13.423 13.423 0 0 0-.476-.168c-1.512-.504-2.651-1.158-3.416-1.96-.747-.803-1.12-1.858-1.12-3.164-.019-1.531.476-2.782 1.484-3.752 1.008-.971 2.343-1.54 4.004-1.708v-2.24h1.904v2.268c1.624.186 2.931.774 3.92 1.764.989.989 1.493 2.23 1.512 3.724h-3.136c-.019-.616-.224-1.195-.616-1.736-.373-.56-.933-.943-1.68-1.148v5.992l.448.168c.149.037.299.084.448.14.971.317 1.839.7 2.604 1.148a5.157 5.157 0 0 1 1.82 1.764c.467.728.7 1.652.7 2.772 0 .933-.224 1.81-.672 2.632-.448.802-1.12 1.474-2.016 2.016-.896.54-2.007.858-3.332.952v2.128h-1.904Zm-2.408-17.136c0 .746.215 1.325.644 1.736.429.392 1.017.737 1.764 1.036v-5.432c-.709.13-1.288.429-1.736.896-.448.448-.672 1.036-.672 1.764Zm7.196 9.604c0-.915-.271-1.606-.812-2.072-.541-.486-1.232-.887-2.072-1.204v6.16c.915-.112 1.624-.43 2.128-.952.504-.523.756-1.167.756-1.932Zm20.688 5.096v-3.92h-9.828v-2.352l9.352-13.328h3.416v13.104h2.744v2.576h-2.744v3.92h-2.94Zm-6.608-6.496h6.776V57.4l-6.776 9.828Zm15.345 6.664c-.56 0-1.027-.178-1.4-.532a1.847 1.847 0 0 1-.532-1.316c0-.523.177-.962.532-1.316.373-.374.84-.56 1.4-.56.56 0 1.017.186 1.372.56.355.354.532.793.532 1.316 0 .504-.177.942-.532 1.316-.355.354-.812.532-1.372.532Zm10.515.168c-1.438 0-2.651-.271-3.64-.812a6.875 6.875 0 0 1-2.408-2.156 9.124 9.124 0 0 1-1.288-3.024 15.069 15.069 0 0 1-.392-3.444c0-2.166.298-4.06.896-5.684.616-1.624 1.493-2.884 2.632-3.78 1.138-.915 2.52-1.372 4.144-1.372 1.288 0 2.389.252 3.304.756.914.504 1.624 1.176 2.128 2.016.522.84.84 1.754.952 2.744h-2.772c-.168-.971-.57-1.718-1.204-2.24-.635-.523-1.447-.784-2.436-.784-1.363 0-2.492.644-3.388 1.932-.878 1.269-1.344 3.229-1.4 5.88.448-.822 1.138-1.522 2.072-2.1.952-.58 2.044-.868 3.276-.868a6.3 6.3 0 0 1 3.08.784 6.228 6.228 0 0 1 2.352 2.212c.616.933.924 2.044.924 3.332a6.53 6.53 0 0 1-.84 3.22c-.56 1.008-1.354 1.829-2.38 2.464-1.008.616-2.212.924-3.612.924Zm-.168-2.576c.784 0 1.484-.168 2.1-.504a3.819 3.819 0 0 0 1.456-1.372 3.88 3.88 0 0 0 .532-2.016c0-1.195-.392-2.147-1.176-2.856-.766-.71-1.746-1.064-2.94-1.064-.784 0-1.494.177-2.128.532a3.952 3.952 0 0 0-1.456 1.428 3.62 3.62 0 0 0-.532 1.932c0 .765.177 1.446.532 2.044a4.033 4.033 0 0 0 1.484 1.372c.634.336 1.344.504 2.128.504Zm16.108 2.576c-1.381 0-2.576-.243-3.584-.728-1.008-.504-1.811-1.186-2.408-2.044-.579-.878-.933-1.867-1.064-2.968h2.912a3.934 3.934 0 0 0 1.4 2.324c.747.597 1.671.896 2.772.896.821 0 1.531-.196 2.128-.588a4.23 4.23 0 0 0 1.4-1.624c.336-.672.504-1.428.504-2.268 0-1.326-.373-2.38-1.12-3.164-.747-.803-1.689-1.204-2.828-1.204-.971 0-1.801.233-2.492.7-.691.448-1.195 1.017-1.512 1.708h-2.828l1.68-10.976h10.584v2.604h-8.344l-1.008 5.236c.429-.486 1.017-.887 1.764-1.204.765-.336 1.624-.504 2.576-.504 1.325 0 2.464.308 3.416.924a5.869 5.869 0 0 1 2.184 2.436c.523 1.026.784 2.165.784 3.416 0 1.306-.28 2.492-.84 3.556a6.45 6.45 0 0 1-2.408 2.548c-1.027.616-2.249.924-3.668.924Zm16.274 0c-1.307 0-2.492-.234-3.556-.7-1.045-.486-1.885-1.158-2.52-2.016-.616-.86-.924-1.867-.924-3.024 0-1.176.327-2.231.98-3.164a4.988 4.988 0 0 1 2.66-1.904c-.989-.392-1.755-.962-2.296-1.708a4.272 4.272 0 0 1-.812-2.52c0-.952.252-1.82.756-2.604.504-.803 1.232-1.438 2.184-1.904.971-.486 2.147-.728 3.528-.728 1.381 0 2.548.242 3.5.728.971.466 1.708 1.1 2.212 1.904.504.784.756 1.652.756 2.604 0 .896-.28 1.736-.84 2.52-.541.765-1.307 1.334-2.296 1.708a4.993 4.993 0 0 1 2.632 1.932c.672.914 1.008 1.96 1.008 3.136 0 1.157-.308 2.165-.924 3.024-.616.858-1.456 1.53-2.52 2.016-1.045.466-2.221.7-3.528.7Zm0-11.76c1.083 0 1.932-.28 2.548-.84.635-.56.952-1.28.952-2.156 0-.99-.308-1.746-.924-2.268-.616-.523-1.475-.784-2.576-.784s-1.96.26-2.576.784c-.616.522-.924 1.278-.924 2.268 0 .877.308 1.596.924 2.156.616.56 1.475.84 2.576.84Zm0 9.24c1.344 0 2.352-.318 3.024-.952.672-.654 1.008-1.484 1.008-2.492 0-1.12-.364-1.98-1.092-2.576-.709-.616-1.689-.924-2.94-.924s-2.24.308-2.968.924c-.728.597-1.092 1.456-1.092 2.576 0 1.008.336 1.838 1.008 2.492.691.634 1.708.952 3.052.952Zm8.067 5.488 1.624-6.608h2.94l-2.576 6.608h-1.988Zm13.471-2.968c-1.381 0-2.576-.243-3.584-.728-1.008-.504-1.811-1.186-2.408-2.044-.579-.878-.933-1.867-1.064-2.968h2.912a3.934 3.934 0 0 0 1.4 2.324c.747.597 1.671.896 2.772.896.821 0 1.531-.196 2.128-.588a4.23 4.23 0 0 0 1.4-1.624c.336-.672.504-1.428.504-2.268 0-1.326-.373-2.38-1.12-3.164-.747-.803-1.689-1.204-2.828-1.204-.971 0-1.801.233-2.492.7-.691.448-1.195 1.017-1.512 1.708h-2.828l1.68-10.976h10.584v2.604h-8.344l-1.008 5.236c.429-.486 1.017-.887 1.764-1.204.765-.336 1.624-.504 2.576-.504 1.325 0 2.464.308 3.416.924a5.869 5.869 0 0 1 2.184 2.436c.523 1.026.784 2.165.784 3.416 0 1.306-.28 2.492-.84 3.556a6.45 6.45 0 0 1-2.408 2.548c-1.027.616-2.249.924-3.668.924Zm17.422 0c-1.773 0-3.304-.42-4.592-1.26-1.269-.86-2.249-2.044-2.94-3.556-.672-1.531-1.008-3.304-1.008-5.32 0-2.016.336-3.78 1.008-5.292.691-1.531 1.671-2.716 2.94-3.556 1.288-.86 2.819-1.288 4.592-1.288 1.773 0 3.295.429 4.564 1.288 1.269.84 2.24 2.025 2.912 3.556.691 1.512 1.036 3.276 1.036 5.292s-.345 3.789-1.036 5.32c-.672 1.512-1.643 2.697-2.912 3.556-1.269.84-2.791 1.26-4.564 1.26Zm0-2.66c1.064 0 2.007-.3 2.828-.896.84-.598 1.493-1.456 1.96-2.576.467-1.12.7-2.455.7-4.004 0-1.55-.233-2.884-.7-4.004-.467-1.12-1.12-1.98-1.96-2.576-.821-.598-1.764-.896-2.828-.896-1.083 0-2.035.298-2.856.896-.821.597-1.465 1.456-1.932 2.576-.467 1.12-.7 2.454-.7 4.004 0 1.549.233 2.884.7 4.004.467 1.12 1.111 1.978 1.932 2.576.821.597 1.773.896 2.856.896ZM39.23 403.724v-11.052h-3.726v-1.548h9.342v1.548h-3.708v11.052H39.23Zm5.84 0v-8.928h1.71l.162 1.692a3.52 3.52 0 0 1 1.296-1.386c.564-.348 1.242-.522 2.034-.522v1.998h-.522c-.528 0-1.002.09-1.422.27-.408.168-.738.462-.99.882-.24.408-.36.978-.36 1.71v4.284H45.07Zm9.322.216c-.756 0-1.38-.126-1.872-.378-.492-.252-.858-.582-1.098-.99a2.71 2.71 0 0 1-.36-1.368c0-.864.336-1.548 1.008-2.052.672-.504 1.632-.756 2.88-.756h2.34v-.162c0-.696-.192-1.218-.576-1.566-.372-.348-.858-.522-1.458-.522-.528 0-.99.132-1.386.396-.384.252-.618.63-.702 1.134H51.26c.06-.648.276-1.2.648-1.656a3.643 3.643 0 0 1 1.44-1.062 4.838 4.838 0 0 1 1.926-.378c1.248 0 2.214.33 2.898.99.684.648 1.026 1.536 1.026 2.664v5.49h-1.656l-.162-1.53a3.392 3.392 0 0 1-1.098 1.242c-.48.336-1.11.504-1.89.504Zm.378-1.548c.516 0 .948-.12 1.296-.36.36-.252.636-.582.828-.99a3.82 3.82 0 0 0 .378-1.35h-2.124c-.756 0-1.296.132-1.62.396a1.244 1.244 0 0 0-.468.99c0 .408.15.732.45.972.312.228.732.342 1.26.342Zm6.113 1.332v-8.928h1.692l.144 1.566a3.067 3.067 0 0 1 1.206-1.296c.54-.324 1.158-.486 1.854-.486 1.08 0 1.926.336 2.538 1.008.624.672.936 1.674.936 3.006v5.13h-1.89v-4.932c0-1.728-.708-2.592-2.124-2.592-.708 0-1.296.252-1.764.756-.456.504-.684 1.224-.684 2.16v4.608h-1.908Zm13.641.216c-1.128 0-2.058-.276-2.79-.828a3.101 3.101 0 0 1-1.26-2.196H72.4c.096.408.324.762.684 1.062.36.288.834.432 1.422.432.576 0 .996-.12 1.26-.36s.396-.516.396-.828c0-.456-.186-.762-.558-.918-.36-.168-.864-.318-1.512-.45a11.918 11.918 0 0 1-1.512-.432 3.488 3.488 0 0 1-1.242-.756c-.324-.336-.486-.786-.486-1.35 0-.78.3-1.428.9-1.944.6-.528 1.44-.792 2.52-.792.996 0 1.8.24 2.412.72.624.48.99 1.158 1.098 2.034h-1.836a1.311 1.311 0 0 0-.54-.9c-.288-.216-.678-.324-1.17-.324-.48 0-.852.102-1.116.306a.893.893 0 0 0-.396.756c0 .312.18.558.54.738.372.18.858.342 1.458.486.6.132 1.152.288 1.656.468.516.168.93.42 1.242.756.312.336.468.828.468 1.476.012.816-.306 1.494-.954 2.034-.636.54-1.506.81-2.61.81Zm8.131 0c-.756 0-1.38-.126-1.872-.378-.492-.252-.858-.582-1.098-.99a2.71 2.71 0 0 1-.36-1.368c0-.864.336-1.548 1.008-2.052.672-.504 1.632-.756 2.88-.756h2.34v-.162c0-.696-.192-1.218-.576-1.566-.372-.348-.858-.522-1.458-.522-.528 0-.99.132-1.386.396-.384.252-.618.63-.702 1.134h-1.908c.06-.648.276-1.2.648-1.656a3.643 3.643 0 0 1 1.44-1.062 4.838 4.838 0 0 1 1.926-.378c1.248 0 2.214.33 2.898.99.684.648 1.026 1.536 1.026 2.664v5.49h-1.656l-.162-1.53a3.392 3.392 0 0 1-1.098 1.242c-.48.336-1.11.504-1.89.504Zm.378-1.548c.516 0 .948-.12 1.296-.36.36-.252.636-.582.828-.99a3.82 3.82 0 0 0 .378-1.35h-2.124c-.756 0-1.296.132-1.62.396a1.244 1.244 0 0 0-.468.99c0 .408.15.732.45.972.312.228.732.342 1.26.342Zm10.343 1.548c-.876 0-1.662-.198-2.358-.594a4.333 4.333 0 0 1-1.62-1.638c-.384-.708-.576-1.524-.576-2.448 0-.924.192-1.734.576-2.43a4.298 4.298 0 0 1 1.62-1.656c.696-.396 1.482-.594 2.358-.594 1.104 0 2.028.288 2.772.864.756.576 1.242 1.356 1.458 2.34h-1.998a1.878 1.878 0 0 0-.792-1.152c-.408-.276-.888-.414-1.44-.414-.468 0-.9.12-1.296.36-.396.228-.714.57-.954 1.026-.24.444-.36.996-.36 1.656 0 .66.12 1.218.36 1.674.24.444.558.786.954 1.026.396.24.828.36 1.296.36.552 0 1.032-.138 1.44-.414.408-.276.672-.666.792-1.17h1.998c-.204.96-.684 1.734-1.44 2.322-.756.588-1.686.882-2.79.882Zm9.327-.216c-.876 0-1.572-.21-2.088-.63-.516-.432-.774-1.194-.774-2.286v-4.41h-1.53v-1.602h1.53l.234-2.268h1.674v2.268h2.52v1.602h-2.52v4.41c0 .492.102.834.306 1.026.216.18.582.27 1.098.27h1.026v1.62h-1.476Zm4.074-10.62c-.36 0-.66-.108-.9-.324a1.15 1.15 0 0 1-.342-.846c0-.336.114-.612.342-.828.24-.228.54-.342.9-.342s.654.114.882.342c.24.216.36.492.36.828 0 .336-.12.618-.36.846-.228.216-.522.324-.882.324Zm-.954 10.62v-8.928h1.908v8.928h-1.908Zm8.062.216c-.852 0-1.62-.192-2.304-.576a4.375 4.375 0 0 1-1.602-1.638c-.396-.708-.594-1.53-.594-2.466 0-.936.198-1.752.594-2.448a4.295 4.295 0 0 1 1.638-1.638 4.48 4.48 0 0 1 2.286-.594c.852 0 1.614.198 2.286.594a4.17 4.17 0 0 1 1.62 1.638c.408.696.612 1.512.612 2.448 0 .936-.204 1.758-.612 2.466a4.333 4.333 0 0 1-1.62 1.638c-.684.384-1.452.576-2.304.576Zm0-1.638c.456 0 .876-.114 1.26-.342a2.5 2.5 0 0 0 .954-1.008c.24-.456.36-1.02.36-1.692 0-.672-.12-1.23-.36-1.674-.228-.456-.54-.798-.936-1.026a2.423 2.423 0 0 0-1.26-.342c-.456 0-.882.114-1.278.342-.384.228-.696.57-.936 1.026-.24.444-.36 1.002-.36 1.674 0 .672.12 1.236.36 1.692.24.444.552.78.936 1.008.384.228.804.342 1.26.342Zm6.06 1.422v-8.928h1.692l.144 1.566a3.067 3.067 0 0 1 1.206-1.296c.54-.324 1.158-.486 1.854-.486 1.08 0 1.926.336 2.538 1.008.624.672.936 1.674.936 3.006v5.13h-1.89v-4.932c0-1.728-.708-2.592-2.124-2.592-.708 0-1.296.252-1.764.756-.456.504-.684 1.224-.684 2.16v4.608h-1.908Zm13.641.216c-1.128 0-2.058-.276-2.79-.828a3.101 3.101 0 0 1-1.26-2.196h1.926c.096.408.324.762.684 1.062.36.288.834.432 1.422.432.576 0 .996-.12 1.26-.36s.396-.516.396-.828c0-.456-.186-.762-.558-.918-.36-.168-.864-.318-1.512-.45a11.918 11.918 0 0 1-1.512-.432 3.488 3.488 0 0 1-1.242-.756c-.324-.336-.486-.786-.486-1.35 0-.78.3-1.428.9-1.944.6-.528 1.44-.792 2.52-.792.996 0 1.8.24 2.412.72.624.48.99 1.158 1.098 2.034h-1.836a1.311 1.311 0 0 0-.54-.9c-.288-.216-.678-.324-1.17-.324-.48 0-.852.102-1.116.306a.893.893 0 0 0-.396.756c0 .312.18.558.54.738.372.18.858.342 1.458.486.6.132 1.152.288 1.656.468.516.168.93.42 1.242.756.312.336.468.828.468 1.476.012.816-.306 1.494-.954 2.034-.636.54-1.506.81-2.61.81Z"/><path fill="#5BB5A2" d="m271.448 402.224-4.144-11.2h1.808l3.36 9.44 3.376-9.44h1.792l-4.144 11.2h-2.048Zm8.042-9.44a1.15 1.15 0 0 1-.8-.288 1.022 1.022 0 0 1-.304-.752c0-.299.101-.544.304-.736.213-.203.48-.304.8-.304.32 0 .581.101.784.304.213.192.32.437.32.736a.998.998 0 0 1-.32.752c-.203.192-.464.288-.784.288Zm-.848 9.44v-7.936h1.696v7.936h-1.696Zm7.166.192c-.778 0-1.472-.171-2.08-.512a3.783 3.783 0 0 1-1.408-1.456c-.341-.619-.512-1.339-.512-2.16 0-.832.166-1.563.496-2.192.342-.63.811-1.12 1.408-1.472.608-.352 1.312-.528 2.112-.528.779 0 1.456.176 2.032.528.576.341 1.024.8 1.344 1.376.32.576.48 1.21.48 1.904 0 .106-.005.224-.016.352 0 .117-.005.25-.016.4h-6.176c.054.768.304 1.354.752 1.76.459.394.987.592 1.584.592.48 0 .88-.107 1.2-.32a2.02 2.02 0 0 0 .736-.896h1.696c-.213.746-.64 1.37-1.28 1.872-.629.501-1.413.752-2.352.752Zm0-6.928c-.565 0-1.066.17-1.504.512-.437.33-.704.832-.8 1.504h4.48c-.032-.619-.25-1.11-.656-1.472-.405-.363-.912-.544-1.52-.544Zm6.424 6.736-2.336-7.936h1.696l1.536 5.984 1.728-5.984h1.888l1.728 5.984 1.536-5.984h1.696l-2.336 7.936h-1.744l-1.824-6.24-1.824 6.24h-1.744Zm16.628.192c-.672 0-1.227-.112-1.664-.336-.437-.224-.763-.518-.976-.88a2.415 2.415 0 0 1-.32-1.216c0-.768.299-1.376.896-1.824.597-.448 1.451-.672 2.56-.672h2.08v-.144c0-.619-.171-1.083-.512-1.392-.331-.31-.763-.464-1.296-.464-.469 0-.88.117-1.232.352-.341.224-.549.56-.624 1.008h-1.696c.053-.576.245-1.067.576-1.472a3.233 3.233 0 0 1 1.28-.944 4.3 4.3 0 0 1 1.712-.336c1.109 0 1.968.293 2.576.88.608.576.912 1.365.912 2.368v4.88h-1.472l-.144-1.36a3.018 3.018 0 0 1-.976 1.104c-.427.298-.987.448-1.68.448Zm.336-1.376c.459 0 .843-.107 1.152-.32a2.2 2.2 0 0 0 .736-.88c.181-.363.293-.763.336-1.2h-1.888c-.672 0-1.152.117-1.44.352a1.106 1.106 0 0 0-.416.88c0 .362.133.65.4.864.277.202.651.304 1.12.304Zm5.433 1.184v-11.52h1.696v11.52h-1.696Zm3.364 0v-11.52h1.696v11.52h-1.696ZM338.524 396.397l-4.531-4.434 1.194-1.168 6.57 6.429-6.57 6.429-1.194-1.169 4.531-4.434h-10.281v-1.653h10.281Z"/><rect width="310" height="65" x="35" y="425.724" fill="#F8F8F8" rx="10"/><rect width="40" height="40" x="47" y="438.224" fill="#5BB5A2" rx="6"/><path fill="#fff" d="M66.656 453.844c-.803 0-2.047-.913-3.356-.88-1.726.022-3.31 1.001-4.201 2.552-1.793 3.113-.462 7.711 1.287 10.241.857 1.232 1.87 2.618 3.211 2.574 1.288-.055 1.771-.836 3.333-.836 1.551 0 1.991.836 3.355.803 1.386-.022 2.267-1.254 3.114-2.497a11.055 11.055 0 0 0 1.407-2.893c-.032-.011-2.694-1.034-2.727-4.114-.022-2.574 2.1-3.806 2.2-3.861-1.21-1.771-3.07-1.969-3.718-2.013-1.695-.132-3.114.924-3.906.924Zm2.86-2.596c.715-.858 1.188-2.057 1.055-3.245-1.022.044-2.254.682-2.992 1.54-.66.759-1.231 1.98-1.078 3.146 1.133.088 2.3-.583 3.014-1.441Z"/><path fill="#1A191E" d="m103.416 453.724 4.128-11.2h1.856l4.096 11.2h-1.792l-.96-2.736h-4.576l-.96 2.736h-1.792Zm3.232-4.08h3.616l-1.808-5.104-1.808 5.104Zm7.866 7.6v-11.456h1.52l.176 1.232c.256-.374.608-.704 1.056-.992.448-.288 1.024-.432 1.728-.432.768 0 1.445.181 2.032.544a3.77 3.77 0 0 1 1.376 1.488c.341.629.512 1.344.512 2.144s-.171 1.514-.512 2.144a3.815 3.815 0 0 1-1.376 1.472c-.587.352-1.269.528-2.048.528-.619 0-1.168-.123-1.648-.368a2.846 2.846 0 0 1-1.12-1.04v4.736h-1.696Zm4.176-4.8c.725 0 1.323-.246 1.792-.736.469-.502.704-1.152.704-1.952 0-.523-.107-.987-.32-1.392a2.347 2.347 0 0 0-.88-.944c-.373-.235-.805-.352-1.296-.352-.725 0-1.323.25-1.792.752-.459.501-.688 1.146-.688 1.936 0 .8.229 1.45.688 1.952.469.49 1.067.736 1.792.736Zm5.578 4.8v-11.456h1.52l.176 1.232c.256-.374.608-.704 1.056-.992.448-.288 1.024-.432 1.728-.432.768 0 1.446.181 2.032.544a3.763 3.763 0 0 1 1.376 1.488c.342.629.512 1.344.512 2.144s-.17 1.514-.512 2.144a3.808 3.808 0 0 1-1.376 1.472c-.586.352-1.269.528-2.048.528-.618 0-1.168-.123-1.648-.368a2.853 2.853 0 0 1-1.12-1.04v4.736h-1.696Zm4.176-4.8c.726 0 1.323-.246 1.792-.736.47-.502.704-1.152.704-1.952 0-.523-.106-.987-.32-1.392a2.34 2.34 0 0 0-.88-.944c-.373-.235-.805-.352-1.296-.352-.725 0-1.322.25-1.792.752-.458.501-.688 1.146-.688 1.936 0 .8.23 1.45.688 1.952.47.49 1.067.736 1.792.736Zm5.579 1.28v-11.52h1.696v11.52h-1.696Zm7.075.192c-.778 0-1.472-.171-2.08-.512a3.783 3.783 0 0 1-1.408-1.456c-.341-.619-.512-1.339-.512-2.16 0-.832.166-1.563.496-2.192.342-.63.811-1.12 1.408-1.472.608-.352 1.312-.528 2.112-.528.779 0 1.456.176 2.032.528.576.341 1.024.8 1.344 1.376.32.576.48 1.21.48 1.904 0 .106-.005.224-.016.352 0 .117-.005.25-.016.4h-6.176c.054.768.304 1.354.752 1.76.459.394.987.592 1.584.592.48 0 .88-.107 1.2-.32a2.02 2.02 0 0 0 .736-.896h1.696c-.213.746-.64 1.37-1.28 1.872-.629.501-1.413.752-2.352.752Zm0-6.928c-.565 0-1.066.17-1.504.512-.437.33-.704.832-.8 1.504h4.48c-.032-.619-.25-1.11-.656-1.472-.405-.363-.912-.544-1.52-.544ZM103.959 473.724v-8.728h5.471v1.134h-4.154v2.659h3.869v1.129h-3.869v2.672h4.206v1.134h-5.523Zm8.402-8.728v8.728h-1.274v-8.728h1.274Zm4.535 8.86c-.645 0-1.2-.138-1.666-.414a2.806 2.806 0 0 1-1.074-1.171c-.25-.506-.375-1.099-.375-1.777 0-.671.125-1.262.375-1.773a2.91 2.91 0 0 1 1.057-1.198c.455-.287.986-.43 1.594-.43.369 0 .727.061 1.074.183.346.122.657.314.933.575.275.262.493.601.652 1.019.159.415.239.919.239 1.513v.451h-5.204v-.954h3.955c0-.335-.068-.632-.205-.891a1.55 1.55 0 0 0-.575-.618 1.611 1.611 0 0 0-.861-.225c-.358 0-.67.088-.937.264a1.77 1.77 0 0 0-.614.682c-.142.278-.213.58-.213.907v.746c0 .437.077.81.23 1.116.157.307.374.542.652.704.279.159.604.238.976.238.242 0 .462-.034.661-.102.198-.071.37-.176.515-.315.145-.14.256-.312.333-.516l1.206.217c-.097.355-.27.666-.52.934-.247.264-.559.47-.934.617a3.486 3.486 0 0 1-1.274.218Zm6.979 0c-.633 0-1.179-.144-1.636-.431a2.84 2.84 0 0 1-1.048-1.197c-.245-.509-.367-1.091-.367-1.747 0-.665.125-1.252.375-1.76.25-.512.602-.911 1.057-1.198.455-.287.99-.43 1.607-.43.497 0 .94.092 1.329.277.389.182.703.437.942.767.241.33.385.714.43 1.155h-1.24a1.483 1.483 0 0 0-.469-.793c-.241-.221-.565-.332-.971-.332-.355 0-.666.094-.933.281a1.799 1.799 0 0 0-.618.793c-.148.341-.222.744-.222 1.21 0 .477.073.889.217 1.236.145.346.35.615.614.805.267.19.581.286.942.286.241 0 .46-.044.656-.132.199-.091.365-.221.499-.388a1.47 1.47 0 0 0 .285-.605h1.24a2.403 2.403 0 0 1-.413 1.133c-.23.333-.538.594-.925.784-.383.191-.834.286-1.351.286Zm7.107-6.678v1.023h-3.575v-1.023h3.575Zm-2.616-1.568h1.274v6.192c0 .247.037.433.111.558a.577.577 0 0 0 .285.251c.12.043.249.064.388.064.102 0 .192-.007.268-.021l.179-.034.231 1.052a2.523 2.523 0 0 1-.827.137 2.242 2.242 0 0 1-.938-.179 1.609 1.609 0 0 1-.703-.58c-.179-.261-.268-.589-.268-.984v-6.456Zm4.026 8.114v-6.546h1.231v1.04h.068c.12-.352.33-.629.631-.831a1.802 1.802 0 0 1 1.031-.307 5.17 5.17 0 0 1 .542.03v1.219a2.382 2.382 0 0 0-.273-.047 2.597 2.597 0 0 0-.392-.03c-.301 0-.57.064-.806.192a1.42 1.42 0 0 0-.758 1.282v3.998h-1.274Zm7.128.132c-.614 0-1.149-.141-1.607-.422a2.846 2.846 0 0 1-1.065-1.181c-.253-.505-.379-1.096-.379-1.772 0-.679.126-1.273.379-1.782a2.842 2.842 0 0 1 1.065-1.184c.458-.281.993-.422 1.607-.422s1.149.141 1.606.422c.458.281.813.676 1.066 1.184.253.509.379 1.103.379 1.782 0 .676-.126 1.267-.379 1.772-.253.506-.608.9-1.066 1.181-.457.281-.992.422-1.606.422Zm.004-1.07c.398 0 .727-.105.989-.315.261-.21.454-.49.579-.84.128-.349.192-.734.192-1.155a3.32 3.32 0 0 0-.192-1.15 1.877 1.877 0 0 0-.579-.848c-.262-.213-.591-.32-.989-.32-.4 0-.733.107-.997.32a1.91 1.91 0 0 0-.584.848 3.392 3.392 0 0 0-.187 1.15c0 .421.062.806.187 1.155.128.35.323.63.584.84.264.21.597.315.997.315Zm5.743-2.949v3.887h-1.274v-6.546h1.223v1.066h.081a1.88 1.88 0 0 1 .708-.836c.323-.21.731-.315 1.223-.315.446 0 .836.094 1.172.281.335.185.595.46.779.827.185.366.277.82.277 1.359v4.164h-1.274v-4.01c0-.475-.123-.845-.371-1.113-.247-.269-.586-.404-1.018-.404-.295 0-.558.064-.788.191a1.383 1.383 0 0 0-.542.563c-.13.244-.196.54-.196.886Zm5.898 3.887v-6.546h1.274v6.546h-1.274Zm.644-7.556a.812.812 0 0 1-.571-.221.72.72 0 0 1-.235-.537c0-.211.078-.389.235-.537a.8.8 0 0 1 .571-.226c.221 0 .41.075.566.226a.706.706 0 0 1 .239.537c0 .207-.08.386-.239.537a.796.796 0 0 1-.566.221Zm5.102 7.688c-.634 0-1.179-.144-1.637-.431a2.848 2.848 0 0 1-1.048-1.197c-.244-.509-.367-1.091-.367-1.747 0-.665.125-1.252.375-1.76.25-.512.603-.911 1.057-1.198.455-.287.99-.43 1.607-.43.497 0 .94.092 1.329.277.389.182.703.437.942.767.242.33.385.714.43 1.155h-1.24a1.487 1.487 0 0 0-.468-.793c-.242-.221-.566-.332-.972-.332-.355 0-.666.094-.933.281-.264.185-.47.449-.618.793-.148.341-.222.744-.222 1.21 0 .477.073.889.218 1.236.145.346.349.615.613.805.267.19.581.286.942.286.242 0 .46-.044.656-.132.199-.091.365-.221.499-.388a1.47 1.47 0 0 0 .285-.605h1.24a2.403 2.403 0 0 1-.413 1.133c-.23.333-.538.594-.925.784-.383.191-.833.286-1.35.286ZM285.912 459.288v-1.424h6.512v1.424h-6.512Zm7.95 3.936 4.336-9.744h-5.824v-1.456h7.568v1.232l-4.304 9.968h-1.776Zm10.746.192c-.736 0-1.365-.144-1.888-.432a3.288 3.288 0 0 1-1.232-1.152 3.856 3.856 0 0 1-.528-1.568h1.584c.096.554.325.981.688 1.28.363.298.827.448 1.392.448.779 0 1.419-.363 1.92-1.088.512-.736.784-1.862.816-3.376-.256.469-.656.869-1.2 1.2-.533.33-1.152.496-1.856.496a3.7 3.7 0 0 1-1.776-.448 3.596 3.596 0 0 1-1.344-1.248c-.341-.544-.512-1.184-.512-1.92 0-.651.16-1.264.48-1.84.32-.576.768-1.04 1.344-1.392.587-.363 1.28-.544 2.08-.544.821 0 1.515.154 2.08.464.565.309 1.019.72 1.36 1.232.341.512.587 1.088.736 1.728.16.64.24 1.296.24 1.968 0 1.237-.176 2.32-.528 3.248-.341.928-.837 1.653-1.488 2.176-.651.512-1.44.768-2.368.768Zm.08-5.648c.448 0 .848-.102 1.2-.304.352-.203.629-.47.832-.8.213-.342.32-.715.32-1.12 0-.438-.107-.822-.32-1.152a2.11 2.11 0 0 0-.848-.8 2.465 2.465 0 0 0-1.2-.288c-.448 0-.848.096-1.2.288a2.254 2.254 0 0 0-.848.8c-.203.33-.304.709-.304 1.136 0 .682.224 1.226.672 1.632.448.405 1.013.608 1.696.608Zm9.549 5.648c-.736 0-1.365-.144-1.888-.432a3.296 3.296 0 0 1-1.232-1.152 3.856 3.856 0 0 1-.528-1.568h1.584c.096.554.326.981.688 1.28.363.298.827.448 1.392.448.779 0 1.419-.363 1.92-1.088.512-.736.784-1.862.816-3.376-.256.469-.656.869-1.2 1.2-.533.33-1.152.496-1.856.496a3.7 3.7 0 0 1-3.12-1.696c-.341-.544-.512-1.184-.512-1.92 0-.651.16-1.264.48-1.84.32-.576.768-1.04 1.344-1.392.587-.363 1.28-.544 2.08-.544.822 0 1.515.154 2.08.464.566.309 1.019.72 1.36 1.232.342.512.587 1.088.736 1.728.16.64.24 1.296.24 1.968 0 1.237-.176 2.32-.528 3.248-.341.928-.837 1.653-1.488 2.176-.65.512-1.44.768-2.368.768Zm.08-5.648c.448 0 .848-.102 1.2-.304.352-.203.63-.47.832-.8a2.07 2.07 0 0 0 .32-1.12 2.07 2.07 0 0 0-.32-1.152 2.104 2.104 0 0 0-.848-.8 2.465 2.465 0 0 0-1.2-.288c-.448 0-.848.096-1.2.288a2.261 2.261 0 0 0-.848.8c-.202.33-.304.709-.304 1.136 0 .682.224 1.226.672 1.632.448.405 1.014.608 1.696.608Zm8.814 6.848v-1.232c-1.046-.118-1.883-.486-2.512-1.104-.63-.619-.95-1.43-.96-2.432h1.792c.01.501.16.944.448 1.328.288.373.698.624 1.232.752v-3.856a3.954 3.954 0 0 1-.272-.08 8.328 8.328 0 0 0-.272-.096c-.864-.288-1.515-.662-1.952-1.12-.427-.459-.64-1.062-.64-1.808-.011-.875.272-1.59.848-2.144.576-.555 1.338-.88 2.288-.976v-1.28h1.088v1.296c.928.106 1.674.442 2.24 1.008.565.565.853 1.274.864 2.128h-1.792a1.756 1.756 0 0 0-.352-.992c-.214-.32-.534-.539-.96-.656v3.424l.256.096c.085.021.17.048.256.08.554.181 1.05.4 1.488.656.437.256.784.592 1.04 1.008.266.416.4.944.4 1.584 0 .533-.128 1.034-.384 1.504-.256.458-.64.842-1.152 1.152-.512.309-1.147.49-1.904.544v1.216h-1.088Zm-1.376-9.792c0 .426.122.757.368.992.245.224.581.421 1.008.592v-3.104a1.772 1.772 0 0 0-.992.512c-.256.256-.384.592-.384 1.008Zm4.112 5.488c0-.523-.155-.918-.464-1.184-.31-.278-.704-.507-1.184-.688v3.52c.522-.064.928-.246 1.216-.544a1.53 1.53 0 0 0 .432-1.104Z"/><rect width="310" height="65" x="35" y="500.724" fill="#F8F8F8" rx="10"/><rect width="40" height="40" x="47" y="513.224" fill="#5BB5A2" rx="6"/><path fill="#fff" d="M58.809 529.108A9.159 9.159 0 0 1 67 524.057c2.47 0 4.546.908 6.133 2.388l-2.628 2.629c-.951-.908-2.16-1.371-3.505-1.371-2.388 0-4.409 1.613-5.129 3.779a5.51 5.51 0 0 0-.287 1.742c0 .605.104 1.191.287 1.741.72 2.167 2.741 3.78 5.13 3.78 1.232 0 2.282-.326 3.103-.876a4.215 4.215 0 0 0 1.83-2.766H67v-3.546h8.633c.109.6.167 1.225.167 1.875 0 2.792-.999 5.142-2.733 6.737-1.516 1.401-3.592 2.221-6.067 2.221a9.161 9.161 0 0 1-9.166-9.166c0-1.48.353-2.879.975-4.116Z"/><path fill="#1A191E" d="M109 528.916c-1.056 0-1.979-.24-2.768-.72a4.883 4.883 0 0 1-1.84-2.016c-.437-.864-.656-1.872-.656-3.024 0-1.142.224-2.15.672-3.024a4.97 4.97 0 0 1 1.904-2.048c.832-.502 1.813-.752 2.944-.752 1.28 0 2.347.309 3.2.928.853.618 1.408 1.472 1.664 2.56h-1.92a2.47 2.47 0 0 0-1.008-1.408c-.501-.342-1.147-.512-1.936-.512-1.173 0-2.096.378-2.768 1.136-.672.757-1.008 1.802-1.008 3.136 0 1.333.331 2.373.992 3.12.661.746 1.541 1.12 2.64 1.12 1.109 0 1.941-.315 2.496-.944.565-.63.896-1.467.992-2.512h-3.04v-1.312h4.752v6.08h-1.552l-.144-1.648a3.993 3.993 0 0 1-1.408 1.36c-.565.32-1.301.48-2.208.48Zm10.538 0c-.757 0-1.44-.171-2.048-.512a3.896 3.896 0 0 1-1.424-1.456c-.352-.63-.528-1.36-.528-2.192 0-.832.176-1.558.528-2.176a3.813 3.813 0 0 1 1.456-1.456 3.983 3.983 0 0 1 2.032-.528c.758 0 1.435.176 2.032.528a3.7 3.7 0 0 1 1.44 1.456c.363.618.544 1.344.544 2.176 0 .832-.181 1.562-.544 2.192a3.857 3.857 0 0 1-1.44 1.456c-.608.341-1.29.512-2.048.512Zm0-1.456c.406 0 .779-.102 1.12-.304.352-.203.635-.502.848-.896.214-.406.32-.907.32-1.504 0-.598-.106-1.094-.32-1.488a2.09 2.09 0 0 0-.832-.912 2.148 2.148 0 0 0-1.12-.304c-.405 0-.784.101-1.136.304-.341.202-.618.506-.832.912-.213.394-.32.89-.32 1.488 0 .597.107 1.098.32 1.504.214.394.491.693.832.896.342.202.715.304 1.12.304Zm9.099 1.456c-.758 0-1.44-.171-2.048-.512a3.888 3.888 0 0 1-1.424-1.456c-.352-.63-.528-1.36-.528-2.192 0-.832.176-1.558.528-2.176a3.806 3.806 0 0 1 1.456-1.456 3.98 3.98 0 0 1 2.032-.528c.757 0 1.434.176 2.032.528a3.7 3.7 0 0 1 1.44 1.456c.362.618.544 1.344.544 2.176 0 .832-.182 1.562-.544 2.192a3.857 3.857 0 0 1-1.44 1.456c-.608.341-1.291.512-2.048.512Zm0-1.456c.405 0 .778-.102 1.12-.304.352-.203.634-.502.848-.896.213-.406.32-.907.32-1.504 0-.598-.107-1.094-.32-1.488-.203-.406-.48-.71-.832-.912a2.153 2.153 0 0 0-1.12-.304c-.406 0-.784.101-1.136.304-.342.202-.619.506-.832.912-.214.394-.32.89-.32 1.488 0 .597.106 1.098.32 1.504.213.394.49.693.832.896.341.202.714.304 1.12.304Zm8.212-1.168c-.416 0-.8-.048-1.152-.144l-.688.672c.117.074.261.138.432.192.17.053.41.101.72.144.309.042.73.085 1.264.128 1.056.096 1.818.352 2.288.768.469.405.704.949.704 1.632 0 .469-.128.912-.384 1.328-.246.426-.635.768-1.168 1.024-.523.266-1.195.4-2.016.4-1.11 0-2.011-.214-2.704-.64-.683-.416-1.024-1.051-1.024-1.904 0-.331.085-.662.256-.992.181-.32.464-.624.848-.912a4.394 4.394 0 0 1-.592-.304 5.322 5.322 0 0 1-.432-.352v-.384l1.376-1.408c-.619-.534-.928-1.232-.928-2.096 0-.523.122-.998.368-1.424a2.733 2.733 0 0 1 1.104-1.04c.48-.256 1.056-.384 1.728-.384.448 0 .864.064 1.248.192h2.96v1.12l-1.408.08c.256.437.384.922.384 1.456 0 .533-.128 1.013-.384 1.44a2.67 2.67 0 0 1-1.088 1.024c-.47.256-1.04.384-1.712.384Zm0-1.328c.49 0 .885-.128 1.184-.384.309-.267.464-.64.464-1.12 0-.491-.155-.864-.464-1.12-.299-.256-.694-.384-1.184-.384-.502 0-.907.128-1.216.384-.299.256-.448.629-.448 1.12 0 .48.149.853.448 1.12.309.256.714.384 1.216.384Zm-2.128 4.768c0 .458.202.8.608 1.024.405.234.912.352 1.52.352.586 0 1.061-.128 1.424-.384.362-.246.544-.576.544-.992 0-.31-.123-.576-.368-.8-.246-.214-.71-.347-1.392-.4-.512-.032-.966-.08-1.36-.144-.374.202-.63.421-.768.656a1.344 1.344 0 0 0-.208.688Zm7.369-1.008v-11.52h1.696v11.52h-1.696Zm7.075.192c-.778 0-1.472-.171-2.08-.512a3.783 3.783 0 0 1-1.408-1.456c-.341-.619-.512-1.339-.512-2.16 0-.832.166-1.563.496-2.192.342-.63.811-1.12 1.408-1.472.608-.352 1.312-.528 2.112-.528.779 0 1.456.176 2.032.528.576.341 1.024.8 1.344 1.376.32.576.48 1.21.48 1.904 0 .106-.005.224-.016.352 0 .117-.005.25-.016.4h-6.176c.054.768.304 1.354.752 1.76.459.394.987.592 1.584.592.48 0 .88-.107 1.2-.32a2.02 2.02 0 0 0 .736-.896h1.696c-.213.746-.64 1.37-1.28 1.872-.629.501-1.413.752-2.352.752Zm0-6.928c-.565 0-1.066.17-1.504.512-.437.33-.704.832-.8 1.504h4.48c-.032-.619-.25-1.11-.656-1.472-.405-.363-.912-.544-1.52-.544Zm8.767 6.736v-11.2h3.92c.875 0 1.6.149 2.176.448.576.288 1.003.688 1.28 1.2.288.501.432 1.072.432 1.712 0 .608-.138 1.168-.416 1.68-.266.501-.688.901-1.264 1.2-.576.298-1.312.448-2.208.448h-2.224v4.512h-1.696Zm1.696-5.904h2.144c.8 0 1.371-.171 1.712-.512.352-.352.528-.827.528-1.424 0-.619-.176-1.099-.528-1.44-.341-.352-.912-.528-1.712-.528h-2.144v3.904Zm7.245 5.904v-11.52h1.696v11.52h-1.696Zm6.051.192c-.672 0-1.226-.112-1.664-.336-.437-.224-.762-.518-.976-.88a2.415 2.415 0 0 1-.32-1.216c0-.768.299-1.376.896-1.824.598-.448 1.451-.672 2.56-.672h2.08v-.144c0-.619-.17-1.083-.512-1.392-.33-.31-.762-.464-1.296-.464-.469 0-.88.117-1.232.352-.341.224-.549.56-.624 1.008h-1.696c.054-.576.246-1.067.576-1.472a3.24 3.24 0 0 1 1.28-.944 4.304 4.304 0 0 1 1.712-.336c1.11 0 1.968.293 2.576.88.608.576.912 1.365.912 2.368v4.88h-1.472l-.144-1.36a3.018 3.018 0 0 1-.976 1.104c-.426.298-.986.448-1.68.448Zm.336-1.376c.459 0 .843-.107 1.152-.32.32-.224.566-.518.736-.88.182-.363.294-.763.336-1.2h-1.888c-.672 0-1.152.117-1.44.352a1.106 1.106 0 0 0-.416.88c0 .362.134.65.4.864.278.202.651.304 1.12.304Zm6.112 4.704 1.904-4.176h-.464l-3.136-7.28h1.84l2.432 5.872 2.544-5.872h1.792l-5.12 11.456h-1.792Zm15.137-3.328c-.821 0-1.541-.144-2.16-.432a3.445 3.445 0 0 1-1.456-1.232c-.341-.534-.517-1.168-.528-1.904h1.792c.011.597.219 1.104.624 1.52.406.416.976.624 1.712.624.651 0 1.158-.155 1.52-.464.374-.32.56-.726.56-1.216 0-.395-.09-.715-.272-.96a1.923 1.923 0 0 0-.72-.608 6.328 6.328 0 0 0-1.04-.432c-.394-.128-.81-.267-1.248-.416-.864-.288-1.514-.662-1.952-1.12-.426-.459-.64-1.062-.64-1.808-.01-.63.134-1.179.432-1.648.31-.47.736-.832 1.28-1.088.555-.267 1.2-.4 1.936-.4.726 0 1.36.133 1.904.4.555.266.987.64 1.296 1.12.31.469.47 1.018.48 1.648h-1.792c0-.288-.074-.56-.224-.816a1.75 1.75 0 0 0-.656-.656c-.288-.171-.64-.256-1.056-.256-.533-.011-.976.122-1.328.4-.341.277-.512.661-.512 1.152 0 .437.128.773.384 1.008.256.234.608.432 1.056.592.448.149.96.325 1.536.528.555.181 1.051.4 1.488.656a2.94 2.94 0 0 1 1.04 1.008c.267.416.4.944.4 1.584 0 .565-.144 1.093-.432 1.584-.288.48-.72.874-1.296 1.184-.576.298-1.285.448-2.128.448Zm8.495-.192c-.779 0-1.398-.187-1.856-.56-.459-.384-.688-1.062-.688-2.032v-3.92h-1.36v-1.424h1.36l.208-2.016h1.488v2.016h2.24v1.424h-2.24v3.92c0 .437.09.741.272.912.192.16.517.24.976.24h.912v1.44h-1.312Zm6.169.192c-.757 0-1.44-.171-2.048-.512a3.896 3.896 0 0 1-1.424-1.456c-.352-.63-.528-1.36-.528-2.192 0-.832.176-1.558.528-2.176a3.813 3.813 0 0 1 1.456-1.456 3.983 3.983 0 0 1 2.032-.528c.758 0 1.435.176 2.032.528a3.7 3.7 0 0 1 1.44 1.456c.363.618.544 1.344.544 2.176 0 .832-.181 1.562-.544 2.192a3.857 3.857 0 0 1-1.44 1.456c-.608.341-1.29.512-2.048.512Zm0-1.456c.406 0 .779-.102 1.12-.304.352-.203.635-.502.848-.896.214-.406.32-.907.32-1.504 0-.598-.106-1.094-.32-1.488a2.09 2.09 0 0 0-.832-.912 2.148 2.148 0 0 0-1.12-.304c-.405 0-.784.101-1.136.304-.341.202-.618.506-.832.912-.213.394-.32.89-.32 1.488 0 .597.107 1.098.32 1.504.214.394.491.693.832.896.342.202.715.304 1.12.304Zm5.387 1.264v-7.936h1.52l.144 1.504a3.117 3.117 0 0 1 1.152-1.232c.501-.31 1.104-.464 1.808-.464v1.776h-.464c-.47 0-.891.08-1.264.24-.363.149-.656.41-.88.784-.214.362-.32.869-.32 1.52v3.808h-1.696Zm9.091.192c-.779 0-1.472-.171-2.08-.512a3.776 3.776 0 0 1-1.408-1.456c-.341-.619-.512-1.339-.512-2.16 0-.832.165-1.563.496-2.192.341-.63.811-1.12 1.408-1.472.608-.352 1.312-.528 2.112-.528.779 0 1.456.176 2.032.528.576.341 1.024.8 1.344 1.376.32.576.48 1.21.48 1.904 0 .106-.005.224-.016.352 0 .117-.005.25-.016.4h-6.176c.053.768.304 1.354.752 1.76.459.394.987.592 1.584.592.48 0 .88-.107 1.2-.32a2.02 2.02 0 0 0 .736-.896h1.696c-.213.746-.64 1.37-1.28 1.872-.629.501-1.413.752-2.352.752Zm0-6.928c-.565 0-1.067.17-1.504.512-.437.33-.704.832-.8 1.504h4.48c-.032-.619-.251-1.11-.656-1.472-.405-.363-.912-.544-1.52-.544ZM104.696 548.724h-1.398l3.141-8.728h1.521l3.141 8.728h-1.398l-2.467-7.142h-.068l-2.472 7.142Zm.234-3.418h4.534v1.108h-4.534v-1.108Zm7.329 5.872v-9h1.244v1.061h.107c.074-.136.18-.294.319-.473.14-.179.333-.335.58-.469.247-.136.574-.204.98-.204.528 0 1 .133 1.415.401.415.267.74.652.976 1.154.238.503.358 1.108.358 1.816 0 .707-.118 1.314-.354 1.819-.236.503-.56.891-.972 1.164-.412.27-.882.404-1.41.404-.398 0-.723-.066-.976-.2a1.84 1.84 0 0 1-.588-.469 3.498 3.498 0 0 1-.328-.477h-.077v3.473h-1.274Zm1.248-5.727c0 .46.067.864.201 1.21.133.347.326.618.579.814.253.193.563.29.929.29.381 0 .699-.101.955-.303a1.87 1.87 0 0 0 .579-.831c.134-.349.201-.743.201-1.18 0-.432-.066-.82-.196-1.163a1.774 1.774 0 0 0-.58-.814c-.256-.199-.575-.299-.959-.299-.369 0-.682.096-.937.286-.253.19-.445.456-.576.797-.13.341-.196.738-.196 1.193Zm6.158 5.727v-9h1.244v1.061h.107a3.53 3.53 0 0 1 .32-.473c.139-.179.332-.335.579-.469.247-.136.574-.204.98-.204.529 0 1 .133 1.415.401.415.267.74.652.976 1.154.239.503.358 1.108.358 1.816 0 .707-.118 1.314-.354 1.819-.236.503-.56.891-.971 1.164-.412.27-.883.404-1.411.404-.398 0-.723-.066-.976-.2a1.84 1.84 0 0 1-.588-.469 3.592 3.592 0 0 1-.328-.477h-.077v3.473h-1.274Zm1.249-5.727c0 .46.066.864.2 1.21.134.347.327.618.58.814.252.193.562.29.929.29.38 0 .698-.101.954-.303.256-.204.449-.481.58-.831.133-.349.2-.743.2-1.18 0-.432-.065-.82-.196-1.163a1.774 1.774 0 0 0-.58-.814c-.255-.199-.575-.299-.958-.299-.37 0-.682.096-.938.286-.253.19-.445.456-.575.797-.131.341-.196.738-.196 1.193Zm11.062-1.675-1.155.205a1.356 1.356 0 0 0-.23-.422 1.128 1.128 0 0 0-.417-.328 1.518 1.518 0 0 0-.661-.128c-.361 0-.662.081-.903.243-.242.159-.362.365-.362.618 0 .218.08.395.242.528.162.134.424.243.785.328l1.039.239c.603.139 1.051.354 1.347.643.295.29.443.667.443 1.13 0 .392-.114.741-.341 1.048-.224.304-.538.542-.942.716-.4.173-.865.26-1.393.26-.733 0-1.331-.157-1.794-.469-.463-.315-.747-.763-.852-1.342l1.231-.188c.077.321.235.564.473.729.239.162.55.243.933.243.418 0 .752-.087 1.002-.26.25-.176.375-.391.375-.644a.67.67 0 0 0-.23-.515c-.151-.139-.382-.245-.695-.316l-1.108-.243c-.611-.139-1.062-.36-1.355-.664-.29-.304-.435-.689-.435-1.155 0-.386.108-.725.324-1.014.216-.29.514-.516.895-.678a3.264 3.264 0 0 1 1.308-.247c.708 0 1.265.153 1.671.46.406.304.675.712.805 1.223ZM292.912 534.288v-1.424h6.512v1.424h-6.512Zm13.161 3.936v-2.24h-5.617v-1.344l5.345-7.616h1.952v7.488h1.568v1.472h-1.568v2.24h-1.68Zm-3.776-3.712h3.872v-5.616l-3.872 5.616Zm11.92 3.904c-.736 0-1.365-.144-1.888-.432a3.296 3.296 0 0 1-1.232-1.152 3.856 3.856 0 0 1-.528-1.568h1.584c.096.554.326.981.688 1.28.363.298.827.448 1.392.448.779 0 1.419-.363 1.92-1.088.512-.736.784-1.862.816-3.376-.256.469-.656.869-1.2 1.2-.533.33-1.152.496-1.856.496a3.7 3.7 0 0 1-3.12-1.696c-.341-.544-.512-1.184-.512-1.92 0-.651.16-1.264.48-1.84.32-.576.768-1.04 1.344-1.392.587-.363 1.28-.544 2.08-.544.822 0 1.515.154 2.08.464.566.309 1.019.72 1.36 1.232.342.512.587 1.088.736 1.728.16.64.24 1.296.24 1.968 0 1.237-.176 2.32-.528 3.248-.341.928-.837 1.653-1.488 2.176-.65.512-1.44.768-2.368.768Zm.08-5.648c.448 0 .848-.102 1.2-.304.352-.203.63-.47.832-.8a2.07 2.07 0 0 0 .32-1.12 2.07 2.07 0 0 0-.32-1.152 2.104 2.104 0 0 0-.848-.8 2.465 2.465 0 0 0-1.2-.288c-.448 0-.848.096-1.2.288a2.261 2.261 0 0 0-.848.8c-.202.33-.304.709-.304 1.136 0 .682.224 1.226.672 1.632.448.405 1.014.608 1.696.608Zm8.814 6.848v-1.232c-1.046-.118-1.883-.486-2.512-1.104-.63-.619-.95-1.43-.96-2.432h1.792c.01.501.16.944.448 1.328.288.373.698.624 1.232.752v-3.856a3.954 3.954 0 0 1-.272-.08 8.328 8.328 0 0 0-.272-.096c-.864-.288-1.515-.662-1.952-1.12-.427-.459-.64-1.062-.64-1.808-.011-.875.272-1.59.848-2.144.576-.555 1.338-.88 2.288-.976v-1.28h1.088v1.296c.928.106 1.674.442 2.24 1.008.565.565.853 1.274.864 2.128h-1.792a1.756 1.756 0 0 0-.352-.992c-.214-.32-.534-.539-.96-.656v3.424l.256.096c.085.021.17.048.256.08.554.181 1.05.4 1.488.656.437.256.784.592 1.04 1.008.266.416.4.944.4 1.584 0 .533-.128 1.034-.384 1.504-.256.458-.64.842-1.152 1.152-.512.309-1.147.49-1.904.544v1.216h-1.088Zm-1.376-9.792c0 .426.122.757.368.992.245.224.581.421 1.008.592v-3.104a1.772 1.772 0 0 0-.992.512c-.256.256-.384.592-.384 1.008Zm4.112 5.488c0-.523-.155-.918-.464-1.184-.31-.278-.704-.507-1.184-.688v3.52c.522-.064.928-.246 1.216-.544a1.53 1.53 0 0 0 .432-1.104Z"/><rect width="310" height="65" x="35" y="575.724" fill="#F8F8F8" rx="10"/><rect width="40" height="40" x="47" y="588.224" fill="#5BB5A2" rx="6"/><path fill="#fff" d="M76.163 613.934c0 .667-.371 1.95-1.205 2.655-.166.128-.334.056-.261-.131.243-.594.8-1.968.538-2.284-.183-.24-.944-.223-1.593-.167-.297.037-.556.055-.759.096-.186.016-.225-.149-.038-.278.24-.169.5-.298.798-.392 1.054-.315 2.273-.126 2.447.076.033.039.074.147.074.425h-.001Zm-1.761 1.187a6.809 6.809 0 0 1-.761.504c-1.945 1.169-4.464 1.781-6.653 1.781-3.523 0-6.673-1.299-9.064-3.472-.205-.167-.035-.409.204-.278 2.576 1.503 5.764 2.412 9.065 2.412a17.856 17.856 0 0 0 6.449-1.224c.148-.056.315-.132.461-.185.337-.152.633.222.299.462Zm-5.656-10.111c0-.954.038-1.516-.279-1.999-.28-.396-.763-.635-1.437-.597-.731.04-1.517.52-1.718 1.399-.038.201-.156.399-.4.442l-2.233-.284c-.159-.036-.401-.158-.322-.477.48-2.523 2.635-3.402 4.673-3.52h.48c1.118 0 2.554.32 3.474 1.158 1.115 1.042.997 2.44.997 3.96v3.6c0 1.08.437 1.558.878 2.121.12.201.16.437-.041.601a70.803 70.803 0 0 1-1.757 1.516c-.16.122-.448.135-.56.041-.705-.591-.878-.919-1.315-1.52-.76.799-1.399 1.24-2.159 1.479a6.486 6.486 0 0 1-1.635.198c-1.916 0-3.434-1.195-3.434-3.557 0-1.878 1-3.155 2.475-3.759 1.476-.605 3.621-.798 4.312-.801l.001-.001Zm-.438 4.759c.476-.799.437-1.454.437-2.919-.597 0-1.197.041-1.715.163-.958.277-1.718.881-1.718 2.158 0 1 .52 1.68 1.398 1.68.121 0 .228-.015.32-.041.614-.171.997-.479 1.278-1.041Z"/><path fill="#1A191E" d="m103.416 603.724 4.128-11.2h1.856l4.096 11.2h-1.792l-.96-2.736h-4.576l-.96 2.736h-1.792Zm3.232-4.08h3.616l-1.808-5.104-1.808 5.104Zm7.866 4.08v-7.936h1.504l.144 1.12a2.794 2.794 0 0 1 1.008-.96c.427-.235.917-.352 1.472-.352 1.259 0 2.133.496 2.624 1.488a3.126 3.126 0 0 1 1.152-1.088 3.264 3.264 0 0 1 1.584-.4c.992 0 1.771.298 2.336.896.565.597.848 1.488.848 2.672v4.56h-1.696v-4.384c0-1.536-.587-2.304-1.76-2.304-.597 0-1.088.224-1.472.672-.373.448-.56 1.088-.56 1.92v4.096h-1.696v-4.384c0-1.536-.592-2.304-1.776-2.304-.587 0-1.072.224-1.456.672-.373.448-.56 1.088-.56 1.92v4.096h-1.696Zm16.864.192c-.672 0-1.227-.112-1.664-.336-.437-.224-.763-.518-.976-.88a2.415 2.415 0 0 1-.32-1.216c0-.768.299-1.376.896-1.824.597-.448 1.451-.672 2.56-.672h2.08v-.144c0-.619-.171-1.083-.512-1.392-.331-.31-.763-.464-1.296-.464-.469 0-.88.117-1.232.352-.341.224-.549.56-.624 1.008h-1.696c.053-.576.245-1.067.576-1.472a3.233 3.233 0 0 1 1.28-.944 4.3 4.3 0 0 1 1.712-.336c1.109 0 1.968.293 2.576.88.608.576.912 1.365.912 2.368v4.88h-1.472l-.144-1.36a3.018 3.018 0 0 1-.976 1.104c-.427.298-.987.448-1.68.448Zm.336-1.376c.459 0 .843-.107 1.152-.32a2.2 2.2 0 0 0 .736-.88c.181-.363.293-.763.336-1.2h-1.888c-.672 0-1.152.117-1.44.352a1.106 1.106 0 0 0-.416.88c0 .362.133.65.4.864.277.202.651.304 1.12.304Zm4.906 1.184v-1.376l4.24-5.152h-4.176v-1.408h6.096v1.376l-4.272 5.152h4.352v1.408h-6.24Zm11.213.192c-.758 0-1.44-.171-2.048-.512a3.888 3.888 0 0 1-1.424-1.456c-.352-.63-.528-1.36-.528-2.192 0-.832.176-1.558.528-2.176a3.806 3.806 0 0 1 1.456-1.456 3.98 3.98 0 0 1 2.032-.528c.757 0 1.434.176 2.032.528a3.7 3.7 0 0 1 1.44 1.456c.362.618.544 1.344.544 2.176 0 .832-.182 1.562-.544 2.192a3.857 3.857 0 0 1-1.44 1.456c-.608.341-1.291.512-2.048.512Zm0-1.456c.405 0 .778-.102 1.12-.304.352-.203.634-.502.848-.896.213-.406.32-.907.32-1.504 0-.598-.107-1.094-.32-1.488-.203-.406-.48-.71-.832-.912a2.153 2.153 0 0 0-1.12-.304c-.406 0-.784.101-1.136.304-.342.202-.619.506-.832.912-.214.394-.32.89-.32 1.488 0 .597.106 1.098.32 1.504.213.394.49.693.832.896.341.202.714.304 1.12.304Zm5.386 1.264v-7.936h1.504l.128 1.392a2.723 2.723 0 0 1 1.072-1.152c.48-.288 1.029-.432 1.648-.432.96 0 1.712.298 2.256.896.555.597.832 1.488.832 2.672v4.56h-1.68v-4.384c0-1.536-.629-2.304-1.888-2.304-.629 0-1.152.224-1.568.672-.405.448-.608 1.088-.608 1.92v4.096h-1.696ZM108.719 617.289a1.248 1.248 0 0 0-.563-.938c-.329-.224-.744-.336-1.244-.336-.358 0-.668.057-.929.17a1.421 1.421 0 0 0-.609.461 1.085 1.085 0 0 0-.213.66.98.98 0 0 0 .144.537c.1.151.229.277.388.379.162.1.335.183.52.252.185.065.362.119.533.162l.852.221c.278.068.564.161.857.277.292.117.563.27.813.46.25.191.452.427.606.708.156.281.234.618.234 1.01 0 .494-.128.933-.384 1.316-.252.384-.62.687-1.103.908-.48.222-1.061.333-1.743.333-.654 0-1.219-.104-1.696-.312-.477-.207-.851-.501-1.121-.882-.27-.383-.419-.838-.447-1.363h1.321c.025.315.128.578.306.788.182.207.414.362.695.465.284.099.595.149.933.149.372 0 .703-.059.993-.175.293-.119.523-.284.691-.494.167-.213.251-.462.251-.746a.914.914 0 0 0-.222-.635 1.626 1.626 0 0 0-.592-.409 5.864 5.864 0 0 0-.839-.286l-1.032-.281c-.699-.19-1.253-.47-1.662-.839-.406-.37-.609-.858-.609-1.466 0-.503.136-.942.409-1.317a2.694 2.694 0 0 1 1.108-.874c.466-.21.992-.315 1.577-.315.591 0 1.112.104 1.564.311.454.208.812.493 1.074.857.261.36.397.775.409 1.244h-1.27Zm4.134 2.548v3.887h-1.274v-8.728h1.257v3.248h.081c.154-.353.388-.633.703-.84.316-.207.728-.311 1.236-.311.449 0 .841.092 1.176.277.338.185.6.46.784.827.188.363.282.818.282 1.363v4.164h-1.274v-4.01c0-.48-.124-.853-.371-1.117-.247-.267-.591-.4-1.031-.4-.302 0-.572.064-.81.191a1.382 1.382 0 0 0-.558.563c-.134.244-.201.54-.201.886Zm8.702 4.019c-.614 0-1.149-.141-1.606-.422a2.841 2.841 0 0 1-1.066-1.181c-.253-.505-.379-1.096-.379-1.772 0-.679.126-1.273.379-1.782a2.837 2.837 0 0 1 1.066-1.184c.457-.281.992-.422 1.606-.422.614 0 1.149.141 1.607.422.457.281.812.676 1.065 1.184.253.509.379 1.103.379 1.782 0 .676-.126 1.267-.379 1.772-.253.506-.608.9-1.065 1.181-.458.281-.993.422-1.607.422Zm.004-1.07c.398 0 .728-.105.989-.315.261-.21.454-.49.579-.84.128-.349.192-.734.192-1.155a3.32 3.32 0 0 0-.192-1.15 1.877 1.877 0 0 0-.579-.848c-.261-.213-.591-.32-.989-.32-.4 0-.733.107-.997.32a1.91 1.91 0 0 0-.584.848 3.392 3.392 0 0 0-.187 1.15c0 .421.062.806.187 1.155.128.35.323.63.584.84.264.21.597.315.997.315Zm4.469 3.392v-9h1.245v1.061h.106c.074-.136.181-.294.32-.473s.332-.335.579-.469c.248-.136.574-.204.981-.204.528 0 1 .133 1.414.401.415.267.74.652.976 1.154.239.503.358 1.108.358 1.816 0 .707-.118 1.314-.354 1.819-.235.503-.559.891-.971 1.164-.412.27-.882.404-1.411.404-.397 0-.723-.066-.976-.2a1.84 1.84 0 0 1-.588-.469 3.592 3.592 0 0 1-.328-.477h-.076v3.473h-1.275Zm1.249-5.727c0 .46.067.864.2 1.21.134.347.327.618.58.814.253.193.562.29.929.29.38 0 .699-.101.954-.303.256-.204.449-.481.58-.831.133-.349.2-.743.2-1.18 0-.432-.065-.82-.196-1.163a1.78 1.78 0 0 0-.579-.814c-.256-.199-.576-.299-.959-.299-.37 0-.682.096-.938.286-.253.19-.444.456-.575.797-.131.341-.196.738-.196 1.193Zm6.158 5.727v-9h1.244v1.061h.107a3.51 3.51 0 0 1 .319-.473c.139-.179.333-.335.58-.469.247-.136.574-.204.98-.204.528 0 1 .133 1.415.401.414.267.74.652.975 1.154.239.503.358 1.108.358 1.816 0 .707-.118 1.314-.353 1.819-.236.503-.56.891-.972 1.164-.412.27-.882.404-1.41.404-.398 0-.723-.066-.976-.2a1.84 1.84 0 0 1-.588-.469 3.498 3.498 0 0 1-.328-.477h-.077v3.473h-1.274Zm1.248-5.727c0 .46.067.864.201 1.21.133.347.326.618.579.814.253.193.563.29.929.29.381 0 .699-.101.955-.303.255-.204.448-.481.579-.831.134-.349.2-.743.2-1.18 0-.432-.065-.82-.196-1.163a1.772 1.772 0 0 0-.579-.814c-.256-.199-.575-.299-.959-.299-.369 0-.682.096-.937.286-.253.19-.445.456-.576.797-.13.341-.196.738-.196 1.193Zm6.158 3.273v-6.546h1.274v6.546h-1.274Zm.643-7.556a.813.813 0 0 1-.571-.221.722.722 0 0 1-.234-.537c0-.211.078-.389.234-.537a.8.8 0 0 1 .571-.226c.222 0 .411.075.567.226a.706.706 0 0 1 .239.537c0 .207-.08.386-.239.537a.797.797 0 0 1-.567.221Zm3.619 3.669v3.887h-1.274v-6.546h1.223v1.066h.081a1.88 1.88 0 0 1 .708-.836c.323-.21.731-.315 1.223-.315.446 0 .836.094 1.171.281.336.185.596.46.78.827.185.366.277.82.277 1.359v4.164h-1.274v-4.01c0-.475-.123-.845-.371-1.113-.247-.269-.586-.404-1.018-.404-.296 0-.558.064-.788.191a1.383 1.383 0 0 0-.542.563c-.13.244-.196.54-.196.886Zm8.642 6.478c-.52 0-.967-.069-1.342-.205a2.604 2.604 0 0 1-.912-.541 2.267 2.267 0 0 1-.528-.737l1.095-.452c.077.125.179.257.307.396.13.142.307.263.528.362.225.1.513.15.865.15.483 0 .882-.118 1.198-.354.315-.233.473-.605.473-1.117v-1.287h-.081c-.077.14-.188.294-.333.465-.142.17-.338.318-.588.443-.25.125-.575.188-.976.188-.517 0-.983-.121-1.397-.363-.412-.244-.739-.603-.98-1.078-.239-.477-.358-1.064-.358-1.76s.117-1.292.353-1.789c.239-.498.566-.878.98-1.142a2.543 2.543 0 0 1 1.411-.401c.406 0 .734.068.984.204.25.134.445.29.584.469.142.179.251.337.328.473h.094v-1.061h1.249v6.691c0 .562-.131 1.024-.393 1.384a2.31 2.31 0 0 1-1.061.802c-.443.173-.943.26-1.5.26Zm-.012-3.746c.366 0 .676-.085.929-.256.255-.173.448-.42.579-.741.134-.324.2-.712.2-1.164 0-.44-.065-.828-.196-1.163a1.72 1.72 0 0 0-.575-.784c-.253-.19-.565-.286-.937-.286-.384 0-.704.1-.959.299a1.8 1.8 0 0 0-.58.801 3.18 3.18 0 0 0-.192 1.133c0 .429.066.806.197 1.13.13.323.323.576.579.758.259.182.577.273.955.273ZM293.912 609.288v-1.424h6.512v1.424h-6.512Zm11.961 4.128c-.79 0-1.472-.139-2.048-.416a3.604 3.604 0 0 1-1.376-1.168 3.866 3.866 0 0 1-.609-1.696h1.665c.106.533.373.976.8 1.328.426.341.954.512 1.584.512.469 0 .874-.112 1.216-.336a2.42 2.42 0 0 0 .8-.928c.192-.384.288-.816.288-1.296 0-.758-.214-1.36-.64-1.808-.427-.459-.966-.688-1.616-.688-.555 0-1.03.133-1.424.4a2.29 2.29 0 0 0-.864.976h-1.616l.96-6.272h6.048v1.488h-4.768l-.576 2.992c.245-.278.581-.507 1.008-.688a3.624 3.624 0 0 1 1.472-.288c.757 0 1.408.176 1.952.528.544.341.96.805 1.248 1.392.298.586.448 1.237.448 1.952 0 .746-.16 1.424-.48 2.032a3.689 3.689 0 0 1-1.376 1.456c-.587.352-1.286.528-2.096.528Zm8.813 0c-.736 0-1.365-.144-1.888-.432a3.288 3.288 0 0 1-1.232-1.152 3.856 3.856 0 0 1-.528-1.568h1.584c.096.554.325.981.688 1.28.363.298.827.448 1.392.448.779 0 1.419-.363 1.92-1.088.512-.736.784-1.862.816-3.376-.256.469-.656.869-1.2 1.2-.533.33-1.152.496-1.856.496a3.7 3.7 0 0 1-1.776-.448 3.596 3.596 0 0 1-1.344-1.248c-.341-.544-.512-1.184-.512-1.92 0-.651.16-1.264.48-1.84.32-.576.768-1.04 1.344-1.392.587-.363 1.28-.544 2.08-.544.821 0 1.515.154 2.08.464.565.309 1.019.72 1.36 1.232.341.512.587 1.088.736 1.728.16.64.24 1.296.24 1.968 0 1.237-.176 2.32-.528 3.248-.341.928-.837 1.653-1.488 2.176-.651.512-1.44.768-2.368.768Zm.08-5.648c.448 0 .848-.102 1.2-.304.352-.203.629-.47.832-.8.213-.342.32-.715.32-1.12 0-.438-.107-.822-.32-1.152a2.11 2.11 0 0 0-.848-.8 2.465 2.465 0 0 0-1.2-.288c-.448 0-.848.096-1.2.288a2.254 2.254 0 0 0-.848.8c-.203.33-.304.709-.304 1.136 0 .682.224 1.226.672 1.632.448.405 1.013.608 1.696.608Zm8.813 6.848v-1.232c-1.045-.118-1.882-.486-2.512-1.104-.629-.619-.949-1.43-.96-2.432h1.792c.011.501.16.944.448 1.328.288.373.699.624 1.232.752v-3.856a4.125 4.125 0 0 1-.272-.08 7.57 7.57 0 0 0-.272-.096c-.864-.288-1.514-.662-1.952-1.12-.426-.459-.64-1.062-.64-1.808-.01-.875.272-1.59.848-2.144.576-.555 1.339-.88 2.288-.976v-1.28h1.088v1.296c.928.106 1.675.442 2.24 1.008.566.565.854 1.274.864 2.128h-1.792a1.75 1.75 0 0 0-.352-.992c-.213-.32-.533-.539-.96-.656v3.424l.256.096c.086.021.171.048.256.08.555.181 1.051.4 1.488.656a2.94 2.94 0 0 1 1.04 1.008c.267.416.4.944.4 1.584 0 .533-.128 1.034-.384 1.504-.256.458-.64.842-1.152 1.152-.512.309-1.146.49-1.904.544v1.216h-1.088Zm-1.376-9.792c0 .426.123.757.368.992.246.224.582.421 1.008.592v-3.104a1.776 1.776 0 0 0-.992.512c-.256.256-.384.592-.384 1.008Zm4.112 5.488c0-.523-.154-.918-.464-1.184-.309-.278-.704-.507-1.184-.688v3.52c.523-.064.928-.246 1.216-.544a1.53 1.53 0 0 0 .432-1.104Z"/><rect width="310" height="65" x="35" y="650.724" fill="#F8F8F8" rx="10"/><rect width="40" height="40" x="47" y="663.224" fill="#5BB5A2" rx="6"/><path fill="#fff" d="M76.315 677.408c-.7.31-1.442.513-2.202.604a3.845 3.845 0 0 0 1.687-2.122 7.656 7.656 0 0 1-2.435.931 3.83 3.83 0 0 0-6.294 1.04 3.833 3.833 0 0 0-.238 2.456 10.88 10.88 0 0 1-7.901-4.006 3.834 3.834 0 0 0 1.186 5.119 3.818 3.818 0 0 1-1.736-.48v.048a3.836 3.836 0 0 0 3.075 3.759 3.856 3.856 0 0 1-1.733.066 3.834 3.834 0 0 0 3.582 2.663 7.697 7.697 0 0 1-5.675 1.588 10.843 10.843 0 0 0 5.876 1.723c7.052 0 10.908-5.842 10.908-10.908 0-.165-.005-.332-.012-.495a7.798 7.798 0 0 0 1.913-1.985v-.001Z"/><path fill="#1A191E" d="M106.76 678.724V668.9h-3.312v-1.376h8.304v1.376h-3.296v9.824h-1.696Zm6.744 0-2.336-7.936h1.696l1.536 5.984 1.728-5.984h1.888l1.728 5.984 1.536-5.984h1.696l-2.336 7.936h-1.744l-1.824-6.24-1.824 6.24h-1.744Zm11.349-9.44c-.32 0-.586-.096-.8-.288a1.026 1.026 0 0 1-.304-.752c0-.299.102-.544.304-.736.214-.203.48-.304.8-.304.32 0 .582.101.784.304.214.192.32.437.32.736a.995.995 0 0 1-.32.752c-.202.192-.464.288-.784.288Zm-.848 9.44v-7.936h1.696v7.936h-1.696Zm6.783 0c-.779 0-1.397-.187-1.856-.56-.459-.384-.688-1.062-.688-2.032v-3.92h-1.36v-1.424h1.36l.208-2.016h1.488v2.016h2.24v1.424h-2.24v3.92c0 .437.091.741.272.912.192.16.517.24.976.24h.912v1.44h-1.312Zm5.989 0c-.779 0-1.397-.187-1.856-.56-.459-.384-.688-1.062-.688-2.032v-3.92h-1.36v-1.424h1.36l.208-2.016h1.488v2.016h2.24v1.424h-2.24v3.92c0 .437.091.741.272.912.192.16.517.24.976.24h.912v1.44h-1.312Zm6.169.192c-.778 0-1.472-.171-2.08-.512a3.783 3.783 0 0 1-1.408-1.456c-.341-.619-.512-1.339-.512-2.16 0-.832.166-1.563.496-2.192.342-.63.811-1.12 1.408-1.472.608-.352 1.312-.528 2.112-.528.779 0 1.456.176 2.032.528.576.341 1.024.8 1.344 1.376.32.576.48 1.21.48 1.904 0 .106-.005.224-.016.352 0 .117-.005.25-.016.4h-6.176c.054.768.304 1.354.752 1.76.459.394.987.592 1.584.592.48 0 .88-.107 1.2-.32a2.02 2.02 0 0 0 .736-.896h1.696c-.213.746-.64 1.37-1.28 1.872-.629.501-1.413.752-2.352.752Zm0-6.928c-.565 0-1.066.17-1.504.512-.437.33-.704.832-.8 1.504h4.48c-.032-.619-.25-1.11-.656-1.472-.405-.363-.912-.544-1.52-.544Zm5.152 6.736v-7.936h1.52l.144 1.504a3.131 3.131 0 0 1 1.152-1.232c.502-.31 1.104-.464 1.808-.464v1.776h-.464c-.469 0-.89.08-1.264.24-.362.149-.656.41-.88.784-.213.362-.32.869-.32 1.52v3.808h-1.696ZM104.696 698.724h-1.398l3.141-8.728h1.521l3.141 8.728h-1.398l-2.467-7.142h-.068l-2.472 7.142Zm.234-3.418h4.534v1.108h-4.534v-1.108Zm9.674 3.545c-.529 0-1-.134-1.415-.404-.412-.273-.736-.661-.972-1.164-.233-.505-.349-1.112-.349-1.819 0-.708.118-1.313.354-1.816.238-.502.565-.887.98-1.154a2.54 2.54 0 0 1 1.41-.401c.406 0 .733.068.98.204.25.134.444.29.58.469.139.179.247.337.324.473h.076v-3.243h1.275v8.728h-1.245v-1.019h-.106a3.41 3.41 0 0 1-.333.477 1.84 1.84 0 0 1-.588.469c-.25.134-.574.2-.971.2Zm.281-1.086c.366 0 .676-.097.929-.29.256-.196.449-.467.579-.814.134-.346.201-.75.201-1.21 0-.455-.066-.852-.196-1.193a1.753 1.753 0 0 0-.576-.797c-.252-.19-.565-.286-.937-.286-.384 0-.703.1-.959.299-.256.198-.449.47-.579.814a3.31 3.31 0 0 0-.192 1.163c0 .437.065.831.196 1.18.131.35.324.627.579.831.259.202.577.303.955.303Zm9.685-3.989-1.155.205a1.356 1.356 0 0 0-.23-.422 1.123 1.123 0 0 0-.418-.328 1.513 1.513 0 0 0-.66-.128c-.361 0-.662.081-.904.243-.241.159-.362.365-.362.618a.65.65 0 0 0 .243.528c.162.134.423.243.784.328l1.04.239c.602.139 1.051.354 1.347.643.295.29.443.667.443 1.13 0 .392-.114.741-.341 1.048-.225.304-.538.542-.942.716-.4.173-.865.26-1.393.26-.733 0-1.331-.157-1.794-.469-.463-.315-.748-.763-.853-1.342l1.232-.188c.077.321.234.564.473.729.239.162.55.243.933.243.418 0 .752-.087 1.002-.26.25-.176.375-.391.375-.644a.667.667 0 0 0-.231-.515c-.15-.139-.382-.245-.694-.316l-1.108-.243c-.611-.139-1.063-.36-1.355-.664-.29-.304-.435-.689-.435-1.155 0-.386.108-.725.324-1.014.216-.29.514-.516.895-.678a3.264 3.264 0 0 1 1.308-.247c.707 0 1.264.153 1.671.46.406.304.674.712.805 1.223ZM302.912 684.288v-1.424h6.512v1.424h-6.512Zm11.817 4.128c-.736 0-1.366-.144-1.888-.432a3.28 3.28 0 0 1-1.232-1.152 3.856 3.856 0 0 1-.528-1.568h1.583c.097.554.326.981.689 1.28.362.298.826.448 1.392.448.778 0 1.418-.363 1.92-1.088.512-.736.784-1.862.816-3.376-.256.469-.656.869-1.2 1.2-.534.33-1.152.496-1.857.496-.629 0-1.221-.15-1.775-.448a3.596 3.596 0 0 1-1.344-1.248c-.342-.544-.512-1.184-.512-1.92 0-.651.16-1.264.48-1.84.32-.576.768-1.04 1.344-1.392.586-.363 1.28-.544 2.08-.544.821 0 1.514.154 2.08.464.565.309 1.018.72 1.36 1.232.341.512.586 1.088.735 1.728.161.64.241 1.296.241 1.968 0 1.237-.176 2.32-.528 3.248-.342.928-.838 1.653-1.488 2.176-.651.512-1.44.768-2.368.768Zm.08-5.648c.448 0 .848-.102 1.2-.304.352-.203.629-.47.832-.8.213-.342.32-.715.32-1.12 0-.438-.107-.822-.32-1.152a2.117 2.117 0 0 0-.848-.8 2.465 2.465 0 0 0-1.2-.288c-.448 0-.848.096-1.2.288a2.254 2.254 0 0 0-.848.8c-.203.33-.304.709-.304 1.136 0 .682.224 1.226.672 1.632.448.405 1.013.608 1.696.608Zm8.813 6.848v-1.232c-1.045-.118-1.883-.486-2.512-1.104-.629-.619-.949-1.43-.96-2.432h1.792c.011.501.16.944.448 1.328.288.373.699.624 1.232.752v-3.856a4.125 4.125 0 0 1-.272-.08 7.57 7.57 0 0 0-.272-.096c-.864-.288-1.515-.662-1.952-1.12-.427-.459-.64-1.062-.64-1.808-.011-.875.272-1.59.848-2.144.576-.555 1.339-.88 2.288-.976v-1.28h1.088v1.296c.928.106 1.675.442 2.24 1.008.565.565.853 1.274.864 2.128h-1.792a1.756 1.756 0 0 0-.352-.992c-.213-.32-.533-.539-.96-.656v3.424l.256.096c.085.021.171.048.256.08.555.181 1.051.4 1.488.656.437.256.784.592 1.04 1.008.267.416.4.944.4 1.584 0 .533-.128 1.034-.384 1.504-.256.458-.64.842-1.152 1.152-.512.309-1.147.49-1.904.544v1.216h-1.088Zm-1.376-9.792c0 .426.123.757.368.992.245.224.581.421 1.008.592v-3.104a1.776 1.776 0 0 0-.992.512c-.256.256-.384.592-.384 1.008Zm4.112 5.488c0-.523-.155-.918-.464-1.184-.309-.278-.704-.507-1.184-.688v3.52c.523-.064.928-.246 1.216-.544a1.53 1.53 0 0 0 .432-1.104Z"/><path fill="#fff" d="M0 705.724h380v95H0z"/><path fill="#5BB5A2" d="M68.25 744.057a.917.917 0 0 1-.917.917H52.667a.917.917 0 0 1-.917-.917v-9.634a.913.913 0 0 1 .354-.724l7.333-5.704a.917.917 0 0 1 1.126 0l7.333 5.704a.905.905 0 0 1 .354.724v9.634Zm-1.833-.917v-8.27L60 729.88l-6.417 4.99v8.27h12.834ZM43.959 765.724v-8.728h1.317v3.793h4.35v-3.793h1.321v8.728h-1.32v-3.806h-4.351v3.806h-1.317Zm11.56.132c-.613 0-1.148-.141-1.606-.422a2.843 2.843 0 0 1-1.065-1.181c-.253-.505-.38-1.096-.38-1.772 0-.679.127-1.273.38-1.782a2.84 2.84 0 0 1 1.065-1.184c.458-.281.993-.422 1.607-.422.613 0 1.149.141 1.606.422a2.84 2.84 0 0 1 1.066 1.184c.253.509.379 1.103.379 1.782 0 .676-.126 1.267-.38 1.772-.252.506-.607.9-1.065 1.181-.457.281-.992.422-1.606.422Zm.005-1.07c.398 0 .727-.105.989-.315.261-.21.454-.49.58-.84.127-.349.191-.734.191-1.155 0-.417-.064-.801-.192-1.15a1.876 1.876 0 0 0-.58-.848c-.26-.213-.59-.32-.988-.32-.4 0-.733.107-.997.32a1.905 1.905 0 0 0-.584.848 3.392 3.392 0 0 0-.187 1.15c0 .421.062.806.187 1.155.128.35.323.63.584.84.264.21.597.315.997.315Zm4.47.938v-6.546h1.222v1.066h.081c.137-.361.36-.643.67-.844.309-.205.68-.307 1.111-.307.438 0 .804.102 1.1.307.298.204.518.486.66.844h.069c.156-.35.404-.628.745-.836.341-.21.748-.315 1.22-.315.593 0 1.077.186 1.452.558.378.372.567.933.567 1.683v4.39h-1.274v-4.27c0-.443-.12-.764-.362-.963a1.317 1.317 0 0 0-.865-.299c-.415 0-.738.128-.968.384-.23.253-.345.578-.345.976v4.172h-1.27v-4.351c0-.355-.11-.641-.332-.857-.222-.216-.51-.324-.865-.324-.242 0-.465.064-.67.192a1.41 1.41 0 0 0-.49.524 1.61 1.61 0 0 0-.183.78v4.036h-1.274Zm13.426.132c-.645 0-1.2-.138-1.666-.414a2.804 2.804 0 0 1-1.074-1.171c-.25-.506-.375-1.099-.375-1.777 0-.671.125-1.262.375-1.773a2.91 2.91 0 0 1 1.056-1.198c.455-.287.986-.43 1.594-.43.37 0 .728.061 1.074.183.347.122.658.314.933.575.276.262.493.601.652 1.019.16.415.239.919.239 1.513v.451h-5.203v-.954h3.954c0-.335-.068-.632-.204-.891a1.553 1.553 0 0 0-.575-.618 1.612 1.612 0 0 0-.861-.225c-.358 0-.67.088-.938.264-.264.173-.468.4-.613.682-.142.278-.213.58-.213.907v.746c0 .437.076.81.23 1.116.156.307.373.542.652.704.278.159.603.238.976.238.241 0 .461-.034.66-.102.199-.071.37-.176.516-.315.145-.14.255-.312.332-.516l1.206.217c-.097.355-.27.666-.52.934a2.51 2.51 0 0 1-.933.617 3.49 3.49 0 0 1-1.274.218Z"/><path fill="#1A191E" d="M144 745.89a9.167 9.167 0 1 1 0-18.333 9.167 9.167 0 1 1 0 18.333Zm0-1.833a7.332 7.332 0 0 0 5.186-12.519 7.337 7.337 0 0 0-10.371 0 7.331 7.331 0 0 0 0 10.371 7.333 7.333 0 0 0 5.185 2.148Zm-3.208-5.5h5.041a.46.46 0 1 0 0-.917h-3.666a2.292 2.292 0 1 1 0-4.583h.916v-1.833h1.834v1.833h2.291v1.833h-5.041a.458.458 0 0 0 0 .917h3.666a2.292 2.292 0 1 1 0 4.583h-.916v1.834h-1.834v-1.834h-2.291v-1.833ZM126.719 759.289a1.248 1.248 0 0 0-.563-.938c-.329-.224-.744-.336-1.244-.336-.358 0-.668.057-.929.17a1.421 1.421 0 0 0-.609.461 1.085 1.085 0 0 0-.213.66.98.98 0 0 0 .144.537c.1.151.229.277.388.379.162.1.335.183.52.252.185.065.362.119.533.162l.852.221c.278.068.564.161.857.277.292.117.563.27.813.46.25.191.452.427.606.708.156.281.234.618.234 1.01 0 .494-.128.933-.384 1.316-.252.384-.62.687-1.103.908-.48.222-1.061.333-1.743.333-.654 0-1.219-.104-1.696-.312-.477-.207-.851-.501-1.121-.882-.27-.383-.419-.838-.447-1.363h1.321c.025.315.128.578.306.788.182.207.414.362.695.465.284.099.595.149.933.149.372 0 .703-.059.993-.175.293-.119.523-.284.691-.494.167-.213.251-.462.251-.746a.914.914 0 0 0-.222-.635 1.626 1.626 0 0 0-.592-.409 5.864 5.864 0 0 0-.839-.286l-1.032-.281c-.699-.19-1.253-.47-1.662-.839-.406-.37-.609-.858-.609-1.466 0-.503.136-.942.409-1.317a2.694 2.694 0 0 1 1.108-.874c.466-.21.992-.315 1.577-.315.591 0 1.112.104 1.564.311.454.208.812.493 1.074.857.261.36.397.775.409 1.244h-1.27Zm4.765 6.58c-.415 0-.79-.077-1.125-.231a1.897 1.897 0 0 1-.797-.677c-.193-.296-.29-.658-.29-1.087 0-.369.071-.673.213-.912.142-.238.334-.427.576-.566.241-.14.511-.245.809-.316.299-.071.603-.125.912-.162l.955-.111c.244-.031.422-.081.533-.149.11-.068.166-.179.166-.332v-.03c0-.372-.105-.66-.316-.865-.207-.205-.517-.307-.929-.307-.429 0-.767.095-1.014.286a1.528 1.528 0 0 0-.507.626l-1.197-.273c.142-.397.349-.718.622-.963.275-.247.592-.426.95-.537.358-.113.734-.17 1.129-.17.262 0 .539.031.831.094.296.059.571.17.827.332.259.162.47.394.635.695.165.298.247.686.247 1.163v4.347h-1.244v-.895h-.051a1.834 1.834 0 0 1-.371.486 1.966 1.966 0 0 1-.635.396 2.466 2.466 0 0 1-.929.158Zm.277-1.023c.352 0 .653-.07.903-.209.253-.139.445-.321.576-.545.133-.228.2-.471.2-.729v-.844c-.045.046-.134.088-.264.128-.128.037-.274.07-.439.098a28.533 28.533 0 0 1-.874.124 3.126 3.126 0 0 0-.677.157 1.165 1.165 0 0 0-.486.32c-.119.136-.179.318-.179.545 0 .316.116.554.349.716.233.159.53.239.891.239Zm10.015-5.668-2.373 6.546h-1.364l-2.378-6.546h1.368l1.658 5.037h.068l1.653-5.037h1.368Zm1.198 6.546v-6.546h1.274v6.546h-1.274Zm.643-7.556a.813.813 0 0 1-.571-.221.722.722 0 0 1-.234-.537c0-.211.078-.389.234-.537a.8.8 0 0 1 .571-.226c.222 0 .411.075.567.226a.706.706 0 0 1 .239.537c0 .207-.08.386-.239.537a.797.797 0 0 1-.567.221Zm3.619 3.669v3.887h-1.274v-6.546h1.223v1.066h.081c.151-.347.386-.625.707-.836.324-.21.732-.315 1.223-.315.446 0 .837.094 1.172.281.335.185.595.46.78.827.185.366.277.82.277 1.359v4.164h-1.274v-4.01c0-.475-.124-.845-.371-1.113-.247-.269-.586-.404-1.018-.404-.296 0-.559.064-.789.191a1.387 1.387 0 0 0-.541.563c-.131.244-.196.54-.196.886Zm8.642 6.478c-.52 0-.967-.069-1.342-.205a2.604 2.604 0 0 1-.912-.541 2.267 2.267 0 0 1-.528-.737l1.095-.452c.076.125.179.257.307.396.13.142.306.263.528.362.224.1.513.15.865.15.483 0 .882-.118 1.197-.354.316-.233.473-.605.473-1.117v-1.287h-.081a2.84 2.84 0 0 1-.332.465c-.142.17-.338.318-.588.443-.25.125-.575.188-.976.188-.517 0-.983-.121-1.398-.363-.411-.244-.738-.603-.98-1.078-.238-.477-.358-1.064-.358-1.76s.118-1.292.354-1.789c.239-.498.565-.878.98-1.142a2.543 2.543 0 0 1 1.411-.401c.406 0 .734.068.984.204.25.134.445.29.584.469.142.179.251.337.328.473h.094v-1.061h1.248v6.691c0 .562-.13 1.024-.392 1.384a2.31 2.31 0 0 1-1.061.802c-.443.173-.943.26-1.5.26Zm-.013-3.746c.367 0 .677-.085.929-.256a1.59 1.59 0 0 0 .58-.741c.133-.324.2-.712.2-1.164 0-.44-.065-.828-.196-1.163a1.72 1.72 0 0 0-.575-.784c-.253-.19-.565-.286-.938-.286-.383 0-.703.1-.958.299a1.8 1.8 0 0 0-.58.801 3.18 3.18 0 0 0-.192 1.133c0 .429.066.806.196 1.13.131.323.324.576.58.758.258.182.577.273.954.273Zm9.58-3.793-1.155.205a1.356 1.356 0 0 0-.23-.422 1.123 1.123 0 0 0-.418-.328 1.513 1.513 0 0 0-.66-.128c-.361 0-.662.081-.904.243-.241.159-.362.365-.362.618a.65.65 0 0 0 .243.528c.162.134.423.243.784.328l1.04.239c.602.139 1.051.354 1.347.643.295.29.443.667.443 1.13 0 .392-.114.741-.341 1.048-.225.304-.538.542-.942.716-.4.173-.865.26-1.393.26-.733 0-1.331-.157-1.794-.469-.463-.315-.748-.763-.853-1.342l1.232-.188c.077.321.234.564.473.729.239.162.55.243.933.243.418 0 .752-.087 1.002-.26.25-.176.375-.391.375-.644a.667.667 0 0 0-.231-.515c-.15-.139-.382-.245-.694-.316l-1.108-.243c-.611-.139-1.063-.36-1.355-.664-.29-.304-.435-.689-.435-1.155 0-.386.108-.725.324-1.014.216-.29.514-.516.895-.678a3.264 3.264 0 0 1 1.308-.247c.707 0 1.264.153 1.671.46.406.304.674.712.805 1.223ZM219.75 728.474h16.5a.916.916 0 0 1 .917.916v14.667a.917.917 0 0 1-.917.917h-16.5a.917.917 0 0 1-.917-.917V729.39a.917.917 0 0 1 .917-.916Zm15.583 8.25h-14.666v6.416h14.666v-6.416Zm0-3.667v-2.75h-14.666v2.75h14.666ZM219.207 759.834h-1.329a2.018 2.018 0 0 0-.797-1.299 2.206 2.206 0 0 0-.678-.341 2.635 2.635 0 0 0-.788-.115c-.503 0-.953.126-1.351.379-.395.253-.707.624-.937 1.112-.228.489-.341 1.085-.341 1.79 0 .71.113 1.31.341 1.798.23.489.544.858.941 1.108.398.25.846.375 1.343.375.275 0 .537-.037.784-.111.25-.076.476-.188.677-.336a2.04 2.04 0 0 0 .806-1.283l1.329.004a3.552 3.552 0 0 1-.413 1.185 3.272 3.272 0 0 1-.78.929 3.513 3.513 0 0 1-1.082.601c-.406.142-.85.213-1.33.213-.755 0-1.429-.179-2.02-.537-.591-.361-1.056-.876-1.397-1.547-.338-.67-.507-1.47-.507-2.399 0-.932.17-1.732.511-2.399.341-.671.807-1.185 1.398-1.543.591-.361 1.262-.541 2.015-.541.463 0 .895.067 1.296.2.403.131.765.324 1.086.58.321.253.587.562.797.929.21.363.353.78.426 1.248Zm3.379 6.035c-.415 0-.79-.077-1.125-.231a1.89 1.89 0 0 1-.797-.677c-.193-.296-.29-.658-.29-1.087 0-.369.071-.673.213-.912.142-.238.334-.427.575-.566.242-.14.512-.245.81-.316.298-.071.602-.125.912-.162l.954-.111c.245-.031.422-.081.533-.149.111-.068.166-.179.166-.332v-.03c0-.372-.105-.66-.315-.865-.207-.205-.517-.307-.929-.307-.429 0-.767.095-1.014.286-.245.187-.414.396-.507.626l-1.198-.273c.142-.397.35-.718.622-.963.276-.247.593-.426.951-.537.358-.113.734-.17 1.129-.17.261 0 .538.031.831.094.295.059.571.17.827.332.258.162.47.394.635.695.164.298.247.686.247 1.163v4.347h-1.245v-.895h-.051a1.829 1.829 0 0 1-.37.486 1.977 1.977 0 0 1-.635.396 2.47 2.47 0 0 1-.929.158Zm.277-1.023c.352 0 .653-.07.903-.209.253-.139.445-.321.575-.545.134-.228.201-.471.201-.729v-.844c-.046.046-.134.088-.265.128-.127.037-.274.07-.439.098a28.444 28.444 0 0 1-.873.124 3.15 3.15 0 0 0-.678.157 1.178 1.178 0 0 0-.486.32c-.119.136-.178.318-.178.545 0 .316.116.554.349.716.233.159.53.239.891.239Zm4.65.878v-6.546h1.231v1.04h.068c.12-.352.33-.629.631-.831a1.802 1.802 0 0 1 1.031-.307 5.17 5.17 0 0 1 .542.03v1.219a2.34 2.34 0 0 0-.273-.047 2.587 2.587 0 0 0-.392-.03c-.301 0-.57.064-.806.192a1.42 1.42 0 0 0-.758 1.282v3.998h-1.274Zm6.821.127c-.528 0-1-.134-1.415-.404-.412-.273-.735-.661-.971-1.164-.233-.505-.35-1.112-.35-1.819 0-.708.118-1.313.354-1.816.239-.502.565-.887.98-1.154a2.543 2.543 0 0 1 1.411-.401c.406 0 .733.068.98.204.25.134.443.29.579.469.14.179.248.337.324.473h.077v-3.243h1.274v8.728h-1.244v-1.019h-.107a3.31 3.31 0 0 1-.332.477 1.84 1.84 0 0 1-.588.469c-.25.134-.574.2-.972.2Zm.281-1.086c.367 0 .677-.097.929-.29.256-.196.449-.467.58-.814.133-.346.2-.75.2-1.21 0-.455-.065-.852-.196-1.193a1.744 1.744 0 0 0-.575-.797c-.253-.19-.565-.286-.938-.286-.383 0-.703.1-.958.299-.256.198-.449.47-.58.814a3.31 3.31 0 0 0-.192 1.163c0 .437.066.831.196 1.18.131.35.324.627.58.831.258.202.577.303.954.303Zm9.685-3.989-1.154.205a1.359 1.359 0 0 0-.231-.422 1.128 1.128 0 0 0-.417-.328 1.515 1.515 0 0 0-.661-.128c-.36 0-.662.081-.903.243-.242.159-.362.365-.362.618a.65.65 0 0 0 .243.528c.162.134.423.243.784.328l1.039.239c.603.139 1.052.354 1.347.643.296.29.443.667.443 1.13 0 .392-.113.741-.341 1.048-.224.304-.538.542-.941.716-.401.173-.865.26-1.394.26-.733 0-1.331-.157-1.794-.469-.463-.315-.747-.763-.852-1.342l1.231-.188c.077.321.235.564.473.729.239.162.55.243.934.243.417 0 .751-.087 1.001-.26.25-.176.375-.391.375-.644a.67.67 0 0 0-.23-.515c-.151-.139-.382-.245-.695-.316l-1.108-.243c-.61-.139-1.062-.36-1.355-.664-.29-.304-.434-.689-.434-1.155 0-.386.108-.725.323-1.014.216-.29.515-.516.895-.678a3.265 3.265 0 0 1 1.309-.247c.707 0 1.264.153 1.67.46.406.304.675.712.805 1.223ZM320.333 745.89H318.5v-1.833a2.752 2.752 0 0 0-2.75-2.75h-5.5c-.73 0-1.429.29-1.945.805a2.755 2.755 0 0 0-.805 1.945v1.833h-1.833v-1.833a4.581 4.581 0 0 1 4.583-4.583h5.5a4.583 4.583 0 0 1 4.583 4.583v1.833ZM313 737.64a5.501 5.501 0 0 1 0-11 5.502 5.502 0 0 1 5.5 5.5 5.5 5.5 0 0 1-5.5 5.5Zm0-1.833a3.667 3.667 0 1 0 0-7.335 3.667 3.667 0 0 0 0 7.335ZM290.696 765.724h-1.398l3.141-8.728h1.521l3.141 8.728h-1.398l-2.467-7.142h-.068l-2.472 7.142Zm.234-3.418h4.534v1.108h-4.534v-1.108Zm9.981 3.55c-.634 0-1.179-.144-1.637-.431a2.848 2.848 0 0 1-1.048-1.197c-.244-.509-.367-1.091-.367-1.747 0-.665.125-1.252.375-1.76.25-.512.603-.911 1.057-1.198.455-.287.99-.43 1.607-.43.497 0 .94.092 1.329.277.389.182.703.437.942.767.242.33.385.714.43 1.155h-1.24a1.487 1.487 0 0 0-.468-.793c-.242-.221-.566-.332-.972-.332-.355 0-.666.094-.933.281-.264.185-.47.449-.618.793-.148.341-.222.744-.222 1.21 0 .477.073.889.218 1.236.145.346.349.615.613.805.267.19.581.286.942.286.242 0 .46-.044.656-.132.199-.091.365-.221.499-.388a1.47 1.47 0 0 0 .285-.605h1.24a2.403 2.403 0 0 1-.413 1.133c-.23.333-.538.594-.925.784-.383.191-.833.286-1.35.286Zm6.808 0c-.633 0-1.179-.144-1.636-.431a2.85 2.85 0 0 1-1.049-1.197c-.244-.509-.366-1.091-.366-1.747 0-.665.125-1.252.375-1.76.25-.512.602-.911 1.057-1.198.454-.287.99-.43 1.606-.43.497 0 .941.092 1.33.277.389.182.703.437.942.767.241.33.385.714.43 1.155h-1.24a1.483 1.483 0 0 0-.469-.793c-.241-.221-.565-.332-.971-.332-.355 0-.667.094-.934.281-.264.185-.47.449-.618.793-.147.341-.221.744-.221 1.21 0 .477.072.889.217 1.236.145.346.35.615.614.805.267.19.581.286.942.286.241 0 .46-.044.656-.132a1.34 1.34 0 0 0 .498-.388c.137-.168.232-.37.286-.605h1.24a2.403 2.403 0 0 1-.413 1.133c-.23.333-.539.594-.925.784-.384.191-.834.286-1.351.286Zm6.809 0c-.614 0-1.149-.141-1.607-.422a2.846 2.846 0 0 1-1.065-1.181c-.253-.505-.379-1.096-.379-1.772 0-.679.126-1.273.379-1.782a2.842 2.842 0 0 1 1.065-1.184c.458-.281.993-.422 1.607-.422.613 0 1.149.141 1.606.422.458.281.813.676 1.066 1.184.252.509.379 1.103.379 1.782 0 .676-.127 1.267-.379 1.772-.253.506-.608.9-1.066 1.181-.457.281-.993.422-1.606.422Zm.004-1.07c.398 0 .727-.105.989-.315.261-.21.454-.49.579-.84.128-.349.192-.734.192-1.155a3.32 3.32 0 0 0-.192-1.15 1.877 1.877 0 0 0-.579-.848c-.262-.213-.591-.32-.989-.32-.401 0-.733.107-.997.32a1.902 1.902 0 0 0-.584.848 3.391 3.391 0 0 0-.188 1.15c0 .421.063.806.188 1.155.128.35.322.63.584.84.264.21.596.315.997.315Zm8.615-1.777v-3.831h1.279v6.546h-1.253v-1.134h-.068c-.151.35-.392.641-.725.874-.329.23-.74.345-1.231.345-.421 0-.793-.092-1.117-.277a1.947 1.947 0 0 1-.758-.831c-.182-.367-.273-.82-.273-1.359v-4.164h1.274v4.01c0 .446.124.801.371 1.065.247.265.568.397.963.397a1.568 1.568 0 0 0 1.304-.72c.159-.242.237-.549.234-.921Zm4.265-1.172v3.887h-1.274v-6.546h1.223v1.066h.081a1.87 1.87 0 0 1 .707-.836c.324-.21.732-.315 1.223-.315.446 0 .837.094 1.172.281.335.185.595.46.78.827.185.366.277.82.277 1.359v4.164h-1.274v-4.01c0-.475-.124-.845-.371-1.113-.247-.269-.587-.404-1.018-.404-.296 0-.559.064-.789.191a1.38 1.38 0 0 0-.541.563c-.131.244-.196.54-.196.886Zm8.953-2.659v1.023h-3.575v-1.023h3.575Zm-2.616-1.568h1.274v6.192c0 .247.037.433.111.558a.573.573 0 0 0 .285.251c.119.043.249.064.388.064.102 0 .192-.007.268-.021l.179-.034.23 1.052a2.523 2.523 0 0 1-.826.137 2.239 2.239 0 0 1-.938-.179 1.603 1.603 0 0 1-.703-.58c-.179-.261-.268-.589-.268-.984v-6.456Z"/><rect width="40" height="40" x="35" y="312.724" fill="#E8F2EE" rx="20"/><path fill="#5BB5A2" d="M56.833 334.788v1.916a5.491 5.491 0 0 0-5.009.695 5.495 5.495 0 0 0-2.324 4.491l-1.834-.001a7.334 7.334 0 0 1 9.167-7.102v.001ZM55 333.64a5.498 5.498 0 0 1-5.5-5.5c0-3.038 2.461-5.5 5.5-5.5s5.5 2.462 5.5 5.5c0 3.039-2.461 5.5-5.5 5.5Zm0-1.833a3.666 3.666 0 1 0 0-7.333 3.666 3.666 0 1 0 0 7.333Zm5.5 5.5v-3.208l4.583 4.125-4.583 4.125v-3.209h-2.75v-1.833h2.75Z"/><path fill="#1A191E" d="M89.672 330.217a1.452 1.452 0 0 0-.656-1.094c-.385-.262-.869-.393-1.452-.393-.418 0-.779.066-1.084.199a1.664 1.664 0 0 0-.71.537 1.266 1.266 0 0 0-.25.77c0 .242.057.451.17.627.116.175.266.323.452.442.189.116.391.214.607.294.215.076.422.139.621.189l.994.258c.325.08.658.187 1 .323.341.136.657.315.95.537.29.222.526.497.705.825.182.329.274.721.274 1.179 0 .576-.15 1.088-.448 1.536-.295.447-.724.8-1.287 1.059-.56.258-1.238.388-2.034.388-.762 0-1.422-.121-1.978-.363-.557-.242-.993-.585-1.308-1.029-.315-.448-.489-.978-.522-1.591h1.541c.03.368.15.674.358.919.212.242.482.423.81.542.332.116.695.174 1.09.174.433 0 .82-.068 1.158-.203.341-.14.61-.332.805-.577.196-.249.293-.539.293-.87 0-.302-.086-.549-.258-.741a1.913 1.913 0 0 0-.691-.477 6.73 6.73 0 0 0-.98-.333l-1.203-.328c-.815-.223-1.461-.549-1.939-.98-.474-.431-.71-1.001-.71-1.71 0-.587.158-1.099.477-1.536.318-.438.749-.778 1.292-1.019.544-.246 1.157-.368 1.84-.368.69 0 1.297.121 1.824.363.53.241.948.575 1.253.999.305.421.464.905.477 1.452h-1.481Zm6.628 7.661c-.752 0-1.4-.161-1.944-.482a3.272 3.272 0 0 1-1.252-1.368c-.292-.59-.438-1.281-.438-2.073 0-.782.146-1.471.438-2.068a3.396 3.396 0 0 1 1.233-1.397c.53-.335 1.15-.502 1.859-.502.43 0 .848.071 1.253.214.404.142.767.366 1.088.671.322.305.575.701.761 1.188.186.484.278 1.072.278 1.765v.527h-6.07v-1.114h4.614c0-.391-.08-.737-.239-1.039a1.806 1.806 0 0 0-.671-.721 1.88 1.88 0 0 0-1.004-.263c-.418 0-.782.103-1.094.308a2.064 2.064 0 0 0-.716.796 2.29 2.29 0 0 0-.249 1.058v.87c0 .511.09.945.269 1.303.182.358.436.631.76.82.325.186.705.279 1.14.279.28 0 .538-.04.77-.12.232-.082.432-.205.601-.367.17-.163.299-.363.388-.602l1.407.254a2.543 2.543 0 0 1-.606 1.088 2.926 2.926 0 0 1-1.09.721c-.433.169-.929.254-1.486.254Zm6.412-4.688v4.534h-1.486v-7.637h1.427v1.243h.094c.176-.404.451-.729.825-.974.378-.246.854-.368 1.427-.368.521 0 .976.109 1.367.328.392.215.695.537.91.964.216.428.323.957.323 1.586v4.858h-1.486v-4.679c0-.553-.144-.986-.433-1.297-.288-.315-.684-.473-1.188-.473-.345 0-.651.075-.92.224a1.611 1.611 0 0 0-.631.656c-.152.285-.229.63-.229 1.035Zm9.74 4.683a2.96 2.96 0 0 1-1.651-.473c-.48-.318-.858-.77-1.133-1.357-.272-.59-.408-1.297-.408-2.123 0-.825.137-1.531.413-2.118.278-.586.659-1.035 1.143-1.347a2.978 2.978 0 0 1 1.646-.467c.474 0 .855.079 1.143.238.292.156.517.339.676.547.163.209.289.393.378.552h.09v-3.783h1.486v10.182h-1.452v-1.189h-.124a3.878 3.878 0 0 1-.388.557 2.143 2.143 0 0 1-.686.547c-.291.156-.669.234-1.133.234Zm.328-1.268c.427 0 .789-.113 1.084-.338.298-.229.523-.545.676-.95.156-.404.233-.875.233-1.412 0-.53-.076-.994-.228-1.392-.153-.397-.376-.707-.671-.929-.295-.222-.66-.333-1.094-.333-.448 0-.82.116-1.119.348a2.132 2.132 0 0 0-.676.949 3.878 3.878 0 0 0-.224 1.357c0 .511.077.97.229 1.378.153.407.378.73.676.969.302.235.673.353 1.114.353Zm9.401-9.063h1.864l3.242 7.915h.119l3.242-7.915h1.864v10.182h-1.462v-7.368h-.094l-3.003 7.353h-1.213l-3.003-7.358h-.094v7.373h-1.462v-10.182Zm15.662 10.336c-.716 0-1.341-.164-1.874-.492a3.324 3.324 0 0 1-1.243-1.378c-.295-.59-.443-1.279-.443-2.068 0-.792.148-1.485.443-2.078a3.31 3.31 0 0 1 1.243-1.382c.533-.328 1.158-.492 1.874-.492.716 0 1.341.164 1.874.492a3.31 3.31 0 0 1 1.243 1.382c.295.593.443 1.286.443 2.078 0 .789-.148 1.478-.443 2.068a3.324 3.324 0 0 1-1.243 1.378c-.533.328-1.158.492-1.874.492Zm.005-1.248c.464 0 .848-.123 1.153-.368a2.15 2.15 0 0 0 .676-.979c.15-.408.224-.857.224-1.348a3.86 3.86 0 0 0-.224-1.342 2.175 2.175 0 0 0-.676-.989c-.305-.249-.689-.373-1.153-.373-.467 0-.855.124-1.164.373a2.231 2.231 0 0 0-.681.989 3.98 3.98 0 0 0-.218 1.342 4 4 0 0 0 .218 1.348c.15.407.377.734.681.979.309.245.697.368 1.164.368Zm6.7-3.44v4.534h-1.486v-7.637h1.427v1.243h.094c.176-.404.451-.729.825-.974.378-.246.854-.368 1.427-.368.521 0 .976.109 1.367.328.392.215.695.537.91.964.216.428.323.957.323 1.586v4.858h-1.486v-4.679c0-.553-.144-.986-.433-1.297-.288-.315-.684-.473-1.188-.473-.345 0-.651.075-.92.224a1.611 1.611 0 0 0-.631.656c-.152.285-.229.63-.229 1.035Zm10.172 4.688c-.752 0-1.4-.161-1.944-.482a3.274 3.274 0 0 1-1.253-1.368c-.291-.59-.437-1.281-.437-2.073 0-.782.146-1.471.437-2.068a3.396 3.396 0 0 1 1.233-1.397c.531-.335 1.15-.502 1.86-.502.431 0 .848.071 1.253.214.404.142.767.366 1.088.671.322.305.575.701.761 1.188.186.484.278 1.072.278 1.765v.527h-6.07v-1.114h4.614c0-.391-.08-.737-.239-1.039a1.808 1.808 0 0 0-.671-.721 1.881 1.881 0 0 0-1.004-.263c-.418 0-.782.103-1.094.308a2.065 2.065 0 0 0-.716.796 2.287 2.287 0 0 0-.249 1.058v.87c0 .511.09.945.269 1.303.182.358.436.631.761.82.324.186.704.279 1.138.279.282 0 .539-.04.771-.12a1.597 1.597 0 0 0 .989-.969l1.407.254a2.544 2.544 0 0 1-.607 1.088 2.924 2.924 0 0 1-1.088.721 4.08 4.08 0 0 1-1.487.254Zm5.647 2.709c-.222 0-.425-.018-.607-.054a1.96 1.96 0 0 1-.408-.11l.358-1.218a2.4 2.4 0 0 0 .726.095.87.87 0 0 0 .562-.239c.166-.149.312-.393.438-.731l.183-.507-2.794-7.736h1.591l1.934 5.926h.08l1.934-5.926h1.596l-3.147 8.656a3.46 3.46 0 0 1-.557 1.009 2.166 2.166 0 0 1-.806.626c-.311.14-.672.209-1.083.209Z"/><rect width="40" height="40" x="183" y="312.724" fill="#E8F2EE" rx="20"/><path fill="#5BB5A2" d="M204.833 334.788v1.916a5.489 5.489 0 0 0-5.009.695 5.496 5.496 0 0 0-2.324 4.491l-1.833-.001a7.328 7.328 0 0 1 5.853-7.184 7.328 7.328 0 0 1 3.313.082v.001ZM203 333.64a5.498 5.498 0 0 1-5.5-5.5c0-3.038 2.461-5.5 5.5-5.5s5.5 2.462 5.5 5.5c0 3.039-2.461 5.5-5.5 5.5Zm0-1.833a3.666 3.666 0 1 0 0-7.333 3.666 3.666 0 1 0 0 7.333Zm7.333 5.5h2.75v1.833h-2.75v3.209l-4.583-4.125 4.583-4.125v3.208Z"/><path fill="#1A191E" d="M232.119 337.724v-10.182h3.629c.789 0 1.443.136 1.964.407.523.272.914.648 1.173 1.129.258.477.388 1.029.388 1.656 0 .623-.131 1.171-.393 1.645-.259.471-.65.837-1.173 1.099-.521.262-1.175.393-1.964.393h-2.749v-1.323h2.61c.497 0 .901-.071 1.213-.214a1.41 1.41 0 0 0 .691-.621c.146-.272.219-.598.219-.979 0-.385-.075-.718-.224-1a1.447 1.447 0 0 0-.691-.646c-.312-.152-.721-.229-1.228-.229h-1.929v8.865h-1.536Zm5.026-4.594 2.516 4.594h-1.75l-2.466-4.594h1.7Zm7.073 4.748c-.752 0-1.4-.161-1.944-.482a3.274 3.274 0 0 1-1.253-1.368c-.291-.59-.437-1.281-.437-2.073 0-.782.146-1.471.437-2.068a3.396 3.396 0 0 1 1.233-1.397c.531-.335 1.151-.502 1.86-.502.431 0 .848.071 1.253.214.404.142.767.366 1.088.671.322.305.575.701.761 1.188.186.484.278 1.072.278 1.765v.527h-6.07v-1.114h4.614c0-.391-.08-.737-.239-1.039a1.808 1.808 0 0 0-.671-.721 1.881 1.881 0 0 0-1.004-.263c-.418 0-.782.103-1.094.308a2.065 2.065 0 0 0-.716.796 2.286 2.286 0 0 0-.248 1.058v.87c0 .511.089.945.268 1.303.182.358.436.631.761.82.324.186.704.279 1.138.279.282 0 .539-.04.771-.12a1.597 1.597 0 0 0 .989-.969l1.407.254a2.553 2.553 0 0 1-.606 1.088 2.937 2.937 0 0 1-1.089.721c-.434.169-.93.254-1.487.254Zm8.142 0c-.739 0-1.375-.168-1.909-.502a3.327 3.327 0 0 1-1.223-1.397c-.285-.594-.427-1.273-.427-2.039 0-.775.146-1.46.437-2.053a3.355 3.355 0 0 1 1.233-1.397c.531-.335 1.155-.502 1.875-.502.58 0 1.097.108 1.551.323.454.212.82.51 1.098.895.282.384.449.833.503 1.347h-1.447a1.74 1.74 0 0 0-.547-.925c-.282-.258-.66-.387-1.134-.387-.414 0-.777.109-1.088.328-.309.215-.549.523-.721.925-.173.397-.259.868-.259 1.411 0 .557.085 1.038.254 1.442.169.405.407.718.716.94a1.84 1.84 0 0 0 1.098.333c.282 0 .537-.051.766-.154.232-.106.426-.257.582-.453.159-.195.27-.43.333-.706h1.447a2.819 2.819 0 0 1-.483 1.323 2.769 2.769 0 0 1-1.079.915c-.447.222-.972.333-1.576.333Zm8.018 0c-.752 0-1.4-.161-1.944-.482a3.272 3.272 0 0 1-1.252-1.368c-.292-.59-.438-1.281-.438-2.073 0-.782.146-1.471.438-2.068a3.396 3.396 0 0 1 1.233-1.397c.53-.335 1.15-.502 1.859-.502.431 0 .848.071 1.253.214.404.142.767.366 1.089.671.321.305.575.701.76 1.188.186.484.279 1.072.279 1.765v.527h-6.071v-1.114h4.614c0-.391-.08-.737-.239-1.039a1.8 1.8 0 0 0-.671-.721 1.881 1.881 0 0 0-1.004-.263c-.418 0-.782.103-1.094.308a2.065 2.065 0 0 0-.716.796 2.299 2.299 0 0 0-.248 1.058v.87c0 .511.089.945.268 1.303.182.358.436.631.761.82.325.186.704.279 1.138.279.282 0 .539-.04.771-.12a1.597 1.597 0 0 0 .989-.969l1.407.254a2.542 2.542 0 0 1-.606 1.088 2.937 2.937 0 0 1-1.089.721c-.434.169-.93.254-1.487.254Zm4.926-.154v-7.637h1.486v7.637h-1.486Zm.751-8.815a.944.944 0 0 1-.667-.259.84.84 0 0 1-.273-.626.83.83 0 0 1 .273-.626.936.936 0 0 1 .667-.264c.258 0 .479.088.661.264a.82.82 0 0 1 .278.626.83.83 0 0 1-.278.626.925.925 0 0 1-.661.259Zm9.268 1.178-2.769 7.637h-1.591l-2.774-7.637h1.596l1.934 5.877h.079l1.929-5.877h1.596Zm4.428 7.791c-.752 0-1.4-.161-1.943-.482a3.268 3.268 0 0 1-1.253-1.368c-.292-.59-.438-1.281-.438-2.073 0-.782.146-1.471.438-2.068a3.396 3.396 0 0 1 1.233-1.397c.53-.335 1.15-.502 1.859-.502.431 0 .849.071 1.253.214.404.142.767.366 1.089.671.321.305.575.701.76 1.188.186.484.279 1.072.279 1.765v.527h-6.071v-1.114h4.614c0-.391-.08-.737-.239-1.039a1.8 1.8 0 0 0-.671-.721 1.881 1.881 0 0 0-1.004-.263c-.418 0-.782.103-1.094.308a2.065 2.065 0 0 0-.716.796 2.299 2.299 0 0 0-.248 1.058v.87c0 .511.089.945.268 1.303.182.358.436.631.761.82.325.186.704.279 1.138.279.282 0 .539-.04.771-.12a1.585 1.585 0 0 0 .989-.969l1.407.254a2.542 2.542 0 0 1-.606 1.088 2.937 2.937 0 0 1-1.089.721c-.434.169-.93.254-1.487.254Zm8.75-10.336h1.865l3.241 7.915h.12l3.241-7.915h1.864v10.182h-1.461v-7.368h-.095l-3.003 7.353h-1.213l-3.002-7.358h-.095v7.373h-1.462v-10.182Zm15.662 10.336c-.716 0-1.34-.164-1.874-.492a3.324 3.324 0 0 1-1.243-1.378c-.295-.59-.442-1.279-.442-2.068 0-.792.147-1.485.442-2.078a3.31 3.31 0 0 1 1.243-1.382c.534-.328 1.158-.492 1.874-.492.716 0 1.341.164 1.874.492a3.31 3.31 0 0 1 1.243 1.382c.295.593.443 1.286.443 2.078 0 .789-.148 1.478-.443 2.068a3.324 3.324 0 0 1-1.243 1.378c-.533.328-1.158.492-1.874.492Zm.005-1.248c.464 0 .849-.123 1.154-.368.304-.245.53-.572.676-.979.149-.408.223-.857.223-1.348 0-.487-.074-.934-.223-1.342a2.19 2.19 0 0 0-.676-.989c-.305-.249-.69-.373-1.154-.373-.467 0-.855.124-1.163.373a2.215 2.215 0 0 0-.681.989 3.956 3.956 0 0 0-.219 1.342c0 .491.073.94.219 1.348.149.407.376.734.681.979.308.245.696.368 1.163.368Zm6.701-3.44v4.534h-1.487v-7.637h1.427v1.243h.094c.176-.404.451-.729.826-.974.378-.246.853-.368 1.427-.368.52 0 .976.109 1.367.328.391.215.694.537.91.964.215.428.323.957.323 1.586v4.858h-1.487v-4.679c0-.553-.144-.986-.432-1.297-.289-.315-.685-.473-1.189-.473-.344 0-.651.075-.919.224a1.613 1.613 0 0 0-.632.656c-.152.285-.228.63-.228 1.035Zm10.171 4.688c-.752 0-1.4-.161-1.943-.482a3.268 3.268 0 0 1-1.253-1.368c-.292-.59-.438-1.281-.438-2.073 0-.782.146-1.471.438-2.068a3.396 3.396 0 0 1 1.233-1.397c.53-.335 1.15-.502 1.859-.502.431 0 .849.071 1.253.214.404.142.767.366 1.089.671.321.305.575.701.76 1.188.186.484.279 1.072.279 1.765v.527h-6.071v-1.114h4.614c0-.391-.079-.737-.239-1.039a1.8 1.8 0 0 0-.671-.721 1.881 1.881 0 0 0-1.004-.263c-.418 0-.782.103-1.094.308a2.065 2.065 0 0 0-.716.796 2.299 2.299 0 0 0-.248 1.058v.87c0 .511.089.945.268 1.303.183.358.436.631.761.82.325.186.704.279 1.138.279.282 0 .539-.04.771-.12.232-.082.433-.205.602-.367.169-.163.298-.363.387-.602l1.407.254a2.542 2.542 0 0 1-.606 1.088 2.937 2.937 0 0 1-1.089.721c-.434.169-.93.254-1.487.254Zm5.647 2.709a3.15 3.15 0 0 1-.607-.054 1.929 1.929 0 0 1-.407-.11l.358-1.218c.271.073.513.105.726.095a.868.868 0 0 0 .561-.239c.166-.149.312-.393.438-.731l.184-.507-2.794-7.736h1.591l1.934 5.926h.079l1.934-5.926h1.596l-3.147 8.656a3.437 3.437 0 0 1-.557 1.009 2.163 2.163 0 0 1-.805.626c-.312.14-.673.209-1.084.209Z"/></g><rect width="370" height="790" x="5" y="5.724" stroke="#1A191E" stroke-width="10" rx="45"/><defs><clipPath id="a"><rect width="380" height="800" y=".724" fill="#fff" rx="50"/></clipPath></defs></svg>