<svg xmlns="http://www.w3.org/2000/svg" width="214" height="215" fill="none"><rect width="214" height="214" y=".724" fill="#DFEBF1" rx="16"/><g clip-path="url(#a)"><path fill="#31373D" d="M80 95.724s0-6 6-6h42s6 0 6 6v27s0 6-6 6H86s-6 0-6-6v-27Z"/><path fill="#CCD6DD" d="M111.5 124.224c8.284 0 15-6.716 15-15 0-8.285-6.716-15-15-15-8.284 0-15 6.715-15 15 0 8.284 6.716 15 15 15Z"/><path fill="#31373D" d="M111.5 121.224c6.627 0 12-5.373 12-12 0-6.628-5.373-12-12-12s-12 5.372-12 12c0 6.627 5.373 12 12 12Z"/><path fill="#3B88C3" d="M111.5 116.724a7.5 7.5 0 1 0 0-15 7.5 7.5 0 0 0 0 15Z"/><path fill="#fff" d="M128.75 97.224a2.25 2.25 0 1 0 0-4.5 2.25 2.25 0 0 0 0 4.5Z"/><path fill="#FFAC33" d="m104 94.224 4.5-9-9 3-6-7.5-3 7.5-9-1.5 6 9-7.5 6h9l-3 9 9-4.5 9 7.5-1.5-12 9-1.5-7.5-6Z"/><path fill="#fff" d="m95 101.724-4.5 3 1.5-4.5-4.5-1.5 4.5-3-4.5-4.5h6l1.5-4.5 3 4.5 4.5-1.5-3 4.5 4.5 4.5-4.5 1.5 1.5 6-6-4.5Z"/></g><defs><clipPath id="a"><path fill="#fff" d="M80 80.724h54v54H80z"/></clipPath></defs></svg>