<svg width="723" height="137" fill="none" xmlns="http://www.w3.org/2000/svg"><rect y=".564" width="131.397" height="60" rx="10" fill="#F8F8F8"/><g clip-path="url(#a)"><path d="M48.095 27.84c0-1.783-1.733-3.677-4.734-3.677-3.37 0-7.07 2.472-7.636 7.403-.578 4.98 2.52 7.194 5.644 7.194 3.123 0 4.759-1.217 6.431-2.84-1.438-1.808-3.295-.972-3.652-.788-.393.197-.898.468-1.93.468-1.206 0-2.435-.541-2.435-2.792 7.722-.762 8.312-3.185 8.312-4.968Zm-3.824.295c-.05.554-.27 1.5-4.181 2.03.824-2.927 2.398-3.149 3.123-3.149.677 0 1.107.529 1.058 1.12Zm-13.084.48-1.796 5.644c-.049-.443-1.266-9.8-1.266-9.8-2.828 0-4.34 2.016-5.14 4.144 0 0-2.017 5.226-2.19 5.669-.011-.406-.307-5.608-.307-5.608-.172-2.607-2.557-4.193-4.488-4.193l2.336 14.178c2.964-.012 4.563-2.016 5.399-4.144 0 0 1.783-4.611 1.857-4.82.012.197 1.279 8.964 1.279 8.964 2.976 0 4.574-1.881 5.435-3.935l4.169-10.243c-2.94 0-4.489 2.004-5.288 4.144Zm27.828-4.476c-1.832 0-3.234.996-4.414 2.46v-.013l1.057-8.522c-2.435 0-4.415 2.115-4.796 5.263L49.018 38.54c1.402 0 2.89-.406 3.689-1.44.713.923 1.783 1.661 3.37 1.661 4.107 0 6.922-4.771 6.922-9.247-.024-4.083-2.004-5.374-3.984-5.374Zm-.381 7.317c-.43 2.496-1.82 4.193-3.16 4.193-1.353 0-1.931-.603-1.931-.603.258-2.189.418-3.529.91-4.685.492-1.156 1.66-3 2.877-3 1.193 0 1.734 1.586 1.304 4.095Zm14.621-6.985H70.39l.012-.148c.197-1.869.64-2.853 2.103-3.013.996-.098 1.439-.614 1.55-1.18.086-.443.356-1.98.356-1.98-5.755-.037-7.563 2.447-8.03 6.235l-.012.086h-.062c-.934 0-1.967 1.057-2.14 2.398l-.06.492h1.918l-1.611 13.305-.492 2.386c.061 0 .135.012.197.012 2.693-.098 4.414-2.226 4.795-5.312L70.17 27.36h.897c.886 0 1.919-.886 2.103-2.361l.086-.53Zm14.904-.246c-3.308 0-6.431 2.435-7.39 6.259-.96 3.824.492 8.35 5.361 8.35 4.858 0 7.661-4.71 7.661-8.633 0-3.898-2.643-5.976-5.632-5.976Zm1.34 7.107c-.171 1.734-.934 4.366-3.024 4.366-2.103 0-1.808-3.074-1.599-4.538.221-1.561 1.094-3.787 2.976-3.787 1.685 0 1.844 2.004 1.648 3.96Zm20.635-2.717s-1.66 5.214-1.795 5.644c-.049-.443-1.267-9.8-1.267-9.8-2.828 0-4.341 2.016-5.14 4.144l-2.189 5.669c-.012-.406-.307-5.608-.307-5.608-.172-2.607-2.558-4.193-4.489-4.193l2.325 14.178c2.963-.012 4.562-2.016 5.398-4.144 0 0 1.783-4.611 1.845-4.82.024.197 1.278 8.964 1.278 8.964 2.976 0 4.575-1.881 5.436-3.935l4.168-10.243c-2.926 0-4.476 2.004-5.263 4.144ZM75.961 18.15l-2.41 19.442-.493 2.398c.062 0 .136.012.197.012 2.595-.037 4.44-2.312 4.784-5.177l1.39-11.154c.418-3.406-1.612-5.521-3.468-5.521Z" fill="#3A60F8"/></g><rect x="147.397" y=".564" width="137.738" height="60" rx="10" fill="#F8F8F8"/><g clip-path="url(#b)"><path d="M186.205 21.246a.285.285 0 0 0-.258-.24c-.108-.01-2.208-.042-2.208-.042s-1.757-1.706-1.931-1.88c-.173-.173-.512-.12-.644-.081l-.883.273a6.144 6.144 0 0 0-.422-1.038c-.625-1.193-1.542-1.825-2.648-1.826h-.004c-.077 0-.154.007-.23.014a4.159 4.159 0 0 0-.1-.116c-.483-.515-1.101-.767-1.842-.745-1.429.041-2.853 1.074-4.007 2.907-.812 1.29-1.43 2.912-1.605 4.166l-2.815.872c-.828.26-.854.286-.963 1.067-.08.59-2.248 17.353-2.248 17.353l18.167 3.142 7.874-1.957s-3.212-21.72-3.233-21.869Zm-6.833-1.688-1.41.436c-.01-.724-.096-1.73-.434-2.6 1.085.205 1.619 1.432 1.844 2.164Zm-2.36.731-3.033.939c.293-1.122.849-2.24 1.531-2.973.254-.272.609-.576 1.03-.75.396.826.482 1.994.472 2.784Zm-1.948-3.772c.336-.008.618.066.86.225-.387.2-.76.488-1.11.864-.908.974-1.604 2.486-1.882 3.945l-2.491.772c.492-2.297 2.417-5.743 4.623-5.806Z" fill="#95BF47"/><path d="M185.947 21.006c-.107-.009-2.208-.04-2.208-.04s-1.757-1.707-1.93-1.88a.43.43 0 0 0-.244-.112l.001 26.098 7.873-1.957s-3.213-21.719-3.233-21.868a.288.288 0 0 0-.259-.24Z" fill="#5E8E3E"/><path d="m177.201 25.055-.915 3.42s-1.02-.463-2.229-.387c-1.773.112-1.792 1.23-1.774 1.51.097 1.53 4.122 1.865 4.348 5.449.178 2.82-1.496 4.748-3.907 4.9-2.894.183-4.487-1.524-4.487-1.524l.613-2.608s1.604 1.21 2.888 1.129c.838-.053 1.138-.735 1.108-1.218-.127-1.995-3.404-1.877-3.612-5.157-.174-2.76 1.639-5.556 5.638-5.808 1.54-.1 2.329.294 2.329.294Z" fill="#fff"/><path d="M199.807 32.218c-.906-.491-1.371-.905-1.371-1.475 0-.724.646-1.189 1.656-1.189 1.175 0 2.224.491 2.224.491l.827-2.535s-.761-.595-3-.595c-3.116 0-5.276 1.785-5.276 4.294 0 1.422 1.008 2.509 2.354 3.284 1.086.62 1.474 1.06 1.474 1.707 0 .672-.543 1.216-1.552 1.216-1.503 0-2.922-.777-2.922-.777l-.879 2.535s1.311.88 3.517.88c3.208 0 5.51-1.578 5.51-4.423-.001-1.525-1.165-2.611-2.562-3.413ZM212.584 26.89c-1.578 0-2.819.75-3.776 1.888l-.052-.026 1.371-7.164h-3.57l-3.465 18.234h3.569l1.19-6.233c.465-2.354 1.681-3.802 2.819-3.802.801 0 1.112.544 1.112 1.32a8.19 8.19 0 0 1-.155 1.577l-1.344 7.139h3.569l1.397-7.372c.155-.776.259-1.706.259-2.328-.002-2.017-1.062-3.233-2.924-3.233ZM223.576 26.89c-4.294 0-7.138 3.88-7.138 8.199 0 2.767 1.707 4.991 4.914 4.991 4.216 0 7.061-3.776 7.061-8.199 0-2.56-1.501-4.99-4.837-4.99Zm-1.759 10.45c-1.215 0-1.733-1.035-1.733-2.328 0-2.043 1.061-5.38 3.001-5.38 1.267 0 1.68 1.087 1.68 2.147 0 2.198-1.059 5.56-2.948 5.56ZM237.543 26.89c-2.41 0-3.777 2.121-3.777 2.121h-.051l.207-1.914h-3.155a77.025 77.025 0 0 1-.724 4.733l-2.483 13.061h3.569l.982-5.276h.078s.733.465 2.095.465c4.19 0 6.931-4.293 6.931-8.639 0-2.404-1.06-4.55-3.672-4.55Zm-3.414 10.5c-.927 0-1.475-.517-1.475-.517l.595-3.336c.414-2.224 1.577-3.699 2.819-3.699 1.087 0 1.423 1.009 1.423 1.966 0 2.302-1.371 5.587-3.362 5.587ZM246.311 21.769c-1.138 0-2.043.905-2.043 2.069 0 1.06.672 1.785 1.681 1.785H246c1.113 0 2.069-.75 2.095-2.07 0-1.034-.698-1.784-1.784-1.784ZM241.319 39.821h3.569l2.432-12.646h-3.596l-2.405 12.646ZM256.398 27.149h-2.483l.129-.595c.207-1.216.931-2.302 2.121-2.302.635 0 1.138.181 1.138.181l.698-2.793s-.621-.31-1.94-.31c-1.268 0-2.534.362-3.492 1.19-1.215 1.034-1.784 2.533-2.069 4.034l-.102.595h-1.656l-.518 2.69h1.656l-1.888 9.983h3.57l1.888-9.983h2.457l.491-2.69ZM264.984 27.175s-2.231 5.622-3.233 8.69h-.052c-.068-.988-.879-8.69-.879-8.69h-3.751l2.148 11.612c.052.258.026.414-.078.595-.414.802-1.112 1.578-1.94 2.147-.672.492-1.422.802-2.017 1.009l.983 3.026c.724-.155 2.224-.75 3.491-1.94 1.63-1.526 3.129-3.88 4.681-7.087l4.371-9.363h-3.724v.001Z" fill="#000"/></g><rect x="301.135" y=".564" width="97.502" height="60" rx="10" fill="#F8F8F8"/><g clip-path="url(#c)"><path d="M356.441 28.61h-1.633a3.266 3.266 0 0 1-.075-.464 5.367 5.367 0 0 1 0-1.03c.017-.175.042-.33.075-.464h4.069v12.884a6.1 6.1 0 0 1-.615.075c-.205.016-.41.024-.616.025a8.313 8.313 0 0 1-.59-.025 6.1 6.1 0 0 1-.615-.075V28.61Zm14.165 3.24c0-.468-.063-.916-.188-1.343a3.435 3.435 0 0 0-.553-1.118 2.698 2.698 0 0 0-.929-.765c-.377-.193-.825-.29-1.344-.29-1.021 0-1.804.31-2.348.93-.544.62-.875 1.482-.992 2.587h6.354Zm-6.379 1.86c.033 1.406.397 2.436 1.092 3.088.695.653 1.721.98 3.077.98 1.188 0 2.319-.21 3.39-.628.134.251.243.557.326.917.083.35.133.708.151 1.067-.552.235-1.16.41-1.82.528-.662.117-1.395.176-2.198.176-1.172 0-2.177-.164-3.014-.49-.837-.327-1.528-.788-2.072-1.382a5.471 5.471 0 0 1-1.193-2.11c-.251-.812-.377-1.703-.377-2.674 0-.955.121-1.847.364-2.676a6.034 6.034 0 0 1 1.117-2.16 5.405 5.405 0 0 1 1.897-1.456c.761-.36 1.661-.54 2.7-.54.887 0 1.666.15 2.336.452a4.75 4.75 0 0 1 1.682 1.243 5.395 5.395 0 0 1 1.03 1.884c.234.728.352 1.52.352 2.374 0 .234-.009.48-.026.74-.013.222-.03.444-.05.666h-8.765.001Zm11.579-7.058a5.4 5.4 0 0 1 1.055-.1c.184 0 .368.008.553.024.184.017.351.043.502.076.05.25.1.582.15.992.05.41.076.757.076 1.042a5.2 5.2 0 0 1 1.393-1.482c.578-.418 1.319-.628 2.223-.628.134 0 .272.005.414.013.122.006.244.019.365.037.033.151.059.31.075.478a5.224 5.224 0 0 1-.013 1.155c-.024.21-.053.419-.087.627a1.733 1.733 0 0 0-.415-.05h-.339c-.452 0-.883.063-1.294.189-.41.125-.778.347-1.105.665-.326.318-.586.754-.778 1.306-.193.553-.289 1.265-.289 2.135v6.405c-.204.035-.409.06-.615.075a8.41 8.41 0 0 1-.616.025 8.542 8.542 0 0 1-1.256-.1V26.652h.001Zm-17.627-6.88c0 .3-.054.599-.16.88-.282.106-.58.16-.881.16h-.003c-.301 0-.599-.054-.881-.16a2.497 2.497 0 0 1-.16-.88v-.004c0-.31.057-.607.16-.88.281-.107.579-.161.88-.16h.004c.31 0 .606.056.88.16.106.28.16.579.16.88v.004h.001Zm3.069-.697h-2.434l1.721-1.72a4.197 4.197 0 0 0-.983-.983l-1.721 1.72V15.66a4.18 4.18 0 0 0-.692-.058h-.005c-.236 0-.467.02-.692.058v2.433l-1.722-1.72a4.168 4.168 0 0 0-.531.45h-.001a4.165 4.165 0 0 0-.45.532l1.721 1.72h-2.434s-.058.458-.058.694v.003c0 .237.02.468.058.694h2.434l-1.721 1.72c.271.38.603.712.983.983l1.721-1.72v2.433c.225.038.456.058.692.058h.005c.232 0 .464-.02.692-.058v-2.434l1.721 1.721a4.244 4.244 0 0 0 .983-.982l-1.721-1.721h2.434c.038-.226.058-.456.058-.692v-.006c0-.232-.02-.463-.058-.692Zm-44.113 20.11 6.782-10.55h-5.978a6.16 6.16 0 0 1-.075-1.004c0-.351.025-.678.075-.98h9.67l.126.328-6.832 10.573h6.404c.051.335.076.678.076 1.03 0 .335-.025.653-.076.954h-10.046l-.126-.352Zm19.565-5.702a22.812 22.812 0 0 0-.954-.1 11.72 11.72 0 0 0-.979-.05c-1.039 0-1.83.192-2.374.577-.544.386-.816.972-.816 1.759 0 .502.092.895.276 1.18.184.285.415.502.691.653.276.15.582.243.916.276.335.034.653.05.955.05.385 0 .782-.02 1.193-.063.41-.041.774-.104 1.092-.188v-4.094Zm0-2.436c0-.988-.251-1.675-.753-2.06-.503-.385-1.231-.577-2.185-.577-.587 0-1.135.046-1.645.138-.505.09-1.005.212-1.495.364-.318-.553-.477-1.214-.477-1.985a11.572 11.572 0 0 1 1.883-.426c.687-.1 1.348-.151 1.985-.151 1.674 0 2.946.381 3.817 1.143s1.306 1.98 1.306 3.654v8.063c-.586.134-1.297.272-2.135.414-.846.143-1.703.214-2.561.214-.821 0-1.562-.075-2.223-.226-.662-.151-1.223-.394-1.683-.729a3.38 3.38 0 0 1-1.068-1.28c-.251-.52-.376-1.147-.376-1.884 0-.72.146-1.352.439-1.897a3.962 3.962 0 0 1 1.194-1.356 5.313 5.313 0 0 1 1.732-.803 7.89 7.89 0 0 1 2.06-.264c.536 0 .975.013 1.319.038.342.025.631.054.866.088v-.478Zm7.635 6.379c.317.117.646.201.98.251.335.05.77.076 1.306.076a4.59 4.59 0 0 0 1.657-.289c.503-.192.934-.49 1.294-.892.36-.401.644-.907.854-1.52.209-.61.314-1.334.314-2.172 0-1.339-.248-2.402-.741-3.19-.495-.786-1.302-1.18-2.424-1.18a3.27 3.27 0 0 0-1.205.226 2.97 2.97 0 0 0-1.03.679 3.353 3.353 0 0 0-.728 1.143c-.185.46-.277 1.008-.277 1.645v5.223Zm-2.486-10.775a5.297 5.297 0 0 1 1.055-.1c.167 0 .342.009.527.025.184.017.36.042.527.075.017.035.038.139.063.315.025.175.05.364.075.564l.076.578c.025.185.038.302.038.352.167-.268.368-.527.602-.779a4.03 4.03 0 0 1 .842-.677c.326-.202.694-.36 1.105-.478.41-.117.866-.176 1.369-.176.753 0 1.452.126 2.097.377.644.252 1.196.64 1.657 1.168.46.527.82 1.197 1.08 2.009.259.813.389 1.771.389 2.876 0 2.21-.599 3.94-1.796 5.187-1.197 1.247-2.892 1.87-5.086 1.87a8.74 8.74 0 0 1-1.13-.075 6.69 6.69 0 0 1-1.004-.2v5.902a8.577 8.577 0 0 1-1.256.1c-.206-.001-.411-.01-.615-.025a6.057 6.057 0 0 1-.616-.075V26.65h.001Z" fill="#FF4A00"/></g><rect x="414.637" y=".564" width="151.725" height="60" rx="10" fill="#F8F8F8"/><g clip-path="url(#d)"><path d="M455.259 33.59c-1.669 6.696-8.452 10.771-15.149 9.101-6.694-1.67-10.77-8.452-9.099-15.148 1.668-6.697 8.451-10.773 15.146-9.104 6.697 1.67 10.772 8.453 9.102 15.15Z" fill="#F7931A"/><path d="M448.646 28.785c.249-1.664-1.018-2.558-2.749-3.154l.561-2.253-1.371-.342-.547 2.193a56.09 56.09 0 0 0-1.099-.258l.551-2.208-1.371-.342-.562 2.252a46.164 46.164 0 0 1-.875-.206l.001-.007-1.891-.472-.365 1.465s1.017.233.996.248c.555.138.656.506.639.797l-.64 2.567c.038.01.088.024.143.046l-.145-.036-.897 3.595c-.068.17-.24.422-.629.326.014.02-.996-.249-.996-.249l-.681 1.57 1.784.445c.333.083.658.17.978.252l-.567 2.28 1.37.341.562-2.255c.374.102.737.196 1.093.284l-.561 2.244 1.372.342.567-2.275c2.339.443 4.098.264 4.838-1.85.596-1.704-.03-2.686-1.26-3.327.896-.206 1.571-.796 1.751-2.013Zm-3.134 4.393c-.423 1.704-3.291.783-4.221.552l.753-3.019c.93.232 3.911.691 3.468 2.468Zm.425-4.418c-.387 1.55-2.774.762-3.548.569l.683-2.738c.774.193 3.267.553 2.865 2.169Z" fill="#fff"/><path d="M467.267 25.629c1.013 0 1.889.181 2.625.538.74.36 1.35.845 1.839 1.455.483.614.842 1.33 1.074 2.152.231.824.346 1.71.346 2.657 0 1.456-.266 2.832-.805 4.13a10.726 10.726 0 0 1-2.199 3.385 10.343 10.343 0 0 1-3.291 2.276c-1.263.56-2.636.839-4.11.839-.191 0-.526-.006-.999-.016a14.603 14.603 0 0 1-1.627-.14 19.082 19.082 0 0 1-1.946-.382 9.74 9.74 0 0 1-1.947-.696L461.7 18.83l4.903-.76-1.96 8.162a7.601 7.601 0 0 1 1.264-.443 5.61 5.61 0 0 1 1.36-.16Zm-4.112 13.543c.738 0 1.434-.182 2.087-.538a5.492 5.492 0 0 0 1.695-1.44 7.246 7.246 0 0 0 1.122-2.041c.274-.76.412-1.551.412-2.375 0-1.012-.169-1.801-.506-2.372-.337-.569-.961-.854-1.867-.854-.297 0-.679.056-1.154.157-.475.108-.901.33-1.283.666l-2.086 8.667c.125.023.237.044.332.064.093.021.195.036.298.047.108.012.232.018.381.018h.569ZM478.235 42.62h-4.682l3.954-16.639h4.714l-3.986 16.64Zm2.279-18.666a2.903 2.903 0 0 1-1.772-.584c-.53-.388-.793-.984-.793-1.788 0-.442.09-.857.268-1.249.181-.39.417-.727.713-1.012a3.51 3.51 0 0 1 1.028-.681 3.137 3.137 0 0 1 1.251-.252c.653 0 1.243.194 1.771.584.525.392.79.988.79 1.788 0 .444-.09.86-.269 1.25a3.304 3.304 0 0 1-1.739 1.692c-.391.171-.806.252-1.248.252ZM486.325 21.835l4.904-.76-1.204 4.905h5.252l-.948 3.859h-5.221l-1.391 5.82c-.128.485-.2.938-.221 1.36-.023.422.031.786.157 1.092.126.306.352.543.68.71.327.17.794.255 1.408.255.505 0 .997-.048 1.473-.143.473-.094.952-.224 1.437-.395l.349 3.608c-.632.232-1.318.431-2.056.6-.739.17-1.615.252-2.626.252-1.455 0-2.583-.216-3.386-.646-.803-.434-1.37-1.025-1.709-1.775-.335-.746-.485-1.607-.443-2.576.044-.972.19-1.993.443-3.07l3.102-13.096ZM495.071 35.976c0-1.433.232-2.785.695-4.05a9.97 9.97 0 0 1 1.995-3.324c.862-.946 1.913-1.695 3.149-2.245 1.231-.547 2.608-.823 4.127-.823.95 0 1.799.09 2.546.27.75.182 1.428.417 2.042.711l-1.615 3.672c-.422-.171-.86-.322-1.312-.459-.454-.14-1.007-.206-1.661-.206-1.563 0-2.798.538-3.718 1.612-.916 1.075-1.377 2.521-1.377 4.336 0 1.075.232 1.944.697 2.61.464.665 1.32.996 2.562.996.613 0 1.205-.064 1.772-.19a8.714 8.714 0 0 0 1.519-.474l.35 3.764c-.592.23-1.245.438-1.962.62-.718.175-1.572.266-2.563.266-1.308 0-2.416-.192-3.322-.569-.906-.383-1.655-.89-2.245-1.535a5.792 5.792 0 0 1-1.282-2.263 9.294 9.294 0 0 1-.397-2.72ZM515.872 43.062c-1.118 0-2.089-.17-2.912-.508-.821-.337-1.501-.81-2.039-1.423-.539-.61-.942-1.333-1.218-2.167-.276-.832-.409-1.755-.409-2.765 0-1.268.203-2.535.615-3.798a10.763 10.763 0 0 1 1.82-3.416 9.725 9.725 0 0 1 2.941-2.487c1.157-.641 2.488-.964 3.984-.964 1.097 0 2.062.17 2.897.508.831.336 1.515.813 2.056 1.423a6.177 6.177 0 0 1 1.216 2.168c.275.831.411 1.756.411 2.767 0 1.264-.201 2.53-.599 3.799a10.975 10.975 0 0 1-1.772 3.415 9.29 9.29 0 0 1-2.926 2.482c-1.169.643-2.526.966-4.065.966Zm2.34-13.54c-.694 0-1.308.202-1.833.6a5.161 5.161 0 0 0-1.328 1.52 7.503 7.503 0 0 0-.809 2.008 8.674 8.674 0 0 0-.267 2.072c0 1.055.17 1.878.505 2.47.339.588.949.884 1.835.884.697 0 1.307-.2 1.836-.602.524-.4.967-.906 1.327-1.518.359-.61.629-1.281.81-2.01a8.824 8.824 0 0 0 .267-2.07c0-1.054-.17-1.878-.508-2.47-.337-.588-.95-.884-1.835-.884ZM530.336 42.62h-4.686l3.954-16.639h4.717l-3.985 16.64Zm2.275-18.666a2.9 2.9 0 0 1-1.77-.584c-.527-.388-.792-.984-.792-1.788 0-.442.091-.857.269-1.249.179-.39.417-.727.713-1.012.294-.284.64-.51 1.028-.681a3.114 3.114 0 0 1 1.247-.252c.655 0 1.246.194 1.773.584.527.392.793.988.793 1.788 0 .444-.095.86-.271 1.25-.177.391-.415.728-.71 1.014-.297.284-.639.51-1.028.678a3.09 3.09 0 0 1-1.252.252ZM537.695 26.738c.356-.104.753-.229 1.184-.365a17.44 17.44 0 0 1 3.26-.663c.664-.076 1.42-.112 2.26-.112 2.47 0 4.172.719 5.112 2.153.939 1.434 1.101 3.396.492 5.884l-2.154 8.984h-4.713l2.087-8.795c.128-.55.228-1.08.301-1.6.075-.513.071-.966-.016-1.358a1.634 1.634 0 0 0-.584-.95c-.309-.243-.776-.364-1.409-.364a9.52 9.52 0 0 0-1.866.192l-3.069 12.874h-4.715l3.83-15.88Z" fill="#4D4D4D"/></g><rect y="76.564" width="125.939" height="60" rx="10" fill="#F8F8F8"/><g clip-path="url(#e)"><path d="M51.008 99.177h-5.18a.72.72 0 0 0-.712.607l-2.095 13.286a.43.43 0 0 0 .427.498h2.473a.72.72 0 0 0 .712-.608l.565-3.583a.72.72 0 0 1 .71-.609h1.64c3.413 0 5.383-1.651 5.898-4.924.231-1.432.01-2.557-.661-3.345-.736-.865-2.042-1.322-3.776-1.322Zm.598 4.852c-.283 1.859-1.704 1.859-3.077 1.859h-.782l.549-3.472a.431.431 0 0 1 .426-.364h.358c.936 0 1.819 0 2.275.533.272.318.355.791.251 1.444ZM66.496 103.969h-2.481a.433.433 0 0 0-.427.365l-.11.694-.173-.252c-.538-.78-1.735-1.04-2.93-1.04-2.742 0-5.084 2.076-5.54 4.989-.237 1.453.1 2.843.924 3.812.756.891 1.838 1.262 3.125 1.262 2.21 0 3.434-1.421 3.434-1.421l-.11.69c-.042.263.161.5.425.5h2.235a.72.72 0 0 0 .712-.609l1.34-8.491a.43.43 0 0 0-.424-.499Zm-3.459 4.829c-.24 1.417-1.364 2.369-2.799 2.369-.72 0-1.296-.231-1.666-.669-.367-.435-.506-1.054-.39-1.743.224-1.406 1.368-2.388 2.781-2.388.704 0 1.277.234 1.654.676.379.446.529 1.069.42 1.755ZM79.709 103.969h-2.493a.722.722 0 0 0-.596.316l-3.44 5.065-1.457-4.867a.722.722 0 0 0-.69-.514h-2.45a.432.432 0 0 0-.41.571l2.746 8.06-2.582 3.644a.432.432 0 0 0 .352.682h2.49a.718.718 0 0 0 .592-.309l8.293-11.97a.432.432 0 0 0-.355-.678Z" fill="#253B80"/><path d="M87.963 99.177h-5.181a.72.72 0 0 0-.71.607l-2.096 13.286a.43.43 0 0 0 .425.498h2.66c.246 0 .458-.18.496-.425l.595-3.766a.72.72 0 0 1 .71-.609h1.64c3.414 0 5.383-1.651 5.898-4.924.232-1.432.009-2.557-.662-3.345-.735-.865-2.04-1.322-3.775-1.322Zm.598 4.852c-.282 1.859-1.703 1.859-3.077 1.859h-.781l.55-3.472a.43.43 0 0 1 .425-.364h.358c.935 0 1.818 0 2.275.533.271.318.354.791.25 1.444ZM103.45 103.969h-2.48a.429.429 0 0 0-.425.365l-.11.694-.175-.252c-.537-.78-1.734-1.04-2.93-1.04-2.74 0-5.082 2.076-5.538 4.989-.236 1.453.1 2.843.924 3.812.757.891 1.838 1.262 3.125 1.262 2.209 0 3.434-1.421 3.434-1.421l-.11.69c-.042.263.16.5.426.5h2.235a.72.72 0 0 0 .71-.609l1.342-8.491a.433.433 0 0 0-.428-.499Zm-3.459 4.829c-.237 1.417-1.364 2.369-2.799 2.369-.719 0-1.296-.231-1.666-.669-.366-.435-.504-1.054-.389-1.743.225-1.406 1.367-2.388 2.78-2.388.705 0 1.278.234 1.655.676.38.446.529 1.069.42 1.755ZM106.375 99.541l-2.126 13.529a.431.431 0 0 0 .425.499h2.138a.72.72 0 0 0 .712-.609l2.097-13.284a.432.432 0 0 0-.426-.5h-2.394a.434.434 0 0 0-.426.365Z" fill="#179BD7"/><path d="m21.505 116.15.396-2.516-.883-.021h-4.214l2.929-18.57a.24.24 0 0 1 .238-.203h7.105c2.36 0 3.988.49 4.838 1.46.398.454.652.93.775 1.452.128.548.13 1.204.005 2.003l-.01.058v.512l.4.226c.335.178.601.382.806.615.341.389.561.883.655 1.469.096.602.064 1.318-.094 2.13-.181.933-.475 1.746-.872 2.411a4.958 4.958 0 0 1-1.383 1.515 5.598 5.598 0 0 1-1.862.841c-.686.178-1.469.268-2.327.268h-.553c-.396 0-.78.143-1.081.398a1.677 1.677 0 0 0-.564 1.006l-.042.227-.7 4.435-.032.163c-.008.052-.022.078-.043.095a.116.116 0 0 1-.073.026h-3.415Z" fill="#253B80"/><path d="M33.46 99.872a12.73 12.73 0 0 1-.072.417c-.937 4.811-4.143 6.473-8.238 6.473h-2.085c-.5 0-.923.364-1 .858l-1.068 6.769-.302 1.919c-.051.325.199.617.526.617h3.698a.89.89 0 0 0 .879-.75l.036-.188.696-4.418.045-.242a.889.889 0 0 1 .879-.752h.553c3.582 0 6.387-1.454 7.207-5.664.342-1.758.165-3.226-.741-4.259a3.547 3.547 0 0 0-1.012-.78Z" fill="#179BD7"/><path d="M32.48 99.481a7.363 7.363 0 0 0-.911-.202 11.58 11.58 0 0 0-1.838-.134h-5.57a.885.885 0 0 0-.878.752L22.1 107.4l-.035.219c.078-.494.5-.858 1.001-.858h2.085c4.095 0 7.3-1.662 8.238-6.473.028-.142.052-.281.073-.417a4.999 4.999 0 0 0-.98-.39Z" fill="#222D65"/><path d="M23.283 99.897a.885.885 0 0 1 .878-.751h5.57c.66 0 1.276.043 1.838.134a7.456 7.456 0 0 1 1.122.267c.276.092.533.2.77.325.28-1.778-.002-2.988-.963-4.085-1.06-1.206-2.973-1.723-5.42-1.723H19.97c-.5 0-.926.364-1.004.858l-2.96 18.762a.61.61 0 0 0 .603.706h4.387l1.102-6.989 1.184-7.504Z" fill="#253B80"/></g><rect x="141.939" y="76.564" width="72.625" height="60" rx="10" fill="#F8F8F8"/><g clip-path="url(#f)"><path d="M183.487 96.726h-10.889v19.564h10.889V96.726Z" fill="#FF5A00"/><path d="M173.323 106.508c0-3.975 1.868-7.503 4.736-9.782a12.378 12.378 0 0 0-7.676-2.662c-6.878 0-12.444 5.565-12.444 12.444 0 6.878 5.566 12.443 12.444 12.443a12.38 12.38 0 0 0 7.676-2.662 12.416 12.416 0 0 1-4.736-9.781Z" fill="#EB001B"/><path d="M198.178 106.508c0 6.878-5.566 12.443-12.444 12.443a12.377 12.377 0 0 1-7.675-2.662 12.376 12.376 0 0 0 4.735-9.781c0-3.975-1.868-7.503-4.735-9.782a12.356 12.356 0 0 1 7.671-2.662c6.882 0 12.448 5.602 12.448 12.444Z" fill="#F79E1B"/></g><rect x="230.564" y="76.564" width="93.598" height="60" rx="10" fill="#F8F8F8"/><g clip-path="url(#g)"><path d="M286.676 96.595c-4.369 0-8.274 2.264-8.274 6.449 0 4.798 6.925 5.13 6.925 7.54 0 1.015-1.163 1.924-3.149 1.924-2.82 0-4.927-1.27-4.927-1.27l-.902 4.223s2.428 1.072 5.651 1.072c4.777 0 8.536-2.376 8.536-6.632 0-5.07-6.954-5.392-6.954-7.629 0-.795.955-1.667 2.936-1.667 2.235 0 4.059.924 4.059.924l.882-4.078s-1.984-.856-4.783-.856Zm-39.975.308-.106.615s1.838.337 3.494 1.008c2.132.77 2.284 1.217 2.643 2.608l3.912 15.082h5.244l8.079-19.313h-5.232l-5.191 13.131-2.119-11.13c-.194-1.275-1.178-2.001-2.383-2.001h-8.341Zm25.37 0-4.104 19.313h4.989l4.09-19.313h-4.975Zm27.828 0c-1.203 0-1.841.644-2.308 1.77l-7.31 17.543h5.232l1.012-2.924h6.375l.615 2.924h4.617l-4.028-19.313h-4.205Zm.68 5.217 1.551 7.248h-4.155l2.604-7.248Z" fill="#1434CB"/></g><rect x="340.163" y="76.564" width="94.954" height="60" rx="10" fill="#F8F8F8"/><g clip-path="url(#h)"><path d="M385.939 106.277v7.329h-2.325V95.508h6.166a5.577 5.577 0 0 1 3.992 1.567 5.035 5.035 0 0 1 1.668 3.819 5.016 5.016 0 0 1-1.668 3.841c-1.078 1.028-2.409 1.542-3.992 1.541h-3.841v.001Zm0-8.54v6.317h3.898a3.085 3.085 0 0 0 2.301-.936 3.094 3.094 0 0 0 .691-3.412 3.1 3.1 0 0 0-.691-1.011 3.043 3.043 0 0 0-2.301-.96h-3.898v.001ZM400.797 100.819c1.718 0 3.075.459 4.069 1.377.995.919 1.491 2.178 1.49 3.778v7.631h-2.223v-1.718h-.101c-.963 1.415-2.243 2.123-3.841 2.123-1.364 0-2.506-.405-3.424-1.213a3.876 3.876 0 0 1-1.378-3.033c0-1.281.485-2.3 1.453-3.057.968-.756 2.261-1.135 3.879-1.137 1.38 0 2.517.252 3.41.758v-.532a2.645 2.645 0 0 0-.96-2.057 3.29 3.29 0 0 0-2.244-.848c-1.299 0-2.326.548-3.083 1.643l-2.047-1.289c1.126-1.618 2.793-2.426 5-2.426Zm-3.008 8.996a1.868 1.868 0 0 0 .771 1.516 2.838 2.838 0 0 0 1.807.607 3.708 3.708 0 0 0 2.615-1.086c.77-.725 1.155-1.576 1.155-2.552-.725-.577-1.736-.866-3.032-.866-.945 0-1.732.227-2.363.683-.637.462-.953 1.024-.953 1.698ZM419.122 101.223l-7.763 17.841h-2.4l2.88-6.243-5.104-11.598h2.527l3.689 8.895h.051l3.588-8.895h2.532Z" fill="#5F6368"/><path d="M376.544 104.698a12.392 12.392 0 0 0-.179-2.115h-9.805v4.005h5.616a4.815 4.815 0 0 1-2.077 3.159v2.599h3.352c1.962-1.809 3.093-4.485 3.093-7.648Z" fill="#4285F4"/><path d="M366.56 114.858c2.805 0 5.168-.922 6.891-2.51l-3.352-2.599c-.933.632-2.134.993-3.539.993-2.712 0-5.014-1.828-5.837-4.291h-3.452v2.678a10.391 10.391 0 0 0 9.289 5.729Z" fill="#34A853"/><path d="M360.723 106.451a6.232 6.232 0 0 1 0-3.98v-2.678h-3.452a10.397 10.397 0 0 0 0 9.336l3.452-2.678Z" fill="#FBBC04"/><path d="M366.56 98.18a5.644 5.644 0 0 1 3.988 1.56l2.968-2.968a9.99 9.99 0 0 0-6.956-2.708 10.397 10.397 0 0 0-9.289 5.729l3.452 2.678c.823-2.463 3.125-4.291 5.837-4.291Z" fill="#EA4335"/></g><rect x="451.117" y="76.564" width="92.894" height="60" rx="10" fill="#F8F8F8"/><g clip-path="url(#i)"><path d="M478.249 97.287c-.713.844-1.855 1.51-2.997 1.415-.143-1.141.416-2.355 1.071-3.104.713-.868 1.962-1.486 2.973-1.534.119 1.19-.345 2.355-1.047 3.223Zm1.035 1.641c-1.653-.095-3.068.94-3.853.94-.797 0-1.999-.892-3.307-.868-1.701.023-3.282.987-4.151 2.521-1.784 3.069-.463 7.612 1.261 10.11.845 1.236 1.855 2.592 3.188 2.545 1.26-.048 1.76-.821 3.282-.821 1.534 0 1.974.821 3.306.797 1.38-.024 2.248-1.237 3.093-2.474.963-1.403 1.356-2.771 1.379-2.842-.023-.024-2.664-1.035-2.688-4.08-.023-2.545 2.082-3.758 2.177-3.83-1.189-1.76-3.045-1.95-3.687-1.998Zm9.55-3.449v18.542h2.879v-6.339h3.984c3.639 0 6.196-2.498 6.196-6.113 0-3.616-2.509-6.09-6.101-6.09h-6.958Zm2.879 2.427h3.318c2.498 0 3.925 1.332 3.925 3.675s-1.427 3.687-3.937 3.687h-3.306v-7.362Zm15.437 16.258c1.808 0 3.485-.916 4.246-2.367h.06v2.224h2.664v-9.229c0-2.676-2.141-4.401-5.435-4.401-3.057 0-5.317 1.749-5.4 4.151h2.593c.214-1.142 1.272-1.891 2.723-1.891 1.761 0 2.748.821 2.748 2.331v1.023l-3.592.214c-3.342.202-5.15 1.57-5.15 3.949 0 2.402 1.867 3.996 4.543 3.996Zm.773-2.2c-1.534 0-2.509-.738-2.509-1.868 0-1.165.939-1.843 2.735-1.95l3.2-.202v1.046c0 1.737-1.475 2.974-3.426 2.974Zm9.753 7.1c2.807 0 4.127-1.07 5.281-4.317l5.054-14.177h-2.925l-3.39 10.954h-.059l-3.39-10.954h-3.009l4.876 13.499-.261.82c-.441 1.392-1.154 1.927-2.427 1.927a9.28 9.28 0 0 1-.844-.047v2.224c.166.047.88.071 1.094.071Z" fill="#000"/></g><rect x="560.011" y="76.564" width="162.316" height="60" rx="10" fill="#F8F8F8"/><g clip-path="url(#j)" fill-rule="evenodd" clip-rule="evenodd"><path d="M627.433 113.62c-4.816 3.554-11.798 5.444-17.81 5.444-8.426 0-16.014-3.115-21.756-8.3-.45-.407-.049-.963.493-.648 6.195 3.605 13.857 5.776 21.769 5.776 5.337 0 11.205-1.108 16.604-3.398.814-.345 1.497.537.7 1.126Z" fill="#F79C34"/><path d="M629.438 111.332c-.617-.789-4.072-.374-5.625-.188-.47.057-.543-.354-.119-.652 2.757-1.936 7.274-1.377 7.799-.729.529.654-.14 5.183-2.722 7.344-.398.332-.776.155-.6-.283.582-1.453 1.883-4.702 1.267-5.492Z" fill="#F79C34"/><path d="M623.923 96.813v-1.881a.464.464 0 0 1 .476-.476h8.433a.47.47 0 0 1 .486.474v1.613c-.002.27-.231.624-.634 1.184l-4.369 6.237c1.621-.038 3.336.205 4.81 1.033.332.187.422.463.447.734v2.008c0 .277-.302.596-.621.43-2.595-1.36-6.039-1.508-8.91.016-.293.157-.599-.159-.599-.436v-1.908c0-.305.006-.828.314-1.293l5.06-7.26h-4.406a.468.468 0 0 1-.487-.475ZM593.163 108.564h-2.565a.482.482 0 0 1-.459-.433l.002-13.167c0-.263.221-.473.495-.473l2.389-.001c.25.013.451.202.466.442v1.719h.049c.622-1.663 1.795-2.439 3.376-2.439 1.604 0 2.61.776 3.329 2.439.622-1.663 2.035-2.439 3.544-2.439 1.077 0 2.251.444 2.969 1.441.814 1.11.647 2.716.647 4.129l-.003 8.309c0 .262-.22.473-.494.473h-2.562a.48.48 0 0 1-.461-.472v-6.98c0-.554.047-1.94-.073-2.466-.191-.887-.765-1.136-1.507-1.136-.623 0-1.27.415-1.534 1.08-.263.665-.239 1.773-.239 2.522v6.979a.483.483 0 0 1-.495.473h-2.562a.48.48 0 0 1-.461-.472l-.003-6.98c0-1.469.24-3.63-1.58-3.63-1.844 0-1.772 2.106-1.772 3.63l-.001 6.979a.483.483 0 0 1-.495.473ZM640.601 96.9c-1.892 0-2.011 2.576-2.011 4.183 0 1.608-.024 5.044 1.988 5.044 1.987 0 2.083-2.771 2.083-4.461 0-1.108-.048-2.438-.384-3.491-.287-.915-.862-1.275-1.676-1.275Zm-.023-2.688c3.807 0 5.866 3.27 5.866 7.427 0 4.016-2.274 7.203-5.866 7.203-3.736 0-5.772-3.27-5.772-7.342 0-4.101 2.059-7.288 5.772-7.288ZM651.383 108.564h-2.557a.481.481 0 0 1-.46-.472l-.004-13.172a.486.486 0 0 1 .493-.43h2.379a.489.489 0 0 1 .457.368v2.014h.048c.719-1.801 1.724-2.66 3.495-2.66 1.15 0 2.276.416 2.994 1.552.67 1.053.67 2.826.67 4.1v8.286a.485.485 0 0 1-.491.414h-2.572a.483.483 0 0 1-.457-.414v-7.148c0-1.442.169-3.548-1.604-3.548-.622 0-1.197.416-1.485 1.053-.359.804-.407 1.607-.407 2.495v7.089a.49.49 0 0 1-.499.473ZM619.786 108.532a.53.53 0 0 1-.605.059c-.852-.708-1.005-1.035-1.471-1.709-1.408 1.434-2.405 1.864-4.23 1.864-2.159 0-3.839-1.333-3.839-3.998 0-2.083 1.128-3.499 2.736-4.193 1.391-.61 3.335-.722 4.824-.889v-.332c0-.612.047-1.333-.313-1.86-.312-.473-.912-.668-1.439-.668-.979 0-1.848.502-2.062 1.54-.045.232-.214.461-.446.473l-2.487-.27c-.209-.048-.443-.216-.383-.536.565-2.975 3.221-3.902 5.635-3.927h.191c1.236.015 2.814.354 3.775 1.276 1.249 1.167 1.128 2.722 1.128 4.416v3.996c0 1.203.499 1.73.968 2.377.165.234.201.511-.008.683-.524.439-1.455 1.247-1.967 1.704l-.007-.006Zm-2.585-6.255c0 1 .023 1.832-.48 2.721-.409.722-1.057 1.166-1.777 1.166-.983 0-1.559-.749-1.559-1.86 0-2.186 1.959-2.583 3.816-2.583v.556ZM586.157 108.532a.531.531 0 0 1-.606.059c-.853-.708-1.005-1.035-1.47-1.709-1.409 1.434-2.406 1.864-4.23 1.864-2.159 0-3.84-1.333-3.84-3.998 0-2.083 1.128-3.499 2.736-4.193 1.392-.61 3.336-.722 4.823-.889v-.332c0-.612.049-1.333-.311-1.86-.312-.473-.913-.668-1.44-.668-.979 0-1.849.502-2.062 1.54-.044.232-.213.461-.446.473l-2.486-.27c-.211-.048-.444-.216-.383-.536.563-2.975 3.22-3.902 5.635-3.927h.19c1.236.015 2.815.354 3.776 1.276 1.248 1.167 1.127 2.722 1.127 4.416v3.996c0 1.203.5 1.73.969 2.377.163.234.201.511-.008.683-.525.439-1.456 1.247-1.968 1.704l-.006-.006Zm-2.587-6.255c0 1 .025 1.832-.48 2.721-.407.722-1.055 1.166-1.776 1.166-.983 0-1.559-.749-1.559-1.86 0-2.186 1.96-2.583 3.815-2.583v.556ZM693.966 113.288v-.968c0-.275.136-.465.423-.448.536.076 1.294.152 1.832.042.703-.146 1.207-.645 1.505-1.328.421-.961.699-1.736.875-2.245l-5.337-13.22c-.09-.225-.117-.641.331-.641h1.866c.356 0 .5.225.58.447l3.869 10.739 3.694-10.74c.075-.22.226-.447.579-.447h1.76c.445 0 .42.416.331.641l-5.294 13.634c-.685 1.815-1.598 4.705-3.653 5.207-1.031.269-2.331.172-3.094-.148-.193-.096-.267-.355-.267-.525ZM691.478 107.759a.449.449 0 0 1-.449.447h-1.315a.513.513 0 0 1-.515-.447l-.132-.896a7.692 7.692 0 0 1-2.151 1.275c-1.548.601-3.331.7-4.843-.229-1.094-.671-1.674-1.983-1.674-3.336 0-1.047.323-2.085 1.038-2.838.955-1.03 2.338-1.536 4.009-1.536 1.009 0 2.453.119 3.504.462v-1.802c0-1.832-.772-2.625-2.806-2.625-1.555 0-2.744.235-4.399.75-.265.008-.42-.194-.42-.44v-1.027c0-.247.21-.485.438-.557 1.182-.516 2.857-.837 4.637-.896 2.32 0 5.078.523 5.078 4.092v9.603Zm-2.528-2.631v-2.719c-.883-.242-2.344-.342-2.91-.342-.893 0-1.871.211-2.382.761-.382.403-.555.982-.555 1.541 0 .724.25 1.45.835 1.808.679.462 1.733.406 2.723.125.952-.271 1.845-.748 2.289-1.174ZM672.08 96.275c2.919 0 3.714 2.295 3.714 4.923.016 1.772-.309 3.352-1.227 4.256-.687.677-1.454.862-2.608.862-1.028 0-2.38-.536-3.39-1.283v-7.514c1.052-.808 2.393-1.245 3.511-1.245Zm-3.958 17.485h-1.762a.45.45 0 0 1-.448-.448V94.951c0-.246.201-.448.448-.448h1.349c.283 0 .477.206.513.448l.142.962c1.263-1.122 2.89-1.84 4.439-1.84 4.341 0 5.768 3.575 5.768 7.294 0 3.979-2.183 7.175-5.875 7.175a6.181 6.181 0 0 1-4.127-1.57v6.34a.449.449 0 0 1-.447.448Z" fill="#333E47"/></g><defs><clipPath id="a"><path fill="#fff" transform="translate(16 18.064)" d="M0 0h99.397v25H0z"/></clipPath><clipPath id="b"><path fill="#fff" transform="translate(163.397 15.564)" d="M0 0h105.738v30H0z"/></clipPath><clipPath id="c"><path fill="#fff" transform="translate(317.135 15.564)" d="M0 0h65.502v30H0z"/></clipPath><clipPath id="d"><path fill="#fff" transform="translate(430.637 18.064)" d="M0 0h119.725v25H0z"/></clipPath><clipPath id="e"><path fill="#fff" transform="translate(16 94.064)" d="M0 0h93.939v25H0z"/></clipPath><clipPath id="f"><path fill="#fff" transform="translate(157.939 94.064)" d="M0 0h40.625v25H0z"/></clipPath><clipPath id="g"><path fill="#fff" transform="translate(246.564 96.564)" d="M0 0h61.598v20H0z"/></clipPath><clipPath id="h"><path fill="#fff" transform="translate(356.163 94.064)" d="M0 0h62.954v25H0z"/></clipPath><clipPath id="i"><path fill="#fff" transform="translate(467.117 94.064)" d="M0 0h60.894v25H0z"/></clipPath><clipPath id="j"><path fill="#fff" transform="translate(576.011 94.064)" d="M0 0h130.316v25H0z"/></clipPath></defs></svg>