<svg width="499" height="475" fill="none" xmlns="http://www.w3.org/2000/svg"><rect x=".247" y=".724" width="498.753" height="82" rx="10" fill="#F8F8F8"/><rect x="16.247" y="16.724" width="50" height="50" rx="10" fill="#5BB5A2"/><path d="M38.363 54.193c-1.272 0-2.385-.239-3.339-.716a6.017 6.017 0 0 1-2.317-2.01l-.477 2.317h-3.883v-24.53h4.36v10.05c.545-.749 1.26-1.407 2.147-1.975.908-.568 2.078-.852 3.509-.852 1.59 0 3.009.386 4.258 1.159 1.25.772 2.237 1.828 2.964 3.168.727 1.34 1.09 2.862 1.09 4.565 0 1.703-.363 3.225-1.09 4.565a8.367 8.367 0 0 1-2.964 3.134c-1.25.75-2.669 1.125-4.258 1.125Zm-.92-3.816c1.385 0 2.532-.466 3.44-1.397.91-.931 1.363-2.135 1.363-3.611 0-1.476-.454-2.691-1.362-3.645-.909-.954-2.056-1.431-3.441-1.431-1.408 0-2.567.477-3.475 1.43-.886.932-1.329 2.136-1.329 3.612s.443 2.691 1.329 3.645c.908.931 2.067 1.397 3.475 1.397ZM51.422 54.022c-.795 0-1.453-.25-1.976-.75-.5-.499-.75-1.1-.75-1.805 0-.727.25-1.34.75-1.84.523-.5 1.181-.749 1.976-.749.795 0 1.443.25 1.942.75.523.5.784 1.112.784 1.84 0 .703-.261 1.305-.784 1.805-.5.5-1.147.75-1.942.75Z" fill="#fff"/><path d="M83.604 33.724V19.759h5.606c1.45 0 2.553.339 3.311 1.017.772.665 1.157 1.523 1.157 2.574 0 .877-.239 1.582-.718 2.114a3.504 3.504 0 0 1-1.715 1.058c.798.16 1.456.558 1.975 1.197.518.625.778 1.356.778 2.194 0 1.104-.4 2.015-1.197 2.733-.798.718-1.929 1.078-3.392 1.078h-5.805Zm2.553-8.1h2.674c.718 0 1.27-.166 1.656-.499.385-.332.578-.805.578-1.416 0-.585-.193-1.044-.578-1.377-.373-.346-.938-.519-1.696-.519h-2.634v3.81Zm0 6.025h2.853c.758 0 1.343-.173 1.756-.519.425-.359.638-.858.638-1.496 0-.652-.22-1.164-.658-1.536-.44-.373-1.03-.559-1.776-.559h-2.813v4.11Zm12.785 2.314c-.85 0-1.549-.133-2.094-.399-.546-.28-.951-.645-1.217-1.097a2.897 2.897 0 0 1-.4-1.496c0-.918.36-1.663 1.078-2.235.718-.572 1.796-.858 3.232-.858h2.514v-.24c0-.678-.193-1.176-.579-1.495-.386-.32-.864-.48-1.436-.48-.519 0-.971.127-1.357.38-.386.24-.625.598-.718 1.077h-2.494c.067-.718.306-1.343.718-1.875.426-.532.971-.938 1.636-1.217.665-.293 1.41-.439 2.235-.439 1.41 0 2.52.352 3.331 1.057.812.705 1.217 1.703 1.217 2.993v6.085h-2.174l-.24-1.596c-.292.532-.705.97-1.237 1.316-.518.346-1.19.519-2.014.519Zm.58-1.995c.731 0 1.296-.24 1.695-.718.412-.479.671-1.07.778-1.776H99.82c-.678 0-1.163.127-1.456.38-.293.239-.439.538-.439.897 0 .386.146.685.439.898.293.213.678.319 1.157.319Zm6.925 1.756v-9.896h2.254l.2 1.676a3.49 3.49 0 0 1 1.316-1.396c.586-.346 1.27-.519 2.055-.519 1.224 0 2.175.386 2.853 1.157.678.771 1.017 1.902 1.017 3.392v5.586h-2.553v-5.347c0-.851-.173-1.503-.519-1.955-.346-.452-.884-.678-1.616-.678-.718 0-1.31.252-1.775.758-.453.505-.679 1.21-.679 2.114v5.108h-2.553Zm11.539 0V19.36h2.553v8.478l3.512-4.01h3.032l-4.05 4.51 4.708 5.386h-3.192l-4.01-4.968v4.968h-2.553Zm14.67.239c-.958 0-1.822-.22-2.593-.658a4.945 4.945 0 0 1-1.816-1.816c-.439-.785-.658-1.689-.658-2.713s.226-1.922.678-2.693a4.907 4.907 0 0 1 1.815-1.836c.772-.439 1.636-.658 2.594-.658.944 0 1.796.22 2.554.658a4.724 4.724 0 0 1 1.815 1.836c.452.771.678 1.669.678 2.693s-.226 1.928-.678 2.713a4.763 4.763 0 0 1-1.815 1.816c-.772.439-1.63.658-2.574.658Zm0-2.214c.665 0 1.244-.246 1.736-.739.492-.505.738-1.25.738-2.234s-.246-1.722-.738-2.215c-.492-.505-1.064-.758-1.716-.758-.678 0-1.264.253-1.756.758-.478.493-.718 1.23-.718 2.215 0 .984.24 1.729.718 2.234.492.492 1.071.739 1.736.739Zm7.849 2.114c-.465 0-.851-.146-1.157-.439a1.444 1.444 0 0 1-.439-1.057c0-.426.147-.785.439-1.077.306-.293.692-.44 1.157-.44.466 0 .845.147 1.137.44.306.292.459.651.459 1.077 0 .412-.153.765-.459 1.057-.292.293-.671.44-1.137.44ZM82.628 48.087h1.994l3.04 5.29h.125l3.04-5.29h1.994l-4.222 7.069v4.568h-1.75v-4.568l-4.221-7.069ZM96.58 59.9c-.818 0-1.532-.188-2.142-.563a3.793 3.793 0 0 1-1.42-1.574c-.338-.674-.506-1.462-.506-2.363 0-.905.168-1.697.505-2.375a3.785 3.785 0 0 1 1.42-1.58c.61-.375 1.325-.562 2.143-.562.818 0 1.532.187 2.142.562.61.375 1.083.902 1.42 1.58.337.678.506 1.47.506 2.375 0 .901-.169 1.69-.506 2.363a3.79 3.79 0 0 1-1.42 1.574c-.61.375-1.324.563-2.142.563Zm.006-1.426c.53 0 .97-.14 1.318-.42.348-.281.606-.654.772-1.12.17-.466.256-.98.256-1.54 0-.557-.085-1.068-.256-1.534a2.5 2.5 0 0 0-.772-1.13c-.349-.285-.788-.427-1.318-.427-.535 0-.978.142-1.33.426a2.54 2.54 0 0 0-.778 1.131c-.167.466-.25.977-.25 1.534 0 .56.083 1.074.25 1.54.17.466.43.839.778 1.12.352.28.795.42 1.33.42Zm11.487-2.37v-5.108h1.704v8.728h-1.67v-1.512h-.091a2.727 2.727 0 0 1-.966 1.165c-.439.307-.987.46-1.642.46-.561 0-1.057-.123-1.489-.369-.428-.25-.765-.62-1.011-1.108-.242-.489-.364-1.093-.364-1.813v-5.55h1.699v5.346c0 .595.165 1.068.495 1.42.329.353.757.529 1.284.529.318 0 .634-.08.949-.239.318-.159.581-.4.789-.721.212-.322.317-.732.313-1.228Zm8.221 6.892v-12h1.659v1.415h.143a4.66 4.66 0 0 1 .426-.63c.185-.24.443-.447.772-.625.33-.182.766-.273 1.307-.273.705 0 1.334.178 1.887.534.553.356.986.87 1.301 1.54.318.67.477 1.477.477 2.42 0 .943-.157 1.752-.472 2.426-.314.67-.746 1.188-1.295 1.551-.549.36-1.176.54-1.881.54-.53 0-.964-.089-1.301-.267a2.46 2.46 0 0 1-.784-.625 4.73 4.73 0 0 1-.437-.636h-.103v4.63h-1.699Zm1.665-7.636c0 .614.089 1.151.267 1.614.178.462.436.824.773 1.085.337.257.75.386 1.239.386.507 0 .931-.134 1.272-.403.341-.273.599-.642.773-1.108.178-.466.267-.99.267-1.574 0-.576-.087-1.093-.261-1.551-.171-.459-.428-.82-.773-1.085-.341-.265-.767-.398-1.278-.398-.493 0-.91.127-1.25.38-.338.254-.593.608-.767 1.063-.175.455-.262.985-.262 1.591Zm10.75 4.557a3.564 3.564 0 0 1-1.5-.307 2.523 2.523 0 0 1-1.062-.903c-.258-.394-.387-.877-.387-1.45 0-.492.095-.897.284-1.215a2.1 2.1 0 0 1 .767-.756 4.006 4.006 0 0 1 1.08-.42 10.73 10.73 0 0 1 1.216-.216l1.273-.148c.325-.042.562-.108.71-.199.148-.09.221-.238.221-.443v-.04c0-.496-.14-.88-.42-1.153-.277-.273-.689-.41-1.239-.41-.572 0-1.022.128-1.352.381-.326.25-.551.529-.676.836l-1.597-.364c.19-.53.466-.958.83-1.284.367-.33.79-.568 1.267-.716a4.945 4.945 0 0 1 1.506-.227c.348 0 .717.041 1.108.125.393.08.761.227 1.102.443.345.216.627.524.846.926.22.398.33.915.33 1.551v5.796h-1.659V58.53h-.068c-.11.22-.275.435-.495.647a2.624 2.624 0 0 1-.846.529c-.345.14-.758.21-1.239.21Zm.369-1.364c.47 0 .872-.093 1.205-.278.337-.186.593-.428.767-.727.178-.303.267-.627.267-.972V55.45c-.061.06-.178.117-.352.17-.171.05-.366.093-.585.131l-.642.097c-.209.026-.383.049-.523.068-.33.041-.631.112-.904.21a1.55 1.55 0 0 0-.647.426c-.159.182-.239.424-.239.728 0 .42.155.738.466.954.311.212.706.318 1.187.318Zm6.962 4.443c-.254 0-.485-.02-.693-.062a2.188 2.188 0 0 1-.466-.125l.409-1.392c.311.083.587.12.83.108a.995.995 0 0 0 .642-.273c.189-.17.356-.449.5-.835l.21-.58-3.193-8.84h1.818l2.21 6.772h.091l2.21-6.773h1.824l-3.596 9.892a3.945 3.945 0 0 1-.637 1.154 2.465 2.465 0 0 1-.92.716c-.356.159-.769.238-1.239.238Zm7.989-3.272v-8.728h1.63v1.42h.108a2.26 2.26 0 0 1 .892-1.124c.413-.273.908-.41 1.483-.41.584 0 1.072.137 1.466.41.398.273.692.648.881 1.125h.091c.208-.466.54-.837.994-1.114.455-.28.996-.42 1.625-.42.792 0 1.438.248 1.938.744.503.496.755 1.244.755 2.244v5.853h-1.698V54.03c0-.591-.161-1.02-.483-1.285a1.758 1.758 0 0 0-1.154-.397c-.553 0-.983.17-1.29.511-.306.337-.46.77-.46 1.301v5.563h-1.693v-5.801c0-.474-.148-.855-.443-1.142-.296-.288-.68-.432-1.154-.432-.322 0-.619.085-.892.255-.269.167-.486.4-.653.7a2.14 2.14 0 0 0-.244 1.039v5.38h-1.699Zm17.902.176c-.86 0-1.601-.184-2.222-.551a3.74 3.74 0 0 1-1.432-1.563c-.333-.674-.5-1.464-.5-2.37 0-.893.167-1.681.5-2.363a3.884 3.884 0 0 1 1.409-1.596c.606-.383 1.315-.574 2.125-.574.493 0 .97.081 1.432.244.462.163.877.419 1.245.767.367.349.657.801.869 1.358.212.553.318 1.225.318 2.017v.602h-6.937V54.6h5.272c0-.447-.091-.843-.272-1.188a2.066 2.066 0 0 0-.767-.824c-.326-.2-.709-.3-1.148-.3-.477 0-.894.117-1.25.351a2.365 2.365 0 0 0-.818.91c-.19.37-.284.774-.284 1.21v.994c0 .583.102 1.08.306 1.489.209.409.498.721.87.937.371.212.805.318 1.301.318.322 0 .615-.045.88-.136.266-.095.495-.235.688-.42.193-.186.341-.415.443-.688l1.608.29c-.129.473-.36.888-.693 1.244-.33.352-.744.627-1.244.824-.497.193-1.063.29-1.699.29Zm7.328-5.358v5.182h-1.699v-8.728h1.631v1.42h.108c.2-.461.515-.832.943-1.113.432-.28.975-.42 1.63-.42.595 0 1.116.125 1.563.375.447.246.794.613 1.04 1.102.246.489.369 1.093.369 1.813v5.55h-1.699v-5.346c0-.633-.165-1.127-.494-1.483-.33-.36-.782-.54-1.358-.54-.394 0-.744.086-1.051.256a1.84 1.84 0 0 0-.722.75c-.174.326-.261.72-.261 1.182Zm11.937-3.546v1.364h-4.767v-1.364h4.767Zm-3.488-2.09h1.699v8.255c0 .33.049.578.147.745a.775.775 0 0 0 .381.335c.159.056.331.085.517.085.136 0 .256-.01.358-.029.102-.018.182-.034.239-.045l.306 1.404a2.838 2.838 0 0 1-.42.113 3.327 3.327 0 0 1-.682.068 2.994 2.994 0 0 1-1.25-.238 2.14 2.14 0 0 1-.937-.773c-.239-.349-.358-.786-.358-1.313v-8.607ZM190.987 59.9c-.818 0-1.532-.188-2.142-.563a3.79 3.79 0 0 1-1.42-1.574c-.337-.674-.506-1.462-.506-2.363 0-.905.169-1.697.506-2.375a3.782 3.782 0 0 1 1.42-1.58c.61-.375 1.324-.562 2.142-.562.818 0 1.532.187 2.142.562.61.375 1.084.902 1.421 1.58.337.678.505 1.47.505 2.375 0 .901-.168 1.69-.505 2.363a3.793 3.793 0 0 1-1.421 1.574c-.61.375-1.324.563-2.142.563Zm.006-1.426c.53 0 .97-.14 1.318-.42a2.47 2.47 0 0 0 .773-1.12c.17-.466.255-.98.255-1.54 0-.557-.085-1.068-.255-1.534a2.506 2.506 0 0 0-.773-1.13c-.348-.285-.788-.427-1.318-.427-.534 0-.977.142-1.33.426a2.539 2.539 0 0 0-.778 1.131c-.167.466-.25.977-.25 1.534 0 .56.083 1.074.25 1.54.17.466.43.839.778 1.12.353.28.796.42 1.33.42Zm10.112-7.478v1.364h-4.932v-1.364h4.932Zm-3.58 8.728v-9.739c0-.545.12-.998.358-1.358.239-.364.555-.634.949-.813a3.027 3.027 0 0 1 1.284-.272c.341 0 .633.028.875.085.243.053.423.102.54.148l-.398 1.375a7.617 7.617 0 0 0-.306-.08 1.752 1.752 0 0 0-.455-.05c-.413 0-.708.101-.886.306-.175.205-.262.5-.262.886v9.512h-1.699Zm9.3-2.273v-1.42l5.029-7.944h1.119v2.091h-.71l-3.597 5.693v.091h6.892v1.489h-8.733Zm5.517 2.273v-2.705l.012-.648v-8.284h1.664v11.637h-1.676Zm9.066-11.796c.519.004 1.03.099 1.534.284.503.186.958.489 1.363.91.409.42.735.988.978 1.704.246.712.371 1.598.375 2.659 0 1.019-.103 1.926-.307 2.722-.205.791-.498 1.46-.881 2.005-.379.546-.839.96-1.381 1.245-.541.284-1.151.426-1.829.426-.693 0-1.309-.137-1.847-.41a3.514 3.514 0 0 1-1.312-1.13 3.738 3.738 0 0 1-.631-1.67h1.733c.114.5.345.905.693 1.215.352.307.807.46 1.364.46.852 0 1.517-.37 1.994-1.113.477-.746.718-1.788.722-3.125h-.091a3.133 3.133 0 0 1-.739.84 3.31 3.31 0 0 1-.983.546 3.464 3.464 0 0 1-1.165.194c-.67 0-1.28-.165-1.829-.495a3.65 3.65 0 0 1-1.313-1.358c-.325-.576-.488-1.233-.488-1.971 0-.735.166-1.402.5-2a3.732 3.732 0 0 1 1.409-1.42c.606-.353 1.316-.525 2.131-.518Zm.005 1.478c-.443 0-.843.11-1.199.329a2.34 2.34 0 0 0-.835.88 2.486 2.486 0 0 0-.307 1.228c0 .45.099.86.296 1.227.201.364.473.654.818.87.348.212.746.318 1.193.318.334 0 .644-.065.932-.194.288-.128.54-.306.756-.533.216-.232.384-.493.505-.785a2.36 2.36 0 0 0 .182-.92c0-.428-.102-.826-.307-1.193a2.384 2.384 0 0 0-.829-.887 2.173 2.173 0 0 0-1.205-.34Zm13.615 2.76-.539 1.171h-7.472l.426-1.17h7.585Zm-1.017 2.308-.551 1.182h-6.443l.426-1.182h6.568Zm2.404-5.392-.671 1.437a4.856 4.856 0 0 0-.693-.494 3.662 3.662 0 0 0-.807-.352 3.057 3.057 0 0 0-.926-.137c-.606 0-1.146.163-1.619.489-.474.325-.847.814-1.12 1.466-.268.647-.403 1.454-.403 2.42s.135 1.773.403 2.42c.273.648.646 1.135 1.12 1.46a2.81 2.81 0 0 0 1.619.484c.333 0 .644-.044.932-.13.292-.088.557-.202.795-.342.243-.144.461-.295.654-.454l.687 1.432a4.047 4.047 0 0 1-1.397.823 5.028 5.028 0 0 1-1.671.279c-.951 0-1.793-.24-2.528-.722-.731-.48-1.305-1.166-1.722-2.057-.417-.894-.625-1.958-.625-3.193 0-1.239.208-2.305.625-3.199.417-.894.991-1.581 1.722-2.062.735-.481 1.577-.722 2.528-.722.606 0 1.171.1 1.693.301.523.197.991.481 1.404.853Zm8.001 5.46v5.182h-1.699V48.087h1.676v4.33h.108c.205-.47.517-.843.938-1.12.42-.276.97-.414 1.648-.414.598 0 1.121.123 1.568.369.45.246.799.614 1.045 1.102.25.485.375 1.091.375 1.819v5.55h-1.699v-5.346c0-.64-.164-1.136-.494-1.489-.33-.356-.788-.534-1.375-.534-.402 0-.761.086-1.08.256-.314.17-.562.42-.744.75-.178.326-.267.72-.267 1.182Zm10.466 5.375a3.564 3.564 0 0 1-1.5-.307 2.523 2.523 0 0 1-1.062-.903c-.258-.394-.387-.877-.387-1.45 0-.492.095-.897.284-1.215a2.1 2.1 0 0 1 .767-.756 4.006 4.006 0 0 1 1.08-.42 10.73 10.73 0 0 1 1.216-.216l1.272-.148c.326-.042.563-.108.711-.199.147-.09.221-.238.221-.443v-.04c0-.496-.14-.88-.42-1.153-.277-.273-.69-.41-1.239-.41-.572 0-1.023.128-1.352.381-.326.25-.551.529-.676.836l-1.597-.364c.19-.53.466-.958.83-1.284.367-.33.79-.568 1.267-.716a4.944 4.944 0 0 1 1.505-.227c.349 0 .718.041 1.108.125.394.08.762.227 1.103.443.344.216.627.524.846.926.22.398.33.915.33 1.551v5.796h-1.659V58.53h-.068c-.11.22-.275.435-.495.647a2.624 2.624 0 0 1-.846.529c-.345.14-.758.21-1.239.21Zm.369-1.364c.47 0 .872-.093 1.205-.278.337-.186.593-.428.767-.727.178-.303.267-.627.267-.972V55.45c-.061.06-.178.117-.352.17-.171.05-.366.093-.586.131l-.642.097c-.208.026-.382.049-.522.068-.33.041-.631.112-.904.21-.269.098-.485.24-.647.426-.16.182-.239.424-.239.728 0 .42.155.738.466.954.31.212.706.318 1.187.318Zm12.74-5.426-1.539.273a1.84 1.84 0 0 0-.307-.563 1.522 1.522 0 0 0-.557-.437c-.235-.114-.528-.17-.881-.17-.481 0-.882.107-1.204.323-.322.212-.483.487-.483.824 0 .292.108.527.324.705.216.178.564.324 1.045.437l1.386.318c.804.186 1.402.472 1.796.858.394.387.591.889.591 1.506 0 .523-.152.989-.455 1.398-.299.405-.718.723-1.255.954-.534.231-1.154.347-1.858.347-.978 0-1.775-.209-2.392-.625-.618-.42-.997-1.017-1.137-1.79l1.642-.25c.103.428.313.752.631.972.318.215.733.324 1.244.324.557 0 1.002-.116 1.336-.347.333-.235.5-.521.5-.858a.894.894 0 0 0-.307-.688c-.201-.185-.51-.325-.926-.42l-1.478-.324c-.814-.185-1.416-.481-1.807-.886-.386-.406-.579-.919-.579-1.54a2.2 2.2 0 0 1 .432-1.352c.288-.387.685-.688 1.193-.904.508-.22 1.089-.33 1.744-.33.943 0 1.686.205 2.228.614.541.406.899.95 1.073 1.631Zm6.409 6.597V48.087h1.699v4.324h.103a4.66 4.66 0 0 1 .426-.63c.185-.24.443-.447.772-.625.33-.182.766-.273 1.307-.273.705 0 1.334.178 1.887.534.553.356.986.87 1.301 1.54.318.67.477 1.477.477 2.42 0 .943-.157 1.752-.472 2.426-.314.67-.746 1.188-1.295 1.551-.549.36-1.176.54-1.881.54-.53 0-.964-.089-1.301-.267a2.471 2.471 0 0 1-.784-.625 4.73 4.73 0 0 1-.437-.636h-.142v1.358h-1.66Zm1.665-4.364c0 .614.089 1.151.267 1.614.178.462.436.824.773 1.085.337.257.75.386 1.239.386.507 0 .931-.134 1.272-.403.341-.273.599-.642.773-1.108.178-.466.267-.99.267-1.574 0-.576-.087-1.093-.261-1.551-.171-.459-.428-.82-.773-1.085-.341-.265-.767-.398-1.278-.398-.493 0-.909.127-1.25.38-.337.254-.593.608-.767 1.063-.175.455-.262.985-.262 1.591Zm11.976 4.54c-.86 0-1.6-.184-2.221-.551a3.734 3.734 0 0 1-1.432-1.563c-.334-.674-.5-1.464-.5-2.37 0-.893.166-1.681.5-2.363a3.884 3.884 0 0 1 1.409-1.596c.606-.383 1.314-.574 2.125-.574.492 0 .969.081 1.432.244.462.163.876.419 1.244.767.367.349.657.801.869 1.358.212.553.318 1.225.318 2.017v.602h-6.937V54.6h5.273c0-.447-.091-.843-.273-1.188a2.066 2.066 0 0 0-.767-.824c-.326-.2-.708-.3-1.148-.3-.477 0-.894.117-1.25.351a2.365 2.365 0 0 0-.818.91 2.629 2.629 0 0 0-.284 1.21v.994c0 .583.102 1.08.307 1.489.208.409.498.721.869.937.371.212.805.318 1.301.318.322 0 .616-.045.881-.136a1.826 1.826 0 0 0 1.131-1.108l1.607.29a2.896 2.896 0 0 1-.693 1.244 3.354 3.354 0 0 1-1.244.824c-.496.193-1.063.29-1.699.29Zm9.391 0c-.86 0-1.601-.184-2.222-.551a3.74 3.74 0 0 1-1.432-1.563c-.333-.674-.5-1.464-.5-2.37 0-.893.167-1.681.5-2.363a3.884 3.884 0 0 1 1.409-1.596c.606-.383 1.315-.574 2.125-.574.493 0 .97.081 1.432.244.462.163.877.419 1.245.767.367.349.657.801.869 1.358.212.553.318 1.225.318 2.017v.602h-6.937V54.6h5.272c0-.447-.091-.843-.272-1.188a2.066 2.066 0 0 0-.767-.824c-.326-.2-.709-.3-1.148-.3-.477 0-.894.117-1.25.351a2.365 2.365 0 0 0-.818.91c-.19.37-.284.774-.284 1.21v.994c0 .583.102 1.08.306 1.489.209.409.498.721.87.937.371.212.805.318 1.301.318.322 0 .615-.045.88-.136.266-.095.495-.235.688-.42.193-.186.341-.415.443-.688l1.608.29c-.129.473-.36.888-.693 1.244-.33.352-.744.627-1.244.824-.497.193-1.063.29-1.699.29Zm7.328-5.358v5.182h-1.699v-8.728h1.631v1.42h.108c.2-.461.515-.832.943-1.113.432-.28.975-.42 1.63-.42.595 0 1.116.125 1.563.375.447.246.794.613 1.04 1.102.246.489.369 1.093.369 1.813v5.55h-1.699v-5.346c0-.633-.165-1.127-.494-1.483-.33-.36-.782-.54-1.358-.54-.394 0-.744.086-1.051.256a1.84 1.84 0 0 0-.722.75c-.174.326-.261.72-.261 1.182Zm12.098 8.454v-12h1.659v1.415h.142c.098-.182.241-.392.426-.63a2.41 2.41 0 0 1 .773-.625c.329-.182.765-.273 1.307-.273.704 0 1.333.178 1.886.534.553.356.987.87 1.301 1.54.318.67.477 1.477.477 2.42 0 .943-.157 1.752-.471 2.426-.315.67-.746 1.188-1.296 1.551-.549.36-1.176.54-1.88.54-.531 0-.964-.089-1.301-.267a2.45 2.45 0 0 1-.784-.625 4.657 4.657 0 0 1-.438-.636h-.102v4.63h-1.699Zm1.665-7.636c0 .614.089 1.151.267 1.614.178.462.435.824.772 1.085.338.257.75.386 1.239.386.508 0 .932-.134 1.273-.403.341-.273.598-.642.773-1.108.178-.466.267-.99.267-1.574 0-.576-.088-1.093-.262-1.551-.17-.459-.428-.82-.773-1.085-.34-.265-.767-.398-1.278-.398-.492 0-.909.127-1.25.38-.337.254-.593.608-.767 1.063-.174.455-.261.985-.261 1.591Zm8.21 4.364v-8.728h1.642v1.387h.091c.159-.47.439-.84.841-1.108.405-.273.863-.41 1.375-.41a7.344 7.344 0 0 1 .721.04v1.626a3.012 3.012 0 0 0-.363-.063 3.472 3.472 0 0 0-.523-.04c-.402 0-.76.085-1.074.256a1.899 1.899 0 0 0-1.011 1.71v5.33h-1.699Zm9.504.176c-.818 0-1.532-.188-2.142-.563a3.79 3.79 0 0 1-1.42-1.574c-.337-.674-.506-1.462-.506-2.363 0-.905.169-1.697.506-2.375a3.782 3.782 0 0 1 1.42-1.58c.61-.375 1.324-.562 2.142-.562.818 0 1.532.187 2.142.562.61.375 1.084.902 1.421 1.58.337.678.505 1.47.505 2.375 0 .901-.168 1.69-.505 2.363a3.793 3.793 0 0 1-1.421 1.574c-.61.375-1.324.563-2.142.563Zm.006-1.426c.53 0 .97-.14 1.318-.42a2.47 2.47 0 0 0 .773-1.12c.17-.466.255-.98.255-1.54 0-.557-.085-1.068-.255-1.534a2.506 2.506 0 0 0-.773-1.13c-.348-.285-.788-.427-1.318-.427-.534 0-.977.142-1.33.426a2.539 2.539 0 0 0-.778 1.131c-.167.466-.25.977-.25 1.534 0 .56.083 1.074.25 1.54.17.466.43.839.778 1.12.353.28.796.42 1.33.42Zm9.635 1.426c-.845 0-1.572-.191-2.182-.574a3.802 3.802 0 0 1-1.398-1.597c-.326-.678-.488-1.454-.488-2.33 0-.886.166-1.668.5-2.346a3.828 3.828 0 0 1 1.409-1.596c.606-.383 1.32-.574 2.142-.574.663 0 1.253.123 1.772.369a3.18 3.18 0 0 1 1.256 1.023c.322.44.513.952.574 1.54h-1.653a1.987 1.987 0 0 0-.625-1.057c-.322-.296-.754-.444-1.296-.444a2.11 2.11 0 0 0-1.244.376c-.352.246-.627.598-.824 1.056-.197.455-.296.993-.296 1.614 0 .636.097 1.186.29 1.648.193.462.466.82.818 1.074.356.253.775.38 1.256.38.322 0 .614-.058.875-.176.265-.121.487-.293.665-.517.182-.223.309-.492.381-.807h1.653a3.214 3.214 0 0 1-.551 1.512 3.174 3.174 0 0 1-1.233 1.045c-.511.254-1.112.38-1.801.38Zm9.163 0c-.86 0-1.6-.184-2.221-.551a3.734 3.734 0 0 1-1.432-1.563c-.334-.674-.5-1.464-.5-2.37 0-.893.166-1.681.5-2.363a3.884 3.884 0 0 1 1.409-1.596c.606-.383 1.314-.574 2.125-.574.492 0 .969.081 1.432.244.462.163.876.419 1.244.767.367.349.657.801.869 1.358.212.553.318 1.225.318 2.017v.602h-6.937V54.6h5.273c0-.447-.091-.843-.273-1.188a2.066 2.066 0 0 0-.767-.824c-.326-.2-.708-.3-1.148-.3-.477 0-.894.117-1.25.351a2.365 2.365 0 0 0-.818.91 2.629 2.629 0 0 0-.284 1.21v.994c0 .583.102 1.08.307 1.489.208.409.498.721.869.937.371.212.805.318 1.301.318.322 0 .616-.045.881-.136a1.826 1.826 0 0 0 1.131-1.108l1.607.29a2.896 2.896 0 0 1-.693 1.244 3.354 3.354 0 0 1-1.244.824c-.496.193-1.063.29-1.699.29Zm12.169-6.773-1.54.273a1.816 1.816 0 0 0-.306-.563 1.522 1.522 0 0 0-.557-.437c-.235-.114-.529-.17-.881-.17-.481 0-.883.107-1.204.323-.322.212-.483.487-.483.824a.87.87 0 0 0 .323.705c.216.178.565.324 1.046.437l1.386.318c.803.186 1.402.472 1.796.858.394.387.591.889.591 1.506 0 .523-.152.989-.455 1.398-.299.405-.718.723-1.256.954-.534.231-1.153.347-1.858.347-.977 0-1.774-.209-2.392-.625-.617-.42-.996-1.017-1.136-1.79l1.642-.25c.102.428.313.752.631.972.318.215.733.324 1.244.324.557 0 1.002-.116 1.335-.347.334-.235.5-.521.5-.858a.89.89 0 0 0-.307-.688c-.2-.185-.509-.325-.926-.42l-1.477-.324c-.814-.185-1.417-.481-1.807-.886-.386-.406-.579-.919-.579-1.54a2.2 2.2 0 0 1 .432-1.352c.287-.387.685-.688 1.193-.904.507-.22 1.089-.33 1.744-.33.943 0 1.686.205 2.227.614.542.406.9.95 1.074 1.631Zm8.578 0-1.54.273a1.816 1.816 0 0 0-.306-.563 1.522 1.522 0 0 0-.557-.437c-.235-.114-.529-.17-.881-.17-.481 0-.882.107-1.204.323-.322.212-.483.487-.483.824 0 .292.108.527.324.705.215.178.564.324 1.045.437l1.386.318c.803.186 1.402.472 1.796.858.394.387.591.889.591 1.506 0 .523-.152.989-.455 1.398-.299.405-.718.723-1.256.954-.534.231-1.153.347-1.857.347-.978 0-1.775-.209-2.393-.625-.617-.42-.996-1.017-1.136-1.79l1.642-.25c.102.428.313.752.631.972.318.215.733.324 1.244.324.557 0 1.002-.116 1.335-.347.334-.235.5-.521.5-.858a.893.893 0 0 0-.306-.688c-.201-.185-.51-.325-.927-.42l-1.477-.324c-.814-.185-1.416-.481-1.807-.886-.386-.406-.579-.919-.579-1.54a2.2 2.2 0 0 1 .432-1.352c.288-.387.685-.688 1.193-.904.507-.22 1.089-.33 1.744-.33.943 0 1.686.205 2.227.614.542.406.9.95 1.074 1.631Zm5.8 6.773c-.86 0-1.6-.184-2.222-.551a3.738 3.738 0 0 1-1.431-1.563c-.334-.674-.5-1.464-.5-2.37 0-.893.166-1.681.5-2.363a3.877 3.877 0 0 1 1.409-1.596c.606-.383 1.314-.574 2.125-.574.492 0 .969.081 1.431.244.463.163.877.419 1.245.767.367.349.657.801.869 1.358.212.553.318 1.225.318 2.017v.602h-6.937V54.6h5.273c0-.447-.091-.843-.273-1.188a2.066 2.066 0 0 0-.767-.824c-.326-.2-.709-.3-1.148-.3-.477 0-.894.117-1.25.351a2.365 2.365 0 0 0-.818.91c-.19.37-.284.774-.284 1.21v.994c0 .583.102 1.08.307 1.489.208.409.498.721.869.937.371.212.805.318 1.301.318.322 0 .616-.045.881-.136a1.824 1.824 0 0 0 1.13-1.108l1.608.29c-.128.473-.36.888-.693 1.244a3.354 3.354 0 0 1-1.244.824c-.496.193-1.063.29-1.699.29Zm8.896-.006c-.704 0-1.333-.18-1.886-.54-.549-.363-.981-.88-1.296-1.55-.31-.675-.465-1.484-.465-2.427 0-.943.157-1.75.471-2.42.318-.67.754-1.184 1.307-1.54a3.4 3.4 0 0 1 1.881-.534c.541 0 .977.09 1.306.273.334.178.591.386.773.625.186.238.33.448.432.63h.102v-4.324h1.699v11.637h-1.659v-1.358h-.142c-.102.185-.25.397-.443.636-.19.239-.451.447-.784.625-.334.178-.765.267-1.296.267Zm.375-1.449c.489 0 .902-.129 1.239-.386.341-.261.598-.623.773-1.085.178-.462.267-1 .267-1.614 0-.606-.087-1.136-.262-1.59-.174-.456-.43-.81-.767-1.063-.337-.254-.754-.381-1.25-.381-.511 0-.937.133-1.278.398-.341.265-.599.627-.773 1.085-.17.458-.256.975-.256 1.551 0 .583.088 1.108.262 1.574.174.466.432.835.773 1.108.344.269.768.403 1.272.403Zm8.516-10.358-.148 8.29h-1.574l-.147-8.29h1.869Zm-.932 11.745c-.314 0-.583-.11-.807-.33a1.08 1.08 0 0 1-.329-.807c-.004-.31.106-.575.329-.795.224-.224.493-.335.807-.335.307 0 .572.111.796.335a1.093 1.093 0 0 1 .176 1.37c-.103.17-.239.306-.409.408a1.075 1.075 0 0 1-.563.154Z" fill="#1A191E"/><rect x=".247" y="98.684" width="498.753" height="82" rx="10" fill="#F8F8F8"/><rect x="16.247" y="114.684" width="50" height="50" rx="10" fill="#5BB5A2"/><path d="M38.363 152.153c-1.272 0-2.385-.239-3.339-.716a6.019 6.019 0 0 1-2.317-2.01l-.477 2.317h-3.883v-24.529h4.36v10.05c.545-.749 1.26-1.408 2.147-1.976.908-.568 2.078-.852 3.509-.852 1.59 0 3.009.387 4.258 1.159 1.25.772 2.237 1.828 2.964 3.168.727 1.34 1.09 2.862 1.09 4.565 0 1.704-.363 3.225-1.09 4.565a8.37 8.37 0 0 1-2.964 3.135c-1.25.749-2.669 1.124-4.258 1.124Zm-.92-3.816c1.385 0 2.532-.465 3.44-1.397.91-.931 1.363-2.135 1.363-3.611 0-1.476-.454-2.691-1.362-3.645-.909-.954-2.056-1.431-3.441-1.431-1.408 0-2.567.477-3.475 1.431-.886.931-1.329 2.135-1.329 3.611 0 1.476.443 2.691 1.329 3.645.908.932 2.067 1.397 3.475 1.397ZM51.422 151.982c-.795 0-1.453-.249-1.976-.749-.5-.5-.75-1.102-.75-1.806 0-.726.25-1.34.75-1.839.523-.5 1.181-.75 1.976-.75.795 0 1.443.25 1.942.75.523.499.784 1.113.784 1.839 0 .704-.261 1.306-.784 1.806-.5.5-1.147.749-1.942.749Z" fill="#fff"/><path d="M83.604 131.684v-13.965h5.606c1.45 0 2.553.339 3.311 1.017.772.665 1.157 1.523 1.157 2.574 0 .878-.239 1.582-.718 2.114a3.502 3.502 0 0 1-1.715 1.058 3.306 3.306 0 0 1 1.975 1.197c.518.625.778 1.356.778 2.194 0 1.104-.4 2.015-1.197 2.734-.798.718-1.929 1.077-3.392 1.077h-5.805Zm2.553-8.1h2.674c.718 0 1.27-.166 1.656-.499.385-.332.578-.804.578-1.416 0-.585-.193-1.044-.578-1.377-.373-.345-.938-.518-1.696-.518h-2.634v3.81Zm0 6.025h2.853c.758 0 1.343-.173 1.756-.519.425-.359.638-.858.638-1.496 0-.652-.22-1.164-.658-1.536-.44-.372-1.03-.559-1.776-.559h-2.813v4.11Zm12.785 2.314c-.85 0-1.549-.133-2.094-.399-.546-.279-.951-.645-1.217-1.097a2.896 2.896 0 0 1-.4-1.496c0-.918.36-1.663 1.078-2.235.718-.572 1.796-.858 3.232-.858h2.514v-.239c0-.678-.193-1.177-.579-1.496-.386-.319-.864-.479-1.436-.479-.519 0-.971.126-1.357.379-.386.239-.625.599-.718 1.077h-2.494c.067-.718.306-1.343.718-1.875a4.07 4.07 0 0 1 1.636-1.217c.665-.293 1.41-.439 2.235-.439 1.41 0 2.52.353 3.331 1.058.812.704 1.217 1.702 1.217 2.992v6.085h-2.174l-.24-1.596a3.656 3.656 0 0 1-1.237 1.317c-.518.345-1.19.518-2.014.518Zm.58-1.995c.731 0 1.296-.239 1.695-.718.412-.479.671-1.071.778-1.776H99.82c-.678 0-1.163.127-1.456.38-.293.239-.439.538-.439.897 0 .386.146.685.439.898.293.213.678.319 1.157.319Zm6.925 1.756v-9.895h2.254l.2 1.675a3.492 3.492 0 0 1 1.316-1.396c.586-.346 1.27-.519 2.055-.519 1.224 0 2.175.386 2.853 1.157.678.772 1.017 1.902 1.017 3.392v5.586h-2.553v-5.347c0-.851-.173-1.503-.519-1.955-.346-.452-.884-.678-1.616-.678-.718 0-1.31.252-1.775.758-.453.505-.679 1.21-.679 2.115v5.107h-2.553Zm11.539 0V117.32h2.553v8.479l3.512-4.01h3.032l-4.05 4.508 4.708 5.387h-3.192l-4.01-4.968v4.968h-2.553Zm14.67.239c-.958 0-1.822-.219-2.593-.658a4.943 4.943 0 0 1-1.816-1.816c-.439-.784-.658-1.689-.658-2.713s.226-1.922.678-2.693a4.897 4.897 0 0 1 1.815-1.835c.772-.439 1.636-.659 2.594-.659.944 0 1.796.22 2.554.659a4.715 4.715 0 0 1 1.815 1.835c.452.771.678 1.669.678 2.693s-.226 1.929-.678 2.713a4.761 4.761 0 0 1-1.815 1.816c-.772.439-1.63.658-2.574.658Zm0-2.214c.665 0 1.244-.246 1.736-.738.492-.506.738-1.251.738-2.235s-.246-1.722-.738-2.214c-.492-.506-1.064-.758-1.716-.758-.678 0-1.264.252-1.756.758-.478.492-.718 1.23-.718 2.214s.24 1.729.718 2.235c.492.492 1.071.738 1.736.738Zm7.849 2.114c-.465 0-.851-.146-1.157-.438a1.445 1.445 0 0 1-.439-1.058c0-.425.147-.784.439-1.077.306-.293.692-.439 1.157-.439.466 0 .845.146 1.137.439.306.293.459.652.459 1.077 0 .413-.153.765-.459 1.058-.292.292-.671.438-1.137.438ZM82.628 146.047h1.994l3.04 5.29h.125l3.04-5.29h1.994l-4.222 7.069v4.568h-1.75v-4.568l-4.221-7.069ZM96.58 157.86c-.818 0-1.532-.188-2.142-.563a3.792 3.792 0 0 1-1.42-1.573c-.338-.675-.506-1.463-.506-2.364 0-.905.168-1.697.505-2.375a3.787 3.787 0 0 1 1.42-1.58c.61-.375 1.325-.562 2.143-.562.818 0 1.532.187 2.142.562.61.375 1.083.902 1.42 1.58.337.678.506 1.47.506 2.375 0 .901-.169 1.689-.506 2.364a3.788 3.788 0 0 1-1.42 1.573c-.61.375-1.324.563-2.142.563Zm.006-1.426c.53 0 .97-.14 1.318-.421a2.46 2.46 0 0 0 .772-1.119c.17-.466.256-.979.256-1.54 0-.557-.085-1.068-.256-1.534a2.5 2.5 0 0 0-.772-1.13c-.349-.285-.788-.427-1.318-.427-.535 0-.978.142-1.33.427a2.54 2.54 0 0 0-.778 1.13c-.167.466-.25.977-.25 1.534 0 .561.083 1.074.25 1.54.17.466.43.839.778 1.119.352.281.795.421 1.33.421Zm11.487-2.369v-5.108h1.704v8.727h-1.67v-1.512h-.091a2.724 2.724 0 0 1-.966 1.165c-.439.307-.987.46-1.642.46-.561 0-1.057-.123-1.489-.369-.428-.25-.765-.619-1.011-1.108-.242-.488-.364-1.093-.364-1.812v-5.551h1.699v5.346c0 .595.165 1.068.495 1.421.329.352.757.528 1.284.528.318 0 .634-.08.949-.239.318-.159.581-.399.789-.721.212-.322.317-.731.313-1.227Zm11.88 7.073c-.693 0-1.289-.091-1.789-.272-.497-.182-.902-.423-1.216-.722a3.031 3.031 0 0 1-.705-.983l1.46-.602c.103.167.239.343.41.528.174.19.409.351.704.483.299.133.684.199 1.154.199.643 0 1.176-.157 1.596-.472.421-.31.631-.806.631-1.488v-1.716h-.108c-.102.186-.25.392-.443.619a2.4 2.4 0 0 1-.784.591c-.334.167-.767.25-1.302.25-.689 0-1.31-.161-1.863-.483-.549-.326-.985-.805-1.307-1.437-.318-.637-.477-1.419-.477-2.347 0-.928.157-1.723.471-2.386.318-.663.754-1.171 1.307-1.523a3.4 3.4 0 0 1 1.881-.534c.541 0 .979.091 1.312.273.334.178.593.386.779.625.189.238.335.449.437.63h.125v-1.414h1.665v8.92c0 .75-.174 1.366-.523 1.847-.348.481-.82.837-1.415 1.068-.59.231-1.257.346-2 .346Zm-.017-4.994c.489 0 .902-.114 1.239-.341.341-.231.599-.56.773-.988.178-.432.267-.949.267-1.552 0-.587-.087-1.104-.262-1.551-.174-.447-.429-.795-.767-1.045-.337-.254-.753-.381-1.25-.381-.511 0-.937.133-1.278.398-.341.261-.598.617-.773 1.068-.17.451-.255.955-.255 1.511 0 .572.087 1.074.261 1.506.174.432.432.769.773 1.011.344.243.769.364 1.272.364Zm9.91 1.716c-.819 0-1.533-.188-2.143-.563a3.796 3.796 0 0 1-1.42-1.573c-.337-.675-.506-1.463-.506-2.364 0-.905.169-1.697.506-2.375a3.79 3.79 0 0 1 1.42-1.58c.61-.375 1.324-.562 2.143-.562.818 0 1.532.187 2.142.562a3.79 3.79 0 0 1 1.42 1.58c.337.678.506 1.47.506 2.375 0 .901-.169 1.689-.506 2.364a3.796 3.796 0 0 1-1.42 1.573c-.61.375-1.324.563-2.142.563Zm.005-1.426c.53 0 .97-.14 1.318-.421a2.46 2.46 0 0 0 .773-1.119c.171-.466.256-.979.256-1.54a4.42 4.42 0 0 0-.256-1.534 2.5 2.5 0 0 0-.773-1.13c-.348-.285-.788-.427-1.318-.427-.534 0-.977.142-1.329.427a2.541 2.541 0 0 0-.779 1.13c-.166.466-.25.977-.25 1.534 0 .561.084 1.074.25 1.54.171.466.43.839.779 1.119.352.281.795.421 1.329.421Zm10.033-7.477v1.363h-4.767v-1.363h4.767Zm-3.489-2.091h1.699v8.255c0 .33.049.578.148.745a.77.77 0 0 0 .38.335c.16.057.332.085.518.085.136 0 .255-.009.357-.028.103-.019.182-.034.239-.046l.307 1.404a2.892 2.892 0 0 1-.421.113 3.243 3.243 0 0 1-.681.068 2.978 2.978 0 0 1-1.25-.238 2.143 2.143 0 0 1-.938-.773c-.238-.348-.358-.786-.358-1.312v-8.608Zm12.142 11.011a3.557 3.557 0 0 1-1.5-.307 2.52 2.52 0 0 1-1.062-.903c-.258-.394-.387-.877-.387-1.449 0-.492.095-.898.284-1.216.19-.318.446-.57.768-.756a4.029 4.029 0 0 1 1.079-.42 10.62 10.62 0 0 1 1.216-.216l1.273-.148c.325-.041.562-.108.71-.199.148-.091.222-.238.222-.443v-.04c0-.496-.141-.88-.421-1.153-.276-.273-.689-.409-1.239-.409-.572 0-1.022.127-1.352.381-.326.25-.551.528-.676.835l-1.597-.364c.19-.53.466-.958.83-1.284.367-.329.79-.568 1.267-.716a4.96 4.96 0 0 1 1.506-.227c.348 0 .718.042 1.108.125.394.079.761.227 1.102.443.345.216.627.525.847.926.219.398.329.915.329 1.551v5.796h-1.659v-1.193h-.068c-.11.219-.275.435-.495.647a2.596 2.596 0 0 1-.846.529c-.345.14-.758.21-1.239.21Zm.37-1.364c.469 0 .871-.092 1.204-.278.337-.186.593-.428.767-.727.178-.303.267-.627.267-.972v-1.125c-.06.061-.178.118-.352.171a5.646 5.646 0 0 1-.585.13c-.22.034-.434.067-.642.097-.209.026-.383.049-.523.068a4.24 4.24 0 0 0-.903.21 1.563 1.563 0 0 0-.648.426c-.159.182-.239.425-.239.728 0 .42.155.738.466.954.311.212.707.318 1.188.318Zm12.133-4.011v5.182h-1.699v-8.727h1.631v1.42h.108c.201-.462.515-.833.943-1.114.432-.28.975-.42 1.631-.42.594 0 1.115.125 1.562.375.447.246.794.614 1.04 1.102.246.489.369 1.093.369 1.813v5.551h-1.699v-5.347c0-.632-.164-1.127-.494-1.483-.329-.36-.782-.539-1.358-.539-.394 0-.744.085-1.051.255a1.846 1.846 0 0 0-.722.75c-.174.326-.261.72-.261 1.182Zm11.625 5.358c-.86 0-1.6-.184-2.221-.551a3.731 3.731 0 0 1-1.432-1.563c-.334-.674-.5-1.464-.5-2.369 0-.894.166-1.682.5-2.364a3.883 3.883 0 0 1 1.409-1.596c.606-.383 1.314-.574 2.125-.574.492 0 .969.081 1.432.244.462.163.876.419 1.244.767.367.349.657.801.869 1.358.212.553.318 1.226.318 2.017v.603h-6.937v-1.273h5.273c0-.447-.091-.843-.273-1.188a2.072 2.072 0 0 0-.767-.824c-.326-.2-.708-.301-1.148-.301-.477 0-.894.118-1.25.353a2.364 2.364 0 0 0-.818.909 2.626 2.626 0 0 0-.284 1.21v.994c0 .584.102 1.08.307 1.489.208.409.498.721.869.937.371.213.805.319 1.301.319a2.7 2.7 0 0 0 .881-.137c.265-.094.494-.235.687-.42a1.83 1.83 0 0 0 .444-.688l1.607.29a2.892 2.892 0 0 1-.693 1.244 3.346 3.346 0 0 1-1.244.824c-.496.193-1.063.29-1.699.29Zm7.506-.176-2.568-8.727h1.755l1.711 6.409h.085l1.716-6.409h1.755l1.705 6.38h.085l1.699-6.38h1.756l-2.563 8.727h-1.733l-1.773-6.301h-.13l-1.773 6.301h-1.727Zm22.085-6.597-1.54.273a1.812 1.812 0 0 0-.307-.563 1.522 1.522 0 0 0-.556-.437c-.235-.114-.529-.17-.881-.17-.481 0-.883.107-1.205.323-.322.213-.483.487-.483.824 0 .292.108.527.324.705.216.178.565.324 1.046.437l1.386.318c.803.186 1.402.472 1.796.858.393.387.59.889.59 1.506 0 .523-.151.989-.454 1.398-.299.405-.718.723-1.256.954-.534.231-1.153.347-1.858.347-.977 0-1.774-.208-2.392-.625-.617-.42-.996-1.017-1.136-1.79l1.642-.25c.102.428.312.752.631.972.318.216.733.324 1.244.324.557 0 1.002-.116 1.335-.347.333-.235.5-.521.5-.858a.888.888 0 0 0-.307-.687c-.2-.186-.509-.326-.926-.421l-1.477-.324c-.814-.185-1.417-.481-1.807-.886-.386-.405-.579-.919-.579-1.54 0-.515.143-.966.431-1.352.288-.386.686-.688 1.194-.904.507-.219 1.089-.329 1.744-.329.943 0 1.685.204 2.227.614.542.405.9.948 1.074 1.63Zm7.567 2.978v-5.108h1.704v8.727h-1.67v-1.512h-.091a2.724 2.724 0 0 1-.966 1.165c-.439.307-.987.46-1.642.46-.561 0-1.057-.123-1.489-.369-.428-.25-.765-.619-1.011-1.108-.242-.488-.364-1.093-.364-1.812v-5.551h1.699v5.346c0 .595.165 1.068.495 1.421.329.352.757.528 1.284.528.318 0 .634-.08.949-.239.318-.159.581-.399.789-.721.212-.322.317-.731.313-1.227Zm3.987 6.892v-12h1.659v1.414h.142c.099-.181.241-.392.426-.63.186-.239.443-.447.773-.625.33-.182.765-.273 1.307-.273.704 0 1.333.178 1.886.534.553.356.987.869 1.301 1.54.318.67.478 1.477.478 2.42 0 .943-.158 1.752-.472 2.426-.314.671-.746 1.188-1.295 1.552-.55.359-1.177.539-1.881.539-.53 0-.964-.089-1.301-.267a2.445 2.445 0 0 1-.784-.625 4.656 4.656 0 0 1-.438-.636h-.102v4.631h-1.699Zm1.665-7.637c0 .614.089 1.152.267 1.614.178.462.435.824.773 1.085.337.258.75.386 1.238.386.508 0 .932-.134 1.273-.403.341-.273.598-.642.773-1.108.178-.466.267-.99.267-1.574a4.32 4.32 0 0 0-.262-1.551c-.17-.458-.428-.82-.772-1.085-.341-.265-.767-.398-1.279-.398-.492 0-.909.127-1.25.381-.337.254-.593.608-.767 1.062-.174.455-.261.985-.261 1.591Zm8.21 7.637v-12h1.659v1.414h.142c.099-.181.241-.392.426-.63.186-.239.443-.447.773-.625.33-.182.765-.273 1.307-.273.704 0 1.333.178 1.886.534.553.356.987.869 1.301 1.54.318.67.478 1.477.478 2.42 0 .943-.158 1.752-.472 2.426-.314.671-.746 1.188-1.295 1.552-.55.359-1.177.539-1.881.539-.53 0-.964-.089-1.301-.267a2.445 2.445 0 0 1-.784-.625 4.656 4.656 0 0 1-.438-.636h-.102v4.631h-1.699Zm1.665-7.637c0 .614.089 1.152.267 1.614.178.462.435.824.773 1.085.337.258.75.386 1.238.386.508 0 .932-.134 1.273-.403.341-.273.598-.642.773-1.108.178-.466.267-.99.267-1.574a4.32 4.32 0 0 0-.262-1.551c-.17-.458-.428-.82-.772-1.085-.341-.265-.767-.398-1.279-.398-.492 0-.909.127-1.25.381-.337.254-.593.608-.767 1.062-.174.455-.261.985-.261 1.591Zm11.886 4.54c-.818 0-1.532-.188-2.142-.563a3.79 3.79 0 0 1-1.42-1.573c-.337-.675-.506-1.463-.506-2.364 0-.905.169-1.697.506-2.375a3.784 3.784 0 0 1 1.42-1.58c.61-.375 1.324-.562 2.142-.562.818 0 1.532.187 2.142.562.61.375 1.084.902 1.421 1.58.337.678.505 1.47.505 2.375 0 .901-.168 1.689-.505 2.364a3.792 3.792 0 0 1-1.421 1.573c-.61.375-1.324.563-2.142.563Zm.006-1.426c.53 0 .97-.14 1.318-.421.348-.28.606-.653.773-1.119.17-.466.255-.979.255-1.54 0-.557-.085-1.068-.255-1.534a2.507 2.507 0 0 0-.773-1.13c-.348-.285-.788-.427-1.318-.427-.534 0-.977.142-1.33.427a2.54 2.54 0 0 0-.778 1.13c-.167.466-.25.977-.25 1.534 0 .561.083 1.074.25 1.54.17.466.43.839.778 1.119.353.281.796.421 1.33.421Zm5.959 1.25v-8.727h1.642v1.386h.091a2.11 2.11 0 0 1 .84-1.108 2.407 2.407 0 0 1 1.375-.409c.107 0 .232.004.375.011.148.008.264.017.347.029v1.625a3.035 3.035 0 0 0-.364-.063 3.529 3.529 0 0 0-.522-.04c-.402 0-.76.086-1.074.256a1.904 1.904 0 0 0-1.012 1.71v5.33h-1.698Zm10.73-8.727v1.363h-4.767v-1.363h4.767Zm-3.489-2.091h1.699v8.255c0 .33.049.578.148.745a.77.77 0 0 0 .38.335c.159.057.332.085.517.085.137 0 .256-.009.358-.028.103-.019.182-.034.239-.046l.307 1.404a2.892 2.892 0 0 1-.421.113 3.243 3.243 0 0 1-.681.068 2.978 2.978 0 0 1-1.25-.238 2.143 2.143 0 0 1-.938-.773c-.239-.348-.358-.786-.358-1.312v-8.608Zm9.602 10.818v-8.727h1.631v1.42h.108c.182-.481.479-.856.892-1.125.413-.273.907-.409 1.483-.409.583 0 1.072.136 1.466.409.398.273.691.648.881 1.125h.091c.208-.466.539-.837.994-1.114.454-.28.996-.42 1.625-.42.791 0 1.437.248 1.937.744.504.496.756 1.245.756 2.245v5.852h-1.699v-5.693c0-.591-.161-1.019-.483-1.284a1.751 1.751 0 0 0-1.153-.398c-.553 0-.983.17-1.29.511-.307.337-.46.771-.46 1.301v5.563h-1.693v-5.801c0-.474-.148-.854-.444-1.142-.295-.288-.68-.432-1.153-.432-.322 0-.619.085-.892.256a1.864 1.864 0 0 0-.653.698c-.163.3-.245.646-.245 1.04v5.381h-1.699Zm17.902.176c-.859 0-1.6-.184-2.221-.551a3.731 3.731 0 0 1-1.432-1.563c-.333-.674-.5-1.464-.5-2.369 0-.894.167-1.682.5-2.364a3.883 3.883 0 0 1 1.409-1.596c.606-.383 1.314-.574 2.125-.574.492 0 .97.081 1.432.244.462.163.877.419 1.244.767.368.349.657.801.869 1.358.213.553.319 1.226.319 2.017v.603h-6.938v-1.273h5.273c0-.447-.091-.843-.273-1.188a2.065 2.065 0 0 0-.767-.824c-.326-.2-.708-.301-1.148-.301-.477 0-.894.118-1.25.353a2.364 2.364 0 0 0-.818.909 2.626 2.626 0 0 0-.284 1.21v.994c0 .584.102 1.08.307 1.489.208.409.498.721.869.937.371.213.805.319 1.301.319a2.7 2.7 0 0 0 .881-.137 1.91 1.91 0 0 0 .688-.42 1.84 1.84 0 0 0 .443-.688l1.608.29c-.129.474-.36.888-.693 1.244-.33.353-.745.627-1.245.824-.496.193-1.062.29-1.699.29Zm12.169-6.773-1.539.273a1.854 1.854 0 0 0-.307-.563 1.526 1.526 0 0 0-.557-.437c-.235-.114-.528-.17-.881-.17-.481 0-.882.107-1.204.323-.322.213-.483.487-.483.824 0 .292.108.527.324.705.216.178.564.324 1.045.437l1.386.318c.804.186 1.402.472 1.796.858.394.387.591.889.591 1.506 0 .523-.152.989-.455 1.398-.299.405-.718.723-1.255.954-.534.231-1.154.347-1.858.347-.978 0-1.775-.208-2.392-.625-.618-.42-.997-1.017-1.137-1.79l1.642-.25c.103.428.313.752.631.972.318.216.733.324 1.244.324.557 0 1.002-.116 1.336-.347.333-.235.5-.521.5-.858a.891.891 0 0 0-.307-.687c-.201-.186-.51-.326-.926-.421l-1.478-.324c-.814-.185-1.416-.481-1.807-.886-.386-.405-.579-.919-.579-1.54a2.2 2.2 0 0 1 .432-1.352c.288-.386.685-.688 1.193-.904.508-.219 1.089-.329 1.744-.329.943 0 1.686.204 2.228.614.541.405.899.948 1.073 1.63Zm8.579 0-1.54.273a1.854 1.854 0 0 0-.307-.563 1.517 1.517 0 0 0-.557-.437c-.235-.114-.528-.17-.881-.17-.481 0-.882.107-1.204.323-.322.213-.483.487-.483.824 0 .292.108.527.324.705.216.178.564.324 1.045.437l1.387.318c.803.186 1.401.472 1.795.858.394.387.591.889.591 1.506 0 .523-.152.989-.455 1.398-.299.405-.717.723-1.255.954-.534.231-1.154.347-1.858.347-.977 0-1.775-.208-2.392-.625-.618-.42-.996-1.017-1.137-1.79l1.642-.25c.103.428.313.752.631.972.318.216.733.324 1.244.324.557 0 1.002-.116 1.336-.347.333-.235.5-.521.5-.858a.891.891 0 0 0-.307-.687c-.201-.186-.51-.326-.926-.421l-1.478-.324c-.814-.185-1.416-.481-1.806-.886-.387-.405-.58-.919-.58-1.54a2.2 2.2 0 0 1 .432-1.352c.288-.386.685-.688 1.193-.904.508-.219 1.089-.329 1.744-.329.944 0 1.686.204 2.228.614.541.405.899.948 1.074 1.63Zm4.578 6.79a3.557 3.557 0 0 1-1.5-.307 2.528 2.528 0 0 1-1.063-.903c-.257-.394-.386-.877-.386-1.449 0-.492.094-.898.284-1.216.189-.318.445-.57.767-.756a4.042 4.042 0 0 1 1.079-.42 10.62 10.62 0 0 1 1.216-.216l1.273-.148c.326-.041.563-.108.71-.199.148-.091.222-.238.222-.443v-.04c0-.496-.14-.88-.421-1.153-.276-.273-.689-.409-1.238-.409-.572 0-1.023.127-1.352.381-.326.25-.552.528-.677.835l-1.596-.364c.189-.53.466-.958.829-1.284.368-.329.79-.568 1.267-.716a4.97 4.97 0 0 1 1.506-.227c.349 0 .718.042 1.108.125.394.079.761.227 1.102.443.345.216.627.525.847.926.22.398.329.915.329 1.551v5.796h-1.659v-1.193h-.068c-.11.219-.274.435-.494.647-.22.213-.502.389-.847.529-.344.14-.757.21-1.238.21Zm.369-1.364c.47 0 .871-.092 1.205-.278a1.96 1.96 0 0 0 .767-.727c.178-.303.267-.627.267-.972v-1.125c-.061.061-.178.118-.353.171-.17.049-.365.092-.585.13-.22.034-.434.067-.642.097a50.3 50.3 0 0 0-.523.068 4.27 4.27 0 0 0-.903.21 1.563 1.563 0 0 0-.648.426c-.159.182-.238.425-.238.728 0 .42.155.738.465.954.311.212.707.318 1.188.318Zm9.859 4.625c-.693 0-1.289-.091-1.789-.272-.497-.182-.902-.423-1.216-.722a3.016 3.016 0 0 1-.705-.983l1.46-.602c.103.167.239.343.409.528.175.19.41.351.705.483.299.133.684.199 1.153.199.644 0 1.177-.157 1.597-.472.42-.31.631-.806.631-1.488v-1.716h-.108c-.103.186-.25.392-.443.619-.19.228-.451.424-.785.591-.333.167-.767.25-1.301.25-.689 0-1.31-.161-1.863-.483-.55-.326-.985-.805-1.307-1.437-.318-.637-.477-1.419-.477-2.347 0-.928.157-1.723.471-2.386.318-.663.754-1.171 1.307-1.523a3.4 3.4 0 0 1 1.881-.534c.541 0 .979.091 1.312.273a2.4 2.4 0 0 1 .779.625c.189.238.335.449.437.63h.125v-1.414h1.665v8.92c0 .75-.174 1.366-.523 1.847-.348.481-.82.837-1.415 1.068-.591.231-1.257.346-2 .346Zm-.017-4.994c.489 0 .902-.114 1.239-.341.341-.231.598-.56.773-.988.178-.432.267-.949.267-1.552 0-.587-.087-1.104-.262-1.551-.174-.447-.43-.795-.767-1.045-.337-.254-.754-.381-1.25-.381-.511 0-.937.133-1.278.398a2.393 2.393 0 0 0-.773 1.068c-.17.451-.256.955-.256 1.511 0 .572.088 1.074.262 1.506.174.432.432.769.773 1.011.344.243.768.364 1.272.364Zm9.995 1.716c-.86 0-1.601-.184-2.222-.551a3.738 3.738 0 0 1-1.432-1.563c-.333-.674-.5-1.464-.5-2.369 0-.894.167-1.682.5-2.364a3.883 3.883 0 0 1 1.409-1.596c.606-.383 1.315-.574 2.125-.574.493 0 .97.081 1.432.244.462.163.877.419 1.244.767.368.349.658.801.87 1.358.212.553.318 1.226.318 2.017v.603h-6.938v-1.273h5.273c0-.447-.091-.843-.273-1.188a2.058 2.058 0 0 0-.767-.824c-.325-.2-.708-.301-1.147-.301-.478 0-.894.118-1.25.353a2.366 2.366 0 0 0-.819.909 2.626 2.626 0 0 0-.284 1.21v.994c0 .584.103 1.08.307 1.489.209.409.498.721.87.937.371.213.804.319 1.301.319.322 0 .615-.046.88-.137.265-.094.495-.235.688-.42.193-.186.341-.415.443-.688l1.608.29c-.129.474-.36.888-.693 1.244-.33.353-.745.627-1.245.824-.496.193-1.062.29-1.698.29Zm7.771-11.813-.148 8.29h-1.574l-.147-8.29h1.869Zm-.932 11.745a1.11 1.11 0 0 1-.807-.33 1.08 1.08 0 0 1-.329-.807c-.004-.31.106-.575.329-.795a1.1 1.1 0 0 1 .807-.335c.307 0 .572.111.796.335a1.093 1.093 0 0 1 .176 1.369 1.178 1.178 0 0 1-.409.409 1.069 1.069 0 0 1-.563.154Z" fill="#1A191E"/><rect x=".247" y="196.644" width="498.753" height="82" rx="10" fill="#F8F8F8"/><rect x="16.247" y="212.644" width="50" height="50" rx="10" fill="#5BB5A2"/><path d="M38.363 250.113c-1.272 0-2.385-.239-3.339-.716a6.019 6.019 0 0 1-2.317-2.01l-.477 2.317h-3.883v-24.529h4.36v10.05c.545-.749 1.26-1.408 2.147-1.976.908-.568 2.078-.852 3.509-.852 1.59 0 3.009.387 4.258 1.159 1.25.772 2.237 1.828 2.964 3.168.727 1.34 1.09 2.862 1.09 4.565 0 1.704-.363 3.225-1.09 4.565a8.36 8.36 0 0 1-2.964 3.134c-1.25.75-2.669 1.125-4.258 1.125Zm-.92-3.816c1.385 0 2.532-.465 3.44-1.397.91-.931 1.363-2.135 1.363-3.611 0-1.476-.454-2.691-1.362-3.645-.909-.954-2.056-1.431-3.441-1.431-1.408 0-2.567.477-3.475 1.431-.886.931-1.329 2.135-1.329 3.611 0 1.476.443 2.691 1.329 3.645.908.932 2.067 1.397 3.475 1.397ZM51.422 249.942c-.795 0-1.453-.249-1.976-.749-.5-.5-.75-1.102-.75-1.806 0-.727.25-1.34.75-1.839.523-.5 1.181-.75 1.976-.75.795 0 1.443.25 1.942.75.523.499.784 1.112.784 1.839 0 .704-.261 1.306-.784 1.806-.5.5-1.147.749-1.942.749Z" fill="#fff"/><path d="M83.604 229.644v-13.965h5.606c1.45 0 2.553.339 3.311 1.017.772.665 1.157 1.523 1.157 2.574 0 .878-.239 1.582-.718 2.114a3.502 3.502 0 0 1-1.715 1.058 3.306 3.306 0 0 1 1.975 1.197c.518.625.778 1.356.778 2.194 0 1.104-.4 2.015-1.197 2.733-.798.719-1.929 1.078-3.392 1.078h-5.805Zm2.553-8.1h2.674c.718 0 1.27-.166 1.656-.499.385-.332.578-.804.578-1.416 0-.585-.193-1.044-.578-1.377-.373-.346-.938-.518-1.696-.518h-2.634v3.81Zm0 6.025h2.853c.758 0 1.343-.173 1.756-.519.425-.359.638-.858.638-1.496 0-.652-.22-1.164-.658-1.536-.44-.373-1.03-.559-1.776-.559h-2.813v4.11Zm12.785 2.314c-.85 0-1.549-.133-2.094-.399-.546-.279-.951-.645-1.217-1.097a2.896 2.896 0 0 1-.4-1.496c0-.918.36-1.663 1.078-2.235.718-.572 1.796-.858 3.232-.858h2.514v-.239c0-.678-.193-1.177-.579-1.496-.386-.319-.864-.479-1.436-.479-.519 0-.971.126-1.357.379-.386.239-.625.599-.718 1.077h-2.494c.067-.718.306-1.343.718-1.875a4.07 4.07 0 0 1 1.636-1.217c.665-.293 1.41-.439 2.235-.439 1.41 0 2.52.353 3.331 1.057.812.705 1.217 1.703 1.217 2.993v6.085h-2.174l-.24-1.596a3.646 3.646 0 0 1-1.237 1.316c-.518.346-1.19.519-2.014.519Zm.58-1.995c.731 0 1.296-.239 1.695-.718.412-.479.671-1.071.778-1.776H99.82c-.678 0-1.163.127-1.456.379-.293.24-.439.539-.439.898 0 .386.146.685.439.898.293.213.678.319 1.157.319Zm6.925 1.756v-9.895h2.254l.2 1.675a3.492 3.492 0 0 1 1.316-1.396c.586-.346 1.27-.519 2.055-.519 1.224 0 2.175.386 2.853 1.157.678.772 1.017 1.902 1.017 3.392v5.586h-2.553v-5.347c0-.851-.173-1.503-.519-1.955-.346-.452-.884-.678-1.616-.678-.718 0-1.31.252-1.775.758-.453.505-.679 1.21-.679 2.115v5.107h-2.553Zm11.539 0V215.28h2.553v8.479l3.512-4.01h3.032l-4.05 4.508 4.708 5.387h-3.192l-4.01-4.968v4.968h-2.553Zm14.67.239c-.958 0-1.822-.219-2.593-.658a4.943 4.943 0 0 1-1.816-1.816c-.439-.784-.658-1.689-.658-2.713s.226-1.922.678-2.693a4.907 4.907 0 0 1 1.815-1.836c.772-.438 1.636-.658 2.594-.658.944 0 1.796.22 2.554.658a4.725 4.725 0 0 1 1.815 1.836c.452.771.678 1.669.678 2.693s-.226 1.929-.678 2.713a4.761 4.761 0 0 1-1.815 1.816c-.772.439-1.63.658-2.574.658Zm0-2.214c.665 0 1.244-.246 1.736-.738.492-.506.738-1.251.738-2.235s-.246-1.722-.738-2.214c-.492-.506-1.064-.758-1.716-.758-.678 0-1.264.252-1.756.758-.478.492-.718 1.23-.718 2.214s.24 1.729.718 2.235c.492.492 1.071.738 1.736.738Zm7.849 2.114c-.465 0-.851-.146-1.157-.438a1.446 1.446 0 0 1-.439-1.058c0-.425.147-.785.439-1.077.306-.293.692-.439 1.157-.439.466 0 .845.146 1.137.439.306.292.459.652.459 1.077 0 .412-.153.765-.459 1.058-.292.292-.671.438-1.137.438ZM82.628 244.007h1.994l3.04 5.29h.125l3.04-5.29h1.994l-4.222 7.069v4.568h-1.75v-4.568l-4.221-7.069ZM96.58 255.82c-.818 0-1.532-.188-2.142-.563a3.792 3.792 0 0 1-1.42-1.573c-.338-.675-.506-1.463-.506-2.364 0-.905.168-1.697.505-2.375a3.787 3.787 0 0 1 1.42-1.58c.61-.375 1.325-.562 2.143-.562.818 0 1.532.187 2.142.562.61.375 1.083.902 1.42 1.58.337.678.506 1.47.506 2.375 0 .901-.169 1.689-.506 2.364a3.788 3.788 0 0 1-1.42 1.573c-.61.375-1.324.563-2.142.563Zm.006-1.426c.53 0 .97-.14 1.318-.421a2.46 2.46 0 0 0 .772-1.119c.17-.466.256-.979.256-1.54 0-.557-.085-1.068-.256-1.534a2.504 2.504 0 0 0-.772-1.131c-.349-.284-.788-.426-1.318-.426-.535 0-.978.142-1.33.426a2.544 2.544 0 0 0-.778 1.131c-.167.466-.25.977-.25 1.534 0 .561.083 1.074.25 1.54.17.466.43.839.778 1.119.352.281.795.421 1.33.421Zm11.487-2.37v-5.107h1.704v8.727h-1.67v-1.512h-.091a2.724 2.724 0 0 1-.966 1.165c-.439.307-.987.46-1.642.46-.561 0-1.057-.123-1.489-.369-.428-.25-.765-.619-1.011-1.108-.242-.488-.364-1.093-.364-1.812v-5.551h1.699v5.346c0 .595.165 1.068.495 1.421.329.352.757.528 1.284.528.318 0 .634-.08.949-.239.318-.159.581-.399.789-.721.212-.322.317-.731.313-1.228Zm8.221 6.893v-12h1.659v1.414h.143c.098-.182.24-.392.426-.63.185-.239.443-.447.772-.625.33-.182.766-.273 1.307-.273.705 0 1.334.178 1.887.534.553.356.986.869 1.301 1.54.318.67.477 1.477.477 2.42 0 .943-.157 1.752-.472 2.426-.314.671-.746 1.188-1.295 1.551-.549.36-1.176.54-1.881.54-.53 0-.964-.089-1.301-.267a2.456 2.456 0 0 1-.784-.625 4.73 4.73 0 0 1-.437-.636h-.103v4.631h-1.699Zm1.665-7.637c0 .614.089 1.152.267 1.614.178.462.436.824.773 1.085.337.258.75.386 1.239.386.507 0 .931-.134 1.272-.403.341-.273.599-.642.773-1.108.178-.466.267-.991.267-1.574 0-.576-.087-1.093-.261-1.551-.171-.458-.428-.82-.773-1.085-.341-.265-.767-.398-1.278-.398-.493 0-.91.127-1.25.381-.338.254-.593.608-.767 1.062-.175.455-.262.985-.262 1.591Zm10.75 4.557a3.557 3.557 0 0 1-1.5-.307 2.52 2.52 0 0 1-1.062-.903c-.258-.394-.387-.877-.387-1.449 0-.493.095-.898.284-1.216.19-.318.445-.57.767-.756a4.035 4.035 0 0 1 1.08-.42 10.62 10.62 0 0 1 1.216-.216l1.273-.148c.325-.041.562-.108.71-.199.148-.091.221-.238.221-.443v-.04c0-.496-.14-.88-.42-1.153-.277-.273-.689-.409-1.239-.409-.572 0-1.022.127-1.352.381-.326.25-.551.528-.676.835l-1.597-.364c.19-.53.466-.958.83-1.284.367-.329.79-.568 1.267-.716a4.96 4.96 0 0 1 1.506-.227c.348 0 .717.042 1.108.125.393.079.761.227 1.102.443.345.216.627.525.846.926.22.398.33.915.33 1.551v5.796h-1.659v-1.193h-.068c-.11.219-.275.435-.495.647a2.624 2.624 0 0 1-.846.529c-.345.14-.758.21-1.239.21Zm.369-1.364c.47 0 .872-.092 1.205-.278.337-.186.593-.428.767-.727.178-.303.267-.627.267-.972v-1.125c-.061.061-.178.117-.352.171a5.646 5.646 0 0 1-.585.13l-.642.097c-.209.026-.383.049-.523.068-.33.042-.631.112-.904.21a1.56 1.56 0 0 0-.647.426c-.159.182-.239.425-.239.728 0 .42.155.738.466.954.311.212.706.318 1.187.318Zm6.962 4.444a3.51 3.51 0 0 1-.693-.063 2.219 2.219 0 0 1-.466-.125l.409-1.392c.311.083.587.119.83.108a.99.99 0 0 0 .642-.273c.189-.17.356-.449.5-.835l.21-.58-3.193-8.84h1.818l2.21 6.772h.091l2.21-6.772h1.824l-3.596 9.892a3.945 3.945 0 0 1-.637 1.153 2.466 2.466 0 0 1-.92.716c-.356.159-.769.239-1.239.239Zm7.989-3.273v-8.727h1.63v1.42h.108a2.26 2.26 0 0 1 .892-1.125c.413-.273.908-.409 1.483-.409.584 0 1.072.136 1.466.409.398.273.692.648.881 1.125h.091a2.46 2.46 0 0 1 .994-1.114c.455-.28.996-.42 1.625-.42.792 0 1.438.248 1.938.744.503.496.755 1.245.755 2.245v5.852h-1.698v-5.693c0-.591-.161-1.019-.483-1.284a1.754 1.754 0 0 0-1.154-.398c-.553 0-.983.17-1.29.511-.306.337-.46.771-.46 1.301v5.563h-1.693v-5.801c0-.474-.148-.855-.443-1.142-.296-.288-.68-.432-1.154-.432-.322 0-.619.085-.892.255-.269.167-.486.4-.653.699-.163.3-.244.646-.244 1.04v5.381h-1.699Zm17.902.176c-.86 0-1.601-.184-2.222-.551a3.738 3.738 0 0 1-1.432-1.563c-.333-.674-.5-1.464-.5-2.369 0-.894.167-1.682.5-2.364a3.883 3.883 0 0 1 1.409-1.596c.606-.383 1.315-.574 2.125-.574.493 0 .97.081 1.432.244.462.163.877.419 1.245.767.367.349.657.801.869 1.358.212.553.318 1.226.318 2.017v.603h-6.937v-1.273h5.272a2.52 2.52 0 0 0-.272-1.188 2.072 2.072 0 0 0-.767-.824c-.326-.2-.709-.301-1.148-.301-.477 0-.894.118-1.25.353a2.364 2.364 0 0 0-.818.909c-.19.371-.284.774-.284 1.21v.994c0 .584.102 1.08.306 1.489.209.409.498.721.87.937.371.212.805.319 1.301.319.322 0 .615-.046.88-.137.266-.095.495-.235.688-.42.193-.186.341-.415.443-.688l1.608.29c-.129.473-.36.888-.693 1.244-.33.353-.744.627-1.244.824-.497.193-1.063.29-1.699.29Zm7.328-5.358v5.182h-1.699v-8.727h1.631v1.42h.108c.2-.462.515-.833.943-1.114.432-.28.975-.42 1.63-.42.595 0 1.116.125 1.563.375.447.246.794.614 1.04 1.102.246.489.369 1.093.369 1.813v5.551h-1.699v-5.347c0-.632-.165-1.127-.494-1.483-.33-.36-.782-.54-1.358-.54-.394 0-.744.086-1.051.256a1.846 1.846 0 0 0-.722.75c-.174.326-.261.72-.261 1.182Zm11.937-3.545v1.363h-4.767v-1.363h4.767Zm-3.488-2.091h1.699v8.255c0 .33.049.578.147.745a.78.78 0 0 0 .381.335c.159.057.331.085.517.085.136 0 .256-.009.358-.028.102-.019.182-.034.239-.046l.306 1.404a2.968 2.968 0 0 1-.42.113 3.253 3.253 0 0 1-.682.068 2.996 2.996 0 0 1-1.25-.238 2.14 2.14 0 0 1-.937-.773c-.239-.348-.358-.786-.358-1.312v-8.608Zm11.494 10.818-2.568-8.727h1.756l1.71 6.409h.085l1.716-6.409h1.756l1.704 6.38h.085l1.699-6.38h1.756l-2.563 8.727h-1.733l-1.772-6.301h-.131l-1.773 6.301h-1.727Zm13.851.193a3.557 3.557 0 0 1-1.5-.307 2.528 2.528 0 0 1-1.063-.903c-.257-.394-.386-.877-.386-1.449 0-.493.095-.898.284-1.216.19-.318.445-.57.767-.756a4.035 4.035 0 0 1 1.08-.42c.397-.095.803-.167 1.216-.216l1.272-.148c.326-.041.563-.108.711-.199.147-.091.221-.238.221-.443v-.04c0-.496-.14-.88-.42-1.153-.277-.273-.69-.409-1.239-.409-.572 0-1.023.127-1.352.381-.326.25-.551.528-.676.835l-1.597-.364c.189-.53.466-.958.83-1.284a3.367 3.367 0 0 1 1.267-.716 4.959 4.959 0 0 1 1.505-.227c.349 0 .718.042 1.108.125.394.079.762.227 1.103.443.344.216.626.525.846.926.22.398.33.915.33 1.551v5.796h-1.659v-1.193h-.069a2.398 2.398 0 0 1-.494.647c-.22.212-.502.389-.846.529-.345.14-.758.21-1.239.21Zm.369-1.364c.47 0 .871-.092 1.205-.278.337-.186.593-.428.767-.727.178-.303.267-.627.267-.972v-1.125c-.061.061-.178.117-.352.171a5.61 5.61 0 0 1-.586.13l-.642.097c-.208.026-.382.049-.522.068-.33.042-.631.112-.904.21a1.563 1.563 0 0 0-.648.426c-.159.182-.238.425-.238.728 0 .42.155.738.466.954.31.212.706.318 1.187.318Zm12.74-5.426-1.54.273a1.818 1.818 0 0 0-.306-.563 1.526 1.526 0 0 0-.557-.437c-.235-.114-.529-.171-.881-.171-.481 0-.882.108-1.204.324-.322.212-.483.487-.483.824 0 .292.108.527.324.705.215.178.564.324 1.045.437l1.386.318c.803.186 1.402.472 1.796.858.394.387.591.889.591 1.506 0 .523-.152.989-.455 1.398-.299.405-.718.723-1.256.954-.534.231-1.153.347-1.857.347-.978 0-1.775-.208-2.393-.625-.617-.421-.996-1.017-1.136-1.79l1.642-.25c.102.428.313.752.631.972.318.216.733.324 1.244.324.557 0 1.002-.116 1.335-.347.334-.235.5-.521.5-.858a.89.89 0 0 0-.306-.687c-.201-.186-.51-.326-.927-.421l-1.477-.324c-.814-.185-1.416-.481-1.807-.886-.386-.405-.579-.919-.579-1.54a2.2 2.2 0 0 1 .432-1.352c.288-.387.685-.688 1.193-.904.507-.219 1.089-.329 1.744-.329.943 0 1.686.204 2.227.614.542.405.9.948 1.074 1.63Zm9.54 6.767c-.705 0-1.333-.18-1.886-.54-.55-.363-.981-.88-1.296-1.551-.31-.674-.466-1.483-.466-2.426 0-.943.158-1.75.472-2.42.318-.671.754-1.184 1.307-1.54a3.398 3.398 0 0 1 1.88-.534c.542 0 .978.091 1.307.273.334.178.591.386.773.625.186.238.329.448.432.63h.102v-4.324h1.699v11.637h-1.659v-1.358h-.142c-.103.185-.25.398-.443.636a2.46 2.46 0 0 1-.785.625c-.333.178-.765.267-1.295.267Zm.375-1.449c.489 0 .902-.128 1.239-.386.341-.261.598-.623.772-1.085.178-.462.267-1 .267-1.614 0-.606-.087-1.136-.261-1.591-.174-.454-.43-.808-.767-1.062s-.754-.381-1.25-.381c-.511 0-.937.133-1.278.398-.341.265-.599.627-.773 1.085a4.41 4.41 0 0 0-.256 1.551c0 .583.087 1.108.262 1.574.174.466.431.835.772 1.108.345.269.769.403 1.273.403Zm10.135 1.455c-.86 0-1.6-.184-2.222-.551a3.735 3.735 0 0 1-1.431-1.563c-.334-.674-.5-1.464-.5-2.369 0-.894.166-1.682.5-2.364.337-.681.806-1.214 1.409-1.596.606-.383 1.314-.574 2.125-.574.492 0 .969.081 1.431.244.463.163.877.419 1.245.767.367.349.657.801.869 1.358.212.553.318 1.226.318 2.017v.603h-6.937v-1.273h5.273c0-.447-.091-.843-.273-1.188a2.072 2.072 0 0 0-.767-.824c-.326-.2-.709-.301-1.148-.301-.477 0-.894.118-1.25.353a2.364 2.364 0 0 0-.818.909c-.19.371-.284.774-.284 1.21v.994c0 .584.102 1.08.307 1.489.208.409.498.721.869.937.371.212.805.319 1.301.319a2.7 2.7 0 0 0 .881-.137c.265-.095.494-.235.687-.42.193-.186.341-.415.443-.688l1.608.29c-.128.473-.36.888-.693 1.244a3.346 3.346 0 0 1-1.244.824c-.496.193-1.063.29-1.699.29Zm9.305 0c-.844 0-1.572-.191-2.181-.574a3.788 3.788 0 0 1-1.398-1.597c-.326-.678-.489-1.454-.489-2.329 0-.886.167-1.669.5-2.347a3.835 3.835 0 0 1 1.409-1.596c.606-.383 1.32-.574 2.142-.574.663 0 1.254.123 1.773.369.519.243.938.584 1.256 1.023.322.439.513.953.574 1.54h-1.654a1.98 1.98 0 0 0-.625-1.057c-.322-.296-.754-.443-1.295-.443-.474 0-.889.125-1.245.375-.352.246-.626.598-.823 1.057-.197.454-.296.992-.296 1.613 0 .637.097 1.186.29 1.648.193.462.466.82.818 1.074.356.254.775.38 1.256.38.322 0 .613-.058.875-.176.265-.121.486-.293.665-.517.181-.223.308-.492.38-.807h1.654a3.215 3.215 0 0 1-.552 1.512 3.166 3.166 0 0 1-1.232 1.045c-.512.254-1.112.381-1.802.381Zm7.101-11.813v11.637h-1.699v-11.637h1.699Zm2.286 11.637v-8.727h1.699v8.727h-1.699Zm.858-10.074a1.08 1.08 0 0 1-.762-.296.96.96 0 0 1-.312-.715c0-.281.104-.519.312-.716.212-.201.466-.301.762-.301.295 0 .547.1.755.301a.942.942 0 0 1 .319.716.952.952 0 0 1-.319.715 1.06 1.06 0 0 1-.755.296Zm4.825 4.892v5.182h-1.699v-8.727h1.631v1.42h.108c.201-.462.515-.833.943-1.114.432-.28.975-.42 1.631-.42.594 0 1.115.125 1.562.375.447.246.794.614 1.04 1.102.246.489.369 1.093.369 1.813v5.551h-1.699v-5.347c0-.632-.164-1.127-.494-1.483-.33-.36-.782-.54-1.358-.54-.394 0-.744.086-1.051.256a1.846 1.846 0 0 0-.722.75c-.174.326-.261.72-.261 1.182Zm11.625 5.358c-.86 0-1.6-.184-2.222-.551a3.735 3.735 0 0 1-1.431-1.563c-.334-.674-.5-1.464-.5-2.369 0-.894.166-1.682.5-2.364.337-.681.806-1.214 1.409-1.596.606-.383 1.314-.574 2.125-.574.492 0 .969.081 1.431.244.463.163.877.419 1.245.767.367.349.657.801.869 1.358.212.553.318 1.226.318 2.017v.603h-6.937v-1.273h5.273c0-.447-.091-.843-.273-1.188a2.072 2.072 0 0 0-.767-.824c-.326-.2-.709-.301-1.148-.301-.477 0-.894.118-1.25.353a2.364 2.364 0 0 0-.818.909c-.19.371-.284.774-.284 1.21v.994c0 .584.102 1.08.307 1.489.208.409.498.721.869.937.371.212.805.319 1.301.319a2.7 2.7 0 0 0 .881-.137c.265-.095.494-.235.687-.42.193-.186.341-.415.443-.688l1.608.29c-.128.473-.36.888-.693 1.244a3.346 3.346 0 0 1-1.244.824c-.496.193-1.063.29-1.699.29Zm8.896-.006c-.704 0-1.333-.18-1.886-.54-.549-.363-.981-.88-1.296-1.551-.31-.674-.465-1.483-.465-2.426 0-.943.157-1.75.471-2.42.318-.671.754-1.184 1.307-1.54a3.4 3.4 0 0 1 1.881-.534c.541 0 .977.091 1.306.273.334.178.591.386.773.625.186.238.33.448.432.63h.102v-4.324h1.699v11.637h-1.659v-1.358h-.142c-.102.185-.25.398-.443.636-.19.239-.451.447-.784.625-.334.178-.765.267-1.296.267Zm.375-1.449c.489 0 .902-.128 1.239-.386.341-.261.598-.623.773-1.085.178-.462.267-1 .267-1.614 0-.606-.087-1.136-.262-1.591-.174-.454-.43-.808-.767-1.062s-.754-.381-1.25-.381c-.511 0-.937.133-1.278.398-.341.265-.599.627-.773 1.085-.17.458-.256.975-.256 1.551 0 .583.088 1.108.262 1.574.174.466.432.835.773 1.108.344.269.768.403 1.272.403ZM290 244.007l-.148 8.29h-1.574l-.147-8.29H290Zm-.932 11.745a1.11 1.11 0 0 1-.807-.33 1.08 1.08 0 0 1-.329-.807c-.004-.31.106-.575.329-.795a1.1 1.1 0 0 1 .807-.335c.307 0 .572.111.796.335a1.093 1.093 0 0 1 .176 1.369 1.178 1.178 0 0 1-.409.409 1.069 1.069 0 0 1-.563.154Z" fill="#1A191E"/><rect x=".247" y="294.604" width="498.753" height="82" rx="10" fill="#F8F8F8"/><rect x="16.247" y="310.604" width="50" height="50" rx="10" fill="#5BB5A2"/><path d="M38.363 348.073c-1.272 0-2.385-.239-3.339-.716a6.002 6.002 0 0 1-2.317-2.01l-.477 2.317h-3.883v-24.529h4.36v10.05c.545-.749 1.26-1.408 2.147-1.976.908-.567 2.078-.851 3.509-.851 1.59 0 3.009.386 4.258 1.158 1.25.772 2.237 1.828 2.964 3.168.727 1.34 1.09 2.862 1.09 4.565 0 1.704-.363 3.225-1.09 4.565a8.37 8.37 0 0 1-2.964 3.135c-1.25.749-2.669 1.124-4.258 1.124Zm-.92-3.816c1.385 0 2.532-.465 3.44-1.396.91-.932 1.363-2.135 1.363-3.612 0-1.476-.454-2.691-1.362-3.645-.909-.954-2.056-1.431-3.441-1.431-1.408 0-2.567.477-3.475 1.431-.886.931-1.329 2.135-1.329 3.611 0 1.477.443 2.692 1.329 3.646.908.931 2.067 1.396 3.475 1.396ZM51.422 347.903c-.795 0-1.453-.25-1.976-.75a2.46 2.46 0 0 1-.75-1.806c0-.726.25-1.34.75-1.839.523-.5 1.181-.75 1.976-.75.795 0 1.443.25 1.942.75.523.499.784 1.113.784 1.839 0 .705-.261 1.306-.784 1.806-.5.5-1.147.75-1.942.75Z" fill="#fff"/><path d="M83.604 327.604v-13.965h5.606c1.45 0 2.553.339 3.311 1.017.772.665 1.157 1.523 1.157 2.574 0 .878-.239 1.583-.718 2.115a3.507 3.507 0 0 1-1.715 1.057c.798.16 1.456.559 1.975 1.197.518.625.778 1.357.778 2.195 0 1.103-.4 2.014-1.197 2.733-.798.718-1.929 1.077-3.392 1.077h-5.805Zm2.553-8.1h2.674c.718 0 1.27-.166 1.656-.499.385-.332.578-.804.578-1.416 0-.585-.193-1.044-.578-1.377-.373-.345-.938-.518-1.696-.518h-2.634v3.81Zm0 6.025h2.853c.758 0 1.343-.173 1.756-.519.425-.359.638-.857.638-1.496 0-.651-.22-1.164-.658-1.536-.44-.372-1.03-.559-1.776-.559h-2.813v4.11Zm12.785 2.314c-.85 0-1.549-.133-2.094-.399-.546-.279-.951-.645-1.217-1.097a2.896 2.896 0 0 1-.4-1.496c0-.918.36-1.663 1.078-2.235.718-.571 1.796-.857 3.232-.857h2.514v-.24c0-.678-.193-1.177-.579-1.496-.386-.319-.864-.479-1.436-.479-.519 0-.971.127-1.357.379-.386.24-.625.599-.718 1.078h-2.494c.067-.719.306-1.344.718-1.876a4.08 4.08 0 0 1 1.636-1.217c.665-.292 1.41-.439 2.235-.439 1.41 0 2.52.353 3.331 1.058.812.705 1.217 1.702 1.217 2.992v6.085h-2.174l-.24-1.596a3.656 3.656 0 0 1-1.237 1.317c-.518.346-1.19.518-2.014.518Zm.58-1.995c.731 0 1.296-.239 1.695-.718.412-.479.671-1.07.778-1.775H99.82c-.678 0-1.163.126-1.456.379-.293.239-.439.538-.439.897 0 .386.146.685.439.898.293.213.678.319 1.157.319Zm6.925 1.756v-9.895h2.254l.2 1.676a3.488 3.488 0 0 1 1.316-1.397c.586-.346 1.27-.519 2.055-.519 1.224 0 2.175.386 2.853 1.157.678.772 1.017 1.902 1.017 3.392v5.586h-2.553v-5.347c0-.851-.173-1.503-.519-1.955-.346-.452-.884-.678-1.616-.678-.718 0-1.31.253-1.775.758-.453.505-.679 1.21-.679 2.115v5.107h-2.553Zm11.539 0V313.24h2.553v8.479l3.512-4.01h3.032l-4.05 4.508 4.708 5.387h-3.192l-4.01-4.968v4.968h-2.553Zm14.67.239c-.958 0-1.822-.219-2.593-.658a4.948 4.948 0 0 1-1.816-1.815c-.439-.785-.658-1.69-.658-2.714s.226-1.921.678-2.693a4.904 4.904 0 0 1 1.815-1.835c.772-.439 1.636-.659 2.594-.659.944 0 1.796.22 2.554.659a4.722 4.722 0 0 1 1.815 1.835c.452.772.678 1.669.678 2.693s-.226 1.929-.678 2.714a4.765 4.765 0 0 1-1.815 1.815c-.772.439-1.63.658-2.574.658Zm0-2.214c.665 0 1.244-.246 1.736-.738.492-.506.738-1.25.738-2.235 0-.984-.246-1.722-.738-2.214-.492-.505-1.064-.758-1.716-.758-.678 0-1.264.253-1.756.758-.478.492-.718 1.23-.718 2.214 0 .985.24 1.729.718 2.235.492.492 1.071.738 1.736.738Zm7.849 2.115c-.465 0-.851-.147-1.157-.439a1.445 1.445 0 0 1-.439-1.058c0-.425.147-.784.439-1.077.306-.293.692-.439 1.157-.439.466 0 .845.146 1.137.439.306.293.459.652.459 1.077 0 .413-.153.765-.459 1.058-.292.292-.671.439-1.137.439ZM83.525 353.604v-11.636h4.148c.906 0 1.656.164 2.25.494.595.33 1.04.78 1.335 1.352.296.568.444 1.209.444 1.921 0 .716-.15 1.36-.45 1.932-.295.568-.742 1.018-1.34 1.352-.595.329-1.343.494-2.245.494h-2.852v-1.489h2.693c.572 0 1.036-.098 1.392-.295.356-.201.618-.473.785-.818.166-.345.25-.737.25-1.176 0-.44-.084-.83-.25-1.171a1.792 1.792 0 0 0-.79-.801c-.356-.193-.826-.29-1.41-.29h-2.204v10.131h-1.756Zm11.797-11.636v11.636h-1.698v-11.636h1.698Zm6.047 11.812c-.86 0-1.6-.184-2.221-.551a3.738 3.738 0 0 1-1.432-1.562c-.334-.675-.5-1.465-.5-2.37 0-.894.166-1.682.5-2.363a3.885 3.885 0 0 1 1.409-1.597c.606-.383 1.314-.574 2.125-.574a4.3 4.3 0 0 1 1.432.244c.462.163.877.419 1.244.767.367.349.657.802.869 1.358.212.553.319 1.226.319 2.017v.603h-6.938v-1.273h5.273c0-.447-.091-.843-.273-1.187a2.052 2.052 0 0 0-.767-.824c-.326-.201-.708-.301-1.148-.301-.477 0-.894.117-1.25.352a2.365 2.365 0 0 0-.818.909c-.19.371-.284.774-.284 1.21v.994c0 .584.102 1.08.307 1.489.208.409.498.722.869.938.371.212.805.318 1.301.318a2.7 2.7 0 0 0 .881-.137 1.83 1.83 0 0 0 1.131-1.108l1.608.29c-.129.474-.36.888-.694 1.245a3.356 3.356 0 0 1-1.244.823c-.496.194-1.062.29-1.699.29Zm8.169.017a3.557 3.557 0 0 1-1.5-.307 2.52 2.52 0 0 1-1.062-.903c-.258-.394-.387-.877-.387-1.449 0-.492.095-.898.284-1.216.19-.318.446-.57.768-.755a3.997 3.997 0 0 1 1.079-.421 10.62 10.62 0 0 1 1.216-.216l1.273-.148c.325-.041.562-.108.71-.198.148-.091.222-.239.222-.444v-.039c0-.497-.141-.881-.421-1.154-.276-.273-.689-.409-1.239-.409-.572 0-1.022.127-1.352.381-.326.25-.551.528-.676.835l-1.597-.364c.19-.53.466-.958.83-1.284.367-.329.79-.568 1.267-.716a4.96 4.96 0 0 1 1.506-.227c.348 0 .718.042 1.108.125.394.08.761.227 1.102.443.345.216.627.525.847.926.219.398.329.915.329 1.552v5.795h-1.659v-1.193h-.068c-.11.22-.275.435-.495.648a2.611 2.611 0 0 1-.846.528c-.345.14-.758.21-1.239.21Zm.37-1.363c.469 0 .871-.093 1.204-.279.337-.185.593-.428.767-.727.178-.303.267-.627.267-.972v-1.125c-.06.061-.178.118-.352.171a5.398 5.398 0 0 1-.585.13c-.22.035-.434.067-.642.097l-.523.068a4.24 4.24 0 0 0-.903.21 1.555 1.555 0 0 0-.648.427c-.159.181-.239.424-.239.727 0 .42.155.738.466.954.311.212.707.319 1.188.319Zm12.74-5.427-1.54.273a1.838 1.838 0 0 0-.307-.562 1.52 1.52 0 0 0-.557-.438c-.235-.113-.528-.17-.88-.17-.482 0-.883.108-1.205.324-.322.212-.483.486-.483.823 0 .292.108.527.324.705.216.178.564.324 1.045.437l1.387.319c.803.185 1.401.471 1.795.858.394.386.591.888.591 1.505 0 .523-.151.989-.454 1.398-.3.405-.718.723-1.256.955-.534.231-1.154.346-1.858.346-.977 0-1.775-.208-2.392-.625-.618-.42-.996-1.017-1.136-1.79l1.642-.25c.102.428.312.752.63.972.318.216.733.324 1.245.324.556 0 1.001-.116 1.335-.347.333-.235.5-.521.5-.858a.89.89 0 0 0-.307-.687c-.201-.186-.51-.326-.926-.421l-1.477-.324c-.815-.185-1.417-.481-1.807-.886-.387-.405-.58-.918-.58-1.54a2.2 2.2 0 0 1 .432-1.352c.288-.386.686-.687 1.193-.903.508-.22 1.089-.33 1.745-.33.943 0 1.685.205 2.227.614.541.405.899.949 1.074 1.63Zm5.799 6.773c-.859 0-1.6-.184-2.221-.551a3.734 3.734 0 0 1-1.432-1.562c-.333-.675-.5-1.465-.5-2.37 0-.894.167-1.682.5-2.363a3.886 3.886 0 0 1 1.409-1.597c.606-.383 1.314-.574 2.125-.574a4.3 4.3 0 0 1 1.432.244c.462.163.877.419 1.244.767.368.349.657.802.869 1.358.213.553.319 1.226.319 2.017v.603h-6.938v-1.273h5.273c0-.447-.091-.843-.273-1.187a2.052 2.052 0 0 0-.767-.824c-.326-.201-.708-.301-1.148-.301-.477 0-.894.117-1.25.352a2.364 2.364 0 0 0-.818.909 2.626 2.626 0 0 0-.284 1.21v.994c0 .584.102 1.08.307 1.489.208.409.498.722.869.938.371.212.805.318 1.301.318a2.7 2.7 0 0 0 .881-.137c.265-.094.494-.234.688-.42a1.84 1.84 0 0 0 .443-.688l1.608.29c-.129.474-.36.888-.693 1.245-.33.352-.745.626-1.245.823-.496.194-1.062.29-1.699.29Zm17.33-8.903-3.165 8.727h-1.818l-3.171-8.727h1.824l2.211 6.716h.09l2.205-6.716h1.824Zm5.061 8.903c-.86 0-1.6-.184-2.222-.551a3.739 3.739 0 0 1-1.431-1.562c-.334-.675-.5-1.465-.5-2.37 0-.894.166-1.682.5-2.363a3.88 3.88 0 0 1 1.409-1.597c.606-.383 1.314-.574 2.125-.574.492 0 .969.082 1.431.244.463.163.877.419 1.245.767.367.349.657.802.869 1.358.212.553.318 1.226.318 2.017v.603h-6.937v-1.273h5.273c0-.447-.091-.843-.273-1.187a2.06 2.06 0 0 0-.767-.824c-.326-.201-.709-.301-1.148-.301-.477 0-.894.117-1.25.352a2.364 2.364 0 0 0-.818.909c-.19.371-.284.774-.284 1.21v.994c0 .584.102 1.08.307 1.489.208.409.498.722.869.938.371.212.805.318 1.301.318a2.7 2.7 0 0 0 .881-.137c.265-.094.494-.234.687-.42.193-.186.341-.415.443-.688l1.608.29c-.128.474-.36.888-.693 1.245a3.356 3.356 0 0 1-1.244.823c-.496.194-1.063.29-1.699.29Zm5.629-.176v-8.727h1.642v1.386h.091c.159-.47.44-.839.841-1.108a2.404 2.404 0 0 1 1.375-.409c.106 0 .231.004.375.011.148.008.263.017.347.029v1.625a3.074 3.074 0 0 0-.364-.063 3.53 3.53 0 0 0-.523-.039c-.401 0-.759.085-1.074.255a1.908 1.908 0 0 0-1.011 1.71v5.33h-1.699Zm6.141 0v-8.727h1.699v8.727h-1.699Zm.858-10.074c-.296 0-.549-.098-.762-.295a.963.963 0 0 1-.312-.716c0-.281.104-.519.312-.716a1.07 1.07 0 0 1 .762-.301c.295 0 .547.1.756.301a.94.94 0 0 1 .318.716.954.954 0 0 1-.318.716 1.062 1.062 0 0 1-.756.295Zm7.28 1.347v1.363h-4.932v-1.363h4.932Zm-3.58 8.727v-9.739c0-.545.119-.998.358-1.358a2.2 2.2 0 0 1 .949-.812 3.024 3.024 0 0 1 1.284-.273c.341 0 .633.029.875.085.242.053.422.103.54.148l-.398 1.375a7.066 7.066 0 0 0-.307-.079 1.745 1.745 0 0 0-.454-.052c-.413 0-.709.103-.887.307-.174.205-.261.5-.261.887v9.511h-1.699Zm6.406 3.273c-.253 0-.484-.021-.693-.063a2.175 2.175 0 0 1-.466-.125l.409-1.392c.311.084.587.12.83.108a.99.99 0 0 0 .642-.273c.189-.17.356-.448.5-.835l.21-.579-3.193-8.841h1.818l2.21 6.772h.091l2.211-6.772h1.823l-3.596 9.892a3.945 3.945 0 0 1-.637 1.153 2.466 2.466 0 0 1-.92.716c-.356.159-.769.239-1.239.239Zm13.297 0a3.51 3.51 0 0 1-.693-.063 2.158 2.158 0 0 1-.466-.125l.409-1.392c.311.084.587.12.83.108a.99.99 0 0 0 .642-.273c.189-.17.356-.448.5-.835l.21-.579-3.193-8.841h1.818l2.21 6.772h.091l2.21-6.772h1.824l-3.596 9.892a3.945 3.945 0 0 1-.637 1.153 2.466 2.466 0 0 1-.92.716c-.356.159-.769.239-1.239.239Zm11.368-3.097c-.818 0-1.532-.187-2.142-.562a3.792 3.792 0 0 1-1.42-1.574c-.337-.674-.506-1.462-.506-2.364 0-.905.169-1.697.506-2.375a3.781 3.781 0 0 1 1.42-1.579c.61-.375 1.324-.563 2.142-.563.818 0 1.532.188 2.142.563.61.375 1.084.901 1.421 1.579.337.678.505 1.47.505 2.375 0 .902-.168 1.69-.505 2.364a3.794 3.794 0 0 1-1.421 1.574c-.61.375-1.324.562-2.142.562Zm.006-1.426c.53 0 .97-.14 1.318-.42.348-.281.606-.654.773-1.12.17-.466.255-.979.255-1.54 0-.556-.085-1.068-.255-1.534a2.507 2.507 0 0 0-.773-1.13c-.348-.284-.788-.426-1.318-.426-.534 0-.977.142-1.33.426a2.54 2.54 0 0 0-.778 1.13 4.52 4.52 0 0 0-.25 1.534c0 .561.083 1.074.25 1.54.17.466.43.839.778 1.12.353.28.796.42 1.33.42Zm11.487-2.369v-5.108h1.705v8.727h-1.671v-1.511h-.091a2.721 2.721 0 0 1-.966 1.164c-.439.307-.986.461-1.642.461-.56 0-1.057-.123-1.488-.37-.428-.25-.766-.619-1.012-1.108-.242-.488-.363-1.092-.363-1.812v-5.551h1.698v5.346c0 .595.165 1.069.495 1.421.329.352.757.528 1.284.528.318 0 .634-.079.949-.238.318-.16.581-.4.79-.722.212-.322.316-.731.312-1.227Zm3.987 3.619v-8.727h1.642v1.386h.091c.159-.47.44-.839.841-1.108a2.404 2.404 0 0 1 1.375-.409c.106 0 .231.004.375.011.148.008.263.017.347.029v1.625a3.074 3.074 0 0 0-.364-.063 3.53 3.53 0 0 0-.523-.039c-.401 0-.759.085-1.074.255a1.908 1.908 0 0 0-1.011 1.71v5.33h-1.699Zm10.375 3.273v-12h1.659v1.415h.142c.099-.182.241-.393.427-.631.185-.239.443-.447.772-.625.33-.182.765-.273 1.307-.273.705 0 1.333.178 1.886.534.553.356.987.87 1.302 1.54.318.67.477 1.477.477 2.42 0 .944-.157 1.752-.472 2.427-.314.67-.746 1.187-1.295 1.551-.549.36-1.176.539-1.881.539-.53 0-.964-.089-1.301-.267a2.456 2.456 0 0 1-.784-.625 4.685 4.685 0 0 1-.438-.636h-.102v4.631h-1.699Zm1.665-7.637c0 .614.089 1.152.267 1.614.178.462.436.824.773 1.085.337.258.75.387 1.238.387.508 0 .932-.135 1.273-.404.341-.273.599-.642.773-1.108.178-.466.267-.99.267-1.574a4.35 4.35 0 0 0-.261-1.551c-.171-.458-.428-.82-.773-1.085-.341-.265-.767-.398-1.279-.398-.492 0-.909.127-1.25.381-.337.254-.592.608-.767 1.062-.174.455-.261.985-.261 1.591Zm10.75 4.557a3.557 3.557 0 0 1-1.5-.307 2.52 2.52 0 0 1-1.062-.903c-.258-.394-.387-.877-.387-1.449 0-.492.095-.898.284-1.216.19-.318.445-.57.767-.755a4.004 4.004 0 0 1 1.08-.421 10.62 10.62 0 0 1 1.216-.216l1.272-.148c.326-.041.563-.108.711-.198.147-.091.221-.239.221-.444v-.039c0-.497-.14-.881-.42-1.154-.277-.273-.69-.409-1.239-.409-.572 0-1.023.127-1.352.381-.326.25-.551.528-.676.835l-1.597-.364c.19-.53.466-.958.83-1.284.367-.329.79-.568 1.267-.716a4.959 4.959 0 0 1 1.505-.227c.349 0 .718.042 1.108.125.394.08.762.227 1.103.443.344.216.627.525.846.926.22.398.33.915.33 1.552v5.795h-1.659v-1.193h-.068c-.11.22-.275.435-.495.648a2.622 2.622 0 0 1-.846.528c-.345.14-.758.21-1.239.21Zm.369-1.363c.47 0 .872-.093 1.205-.279.337-.185.593-.428.767-.727.178-.303.267-.627.267-.972v-1.125c-.061.061-.178.118-.352.171a5.366 5.366 0 0 1-.586.13c-.219.035-.433.067-.642.097l-.522.068c-.33.042-.631.112-.904.21a1.545 1.545 0 0 0-.647.427c-.16.181-.239.424-.239.727 0 .42.155.738.466.954.31.212.706.319 1.187.319Zm6.962 4.443a3.51 3.51 0 0 1-.693-.063 2.142 2.142 0 0 1-.466-.125l.409-1.392c.311.084.587.12.83.108a.99.99 0 0 0 .642-.273c.189-.17.356-.448.5-.835l.21-.579-3.193-8.841h1.818l2.21 6.772h.091l2.21-6.772h1.824l-3.597 9.892a3.92 3.92 0 0 1-.636 1.153 2.474 2.474 0 0 1-.92.716c-.356.159-.769.239-1.239.239Zm7.989-3.273v-8.727h1.63v1.42h.108c.182-.481.479-.856.892-1.125.413-.273.907-.409 1.483-.409.584 0 1.072.136 1.466.409.398.273.691.648.881 1.125h.091c.208-.466.54-.837.994-1.113.455-.281.996-.421 1.625-.421.792 0 1.438.248 1.938.744.503.497.755 1.245.755 2.245v5.852h-1.699v-5.693c0-.591-.161-1.019-.483-1.284a1.757 1.757 0 0 0-1.153-.398c-.553 0-.983.17-1.29.511-.307.337-.46.771-.46 1.302v5.562h-1.693v-5.801c0-.474-.148-.854-.443-1.142-.296-.288-.68-.432-1.154-.432-.322 0-.619.085-.892.256a1.86 1.86 0 0 0-.653.699 2.136 2.136 0 0 0-.245 1.039v5.381h-1.698Zm17.902.176c-.86 0-1.601-.184-2.222-.551a3.74 3.74 0 0 1-1.432-1.562c-.333-.675-.5-1.465-.5-2.37 0-.894.167-1.682.5-2.363a3.886 3.886 0 0 1 1.409-1.597c.606-.383 1.315-.574 2.125-.574.493 0 .97.082 1.432.244.462.163.877.419 1.244.767.368.349.658.802.87 1.358.212.553.318 1.226.318 2.017v.603h-6.938v-1.273h5.273c0-.447-.091-.843-.273-1.187a2.045 2.045 0 0 0-.767-.824c-.325-.201-.708-.301-1.147-.301-.478 0-.894.117-1.25.352a2.366 2.366 0 0 0-.819.909 2.626 2.626 0 0 0-.284 1.21v.994c0 .584.103 1.08.307 1.489.209.409.498.722.87.938.371.212.804.318 1.301.318.322 0 .615-.046.88-.137.265-.094.495-.234.688-.42.193-.186.341-.415.443-.688l1.608.29c-.129.474-.36.888-.693 1.245-.33.352-.745.626-1.245.823-.496.194-1.062.29-1.698.29Zm7.328-5.358v5.182h-1.699v-8.727h1.631v1.42h.108c.2-.462.515-.833.943-1.113.432-.281.975-.421 1.63-.421.595 0 1.116.125 1.563.375.447.246.793.614 1.04 1.102.246.489.369 1.093.369 1.813v5.551h-1.699v-5.347c0-.632-.165-1.126-.494-1.483-.33-.359-.782-.539-1.358-.539-.394 0-.744.085-1.051.255a1.846 1.846 0 0 0-.722.75c-.174.326-.261.72-.261 1.182Zm11.937-3.545v1.363h-4.767v-1.363h4.767Zm-3.488-2.091h1.698v8.256c0 .329.05.577.148.744a.776.776 0 0 0 .381.335c.159.057.331.085.517.085.136 0 .256-.009.358-.028.102-.019.182-.034.239-.046l.306 1.404a2.718 2.718 0 0 1-.42.113 3.314 3.314 0 0 1-.682.069 2.994 2.994 0 0 1-1.25-.239 2.14 2.14 0 0 1-.937-.773c-.239-.348-.358-.786-.358-1.312v-8.608Zm13.278 10.994c-.818 0-1.532-.187-2.142-.562a3.792 3.792 0 0 1-1.42-1.574c-.338-.674-.506-1.462-.506-2.364 0-.905.168-1.697.506-2.375a3.781 3.781 0 0 1 1.42-1.579c.61-.375 1.324-.563 2.142-.563.818 0 1.532.188 2.142.563a3.79 3.79 0 0 1 1.421 1.579c.337.678.505 1.47.505 2.375 0 .902-.168 1.69-.505 2.364a3.8 3.8 0 0 1-1.421 1.574c-.61.375-1.324.562-2.142.562Zm.006-1.426c.53 0 .969-.14 1.318-.42.348-.281.606-.654.773-1.12.17-.466.255-.979.255-1.54 0-.556-.085-1.068-.255-1.534a2.507 2.507 0 0 0-.773-1.13c-.349-.284-.788-.426-1.318-.426-.534 0-.978.142-1.33.426a2.54 2.54 0 0 0-.778 1.13 4.52 4.52 0 0 0-.25 1.534c0 .561.083 1.074.25 1.54.17.466.43.839.778 1.12.352.28.796.42 1.33.42Zm10.112-7.477v1.363h-4.932v-1.363h4.932Zm-3.58 8.727v-9.739c0-.545.12-.998.358-1.358a2.2 2.2 0 0 1 .949-.812 3.024 3.024 0 0 1 1.284-.273c.341 0 .633.029.875.085.243.053.423.103.54.148l-.398 1.375a7.066 7.066 0 0 0-.307-.079 1.745 1.745 0 0 0-.454-.052c-.413 0-.708.103-.886.307-.175.205-.262.5-.262.887v9.511h-1.699Zm13.414-11.795c.519.003 1.03.098 1.534.284.504.185.958.488 1.363.909.41.42.735.988.978 1.704.246.712.371 1.599.375 2.659 0 1.019-.103 1.927-.307 2.722-.205.792-.498 1.46-.881 2.006a3.86 3.86 0 0 1-1.38 1.244c-.542.284-1.152.426-1.83.426-.693 0-1.309-.136-1.847-.409a3.525 3.525 0 0 1-1.312-1.131 3.747 3.747 0 0 1-.631-1.67h1.733c.114.5.345.905.693 1.216.353.307.807.46 1.364.46.852 0 1.517-.371 1.994-1.114.478-.746.718-1.788.722-3.125h-.091a3.133 3.133 0 0 1-.739.841 3.314 3.314 0 0 1-.983.546 3.455 3.455 0 0 1-1.164.193 3.492 3.492 0 0 1-1.83-.494 3.649 3.649 0 0 1-1.312-1.358c-.326-.576-.489-1.233-.489-1.972 0-.735.167-1.401.5-2a3.73 3.73 0 0 1 1.409-1.42c.606-.353 1.316-.525 2.131-.517Zm.005 1.477c-.443 0-.842.11-1.198.329-.353.216-.631.51-.836.881a2.486 2.486 0 0 0-.307 1.227c0 .451.099.86.296 1.228.201.363.473.653.818.869a2.25 2.25 0 0 0 1.193.318c.334 0 .644-.064.932-.193.288-.129.54-.307.756-.534.216-.231.384-.493.505-.784.122-.292.182-.599.182-.921a2.41 2.41 0 0 0-.307-1.193 2.383 2.383 0 0 0-.829-.886 2.168 2.168 0 0 0-1.205-.341Zm10.167-1.477c.519.003 1.03.098 1.534.284.503.185.958.488 1.363.909.409.42.735.988.978 1.704.246.712.371 1.599.375 2.659 0 1.019-.103 1.927-.307 2.722-.205.792-.498 1.46-.881 2.006-.379.545-.839.96-1.381 1.244-.541.284-1.151.426-1.829.426-.693 0-1.309-.136-1.847-.409a3.517 3.517 0 0 1-1.312-1.131 3.735 3.735 0 0 1-.631-1.67h1.733c.114.5.345.905.693 1.216.352.307.807.46 1.364.46.852 0 1.517-.371 1.994-1.114.477-.746.718-1.788.722-3.125h-.091a3.133 3.133 0 0 1-.739.841 3.314 3.314 0 0 1-.983.546 3.456 3.456 0 0 1-1.165.193c-.67 0-1.28-.165-1.829-.494a3.66 3.66 0 0 1-1.313-1.358c-.325-.576-.488-1.233-.488-1.972 0-.735.166-1.401.5-2a3.73 3.73 0 0 1 1.409-1.42c.606-.353 1.316-.525 2.131-.517Zm.005 1.477c-.443 0-.843.11-1.199.329-.352.216-.63.51-.835.881a2.486 2.486 0 0 0-.307 1.227c0 .451.099.86.296 1.228.201.363.473.653.818.869.348.212.746.318 1.193.318.334 0 .644-.064.932-.193.288-.129.54-.307.756-.534.216-.231.384-.493.505-.784.122-.292.182-.599.182-.921a2.41 2.41 0 0 0-.307-1.193 2.383 2.383 0 0 0-.829-.886 2.168 2.168 0 0 0-1.205-.341Zm13.615 2.761-.539 1.171h-7.472l.426-1.171h7.585Zm-1.017 2.307-.551 1.182h-6.443l.426-1.182h6.568Zm2.404-5.392-.671 1.437a4.943 4.943 0 0 0-.693-.494 3.647 3.647 0 0 0-.807-.352 3.054 3.054 0 0 0-.926-.136c-.606 0-1.146.162-1.619.488-.474.326-.847.815-1.12 1.466-.268.648-.403 1.455-.403 2.421 0 .965.135 1.772.403 2.42.273.648.646 1.134 1.12 1.46a2.81 2.81 0 0 0 1.619.483c.333 0 .644-.043.932-.131.292-.087.557-.2.795-.34a5.18 5.18 0 0 0 .654-.455l.687 1.432a4.063 4.063 0 0 1-1.397.824 5.043 5.043 0 0 1-1.671.278c-.951 0-1.793-.24-2.528-.721-.731-.482-1.305-1.167-1.722-2.057-.417-.894-.625-1.959-.625-3.193 0-1.239.208-2.305.625-3.199.417-.894.991-1.582 1.722-2.063.735-.481 1.577-.721 2.528-.721.606 0 1.171.1 1.693.301.523.197.991.481 1.404.852Zm4.21-.994-.148 8.289h-1.574l-.147-8.289h1.869Zm-.932 11.744a1.11 1.11 0 0 1-.807-.33 1.079 1.079 0 0 1-.329-.806 1.057 1.057 0 0 1 .329-.796c.224-.223.493-.335.807-.335.307 0 .572.112.796.335a1.094 1.094 0 0 1 .176 1.369 1.189 1.189 0 0 1-.409.41 1.077 1.077 0 0 1-.563.153Z" fill="#1A191E"/><rect x=".247" y="392.564" width="498.753" height="82" rx="10" fill="#F8F8F8"/><rect x="16.247" y="408.564" width="50" height="50" rx="10" fill="#5BB5A2"/><path d="M38.363 446.033c-1.272 0-2.385-.239-3.339-.716a6.019 6.019 0 0 1-2.317-2.01l-.477 2.317h-3.883v-24.529h4.36v10.05c.545-.749 1.26-1.408 2.147-1.976.908-.568 2.078-.851 3.509-.851 1.59 0 3.009.386 4.258 1.158 1.25.772 2.237 1.828 2.964 3.168.727 1.34 1.09 2.862 1.09 4.565 0 1.704-.363 3.225-1.09 4.565a8.37 8.37 0 0 1-2.964 3.135c-1.25.749-2.669 1.124-4.258 1.124Zm-.92-3.816c1.385 0 2.532-.465 3.44-1.397.91-.931 1.363-2.134 1.363-3.611 0-1.476-.454-2.691-1.362-3.645-.909-.954-2.056-1.431-3.441-1.431-1.408 0-2.567.477-3.475 1.431-.886.931-1.329 2.135-1.329 3.611 0 1.477.443 2.692 1.329 3.645.908.932 2.067 1.397 3.475 1.397ZM51.422 445.863c-.795 0-1.453-.25-1.976-.75a2.46 2.46 0 0 1-.75-1.806c0-.726.25-1.34.75-1.839.523-.5 1.181-.75 1.976-.75.795 0 1.443.25 1.942.75.523.499.784 1.113.784 1.839 0 .705-.261 1.306-.784 1.806-.5.5-1.147.75-1.942.75Z" fill="#fff"/><path d="M83.604 425.564v-13.965h5.606c1.45 0 2.553.339 3.311 1.017.772.665 1.157 1.523 1.157 2.574 0 .878-.239 1.583-.718 2.115a3.507 3.507 0 0 1-1.715 1.057c.798.16 1.456.559 1.975 1.197.518.625.778 1.357.778 2.194 0 1.104-.4 2.015-1.197 2.734-.798.718-1.929 1.077-3.392 1.077h-5.805Zm2.553-8.1h2.674c.718 0 1.27-.166 1.656-.499.385-.332.578-.804.578-1.416 0-.585-.193-1.044-.578-1.377-.373-.345-.938-.518-1.696-.518h-2.634v3.81Zm0 6.025h2.853c.758 0 1.343-.173 1.756-.519.425-.359.638-.857.638-1.496 0-.652-.22-1.164-.658-1.536-.44-.372-1.03-.559-1.776-.559h-2.813v4.11Zm12.785 2.314c-.85 0-1.549-.133-2.094-.399-.546-.279-.951-.645-1.217-1.097a2.896 2.896 0 0 1-.4-1.496c0-.918.36-1.663 1.078-2.235.718-.571 1.796-.857 3.232-.857h2.514v-.24c0-.678-.193-1.177-.579-1.496-.386-.319-.864-.479-1.436-.479-.519 0-.971.126-1.357.379-.386.24-.625.599-.718 1.077h-2.494c.067-.718.306-1.343.718-1.875a4.08 4.08 0 0 1 1.636-1.217c.665-.292 1.41-.439 2.235-.439 1.41 0 2.52.353 3.331 1.058.812.705 1.217 1.702 1.217 2.992v6.085h-2.174l-.24-1.596a3.656 3.656 0 0 1-1.237 1.317c-.518.345-1.19.518-2.014.518Zm.58-1.995c.731 0 1.296-.239 1.695-.718.412-.479.671-1.071.778-1.775H99.82c-.678 0-1.163.126-1.456.379-.293.239-.439.538-.439.897 0 .386.146.685.439.898.293.213.678.319 1.157.319Zm6.925 1.756v-9.895h2.254l.2 1.676a3.488 3.488 0 0 1 1.316-1.397c.586-.346 1.27-.519 2.055-.519 1.224 0 2.175.386 2.853 1.157.678.772 1.017 1.902 1.017 3.392v5.586h-2.553v-5.347c0-.851-.173-1.503-.519-1.955-.346-.452-.884-.678-1.616-.678-.718 0-1.31.253-1.775.758-.453.505-.679 1.21-.679 2.115v5.107h-2.553Zm11.539 0V411.2h2.553v8.479l3.512-4.01h3.032l-4.05 4.508 4.708 5.387h-3.192l-4.01-4.968v4.968h-2.553Zm14.67.239c-.958 0-1.822-.219-2.593-.658a4.948 4.948 0 0 1-1.816-1.815c-.439-.785-.658-1.69-.658-2.714s.226-1.922.678-2.693a4.904 4.904 0 0 1 1.815-1.835c.772-.439 1.636-.659 2.594-.659.944 0 1.796.22 2.554.659a4.722 4.722 0 0 1 1.815 1.835c.452.771.678 1.669.678 2.693s-.226 1.929-.678 2.714a4.765 4.765 0 0 1-1.815 1.815c-.772.439-1.63.658-2.574.658Zm0-2.214c.665 0 1.244-.246 1.736-.738.492-.506.738-1.25.738-2.235 0-.984-.246-1.722-.738-2.214-.492-.506-1.064-.758-1.716-.758-.678 0-1.264.252-1.756.758-.478.492-.718 1.23-.718 2.214 0 .985.24 1.729.718 2.235.492.492 1.071.738 1.736.738Zm7.849 2.115c-.465 0-.851-.147-1.157-.439a1.445 1.445 0 0 1-.439-1.058c0-.425.147-.784.439-1.077.306-.293.692-.439 1.157-.439.466 0 .845.146 1.137.439.306.293.459.652.459 1.077 0 .413-.153.765-.459 1.058-.292.292-.671.439-1.137.439ZM92.918 439.928v11.636h-1.614l-5.915-8.534h-.108v8.534h-1.756v-11.636h1.625l5.92 8.545h.109v-8.545h1.739Zm6.186 11.812c-.86 0-1.6-.184-2.222-.551a3.735 3.735 0 0 1-1.432-1.563c-.333-.674-.5-1.464-.5-2.369 0-.894.167-1.682.5-2.363.337-.682.807-1.215 1.41-1.597.605-.383 1.314-.574 2.124-.574.493 0 .97.081 1.432.244.462.163.877.419 1.244.767.368.349.658.802.87 1.358.212.553.318 1.226.318 2.017v.603H95.91v-1.273h5.273c0-.447-.091-.843-.273-1.188a2.05 2.05 0 0 0-.767-.823c-.325-.201-.708-.302-1.147-.302-.478 0-.894.118-1.25.353a2.363 2.363 0 0 0-.819.909c-.189.371-.284.774-.284 1.21v.994c0 .584.103 1.08.307 1.489.209.409.498.722.87.938.37.212.804.318 1.3.318.323 0 .616-.046.881-.137.265-.094.495-.235.688-.42.193-.186.341-.415.443-.688l1.608.29c-.129.474-.36.888-.693 1.244-.33.353-.745.627-1.245.824-.496.194-1.062.29-1.698.29Zm7.505-.176-2.568-8.727h1.756l1.71 6.409h.085l1.716-6.409h1.756l1.704 6.38h.086l1.698-6.38h1.756l-2.562 8.727h-1.733l-1.773-6.301h-.131l-1.772 6.301h-1.728Zm18.086.193a3.55 3.55 0 0 1-1.5-.307 2.522 2.522 0 0 1-1.063-.903c-.258-.394-.386-.877-.386-1.449 0-.492.094-.898.284-1.216.189-.318.445-.57.767-.756a4.042 4.042 0 0 1 1.079-.42 10.62 10.62 0 0 1 1.216-.216l1.273-.148c.326-.041.562-.108.71-.198.148-.091.222-.239.222-.444v-.039c0-.497-.14-.881-.421-1.154-.276-.273-.689-.409-1.238-.409-.572 0-1.023.127-1.353.381-.325.25-.551.528-.676.835l-1.596-.364c.189-.53.466-.958.829-1.284.368-.329.79-.568 1.267-.716a4.965 4.965 0 0 1 1.506-.227c.348 0 .718.042 1.108.125.394.08.761.227 1.102.443.345.216.627.525.847.926.219.398.329.915.329 1.552v5.795h-1.659v-1.193h-.068a2.46 2.46 0 0 1-.494.648c-.22.212-.502.388-.847.528s-.757.21-1.238.21Zm.369-1.363c.47 0 .871-.093 1.204-.279.337-.186.593-.428.767-.727.178-.303.267-.627.267-.972v-1.125c-.06.061-.178.118-.352.171-.17.049-.365.092-.585.13-.22.034-.434.067-.642.097a50.3 50.3 0 0 0-.523.068 4.27 4.27 0 0 0-.903.21 1.555 1.555 0 0 0-.648.427c-.159.181-.239.424-.239.727 0 .42.156.738.466.954.311.212.707.319 1.188.319Zm9.876 1.346c-.844 0-1.572-.191-2.182-.574a3.79 3.79 0 0 1-1.397-1.596c-.326-.678-.489-1.455-.489-2.33 0-.886.167-1.668.5-2.346a3.825 3.825 0 0 1 1.409-1.597c.606-.383 1.32-.574 2.142-.574.663 0 1.254.123 1.773.369.519.243.937.584 1.256 1.023.322.439.513.953.573 1.54h-1.653a1.983 1.983 0 0 0-.625-1.057c-.322-.295-.754-.443-1.295-.443-.474 0-.889.125-1.245.375-.352.246-.627.598-.824 1.057-.197.454-.295.992-.295 1.613 0 .637.097 1.186.29 1.648.193.462.466.82.818 1.074.356.254.775.381 1.256.381.322 0 .613-.059.875-.177.265-.121.486-.293.664-.517a1.94 1.94 0 0 0 .381-.806h1.653a3.203 3.203 0 0 1-.551 1.511 3.154 3.154 0 0 1-1.233 1.045c-.511.254-1.111.381-1.801.381Zm9.078 0c-.844 0-1.572-.191-2.181-.574a3.791 3.791 0 0 1-1.398-1.596c-.326-.678-.489-1.455-.489-2.33 0-.886.167-1.668.5-2.346a3.831 3.831 0 0 1 1.409-1.597c.606-.383 1.32-.574 2.142-.574.663 0 1.254.123 1.773.369.519.243.938.584 1.256 1.023.322.439.513.953.574 1.54h-1.654a1.983 1.983 0 0 0-.625-1.057c-.322-.295-.754-.443-1.295-.443-.474 0-.889.125-1.245.375-.352.246-.626.598-.823 1.057-.197.454-.296.992-.296 1.613 0 .637.097 1.186.29 1.648.193.462.466.82.818 1.074.356.254.775.381 1.256.381.322 0 .613-.059.875-.177.265-.121.486-.293.665-.517a1.95 1.95 0 0 0 .38-.806h1.654a3.215 3.215 0 0 1-.552 1.511 3.158 3.158 0 0 1-1.232 1.045c-.512.254-1.112.381-1.802.381Zm9.079 0c-.819 0-1.533-.187-2.143-.562a3.799 3.799 0 0 1-1.42-1.574c-.337-.675-.506-1.462-.506-2.364 0-.905.169-1.697.506-2.375a3.788 3.788 0 0 1 1.42-1.579c.61-.375 1.324-.563 2.143-.563.818 0 1.532.188 2.142.563a3.788 3.788 0 0 1 1.42 1.579c.337.678.506 1.47.506 2.375 0 .902-.169 1.689-.506 2.364a3.799 3.799 0 0 1-1.42 1.574c-.61.375-1.324.562-2.142.562Zm.005-1.426c.53 0 .97-.14 1.318-.42.349-.281.606-.654.773-1.12.171-.466.256-.979.256-1.54 0-.556-.085-1.068-.256-1.534a2.5 2.5 0 0 0-.773-1.13c-.348-.284-.788-.426-1.318-.426-.534 0-.977.142-1.329.426a2.541 2.541 0 0 0-.779 1.13c-.166.466-.25.978-.25 1.534 0 .561.084 1.074.25 1.54.171.466.43.839.779 1.12.352.28.795.42 1.329.42Zm11.487-2.369v-5.108h1.705v8.727h-1.671v-1.511h-.09a2.721 2.721 0 0 1-.966 1.164c-.44.307-.987.461-1.642.461-.561 0-1.057-.124-1.489-.37-.428-.25-.765-.619-1.011-1.108-.243-.488-.364-1.092-.364-1.812v-5.551h1.699v5.346c0 .595.165 1.068.494 1.421.33.352.758.528 1.284.528.318 0 .635-.079.949-.238.318-.16.582-.4.79-.722.212-.322.316-.731.312-1.227Zm5.686-1.563v5.182h-1.698v-8.727h1.63v1.42h.108c.201-.462.515-.833.943-1.113.432-.281.976-.421 1.631-.421.595 0 1.116.125 1.563.375.447.246.793.614 1.039 1.102.247.489.37 1.093.37 1.813v5.551h-1.699v-5.347c0-.632-.165-1.127-.494-1.483-.33-.359-.783-.539-1.358-.539-.394 0-.745.085-1.052.255a1.844 1.844 0 0 0-.721.75c-.174.326-.262.72-.262 1.182Zm11.938-3.545v1.363h-4.767v-1.363h4.767Zm-3.489-2.091h1.699v8.255c0 .33.049.578.148.745a.767.767 0 0 0 .381.335c.159.057.331.085.517.085.136 0 .255-.009.358-.028l.238-.046.307 1.404a2.75 2.75 0 0 1-.42.113 3.314 3.314 0 0 1-.682.069 2.994 2.994 0 0 1-1.25-.239 2.143 2.143 0 0 1-.938-.773c-.238-.348-.358-.786-.358-1.312v-8.608Zm16.142 4.221-1.539.273a1.838 1.838 0 0 0-.307-.562 1.528 1.528 0 0 0-.557-.438c-.235-.114-.528-.17-.881-.17-.481 0-.882.108-1.204.324-.322.212-.483.486-.483.823 0 .292.108.527.324.705.216.178.564.324 1.045.437l1.386.319c.804.185 1.402.471 1.796.858.394.386.591.888.591 1.505 0 .523-.152.989-.455 1.398-.299.405-.718.723-1.255.955-.534.231-1.154.346-1.858.346-.978 0-1.775-.208-2.392-.625-.618-.42-.997-1.017-1.137-1.79l1.642-.25c.103.428.313.752.631.972.318.216.733.324 1.244.324.557 0 1.002-.116 1.336-.347.333-.235.5-.521.5-.858a.893.893 0 0 0-.307-.687c-.201-.186-.51-.326-.926-.421l-1.478-.324c-.814-.185-1.416-.481-1.807-.886-.386-.405-.579-.919-.579-1.54a2.2 2.2 0 0 1 .432-1.352c.288-.386.685-.687 1.193-.903.508-.22 1.089-.33 1.744-.33.943 0 1.686.205 2.228.614.541.405.899.949 1.073 1.63Zm6.113-2.13v1.363h-4.767v-1.363h4.767Zm-3.489-2.091h1.699v8.255c0 .33.049.578.148.745a.77.77 0 0 0 .38.335c.159.057.332.085.517.085.137 0 .256-.009.358-.028.103-.019.182-.034.239-.046l.307 1.404a2.768 2.768 0 0 1-.421.113 3.314 3.314 0 0 1-.682.069 2.997 2.997 0 0 1-1.25-.239 2.146 2.146 0 0 1-.937-.773c-.239-.348-.358-.786-.358-1.312v-8.608Zm7.908 11.011a3.557 3.557 0 0 1-1.5-.307 2.528 2.528 0 0 1-1.063-.903c-.257-.394-.386-.877-.386-1.449 0-.492.094-.898.284-1.216.189-.318.445-.57.767-.756a4.042 4.042 0 0 1 1.079-.42 10.62 10.62 0 0 1 1.216-.216l1.273-.148c.326-.041.563-.108.71-.198.148-.091.222-.239.222-.444v-.039c0-.497-.14-.881-.421-1.154-.276-.273-.689-.409-1.238-.409-.572 0-1.023.127-1.352.381-.326.25-.552.528-.677.835l-1.596-.364c.189-.53.466-.958.829-1.284.368-.329.79-.568 1.267-.716a4.97 4.97 0 0 1 1.506-.227c.349 0 .718.042 1.108.125.394.08.761.227 1.102.443.345.216.627.525.847.926.22.398.329.915.329 1.552v5.795h-1.659v-1.193h-.068c-.11.219-.274.435-.494.648-.22.212-.502.388-.847.528-.344.14-.757.21-1.238.21Zm.369-1.363c.47 0 .871-.093 1.205-.279a1.96 1.96 0 0 0 .767-.727c.178-.303.267-.627.267-.972v-1.125c-.061.061-.178.118-.353.171-.17.049-.365.092-.585.13-.22.034-.434.067-.642.097a50.3 50.3 0 0 0-.523.068 4.27 4.27 0 0 0-.903.21 1.555 1.555 0 0 0-.648.427c-.159.181-.238.424-.238.727 0 .42.155.738.465.954.311.212.707.319 1.188.319Zm10.274-7.557v1.363h-4.767v-1.363h4.767Zm-3.489-2.091h1.699v8.255c0 .33.05.578.148.745a.772.772 0 0 0 .381.335c.159.057.331.085.517.085.136 0 .255-.009.358-.028.102-.019.182-.034.238-.046l.307 1.404a2.718 2.718 0 0 1-.42.113 3.314 3.314 0 0 1-.682.069 2.994 2.994 0 0 1-1.25-.239 2.149 2.149 0 0 1-.938-.773c-.238-.348-.358-.786-.358-1.312v-8.608Zm5.368 10.818v-8.727h1.699v8.727h-1.699Zm.858-10.074a1.08 1.08 0 0 1-.761-.295.964.964 0 0 1-.313-.716.95.95 0 0 1 .313-.716c.212-.201.466-.301.761-.301.296 0 .548.1.756.301a.94.94 0 0 1 .318.716.954.954 0 0 1-.318.716c-.208.197-.46.295-.756.295Zm9.667 3.477-1.54.273a1.838 1.838 0 0 0-.307-.562 1.52 1.52 0 0 0-.557-.438c-.235-.114-.528-.17-.881-.17-.481 0-.882.108-1.204.324-.322.212-.483.486-.483.823 0 .292.108.527.324.705.216.178.564.324 1.045.437l1.387.319c.803.185 1.401.471 1.795.858.394.386.591.888.591 1.505 0 .523-.152.989-.455 1.398-.299.405-.717.723-1.255.955-.534.231-1.154.346-1.858.346-.977 0-1.775-.208-2.392-.625-.618-.42-.996-1.017-1.137-1.79l1.642-.25c.103.428.313.752.631.972.318.216.733.324 1.244.324.557 0 1.002-.116 1.336-.347.333-.235.5-.521.5-.858a.893.893 0 0 0-.307-.687c-.201-.186-.51-.326-.926-.421l-1.478-.324c-.814-.185-1.416-.481-1.806-.886-.387-.405-.58-.919-.58-1.54a2.2 2.2 0 0 1 .432-1.352c.288-.386.685-.687 1.193-.903.508-.22 1.089-.33 1.744-.33.944 0 1.686.205 2.228.614.541.405.899.949 1.074 1.63Zm6.112-2.13v1.363h-4.767v-1.363h4.767Zm-3.489-2.091h1.699v8.255c0 .33.049.578.148.745a.77.77 0 0 0 .38.335c.159.057.332.085.517.085.137 0 .256-.009.358-.028.103-.019.182-.034.239-.046l.307 1.404a2.768 2.768 0 0 1-.421.113 3.303 3.303 0 0 1-.681.069 2.994 2.994 0 0 1-1.25-.239 2.143 2.143 0 0 1-.938-.773c-.239-.348-.358-.786-.358-1.312v-8.608Zm5.368 10.818v-8.727h1.699v8.727h-1.699Zm.858-10.074c-.296 0-.549-.098-.761-.295a.96.96 0 0 1-.313-.716c0-.281.104-.519.313-.716.212-.201.465-.301.761-.301.295 0 .547.1.756.301a.94.94 0 0 1 .318.716.954.954 0 0 1-.318.716 1.062 1.062 0 0 1-.756.295Zm6.803 10.25c-.845 0-1.572-.191-2.182-.574a3.798 3.798 0 0 1-1.398-1.596c-.326-.678-.489-1.455-.489-2.33 0-.886.167-1.668.5-2.346a3.831 3.831 0 0 1 1.409-1.597c.606-.383 1.32-.574 2.142-.574.663 0 1.254.123 1.773.369.519.243.938.584 1.256 1.023.322.439.513.953.574 1.54h-1.654a1.983 1.983 0 0 0-.625-1.057c-.322-.295-.753-.443-1.295-.443-.474 0-.888.125-1.244.375-.353.246-.627.598-.824 1.057-.197.454-.296.992-.296 1.613 0 .637.097 1.186.29 1.648.193.462.466.82.818 1.074.356.254.775.381 1.256.381.322 0 .614-.059.875-.177a1.78 1.78 0 0 0 .665-.517 1.95 1.95 0 0 0 .38-.806h1.654a3.225 3.225 0 0 1-.551 1.511 3.168 3.168 0 0 1-1.233 1.045c-.512.254-1.112.381-1.801.381Zm11.941-6.773-1.54.273a1.813 1.813 0 0 0-.306-.562 1.528 1.528 0 0 0-.557-.438c-.235-.114-.529-.17-.881-.17-.481 0-.882.108-1.204.324-.322.212-.483.486-.483.823 0 .292.108.527.324.705.215.178.564.324 1.045.437l1.386.319c.803.185 1.402.471 1.796.858.394.386.591.888.591 1.505 0 .523-.152.989-.455 1.398-.299.405-.718.723-1.256.955-.534.231-1.153.346-1.857.346-.978 0-1.775-.208-2.393-.625-.617-.42-.996-1.017-1.136-1.79l1.642-.25c.102.428.313.752.631.972.318.216.733.324 1.244.324.557 0 1.002-.116 1.335-.347.334-.235.5-.521.5-.858a.892.892 0 0 0-.306-.687c-.201-.186-.51-.326-.927-.421l-1.477-.324c-.814-.185-1.416-.481-1.807-.886-.386-.405-.579-.919-.579-1.54a2.2 2.2 0 0 1 .432-1.352c.288-.386.685-.687 1.193-.903.507-.22 1.089-.33 1.744-.33.943 0 1.686.205 2.227.614.542.405.9.949 1.074 1.63Zm8.813 6.79a3.557 3.557 0 0 1-1.5-.307 2.528 2.528 0 0 1-1.063-.903c-.257-.394-.386-.877-.386-1.449 0-.492.095-.898.284-1.216.189-.318.445-.57.767-.756a4.035 4.035 0 0 1 1.08-.42c.397-.095.803-.167 1.215-.216l1.273-.148c.326-.041.563-.108.71-.198.148-.091.222-.239.222-.444v-.039c0-.497-.14-.881-.42-1.154-.277-.273-.69-.409-1.239-.409-.572 0-1.023.127-1.352.381-.326.25-.551.528-.676.835l-1.597-.364c.189-.53.466-.958.829-1.284.368-.329.79-.568 1.268-.716a4.959 4.959 0 0 1 1.505-.227c.349 0 .718.042 1.108.125.394.08.762.227 1.102.443.345.216.627.525.847.926.22.398.33.915.33 1.552v5.795h-1.66v-1.193h-.068c-.11.219-.274.435-.494.648-.22.212-.502.388-.847.528-.344.14-.757.21-1.238.21Zm.369-1.363c.47 0 .871-.093 1.205-.279a1.96 1.96 0 0 0 .767-.727c.178-.303.267-.627.267-.972v-1.125c-.061.061-.178.118-.353.171-.17.049-.365.092-.585.13-.219.034-.433.067-.642.097-.208.026-.382.049-.523.068a4.27 4.27 0 0 0-.903.21 1.555 1.555 0 0 0-.648.427c-.159.181-.238.424-.238.727 0 .42.155.738.466.954.31.212.706.319 1.187.319Zm6.2 1.17v-8.727h1.642v1.386h.091c.159-.47.44-.839.841-1.108a2.407 2.407 0 0 1 1.375-.409c.106 0 .231.004.375.011.148.008.263.017.347.029v1.625a3.074 3.074 0 0 0-.364-.063 3.53 3.53 0 0 0-.523-.039c-.401 0-.759.085-1.073.255a1.904 1.904 0 0 0-1.012 1.71v5.33h-1.699Zm9.59.176c-.86 0-1.601-.184-2.222-.551a3.744 3.744 0 0 1-1.432-1.563c-.333-.674-.5-1.464-.5-2.369 0-.894.167-1.682.5-2.363.338-.682.807-1.215 1.41-1.597.606-.383 1.314-.574 2.125-.574.492 0 .969.081 1.431.244.462.163.877.419 1.245.767.367.349.657.802.869 1.358.212.553.318 1.226.318 2.017v.603h-6.937v-1.273h5.272a2.52 2.52 0 0 0-.272-1.188 2.063 2.063 0 0 0-.767-.823c-.326-.201-.709-.302-1.148-.302-.477 0-.894.118-1.25.353a2.364 2.364 0 0 0-.818.909c-.19.371-.284.774-.284 1.21v.994c0 .584.102 1.08.306 1.489.209.409.499.722.87.938.371.212.805.318 1.301.318.322 0 .615-.046.881-.137.265-.094.494-.235.687-.42.193-.186.341-.415.443-.688l1.608.29c-.129.474-.36.888-.693 1.244-.33.353-.744.627-1.244.824-.496.194-1.063.29-1.699.29Zm12.403.017a3.557 3.557 0 0 1-1.5-.307 2.52 2.52 0 0 1-1.062-.903c-.258-.394-.387-.877-.387-1.449 0-.492.095-.898.284-1.216.19-.318.446-.57.768-.756a4.029 4.029 0 0 1 1.079-.42 10.62 10.62 0 0 1 1.216-.216l1.273-.148c.325-.041.562-.108.71-.198.148-.091.222-.239.222-.444v-.039c0-.497-.141-.881-.421-1.154-.276-.273-.689-.409-1.239-.409-.572 0-1.022.127-1.352.381-.326.25-.551.528-.676.835l-1.597-.364c.19-.53.466-.958.83-1.284.367-.329.79-.568 1.267-.716a4.96 4.96 0 0 1 1.506-.227c.348 0 .718.042 1.108.125.394.08.761.227 1.102.443.345.216.627.525.847.926.219.398.329.915.329 1.552v5.795h-1.659v-1.193h-.068c-.11.219-.275.435-.495.648a2.611 2.611 0 0 1-.846.528c-.345.14-.758.21-1.239.21Zm.37-1.363c.469 0 .871-.093 1.204-.279.337-.186.593-.428.767-.727.178-.303.267-.627.267-.972v-1.125c-.06.061-.178.118-.352.171a5.646 5.646 0 0 1-.585.13c-.22.034-.434.067-.642.097-.209.026-.383.049-.523.068a4.24 4.24 0 0 0-.903.21 1.555 1.555 0 0 0-.648.427c-.159.181-.239.424-.239.727 0 .42.155.738.466.954.311.212.707.319 1.188.319Zm13.353-7.557-3.164 8.727h-1.819l-3.17-8.727h1.824l2.21 6.716h.091l2.204-6.716h1.824Zm3.887 8.92a3.557 3.557 0 0 1-1.5-.307 2.528 2.528 0 0 1-1.063-.903c-.257-.394-.386-.877-.386-1.449 0-.492.094-.898.284-1.216.189-.318.445-.57.767-.756a4.042 4.042 0 0 1 1.079-.42 10.62 10.62 0 0 1 1.216-.216l1.273-.148c.326-.041.563-.108.71-.198.148-.091.222-.239.222-.444v-.039c0-.497-.14-.881-.421-1.154-.276-.273-.689-.409-1.238-.409-.572 0-1.023.127-1.352.381-.326.25-.552.528-.677.835l-1.596-.364c.189-.53.466-.958.829-1.284.368-.329.79-.568 1.267-.716a4.97 4.97 0 0 1 1.506-.227c.349 0 .718.042 1.108.125.394.08.761.227 1.102.443.345.216.627.525.847.926.22.398.329.915.329 1.552v5.795h-1.659v-1.193h-.068c-.11.219-.274.435-.494.648-.22.212-.502.388-.847.528-.344.14-.757.21-1.238.21Zm.369-1.363c.47 0 .871-.093 1.205-.279a1.96 1.96 0 0 0 .767-.727c.178-.303.267-.627.267-.972v-1.125c-.061.061-.178.118-.353.171-.17.049-.365.092-.585.13-.22.034-.434.067-.642.097a50.3 50.3 0 0 0-.523.068 4.27 4.27 0 0 0-.903.21 1.555 1.555 0 0 0-.648.427c-.159.181-.238.424-.238.727 0 .42.155.738.465.954.311.212.707.319 1.188.319Zm6.2 1.17v-8.727h1.699v8.727h-1.699Zm.858-10.074a1.08 1.08 0 0 1-.761-.295.96.96 0 0 1-.313-.716c0-.281.104-.519.313-.716.212-.201.466-.301.761-.301.296 0 .548.1.756.301a.94.94 0 0 1 .318.716.954.954 0 0 1-.318.716c-.208.197-.46.295-.756.295Zm4.825-1.562v11.636h-1.698v-11.636h1.698Zm4.826 11.829a3.557 3.557 0 0 1-1.5-.307 2.528 2.528 0 0 1-1.063-.903c-.257-.394-.386-.877-.386-1.449 0-.492.095-.898.284-1.216.189-.318.445-.57.767-.756a4.035 4.035 0 0 1 1.08-.42c.397-.095.803-.167 1.215-.216l1.273-.148c.326-.041.563-.108.71-.198.148-.091.222-.239.222-.444v-.039c0-.497-.14-.881-.42-1.154-.277-.273-.69-.409-1.239-.409-.572 0-1.023.127-1.352.381-.326.25-.551.528-.676.835l-1.597-.364c.189-.53.466-.958.829-1.284.368-.329.79-.568 1.268-.716a4.959 4.959 0 0 1 1.505-.227c.349 0 .718.042 1.108.125.394.08.762.227 1.102.443.345.216.627.525.847.926.22.398.33.915.33 1.552v5.795h-1.66v-1.193h-.068c-.11.219-.274.435-.494.648-.22.212-.502.388-.847.528-.344.14-.757.21-1.238.21Zm.369-1.363c.47 0 .871-.093 1.205-.279a1.96 1.96 0 0 0 .767-.727c.178-.303.267-.627.267-.972v-1.125c-.061.061-.178.118-.353.171-.17.049-.365.092-.585.13-.219.034-.433.067-.642.097-.208.026-.382.049-.523.068a4.27 4.27 0 0 0-.903.21 1.555 1.555 0 0 0-.648.427c-.159.181-.238.424-.238.727 0 .42.155.738.466.954.31.212.706.319 1.187.319Zm6.337 1.17v-11.636h1.699v4.323h.102a4.67 4.67 0 0 1 .426-.63c.186-.239.443-.447.773-.625.329-.182.765-.273 1.307-.273.704 0 1.333.178 1.886.534.553.356.987.869 1.301 1.54.318.67.477 1.477.477 2.42 0 .944-.157 1.752-.471 2.427-.315.67-.746 1.187-1.296 1.551-.549.359-1.176.539-1.88.539-.531 0-.964-.089-1.302-.267a2.467 2.467 0 0 1-.784-.625 4.668 4.668 0 0 1-.437-.636h-.142v1.358h-1.659Zm1.665-4.364c0 .614.089 1.152.267 1.614.178.462.435.824.772 1.085.337.258.75.387 1.239.387.507 0 .932-.135 1.273-.404.341-.273.598-.642.772-1.108.178-.466.267-.99.267-1.574a4.35 4.35 0 0 0-.261-1.551c-.17-.458-.428-.82-.773-1.085-.341-.265-.767-.398-1.278-.398-.493 0-.909.127-1.25.381-.337.254-.593.608-.767 1.062-.174.455-.261.985-.261 1.591Zm9.913-7.272v11.636h-1.699v-11.636h1.699Zm6.047 11.812c-.86 0-1.601-.184-2.222-.551a3.738 3.738 0 0 1-1.432-1.563c-.333-.674-.5-1.464-.5-2.369 0-.894.167-1.682.5-2.363a3.88 3.88 0 0 1 1.409-1.597c.606-.383 1.315-.574 2.125-.574.493 0 .97.081 1.432.244.462.163.877.419 1.245.767.367.349.657.802.869 1.358.212.553.318 1.226.318 2.017v.603h-6.937v-1.273h5.272a2.52 2.52 0 0 0-.272-1.188 2.063 2.063 0 0 0-.767-.823c-.326-.201-.709-.302-1.148-.302-.477 0-.894.118-1.25.353a2.364 2.364 0 0 0-.818.909c-.19.371-.284.774-.284 1.21v.994c0 .584.102 1.08.306 1.489.209.409.498.722.87.938.371.212.805.318 1.301.318.322 0 .615-.046.88-.137.266-.094.495-.235.688-.42.193-.186.341-.415.443-.688l1.608.29c-.129.474-.36.888-.693 1.244-.33.353-.744.627-1.244.824-.497.194-1.063.29-1.699.29Zm7.771-11.812-.148 8.289h-1.574l-.147-8.289h1.869Zm-.932 11.744a1.11 1.11 0 0 1-.807-.33 1.079 1.079 0 0 1-.329-.806 1.057 1.057 0 0 1 .329-.796c.224-.223.493-.335.807-.335.307 0 .572.112.796.335.223.22.337.485.341.796a1.18 1.18 0 0 1-.574.983 1.077 1.077 0 0 1-.563.153Z" fill="#1A191E"/></svg>