<svg width="214" height="215" fill="none" xmlns="http://www.w3.org/2000/svg"><rect y=".724" width="214" height="214" rx="16" fill="#E8F2EE"/><g clip-path="url(#a)"><path d="M135.444 127.45c-.741-1.712-1.592-3.57-3.555-3.57h-1.778a3.563 3.563 0 0 0 3.556-3.57V89.96a3.566 3.566 0 0 0-3.556-3.57H83.889a3.563 3.563 0 0 0-3.556 3.57v30.35a3.563 3.563 0 0 0 3.556 3.57H82.11c-1.963 0-2.963 1.785-3.555 3.57L75 136.152a3.564 3.564 0 0 0 3.556 3.572h56.888a3.564 3.564 0 0 0 3.556-3.57l-3.556-8.704Z" fill="#CCD6DD"/><path d="m75.014 136.302.01.101.303 1.23a3.552 3.552 0 0 0 3.228 2.091h56.889a3.555 3.555 0 0 0 3.542-3.422H75.014Z" fill="#9AAAB4"/><path d="M130.111 118.524a1.78 1.78 0 0 1-1.778 1.785H85.666a1.782 1.782 0 0 1-1.777-1.785V91.747c0-.987.796-1.785 1.777-1.785h42.667c.983 0 1.778.8 1.778 1.785v26.777Z" fill="#5DADEC"/><path d="m133.5 130.909-1.351-3.866c-.425-.818-1.129-1.488-2.112-1.488H84.085c-.982 0-1.611.725-2.055 1.841l-1.224 3.515c-.389 1.06.797 1.785 1.778 1.785h13.472s1.666-.084 1.961-1.081c.341-1.152.738-2.887.823-3.193.132-.469.69-.944 1.522-.944h15.25c.889 0 1.326.45 1.442 1.006.074.363.554 2.029.778 3.168.198 1.016 2.171 1.042 2.171 1.042h11.723c.979 0 2.163-.837 1.774-1.785Z" fill="#AEBBC1"/><path d="M114.778 134.591h-13.833c-.667 0-.957-.609-.861-1.2.096-.588.639-3.187.681-3.489.041-.304.487-.667.932-.667h12.471c.528 0 .871.29.978.869.105.582.537 2.918.57 3.451.034.535-.3 1.036-.938 1.036Z" fill="#9AAAB4"/></g><defs><clipPath id="a"><path fill="#fff" transform="translate(75 75.724)" d="M0 0h64v64H0z"/></clipPath></defs></svg>