<svg width="22" height="22" fill="none" xmlns="http://www.w3.org/2000/svg"><path d="M16.807 16.81h-2.443v-3.828c0-.913-.018-2.088-1.274-2.088-1.273 0-1.468.993-1.468 2.02v3.897H9.18V8.938h2.346v1.072h.032c.329-.618 1.126-1.271 2.318-1.271 2.475 0 2.933 1.63 2.933 3.75v4.322ZM6.42 7.86A1.417 1.417 0 0 1 5.24 5.652 1.419 1.419 0 1 1 6.418 7.86h.001Zm1.225 8.95h-2.45V8.939h2.451v7.873ZM18.031 2.75H3.968c-.674 0-1.218.532-1.218 1.189V18.06c0 .657.545 1.189 1.217 1.189h14.06c.673 0 1.223-.532 1.223-1.189V3.94c0-.657-.55-1.189-1.223-1.189h.003Z" fill="#1A191E"/></svg>