<svg width="400" height="550" fill="none" xmlns="http://www.w3.org/2000/svg"><rect width="400" height="83" rx="10" fill="#fff"/><rect x="16" y="16.5" width="50" height="50" rx="8" fill="#5BB5A2"/><path d="M40.561 35.926c-1.022 0-2.604-1.162-4.27-1.12-2.198.028-4.214 1.274-5.348 3.248-2.282 3.962-.588 9.814 1.638 13.034 1.092 1.568 2.38 3.332 4.088 3.276 1.638-.07 2.254-1.064 4.242-1.064 1.974 0 2.534 1.064 4.27 1.022 1.764-.028 2.884-1.596 3.962-3.178 1.246-1.82 1.764-3.584 1.792-3.682-.042-.014-3.43-1.316-3.472-5.236-.028-3.276 2.674-4.844 2.8-4.914-1.54-2.254-3.906-2.506-4.732-2.562-2.156-.168-3.962 1.176-4.97 1.176Zm3.64-3.304c.91-1.092 1.512-2.618 1.344-4.13-1.302.056-2.87.868-3.808 1.96-.84.966-1.568 2.52-1.372 4.004 1.442.112 2.926-.742 3.836-1.834Z" fill="#fff"/><path d="m82.468 35 4.644-12.6H89.2L93.808 35h-2.016l-1.08-3.078h-5.148L84.484 35h-2.016Zm3.636-4.59h4.068l-2.034-5.742-2.034 5.742Zm8.85 8.55V26.072h1.71l.197 1.386c.288-.42.684-.792 1.188-1.116.504-.324 1.152-.486 1.944-.486.864 0 1.626.204 2.286.612.66.408 1.176.966 1.548 1.674.384.708.576 1.512.576 2.412 0 .9-.192 1.704-.576 2.412a4.284 4.284 0 0 1-1.548 1.656c-.66.396-1.428.594-2.304.594-.696 0-1.314-.138-1.854-.414a3.197 3.197 0 0 1-1.26-1.17v5.328h-1.908Zm4.697-5.4c.816 0 1.488-.276 2.016-.828.528-.564.792-1.296.792-2.196 0-.588-.12-1.11-.36-1.566-.24-.456-.57-.81-.99-1.062-.42-.264-.906-.396-1.458-.396-.816 0-1.488.282-2.016.846-.516.564-.774 1.29-.774 2.178 0 .9.258 1.632.774 2.196.528.552 1.2.828 2.016.828Zm6.276 5.4V26.072h1.71l.198 1.386c.288-.42.684-.792 1.188-1.116.504-.324 1.152-.486 1.944-.486.864 0 1.626.204 2.286.612.66.408 1.176.966 1.548 1.674.384.708.576 1.512.576 2.412 0 .9-.192 1.704-.576 2.412a4.284 4.284 0 0 1-1.548 1.656c-.66.396-1.428.594-2.304.594-.696 0-1.314-.138-1.854-.414a3.197 3.197 0 0 1-1.26-1.17v5.328h-1.908Zm4.698-5.4c.816 0 1.488-.276 2.016-.828.528-.564.792-1.296.792-2.196 0-.588-.12-1.11-.36-1.566-.24-.456-.57-.81-.99-1.062-.42-.264-.906-.396-1.458-.396-.816 0-1.488.282-2.016.846-.516.564-.774 1.29-.774 2.178 0 .9.258 1.632.774 2.196.528.552 1.2.828 2.016.828ZM116.9 35V22.04h1.908V35H116.9Zm7.961.216c-.876 0-1.656-.192-2.34-.576a4.242 4.242 0 0 1-1.584-1.638c-.384-.696-.576-1.506-.576-2.43 0-.936.186-1.758.558-2.466a4.21 4.21 0 0 1 1.584-1.656c.684-.396 1.476-.594 2.376-.594.876 0 1.638.198 2.286.594a4.07 4.07 0 0 1 1.512 1.548c.36.648.54 1.362.54 2.142 0 .12-.006.252-.018.396 0 .132-.006.282-.018.45h-6.948c.06.864.342 1.524.846 1.98.516.444 1.11.666 1.782.666.54 0 .99-.12 1.35-.36.372-.252.648-.588.828-1.008h1.908c-.24.84-.72 1.542-1.44 2.106-.708.564-1.59.846-2.646.846Zm0-7.794c-.636 0-1.2.192-1.692.576-.492.372-.792.936-.9 1.692h5.04c-.036-.696-.282-1.248-.738-1.656-.456-.408-1.026-.612-1.71-.612Z" fill="#1A191E"/><path d="M83.278 48.364h2.131l3.705 9.045h.136l3.704-9.045h2.131V60h-1.67v-8.42h-.108l-3.432 8.403h-1.386l-3.432-8.41h-.108V60h-1.67V48.364Zm16.763 11.83a3.564 3.564 0 0 1-1.5-.308 2.528 2.528 0 0 1-1.062-.903c-.258-.394-.387-.877-.387-1.449 0-.492.095-.898.284-1.216.19-.318.445-.57.767-.755a4.006 4.006 0 0 1 1.08-.421 10.74 10.74 0 0 1 1.216-.216l1.273-.148c.325-.041.562-.108.71-.198.148-.091.221-.24.221-.444v-.04c0-.496-.14-.88-.42-1.153-.277-.273-.689-.409-1.239-.409-.572 0-1.022.127-1.352.38-.326.25-.551.53-.676.836l-1.597-.364c.19-.53.466-.958.83-1.284.367-.33.79-.568 1.267-.716a4.943 4.943 0 0 1 1.506-.227c.348 0 .717.042 1.108.125.394.08.761.227 1.102.443.345.216.627.525.846.926.22.398.33.915.33 1.552V60h-1.659v-1.193h-.068c-.11.22-.275.435-.495.648a2.612 2.612 0 0 1-.846.528c-.345.14-.758.21-1.239.21Zm.37-1.364c.469 0 .871-.093 1.204-.279.337-.186.593-.428.767-.727.178-.303.267-.627.267-.972v-1.125c-.06.06-.178.118-.352.17-.171.05-.366.093-.585.131-.22.035-.434.067-.642.097-.209.026-.383.05-.523.068-.33.042-.63.112-.903.21-.27.099-.485.24-.648.427-.16.181-.239.424-.239.727 0 .42.155.738.466.954.31.212.707.319 1.188.319Zm9.876 1.346c-.845 0-1.572-.191-2.182-.574a3.802 3.802 0 0 1-1.398-1.596c-.325-.678-.488-1.455-.488-2.33 0-.886.166-1.668.5-2.346a3.827 3.827 0 0 1 1.409-1.597c.606-.383 1.32-.574 2.142-.574.663 0 1.254.123 1.773.37.519.242.937.583 1.255 1.022.322.44.514.953.574 1.54h-1.653a1.98 1.98 0 0 0-.625-1.057c-.322-.295-.754-.443-1.296-.443a2.11 2.11 0 0 0-1.244.375c-.352.246-.627.598-.824 1.057-.197.454-.295.992-.295 1.613 0 .637.096 1.186.289 1.648.194.462.466.82.819 1.074.356.254.774.38 1.255.38.322 0 .614-.058.875-.175.265-.122.487-.294.665-.518.182-.223.309-.492.381-.806h1.653a3.204 3.204 0 0 1-.551 1.511 3.174 3.174 0 0 1-1.233 1.045c-.511.254-1.112.381-1.801.381Zm5.538-.176V48.364h1.699v4.324h.102c.099-.182.241-.393.427-.631.185-.239.443-.447.772-.625.33-.182.765-.273 1.307-.273.705 0 1.333.178 1.886.534.553.356.987.87 1.302 1.54.318.67.477 1.477.477 2.42 0 .944-.157 1.752-.472 2.427-.314.67-.746 1.187-1.295 1.55-.549.36-1.176.54-1.881.54-.53 0-.964-.089-1.301-.267a2.462 2.462 0 0 1-.784-.625 4.839 4.839 0 0 1-.438-.636h-.142V60h-1.659Zm1.665-4.364c0 .614.089 1.152.267 1.614.178.462.436.824.773 1.085.337.258.75.387 1.238.387.508 0 .932-.135 1.273-.404.341-.273.599-.642.773-1.108.178-.466.267-.99.267-1.574 0-.575-.087-1.092-.261-1.55-.171-.46-.428-.82-.773-1.086-.341-.265-.767-.398-1.279-.398-.492 0-.909.127-1.25.381-.337.254-.592.608-.767 1.063-.174.454-.261.984-.261 1.59Zm11.891 4.54c-.818 0-1.533-.187-2.142-.562a3.792 3.792 0 0 1-1.421-1.574c-.337-.675-.506-1.462-.506-2.364 0-.905.169-1.697.506-2.375a3.785 3.785 0 0 1 1.421-1.58c.609-.374 1.324-.562 2.142-.562.818 0 1.532.188 2.142.563.61.375 1.083.901 1.42 1.58.337.677.506 1.469.506 2.374 0 .902-.169 1.69-.506 2.364a3.79 3.79 0 0 1-1.42 1.574c-.61.375-1.324.562-2.142.562Zm.005-1.426c.531 0 .97-.14 1.319-.42.348-.28.606-.654.772-1.12.171-.466.256-.979.256-1.54 0-.556-.085-1.068-.256-1.534a2.497 2.497 0 0 0-.772-1.13c-.349-.284-.788-.426-1.319-.426-.534 0-.977.142-1.329.426a2.54 2.54 0 0 0-.779 1.13c-.166.466-.25.978-.25 1.534 0 .561.084 1.074.25 1.54.171.466.43.84.779 1.12.352.28.795.42 1.329.42Zm9.635 1.426c-.818 0-1.532-.187-2.142-.562a3.79 3.79 0 0 1-1.42-1.574c-.337-.675-.506-1.462-.506-2.364 0-.905.169-1.697.506-2.375a3.783 3.783 0 0 1 1.42-1.58c.61-.374 1.324-.562 2.142-.562.818 0 1.533.188 2.142.563.61.375 1.084.901 1.421 1.58.337.677.505 1.469.505 2.374 0 .902-.168 1.69-.505 2.364a3.792 3.792 0 0 1-1.421 1.574c-.609.375-1.324.562-2.142.562Zm.006-1.426c.53 0 .97-.14 1.318-.42.349-.28.606-.654.773-1.12.17-.466.256-.979.256-1.54 0-.556-.086-1.068-.256-1.534a2.498 2.498 0 0 0-.773-1.13c-.348-.284-.788-.426-1.318-.426-.534 0-.977.142-1.33.426a2.539 2.539 0 0 0-.778 1.13c-.167.466-.25.978-.25 1.534 0 .561.083 1.074.25 1.54.17.466.43.84.778 1.12.353.28.796.42 1.33.42Zm7.521-1.71-.011-2.074h.295l3.478-3.693h2.034l-3.966 4.204h-.267l-1.563 1.563ZM144.986 60V48.364h1.699V60h-1.699Zm5.511 0-3.125-4.148 1.171-1.187L152.582 60h-2.085Z" fill="#1A191E" fill-opacity=".5"/><path d="M321.026 43.572V41.97h7.326v1.602h-7.326Zm13.294 4.644c-.828 0-1.536-.162-2.124-.486a3.7 3.7 0 0 1-1.386-1.296 4.336 4.336 0 0 1-.594-1.764h1.782c.108.624.366 1.104.774 1.44.408.336.93.504 1.566.504.876 0 1.596-.408 2.16-1.224.576-.828.882-2.094.918-3.798-.288.528-.738.978-1.35 1.35-.6.372-1.296.558-2.088.558a4.151 4.151 0 0 1-1.998-.504 4.045 4.045 0 0 1-1.512-1.404c-.384-.612-.576-1.332-.576-2.16 0-.732.18-1.422.54-2.07.36-.648.864-1.17 1.512-1.566.66-.408 1.44-.612 2.34-.612.924 0 1.704.174 2.34.522.636.348 1.146.81 1.53 1.386.384.576.66 1.224.828 1.944.18.72.27 1.458.27 2.214 0 1.392-.198 2.61-.594 3.654-.384 1.044-.942 1.86-1.674 2.448-.732.576-1.62.864-2.664.864Zm.09-6.354c.504 0 .954-.114 1.35-.342.396-.228.708-.528.936-.9.24-.384.36-.804.36-1.26 0-.492-.12-.924-.36-1.296a2.38 2.38 0 0 0-.954-.9 2.773 2.773 0 0 0-1.35-.324c-.504 0-.954.108-1.35.324a2.544 2.544 0 0 0-.954.9 2.396 2.396 0 0 0-.342 1.278c0 .768.252 1.38.756 1.836.504.456 1.14.684 1.908.684Zm10.743 6.354c-.828 0-1.536-.162-2.124-.486a3.7 3.7 0 0 1-1.386-1.296 4.336 4.336 0 0 1-.594-1.764h1.782c.108.624.366 1.104.774 1.44.408.336.93.504 1.566.504.876 0 1.596-.408 2.16-1.224.576-.828.882-2.094.918-3.798-.288.528-.738.978-1.35 1.35-.6.372-1.296.558-2.088.558a4.151 4.151 0 0 1-1.998-.504 4.045 4.045 0 0 1-1.512-1.404c-.384-.612-.576-1.332-.576-2.16 0-.732.18-1.422.54-2.07.36-.648.864-1.17 1.512-1.566.66-.408 1.44-.612 2.34-.612.924 0 1.704.174 2.34.522.636.348 1.146.81 1.53 1.386.384.576.66 1.224.828 1.944.18.72.27 1.458.27 2.214 0 1.392-.198 2.61-.594 3.654-.384 1.044-.942 1.86-1.674 2.448-.732.576-1.62.864-2.664.864Zm.09-6.354c.504 0 .954-.114 1.35-.342.396-.228.708-.528.936-.9.24-.384.36-.804.36-1.26 0-.492-.12-.924-.36-1.296a2.38 2.38 0 0 0-.954-.9 2.773 2.773 0 0 0-1.35-.324c-.504 0-.954.108-1.35.324a2.544 2.544 0 0 0-.954.9 2.396 2.396 0 0 0-.342 1.278c0 .768.252 1.38.756 1.836.504.456 1.14.684 1.908.684Zm10.743 6.354c-.828 0-1.536-.162-2.124-.486a3.7 3.7 0 0 1-1.386-1.296 4.336 4.336 0 0 1-.594-1.764h1.782c.108.624.366 1.104.774 1.44.408.336.93.504 1.566.504.876 0 1.596-.408 2.16-1.224.576-.828.882-2.094.918-3.798-.288.528-.738.978-1.35 1.35-.6.372-1.296.558-2.088.558a4.151 4.151 0 0 1-1.998-.504 4.045 4.045 0 0 1-1.512-1.404c-.384-.612-.576-1.332-.576-2.16 0-.732.18-1.422.54-2.07.36-.648.864-1.17 1.512-1.566.66-.408 1.44-.612 2.34-.612.924 0 1.704.174 2.34.522.636.348 1.146.81 1.53 1.386.384.576.66 1.224.828 1.944.18.72.27 1.458.27 2.214 0 1.392-.198 2.61-.594 3.654-.384 1.044-.942 1.86-1.674 2.448-.732.576-1.62.864-2.664.864Zm.09-6.354c.504 0 .954-.114 1.35-.342.396-.228.708-.528.936-.9.24-.384.36-.804.36-1.26 0-.492-.12-.924-.36-1.296a2.38 2.38 0 0 0-.954-.9 2.773 2.773 0 0 0-1.35-.324c-.504 0-.954.108-1.35.324a2.544 2.544 0 0 0-.954.9 2.396 2.396 0 0 0-.342 1.278c0 .768.252 1.38.756 1.836.504.456 1.14.684 1.908.684Zm5.631 1.818v-1.242h1.422a7.604 7.604 0 0 1 0-1.476h-1.422v-1.26h1.62c.336-1.368 1.008-2.46 2.016-3.276 1.02-.828 2.292-1.242 3.816-1.242 1.476 0 2.682.36 3.618 1.08.936.72 1.53 1.728 1.782 3.024h-2.106c-.18-.732-.546-1.314-1.098-1.746-.54-.432-1.278-.648-2.214-.648-.948 0-1.752.246-2.412.738-.648.492-1.116 1.182-1.404 2.07h4.158v1.26h-4.392a7.604 7.604 0 0 0 0 1.476h4.392v1.242h-4.158c.276.9.744 1.596 1.404 2.088.66.492 1.464.738 2.412.738.936 0 1.674-.204 2.214-.612.552-.408.918-.966 1.098-1.674h2.106c-.252 1.248-.846 2.226-1.782 2.934-.936.708-2.142 1.062-3.618 1.062-1.536 0-2.814-.408-3.834-1.224-1.008-.828-1.674-1.932-1.998-3.312h-1.62Z" fill="#1A191E"/><rect y="99" width="400" height="83" rx="10" fill="#fff"/><rect x="16" y="115.5" width="50" height="50" rx="8" fill="#5BB5A2"/><path d="M40.561 134.926c-1.022 0-2.604-1.162-4.27-1.12-2.198.028-4.214 1.274-5.348 3.248-2.282 3.962-.588 9.814 1.638 13.034 1.092 1.568 2.38 3.332 4.088 3.276 1.638-.07 2.254-1.064 4.242-1.064 1.974 0 2.534 1.064 4.27 1.022 1.764-.028 2.884-1.596 3.962-3.178 1.246-1.82 1.764-3.584 1.792-3.682-.042-.014-3.43-1.316-3.472-5.236-.028-3.276 2.674-4.844 2.8-4.914-1.54-2.254-3.906-2.506-4.732-2.562-2.156-.168-3.962 1.176-4.97 1.176Zm3.64-3.304c.91-1.092 1.512-2.618 1.344-4.13-1.302.056-2.87.868-3.808 1.96-.84.966-1.568 2.52-1.372 4.004 1.442.112 2.926-.742 3.836-1.834Z" fill="#fff"/><path d="m82.468 134 4.644-12.6H89.2l4.608 12.6h-2.016l-1.08-3.078h-5.148L84.484 134h-2.016Zm3.636-4.59h4.068l-2.034-5.742-2.034 5.742Zm8.85 4.59v-8.928h1.691l.162 1.26a3.155 3.155 0 0 1 1.134-1.08c.48-.264 1.032-.396 1.656-.396 1.416 0 2.4.558 2.952 1.674a3.526 3.526 0 0 1 1.296-1.224c.552-.3 1.146-.45 1.782-.45 1.116 0 1.992.336 2.628 1.008.636.672.954 1.674.954 3.006V134h-1.908v-4.932c0-1.728-.66-2.592-1.98-2.592-.672 0-1.224.252-1.656.756-.42.504-.63 1.224-.63 2.16V134h-1.908v-4.932c0-1.728-.666-2.592-1.998-2.592-.66 0-1.206.252-1.638.756-.42.504-.63 1.224-.63 2.16V134h-1.908Zm18.971.216c-.756 0-1.38-.126-1.872-.378-.492-.252-.858-.582-1.098-.99a2.71 2.71 0 0 1-.36-1.368c0-.864.336-1.548 1.008-2.052.672-.504 1.632-.756 2.88-.756h2.34v-.162c0-.696-.192-1.218-.576-1.566-.372-.348-.858-.522-1.458-.522-.528 0-.99.132-1.386.396-.384.252-.618.63-.702 1.134h-1.908c.06-.648.276-1.2.648-1.656a3.643 3.643 0 0 1 1.44-1.062 4.838 4.838 0 0 1 1.926-.378c1.248 0 2.214.33 2.898.99.684.648 1.026 1.536 1.026 2.664V134h-1.656l-.162-1.53a3.392 3.392 0 0 1-1.098 1.242c-.48.336-1.11.504-1.89.504Zm.378-1.548c.516 0 .948-.12 1.296-.36.36-.252.636-.582.828-.99a3.82 3.82 0 0 0 .378-1.35h-2.124c-.756 0-1.296.132-1.62.396a1.244 1.244 0 0 0-.468.99c0 .408.15.732.45.972.312.228.732.342 1.26.342Zm5.519 1.332v-1.548l4.77-5.796h-4.698v-1.584h6.858v1.548l-4.806 5.796h4.896V134h-7.02Zm12.615.216c-.852 0-1.62-.192-2.304-.576a4.375 4.375 0 0 1-1.602-1.638c-.396-.708-.594-1.53-.594-2.466 0-.936.198-1.752.594-2.448a4.295 4.295 0 0 1 1.638-1.638 4.48 4.48 0 0 1 2.286-.594c.852 0 1.614.198 2.286.594a4.17 4.17 0 0 1 1.62 1.638c.408.696.612 1.512.612 2.448 0 .936-.204 1.758-.612 2.466a4.333 4.333 0 0 1-1.62 1.638c-.684.384-1.452.576-2.304.576Zm0-1.638c.456 0 .876-.114 1.26-.342a2.5 2.5 0 0 0 .954-1.008c.24-.456.36-1.02.36-1.692 0-.672-.12-1.23-.36-1.674-.228-.456-.54-.798-.936-1.026a2.423 2.423 0 0 0-1.26-.342c-.456 0-.882.114-1.278.342-.384.228-.696.57-.936 1.026-.24.444-.36 1.002-.36 1.674 0 .672.12 1.236.36 1.692.24.444.552.78.936 1.008.384.228.804.342 1.26.342Zm6.059 1.422v-8.928h1.692l.144 1.566a3.067 3.067 0 0 1 1.206-1.296c.54-.324 1.158-.486 1.854-.486 1.08 0 1.926.336 2.538 1.008.624.672.936 1.674.936 3.006V134h-1.89v-4.932c0-1.728-.708-2.592-2.124-2.592-.708 0-1.296.252-1.764.756-.456.504-.684 1.224-.684 2.16V134h-1.908Z" fill="#1A191E"/><path d="M83.278 159v-11.636h7.296v1.511h-5.54v3.545h5.16v1.506h-5.16v3.563h5.608V159h-7.364Zm11.203-11.636V159h-1.698v-11.636h1.698Zm6.047 11.812c-.86 0-1.6-.184-2.221-.551a3.735 3.735 0 0 1-1.432-1.563c-.333-.674-.5-1.464-.5-2.369 0-.894.167-1.682.5-2.363a3.885 3.885 0 0 1 1.41-1.597c.605-.383 1.314-.574 2.124-.574.493 0 .97.082 1.432.244.462.163.877.419 1.244.767.368.349.657.802.87 1.358.212.553.318 1.226.318 2.017v.603h-6.938v-1.273h5.273c0-.447-.091-.843-.273-1.187a2.052 2.052 0 0 0-.767-.824c-.326-.201-.708-.302-1.148-.302-.477 0-.894.118-1.25.353a2.364 2.364 0 0 0-.818.909c-.19.371-.284.774-.284 1.21v.994c0 .584.103 1.08.307 1.489.208.409.498.722.87.938.37.212.804.318 1.3.318a2.7 2.7 0 0 0 .881-.137c.265-.094.494-.234.688-.42.193-.186.341-.415.443-.688l1.608.29c-.129.474-.36.888-.693 1.244-.33.353-.745.627-1.245.824-.496.194-1.062.29-1.699.29Zm9.306 0c-.845 0-1.572-.191-2.182-.574a3.798 3.798 0 0 1-1.398-1.596c-.325-.678-.488-1.455-.488-2.33 0-.886.166-1.668.5-2.346a3.83 3.83 0 0 1 1.409-1.597c.606-.383 1.32-.574 2.142-.574.663 0 1.254.123 1.772.369.519.243.938.584 1.256 1.023.322.44.513.953.574 1.54h-1.653a1.99 1.99 0 0 0-.625-1.057c-.322-.295-.754-.443-1.296-.443a2.11 2.11 0 0 0-1.244.375c-.352.246-.627.598-.824 1.057-.197.454-.295.992-.295 1.613 0 .637.096 1.186.289 1.648.193.462.466.82.818 1.074.357.254.775.381 1.256.381.322 0 .614-.059.875-.177a1.78 1.78 0 0 0 .665-.517 1.94 1.94 0 0 0 .381-.806h1.653a3.214 3.214 0 0 1-.551 1.511 3.168 3.168 0 0 1-1.233 1.045c-.511.254-1.112.381-1.801.381Zm9.476-8.903v1.363h-4.767v-1.363h4.767Zm-3.489-2.091h1.699v8.256c0 .329.049.577.148.744a.77.77 0 0 0 .38.335c.159.057.332.085.517.085.137 0 .256-.009.358-.028.103-.019.182-.034.239-.046l.307 1.404a2.768 2.768 0 0 1-.421.113 3.314 3.314 0 0 1-.682.069 3 3 0 0 1-1.25-.239 2.146 2.146 0 0 1-.937-.773c-.239-.348-.358-.786-.358-1.312v-8.608ZM121.189 159v-8.727h1.642v1.386h.091c.159-.47.439-.839.841-1.108a2.402 2.402 0 0 1 1.375-.409c.106 0 .231.004.375.011.148.008.263.017.346.029v1.625a3.047 3.047 0 0 0-.363-.063 3.551 3.551 0 0 0-.523-.039c-.402 0-.759.085-1.074.255a1.9 1.9 0 0 0-1.011 1.71V159h-1.699Zm9.504.176c-.818 0-1.532-.187-2.142-.562a3.792 3.792 0 0 1-1.42-1.574c-.337-.674-.506-1.462-.506-2.364 0-.905.169-1.697.506-2.375a3.781 3.781 0 0 1 1.42-1.579c.61-.375 1.324-.563 2.142-.563.818 0 1.532.188 2.142.563.61.375 1.084.901 1.421 1.579.337.678.505 1.47.505 2.375 0 .902-.168 1.69-.505 2.364a3.794 3.794 0 0 1-1.421 1.574c-.61.375-1.324.562-2.142.562Zm.006-1.426c.53 0 .97-.14 1.318-.42.349-.281.606-.654.773-1.12.17-.466.255-.979.255-1.54 0-.556-.085-1.068-.255-1.534a2.5 2.5 0 0 0-.773-1.13c-.348-.284-.788-.426-1.318-.426-.534 0-.977.142-1.33.426a2.54 2.54 0 0 0-.778 1.13 4.52 4.52 0 0 0-.25 1.534c0 .561.083 1.074.25 1.54.17.466.43.839.778 1.12.353.28.796.42 1.33.42Zm7.658-3.932V159h-1.699v-8.727h1.63v1.42h.108c.201-.462.515-.833.943-1.113.432-.281.976-.421 1.631-.421.595 0 1.116.125 1.563.375.447.246.793.614 1.039 1.102.247.489.37 1.093.37 1.813V159h-1.699v-5.347c0-.632-.165-1.126-.494-1.483-.33-.359-.783-.539-1.358-.539-.394 0-.745.085-1.052.255a1.844 1.844 0 0 0-.721.75c-.174.326-.261.72-.261 1.182ZM146.22 159v-8.727h1.699V159h-1.699Zm.858-10.074a1.08 1.08 0 0 1-.761-.295.96.96 0 0 1-.313-.716c0-.281.104-.519.313-.716.212-.201.466-.301.761-.301.296 0 .547.1.756.301a.94.94 0 0 1 .318.716.954.954 0 0 1-.318.716 1.06 1.06 0 0 1-.756.295Zm6.803 10.25c-.845 0-1.572-.191-2.182-.574a3.798 3.798 0 0 1-1.398-1.596c-.326-.678-.489-1.455-.489-2.33 0-.886.167-1.668.5-2.346a3.84 3.84 0 0 1 1.41-1.597c.606-.383 1.32-.574 2.142-.574.663 0 1.253.123 1.772.369.519.243.938.584 1.256 1.023.322.44.513.953.574 1.54h-1.654a1.981 1.981 0 0 0-.624-1.057c-.322-.295-.754-.443-1.296-.443a2.11 2.11 0 0 0-1.244.375c-.353.246-.627.598-.824 1.057-.197.454-.296.992-.296 1.613 0 .637.097 1.186.29 1.648.193.462.466.82.818 1.074.356.254.775.381 1.256.381.322 0 .614-.059.875-.177a1.78 1.78 0 0 0 .665-.517c.182-.223.309-.492.38-.806h1.654a3.214 3.214 0 0 1-.551 1.511 3.168 3.168 0 0 1-1.233 1.045c-.512.254-1.112.381-1.801.381Zm11.941-6.773-1.539.273a1.838 1.838 0 0 0-.307-.562 1.528 1.528 0 0 0-.557-.438c-.235-.114-.528-.17-.881-.17-.481 0-.882.108-1.204.324-.322.212-.483.486-.483.823 0 .292.108.527.324.705.216.178.564.324 1.045.437l1.387.319c.803.185 1.401.471 1.795.858.394.386.591.888.591 1.505 0 .523-.152.989-.455 1.398-.299.405-.717.723-1.255.955-.534.231-1.154.346-1.858.346-.978 0-1.775-.208-2.392-.625-.618-.42-.997-1.017-1.137-1.79l1.642-.25c.103.428.313.752.631.972.318.216.733.324 1.244.324.557 0 1.002-.116 1.336-.347.333-.235.5-.521.5-.858a.893.893 0 0 0-.307-.687c-.201-.186-.51-.326-.926-.421l-1.478-.324c-.814-.185-1.416-.481-1.806-.886-.387-.405-.58-.918-.58-1.54a2.2 2.2 0 0 1 .432-1.352c.288-.386.685-.687 1.193-.903.508-.22 1.089-.33 1.744-.33.943 0 1.686.205 2.228.614.541.405.899.949 1.073 1.63Z" fill="#1A191E" fill-opacity=".5"/><path d="M332.026 142.572v-1.602h7.326v1.602h-7.326ZM346.832 147v-2.52h-6.318v-1.512l6.012-8.568h2.196v8.424h1.764v1.656h-1.764V147h-1.89Zm-4.248-4.176h4.356v-6.318l-4.356 6.318Zm13.41 4.392c-.828 0-1.536-.162-2.124-.486a3.7 3.7 0 0 1-1.386-1.296 4.336 4.336 0 0 1-.594-1.764h1.782c.108.624.366 1.104.774 1.44.408.336.93.504 1.566.504.876 0 1.596-.408 2.16-1.224.576-.828.882-2.094.918-3.798-.288.528-.738.978-1.35 1.35-.6.372-1.296.558-2.088.558a4.151 4.151 0 0 1-1.998-.504 4.045 4.045 0 0 1-1.512-1.404c-.384-.612-.576-1.332-.576-2.16 0-.732.18-1.422.54-2.07.36-.648.864-1.17 1.512-1.566.66-.408 1.44-.612 2.34-.612.924 0 1.704.174 2.34.522.636.348 1.146.81 1.53 1.386.384.576.66 1.224.828 1.944.18.72.27 1.458.27 2.214 0 1.392-.198 2.61-.594 3.654-.384 1.044-.942 1.86-1.674 2.448-.732.576-1.62.864-2.664.864Zm.09-6.354c.504 0 .954-.114 1.35-.342.396-.228.708-.528.936-.9.24-.384.36-.804.36-1.26 0-.492-.12-.924-.36-1.296a2.38 2.38 0 0 0-.954-.9 2.773 2.773 0 0 0-1.35-.324c-.504 0-.954.108-1.35.324a2.544 2.544 0 0 0-.954.9 2.396 2.396 0 0 0-.342 1.278c0 .768.252 1.38.756 1.836.504.456 1.14.684 1.908.684Zm5.631 1.818v-1.242h1.422a7.604 7.604 0 0 1 0-1.476h-1.422v-1.26h1.62c.336-1.368 1.008-2.46 2.016-3.276 1.02-.828 2.292-1.242 3.816-1.242 1.476 0 2.682.36 3.618 1.08.936.72 1.53 1.728 1.782 3.024h-2.106c-.18-.732-.546-1.314-1.098-1.746-.54-.432-1.278-.648-2.214-.648-.948 0-1.752.246-2.412.738-.648.492-1.116 1.182-1.404 2.07h4.158v1.26h-4.392a7.604 7.604 0 0 0 0 1.476h4.392v1.242h-4.158c.276.9.744 1.596 1.404 2.088.66.492 1.464.738 2.412.738.936 0 1.674-.204 2.214-.612.552-.408.918-.966 1.098-1.674h2.106c-.252 1.248-.846 2.226-1.782 2.934-.936.708-2.142 1.062-3.618 1.062-1.536 0-2.814-.408-3.834-1.224-1.008-.828-1.674-1.932-1.998-3.312h-1.62Z" fill="#1A191E"/><rect y="198" width="400" height="83" rx="10" fill="#fff"/><rect x="16" y="214.5" width="50" height="50" rx="8" fill="#5BB5A2"/><path d="M40.561 233.926c-1.022 0-2.604-1.162-4.27-1.12-2.198.028-4.214 1.274-5.348 3.248-2.282 3.962-.588 9.814 1.638 13.034 1.092 1.568 2.38 3.332 4.088 3.276 1.638-.07 2.254-1.064 4.242-1.064 1.974 0 2.534 1.064 4.27 1.022 1.764-.028 2.884-1.596 3.962-3.178 1.246-1.82 1.764-3.584 1.792-3.682-.042-.014-3.43-1.316-3.472-5.236-.028-3.276 2.674-4.844 2.8-4.914-1.54-2.254-3.906-2.506-4.732-2.562-2.156-.168-3.962 1.176-4.97 1.176Zm3.64-3.304c.91-1.092 1.512-2.618 1.344-4.13-1.302.056-2.87.868-3.808 1.96-.84.966-1.568 2.52-1.372 4.004 1.442.112 2.926-.742 3.836-1.834Z" fill="#fff"/><path d="M86.23 233v-11.052h-3.726V220.4h9.342v1.548h-3.708V233H86.23Zm7.587 0-2.628-8.928h1.908l1.728 6.732 1.944-6.732h2.124l1.944 6.732 1.728-6.732h1.908L101.845 233h-1.962l-2.052-7.02L95.78 233h-1.962Zm12.768-10.62c-.36 0-.66-.108-.9-.324a1.15 1.15 0 0 1-.342-.846c0-.336.114-.612.342-.828.24-.228.54-.342.9-.342s.654.114.882.342c.24.216.36.492.36.828 0 .336-.12.618-.36.846-.228.216-.522.324-.882.324Zm-.954 10.62v-8.928h1.908V233h-1.908Zm7.631 0c-.876 0-1.572-.21-2.088-.63-.516-.432-.774-1.194-.774-2.286v-4.41h-1.53v-1.602h1.53l.234-2.268h1.674v2.268h2.52v1.602h-2.52v4.41c0 .492.102.834.306 1.026.216.18.582.27 1.098.27h1.026V233h-1.476Zm6.737 0c-.876 0-1.572-.21-2.088-.63-.516-.432-.774-1.194-.774-2.286v-4.41h-1.53v-1.602h1.53l.234-2.268h1.674v2.268h2.52v1.602h-2.52v4.41c0 .492.102.834.306 1.026.216.18.582.27 1.098.27h1.026V233h-1.476Zm6.941.216c-.876 0-1.656-.192-2.34-.576a4.242 4.242 0 0 1-1.584-1.638c-.384-.696-.576-1.506-.576-2.43 0-.936.186-1.758.558-2.466a4.21 4.21 0 0 1 1.584-1.656c.684-.396 1.476-.594 2.376-.594.876 0 1.638.198 2.286.594a4.07 4.07 0 0 1 1.512 1.548c.36.648.54 1.362.54 2.142 0 .12-.006.252-.018.396 0 .132-.006.282-.018.45h-6.948c.06.864.342 1.524.846 1.98.516.444 1.11.666 1.782.666.54 0 .99-.12 1.35-.36.372-.252.648-.588.828-1.008h1.908c-.24.84-.72 1.542-1.44 2.106-.708.564-1.59.846-2.646.846Zm0-7.794c-.636 0-1.2.192-1.692.576-.492.372-.792.936-.9 1.692h5.04c-.036-.696-.282-1.248-.738-1.656-.456-.408-1.026-.612-1.71-.612Zm5.796 7.578v-8.928h1.71l.162 1.692a3.52 3.52 0 0 1 1.296-1.386c.564-.348 1.242-.522 2.034-.522v1.998h-.522c-.528 0-1.002.09-1.422.27-.408.168-.738.462-.99.882-.24.408-.36.978-.36 1.71V233h-1.908Z" fill="#1A191E"/><path d="M84.261 258h-1.863l4.187-11.636h2.029L92.8 258h-1.864l-3.29-9.523h-.09L84.26 258Zm.313-4.557h6.045v1.477h-6.045v-1.477Zm12.898 4.727c-.705 0-1.334-.179-1.887-.539-.549-.364-.98-.881-1.295-1.551-.31-.675-.466-1.483-.466-2.427 0-.943.157-1.75.472-2.42.318-.671.753-1.184 1.306-1.54a3.399 3.399 0 0 1 1.881-.534c.542 0 .977.091 1.307.273.333.178.59.386.772.625.186.238.33.449.432.631h.103v-4.324h1.698V258h-1.659v-1.358h-.142c-.102.186-.25.398-.443.636-.19.239-.45.447-.784.625-.333.178-.765.267-1.295.267Zm.375-1.448c.488 0 .901-.129 1.238-.387.341-.261.599-.623.773-1.085.178-.462.267-1 .267-1.614 0-.606-.087-1.136-.261-1.591-.175-.454-.43-.808-.767-1.062s-.754-.381-1.25-.381c-.512 0-.938.133-1.279.398-.34.265-.598.627-.772 1.085a4.43 4.43 0 0 0-.256 1.551c0 .584.087 1.108.261 1.574.174.466.432.835.773 1.108.345.269.769.404 1.273.404Zm12.913-5.319-1.54.273a1.796 1.796 0 0 0-.307-.562 1.524 1.524 0 0 0-.556-.438c-.235-.114-.529-.17-.881-.17-.481 0-.883.108-1.205.324-.322.212-.483.486-.483.823 0 .292.108.527.324.705.216.178.565.324 1.046.437l1.386.319c.803.185 1.402.471 1.795.858.394.386.591.888.591 1.505 0 .523-.151.989-.454 1.398-.299.405-.718.723-1.256.955-.534.231-1.153.346-1.858.346-.977 0-1.774-.208-2.392-.625-.617-.42-.996-1.017-1.136-1.79l1.642-.25c.102.428.312.752.631.972.318.216.732.324 1.244.324.557 0 1.002-.116 1.335-.347.333-.235.5-.521.5-.858a.89.89 0 0 0-.307-.687c-.2-.186-.509-.326-.926-.421l-1.477-.324c-.815-.185-1.417-.481-1.807-.886-.386-.405-.58-.918-.58-1.54a2.2 2.2 0 0 1 .432-1.352c.288-.386.686-.687 1.193-.903.508-.22 1.09-.33 1.745-.33.943 0 1.685.205 2.227.614.542.405.9.949 1.074 1.63Z" fill="#1A191E" fill-opacity=".5"/><path d="M333.026 241.572v-1.602h7.326v1.602h-7.326Zm8.812 4.428v-1.368a56.054 56.054 0 0 0 2.34-1.962 25.503 25.503 0 0 0 1.98-1.944c.588-.648 1.05-1.278 1.386-1.89.336-.624.504-1.224.504-1.8 0-.384-.066-.744-.198-1.08a1.708 1.708 0 0 0-.648-.828c-.3-.216-.702-.324-1.206-.324-.756 0-1.326.24-1.71.72-.372.48-.552 1.056-.54 1.728h-1.854c.012-.888.198-1.632.558-2.232.372-.6.864-1.056 1.476-1.368.624-.312 1.326-.468 2.106-.468 1.188 0 2.136.336 2.844 1.008.72.66 1.08 1.584 1.08 2.772 0 .708-.174 1.41-.522 2.106a9.45 9.45 0 0 1-1.332 2.016 19.003 19.003 0 0 1-1.746 1.8 42.856 42.856 0 0 1-1.782 1.53h5.76V246h-8.496Zm14.102.216c-.828 0-1.536-.162-2.124-.486a3.7 3.7 0 0 1-1.386-1.296 4.336 4.336 0 0 1-.594-1.764h1.782c.108.624.366 1.104.774 1.44.408.336.93.504 1.566.504.876 0 1.596-.408 2.16-1.224.576-.828.882-2.094.918-3.798-.288.528-.738.978-1.35 1.35-.6.372-1.296.558-2.088.558a4.151 4.151 0 0 1-1.998-.504 4.045 4.045 0 0 1-1.512-1.404c-.384-.612-.576-1.332-.576-2.16 0-.732.18-1.422.54-2.07.36-.648.864-1.17 1.512-1.566.66-.408 1.44-.612 2.34-.612.924 0 1.704.174 2.34.522.636.348 1.146.81 1.53 1.386.384.576.66 1.224.828 1.944.18.72.27 1.458.27 2.214 0 1.392-.198 2.61-.594 3.654-.384 1.044-.942 1.86-1.674 2.448-.732.576-1.62.864-2.664.864Zm.09-6.354c.504 0 .954-.114 1.35-.342.396-.228.708-.528.936-.9.24-.384.36-.804.36-1.26 0-.492-.12-.924-.36-1.296a2.38 2.38 0 0 0-.954-.9 2.773 2.773 0 0 0-1.35-.324c-.504 0-.954.108-1.35.324a2.544 2.544 0 0 0-.954.9 2.396 2.396 0 0 0-.342 1.278c0 .768.252 1.38.756 1.836.504.456 1.14.684 1.908.684Zm5.631 1.818v-1.242h1.422a7.604 7.604 0 0 1 0-1.476h-1.422v-1.26h1.62c.336-1.368 1.008-2.46 2.016-3.276 1.02-.828 2.292-1.242 3.816-1.242 1.476 0 2.682.36 3.618 1.08.936.72 1.53 1.728 1.782 3.024h-2.106c-.18-.732-.546-1.314-1.098-1.746-.54-.432-1.278-.648-2.214-.648-.948 0-1.752.246-2.412.738-.648.492-1.116 1.182-1.404 2.07h4.158v1.26h-4.392a7.604 7.604 0 0 0 0 1.476h4.392v1.242h-4.158c.276.9.744 1.596 1.404 2.088.66.492 1.464.738 2.412.738.936 0 1.674-.204 2.214-.612.552-.408.918-.966 1.098-1.674h2.106c-.252 1.248-.846 2.226-1.782 2.934-.936.708-2.142 1.062-3.618 1.062-1.536 0-2.814-.408-3.834-1.224-1.008-.828-1.674-1.932-1.998-3.312h-1.62Z" fill="#1A191E"/><rect y="297" width="400" height="83" rx="10" fill="#fff"/><rect x="16" y="313.5" width="50" height="50" rx="8" fill="#5BB5A2"/><path d="M40.561 332.926c-1.022 0-2.604-1.162-4.27-1.12-2.198.028-4.214 1.274-5.348 3.248-2.282 3.962-.588 9.814 1.638 13.034 1.092 1.568 2.38 3.332 4.088 3.276 1.638-.07 2.254-1.064 4.242-1.064 1.974 0 2.534 1.064 4.27 1.022 1.764-.028 2.884-1.596 3.962-3.178 1.246-1.82 1.764-3.584 1.792-3.682-.042-.014-3.43-1.316-3.472-5.236-.028-3.276 2.674-4.844 2.8-4.914-1.54-2.254-3.906-2.506-4.732-2.562-2.156-.168-3.962 1.176-4.97 1.176Zm3.64-3.304c.91-1.092 1.512-2.618 1.344-4.13-1.302.056-2.87.868-3.808 1.96-.84.966-1.568 2.52-1.372 4.004 1.442.112 2.926-.742 3.836-1.834Z" fill="#fff"/><path d="M83.278 332v-12.6h2.25l4.266 8.388 4.248-8.388h2.25V332h-1.908v-9.306l-3.852 7.506h-1.476l-3.87-7.488V332h-1.908Zm16.042-10.62c-.36 0-.66-.108-.9-.324a1.15 1.15 0 0 1-.342-.846c0-.336.114-.612.342-.828.24-.228.54-.342.9-.342s.654.114.882.342c.24.216.36.492.36.828 0 .336-.12.618-.36.846-.228.216-.522.324-.882.324ZM98.366 332v-8.928h1.908V332h-1.908Zm8.117.216c-.876 0-1.662-.198-2.358-.594a4.333 4.333 0 0 1-1.62-1.638c-.384-.708-.576-1.524-.576-2.448 0-.924.192-1.734.576-2.43a4.298 4.298 0 0 1 1.62-1.656c.696-.396 1.482-.594 2.358-.594 1.104 0 2.028.288 2.772.864.756.576 1.242 1.356 1.458 2.34h-1.998a1.878 1.878 0 0 0-.792-1.152c-.408-.276-.888-.414-1.44-.414-.468 0-.9.12-1.296.36-.396.228-.714.57-.954 1.026-.24.444-.36.996-.36 1.656 0 .66.12 1.218.36 1.674.24.444.558.786.954 1.026.396.24.828.36 1.296.36.552 0 1.032-.138 1.44-.414.408-.276.672-.666.792-1.17h1.998c-.204.96-.684 1.734-1.44 2.322-.756.588-1.686.882-2.79.882Zm5.759-.216v-8.928h1.71l.162 1.692a3.52 3.52 0 0 1 1.296-1.386c.564-.348 1.242-.522 2.034-.522v1.998h-.522c-.528 0-1.002.09-1.422.27-.408.168-.738.462-.99.882-.24.408-.36.978-.36 1.71V332h-1.908Zm10.228.216c-.852 0-1.62-.192-2.304-.576a4.375 4.375 0 0 1-1.602-1.638c-.396-.708-.594-1.53-.594-2.466 0-.936.198-1.752.594-2.448a4.295 4.295 0 0 1 1.638-1.638 4.48 4.48 0 0 1 2.286-.594c.852 0 1.614.198 2.286.594a4.17 4.17 0 0 1 1.62 1.638c.408.696.612 1.512.612 2.448 0 .936-.204 1.758-.612 2.466a4.333 4.333 0 0 1-1.62 1.638c-.684.384-1.452.576-2.304.576Zm0-1.638c.456 0 .876-.114 1.26-.342a2.5 2.5 0 0 0 .954-1.008c.24-.456.36-1.02.36-1.692 0-.672-.12-1.23-.36-1.674-.228-.456-.54-.798-.936-1.026a2.423 2.423 0 0 0-1.26-.342c-.456 0-.882.114-1.278.342-.384.228-.696.57-.936 1.026-.24.444-.36 1.002-.36 1.674 0 .672.12 1.236.36 1.692.24.444.552.78.936 1.008.384.228.804.342 1.26.342Zm9.623 1.638c-1.128 0-2.058-.276-2.79-.828a3.101 3.101 0 0 1-1.26-2.196h1.926c.096.408.324.762.684 1.062.36.288.834.432 1.422.432.576 0 .996-.12 1.26-.36s.396-.516.396-.828c0-.456-.186-.762-.558-.918-.36-.168-.864-.318-1.512-.45a11.918 11.918 0 0 1-1.512-.432 3.488 3.488 0 0 1-1.242-.756c-.324-.336-.486-.786-.486-1.35 0-.78.3-1.428.9-1.944.6-.528 1.44-.792 2.52-.792.996 0 1.8.24 2.412.72.624.48.99 1.158 1.098 2.034h-1.836a1.311 1.311 0 0 0-.54-.9c-.288-.216-.678-.324-1.17-.324-.48 0-.852.102-1.116.306a.893.893 0 0 0-.396.756c0 .312.18.558.54.738.372.18.858.342 1.458.486.6.132 1.152.288 1.656.468.516.168.93.42 1.242.756.312.336.468.828.468 1.476.012.816-.306 1.494-.954 2.034-.636.54-1.506.81-2.61.81Zm9.283 0c-.852 0-1.62-.192-2.304-.576a4.375 4.375 0 0 1-1.602-1.638c-.396-.708-.594-1.53-.594-2.466 0-.936.198-1.752.594-2.448a4.295 4.295 0 0 1 1.638-1.638 4.48 4.48 0 0 1 2.286-.594c.852 0 1.614.198 2.286.594a4.17 4.17 0 0 1 1.62 1.638c.408.696.612 1.512.612 2.448 0 .936-.204 1.758-.612 2.466a4.333 4.333 0 0 1-1.62 1.638c-.684.384-1.452.576-2.304.576Zm0-1.638c.456 0 .876-.114 1.26-.342a2.5 2.5 0 0 0 .954-1.008c.24-.456.36-1.02.36-1.692 0-.672-.12-1.23-.36-1.674-.228-.456-.54-.798-.936-1.026a2.423 2.423 0 0 0-1.26-.342c-.456 0-.882.114-1.278.342-.384.228-.696.57-.936 1.026-.24.444-.36 1.002-.36 1.674 0 .672.12 1.236.36 1.692.24.444.552.78.936 1.008.384.228.804.342 1.26.342Zm6.51 1.422v-7.326h-1.278v-1.602h1.278v-1.296c0-.972.24-1.668.72-2.088.492-.432 1.182-.648 2.07-.648h.936v1.62h-.648c-.42 0-.72.09-.9.27-.18.168-.27.456-.27.864v1.278h2.052v1.602h-2.052V332h-1.908Zm8.976 0c-.876 0-1.572-.21-2.088-.63-.516-.432-.774-1.194-.774-2.286v-4.41h-1.53v-1.602H154l.234-2.268h1.674v2.268h2.52v1.602h-2.52v4.41c0 .492.102.834.306 1.026.216.18.582.27 1.098.27h1.026V332h-1.476Z" fill="#1A191E"/><path d="M93.386 351.182c0 1.242-.227 2.31-.681 3.204-.455.891-1.078 1.576-1.87 2.057-.788.477-1.683.716-2.687.716-1.008 0-1.907-.239-2.7-.716-.787-.481-1.408-1.168-1.863-2.062-.454-.894-.682-1.961-.682-3.199 0-1.243.228-2.309.682-3.199.455-.894 1.076-1.58 1.864-2.057.791-.481 1.691-.721 2.699-.721 1.004 0 1.9.24 2.687.721.792.477 1.415 1.163 1.87 2.057.454.89.681 1.956.681 3.199Zm-1.738 0c0-.947-.154-1.745-.46-2.392-.303-.652-.72-1.144-1.25-1.478a3.248 3.248 0 0 0-1.79-.505c-.67 0-1.27.168-1.796.505-.526.334-.943.826-1.25 1.478-.303.647-.454 1.445-.454 2.392 0 .947.151 1.746.454 2.398.307.647.724 1.14 1.25 1.477.527.333 1.125.5 1.796.5.666 0 1.263-.167 1.79-.5.53-.337.947-.83 1.25-1.477.306-.652.46-1.451.46-2.398Zm7.944-2.909v1.363h-4.931v-1.363h4.931ZM96.012 357v-9.739c0-.545.12-.998.359-1.358.238-.363.555-.634.949-.812a3.024 3.024 0 0 1 1.284-.273c.34 0 .632.029.875.085.242.053.422.103.539.148l-.397 1.375a7.24 7.24 0 0 0-.307-.079 1.707 1.707 0 0 0-.455-.052c-.412 0-.708.103-.886.307-.174.205-.261.5-.261.887V357h-1.7Zm9.487-8.727v1.363h-4.932v-1.363h4.932Zm-3.58 8.727v-9.739c0-.545.119-.998.358-1.358a2.2 2.2 0 0 1 .949-.812 3.024 3.024 0 0 1 1.284-.273c.341 0 .633.029.875.085.242.053.422.103.54.148l-.398 1.375a7.466 7.466 0 0 0-.307-.079 1.703 1.703 0 0 0-.454-.052c-.413 0-.709.103-.887.307-.174.205-.261.5-.261.887V357h-1.699Zm5.332 0v-8.727h1.699V357h-1.699Zm.858-10.074a1.08 1.08 0 0 1-.761-.295.963.963 0 0 1-.312-.716c0-.281.104-.519.312-.716.212-.201.466-.301.761-.301.296 0 .548.1.756.301a.94.94 0 0 1 .318.716.954.954 0 0 1-.318.716c-.208.197-.46.295-.756.295Zm6.803 10.25c-.845 0-1.572-.191-2.182-.574a3.798 3.798 0 0 1-1.398-1.596c-.325-.678-.488-1.455-.488-2.33 0-.886.166-1.668.5-2.346a3.83 3.83 0 0 1 1.409-1.597c.606-.383 1.32-.574 2.142-.574.663 0 1.254.123 1.773.369.519.243.937.584 1.255 1.023.322.44.514.953.574 1.54h-1.653a1.983 1.983 0 0 0-.625-1.057c-.322-.295-.754-.443-1.296-.443a2.11 2.11 0 0 0-1.244.375c-.352.246-.627.598-.824 1.057-.197.454-.295.992-.295 1.613 0 .637.096 1.186.289 1.648.194.462.466.82.819 1.074.356.254.774.381 1.255.381.322 0 .614-.059.875-.177a1.78 1.78 0 0 0 .665-.517 1.94 1.94 0 0 0 .381-.806h1.653a3.203 3.203 0 0 1-.551 1.511 3.168 3.168 0 0 1-1.233 1.045c-.511.254-1.112.381-1.801.381Zm9.163 0c-.86 0-1.6-.184-2.221-.551a3.731 3.731 0 0 1-1.432-1.563c-.333-.674-.5-1.464-.5-2.369 0-.894.167-1.682.5-2.363a3.886 3.886 0 0 1 1.409-1.597c.606-.383 1.314-.574 2.125-.574a4.3 4.3 0 0 1 1.432.244c.462.163.877.419 1.244.767.368.349.657.802.869 1.358.213.553.319 1.226.319 2.017v.603h-6.938v-1.273h5.273c0-.447-.091-.843-.273-1.187a2.052 2.052 0 0 0-.767-.824c-.326-.201-.708-.302-1.148-.302-.477 0-.894.118-1.25.353a2.364 2.364 0 0 0-.818.909 2.626 2.626 0 0 0-.284 1.21v.994c0 .584.102 1.08.307 1.489.208.409.498.722.869.938.371.212.805.318 1.301.318a2.7 2.7 0 0 0 .881-.137c.265-.094.494-.234.688-.42a1.84 1.84 0 0 0 .443-.688l1.608.29c-.129.474-.36.888-.694 1.244a3.346 3.346 0 0 1-1.244.824c-.496.194-1.062.29-1.699.29Zm16.347-8.756a1.665 1.665 0 0 0-.75-1.25c-.44-.299-.993-.448-1.659-.448-.477 0-.89.075-1.239.227a1.91 1.91 0 0 0-.812.613c-.19.258-.284.552-.284.881 0 .277.064.515.193.716.132.201.305.369.517.506.216.132.447.244.693.335.246.087.483.159.71.216l1.137.295c.371.091.751.214 1.142.37.39.155.751.36 1.085.613.333.254.602.568.807.944.208.374.312.823.312 1.346 0 .659-.17 1.244-.511 1.756-.337.511-.828.915-1.472 1.21-.64.295-1.415.443-2.324.443-.871 0-1.625-.138-2.261-.415-.636-.276-1.135-.668-1.494-1.176-.36-.511-.559-1.117-.597-1.818h1.761c.035.421.171.771.41 1.051.242.277.551.483.926.62.378.132.793.198 1.244.198.496 0 .937-.077 1.324-.233.39-.159.697-.378.92-.659.224-.284.336-.615.336-.994 0-.345-.099-.627-.296-.847a2.185 2.185 0 0 0-.79-.545 7.688 7.688 0 0 0-1.119-.381l-1.375-.375c-.932-.253-1.67-.627-2.216-1.119-.542-.492-.812-1.144-.812-1.955 0-.67.181-1.255.545-1.755.364-.5.856-.888 1.477-1.165.621-.28 1.322-.42 2.103-.42.787 0 1.483.138 2.085.414.606.277 1.083.658 1.432 1.142a2.88 2.88 0 0 1 .545 1.659h-1.693Zm9.342 4.961v-5.108h1.705V357h-1.671v-1.511h-.091c-.2.466-.522.854-.966 1.164-.439.307-.986.461-1.642.461-.56 0-1.056-.123-1.488-.37-.428-.25-.765-.619-1.012-1.108-.242-.488-.363-1.092-.363-1.812v-5.551h1.699v5.346c0 .595.164 1.068.494 1.421.33.352.758.528 1.284.528.318 0 .635-.079.949-.238.318-.16.581-.4.79-.722.212-.322.316-.731.312-1.227Zm3.987 3.619v-8.727h1.699V357h-1.699Zm.858-10.074a1.08 1.08 0 0 1-.761-.295.963.963 0 0 1-.312-.716c0-.281.104-.519.312-.716.212-.201.466-.301.761-.301.296 0 .548.1.756.301a.94.94 0 0 1 .318.716.954.954 0 0 1-.318.716c-.208.197-.46.295-.756.295Zm7.201 1.347v1.363h-4.767v-1.363h4.767Zm-3.489-2.091h1.699v8.256c0 .329.049.577.148.744a.77.77 0 0 0 .38.335c.159.057.332.085.517.085.137 0 .256-.009.358-.028.103-.019.182-.034.239-.046l.307 1.404a2.768 2.768 0 0 1-.421.113 3.314 3.314 0 0 1-.682.069 3 3 0 0 1-1.25-.239 2.146 2.146 0 0 1-.937-.773c-.239-.348-.358-.786-.358-1.312v-8.608Zm9.036 10.994c-.86 0-1.601-.184-2.222-.551a3.738 3.738 0 0 1-1.432-1.563c-.333-.674-.5-1.464-.5-2.369 0-.894.167-1.682.5-2.363a3.886 3.886 0 0 1 1.409-1.597c.606-.383 1.315-.574 2.125-.574.493 0 .97.082 1.432.244.462.163.877.419 1.244.767.368.349.658.802.87 1.358.212.553.318 1.226.318 2.017v.603h-6.938v-1.273h5.273c0-.447-.091-.843-.273-1.187a2.045 2.045 0 0 0-.767-.824c-.325-.201-.708-.302-1.147-.302-.478 0-.894.118-1.25.353a2.366 2.366 0 0 0-.819.909 2.626 2.626 0 0 0-.284 1.21v.994c0 .584.103 1.08.307 1.489.208.409.498.722.869.938.372.212.805.318 1.302.318.322 0 .615-.046.88-.137.265-.094.495-.234.688-.42.193-.186.341-.415.443-.688l1.608.29c-.129.474-.36.888-.693 1.244-.33.353-.745.627-1.245.824-.496.194-1.062.29-1.698.29Z" fill="#1A191E" fill-opacity=".5"/><path d="M327.026 340.572v-1.602h7.326v1.602h-7.326Zm10.36 4.428v-10.44l-2.034.468v-1.404l2.79-1.224h1.224V345h-1.98Zm9.742 0v-2.52h-6.318v-1.512l6.012-8.568h2.196v8.424h1.764v1.656h-1.764V345h-1.89Zm-4.248-4.176h4.356v-6.318l-4.356 6.318Zm13.41 4.392c-.828 0-1.536-.162-2.124-.486a3.7 3.7 0 0 1-1.386-1.296 4.336 4.336 0 0 1-.594-1.764h1.782c.108.624.366 1.104.774 1.44.408.336.93.504 1.566.504.876 0 1.596-.408 2.16-1.224.576-.828.882-2.094.918-3.798-.288.528-.738.978-1.35 1.35-.6.372-1.296.558-2.088.558a4.151 4.151 0 0 1-1.998-.504 4.045 4.045 0 0 1-1.512-1.404c-.384-.612-.576-1.332-.576-2.16 0-.732.18-1.422.54-2.07.36-.648.864-1.17 1.512-1.566.66-.408 1.44-.612 2.34-.612.924 0 1.704.174 2.34.522.636.348 1.146.81 1.53 1.386.384.576.66 1.224.828 1.944.18.72.27 1.458.27 2.214 0 1.392-.198 2.61-.594 3.654-.384 1.044-.942 1.86-1.674 2.448-.732.576-1.62.864-2.664.864Zm.09-6.354c.504 0 .954-.114 1.35-.342.396-.228.708-.528.936-.9.24-.384.36-.804.36-1.26 0-.492-.12-.924-.36-1.296a2.38 2.38 0 0 0-.954-.9 2.773 2.773 0 0 0-1.35-.324c-.504 0-.954.108-1.35.324a2.544 2.544 0 0 0-.954.9 2.396 2.396 0 0 0-.342 1.278c0 .768.252 1.38.756 1.836.504.456 1.14.684 1.908.684Zm5.631 1.818v-1.242h1.422a7.604 7.604 0 0 1 0-1.476h-1.422v-1.26h1.62c.336-1.368 1.008-2.46 2.016-3.276 1.02-.828 2.292-1.242 3.816-1.242 1.476 0 2.682.36 3.618 1.08.936.72 1.53 1.728 1.782 3.024h-2.106c-.18-.732-.546-1.314-1.098-1.746-.54-.432-1.278-.648-2.214-.648-.948 0-1.752.246-2.412.738-.648.492-1.116 1.182-1.404 2.07h4.158v1.26h-4.392a7.604 7.604 0 0 0 0 1.476h4.392v1.242h-4.158c.276.9.744 1.596 1.404 2.088.66.492 1.464.738 2.412.738.936 0 1.674-.204 2.214-.612.552-.408.918-.966 1.098-1.674h2.106c-.252 1.248-.846 2.226-1.782 2.934-.936.708-2.142 1.062-3.618 1.062-1.536 0-2.814-.408-3.834-1.224-1.008-.828-1.674-1.932-1.998-3.312h-1.62Z" fill="#1A191E"/><rect y="396" width="400" height="83" rx="10" fill="#fff"/><rect x="16" y="412.5" width="50" height="50" rx="8" fill="#5BB5A2"/><path d="M40.561 431.926c-1.022 0-2.604-1.162-4.27-1.12-2.198.028-4.214 1.274-5.348 3.248-2.282 3.962-.588 9.814 1.638 13.034 1.092 1.568 2.38 3.332 4.088 3.276 1.638-.07 2.254-1.064 4.242-1.064 1.974 0 2.534 1.064 4.27 1.022 1.764-.028 2.884-1.596 3.962-3.178 1.246-1.82 1.764-3.584 1.792-3.682-.042-.014-3.43-1.316-3.472-5.236-.028-3.276 2.674-4.844 2.8-4.914-1.54-2.254-3.906-2.506-4.732-2.562-2.156-.168-3.962 1.176-4.97 1.176Zm3.64-3.304c.91-1.092 1.512-2.618 1.344-4.13-1.302.056-2.87.868-3.808 1.96-.84.966-1.568 2.52-1.372 4.004 1.442.112 2.926-.742 3.836-1.834Z" fill="#fff"/><path d="M83.278 431v-12.6h4.086c1.476 0 2.688.258 3.636.774.96.516 1.668 1.248 2.124 2.196.468.936.702 2.052.702 3.348 0 1.284-.234 2.4-.702 3.348-.456.936-1.164 1.662-2.124 2.178-.948.504-2.16.756-3.636.756h-4.086Zm1.908-1.62h2.106c1.14 0 2.04-.186 2.7-.558a3.174 3.174 0 0 0 1.44-1.602c.3-.696.45-1.53.45-2.502 0-.972-.15-1.812-.45-2.52a3.165 3.165 0 0 0-1.44-1.62c-.66-.384-1.56-.576-2.7-.576h-2.106v9.378ZM95.322 431v-8.928h1.71l.162 1.692a3.52 3.52 0 0 1 1.296-1.386c.564-.348 1.242-.522 2.034-.522v1.998h-.522c-.528 0-1.002.09-1.422.27-.408.168-.738.462-.99.882-.24.408-.36.978-.36 1.71V431h-1.908Zm10.228.216c-.852 0-1.62-.192-2.304-.576a4.375 4.375 0 0 1-1.602-1.638c-.396-.708-.594-1.53-.594-2.466 0-.936.198-1.752.594-2.448a4.295 4.295 0 0 1 1.638-1.638 4.48 4.48 0 0 1 2.286-.594c.852 0 1.614.198 2.286.594a4.17 4.17 0 0 1 1.62 1.638c.408.696.612 1.512.612 2.448 0 .936-.204 1.758-.612 2.466a4.333 4.333 0 0 1-1.62 1.638c-.684.384-1.452.576-2.304.576Zm0-1.638c.456 0 .876-.114 1.26-.342a2.5 2.5 0 0 0 .954-1.008c.24-.456.36-1.02.36-1.692 0-.672-.12-1.23-.36-1.674-.228-.456-.54-.798-.936-1.026a2.423 2.423 0 0 0-1.26-.342c-.456 0-.882.114-1.278.342-.384.228-.696.57-.936 1.026-.24.444-.36 1.002-.36 1.674 0 .672.12 1.236.36 1.692.24.444.552.78.936 1.008.384.228.804.342 1.26.342Zm6.059 5.382v-12.888h1.71l.198 1.386c.288-.42.684-.792 1.188-1.116.504-.324 1.152-.486 1.944-.486.864 0 1.626.204 2.286.612.66.408 1.176.966 1.548 1.674.384.708.576 1.512.576 2.412 0 .9-.192 1.704-.576 2.412a4.284 4.284 0 0 1-1.548 1.656c-.66.396-1.428.594-2.304.594-.696 0-1.314-.138-1.854-.414a3.197 3.197 0 0 1-1.26-1.17v5.328h-1.908Zm4.698-5.4c.816 0 1.488-.276 2.016-.828.528-.564.792-1.296.792-2.196 0-.588-.12-1.11-.36-1.566-.24-.456-.57-.81-.99-1.062-.42-.264-.906-.396-1.458-.396-.816 0-1.488.282-2.016.846-.516.564-.774 1.29-.774 2.178 0 .9.258 1.632.774 2.196.528.552 1.2.828 2.016.828Zm11.298 1.656c-.696 0-1.314-.138-1.854-.414a3.197 3.197 0 0 1-1.26-1.17l-.198 1.368h-1.71v-12.96h1.908v5.418c.288-.42.684-.792 1.188-1.116.504-.324 1.152-.486 1.944-.486.864 0 1.626.204 2.286.612.66.408 1.176.966 1.548 1.674.384.708.576 1.512.576 2.412 0 .9-.192 1.704-.576 2.412a4.284 4.284 0 0 1-1.548 1.656c-.66.396-1.428.594-2.304.594Zm-.324-1.656c.816 0 1.488-.276 2.016-.828.528-.564.792-1.296.792-2.196 0-.588-.12-1.11-.36-1.566-.24-.456-.57-.81-.99-1.062-.42-.264-.906-.396-1.458-.396-.816 0-1.488.282-2.016.846-.516.564-.774 1.29-.774 2.178 0 .9.258 1.632.774 2.196.528.552 1.2.828 2.016.828Zm10.452 1.656c-.852 0-1.62-.192-2.304-.576a4.375 4.375 0 0 1-1.602-1.638c-.396-.708-.594-1.53-.594-2.466 0-.936.198-1.752.594-2.448a4.295 4.295 0 0 1 1.638-1.638 4.48 4.48 0 0 1 2.286-.594c.852 0 1.614.198 2.286.594a4.17 4.17 0 0 1 1.62 1.638c.408.696.612 1.512.612 2.448 0 .936-.204 1.758-.612 2.466a4.333 4.333 0 0 1-1.62 1.638c-.684.384-1.452.576-2.304.576Zm0-1.638c.456 0 .876-.114 1.26-.342a2.5 2.5 0 0 0 .954-1.008c.24-.456.36-1.02.36-1.692 0-.672-.12-1.23-.36-1.674-.228-.456-.54-.798-.936-1.026a2.423 2.423 0 0 0-1.26-.342c-.456 0-.882.114-1.278.342-.384.228-.696.57-.936 1.026-.24.444-.36 1.002-.36 1.674 0 .672.12 1.236.36 1.692.24.444.552.78.936 1.008.384.228.804.342 1.26.342Zm4.756 1.422 3.168-4.464-3.168-4.464h2.034l2.394 3.42 2.376-3.42h2.052l-3.168 4.464 3.168 4.464h-2.052l-2.376-3.42-2.394 3.42h-2.034Z" fill="#1A191E"/><path d="M92.943 448.148h-1.772a2.71 2.71 0 0 0-1.063-1.733 2.928 2.928 0 0 0-.904-.455 3.535 3.535 0 0 0-1.05-.153c-.671 0-1.271.168-1.802.505-.526.338-.943.832-1.25 1.483-.303.652-.454 1.447-.454 2.387 0 .947.151 1.746.454 2.398.307.651.726 1.143 1.256 1.477.53.333 1.127.5 1.79.5.367 0 .716-.049 1.045-.148.334-.102.635-.252.904-.449a2.725 2.725 0 0 0 1.074-1.71l1.772.006a4.742 4.742 0 0 1-.551 1.579c-.269.477-.615.89-1.04 1.239-.42.345-.901.612-1.443.801a5.348 5.348 0 0 1-1.773.284c-1.007 0-1.905-.239-2.693-.716-.788-.481-1.409-1.168-1.864-2.062-.45-.894-.676-1.961-.676-3.199 0-1.243.228-2.309.682-3.199.455-.894 1.076-1.58 1.864-2.057.788-.481 1.684-.721 2.687-.721a5.43 5.43 0 0 1 1.728.267 4.55 4.55 0 0 1 1.448.772c.428.337.783.75 1.063 1.239.28.485.47 1.04.568 1.665Zm3.663-3.784V456h-1.698v-11.636h1.698Zm5.962 11.812c-.818 0-1.532-.187-2.142-.562a3.795 3.795 0 0 1-1.42-1.574c-.337-.674-.506-1.462-.506-2.364 0-.905.169-1.697.506-2.375a3.785 3.785 0 0 1 1.42-1.579c.61-.375 1.324-.563 2.142-.563.818 0 1.532.188 2.142.563.61.375 1.084.901 1.421 1.579.337.678.505 1.47.505 2.375 0 .902-.168 1.69-.505 2.364a3.794 3.794 0 0 1-1.421 1.574c-.61.375-1.324.562-2.142.562Zm.006-1.426c.53 0 .97-.14 1.318-.42.349-.281.606-.654.773-1.12.17-.466.255-.979.255-1.54 0-.556-.085-1.068-.255-1.534a2.5 2.5 0 0 0-.773-1.13c-.348-.284-.788-.426-1.318-.426-.534 0-.977.142-1.33.426a2.54 2.54 0 0 0-.778 1.13 4.52 4.52 0 0 0-.25 1.534c0 .561.083 1.074.25 1.54.17.466.43.839.778 1.12.353.28.796.42 1.33.42Zm11.487-2.369v-5.108h1.705V456h-1.671v-1.511h-.091c-.2.466-.522.854-.966 1.164-.439.307-.986.461-1.642.461-.56 0-1.057-.123-1.488-.37-.428-.25-.765-.619-1.012-1.108-.242-.488-.363-1.092-.363-1.812v-5.551h1.699v5.346c0 .595.164 1.068.494 1.421.329.352.757.528 1.284.528.318 0 .634-.079.949-.238.318-.16.581-.4.79-.722.212-.322.316-.731.312-1.227Zm7.254 3.789c-.704 0-1.333-.179-1.886-.539-.549-.364-.981-.881-1.295-1.551-.311-.675-.466-1.483-.466-2.427 0-.943.157-1.75.471-2.42.318-.671.754-1.184 1.307-1.54a3.4 3.4 0 0 1 1.881-.534c.541 0 .977.091 1.307.273.333.178.59.386.772.625.186.238.33.449.432.631h.102v-4.324h1.699V456h-1.659v-1.358h-.142c-.102.186-.25.398-.443.636-.19.239-.451.447-.784.625-.334.178-.765.267-1.296.267Zm.375-1.448c.489 0 .902-.129 1.239-.387.341-.261.598-.623.773-1.085.178-.462.267-1 .267-1.614 0-.606-.087-1.136-.262-1.591-.174-.454-.43-.808-.767-1.062s-.753-.381-1.25-.381c-.511 0-.937.133-1.278.398-.341.265-.599.627-.773 1.085-.17.459-.255.976-.255 1.551 0 .584.087 1.108.261 1.574.174.466.432.835.773 1.108.344.269.769.404 1.272.404Z" fill="#1A191E" fill-opacity=".5"/><path d="M338.026 439.572v-1.602h7.326v1.602h-7.326Zm10.36 4.428v-10.44l-2.034.468v-1.404l2.79-1.224h1.224V444h-1.98Zm9.742 0v-2.52h-6.318v-1.512l6.012-8.568h2.196v8.424h1.764v1.656h-1.764V444h-1.89Zm-4.248-4.176h4.356v-6.318l-4.356 6.318Zm8.298-.144v-1.242h1.422a7.604 7.604 0 0 1 0-1.476h-1.422v-1.26h1.62c.336-1.368 1.008-2.46 2.016-3.276 1.02-.828 2.292-1.242 3.816-1.242 1.476 0 2.682.36 3.618 1.08.936.72 1.53 1.728 1.782 3.024h-2.106c-.18-.732-.546-1.314-1.098-1.746-.54-.432-1.278-.648-2.214-.648-.948 0-1.752.246-2.412.738-.648.492-1.116 1.182-1.404 2.07h4.158v1.26h-4.392a7.604 7.604 0 0 0 0 1.476h4.392v1.242h-4.158c.276.9.744 1.596 1.404 2.088.66.492 1.464.738 2.412.738.936 0 1.674-.204 2.214-.612.552-.408.918-.966 1.098-1.674h2.106c-.252 1.248-.846 2.226-1.782 2.934-.936.708-2.142 1.062-3.618 1.062-1.536 0-2.814-.408-3.834-1.224-1.008-.828-1.674-1.932-1.998-3.312h-1.62Z" fill="#1A191E"/><rect y="495" width="400" height="83" rx="10" fill="#fff"/><rect x="16" y="511.5" width="50" height="50" rx="8" fill="#5BB5A2"/><path d="M40.561 530.926c-1.022 0-2.604-1.162-4.27-1.12-2.198.028-4.214 1.274-5.348 3.248-2.282 3.962-.588 9.814 1.638 13.034 1.092 1.568 2.38 3.332 4.088 3.276 1.638-.07 2.254-1.064 4.242-1.064 1.974 0 2.534 1.064 4.27 1.022 1.764-.028 2.884-1.596 3.962-3.178 1.246-1.82 1.764-3.584 1.792-3.682-.042-.014-3.43-1.316-3.472-5.236-.028-3.276 2.674-4.844 2.8-4.914-1.54-2.254-3.906-2.506-4.732-2.562-2.156-.168-3.962 1.176-4.97 1.176Zm3.64-3.304c.91-1.092 1.512-2.618 1.344-4.13-1.302.056-2.87.868-3.808 1.96-.84.966-1.568 2.52-1.372 4.004 1.442.112 2.926-.742 3.836-1.834Z" fill="#fff"/><path d="M83.278 530v-12.6h4.41c.984 0 1.8.168 2.448.504.648.324 1.128.774 1.44 1.35.324.564.486 1.206.486 1.926 0 .684-.156 1.314-.468 1.89-.3.564-.774 1.014-1.422 1.35-.648.336-1.476.504-2.484.504h-2.502V530h-1.908Zm1.908-6.642h2.412c.9 0 1.542-.192 1.926-.576.396-.396.594-.93.594-1.602 0-.696-.198-1.236-.594-1.62-.384-.396-1.026-.594-1.926-.594h-2.412v4.392Zm10.682 6.858c-.756 0-1.38-.126-1.872-.378-.492-.252-.858-.582-1.098-.99a2.71 2.71 0 0 1-.36-1.368c0-.864.336-1.548 1.008-2.052.672-.504 1.632-.756 2.88-.756h2.34v-.162c0-.696-.192-1.218-.576-1.566-.372-.348-.858-.522-1.458-.522-.528 0-.99.132-1.386.396-.384.252-.618.63-.702 1.134h-1.908c.06-.648.276-1.2.648-1.656a3.643 3.643 0 0 1 1.44-1.062 4.838 4.838 0 0 1 1.926-.378c1.248 0 2.214.33 2.898.99.684.648 1.026 1.536 1.026 2.664V530h-1.656l-.162-1.53a3.392 3.392 0 0 1-1.098 1.242c-.48.336-1.11.504-1.89.504Zm.378-1.548c.516 0 .948-.12 1.296-.36.36-.252.636-.582.828-.99a3.82 3.82 0 0 0 .378-1.35h-2.124c-.756 0-1.296.132-1.62.396a1.244 1.244 0 0 0-.468.99c0 .408.15.732.45.972.312.228.732.342 1.26.342Zm6.875 5.292 2.142-4.698h-.522l-3.528-8.19h2.07l2.736 6.606 2.862-6.606h2.016l-5.76 12.888h-2.016Zm8.805 0v-12.888h1.71l.198 1.386c.288-.42.684-.792 1.188-1.116.504-.324 1.152-.486 1.944-.486.864 0 1.626.204 2.286.612.66.408 1.176.966 1.548 1.674.384.708.576 1.512.576 2.412 0 .9-.192 1.704-.576 2.412a4.284 4.284 0 0 1-1.548 1.656c-.66.396-1.428.594-2.304.594-.696 0-1.314-.138-1.854-.414a3.197 3.197 0 0 1-1.26-1.17v5.328h-1.908Zm4.698-5.4c.816 0 1.488-.276 2.016-.828.528-.564.792-1.296.792-2.196 0-.588-.12-1.11-.36-1.566-.24-.456-.57-.81-.99-1.062-.42-.264-.906-.396-1.458-.396-.816 0-1.488.282-2.016.846-.516.564-.774 1.29-.774 2.178 0 .9.258 1.632.774 2.196.528.552 1.2.828 2.016.828Zm9.3 1.656c-.756 0-1.38-.126-1.872-.378-.492-.252-.858-.582-1.098-.99a2.71 2.71 0 0 1-.36-1.368c0-.864.336-1.548 1.008-2.052.672-.504 1.632-.756 2.88-.756h2.34v-.162c0-.696-.192-1.218-.576-1.566-.372-.348-.858-.522-1.458-.522-.528 0-.99.132-1.386.396-.384.252-.618.63-.702 1.134h-1.908c.06-.648.276-1.2.648-1.656a3.643 3.643 0 0 1 1.44-1.062 4.838 4.838 0 0 1 1.926-.378c1.248 0 2.214.33 2.898.99.684.648 1.026 1.536 1.026 2.664V530h-1.656l-.162-1.53a3.392 3.392 0 0 1-1.098 1.242c-.48.336-1.11.504-1.89.504Zm.378-1.548c.516 0 .948-.12 1.296-.36.36-.252.636-.582.828-.99a3.82 3.82 0 0 0 .378-1.35h-2.124c-.756 0-1.296.132-1.62.396a1.244 1.244 0 0 0-.468.99c0 .408.15.732.45.972.312.228.732.342 1.26.342Zm6.112 1.332v-12.96h1.908V530h-1.908Z" fill="#1A191E"/><path d="M89.625 546.42a1.662 1.662 0 0 0-.75-1.25c-.44-.299-.992-.448-1.66-.448-.476 0-.89.075-1.238.227a1.91 1.91 0 0 0-.812.613c-.19.258-.284.552-.284.881 0 .277.064.515.193.716.132.201.305.369.517.506.216.132.447.244.693.335.246.087.483.159.71.216l1.137.295c.37.091.752.214 1.142.37.39.155.752.36 1.085.613.333.254.602.568.807.944.208.374.312.823.312 1.346 0 .659-.17 1.244-.511 1.756-.337.511-.828.915-1.472 1.21-.64.295-1.415.443-2.323.443-.872 0-1.626-.138-2.262-.415-.636-.276-1.134-.668-1.494-1.176-.36-.511-.559-1.117-.597-1.818h1.761c.035.421.171.771.41 1.051.242.277.55.483.926.62.379.132.793.198 1.244.198.496 0 .938-.077 1.324-.233.39-.159.697-.378.92-.659a1.56 1.56 0 0 0 .336-.994c0-.345-.099-.627-.296-.847a2.192 2.192 0 0 0-.79-.545 7.725 7.725 0 0 0-1.119-.381l-1.375-.375c-.932-.253-1.67-.627-2.216-1.119-.541-.492-.812-1.144-.812-1.955 0-.67.181-1.255.545-1.755.364-.5.856-.888 1.477-1.165.622-.28 1.322-.42 2.103-.42.788 0 1.483.138 2.085.414.606.277 1.083.658 1.432 1.142.348.481.53 1.034.545 1.659h-1.693Zm5.513 3.398V555h-1.7v-11.636h1.677v4.329h.108c.205-.47.517-.843.938-1.119.42-.277.97-.415 1.647-.415.599 0 1.121.123 1.568.369.451.247.8.614 1.046 1.103.25.485.375 1.091.375 1.818V555h-1.699v-5.347c0-.64-.165-1.136-.494-1.488-.33-.356-.788-.534-1.375-.534-.402 0-.762.085-1.08.255a1.85 1.85 0 0 0-.744.75c-.178.326-.267.72-.267 1.182Zm11.602 5.358c-.818 0-1.532-.187-2.142-.562a3.792 3.792 0 0 1-1.42-1.574c-.338-.674-.506-1.462-.506-2.364 0-.905.168-1.697.506-2.375a3.781 3.781 0 0 1 1.42-1.579c.61-.375 1.324-.563 2.142-.563.818 0 1.532.188 2.142.563a3.79 3.79 0 0 1 1.421 1.579c.337.678.505 1.47.505 2.375 0 .902-.168 1.69-.505 2.364a3.8 3.8 0 0 1-1.421 1.574c-.61.375-1.324.562-2.142.562Zm.006-1.426c.53 0 .969-.14 1.318-.42.348-.281.606-.654.773-1.12.17-.466.255-.979.255-1.54 0-.556-.085-1.068-.255-1.534a2.507 2.507 0 0 0-.773-1.13c-.349-.284-.788-.426-1.318-.426-.534 0-.978.142-1.33.426a2.54 2.54 0 0 0-.778 1.13 4.52 4.52 0 0 0-.25 1.534c0 .561.083 1.074.25 1.54.17.466.43.839.778 1.12.352.28.796.42 1.33.42Zm5.959 4.523v-12h1.659v1.415h.142c.098-.182.24-.393.426-.631.185-.239.443-.447.773-.625.329-.182.765-.273 1.306-.273.705 0 1.334.178 1.887.534.553.356.986.869 1.301 1.54.318.67.477 1.477.477 2.42 0 .944-.157 1.752-.471 2.427-.315.67-.747 1.187-1.296 1.551-.549.36-1.176.539-1.881.539-.53 0-.964-.089-1.301-.267a2.467 2.467 0 0 1-.784-.625 4.668 4.668 0 0 1-.437-.636h-.103v4.631h-1.698Zm1.664-7.637c0 .614.089 1.152.267 1.614.178.462.436.824.773 1.085.337.258.75.387 1.239.387.507 0 .932-.135 1.272-.404.341-.273.599-.642.773-1.108.178-.466.267-.99.267-1.574a4.35 4.35 0 0 0-.261-1.551c-.171-.458-.428-.82-.773-1.085-.341-.265-.767-.398-1.278-.398-.493 0-.909.127-1.25.381-.337.254-.593.608-.767 1.062-.175.455-.262.985-.262 1.591Zm8.211 7.637v-12h1.659v1.415h.142c.098-.182.24-.393.426-.631.185-.239.443-.447.773-.625.329-.182.765-.273 1.306-.273.705 0 1.334.178 1.887.534.553.356.986.869 1.301 1.54.318.67.477 1.477.477 2.42 0 .944-.157 1.752-.471 2.427-.315.67-.747 1.187-1.296 1.551-.549.36-1.176.539-1.881.539-.53 0-.964-.089-1.301-.267a2.467 2.467 0 0 1-.784-.625 4.668 4.668 0 0 1-.437-.636h-.103v4.631h-1.698Zm1.664-7.637c0 .614.089 1.152.267 1.614.178.462.436.824.773 1.085.337.258.75.387 1.239.387.507 0 .932-.135 1.272-.404.341-.273.599-.642.773-1.108.178-.466.267-.99.267-1.574a4.35 4.35 0 0 0-.261-1.551c-.171-.458-.428-.82-.773-1.085-.341-.265-.767-.398-1.278-.398-.493 0-.909.127-1.25.381-.337.254-.593.608-.767 1.062-.175.455-.262.985-.262 1.591Zm8.211 4.364v-8.727h1.698V555h-1.698Zm.857-10.074a1.08 1.08 0 0 1-.761-.295.963.963 0 0 1-.312-.716c0-.281.104-.519.312-.716.212-.201.466-.301.761-.301.296 0 .548.1.756.301a.94.94 0 0 1 .318.716.954.954 0 0 1-.318.716c-.208.197-.46.295-.756.295Zm4.826 4.892V555h-1.699v-8.727h1.631v1.42h.108c.2-.462.515-.833.943-1.113.432-.281.975-.421 1.63-.421.595 0 1.116.125 1.563.375.447.246.793.614 1.04 1.102.246.489.369 1.093.369 1.813V555h-1.699v-5.347c0-.632-.165-1.126-.494-1.483-.33-.359-.782-.539-1.358-.539-.394 0-.744.085-1.051.255a1.846 1.846 0 0 0-.722.75c-.174.326-.261.72-.261 1.182Zm11.523 8.637c-.694 0-1.29-.091-1.79-.273-.496-.182-.902-.423-1.216-.722a3.031 3.031 0 0 1-.705-.983l1.461-.602c.102.167.238.343.409.528.174.19.409.351.704.483.299.133.684.199 1.154.199.643 0 1.176-.157 1.596-.471.421-.311.631-.807.631-1.489v-1.716h-.108c-.102.186-.25.392-.443.619-.19.228-.451.425-.784.591-.334.167-.767.25-1.302.25-.689 0-1.31-.161-1.863-.483-.549-.325-.985-.805-1.307-1.437-.318-.637-.477-1.419-.477-2.347 0-.928.157-1.723.471-2.386.319-.663.754-1.171 1.307-1.523a3.4 3.4 0 0 1 1.881-.534c.541 0 .979.091 1.312.273.334.178.593.386.779.625.189.238.335.449.437.631h.125v-1.415h1.665v8.92c0 .75-.174 1.366-.523 1.847-.348.481-.82.837-1.414 1.068-.591.231-1.258.347-2 .347Zm-.018-4.995c.489 0 .902-.113 1.239-.341.341-.231.599-.56.773-.988.178-.432.267-.949.267-1.551 0-.588-.087-1.105-.261-1.552-.175-.447-.43-.795-.768-1.045-.337-.254-.753-.381-1.25-.381-.511 0-.937.133-1.278.398-.341.261-.598.617-.773 1.068a4.26 4.26 0 0 0-.255 1.512c0 .572.087 1.073.261 1.505.174.432.432.769.773 1.012.344.242.769.363 1.272.363Z" fill="#1A191E" fill-opacity=".5"/><path d="M320.026 538.572v-1.602h7.326v1.602h-7.326Zm8.812 4.428v-1.368a56.054 56.054 0 0 0 2.34-1.962 25.503 25.503 0 0 0 1.98-1.944c.588-.648 1.05-1.278 1.386-1.89.336-.624.504-1.224.504-1.8 0-.384-.066-.744-.198-1.08a1.708 1.708 0 0 0-.648-.828c-.3-.216-.702-.324-1.206-.324-.756 0-1.326.24-1.71.72-.372.48-.552 1.056-.54 1.728h-1.854c.012-.888.198-1.632.558-2.232.372-.6.864-1.056 1.476-1.368.624-.312 1.326-.468 2.106-.468 1.188 0 2.136.336 2.844 1.008.72.66 1.08 1.584 1.08 2.772 0 .708-.174 1.41-.522 2.106a9.45 9.45 0 0 1-1.332 2.016 19.003 19.003 0 0 1-1.746 1.8 42.856 42.856 0 0 1-1.782 1.53h5.76V543h-8.496Zm14.912.216c-1.14 0-2.124-.27-2.952-.81-.816-.552-1.446-1.314-1.89-2.286-.432-.984-.648-2.124-.648-3.42 0-1.296.216-2.43.648-3.402.444-.984 1.074-1.746 1.89-2.286.828-.552 1.812-.828 2.952-.828s2.118.276 2.934.828c.816.54 1.44 1.302 1.872 2.286.444.972.666 2.106.666 3.402 0 1.296-.222 2.436-.666 3.42-.432.972-1.056 1.734-1.872 2.286-.816.54-1.794.81-2.934.81Zm0-1.71c.684 0 1.29-.192 1.818-.576.54-.384.96-.936 1.26-1.656.3-.72.45-1.578.45-2.574 0-.996-.15-1.854-.45-2.574-.3-.72-.72-1.272-1.26-1.656a3.011 3.011 0 0 0-1.818-.576c-.696 0-1.308.192-1.836.576-.528.384-.942.936-1.242 1.656-.3.72-.45 1.578-.45 2.574 0 .996.15 1.854.45 2.574.3.72.714 1.272 1.242 1.656.528.384 1.14.576 1.836.576Zm12.098 1.71c-1.14 0-2.124-.27-2.952-.81-.816-.552-1.446-1.314-1.89-2.286-.432-.984-.648-2.124-.648-3.42 0-1.296.216-2.43.648-3.402.444-.984 1.074-1.746 1.89-2.286.828-.552 1.812-.828 2.952-.828s2.118.276 2.934.828c.816.54 1.44 1.302 1.872 2.286.444.972.666 2.106.666 3.402 0 1.296-.222 2.436-.666 3.42-.432.972-1.056 1.734-1.872 2.286-.816.54-1.794.81-2.934.81Zm0-1.71c.684 0 1.29-.192 1.818-.576.54-.384.96-.936 1.26-1.656.3-.72.45-1.578.45-2.574 0-.996-.15-1.854-.45-2.574-.3-.72-.72-1.272-1.26-1.656a3.011 3.011 0 0 0-1.818-.576c-.696 0-1.308.192-1.836.576-.528.384-.942.936-1.242 1.656-.3.72-.45 1.578-.45 2.574 0 .996.15 1.854.45 2.574.3.72.714 1.272 1.242 1.656.528.384 1.14.576 1.836.576Zm6.177-2.826v-1.242h1.422a7.604 7.604 0 0 1 0-1.476h-1.422v-1.26h1.62c.336-1.368 1.008-2.46 2.016-3.276 1.02-.828 2.292-1.242 3.816-1.242 1.476 0 2.682.36 3.618 1.08.936.72 1.53 1.728 1.782 3.024h-2.106c-.18-.732-.546-1.314-1.098-1.746-.54-.432-1.278-.648-2.214-.648-.948 0-1.752.246-2.412.738-.648.492-1.116 1.182-1.404 2.07h4.158v1.26h-4.392a7.604 7.604 0 0 0 0 1.476h4.392v1.242h-4.158c.276.9.744 1.596 1.404 2.088.66.492 1.464.738 2.412.738.936 0 1.674-.204 2.214-.612.552-.408.918-.966 1.098-1.674h2.106c-.252 1.248-.846 2.226-1.782 2.934-.936.708-2.142 1.062-3.618 1.062-1.536 0-2.814-.408-3.834-1.224-1.008-.828-1.674-1.932-1.998-3.312h-1.62Z" fill="#1A191E"/></svg>