<svg width="22" height="22" fill="none" xmlns="http://www.w3.org/2000/svg"><path d="M20.315 5.185c-.7.31-1.442.512-2.202.603A3.846 3.846 0 0 0 19.8 3.667a7.661 7.661 0 0 1-2.435.93 3.833 3.833 0 0 0-6.532 3.496 10.884 10.884 0 0 1-7.901-4.006 3.833 3.833 0 0 0 1.186 5.119 3.82 3.82 0 0 1-1.736-.48v.048a3.836 3.836 0 0 0 3.075 3.76 3.86 3.86 0 0 1-1.732.066 3.836 3.836 0 0 0 3.58 2.662 7.693 7.693 0 0 1-5.674 1.588 10.844 10.844 0 0 0 5.876 1.723c7.052 0 10.908-5.841 10.908-10.908 0-.165-.005-.332-.012-.495a7.788 7.788 0 0 0 1.913-1.984v-.001Z" fill="#1A191E"/></svg>