<svg xmlns="http://www.w3.org/2000/svg" width="28" height="29" fill="none"><path fill="#5BB5A2" d="M.805 9.063A20.912 20.912 0 0 1 14 4.4c4.999 0 9.59 1.747 13.195 4.663l-1.466 1.816A18.589 18.589 0 0 0 14 6.734 18.582 18.582 0 0 0 2.27 10.878L.805 9.063Zm3.664 4.539A15.104 15.104 0 0 1 14 10.233 15.109 15.109 0 0 1 23.53 13.6l-1.466 1.816A12.78 12.78 0 0 0 14 12.566c-3.055 0-5.86 1.068-8.064 2.85L4.469 13.6v.002Zm3.666 4.538A9.295 9.295 0 0 1 14 16.067c2.221 0 4.262.776 5.864 2.072l-1.466 1.815A6.97 6.97 0 0 0 14 18.4 6.97 6.97 0 0 0 9.6 19.954L8.135 18.14v.001Zm3.665 4.538A3.485 3.485 0 0 1 14 21.9c.833 0 1.598.292 2.199.777l-2.2 2.723-2.199-2.723v.001Z"/></svg>