<svg xmlns="http://www.w3.org/2000/svg" width="28" height="29" fill="none"><path fill="#5BB5A2" d="M14 26.567c-6.444 0-11.667-5.223-11.667-11.667C2.333 8.457 7.556 3.234 14 3.234c6.443 0 11.666 5.223 11.666 11.666 0 6.444-5.223 11.667-11.666 11.667Zm-2.672-2.722a20.883 20.883 0 0 1-1.963-7.778H4.739a9.343 9.343 0 0 0 6.589 7.778Zm.373-7.778c.176 2.845.99 5.518 2.299 7.877a18.557 18.557 0 0 0 2.298-7.877h-4.597Zm11.56 0h-4.626a20.88 20.88 0 0 1-1.964 7.778 9.342 9.342 0 0 0 6.59-7.778ZM4.739 13.733h4.626a20.884 20.884 0 0 1 1.963-7.778 9.343 9.343 0 0 0-6.59 7.778Zm6.964 0h4.594A18.555 18.555 0 0 0 14 5.856a18.556 18.556 0 0 0-2.299 7.877h.002Zm4.968-7.778a20.88 20.88 0 0 1 1.964 7.778h4.626a9.342 9.342 0 0 0-6.59-7.778Z"/></svg>