<svg xmlns="http://www.w3.org/2000/svg" width="28" height="29" fill="none"><path fill="#5BB5A2" d="M11.666 24.233H7v2.334H4.666v-2.334H3.5a1.167 1.167 0 0 1-1.167-1.166v-17.5A1.167 1.167 0 0 1 3.5 4.4h8.166V2.755a.585.585 0 0 1 .68-.575L24.69 4.238a1.167 1.167 0 0 1 .975 1.15V7.9h1.167v2.333h-1.167V18.4h1.167v2.334h-1.167v2.511a1.166 1.166 0 0 1-.975 1.15l-1.358.227v1.945H21v-1.555l-8.655 1.442a.583.583 0 0 1-.679-.576v-1.645Zm2.334-.42 9.333-1.556V6.377L14 4.82v18.993Zm5.25-6.58c-.966 0-1.75-1.306-1.75-2.916 0-1.61.784-2.917 1.75-2.917S21 12.707 21 14.317c0 1.61-.784 2.916-1.75 2.916Z"/></svg>