<svg xmlns="http://www.w3.org/2000/svg" width="381" height="800" fill="none"><g clip-path="url(#a)"><rect width="380" height="800" x=".653" fill="#fff" rx="50"/><path fill="#1A191E" d="M45.481 54h12.172v2H45.481l5.364 5.364-1.414 1.414L41.653 55l7.778-7.778 1.414 1.414L45.481 54ZM154.193 62.24c-1.026 0-1.926-.18-2.7-.54-.773-.36-1.38-.873-1.82-1.54-.426-.667-.646-1.46-.66-2.38h2.24c.014.747.274 1.38.78 1.9.507.52 1.22.78 2.14.78.814 0 1.447-.193 1.9-.58.467-.4.7-.907.7-1.52 0-.493-.113-.893-.34-1.2a2.42 2.42 0 0 0-.9-.76c-.373-.2-.806-.38-1.3-.54-.493-.16-1.013-.333-1.56-.52-1.08-.36-1.893-.827-2.44-1.4-.533-.573-.8-1.327-.8-2.26-.013-.787.167-1.473.54-2.06.387-.587.92-1.04 1.6-1.36.694-.333 1.5-.5 2.42-.5.907 0 1.7.167 2.38.5.694.333 1.234.8 1.62 1.4.387.587.587 1.273.6 2.06h-2.24c0-.36-.093-.7-.28-1.02a2.194 2.194 0 0 0-.82-.82c-.36-.213-.8-.32-1.32-.32-.666-.013-1.22.153-1.66.5-.426.347-.64.827-.64 1.44 0 .547.16.967.48 1.26.32.293.76.54 1.32.74.56.187 1.2.407 1.92.66.694.227 1.314.5 1.86.82.547.32.98.74 1.3 1.26.334.52.5 1.18.5 1.98 0 .707-.18 1.367-.54 1.98-.36.6-.9 1.093-1.62 1.48-.72.373-1.606.56-2.66.56Zm10.618-.24c-.973 0-1.747-.233-2.32-.7-.573-.48-.86-1.327-.86-2.54v-4.9h-1.7v-1.78h1.7l.26-2.52h1.86v2.52h2.8v1.78h-2.8v4.9c0 .547.113.927.34 1.14.24.2.647.3 1.22.3h1.14V62h-1.64Zm6.686.24c-.84 0-1.533-.14-2.08-.42-.547-.28-.953-.647-1.22-1.1a3.008 3.008 0 0 1-.4-1.52c0-.96.373-1.72 1.12-2.28.747-.56 1.813-.84 3.2-.84h2.6v-.18c0-.773-.213-1.353-.64-1.74-.413-.387-.953-.58-1.62-.58-.587 0-1.1.147-1.54.44-.427.28-.687.7-.78 1.26h-2.12c.067-.72.307-1.333.72-1.84a4.05 4.05 0 0 1 1.6-1.18 5.376 5.376 0 0 1 2.14-.42c1.387 0 2.46.367 3.22 1.1.76.72 1.14 1.707 1.14 2.96V62h-1.84l-.18-1.7a3.772 3.772 0 0 1-1.22 1.38c-.533.373-1.233.56-2.1.56Zm.42-1.72c.573 0 1.053-.133 1.44-.4.4-.28.707-.647.92-1.1a4.23 4.23 0 0 0 .42-1.5h-2.36c-.84 0-1.44.147-1.8.44-.347.293-.52.66-.52 1.1 0 .453.167.813.5 1.08.347.253.813.38 1.4.38ZM182.674 62c-.974 0-1.747-.233-2.32-.7-.574-.48-.86-1.327-.86-2.54v-4.9h-1.7v-1.78h1.7l.26-2.52h1.86v2.52h2.8v1.78h-2.8v4.9c0 .547.113.927.34 1.14.24.2.646.3 1.22.3h1.14V62h-1.64Zm4.526-11.8c-.4 0-.734-.12-1-.36a1.274 1.274 0 0 1-.38-.94c0-.373.126-.68.38-.92.266-.253.6-.38 1-.38s.726.127.98.38c.266.24.4.547.4.92s-.134.687-.4.94c-.254.24-.58.36-.98.36ZM186.14 62v-9.92h2.12V62h-2.12Zm8.278.24c-1.253 0-2.287-.307-3.1-.92-.813-.613-1.28-1.427-1.4-2.44h2.14c.107.453.36.847.76 1.18.4.32.927.48 1.58.48.64 0 1.107-.133 1.4-.4.293-.267.44-.573.44-.92 0-.507-.207-.847-.62-1.02-.4-.187-.96-.353-1.68-.5-.56-.12-1.12-.28-1.68-.48a3.87 3.87 0 0 1-1.38-.84c-.36-.373-.54-.873-.54-1.5 0-.867.333-1.587 1-2.16.667-.587 1.6-.88 2.8-.88 1.107 0 2 .267 2.68.8.693.533 1.1 1.287 1.22 2.26h-2.04a1.459 1.459 0 0 0-.6-1c-.32-.24-.753-.36-1.3-.36-.533 0-.947.113-1.24.34-.293.213-.44.493-.44.84s.2.62.6.82c.413.2.953.38 1.62.54.667.147 1.28.32 1.84.52.573.187 1.033.467 1.38.84.347.373.52.92.52 1.64.013.907-.34 1.66-1.06 2.26-.707.6-1.673.9-2.9.9Zm9.463-.24c-.973 0-1.746-.233-2.32-.7-.573-.48-.86-1.327-.86-2.54v-4.9h-1.7v-1.78h1.7l.26-2.52h1.86v2.52h2.8v1.78h-2.8v4.9c0 .547.114.927.34 1.14.24.2.647.3 1.22.3h1.14V62h-1.64Zm4.526-11.8c-.4 0-.733-.12-1-.36a1.278 1.278 0 0 1-.38-.94c0-.373.127-.68.38-.92.267-.253.6-.38 1-.38s.727.127.98.38c.267.24.4.547.4.92s-.133.687-.4.94c-.253.24-.58.36-.98.36Zm-1.06 11.8v-9.92h2.12V62h-2.12Zm9.019.24c-.973 0-1.847-.22-2.62-.66a4.815 4.815 0 0 1-1.8-1.82c-.427-.787-.64-1.693-.64-2.72 0-1.027.213-1.927.64-2.7.44-.787 1.04-1.4 1.8-1.84.773-.44 1.647-.66 2.62-.66 1.227 0 2.253.32 3.08.96.84.64 1.38 1.507 1.62 2.6h-2.22a2.087 2.087 0 0 0-.88-1.28c-.453-.307-.987-.46-1.6-.46-.52 0-1 .133-1.44.4-.44.253-.793.633-1.06 1.14-.267.493-.4 1.107-.4 1.84 0 .733.133 1.353.4 1.86.267.493.62.873 1.06 1.14.44.267.92.4 1.44.4.613 0 1.147-.153 1.6-.46.453-.307.747-.74.88-1.3h2.22c-.227 1.067-.76 1.927-1.6 2.58-.84.653-1.873.98-3.1.98Zm10.359 0c-1.253 0-2.286-.307-3.1-.92-.813-.613-1.28-1.427-1.4-2.44h2.14c.107.453.36.847.76 1.18.4.32.927.48 1.58.48.64 0 1.107-.133 1.4-.4.294-.267.44-.573.44-.92 0-.507-.206-.847-.62-1.02-.4-.187-.96-.353-1.68-.5-.56-.12-1.12-.28-1.68-.48a3.887 3.887 0 0 1-1.38-.84c-.36-.373-.54-.873-.54-1.5 0-.867.334-1.587 1-2.16.667-.587 1.6-.88 2.8-.88 1.107 0 2 .267 2.68.8.694.533 1.1 1.287 1.22 2.26h-2.04a1.452 1.452 0 0 0-.6-1c-.32-.24-.753-.36-1.3-.36-.533 0-.946.113-1.24.34-.293.213-.44.493-.44.84s.2.62.6.82c.414.2.954.38 1.62.54.667.147 1.28.32 1.84.52.574.187 1.034.467 1.38.84.347.373.52.92.52 1.64.014.907-.34 1.66-1.06 2.26-.706.6-1.673.9-2.9.9ZM330.653 65c-5.523 0-10-4.477-10-10s4.477-10 10-10 10 4.477 10 10-4.477 10-10 10Zm0-2a8 8 0 1 0 0-16 8 8 0 0 0 0 16Zm-1-5h2v2h-2v-2Zm2-1.645V57h-2v-1.5a1.002 1.002 0 0 1 1-1 1.502 1.502 0 0 0 1.489-1.683 1.504 1.504 0 0 0-1.017-1.241 1.501 1.501 0 0 0-1.943 1.13l-1.962-.393a3.509 3.509 0 0 1 2.342-2.64 3.502 3.502 0 1 1 2.091 6.682Z"/><rect width="147" height="77" x="35.653" y="99" fill="#F8F8F8" rx="10"/><path fill="#1A191E" d="M85.192 129v-8.727h5.472v1.133h-4.155v2.659h3.87v1.13h-3.87v2.671h4.206V129h-5.523Zm9.033.145a2.68 2.68 0 0 1-1.125-.23 1.89 1.89 0 0 1-.797-.678c-.193-.295-.29-.657-.29-1.086 0-.37.072-.674.214-.912.142-.239.334-.428.575-.567a3.01 3.01 0 0 1 .81-.315c.298-.071.602-.125.912-.162l.954-.111c.244-.031.422-.081.533-.149.11-.069.166-.179.166-.333v-.03c0-.372-.105-.66-.315-.865-.208-.204-.517-.306-.93-.306-.428 0-.766.095-1.014.285-.244.188-.413.396-.507.626l-1.197-.272c.142-.398.35-.719.622-.963a2.53 2.53 0 0 1 .95-.537 3.7 3.7 0 0 1 1.13-.171c.26 0 .538.032.83.094.296.06.572.171.827.332.259.162.47.394.635.695.165.298.247.686.247 1.163V129h-1.244v-.895h-.051a1.81 1.81 0 0 1-.37.486 1.97 1.97 0 0 1-.636.396 2.465 2.465 0 0 1-.929.158Zm.277-1.023c.353 0 .654-.069.904-.209.252-.139.444-.321.575-.545.133-.227.2-.47.2-.729v-.844a.647.647 0 0 1-.264.128c-.128.037-.274.07-.439.098l-.481.073-.392.051a3.136 3.136 0 0 0-.678.158c-.202.073-.364.18-.486.319-.12.137-.179.318-.179.546 0 .315.117.554.35.716.233.159.53.238.89.238Zm4.65.878v-6.545h1.232v1.039h.068c.119-.352.33-.629.631-.831a1.809 1.809 0 0 1 1.031-.306 5.037 5.037 0 0 1 .541.029v1.219a2.312 2.312 0 0 0-.272-.047 2.597 2.597 0 0 0-.392-.03c-.302 0-.57.064-.806.192a1.425 1.425 0 0 0-.758 1.283V129h-1.275Zm5.88-3.886V129h-1.274v-6.545h1.223v1.065h.081c.15-.347.386-.625.707-.835.324-.211.732-.316 1.223-.316.446 0 .837.094 1.172.282.335.184.595.46.78.826.185.367.277.82.277 1.36V129h-1.274v-4.01c0-.474-.124-.845-.371-1.112-.247-.27-.587-.405-1.018-.405-.296 0-.559.064-.789.192a1.384 1.384 0 0 0-.541.562c-.131.245-.196.54-.196.887ZM110.93 129v-6.545h1.274V129h-1.274Zm.643-7.555a.81.81 0 0 1-.571-.222.722.722 0 0 1-.234-.537c0-.21.078-.389.234-.537a.805.805 0 0 1 .571-.226c.222 0 .411.076.567.226a.707.707 0 0 1 .239.537c0 .207-.08.386-.239.537a.794.794 0 0 1-.567.222Zm3.619 3.669V129h-1.274v-6.545h1.223v1.065h.081c.151-.347.386-.625.707-.835.324-.211.732-.316 1.223-.316.446 0 .837.094 1.172.282.336.184.595.46.78.826.185.367.277.82.277 1.36V129h-1.274v-4.01c0-.474-.124-.845-.371-1.112-.247-.27-.586-.405-1.018-.405-.296 0-.558.064-.789.192a1.384 1.384 0 0 0-.541.562c-.13.245-.196.54-.196.887Zm8.642 6.477c-.52 0-.967-.068-1.342-.205a2.59 2.59 0 0 1-.912-.541 2.256 2.256 0 0 1-.528-.737l1.095-.452c.076.125.179.257.307.397.13.142.306.262.528.362.224.099.513.149.865.149.483 0 .882-.118 1.197-.354.316-.233.473-.605.473-1.116v-1.287h-.08a2.911 2.911 0 0 1-.333.464 1.789 1.789 0 0 1-.588.443c-.25.125-.575.188-.976.188-.517 0-.983-.121-1.398-.362-.411-.245-.738-.604-.98-1.078-.238-.478-.358-1.064-.358-1.76s.118-1.293.354-1.79c.239-.497.565-.878.98-1.142a2.55 2.55 0 0 1 1.411-.401c.406 0 .734.069.984.205.25.133.445.29.584.469.142.179.251.336.328.473h.094v-1.061h1.248v6.69c0 .562-.13 1.024-.392 1.385a2.3 2.3 0 0 1-1.061.801c-.443.173-.943.26-1.5.26Zm-.013-3.746c.367 0 .677-.085.929-.256a1.59 1.59 0 0 0 .58-.741c.134-.324.2-.712.2-1.163 0-.441-.065-.828-.196-1.164a1.726 1.726 0 0 0-.575-.784c-.253-.19-.565-.285-.938-.285-.383 0-.703.099-.958.298a1.8 1.8 0 0 0-.58.801 3.181 3.181 0 0 0-.192 1.134c0 .429.066.805.196 1.129.131.324.324.577.58.758.258.182.577.273.954.273Zm9.58-3.792-1.155.204a1.367 1.367 0 0 0-.23-.422 1.133 1.133 0 0 0-.418-.328 1.513 1.513 0 0 0-.66-.128c-.361 0-.662.081-.903.243-.242.159-.363.365-.363.618a.65.65 0 0 0 .243.528c.162.134.424.243.784.329l1.04.238c.602.139 1.051.354 1.347.644.295.289.443.666.443 1.129 0 .392-.114.741-.341 1.048-.224.304-.538.543-.942.716-.4.173-.865.26-1.393.26-.733 0-1.331-.156-1.794-.469-.463-.315-.747-.762-.853-1.342l1.232-.187c.077.321.234.563.473.728.239.162.55.243.933.243.418 0 .752-.087 1.002-.26.25-.176.375-.39.375-.643a.67.67 0 0 0-.23-.516c-.151-.139-.383-.244-.695-.315l-1.108-.243c-.611-.139-1.063-.361-1.355-.665-.29-.304-.435-.689-.435-1.155 0-.386.108-.724.324-1.014.216-.29.514-.516.895-.678a3.28 3.28 0 0 1 1.308-.247c.708 0 1.264.154 1.671.461.406.304.674.711.805 1.223ZM60.853 156.74v-1.54c-1.306-.147-2.353-.607-3.14-1.38-.786-.773-1.186-1.787-1.2-3.04h2.24c.014.627.2 1.18.56 1.66.36.467.874.78 1.54.94v-4.82a4.813 4.813 0 0 1-.34-.1 9.71 9.71 0 0 0-.34-.12c-1.08-.36-1.893-.827-2.44-1.4-.533-.573-.8-1.327-.8-2.26-.013-1.093.34-1.987 1.06-2.68.72-.693 1.674-1.1 2.86-1.22v-1.6h1.36v1.62c1.16.133 2.094.553 2.8 1.26.707.707 1.067 1.593 1.08 2.66h-2.24a2.194 2.194 0 0 0-.44-1.24c-.266-.4-.666-.673-1.2-.82v4.28l.32.12c.107.027.214.06.32.1.694.227 1.314.5 1.86.82.547.32.98.74 1.3 1.26.334.52.5 1.18.5 1.98 0 .667-.16 1.293-.48 1.88-.32.573-.8 1.053-1.44 1.44-.64.387-1.433.613-2.38.68v1.52h-1.36Zm-1.72-12.24c0 .533.154.947.46 1.24.307.28.727.527 1.26.74v-3.88c-.506.093-.92.307-1.24.64-.32.32-.48.74-.48 1.26Zm5.14 6.86c0-.653-.193-1.147-.58-1.48-.386-.347-.88-.633-1.48-.86v4.4c.654-.08 1.16-.307 1.52-.68.36-.373.54-.833.54-1.38Zm13.177 3.88c-.933 0-1.78-.167-2.54-.5-.746-.347-1.346-.827-1.8-1.44-.44-.613-.66-1.333-.66-2.16 0-.84.233-1.593.7-2.26a3.56 3.56 0 0 1 1.9-1.36c-.706-.28-1.253-.687-1.64-1.22a3.051 3.051 0 0 1-.58-1.8c0-.68.18-1.3.54-1.86.36-.573.88-1.027 1.56-1.36.694-.347 1.533-.52 2.52-.52.987 0 1.82.173 2.5.52.694.333 1.22.787 1.58 1.36.36.56.54 1.18.54 1.86 0 .64-.2 1.24-.6 1.8-.386.547-.933.953-1.64 1.22a3.564 3.564 0 0 1 1.88 1.38c.48.653.72 1.4.72 2.24 0 .827-.22 1.547-.66 2.16-.44.613-1.04 1.093-1.8 1.44-.746.333-1.587.5-2.52.5Zm0-8.4c.773 0 1.38-.2 1.82-.6.454-.4.68-.913.68-1.54 0-.707-.22-1.247-.66-1.62-.44-.373-1.053-.56-1.84-.56-.787 0-1.4.187-1.84.56-.44.373-.66.913-.66 1.62 0 .627.22 1.14.66 1.54.44.4 1.053.6 1.84.6Zm0 6.6c.96 0 1.68-.227 2.16-.68.48-.467.72-1.06.72-1.78 0-.8-.26-1.413-.78-1.84-.507-.44-1.206-.66-2.1-.66-.893 0-1.6.22-2.12.66-.52.427-.78 1.04-.78 1.84 0 .72.24 1.313.72 1.78.493.453 1.22.68 2.18.68Zm11.903 1.8c-.987 0-1.84-.173-2.56-.52-.72-.36-1.294-.847-1.72-1.46a4.826 4.826 0 0 1-.76-2.12h2.08a2.81 2.81 0 0 0 1 1.66c.533.427 1.193.64 1.98.64.586 0 1.093-.14 1.52-.42.426-.293.76-.68 1-1.16.24-.48.36-1.02.36-1.62 0-.947-.267-1.7-.8-2.26-.534-.573-1.207-.86-2.02-.86-.694 0-1.287.167-1.78.5-.494.32-.854.727-1.08 1.22h-2.02l1.2-7.84h7.56v1.86h-5.96l-.72 3.74c.306-.347.726-.633 1.26-.86.546-.24 1.16-.36 1.84-.36.946 0 1.76.22 2.44.66.68.427 1.2 1.007 1.56 1.74.373.733.56 1.547.56 2.44 0 .933-.2 1.78-.6 2.54-.4.76-.974 1.367-1.72 1.82-.734.44-1.607.66-2.62.66Zm7.604-.12c-.4 0-.734-.127-1-.38a1.32 1.32 0 0 1-.38-.94c0-.373.126-.687.38-.94.266-.267.6-.4 1-.4s.726.133.98.4c.253.253.38.567.38.94 0 .36-.127.673-.38.94-.254.253-.58.38-.98.38Zm2.696-.12v-1.52a63.015 63.015 0 0 0 2.6-2.18 28.335 28.335 0 0 0 2.2-2.16c.653-.72 1.166-1.42 1.54-2.1.373-.693.56-1.36.56-2 0-.427-.074-.827-.22-1.2a1.902 1.902 0 0 0-.72-.92c-.334-.24-.78-.36-1.34-.36-.84 0-1.474.267-1.9.8-.414.533-.614 1.173-.6 1.92h-2.06c.013-.987.22-1.813.62-2.48a4.082 4.082 0 0 1 1.64-1.52c.693-.347 1.473-.52 2.34-.52 1.32 0 2.373.373 3.16 1.12.8.733 1.2 1.76 1.2 3.08 0 .787-.194 1.567-.58 2.34-.374.773-.867 1.52-1.48 2.24-.6.707-1.247 1.373-1.94 2a48.501 48.501 0 0 1-1.98 1.7h6.4V155h-9.44Zm10.845 0v-1.52a62.541 62.541 0 0 0 2.6-2.18 28.158 28.158 0 0 0 2.2-2.16c.653-.72 1.167-1.42 1.54-2.1.373-.693.56-1.36.56-2 0-.427-.073-.827-.22-1.2a1.902 1.902 0 0 0-.72-.92c-.333-.24-.78-.36-1.34-.36-.84 0-1.473.267-1.9.8-.413.533-.613 1.173-.6 1.92h-2.06c.013-.987.22-1.813.62-2.48a4.082 4.082 0 0 1 1.64-1.52c.693-.347 1.473-.52 2.34-.52 1.32 0 2.373.373 3.16 1.12.8.733 1.2 1.76 1.2 3.08 0 .787-.193 1.567-.58 2.34-.373.773-.867 1.52-1.48 2.24-.6.707-1.247 1.373-1.94 2a47.188 47.188 0 0 1-1.98 1.7h6.4V155h-9.44Zm10.845 0v-1.52a61.893 61.893 0 0 0 2.6-2.18 28.158 28.158 0 0 0 2.2-2.16c.654-.72 1.167-1.42 1.54-2.1.374-.693.56-1.36.56-2 0-.427-.073-.827-.22-1.2a1.89 1.89 0 0 0-.72-.92c-.333-.24-.78-.36-1.34-.36-.84 0-1.473.267-1.9.8-.413.533-.613 1.173-.6 1.92h-2.06c.014-.987.22-1.813.62-2.48a4.089 4.089 0 0 1 1.64-1.52c.694-.347 1.474-.52 2.34-.52 1.32 0 2.374.373 3.16 1.12.8.733 1.2 1.76 1.2 3.08 0 .787-.193 1.567-.58 2.34a10.47 10.47 0 0 1-1.48 2.24c-.6.707-1.246 1.373-1.94 2a47.188 47.188 0 0 1-1.98 1.7h6.4V155h-9.44Zm9.866 2.36 1.16-4.72h2.1l-1.84 4.72h-1.42Zm10.342-2.12c-1.267 0-2.36-.3-3.28-.9-.907-.613-1.607-1.46-2.1-2.54-.48-1.093-.72-2.36-.72-3.8s.24-2.7.72-3.78c.493-1.093 1.193-1.94 2.1-2.54.92-.613 2.013-.92 3.28-.92 1.266 0 2.353.307 3.26.92.906.6 1.6 1.447 2.08 2.54.493 1.08.74 2.34.74 3.78s-.247 2.707-.74 3.8c-.48 1.08-1.174 1.927-2.08 2.54-.907.6-1.994.9-3.26.9Zm0-1.9c.76 0 1.433-.213 2.02-.64.6-.427 1.066-1.04 1.4-1.84.333-.8.5-1.753.5-2.86s-.167-2.06-.5-2.86c-.334-.8-.8-1.413-1.4-1.84a3.344 3.344 0 0 0-2.02-.64c-.774 0-1.454.213-2.04.64-.587.427-1.047 1.04-1.38 1.84-.334.8-.5 1.753-.5 2.86s.166 2.06.5 2.86c.333.8.793 1.413 1.38 1.84.586.427 1.266.64 2.04.64Zm13.443 1.9c-1.267 0-2.36-.3-3.28-.9-.907-.613-1.607-1.46-2.1-2.54-.48-1.093-.72-2.36-.72-3.8s.24-2.7.72-3.78c.493-1.093 1.193-1.94 2.1-2.54.92-.613 2.013-.92 3.28-.92 1.266 0 2.353.307 3.26.92.906.6 1.6 1.447 2.08 2.54.493 1.08.74 2.34.74 3.78s-.247 2.707-.74 3.8c-.48 1.08-1.174 1.927-2.08 2.54-.907.6-1.994.9-3.26.9Zm0-1.9c.76 0 1.433-.213 2.02-.64.6-.427 1.066-1.04 1.4-1.84.333-.8.5-1.753.5-2.86s-.167-2.06-.5-2.86c-.334-.8-.8-1.413-1.4-1.84a3.344 3.344 0 0 0-2.02-.64c-.774 0-1.454.213-2.04.64-.587.427-1.047 1.04-1.38 1.84-.334.8-.5 1.753-.5 2.86s.166 2.06.5 2.86c.333.8.793 1.413 1.38 1.84.586.427 1.266.64 2.04.64Z"/><rect width="147" height="77" x="198.653" y="99" fill="#F8F8F8" rx="10"/><path fill="#1A191E" d="M245.427 129v-8.727h5.471v1.133h-4.155v2.659h3.87v1.13h-3.87v2.671h4.206V129h-5.522Zm8.133-6.545 1.445 2.548 1.457-2.548h1.394l-2.041 3.272 2.058 3.273h-1.394l-1.474-2.446-1.47 2.446h-1.398l2.037-3.273-2.011-3.272h1.397Zm5.604 9v-9h1.244v1.061h.107c.074-.137.18-.294.32-.473.139-.179.332-.336.579-.469.247-.136.574-.205.98-.205.529 0 1 .134 1.415.401.415.267.74.652.976 1.155.239.503.358 1.108.358 1.815 0 .707-.118 1.314-.354 1.82-.236.502-.56.89-.971 1.163-.412.27-.883.405-1.411.405-.398 0-.723-.067-.976-.2a1.853 1.853 0 0 1-.588-.469 3.592 3.592 0 0 1-.328-.477h-.077v3.473h-1.274Zm1.249-5.728c0 .46.066.864.2 1.211.134.346.327.617.58.813.252.194.562.29.929.29.38 0 .698-.101.954-.302.256-.205.449-.482.58-.831.133-.35.2-.743.2-1.181 0-.432-.065-.819-.196-1.163a1.78 1.78 0 0 0-.58-.814c-.255-.199-.575-.298-.958-.298-.37 0-.682.095-.938.285a1.75 1.75 0 0 0-.575.797 3.319 3.319 0 0 0-.196 1.193Zm8.978 3.405c-.644 0-1.2-.138-1.666-.413a2.808 2.808 0 0 1-1.074-1.172c-.25-.506-.375-1.098-.375-1.777 0-.671.125-1.261.375-1.773.253-.511.605-.91 1.057-1.197.455-.287.986-.431 1.594-.431.369 0 .727.061 1.074.184.346.122.657.313.933.575.276.261.493.601.652 1.018.159.415.239.919.239 1.513v.452h-5.203v-.955h3.954c0-.335-.068-.632-.204-.89a1.546 1.546 0 0 0-.576-.618 1.603 1.603 0 0 0-.861-.226c-.357 0-.67.088-.937.264a1.777 1.777 0 0 0-.614.682 1.968 1.968 0 0 0-.213.908v.745c0 .438.077.81.23 1.117.157.307.374.541.652.703.279.159.604.239.976.239.242 0 .462-.035.661-.103a1.37 1.37 0 0 0 .848-.831l1.206.218c-.097.355-.27.666-.52.933-.247.264-.558.47-.933.618a3.496 3.496 0 0 1-1.275.217Zm5.497-4.018V129h-1.275v-6.545h1.223v1.065h.081c.151-.347.387-.625.708-.835.324-.211.731-.316 1.223-.316.446 0 .836.094 1.172.282.335.184.595.46.779.826.185.367.277.82.277 1.36V129h-1.274v-4.01c0-.474-.123-.845-.37-1.112-.248-.27-.587-.405-1.019-.405-.295 0-.558.064-.788.192a1.371 1.371 0 0 0-.541.562c-.131.245-.196.54-.196.887Zm10.802-1.061-1.155.204a1.367 1.367 0 0 0-.23-.422 1.138 1.138 0 0 0-.417-.328 1.521 1.521 0 0 0-.661-.128c-.361 0-.662.081-.903.243-.242.159-.363.365-.363.618a.65.65 0 0 0 .243.528c.162.134.424.243.784.329l1.04.238c.602.139 1.051.354 1.347.644.295.289.443.666.443 1.129 0 .392-.114.741-.341 1.048-.224.304-.538.543-.942.716-.4.173-.865.26-1.393.26-.733 0-1.331-.156-1.794-.469-.463-.315-.747-.762-.853-1.342l1.232-.187c.077.321.234.563.473.728.239.162.55.243.933.243.418 0 .752-.087 1.002-.26.25-.176.375-.39.375-.643a.67.67 0 0 0-.23-.516c-.151-.139-.383-.244-.695-.315l-1.108-.243c-.611-.139-1.062-.361-1.355-.665-.29-.304-.435-.689-.435-1.155 0-.386.108-.724.324-1.014.216-.29.514-.516.895-.678a3.28 3.28 0 0 1 1.308-.247c.708 0 1.264.154 1.671.461.406.304.674.711.805 1.223Zm4.35 5.079c-.645 0-1.2-.138-1.666-.413a2.808 2.808 0 0 1-1.074-1.172c-.25-.506-.375-1.098-.375-1.777 0-.671.125-1.261.375-1.773.253-.511.605-.91 1.057-1.197.454-.287.985-.431 1.593-.431.37 0 .728.061 1.074.184.347.122.658.313.933.575.276.261.493.601.652 1.018.16.415.239.919.239 1.513v.452h-5.203v-.955h3.955c0-.335-.069-.632-.205-.89a1.537 1.537 0 0 0-.575-.618 1.607 1.607 0 0 0-.861-.226c-.358 0-.671.088-.938.264a1.774 1.774 0 0 0-.613.682 1.968 1.968 0 0 0-.213.908v.745c0 .438.076.81.23 1.117.156.307.373.541.652.703.278.159.603.239.976.239.241 0 .461-.035.66-.103a1.368 1.368 0 0 0 .848-.831l1.206.218c-.096.355-.27.666-.52.933-.247.264-.558.47-.933.618a3.49 3.49 0 0 1-1.274.217Zm9.127-5.079-1.155.204a1.367 1.367 0 0 0-.23-.422 1.15 1.15 0 0 0-.418-.328 1.513 1.513 0 0 0-.66-.128c-.361 0-.662.081-.904.243-.241.159-.362.365-.362.618a.65.65 0 0 0 .243.528c.162.134.423.243.784.329l1.04.238c.602.139 1.051.354 1.346.644.296.289.443.666.443 1.129 0 .392-.113.741-.34 1.048-.225.304-.539.543-.942.716-.401.173-.865.26-1.394.26-.733 0-1.331-.156-1.794-.469-.463-.315-.747-.762-.852-1.342l1.232-.187c.076.321.234.563.473.728.238.162.549.243.933.243.417 0 .751-.087 1.001-.26.25-.176.375-.39.375-.643a.666.666 0 0 0-.23-.516c-.15-.139-.382-.244-.694-.315l-1.108-.243c-.611-.139-1.063-.361-1.356-.665-.289-.304-.434-.689-.434-1.155 0-.386.108-.724.324-1.014.216-.29.514-.516.895-.678.38-.164.816-.247 1.308-.247.707 0 1.264.154 1.67.461.406.304.675.711.806 1.223ZM217.793 150.08v-1.78h8.14v1.78h-8.14Zm18.29 6.66v-1.54c-1.307-.147-2.353-.607-3.14-1.38-.787-.773-1.187-1.787-1.2-3.04h2.24c.013.627.2 1.18.56 1.66.36.467.873.78 1.54.94v-4.82a4.752 4.752 0 0 1-.34-.1c-.107-.04-.22-.08-.34-.12-1.08-.36-1.893-.827-2.44-1.4-.533-.573-.8-1.327-.8-2.26-.013-1.093.34-1.987 1.06-2.68.72-.693 1.673-1.1 2.86-1.22v-1.6h1.36v1.62c1.16.133 2.093.553 2.8 1.26.707.707 1.067 1.593 1.08 2.66h-2.24a2.192 2.192 0 0 0-.44-1.24c-.267-.4-.667-.673-1.2-.82v4.28l.32.12c.107.027.213.06.32.1a9.58 9.58 0 0 1 1.86.82c.547.32.98.74 1.3 1.26.333.52.5 1.18.5 1.98 0 .667-.16 1.293-.48 1.88-.32.573-.8 1.053-1.44 1.44-.64.387-1.433.613-2.38.68v1.52h-1.36Zm-1.72-12.24c0 .533.153.947.46 1.24.307.28.727.527 1.26.74v-3.88c-.507.093-.92.307-1.24.64-.32.32-.48.74-.48 1.26Zm5.14 6.86c0-.653-.193-1.147-.58-1.48-.387-.347-.88-.633-1.48-.86v4.4c.653-.08 1.16-.307 1.52-.68.36-.373.54-.833.54-1.38Zm8.838 3.88c-.987 0-1.84-.173-2.56-.52-.72-.36-1.294-.847-1.72-1.46a4.813 4.813 0 0 1-.76-2.12h2.08c.133.667.466 1.22 1 1.66.533.427 1.193.64 1.98.64.586 0 1.093-.14 1.52-.42.426-.293.76-.68 1-1.16.24-.48.36-1.02.36-1.62 0-.947-.267-1.7-.8-2.26-.534-.573-1.207-.86-2.02-.86-.694 0-1.287.167-1.78.5-.494.32-.854.727-1.08 1.22h-2.02l1.2-7.84h7.56v1.86h-5.96l-.72 3.74c.306-.347.726-.633 1.26-.86.546-.24 1.16-.36 1.84-.36.946 0 1.76.22 2.44.66.68.427 1.2 1.007 1.56 1.74.373.733.56 1.547.56 2.44 0 .933-.2 1.78-.6 2.54-.4.76-.974 1.367-1.72 1.82-.734.44-1.607.66-2.62.66Zm6.31-.24v-1.52a62.541 62.541 0 0 0 2.6-2.18 28.158 28.158 0 0 0 2.2-2.16c.653-.72 1.167-1.42 1.54-2.1.373-.693.56-1.36.56-2 0-.427-.073-.827-.22-1.2a1.902 1.902 0 0 0-.72-.92c-.333-.24-.78-.36-1.34-.36-.84 0-1.473.267-1.9.8-.413.533-.613 1.173-.6 1.92h-2.06c.013-.987.22-1.813.62-2.48a4.082 4.082 0 0 1 1.64-1.52c.693-.347 1.473-.52 2.34-.52 1.32 0 2.373.373 3.16 1.12.8.733 1.2 1.76 1.2 3.08 0 .787-.193 1.567-.58 2.34-.373.773-.867 1.52-1.48 2.24-.6.707-1.247 1.373-1.94 2a47.188 47.188 0 0 1-1.98 1.7h6.4V155h-9.44Zm11.885.12c-.4 0-.733-.127-1-.38a1.322 1.322 0 0 1-.38-.94c0-.373.127-.687.38-.94.267-.267.6-.4 1-.4s.727.133.98.4c.254.253.38.567.38.94 0 .36-.126.673-.38.94-.253.253-.58.38-.98.38Zm3.87-.12v-11.6l-2.26.52v-1.56l3.1-1.36h1.36v14h-2.2Zm9.324.24c-.987 0-1.84-.173-2.56-.52a4.506 4.506 0 0 1-1.72-1.46 4.825 4.825 0 0 1-.76-2.12h2.08c.133.667.467 1.22 1 1.66.533.427 1.193.64 1.98.64.587 0 1.093-.14 1.52-.42.427-.293.76-.68 1-1.16.24-.48.36-1.02.36-1.62 0-.947-.267-1.7-.8-2.26-.533-.573-1.207-.86-2.02-.86-.693 0-1.287.167-1.78.5-.493.32-.853.727-1.08 1.22h-2.02l1.2-7.84h7.56v1.86h-5.96l-.72 3.74c.307-.347.727-.633 1.26-.86.547-.24 1.16-.36 1.84-.36.947 0 1.76.22 2.44.66.68.427 1.2 1.007 1.56 1.74.373.733.56 1.547.56 2.44 0 .933-.2 1.78-.6 2.54a4.6 4.6 0 0 1-1.72 1.82c-.733.44-1.607.66-2.62.66Zm12.444 0c-1.267 0-2.36-.3-3.28-.9-.907-.613-1.607-1.46-2.1-2.54-.48-1.093-.72-2.36-.72-3.8s.24-2.7.72-3.78c.493-1.093 1.193-1.94 2.1-2.54.92-.613 2.013-.92 3.28-.92s2.353.307 3.26.92c.907.6 1.6 1.447 2.08 2.54.493 1.08.74 2.34.74 3.78s-.247 2.707-.74 3.8c-.48 1.08-1.173 1.927-2.08 2.54-.907.6-1.993.9-3.26.9Zm0-1.9c.76 0 1.433-.213 2.02-.64.6-.427 1.067-1.04 1.4-1.84.333-.8.5-1.753.5-2.86s-.167-2.06-.5-2.86c-.333-.8-.8-1.413-1.4-1.84a3.344 3.344 0 0 0-2.02-.64c-.773 0-1.453.213-2.04.64-.587.427-1.047 1.04-1.38 1.84-.333.8-.5 1.753-.5 2.86s.167 2.06.5 2.86c.333.8.793 1.413 1.38 1.84.587.427 1.267.64 2.04.64Zm5.978 4.02 1.16-4.72h2.1l-1.84 4.72h-1.42Zm9.622-2.12c-.987 0-1.84-.173-2.56-.52-.72-.36-1.294-.847-1.72-1.46a4.813 4.813 0 0 1-.76-2.12h2.08c.133.667.466 1.22 1 1.66.533.427 1.193.64 1.98.64.586 0 1.093-.14 1.52-.42.426-.293.76-.68 1-1.16.24-.48.36-1.02.36-1.62 0-.947-.267-1.7-.8-2.26-.534-.573-1.207-.86-2.02-.86-.694 0-1.287.167-1.78.5-.494.32-.854.727-1.08 1.22h-2.02l1.2-7.84h7.56v1.86h-5.96l-.72 3.74c.306-.347.726-.633 1.26-.86.546-.24 1.16-.36 1.84-.36.946 0 1.76.22 2.44.66.68.427 1.2 1.007 1.56 1.74.373.733.56 1.547.56 2.44 0 .933-.2 1.78-.6 2.54-.4.76-.974 1.367-1.72 1.82-.734.44-1.607.66-2.62.66Zm12.444 0c-1.267 0-2.36-.3-3.28-.9-.907-.613-1.607-1.46-2.1-2.54-.48-1.093-.72-2.36-.72-3.8s.24-2.7.72-3.78c.493-1.093 1.193-1.94 2.1-2.54.92-.613 2.013-.92 3.28-.92s2.353.307 3.26.92c.907.6 1.6 1.447 2.08 2.54.493 1.08.74 2.34.74 3.78s-.247 2.707-.74 3.8c-.48 1.08-1.173 1.927-2.08 2.54-.907.6-1.993.9-3.26.9Zm0-1.9c.76 0 1.433-.213 2.02-.64.6-.427 1.067-1.04 1.4-1.84.333-.8.5-1.753.5-2.86s-.167-2.06-.5-2.86c-.333-.8-.8-1.413-1.4-1.84a3.344 3.344 0 0 0-2.02-.64c-.773 0-1.453.213-2.04.64-.587.427-1.047 1.04-1.38 1.84-.333.8-.5 1.753-.5 2.86s.167 2.06.5 2.86c.333.8.793 1.413 1.38 1.84.587.427 1.267.64 2.04.64Z"/><rect width="20" height="200" x="38.273" y="269" fill="#F3F3F3" rx="4"/><rect width="20" height="144" x="38.273" y="325" fill="#5BB5A2" rx="4"/><rect width="20" height="72" x="38.273" y="397" fill="#F1DFDF" rx="4"/><path fill="#1A191E" d="M40.905 490.818h1.532l-.08 7.218c-.006.653-.142 1.211-.405 1.675-.26.464-.624.819-1.09 1.064-.467.242-1.012.363-1.635.363-.573 0-1.088-.104-1.543-.313a2.503 2.503 0 0 1-1.069-.91c-.257-.401-.383-.888-.377-1.461h1.527c-.003.281.059.525.186.731.13.205.309.366.536.482.231.112.495.169.794.169.325 0 .6-.068.827-.204.23-.139.407-.343.529-.612.122-.268.185-.596.19-.984l.078-7.218Zm5.758 10.35c-.484 0-.92-.089-1.31-.268a2.18 2.18 0 0 1-.92-.791c-.222-.344-.33-.767-.325-1.267.005-.431.091-.786.26-1.064.169-.279.395-.499.678-.662.284-.162.6-.285.949-.367a9.39 9.39 0 0 1 1.066-.189l1.115-.13c.285-.036.493-.094.623-.174.13-.079.197-.208.199-.387v-.035c.005-.434-.114-.771-.357-1.009-.24-.239-.6-.358-1.08-.358-.5 0-.896.111-1.187.333-.287.219-.487.462-.6.731l-1.393-.319c.17-.464.417-.838.738-1.123a2.986 2.986 0 0 1 1.116-.626c.419-.133.858-.199 1.32-.199.304 0 .627.036.968.109.343.07.663.199.96.388.3.189.543.459.732.81.188.348.28.801.273 1.357l-.055 5.071h-1.452l.012-1.044h-.06a2.158 2.158 0 0 1-.439.567 2.33 2.33 0 0 1-.745.462c-.303.123-.665.184-1.086.184Zm.336-1.193c.41 0 .763-.081 1.057-.244.296-.162.522-.374.678-.636.158-.265.24-.548.243-.85l.01-.984c-.053.053-.157.102-.31.149-.15.043-.32.081-.513.114-.192.03-.38.058-.563.085l-.458.059a3.755 3.755 0 0 0-.792.184 1.38 1.38 0 0 0-.57.373c-.142.159-.214.371-.217.636-.004.368.13.647.399.836.27.185.615.278 1.036.278Zm6.95-3.51-.05 4.534h-1.486l.083-7.636h1.427l-.014 1.243h.095c.18-.404.459-.729.836-.974.38-.246.857-.368 1.43-.368.521 0 .976.109 1.364.328.389.215.689.537.9.964.21.428.312.956.306 1.586l-.053 4.857H57.3l.051-4.678c.006-.553-.133-.986-.418-1.297-.285-.315-.68-.473-1.183-.473-.345 0-.653.075-.923.224-.266.149-.48.368-.638.656-.156.285-.236.63-.24 1.034Z"/><rect width="20" height="200" x="94.255" y="269" fill="#F3F3F3" rx="4"/><rect width="20" height="160" x="94.482" y="309" fill="#5BB5A2" rx="4"/><rect width="20" height="97" x="94.597" y="372" fill="#F1DFDF" rx="4"/><path fill="#1A191E" d="m92.99 500.999.11-10.181h6.314l-.014 1.322h-4.778l-.034 3.102h4.326l-.015 1.318h-4.325l-.048 4.439h-1.537Zm10.812.154c-.752 0-1.398-.161-1.938-.482a3.219 3.219 0 0 1-1.238-1.367c-.286-.59-.424-1.281-.415-2.073.008-.782.161-1.472.46-2.068a3.444 3.444 0 0 1 1.248-1.397c.534-.335 1.155-.502 1.865-.502.431 0 .847.071 1.25.213.403.143.763.367 1.082.672.318.305.567.701.747 1.188.181.484.267 1.072.26 1.765l-.006.527h-6.07l.012-1.114h4.613a2.169 2.169 0 0 0-.227-1.039 1.782 1.782 0 0 0-.663-.721 1.86 1.86 0 0 0-1.002-.263c-.417 0-.783.102-1.097.308-.31.202-.552.467-.724.795-.17.325-.256.678-.261 1.059l-.009.87c-.006.511.079.945.254 1.303.179.358.429.631.752.82.323.185.701.278 1.135.278.282 0 .539-.04.772-.119a1.617 1.617 0 0 0 1-.969l1.404.253a2.586 2.586 0 0 1-.618 1.089 2.993 2.993 0 0 1-1.097.721c-.436.169-.932.253-1.489.253Zm5.047-.154.111-10.181h1.486l-.041 3.783h.089c.088-.159.215-.343.379-.552.165-.209.392-.391.682-.547.29-.159.672-.238 1.146-.238.617 0 1.165.155 1.646.467.48.312.855.761 1.124 1.347.272.587.403 1.293.394 2.118-.009.825-.154 1.533-.435 2.123-.282.586-.665 1.039-1.149 1.357a2.957 2.957 0 0 1-1.65.472c-.464 0-.843-.078-1.136-.233a2.145 2.145 0 0 1-.681-.547 4.076 4.076 0 0 1-.376-.557h-.125l-.013 1.188h-1.451Zm1.498-3.818c-.006.537.067 1.008.218 1.412.152.404.374.721.666.949.293.226.653.339 1.08.339.444 0 .817-.118 1.118-.353.301-.239.53-.562.686-.97a3.85 3.85 0 0 0 .249-1.377 3.766 3.766 0 0 0-.214-1.357 2.05 2.05 0 0 0-.666-.95c-.295-.232-.667-.348-1.114-.348-.431 0-.797.111-1.098.334-.297.222-.524.531-.681.929-.157.398-.238.862-.244 1.392Z"/><rect width="20" height="200" x="151.078" y="269" fill="#F3F3F3" rx="4"/><rect width="20" height="108" x="151.078" y="361" fill="#5BB5A2" rx="4"/><rect width="20" height="60" x="151.078" y="409" fill="#F1DFDF" rx="4"/><path fill="#1A191E" d="M149.253 490.818h1.864l3.155 7.914h.12l3.327-7.914h1.865l-.111 10.181h-1.462l.08-7.367h-.094l-3.083 7.352h-1.213l-2.923-7.357h-.094l-.081 7.372h-1.461l.111-10.181Zm14.554 10.35c-.484 0-.92-.089-1.309-.268a2.181 2.181 0 0 1-.921-.791c-.222-.344-.33-.767-.325-1.267.005-.431.092-.786.261-1.064.168-.279.394-.499.678-.662.283-.162.6-.285.949-.367a9.348 9.348 0 0 1 1.066-.189l1.115-.13c.285-.036.493-.094.623-.174.13-.079.196-.208.198-.387v-.035c.005-.434-.114-.771-.357-1.009-.239-.239-.599-.358-1.079-.358-.501 0-.897.111-1.187.333-.288.219-.488.462-.6.731l-1.393-.319c.17-.464.416-.838.738-1.123a2.978 2.978 0 0 1 1.115-.626 4.337 4.337 0 0 1 1.32-.199c.305 0 .627.036.968.109.344.07.664.199.96.388.3.189.544.459.732.81.189.348.28.801.274 1.357l-.055 5.071h-1.452l.011-1.044h-.059a2.184 2.184 0 0 1-.439.567c-.194.185-.443.34-.746.462-.303.123-.665.184-1.086.184Zm.336-1.193c.411 0 .764-.081 1.057-.244.297-.162.523-.374.678-.636.159-.265.24-.548.243-.85l.011-.984c-.054.053-.157.102-.31.149-.15.043-.321.081-.513.114l-.563.085-.458.059a3.763 3.763 0 0 0-.793.184 1.377 1.377 0 0 0-.57.373c-.141.159-.213.371-.216.636-.004.368.129.647.398.836.27.185.616.278 1.036.278Zm5.415 1.024.083-7.636h1.436l-.013 1.213h.08c.144-.411.392-.734.746-.969.357-.239.76-.358 1.207-.358a5.958 5.958 0 0 1 .631.035l-.015 1.421a2.892 2.892 0 0 0-.318-.054 3.048 3.048 0 0 0-.457-.035c-.351 0-.665.074-.942.224a1.683 1.683 0 0 0-.901 1.496l-.051 4.663h-1.486Z"/><rect width="20" height="200" x="207.229" y="269" fill="#F3F3F3" rx="4"/><rect width="20" height="84" x="207.229" y="385" fill="#5BB5A2" rx="4"/><rect width="20" height="44" x="207.229" y="425" fill="#F1DFDF" rx="4"/><path fill="#1A191E" d="M207.153 500.999h-1.63l3.774-10.181h1.775l3.554 10.181h-1.631l-2.788-8.332h-.08l-2.974 8.332Zm.317-3.987h5.29l-.014 1.293h-5.29l.014-1.293Zm8.475 6.851.115-10.5h1.451l-.013 1.238h.124c.088-.159.214-.343.379-.552.165-.209.392-.391.682-.547.29-.159.672-.238 1.146-.238.617 0 1.165.155 1.646.467.48.312.855.761 1.123 1.347.273.587.404 1.293.395 2.118-.009.825-.154 1.533-.436 2.123-.281.586-.664 1.039-1.148 1.357a2.958 2.958 0 0 1-1.651.472c-.464 0-.842-.078-1.136-.233a2.14 2.14 0 0 1-.68-.547 4.189 4.189 0 0 1-.377-.557h-.089l-.044 4.052h-1.487Zm1.53-6.682c-.006.537.067 1.008.218 1.412.151.404.373.721.666.949.292.226.652.339 1.08.339.444 0 .817-.118 1.117-.353.301-.239.53-.562.687-.97.16-.408.243-.867.249-1.377a3.788 3.788 0 0 0-.214-1.357 2.05 2.05 0 0 0-.666-.95c-.296-.232-.667-.348-1.115-.348-.431 0-.796.111-1.097.334-.298.222-.525.531-.681.929-.157.398-.238.862-.244 1.392Zm7.142 3.818.083-7.636h1.437l-.013 1.213h.079c.144-.411.393-.734.747-.969a2.12 2.12 0 0 1 1.207-.358 5.958 5.958 0 0 1 .631.035l-.016 1.421a2.818 2.818 0 0 0-.317-.054 3.058 3.058 0 0 0-.457-.035 1.94 1.94 0 0 0-.942.224 1.676 1.676 0 0 0-.653.611 1.673 1.673 0 0 0-.249.885l-.05 4.663h-1.487Z"/><rect width="20" height="200" x="265.053" y="269" fill="#F3F3F3" rx="4"/><rect width="20" height="136" x="264.71" y="333" fill="#5BB5A2" rx="4"/><rect width="20" height="51" x="264.824" y="418" fill="#F1DFDF" rx="4"/><path fill="#1A191E" d="M261.556 490.818h1.865l3.155 7.914h.119l3.328-7.914h1.864l-.111 10.181h-1.461l.08-7.367h-.094l-3.083 7.352h-1.213l-2.923-7.357h-.095l-.08 7.372h-1.462l.111-10.181Zm14.555 10.35c-.484 0-.92-.089-1.31-.268a2.181 2.181 0 0 1-.921-.791c-.221-.344-.329-.767-.324-1.267.005-.431.092-.786.26-1.064.169-.279.395-.499.679-.662.283-.162.599-.285.948-.367a9.387 9.387 0 0 1 1.066-.189l1.115-.13c.286-.036.493-.094.624-.174.13-.079.196-.208.198-.387v-.035c.005-.434-.114-.771-.357-1.009-.239-.239-.599-.358-1.08-.358-.5 0-.896.111-1.187.333-.287.219-.487.462-.599.731l-1.394-.319c.171-.464.417-.838.738-1.123a2.99 2.99 0 0 1 1.116-.626 4.335 4.335 0 0 1 1.319-.199c.305 0 .628.036.969.109.344.07.664.199.96.388.3.189.544.459.732.81.188.348.28.801.274 1.357l-.056 5.071h-1.451l.011-1.044h-.06a2.157 2.157 0 0 1-.438.567 2.34 2.34 0 0 1-.746.462c-.303.123-.665.184-1.086.184Zm.336-1.193c.411 0 .763-.081 1.057-.244.297-.162.523-.374.678-.636.159-.265.24-.548.243-.85l.011-.984c-.054.053-.157.102-.31.149-.15.043-.321.081-.514.114l-.562.085-.458.059a3.763 3.763 0 0 0-.793.184 1.387 1.387 0 0 0-.571.373c-.141.159-.213.371-.215.636-.004.368.128.647.398.836.27.185.615.278 1.036.278Zm6.049 3.888c-.222 0-.424-.019-.606-.055a1.857 1.857 0 0 1-.406-.11l.371-1.218c.271.073.513.105.725.095a.88.88 0 0 0 .564-.239c.168-.149.316-.392.446-.73l.189-.508-2.71-7.735h1.591l1.87 5.926h.079l1.999-5.926h1.596l-3.242 8.655c-.15.398-.339.734-.567 1.009-.229.279-.5.488-.813.627a2.653 2.653 0 0 1-1.086.209Z"/><rect width="20" height="200" x="323.212" y="269" fill="#F3F3F3" rx="4"/><rect width="20" height="153" x="322.855" y="316" fill="#5BB5A2" rx="4"/><rect width="20" height="41" x="322.855" y="428" fill="#F1DFDF" rx="4"/><path fill="#1A191E" d="M325.666 490.818h1.531l-.078 7.218c-.007.653-.143 1.211-.406 1.675a2.632 2.632 0 0 1-1.091 1.064c-.466.242-1.011.363-1.634.363-.574 0-1.088-.104-1.543-.313a2.504 2.504 0 0 1-1.069-.91c-.258-.401-.383-.888-.377-1.461h1.526c-.003.281.059.525.186.731.131.205.31.366.537.482.231.112.495.169.794.169.324 0 .6-.068.827-.204.23-.139.407-.343.529-.612.122-.268.185-.596.189-.984l.079-7.218Zm8.409 7.014.049-4.469h1.491l-.083 7.636h-1.462l.015-1.322h-.08c-.18.407-.465.747-.856 1.019-.388.268-.868.402-1.441.402-.491 0-.924-.107-1.299-.323a2.236 2.236 0 0 1-.875-.969c-.207-.428-.308-.956-.301-1.586l.053-4.857h1.487l-.051 4.678c-.006.52.134.935.419 1.243.285.308.658.462 1.118.462.279 0 .556-.069.833-.209.28-.139.512-.349.698-.631.188-.282.284-.64.285-1.074Zm4.99-1.367-.049 4.534h-1.487l.083-7.636h1.427l-.013 1.243h.094c.18-.404.459-.729.836-.974.381-.246.857-.368 1.431-.368.52 0 .975.109 1.364.328.388.215.688.537.899.964.211.428.313.956.306 1.586l-.053 4.857h-1.487l.051-4.678c.006-.553-.133-.986-.418-1.297-.285-.315-.679-.473-1.183-.473-.345 0-.652.075-.922.224-.267.149-.48.368-.639.656-.156.285-.235.63-.24 1.034Z"/><rect width="12" height="12" fill="#5BB5A2" rx="6" transform="matrix(.99999 .0055 -.01638 .99987 35.889 203.968)"/><path fill="#1A191E" d="m56.733 214.5.095-8.727H62.3l-.013 1.133h-4.154l-.03 2.659h3.87l-.012 1.129h-3.87l-.029 2.672h4.206l-.012 1.134h-5.523Zm9.032.145c-.415 0-.79-.077-1.123-.231a1.865 1.865 0 0 1-.79-.677c-.19-.296-.282-.658-.277-1.087.004-.369.078-.673.223-.912.144-.238.338-.427.581-.566.243-.139.514-.245.813-.316.3-.071.604-.125.914-.162l.956-.11c.244-.032.422-.081.534-.149.111-.069.168-.179.17-.333v-.03c.004-.372-.098-.66-.306-.865-.205-.204-.513-.306-.925-.306-.43 0-.769.095-1.018.285-.246.188-.417.396-.514.626l-1.194-.272c.146-.398.357-.719.633-.963.278-.247.597-.426.956-.537.359-.114.736-.171 1.13-.171.262 0 .539.032.83.094.295.06.57.171.824.332.257.162.466.394.627.695.162.298.24.686.235 1.163l-.048 4.347h-1.244l.01-.895h-.051c-.085.165-.21.327-.376.486-.167.159-.38.291-.64.396-.26.105-.57.158-.93.158Zm.288-1.023c.352 0 .654-.07.906-.209.254-.139.447-.321.58-.545.137-.228.206-.47.209-.729l.01-.844c-.047.046-.135.088-.266.128-.129.037-.275.07-.44.098l-.483.073c-.156.019-.287.037-.392.051a3.22 3.22 0 0 0-.68.157 1.185 1.185 0 0 0-.489.32c-.12.136-.182.318-.185.545-.003.316.11.554.342.716.231.159.527.239.888.239Zm4.64.878.072-6.545h1.231l-.011 1.039h.068c.123-.352.337-.629.64-.831a1.824 1.824 0 0 1 1.034-.306 5.05 5.05 0 0 1 .541.029l-.013 1.219a2.298 2.298 0 0 0-.272-.047c-.13-.02-.261-.03-.392-.03-.301 0-.57.064-.807.192a1.45 1.45 0 0 0-.773 1.283l-.043 3.997h-1.275Zm5.922-3.886-.042 3.886h-1.274l.071-6.545h1.223l-.011 1.065h.08c.155-.347.394-.625.717-.835.326-.211.735-.316 1.226-.316.447 0 .836.094 1.17.282.332.184.59.46.77.826.18.367.268.82.262 1.36l-.045 4.163h-1.274l.043-4.01c.006-.474-.114-.845-.358-1.112-.244-.27-.582-.405-1.014-.405-.296 0-.56.064-.79.192a1.402 1.402 0 0 0-.548.562c-.133.245-.202.54-.206.887Zm5.856 3.886.071-6.545h1.274l-.071 6.545H82.47Zm.725-7.555a.8.8 0 0 1-.568-.222.71.71 0 0 1-.229-.537.721.721 0 0 1 .24-.537.813.813 0 0 1 .574-.226c.222 0 .41.076.564.226a.699.699 0 0 1 .233.537.72.72 0 0 1-.244.537.802.802 0 0 1-.57.222Zm3.58 3.669-.043 3.886H85.46l.071-6.545h1.223l-.011 1.065h.08c.155-.347.394-.625.717-.835.326-.211.735-.316 1.227-.316.446 0 .835.094 1.168.282.334.184.59.46.771.826.18.367.268.82.262 1.36l-.045 4.163h-1.274l.044-4.01c.005-.474-.115-.845-.359-1.112-.244-.27-.582-.405-1.014-.405-.296 0-.559.064-.79.192a1.401 1.401 0 0 0-.548.562c-.133.245-.202.54-.206.887Zm8.571 6.476c-.52 0-.966-.068-1.34-.204a2.565 2.565 0 0 1-.906-.541 2.245 2.245 0 0 1-.52-.737l1.1-.452c.075.125.176.257.302.396.13.142.304.263.525.362.223.1.51.149.863.149.483 0 .883-.117 1.201-.353.318-.233.48-.605.486-1.117l.013-1.286h-.08c-.079.139-.191.294-.338.464-.144.17-.342.318-.593.443-.251.125-.577.188-.978.188a2.7 2.7 0 0 1-1.393-.363c-.41-.244-.733-.603-.969-1.078-.233-.477-.346-1.063-.339-1.759.008-.696.132-1.293.373-1.79.245-.497.575-.878.993-1.142.418-.267.89-.401 1.415-.401.406 0 .733.069.982.205.249.133.441.29.579.469.14.179.248.336.323.473h.093l.012-1.061H98.4l-.073 6.69c-.006.562-.142 1.024-.407 1.384a2.338 2.338 0 0 1-1.07.801 4.1 4.1 0 0 1-1.503.26Zm.028-3.745c.367 0 .677-.085.932-.256.257-.173.453-.42.587-.741.137-.324.208-.712.213-1.163a3.176 3.176 0 0 0-.183-1.164 1.706 1.706 0 0 0-.567-.784c-.25-.19-.562-.285-.934-.285-.384 0-.704.099-.962.298a1.827 1.827 0 0 0-.588.801c-.132.338-.2.716-.205 1.134a2.99 2.99 0 0 0 .184 1.129c.127.324.318.576.572.758.256.182.573.273.951.273Zm9.621-3.792-1.157.204a1.353 1.353 0 0 0-.226-.422 1.127 1.127 0 0 0-.414-.328 1.506 1.506 0 0 0-.659-.128c-.361 0-.663.081-.906.243-.243.159-.366.365-.369.618a.644.644 0 0 0 .237.528c.161.134.421.243.781.328l1.037.239c.601.139 1.047.354 1.34.644.292.289.435.666.43 1.129a1.727 1.727 0 0 1-.352 1.048c-.228.304-.544.543-.949.716-.403.173-.868.26-1.397.26-.733 0-1.329-.156-1.789-.469-.459-.315-.738-.763-.837-1.342l1.233-.188c.073.321.228.564.465.729.237.162.547.243.931.243.418 0 .752-.087 1.004-.26.252-.176.379-.391.382-.644a.66.66 0 0 0-.224-.515c-.149-.139-.38-.244-.691-.315l-1.106-.243c-.609-.14-1.058-.361-1.348-.665-.286-.304-.427-.689-.422-1.155.004-.386.116-.724.335-1.014.219-.29.52-.516.902-.677.383-.165.82-.248 1.311-.248.708 0 1.263.154 1.666.461.403.304.667.711.792 1.223Z"/><rect width="12" height="12" fill="#F1DFDF" rx="6" transform="matrix(.99999 .0055 -.01638 .99987 121.955 203.968)"/><path fill="#1A191E" d="m142.8 214.5.095-8.727h5.471l-.012 1.133h-4.155l-.029 2.659h3.869l-.012 1.129h-3.869l-.029 2.672h4.206l-.013 1.134H142.8Zm8.205-6.545 1.417 2.548 1.485-2.548h1.393l-2.077 3.272 2.023 3.273h-1.393l-1.448-2.446-1.497 2.446h-1.398l2.073-3.273-1.976-3.272h1.398Zm5.505 8.999.098-8.999h1.245l-.012 1.061h.107c.075-.137.183-.294.324-.473.142-.179.337-.336.585-.469.249-.136.576-.205.982-.205.529 0 .999.134 1.411.401.412.267.733.652.963 1.155.233.502.346 1.108.338 1.815-.007.707-.132 1.314-.373 1.819-.241.503-.569.891-.984 1.164-.415.27-.887.404-1.415.404-.398 0-.723-.066-.974-.2a1.806 1.806 0 0 1-.583-.469 3.44 3.44 0 0 1-.323-.477h-.077l-.037 3.473h-1.275Zm1.311-5.727c-.005.46.058.864.187 1.21.13.347.32.618.571.814.251.193.56.29.926.29.381 0 .7-.101.958-.303.258-.204.454-.481.588-.831a3.29 3.29 0 0 0 .214-1.18 3.25 3.25 0 0 0-.184-1.163 1.755 1.755 0 0 0-.57-.814c-.254-.199-.573-.298-.956-.298-.369 0-.683.095-.941.285a1.787 1.787 0 0 0-.584.797 3.354 3.354 0 0 0-.209 1.193Zm8.942 3.405c-.645 0-1.199-.138-1.662-.414a2.764 2.764 0 0 1-1.061-1.171c-.244-.506-.363-1.098-.355-1.777.007-.671.138-1.262.394-1.773.258-.511.615-.91 1.07-1.197.457-.287.99-.431 1.598-.431.369 0 .727.061 1.072.184.345.122.654.313.927.575.273.261.486.601.641 1.018.154.415.229.919.222 1.513l-.005.452h-5.203l.01-.955h3.955a1.855 1.855 0 0 0-.195-.89 1.514 1.514 0 0 0-.568-.618 1.593 1.593 0 0 0-.859-.226c-.358 0-.671.088-.94.264a1.803 1.803 0 0 0-.621.682c-.145.278-.22.581-.223.907l-.008.746c-.005.438.068.81.218 1.117.153.306.367.541.644.703.277.159.601.238.973.238.242 0 .462-.034.662-.102.2-.071.373-.176.519-.315a1.4 1.4 0 0 0 .338-.516l1.204.217a2.224 2.224 0 0 1-.531.934 2.55 2.55 0 0 1-.939.617c-.374.145-.8.218-1.277.218Zm5.54-4.018-.042 3.886h-1.275l.072-6.545h1.223l-.012 1.065h.081c.154-.347.393-.625.716-.835.327-.211.735-.316 1.227-.316.446 0 .836.094 1.169.282.333.184.59.46.771.826.18.367.268.82.262 1.36l-.046 4.163h-1.274l.044-4.01c.005-.474-.114-.845-.359-1.112-.244-.27-.582-.405-1.014-.405-.295 0-.559.064-.79.192a1.398 1.398 0 0 0-.547.562c-.134.245-.202.54-.206.887Zm10.814-1.061-1.157.204a1.353 1.353 0 0 0-.226-.422 1.11 1.11 0 0 0-.414-.328 1.506 1.506 0 0 0-.659-.128c-.361 0-.663.081-.906.243-.243.159-.366.365-.369.618a.644.644 0 0 0 .237.528c.161.134.421.243.781.328l1.037.239c.601.139 1.047.354 1.34.644.292.289.436.666.431 1.129a1.734 1.734 0 0 1-.353 1.048c-.228.304-.544.543-.949.716-.403.173-.868.26-1.397.26-.733 0-1.329-.156-1.789-.469-.459-.315-.738-.763-.837-1.342l1.233-.188c.074.321.229.564.465.729.237.162.548.243.931.243.418 0 .752-.087 1.004-.26.252-.176.38-.391.382-.644a.657.657 0 0 0-.224-.515c-.149-.139-.38-.244-.691-.315l-1.106-.243c-.609-.14-1.058-.361-1.348-.665-.286-.304-.427-.689-.422-1.155.005-.386.116-.724.335-1.014.219-.29.52-.516.902-.677.383-.165.82-.248 1.311-.248.708 0 1.263.154 1.666.461.403.304.667.711.792 1.223Zm4.294 5.079c-.644 0-1.198-.138-1.661-.414a2.758 2.758 0 0 1-1.061-1.171c-.245-.506-.363-1.098-.356-1.777.007-.671.139-1.262.394-1.773.259-.511.615-.91 1.07-1.197.458-.287.991-.431 1.599-.431.369 0 .726.061 1.071.184.346.122.655.313.927.575.273.261.487.601.641 1.018.155.415.229.919.222 1.513l-.004.452h-5.204l.011-.955h3.954a1.866 1.866 0 0 0-.194-.89 1.523 1.523 0 0 0-.569-.618 1.592 1.592 0 0 0-.858-.226 1.68 1.68 0 0 0-.941.264 1.803 1.803 0 0 0-.621.682 1.987 1.987 0 0 0-.223.907l-.008.746c-.005.438.068.81.218 1.117.153.306.368.541.644.703.277.159.602.238.974.238.241 0 .462-.034.661-.102a1.388 1.388 0 0 0 .857-.831l1.204.217c-.1.355-.277.667-.53.934-.25.264-.563.47-.94.617a3.51 3.51 0 0 1-1.277.218Zm9.183-5.079-1.158.204a1.33 1.33 0 0 0-.225-.422 1.127 1.127 0 0 0-.414-.328 1.506 1.506 0 0 0-.659-.128c-.361 0-.663.081-.906.243-.243.159-.366.365-.369.618a.639.639 0 0 0 .237.528c.16.134.421.243.78.328l1.038.239c.6.139 1.047.354 1.339.644.293.289.436.666.431 1.129a1.734 1.734 0 0 1-.352 1.048c-.228.304-.544.543-.95.716-.402.173-.868.26-1.396.26-.733 0-1.329-.156-1.789-.469-.46-.315-.739-.763-.838-1.342l1.234-.188c.073.321.228.564.465.729.237.162.547.243.931.243.417 0 .752-.087 1.004-.26.252-.176.379-.391.382-.644a.661.661 0 0 0-.225-.515c-.149-.139-.379-.244-.691-.315l-1.105-.243c-.609-.14-1.059-.361-1.348-.665-.286-.304-.427-.689-.422-1.155.004-.386.116-.724.335-1.014.219-.29.52-.516.902-.677a3.282 3.282 0 0 1 1.311-.248c.707 0 1.263.154 1.665.461.403.304.667.711.793 1.223Z"/><rect width="61" height="25" x="284.153" y="197.5" stroke="#E8E8E8" rx="3.5"/><path fill="#1A191E" d="M291.939 205.273h1.496l2.279 3.967h.094l2.28-3.967h1.496l-3.166 5.301V214h-1.313v-3.426l-3.166-5.301Zm10.529 8.859c-.645 0-1.201-.138-1.667-.413a2.8 2.8 0 0 1-1.073-1.172c-.25-.506-.375-1.098-.375-1.777 0-.671.125-1.261.375-1.773a2.91 2.91 0 0 1 1.056-1.197c.455-.287.986-.431 1.594-.431.369 0 .727.061 1.074.184.347.122.658.313.933.575.276.261.493.601.652 1.018.159.415.239.919.239 1.513v.452h-5.203v-.955h3.954c0-.335-.068-.632-.204-.89a1.54 1.54 0 0 0-.576-.618 1.601 1.601 0 0 0-.86-.226c-.358 0-.671.088-.938.264a1.777 1.777 0 0 0-.614.682 1.968 1.968 0 0 0-.213.908v.745c0 .438.077.81.231 1.117.156.307.373.541.652.703.278.159.603.239.975.239.242 0 .462-.035.661-.103a1.43 1.43 0 0 0 .516-.315 1.38 1.38 0 0 0 .332-.516l1.206.218c-.097.355-.27.666-.52.933-.247.264-.558.47-.933.618a3.49 3.49 0 0 1-1.274.217Zm6.126.013c-.414 0-.789-.077-1.125-.23a1.898 1.898 0 0 1-.797-.678c-.193-.295-.289-.657-.289-1.086 0-.37.071-.674.213-.912.142-.239.334-.428.575-.567a3.01 3.01 0 0 1 .81-.315c.298-.071.602-.125.912-.162l.954-.111c.245-.031.422-.081.533-.149.111-.069.166-.179.166-.333v-.03c0-.372-.105-.66-.315-.865-.208-.204-.517-.306-.929-.306-.429 0-.767.095-1.014.285-.245.188-.414.396-.508.626l-1.197-.272c.142-.398.349-.719.622-.963a2.53 2.53 0 0 1 .95-.537 3.703 3.703 0 0 1 1.13-.171c.261 0 .538.032.831.094.295.06.571.171.826.332.259.162.471.394.635.695.165.298.247.686.247 1.163V214h-1.244v-.895h-.051a1.798 1.798 0 0 1-.371.486 1.956 1.956 0 0 1-.635.396 2.463 2.463 0 0 1-.929.158Zm.277-1.023c.353 0 .654-.069.904-.209.253-.139.444-.321.575-.545.134-.227.2-.47.2-.729v-.844c-.045.046-.133.089-.264.128-.128.037-.274.07-.439.098l-.481.073-.392.051a3.135 3.135 0 0 0-.678.158c-.202.073-.364.18-.486.319-.119.137-.179.318-.179.546 0 .315.117.554.35.716.233.159.53.238.89.238Zm4.651.878v-6.545h1.231v1.039h.068c.12-.352.33-.629.631-.831a1.809 1.809 0 0 1 1.031-.306 5.012 5.012 0 0 1 .541.029v1.219a2.312 2.312 0 0 0-.272-.047 2.597 2.597 0 0 0-.392-.03c-.301 0-.57.064-.806.192a1.423 1.423 0 0 0-.758 1.283V214h-1.274ZM329.653 212l-2.829-2.829.944-.942 1.885 1.886 1.885-1.886.944.942-2.829 2.829ZM39.883 558v-11.052h-3.726V545.4H45.5v1.548h-3.708V558h-1.908Zm5.84 0v-8.928h1.71l.163 1.692a3.52 3.52 0 0 1 1.296-1.386c.564-.348 1.242-.522 2.034-.522v1.998h-.522c-.528 0-1.002.09-1.422.27-.408.168-.738.462-.99.882-.24.408-.36.978-.36 1.71V558h-1.908Zm9.322.216c-.756 0-1.38-.126-1.872-.378-.492-.252-.858-.582-1.098-.99a2.71 2.71 0 0 1-.36-1.368c0-.864.336-1.548 1.008-2.052.672-.504 1.633-.756 2.88-.756h2.34v-.162c0-.696-.191-1.218-.575-1.566-.373-.348-.858-.522-1.459-.522-.527 0-.99.132-1.386.396-.384.252-.617.63-.702 1.134h-1.907c.06-.648.276-1.2.648-1.656a3.643 3.643 0 0 1 1.44-1.062 4.838 4.838 0 0 1 1.925-.378c1.248 0 2.215.33 2.898.99.684.648 1.026 1.536 1.026 2.664V558h-1.655l-.163-1.53a3.392 3.392 0 0 1-1.098 1.242c-.48.336-1.11.504-1.89.504Zm.378-1.548c.517 0 .948-.12 1.296-.36.36-.252.636-.582.828-.99a3.82 3.82 0 0 0 .379-1.35H55.8c-.756 0-1.296.132-1.62.396a1.244 1.244 0 0 0-.467.99c0 .408.15.732.45.972.311.228.731.342 1.26.342ZM61.536 558v-8.928h1.692l.144 1.566a3.067 3.067 0 0 1 1.206-1.296c.54-.324 1.158-.486 1.854-.486 1.08 0 1.926.336 2.538 1.008.624.672.936 1.674.936 3.006V558h-1.89v-4.932c0-1.728-.708-2.592-2.124-2.592-.708 0-1.296.252-1.764.756-.456.504-.684 1.224-.684 2.16V558h-1.908Zm13.641.216c-1.128 0-2.058-.276-2.79-.828a3.101 3.101 0 0 1-1.26-2.196h1.926c.096.408.324.762.684 1.062.36.288.834.432 1.422.432.576 0 .996-.12 1.26-.36s.396-.516.396-.828c0-.456-.186-.762-.558-.918-.36-.168-.864-.318-1.512-.45a11.918 11.918 0 0 1-1.512-.432 3.488 3.488 0 0 1-1.242-.756c-.324-.336-.486-.786-.486-1.35 0-.78.3-1.428.9-1.944.6-.528 1.44-.792 2.52-.792.996 0 1.8.24 2.412.72.624.48.99 1.158 1.098 2.034H76.6a1.311 1.311 0 0 0-.54-.9c-.288-.216-.678-.324-1.17-.324-.48 0-.852.102-1.116.306a.893.893 0 0 0-.396.756c0 .312.18.558.54.738.372.18.858.342 1.458.486.6.132 1.152.288 1.656.468.516.168.93.42 1.242.756.312.336.468.828.468 1.476.012.816-.306 1.494-.954 2.034-.636.54-1.506.81-2.61.81Zm8.131 0c-.756 0-1.38-.126-1.872-.378-.492-.252-.858-.582-1.098-.99a2.71 2.71 0 0 1-.36-1.368c0-.864.336-1.548 1.008-2.052.672-.504 1.632-.756 2.88-.756h2.34v-.162c0-.696-.192-1.218-.576-1.566-.372-.348-.858-.522-1.458-.522-.528 0-.99.132-1.386.396-.384.252-.618.63-.702 1.134h-1.908c.06-.648.276-1.2.648-1.656a3.643 3.643 0 0 1 1.44-1.062 4.838 4.838 0 0 1 1.926-.378c1.248 0 2.214.33 2.898.99.684.648 1.026 1.536 1.026 2.664V558h-1.656l-.162-1.53a3.392 3.392 0 0 1-1.098 1.242c-.48.336-1.11.504-1.89.504Zm.378-1.548c.516 0 .948-.12 1.296-.36.36-.252.636-.582.828-.99a3.82 3.82 0 0 0 .378-1.35h-2.124c-.756 0-1.296.132-1.62.396a1.244 1.244 0 0 0-.468.99c0 .408.15.732.45.972.312.228.732.342 1.26.342Zm10.343 1.548c-.876 0-1.662-.198-2.358-.594a4.333 4.333 0 0 1-1.62-1.638c-.384-.708-.576-1.524-.576-2.448 0-.924.192-1.734.576-2.43a4.298 4.298 0 0 1 1.62-1.656c.696-.396 1.482-.594 2.358-.594 1.104 0 2.028.288 2.772.864.756.576 1.242 1.356 1.458 2.34h-1.998a1.878 1.878 0 0 0-.792-1.152c-.408-.276-.888-.414-1.44-.414-.468 0-.9.12-1.296.36-.396.228-.714.57-.954 1.026-.24.444-.36.996-.36 1.656 0 .66.12 1.218.36 1.674.24.444.558.786.954 1.026.396.24.828.36 1.296.36.552 0 1.032-.138 1.44-.414.408-.276.672-.666.792-1.17h1.998c-.204.96-.684 1.734-1.44 2.322-.756.588-1.686.882-2.79.882Zm9.328-.216c-.876 0-1.572-.21-2.088-.63-.516-.432-.774-1.194-.774-2.286v-4.41h-1.53v-1.602h1.53l.234-2.268h1.674v2.268h2.52v1.602h-2.52v4.41c0 .492.102.834.306 1.026.216.18.582.27 1.098.27h1.026V558h-1.476Zm4.073-10.62c-.36 0-.66-.108-.9-.324a1.15 1.15 0 0 1-.342-.846c0-.336.114-.612.342-.828.24-.228.54-.342.9-.342s.654.114.882.342c.24.216.36.492.36.828 0 .336-.12.618-.36.846-.228.216-.522.324-.882.324Zm-.954 10.62v-8.928h1.908V558h-1.908Zm8.063.216c-.852 0-1.62-.192-2.304-.576a4.375 4.375 0 0 1-1.602-1.638c-.396-.708-.594-1.53-.594-2.466 0-.936.198-1.752.594-2.448a4.295 4.295 0 0 1 1.638-1.638 4.48 4.48 0 0 1 2.286-.594c.852 0 1.614.198 2.286.594a4.17 4.17 0 0 1 1.62 1.638c.408.696.612 1.512.612 2.448 0 .936-.204 1.758-.612 2.466a4.333 4.333 0 0 1-1.62 1.638c-.684.384-1.452.576-2.304.576Zm0-1.638c.456 0 .876-.114 1.26-.342a2.5 2.5 0 0 0 .954-1.008c.24-.456.36-1.02.36-1.692 0-.672-.12-1.23-.36-1.674-.228-.456-.54-.798-.936-1.026a2.423 2.423 0 0 0-1.26-.342c-.456 0-.882.114-1.278.342-.384.228-.696.57-.936 1.026-.24.444-.36 1.002-.36 1.674 0 .672.12 1.236.36 1.692.24.444.552.78.936 1.008.384.228.804.342 1.26.342Zm6.059 1.422v-8.928h1.692l.144 1.566a3.067 3.067 0 0 1 1.206-1.296c.54-.324 1.158-.486 1.854-.486 1.08 0 1.926.336 2.538 1.008.624.672.936 1.674.936 3.006V558h-1.89v-4.932c0-1.728-.708-2.592-2.124-2.592-.708 0-1.296.252-1.764.756-.456.504-.684 1.224-.684 2.16V558h-1.908Zm13.641.216c-1.128 0-2.058-.276-2.79-.828a3.101 3.101 0 0 1-1.26-2.196h1.926c.096.408.324.762.684 1.062.36.288.834.432 1.422.432.576 0 .996-.12 1.26-.36s.396-.516.396-.828c0-.456-.186-.762-.558-.918-.36-.168-.864-.318-1.512-.45a11.918 11.918 0 0 1-1.512-.432 3.488 3.488 0 0 1-1.242-.756c-.324-.336-.486-.786-.486-1.35 0-.78.3-1.428.9-1.944.6-.528 1.44-.792 2.52-.792.996 0 1.8.24 2.412.72.624.48.99 1.158 1.098 2.034h-1.836a1.311 1.311 0 0 0-.54-.9c-.288-.216-.678-.324-1.17-.324-.48 0-.852.102-1.116.306a.893.893 0 0 0-.396.756c0 .312.18.558.54.738.372.18.858.342 1.458.486.6.132 1.152.288 1.656.468.516.168.93.42 1.242.756.312.336.468.828.468 1.476.012.816-.306 1.494-.954 2.034-.636.54-1.506.81-2.61.81Z"/><path fill="#5BB5A2" d="m272.101 556.5-4.144-11.2h1.808l3.36 9.44 3.376-9.44h1.792l-4.144 11.2h-2.048Zm8.042-9.44a1.15 1.15 0 0 1-.8-.288 1.02 1.02 0 0 1-.304-.752c0-.299.101-.544.304-.736.213-.203.48-.304.8-.304.32 0 .581.101.784.304.213.192.32.437.32.736a.997.997 0 0 1-.32.752c-.203.192-.464.288-.784.288Zm-.848 9.44v-7.936h1.696v7.936h-1.696Zm7.167.192c-.779 0-1.472-.171-2.08-.512a3.762 3.762 0 0 1-1.408-1.456c-.342-.619-.512-1.339-.512-2.16 0-.832.165-1.563.496-2.192.341-.629.81-1.12 1.408-1.472.608-.352 1.312-.528 2.112-.528.778 0 1.456.176 2.032.528.576.341 1.024.8 1.344 1.376.32.576.48 1.211.48 1.904 0 .107-.006.224-.016.352 0 .117-.006.251-.016.4h-6.176c.053.768.304 1.355.752 1.76.458.395.986.592 1.584.592.48 0 .88-.107 1.2-.32.33-.224.576-.523.736-.896h1.696a3.586 3.586 0 0 1-1.28 1.872c-.63.501-1.414.752-2.352.752Zm0-6.928c-.566 0-1.067.171-1.504.512-.438.331-.704.832-.8 1.504h4.48c-.032-.619-.251-1.109-.656-1.472-.406-.363-.912-.544-1.52-.544Zm6.423 6.736-2.336-7.936h1.696l1.536 5.984 1.728-5.984h1.888l1.728 5.984 1.536-5.984h1.696l-2.336 7.936h-1.744l-1.824-6.24-1.824 6.24h-1.744Zm16.628.192c-.672 0-1.226-.112-1.664-.336-.437-.224-.762-.517-.976-.88a2.413 2.413 0 0 1-.32-1.216c0-.768.299-1.376.896-1.824.598-.448 1.451-.672 2.56-.672h2.08v-.144c0-.619-.17-1.083-.512-1.392-.33-.309-.762-.464-1.296-.464-.469 0-.88.117-1.232.352-.341.224-.549.56-.624 1.008h-1.696c.054-.576.246-1.067.576-1.472a3.24 3.24 0 0 1 1.28-.944 4.304 4.304 0 0 1 1.712-.336c1.11 0 1.968.293 2.576.88.608.576.912 1.365.912 2.368v4.88h-1.472l-.144-1.36a3.018 3.018 0 0 1-.976 1.104c-.426.299-.986.448-1.68.448Zm.336-1.376c.459 0 .843-.107 1.152-.32.32-.224.566-.517.736-.88.182-.363.294-.763.336-1.2h-1.888c-.672 0-1.152.117-1.44.352a1.107 1.107 0 0 0-.416.88c0 .363.134.651.4.864.278.203.651.304 1.12.304Zm5.434 1.184v-11.52h1.696v11.52h-1.696Zm3.364 0v-11.52h1.696v11.52h-1.696ZM339.177 550.673l-4.531-4.433 1.195-1.169 6.569 6.429-6.569 6.429-1.195-1.169 4.531-4.433h-10.281v-1.654h10.281Z"/><rect width="310" height="65" x="35.653" y="580" fill="#F8F8F8" rx="10"/><rect width="40" height="40" x="47.653" y="592.5" fill="#5BB5A2" rx="6"/><path fill="#fff" d="M67.308 608.12c-.803 0-2.046-.913-3.355-.88-1.727.022-3.31 1.001-4.202 2.552-1.793 3.113-.462 7.711 1.287 10.241.858 1.232 1.87 2.618 3.212 2.574 1.287-.055 1.771-.836 3.333-.836 1.551 0 1.991.836 3.355.803 1.386-.022 2.266-1.254 3.113-2.497a11.055 11.055 0 0 0 1.408-2.893c-.033-.011-2.695-1.034-2.728-4.114-.022-2.574 2.101-3.806 2.2-3.861-1.21-1.771-3.069-1.969-3.718-2.013-1.694-.132-3.113.924-3.905.924Zm2.86-2.596c.715-.858 1.188-2.057 1.056-3.245-1.023.044-2.255.682-2.992 1.54-.66.759-1.232 1.98-1.078 3.146 1.133.088 2.3-.583 3.014-1.441Z"/><path fill="#1A191E" d="m104.069 608 4.128-11.2h1.856l4.096 11.2h-1.792l-.96-2.736h-4.576l-.96 2.736h-1.792Zm3.232-4.08h3.616l-1.808-5.104-1.808 5.104Zm7.866 7.6v-11.456h1.52l.176 1.232a3.648 3.648 0 0 1 1.056-.992c.448-.288 1.024-.432 1.728-.432.768 0 1.446.181 2.032.544a3.777 3.777 0 0 1 1.376 1.488c.342.629.512 1.344.512 2.144s-.17 1.515-.512 2.144a3.8 3.8 0 0 1-1.376 1.472c-.586.352-1.269.528-2.048.528-.618 0-1.168-.123-1.648-.368a2.846 2.846 0 0 1-1.12-1.04v4.736h-1.696Zm4.176-4.8c.726 0 1.323-.245 1.792-.736.47-.501.704-1.152.704-1.952 0-.523-.106-.987-.32-1.392a2.347 2.347 0 0 0-.88-.944c-.373-.235-.805-.352-1.296-.352-.725 0-1.322.251-1.792.752-.458.501-.688 1.147-.688 1.936 0 .8.23 1.451.688 1.952.47.491 1.067.736 1.792.736Zm5.579 4.8v-11.456h1.52l.176 1.232a3.648 3.648 0 0 1 1.056-.992c.448-.288 1.024-.432 1.728-.432.768 0 1.445.181 2.032.544a3.791 3.791 0 0 1 1.376 1.488c.341.629.512 1.344.512 2.144s-.171 1.515-.512 2.144a3.816 3.816 0 0 1-1.376 1.472c-.587.352-1.27.528-2.048.528-.619 0-1.168-.123-1.648-.368a2.833 2.833 0 0 1-1.12-1.04v4.736h-1.696Zm4.176-4.8c.725 0 1.322-.245 1.792-.736.469-.501.704-1.152.704-1.952 0-.523-.107-.987-.32-1.392a2.36 2.36 0 0 0-.88-.944 2.384 2.384 0 0 0-1.296-.352c-.726 0-1.323.251-1.792.752-.459.501-.688 1.147-.688 1.936 0 .8.229 1.451.688 1.952.469.491 1.066.736 1.792.736Zm5.578 1.28v-11.52h1.696V608h-1.696Zm7.076.192c-.779 0-1.472-.171-2.08-.512a3.762 3.762 0 0 1-1.408-1.456c-.342-.619-.512-1.339-.512-2.16 0-.832.165-1.563.496-2.192.341-.629.81-1.12 1.408-1.472.608-.352 1.312-.528 2.112-.528.778 0 1.456.176 2.032.528.576.341 1.024.8 1.344 1.376.32.576.48 1.211.48 1.904 0 .107-.006.224-.016.352 0 .117-.006.251-.016.4h-6.176c.053.768.304 1.355.752 1.76.458.395.986.592 1.584.592.48 0 .88-.107 1.2-.32.33-.224.576-.523.736-.896h1.696a3.586 3.586 0 0 1-1.28 1.872c-.63.501-1.414.752-2.352.752Zm0-6.928c-.566 0-1.067.171-1.504.512-.438.331-.704.832-.8 1.504h4.48c-.032-.619-.251-1.109-.656-1.472-.406-.363-.912-.544-1.52-.544ZM104.612 628v-8.727h5.472v1.133h-4.155v2.659h3.869v1.13h-3.869v2.671h4.206V628h-5.523Zm8.402-8.727V628h-1.274v-8.727h1.274Zm4.536 8.859c-.645 0-1.201-.138-1.667-.413a2.8 2.8 0 0 1-1.073-1.172c-.25-.506-.375-1.098-.375-1.777 0-.671.125-1.261.375-1.773a2.91 2.91 0 0 1 1.056-1.197c.455-.287.986-.431 1.594-.431.369 0 .727.061 1.074.184.347.122.658.313.933.575.276.261.493.601.652 1.018.159.415.239.919.239 1.513v.452h-5.203v-.955h3.954c0-.335-.068-.632-.204-.89a1.54 1.54 0 0 0-.576-.618 1.601 1.601 0 0 0-.86-.226c-.358 0-.671.088-.938.264a1.766 1.766 0 0 0-.613.682 1.956 1.956 0 0 0-.214.908v.745c0 .438.077.81.231 1.117.156.307.373.541.652.703.278.159.603.239.975.239.242 0 .462-.035.661-.103a1.43 1.43 0 0 0 .516-.315 1.38 1.38 0 0 0 .332-.516l1.206.218c-.097.355-.27.666-.52.933-.247.264-.558.47-.933.618a3.49 3.49 0 0 1-1.274.217Zm6.979 0c-.634 0-1.179-.143-1.637-.43a2.85 2.85 0 0 1-1.048-1.198c-.244-.508-.366-1.091-.366-1.747 0-.665.125-1.251.375-1.76.25-.511.602-.91 1.056-1.197.455-.287.99-.431 1.607-.431.497 0 .94.093 1.329.277.39.182.704.438.942.767.242.33.385.715.431 1.155h-1.24a1.489 1.489 0 0 0-.469-.792c-.242-.222-.566-.333-.972-.333-.355 0-.666.094-.933.281-.264.185-.47.449-.618.793-.148.341-.222.744-.222 1.21 0 .478.073.889.218 1.236.145.347.349.615.613.805.267.191.581.286.942.286.242 0 .46-.044.656-.132.199-.091.366-.22.499-.388.136-.168.232-.369.286-.605h1.24a2.415 2.415 0 0 1-.414 1.133 2.38 2.38 0 0 1-.924.785c-.384.19-.834.285-1.351.285Zm7.107-6.677v1.022h-3.576v-1.022h3.576Zm-2.617-1.569h1.274v6.192c0 .247.037.433.111.558a.577.577 0 0 0 .286.252c.119.042.248.064.387.064.103 0 .192-.007.269-.022l.179-.034.23 1.053a2.534 2.534 0 0 1-.827.136 2.234 2.234 0 0 1-.937-.179 1.608 1.608 0 0 1-.703-.579c-.179-.262-.269-.59-.269-.985v-6.456Zm4.026 8.114v-6.545h1.232v1.039h.068c.119-.352.329-.629.63-.831a1.81 1.81 0 0 1 1.032-.306 5.063 5.063 0 0 1 .541.029v1.219a2.3 2.3 0 0 0-.273-.047 2.587 2.587 0 0 0-.392-.03c-.301 0-.57.064-.805.192a1.425 1.425 0 0 0-.759 1.283V628h-1.274Zm7.128.132c-.613 0-1.149-.141-1.606-.422a2.839 2.839 0 0 1-1.066-1.18c-.253-.506-.379-1.097-.379-1.773 0-.679.126-1.273.379-1.781a2.834 2.834 0 0 1 1.066-1.185c.457-.281.993-.422 1.606-.422.614 0 1.149.141 1.607.422.457.281.812.676 1.065 1.185.253.508.379 1.102.379 1.781 0 .676-.126 1.267-.379 1.773a2.843 2.843 0 0 1-1.065 1.18c-.458.281-.993.422-1.607.422Zm.004-1.07c.398 0 .728-.105.989-.315.261-.21.455-.49.58-.839.127-.35.191-.735.191-1.155 0-.418-.064-.801-.191-1.151a1.88 1.88 0 0 0-.58-.848c-.261-.213-.591-.319-.989-.319-.4 0-.732.106-.997.319a1.9 1.9 0 0 0-.583.848c-.125.35-.188.733-.188 1.151 0 .42.063.805.188 1.155.127.349.322.629.583.839.265.21.597.315.997.315Zm5.744-2.948V628h-1.274v-6.545h1.223v1.065h.081c.15-.347.386-.625.707-.835.324-.211.731-.316 1.223-.316.446 0 .837.094 1.172.282.335.184.595.46.78.826.184.367.277.82.277 1.36V628h-1.275v-4.01c0-.474-.123-.845-.37-1.112-.247-.27-.587-.405-1.019-.405-.295 0-.558.064-.788.192a1.378 1.378 0 0 0-.541.562c-.131.245-.196.54-.196.887Zm5.897 3.886v-6.545h1.275V628h-1.275Zm.644-7.555a.808.808 0 0 1-.571-.222.722.722 0 0 1-.234-.537c0-.21.078-.389.234-.537a.803.803 0 0 1 .571-.226.79.79 0 0 1 .567.226.706.706 0 0 1 .238.537.716.716 0 0 1-.238.537.795.795 0 0 1-.567.222Zm5.102 7.687c-.634 0-1.179-.143-1.637-.43a2.85 2.85 0 0 1-1.048-1.198c-.244-.508-.366-1.091-.366-1.747 0-.665.125-1.251.375-1.76.25-.511.602-.91 1.057-1.197.454-.287.99-.431 1.606-.431.497 0 .94.093 1.33.277.389.182.703.438.941.767.242.33.385.715.431 1.155h-1.24a1.483 1.483 0 0 0-.469-.792c-.242-.222-.565-.333-.972-.333-.355 0-.666.094-.933.281-.264.185-.47.449-.618.793-.148.341-.221.744-.221 1.21 0 .478.072.889.217 1.236.145.347.349.615.614.805.267.191.581.286.941.286.242 0 .461-.044.657-.132.198-.091.365-.22.498-.388.137-.168.232-.369.286-.605h1.24a2.404 2.404 0 0 1-.414 1.133 2.38 2.38 0 0 1-.924.785c-.384.19-.834.285-1.351.285ZM286.565 613.564v-1.424h6.512v1.424h-6.512Zm7.95 3.936 4.336-9.744h-5.824V606.3h7.568v1.232l-4.304 9.968h-1.776Zm10.746.192c-.736 0-1.365-.144-1.888-.432a3.296 3.296 0 0 1-1.232-1.152 3.856 3.856 0 0 1-.528-1.568h1.584c.096.555.326.981.688 1.28.363.299.827.448 1.392.448.779 0 1.419-.363 1.92-1.088.512-.736.784-1.861.816-3.376-.256.469-.656.869-1.2 1.2-.533.331-1.152.496-1.856.496a3.688 3.688 0 0 1-1.776-.448 3.61 3.61 0 0 1-1.344-1.248c-.341-.544-.512-1.184-.512-1.92 0-.651.16-1.264.48-1.84.32-.576.768-1.04 1.344-1.392.587-.363 1.28-.544 2.08-.544.822 0 1.515.155 2.08.464.566.309 1.019.72 1.36 1.232.342.512.587 1.088.736 1.728.16.64.24 1.296.24 1.968 0 1.237-.176 2.32-.528 3.248-.341.928-.837 1.653-1.488 2.176-.65.512-1.44.768-2.368.768Zm.08-5.648c.448 0 .848-.101 1.2-.304a2.3 2.3 0 0 0 .832-.8c.214-.341.32-.715.32-1.12 0-.437-.106-.821-.32-1.152a2.11 2.11 0 0 0-.848-.8 2.465 2.465 0 0 0-1.2-.288c-.448 0-.848.096-1.2.288a2.269 2.269 0 0 0-.848.8 2.136 2.136 0 0 0-.304 1.136c0 .683.224 1.227.672 1.632.448.405 1.014.608 1.696.608Zm9.55 5.648c-.736 0-1.366-.144-1.888-.432a3.28 3.28 0 0 1-1.232-1.152 3.856 3.856 0 0 1-.528-1.568h1.584c.096.555.325.981.688 1.28.362.299.826.448 1.392.448.778 0 1.418-.363 1.92-1.088.512-.736.784-1.861.816-3.376-.256.469-.656.869-1.2 1.2-.534.331-1.152.496-1.856.496-.63 0-1.222-.149-1.776-.448a3.596 3.596 0 0 1-1.344-1.248c-.342-.544-.512-1.184-.512-1.92 0-.651.16-1.264.48-1.84.32-.576.768-1.04 1.344-1.392.586-.363 1.28-.544 2.08-.544.821 0 1.514.155 2.08.464.565.309 1.018.72 1.36 1.232.341.512.586 1.088.736 1.728.16.64.24 1.296.24 1.968 0 1.237-.176 2.32-.528 3.248-.342.928-.838 1.653-1.488 2.176-.651.512-1.44.768-2.368.768Zm.08-5.648c.448 0 .848-.101 1.2-.304.352-.203.629-.469.832-.8.213-.341.32-.715.32-1.12 0-.437-.107-.821-.32-1.152a2.124 2.124 0 0 0-.848-.8 2.465 2.465 0 0 0-1.2-.288c-.448 0-.848.096-1.2.288a2.262 2.262 0 0 0-.848.8 2.127 2.127 0 0 0-.304 1.136c0 .683.224 1.227.672 1.632.448.405 1.013.608 1.696.608Zm8.813 6.848v-1.232c-1.045-.117-1.883-.485-2.512-1.104-.629-.619-.949-1.429-.96-2.432h1.792c.011.501.16.944.448 1.328.288.373.699.624 1.232.752v-3.856a3.594 3.594 0 0 1-.272-.08 7.57 7.57 0 0 0-.272-.096c-.864-.288-1.515-.661-1.952-1.12-.427-.459-.64-1.061-.64-1.808-.011-.875.272-1.589.848-2.144.576-.555 1.339-.88 2.288-.976v-1.28h1.088v1.296c.928.107 1.675.443 2.24 1.008.565.565.853 1.275.864 2.128h-1.792a1.756 1.756 0 0 0-.352-.992c-.213-.32-.533-.539-.96-.656v3.424l.256.096c.085.021.171.048.256.08.555.181 1.051.4 1.488.656.437.256.784.592 1.04 1.008.267.416.4.944.4 1.584 0 .533-.128 1.035-.384 1.504-.256.459-.64.843-1.152 1.152-.512.309-1.147.491-1.904.544v1.216h-1.088Zm-1.376-9.792c0 .427.123.757.368.992.245.224.581.421 1.008.592v-3.104a1.782 1.782 0 0 0-.992.512c-.256.256-.384.592-.384 1.008Zm4.112 5.488c0-.523-.155-.917-.464-1.184-.309-.277-.704-.507-1.184-.688v3.52c.523-.064.928-.245 1.216-.544a1.53 1.53 0 0 0 .432-1.104Z"/><rect width="310" height="65" x="35.653" y="655" fill="#F8F8F8" rx="10"/><rect width="40" height="40" x="47.653" y="667.5" fill="#5BB5A2" rx="6"/><path fill="#fff" d="M76.817 693.211c0 .666-.372 1.95-1.205 2.654-.167.129-.334.056-.261-.131.243-.594.8-1.968.538-2.284-.183-.24-.944-.223-1.593-.167-.297.038-.557.055-.76.096-.185.016-.224-.149-.037-.277.24-.17.5-.298.798-.393 1.054-.315 2.273-.125 2.447.077.033.038.073.146.073.424v.001Zm-1.761 1.186a6.817 6.817 0 0 1-.761.504c-1.945 1.169-4.464 1.781-6.653 1.781-3.523 0-6.674-1.299-9.064-3.472-.205-.167-.035-.409.204-.278 2.576 1.504 5.764 2.413 9.065 2.413a17.857 17.857 0 0 0 6.449-1.225c.148-.056.315-.132.46-.185.337-.151.633.223.3.462ZM69.4 684.286c0-.954.037-1.516-.279-1.998-.28-.397-.763-.635-1.437-.598-.732.041-1.517.52-1.718 1.399-.038.202-.157.4-.4.443l-2.233-.284c-.16-.037-.401-.159-.322-.478.48-2.523 2.635-3.402 4.673-3.52h.48c1.118 0 2.554.32 3.473 1.159 1.116 1.041.998 2.44.998 3.96v3.599c0 1.08.437 1.559.878 2.122.12.2.16.437-.041.6a68.579 68.579 0 0 1-1.758 1.516c-.16.122-.447.135-.559.041-.706-.591-.878-.919-1.315-1.519-.761.798-1.399 1.239-2.159 1.478a6.44 6.44 0 0 1-1.635.198c-1.916 0-3.434-1.194-3.434-3.556 0-1.879 1-3.156 2.475-3.76 1.476-.605 3.62-.797 4.312-.801v-.001Zm-.438 4.759c.476-.799.437-1.453.437-2.919-.597 0-1.197.041-1.715.163-.958.278-1.718.881-1.718 2.159 0 .999.52 1.679 1.398 1.679.12 0 .227-.014.32-.041.614-.171.997-.479 1.278-1.041Z"/><path fill="#1A191E" d="m104.069 683 4.128-11.2h1.856l4.096 11.2h-1.792l-.96-2.736h-4.576l-.96 2.736h-1.792Zm3.232-4.08h3.616l-1.808-5.104-1.808 5.104Zm7.866 4.08v-7.936h1.504l.144 1.12a2.81 2.81 0 0 1 1.008-.96c.427-.235.918-.352 1.472-.352 1.259 0 2.134.496 2.624 1.488a3.134 3.134 0 0 1 1.152-1.088 3.264 3.264 0 0 1 1.584-.4c.992 0 1.771.299 2.336.896.566.597.848 1.488.848 2.672V683h-1.696v-4.384c0-1.536-.586-2.304-1.76-2.304-.597 0-1.088.224-1.472.672-.373.448-.56 1.088-.56 1.92V683h-1.696v-4.384c0-1.536-.592-2.304-1.776-2.304-.586 0-1.072.224-1.456.672-.373.448-.56 1.088-.56 1.92V683h-1.696Zm16.864.192c-.672 0-1.226-.112-1.664-.336-.437-.224-.762-.517-.976-.88a2.413 2.413 0 0 1-.32-1.216c0-.768.299-1.376.896-1.824.598-.448 1.451-.672 2.56-.672h2.08v-.144c0-.619-.17-1.083-.512-1.392-.33-.309-.762-.464-1.296-.464-.469 0-.88.117-1.232.352-.341.224-.549.56-.624 1.008h-1.696c.054-.576.246-1.067.576-1.472a3.24 3.24 0 0 1 1.28-.944 4.304 4.304 0 0 1 1.712-.336c1.11 0 1.968.293 2.576.88.608.576.912 1.365.912 2.368V683h-1.472l-.144-1.36a3.018 3.018 0 0 1-.976 1.104c-.426.299-.986.448-1.68.448Zm.336-1.376c.459 0 .843-.107 1.152-.32.32-.224.566-.517.736-.88.182-.363.294-.763.336-1.2h-1.888c-.672 0-1.152.117-1.44.352a1.107 1.107 0 0 0-.416.88c0 .363.134.651.4.864.278.203.651.304 1.12.304Zm4.906 1.184v-1.376l4.24-5.152h-4.176v-1.408h6.096v1.376l-4.272 5.152h4.352V683h-6.24Zm11.213.192c-.757 0-1.44-.171-2.048-.512a3.889 3.889 0 0 1-1.424-1.456c-.352-.629-.528-1.36-.528-2.192 0-.832.176-1.557.528-2.176a3.82 3.82 0 0 1 1.456-1.456 3.98 3.98 0 0 1 2.032-.528c.757 0 1.435.176 2.032.528a3.707 3.707 0 0 1 1.44 1.456c.363.619.544 1.344.544 2.176 0 .832-.181 1.563-.544 2.192a3.85 3.85 0 0 1-1.44 1.456c-.608.341-1.291.512-2.048.512Zm0-1.456a2.22 2.22 0 0 0 1.968-1.2c.213-.405.32-.907.32-1.504s-.107-1.093-.32-1.488a2.108 2.108 0 0 0-.832-.912 2.15 2.15 0 0 0-1.12-.304c-.405 0-.784.101-1.136.304-.341.203-.619.507-.832.912-.213.395-.32.891-.32 1.488s.107 1.099.32 1.504c.213.395.491.693.832.896a2.15 2.15 0 0 0 1.12.304Zm5.386 1.264v-7.936h1.504l.128 1.392a2.729 2.729 0 0 1 1.072-1.152c.48-.288 1.03-.432 1.648-.432.96 0 1.712.299 2.256.896.555.597.832 1.488.832 2.672V683h-1.68v-4.384c0-1.536-.629-2.304-1.888-2.304-.629 0-1.152.224-1.568.672-.405.448-.608 1.088-.608 1.92V683h-1.696ZM109.372 696.565a1.243 1.243 0 0 0-.562-.937c-.33-.225-.745-.337-1.245-.337-.358 0-.667.057-.929.171-.261.11-.464.264-.609.46a1.085 1.085 0 0 0-.213.66c0 .208.048.387.145.537.099.151.228.277.388.38.161.099.335.183.519.251.185.065.363.119.533.162l.852.222c.279.068.564.16.857.277.292.116.564.269.814.46.25.19.451.426.605.707.156.281.234.618.234 1.01 0 .494-.128.933-.383 1.317-.253.383-.621.686-1.104.907-.48.222-1.061.333-1.743.333-.653 0-1.219-.104-1.696-.311-.477-.208-.851-.502-1.121-.882-.269-.384-.419-.838-.447-1.364h1.321c.026.315.128.578.307.788.182.208.413.363.694.465.284.099.596.149.934.149.372 0 .703-.058.993-.175.292-.119.522-.284.69-.494.167-.213.251-.462.251-.746a.92.92 0 0 0-.221-.635 1.65 1.65 0 0 0-.593-.409 5.746 5.746 0 0 0-.839-.285l-1.031-.282c-.699-.19-1.253-.47-1.662-.839-.407-.369-.61-.858-.61-1.466 0-.503.137-.942.409-1.317a2.684 2.684 0 0 1 1.108-.873 3.8 3.8 0 0 1 1.577-.316c.591 0 1.112.104 1.564.311.455.208.813.493 1.074.857.261.361.398.776.409 1.244h-1.27Zm4.135 2.549V703h-1.274v-8.727h1.257v3.247h.081a1.88 1.88 0 0 1 .703-.84c.315-.207.727-.311 1.235-.311.449 0 .841.093 1.177.277.338.185.599.461.784.827.187.364.281.818.281 1.364V703h-1.274v-4.01c0-.48-.124-.852-.371-1.116-.247-.267-.591-.401-1.031-.401-.301 0-.571.064-.81.192a1.38 1.38 0 0 0-.558.562c-.134.245-.2.54-.2.887Zm8.701 4.018c-.613 0-1.149-.141-1.606-.422a2.839 2.839 0 0 1-1.066-1.18c-.252-.506-.379-1.097-.379-1.773 0-.679.127-1.273.379-1.781a2.834 2.834 0 0 1 1.066-1.185c.457-.281.993-.422 1.606-.422.614 0 1.15.141 1.607.422.457.281.812.676 1.065 1.185.253.508.379 1.102.379 1.781 0 .676-.126 1.267-.379 1.773a2.843 2.843 0 0 1-1.065 1.18c-.457.281-.993.422-1.607.422Zm.005-1.07c.397 0 .727-.105.988-.315.262-.21.455-.49.58-.839a3.34 3.34 0 0 0 .192-1.155c0-.418-.064-.801-.192-1.151a1.871 1.871 0 0 0-.58-.848c-.261-.213-.591-.319-.988-.319-.401 0-.733.106-.998.319a1.9 1.9 0 0 0-.583.848c-.125.35-.188.733-.188 1.151 0 .42.063.805.188 1.155.127.349.322.629.583.839.265.21.597.315.998.315Zm4.469 3.393v-9h1.244v1.061h.107c.073-.137.18-.294.319-.473s.333-.336.58-.469c.247-.136.574-.205.98-.205.528 0 1 .134 1.415.401.414.267.74.652.975 1.155.239.503.358 1.108.358 1.815 0 .707-.117 1.314-.353 1.82-.236.502-.56.89-.972 1.163-.412.27-.882.405-1.41.405-.398 0-.723-.067-.976-.2a1.853 1.853 0 0 1-.588-.469 3.498 3.498 0 0 1-.328-.477h-.077v3.473h-1.274Zm1.248-5.728c0 .46.067.864.201 1.211.133.346.326.617.579.813.253.194.563.29.929.29.381 0 .699-.101.955-.302.255-.205.449-.482.579-.831.134-.35.2-.743.2-1.181 0-.432-.065-.819-.196-1.163a1.777 1.777 0 0 0-.579-.814c-.256-.199-.575-.298-.959-.298-.369 0-.682.095-.937.285a1.759 1.759 0 0 0-.576.797 3.34 3.34 0 0 0-.196 1.193Zm6.158 5.728v-9h1.244v1.061h.107c.074-.137.18-.294.319-.473.14-.179.333-.336.58-.469.247-.136.574-.205.98-.205.529 0 1 .134 1.415.401.415.267.74.652.976 1.155.238.503.358 1.108.358 1.815 0 .707-.118 1.314-.354 1.82-.236.502-.56.89-.972 1.163-.412.27-.882.405-1.41.405-.398 0-.723-.067-.976-.2a1.853 1.853 0 0 1-.588-.469 3.592 3.592 0 0 1-.328-.477h-.077v3.473h-1.274Zm1.249-5.728c0 .46.066.864.2 1.211.133.346.327.617.579.813.253.194.563.29.929.29.381 0 .699-.101.955-.302.256-.205.449-.482.579-.831a3.28 3.28 0 0 0 .201-1.181c0-.432-.066-.819-.196-1.163a1.78 1.78 0 0 0-.58-.814c-.256-.199-.575-.298-.959-.298-.369 0-.681.095-.937.285a1.75 1.75 0 0 0-.575.797 3.319 3.319 0 0 0-.196 1.193Zm6.157 3.273v-6.545h1.274V703h-1.274Zm.644-7.555a.808.808 0 0 1-.571-.222.72.72 0 0 1-.235-.537.71.71 0 0 1 .235-.537.803.803 0 0 1 .571-.226c.221 0 .41.076.566.226.16.148.239.327.239.537a.713.713 0 0 1-.239.537.793.793 0 0 1-.566.222Zm3.619 3.669V703h-1.274v-6.545h1.223v1.065h.08c.151-.347.387-.625.708-.835.324-.211.731-.316 1.223-.316.446 0 .837.094 1.172.282.335.184.595.46.78.826.184.367.277.82.277 1.36V703h-1.275v-4.01c0-.474-.123-.845-.37-1.112-.247-.27-.587-.405-1.019-.405-.295 0-.558.064-.788.192a1.378 1.378 0 0 0-.541.562c-.131.245-.196.54-.196.887Zm8.642 6.477c-.52 0-.968-.068-1.343-.205a2.59 2.59 0 0 1-.912-.541 2.286 2.286 0 0 1-.528-.737l1.095-.452c.077.125.179.257.307.397.131.142.307.262.528.362.225.099.513.149.865.149.483 0 .883-.118 1.198-.354.315-.233.473-.605.473-1.116v-1.287h-.081a2.963 2.963 0 0 1-.332.464 1.789 1.789 0 0 1-.588.443c-.25.125-.576.188-.976.188-.517 0-.983-.121-1.398-.362-.412-.245-.739-.604-.98-1.078-.239-.478-.358-1.064-.358-1.76s.118-1.293.354-1.79c.238-.497.565-.878.98-1.142a2.547 2.547 0 0 1 1.41-.401c.406 0 .735.069.985.205.25.133.444.29.583.469.142.179.252.336.328.473h.094v-1.061h1.249v6.69c0 .562-.131 1.024-.392 1.385a2.306 2.306 0 0 1-1.061.801c-.443.173-.943.26-1.5.26Zm-.013-3.746c.366 0 .676-.085.929-.256.256-.173.449-.42.579-.741.134-.324.201-.712.201-1.163 0-.441-.066-.828-.196-1.164a1.735 1.735 0 0 0-.576-.784c-.252-.19-.565-.285-.937-.285-.384 0-.703.099-.959.298a1.79 1.79 0 0 0-.579.801 3.181 3.181 0 0 0-.192 1.134c0 .429.065.805.196 1.129.131.324.324.577.579.758.259.182.577.273.955.273ZM294.565 688.564v-1.424h6.512v1.424h-6.512Zm11.961 4.128c-.79 0-1.472-.139-2.048-.416a3.595 3.595 0 0 1-1.376-1.168 3.848 3.848 0 0 1-.608-1.696h1.664c.106.533.373.976.8 1.328.426.341.954.512 1.584.512.469 0 .874-.112 1.216-.336a2.42 2.42 0 0 0 .8-.928c.192-.384.288-.816.288-1.296 0-.757-.214-1.36-.64-1.808-.427-.459-.966-.688-1.616-.688-.555 0-1.03.133-1.424.4a2.29 2.29 0 0 0-.864.976h-1.616l.96-6.272h6.048v1.488h-4.768l-.576 2.992c.245-.277.581-.507 1.008-.688a3.624 3.624 0 0 1 1.472-.288c.757 0 1.408.176 1.952.528.544.341.96.805 1.248 1.392.298.587.448 1.237.448 1.952 0 .747-.16 1.424-.48 2.032a3.689 3.689 0 0 1-1.376 1.456c-.587.352-1.286.528-2.096.528Zm8.813 0c-.736 0-1.365-.144-1.888-.432a3.296 3.296 0 0 1-1.232-1.152 3.856 3.856 0 0 1-.528-1.568h1.584c.096.555.326.981.688 1.28.363.299.827.448 1.392.448.779 0 1.419-.363 1.92-1.088.512-.736.784-1.861.816-3.376-.256.469-.656.869-1.2 1.2-.533.331-1.152.496-1.856.496a3.688 3.688 0 0 1-1.776-.448 3.61 3.61 0 0 1-1.344-1.248c-.341-.544-.512-1.184-.512-1.92 0-.651.16-1.264.48-1.84.32-.576.768-1.04 1.344-1.392.587-.363 1.28-.544 2.08-.544.822 0 1.515.155 2.08.464.566.309 1.019.72 1.36 1.232.342.512.587 1.088.736 1.728.16.64.24 1.296.24 1.968 0 1.237-.176 2.32-.528 3.248-.341.928-.837 1.653-1.488 2.176-.65.512-1.44.768-2.368.768Zm.08-5.648c.448 0 .848-.101 1.2-.304a2.3 2.3 0 0 0 .832-.8c.214-.341.32-.715.32-1.12 0-.437-.106-.821-.32-1.152a2.11 2.11 0 0 0-.848-.8 2.465 2.465 0 0 0-1.2-.288c-.448 0-.848.096-1.2.288a2.269 2.269 0 0 0-.848.8 2.136 2.136 0 0 0-.304 1.136c0 .683.224 1.227.672 1.632.448.405 1.014.608 1.696.608Zm8.814 6.848v-1.232c-1.046-.117-1.883-.485-2.512-1.104-.63-.619-.95-1.429-.96-2.432h1.792c.01.501.16.944.448 1.328.288.373.698.624 1.232.752v-3.856a3.463 3.463 0 0 1-.272-.08 8.328 8.328 0 0 0-.272-.096c-.864-.288-1.515-.661-1.952-1.12-.427-.459-.64-1.061-.64-1.808-.011-.875.272-1.589.848-2.144.576-.555 1.338-.88 2.288-.976v-1.28h1.088v1.296c.928.107 1.674.443 2.24 1.008.565.565.853 1.275.864 2.128h-1.792a1.756 1.756 0 0 0-.352-.992c-.214-.32-.534-.539-.96-.656v3.424l.256.096c.085.021.17.048.256.08.554.181 1.05.4 1.488.656.437.256.784.592 1.04 1.008.266.416.4.944.4 1.584 0 .533-.128 1.035-.384 1.504-.256.459-.64.843-1.152 1.152-.512.309-1.147.491-1.904.544v1.216h-1.088Zm-1.376-9.792c0 .427.122.757.368.992.245.224.581.421 1.008.592v-3.104a1.778 1.778 0 0 0-.992.512c-.256.256-.384.592-.384 1.008Zm4.112 5.488c0-.523-.155-.917-.464-1.184-.31-.277-.704-.507-1.184-.688v3.52c.522-.064.928-.245 1.216-.544a1.53 1.53 0 0 0 .432-1.104Z"/><rect width="310" height="65" x="35.653" y="730" fill="#F8F8F8" rx="10"/><rect width="40" height="40" x="47.653" y="742.5" fill="#5BB5A2" rx="6"/><path fill="#fff" d="M76.969 756.685c-.7.309-1.442.512-2.202.603.8-.479 1.4-1.233 1.686-2.121a7.677 7.677 0 0 1-2.434.93 3.837 3.837 0 0 0-4.61-.762 3.83 3.83 0 0 0-1.922 4.258 10.88 10.88 0 0 1-7.902-4.006 3.824 3.824 0 0 0-.519 1.928c0 1.329.677 2.504 1.705 3.191a3.83 3.83 0 0 1-1.736-.479v.047a3.84 3.84 0 0 0 3.075 3.76 3.87 3.87 0 0 1-1.732.066 3.837 3.837 0 0 0 3.581 2.662 7.681 7.681 0 0 1-5.675 1.588 10.843 10.843 0 0 0 5.876 1.723c7.052 0 10.908-5.841 10.908-10.908 0-.165-.004-.332-.012-.495a7.776 7.776 0 0 0 1.913-1.984v-.001Z"/><path fill="#1A191E" d="M107.413 758v-9.824h-3.312V746.8h8.304v1.376h-3.296V758h-1.696Zm6.744 0-2.336-7.936h1.696l1.536 5.984 1.728-5.984h1.888l1.728 5.984 1.536-5.984h1.696L121.293 758h-1.744l-1.824-6.24-1.824 6.24h-1.744Zm11.35-9.44a1.15 1.15 0 0 1-.8-.288 1.02 1.02 0 0 1-.304-.752c0-.299.101-.544.304-.736.213-.203.48-.304.8-.304.32 0 .581.101.784.304.213.192.32.437.32.736a.997.997 0 0 1-.32.752c-.203.192-.464.288-.784.288Zm-.848 9.44v-7.936h1.696V758h-1.696Zm6.782 0c-.778 0-1.397-.187-1.856-.56-.458-.384-.688-1.061-.688-2.032v-3.92h-1.36v-1.424h1.36l.208-2.016h1.488v2.016h2.24v1.424h-2.24v3.92c0 .437.091.741.272.912.192.16.518.24.976.24h.912V758h-1.312Zm5.989 0c-.778 0-1.397-.187-1.856-.56-.458-.384-.688-1.061-.688-2.032v-3.92h-1.36v-1.424h1.36l.208-2.016h1.488v2.016h2.24v1.424h-2.24v3.92c0 .437.091.741.272.912.192.16.518.24.976.24h.912V758h-1.312Zm6.17.192c-.779 0-1.472-.171-2.08-.512a3.762 3.762 0 0 1-1.408-1.456c-.342-.619-.512-1.339-.512-2.16 0-.832.165-1.563.496-2.192.341-.629.81-1.12 1.408-1.472.608-.352 1.312-.528 2.112-.528.778 0 1.456.176 2.032.528.576.341 1.024.8 1.344 1.376.32.576.48 1.211.48 1.904 0 .107-.006.224-.016.352 0 .117-.006.251-.016.4h-6.176c.053.768.304 1.355.752 1.76.458.395.986.592 1.584.592.48 0 .88-.107 1.2-.32.33-.224.576-.523.736-.896h1.696a3.586 3.586 0 0 1-1.28 1.872c-.63.501-1.414.752-2.352.752Zm0-6.928c-.566 0-1.067.171-1.504.512-.438.331-.704.832-.8 1.504h4.48c-.032-.619-.251-1.109-.656-1.472-.406-.363-.912-.544-1.52-.544Zm5.152 6.736v-7.936h1.52l.144 1.504a3.124 3.124 0 0 1 1.152-1.232c.501-.309 1.104-.464 1.808-.464v1.776h-.464c-.47 0-.891.08-1.264.24-.363.149-.656.411-.88.784-.214.363-.32.869-.32 1.52V758h-1.696ZM105.349 778h-1.397l3.14-8.727h1.522l3.14 8.727h-1.398l-2.467-7.142h-.068L105.349 778Zm.235-3.418h4.534v1.108h-4.534v-1.108Zm9.673 3.546c-.528 0-1-.135-1.415-.405-.412-.273-.736-.661-.971-1.163-.233-.506-.35-1.113-.35-1.82 0-.707.118-1.312.354-1.815.239-.503.565-.888.98-1.155a2.55 2.55 0 0 1 1.411-.401c.406 0 .732.069.98.205.25.133.443.29.579.469.139.179.247.336.324.473h.077v-3.243h1.274V778h-1.244v-1.018h-.107a3.393 3.393 0 0 1-.332.477 1.853 1.853 0 0 1-.588.469c-.25.133-.574.2-.972.2Zm.281-1.087c.367 0 .676-.096.929-.29.256-.196.449-.467.58-.813.133-.347.2-.751.2-1.211 0-.454-.065-.852-.196-1.193a1.757 1.757 0 0 0-.575-.797c-.253-.19-.566-.285-.938-.285-.383 0-.703.099-.959.298a1.83 1.83 0 0 0-.579.814 3.314 3.314 0 0 0-.192 1.163c0 .438.065.831.196 1.181.131.349.324.626.58.831.258.201.576.302.954.302Zm9.685-3.988-1.155.204a1.367 1.367 0 0 0-.23-.422 1.138 1.138 0 0 0-.417-.328 1.518 1.518 0 0 0-.661-.128c-.361 0-.662.081-.903.243-.242.159-.362.365-.362.618 0 .219.081.395.242.528.162.134.424.243.785.329l1.039.238c.603.139 1.051.354 1.347.644.295.289.443.666.443 1.129 0 .392-.114.741-.341 1.048-.224.304-.538.543-.942.716-.4.173-.865.26-1.393.26-.733 0-1.331-.156-1.794-.469-.463-.315-.747-.762-.852-1.342l1.231-.187c.077.321.235.563.473.728.239.162.55.243.933.243.418 0 .752-.087 1.002-.26.25-.176.375-.39.375-.643a.67.67 0 0 0-.23-.516c-.151-.139-.382-.244-.695-.315l-1.108-.243c-.611-.139-1.062-.361-1.355-.665-.29-.304-.435-.689-.435-1.155 0-.386.108-.724.324-1.014.216-.29.515-.516.895-.678a3.28 3.28 0 0 1 1.308-.247c.708 0 1.265.154 1.671.461.406.304.675.711.805 1.223ZM303.565 763.564v-1.424h6.512v1.424h-6.512Zm11.817 4.128c-.736 0-1.366-.144-1.888-.432a3.28 3.28 0 0 1-1.232-1.152 3.856 3.856 0 0 1-.528-1.568h1.584c.096.555.325.981.688 1.28.362.299.826.448 1.392.448.778 0 1.418-.363 1.92-1.088.512-.736.784-1.861.816-3.376-.256.469-.656.869-1.2 1.2-.534.331-1.152.496-1.856.496-.63 0-1.222-.149-1.776-.448a3.596 3.596 0 0 1-1.344-1.248c-.342-.544-.512-1.184-.512-1.92 0-.651.16-1.264.48-1.84.32-.576.768-1.04 1.344-1.392.586-.363 1.28-.544 2.08-.544.821 0 1.514.155 2.08.464.565.309 1.018.72 1.36 1.232.341.512.586 1.088.736 1.728.16.64.24 1.296.24 1.968 0 1.237-.176 2.32-.528 3.248-.342.928-.838 1.653-1.488 2.176-.651.512-1.44.768-2.368.768Zm.08-5.648c.448 0 .848-.101 1.2-.304.352-.203.629-.469.832-.8.213-.341.32-.715.32-1.12 0-.437-.107-.821-.32-1.152a2.124 2.124 0 0 0-.848-.8 2.465 2.465 0 0 0-1.2-.288c-.448 0-.848.096-1.2.288a2.262 2.262 0 0 0-.848.8 2.127 2.127 0 0 0-.304 1.136c0 .683.224 1.227.672 1.632.448.405 1.013.608 1.696.608Zm8.813 6.848v-1.232c-1.045-.117-1.882-.485-2.512-1.104-.629-.619-.949-1.429-.96-2.432h1.792c.011.501.16.944.448 1.328.288.373.699.624 1.232.752v-3.856a3.594 3.594 0 0 1-.272-.08 7.57 7.57 0 0 0-.272-.096c-.864-.288-1.514-.661-1.952-1.12-.426-.459-.64-1.061-.64-1.808-.01-.875.272-1.589.848-2.144.576-.555 1.339-.88 2.288-.976v-1.28h1.088v1.296c.928.107 1.675.443 2.24 1.008.566.565.854 1.275.864 2.128h-1.792a1.75 1.75 0 0 0-.352-.992c-.213-.32-.533-.539-.96-.656v3.424l.256.096c.086.021.171.048.256.08.555.181 1.051.4 1.488.656a2.94 2.94 0 0 1 1.04 1.008c.267.416.4.944.4 1.584 0 .533-.128 1.035-.384 1.504-.256.459-.64.843-1.152 1.152-.512.309-1.146.491-1.904.544v1.216h-1.088Zm-1.376-9.792c0 .427.123.757.368.992.246.224.582.421 1.008.592v-3.104a1.782 1.782 0 0 0-.992.512c-.256.256-.384.592-.384 1.008Zm4.112 5.488c0-.523-.154-.917-.464-1.184-.309-.277-.704-.507-1.184-.688v3.52c.523-.064.928-.245 1.216-.544a1.53 1.53 0 0 0 .432-1.104Z"/><path fill="#fff" d="M.653 705h380v95h-380z"/><path fill="#1A191E" d="M68.903 743.333a.919.919 0 0 1-.916.917H53.32a.92.92 0 0 1-.917-.917v-9.634a.917.917 0 0 1 .354-.724l7.334-5.703a.912.912 0 0 1 1.125 0l7.333 5.703a.924.924 0 0 1 .354.724v9.634Zm-1.833-.916v-8.27l-6.417-4.991-6.416 4.991v8.27H67.07ZM44.612 765v-8.727h1.317v3.792h4.35v-3.792h1.322V765H50.28v-3.805h-4.351V765h-1.317Zm11.561.132c-.613 0-1.149-.141-1.606-.422a2.84 2.84 0 0 1-1.066-1.18c-.252-.506-.379-1.097-.379-1.773 0-.679.127-1.273.38-1.781a2.836 2.836 0 0 1 1.065-1.185c.457-.281.993-.422 1.606-.422.614 0 1.15.141 1.607.422.457.281.812.676 1.065 1.185.253.508.38 1.102.38 1.781 0 .676-.127 1.267-.38 1.773a2.84 2.84 0 0 1-1.065 1.18c-.458.281-.993.422-1.607.422Zm.005-1.07c.397 0 .727-.105.988-.315.262-.21.455-.49.58-.839.127-.35.191-.735.191-1.155a3.33 3.33 0 0 0-.191-1.151 1.875 1.875 0 0 0-.58-.848c-.261-.213-.59-.319-.988-.319-.401 0-.733.106-.998.319a1.905 1.905 0 0 0-.584.848c-.124.35-.187.733-.187 1.151 0 .42.063.805.188 1.155.127.349.322.629.583.839.264.21.597.315.998.315Zm4.469.938v-6.545h1.223v1.065h.08c.137-.361.36-.642.67-.844.31-.204.68-.307 1.112-.307.437 0 .804.103 1.1.307.297.205.518.486.66.844h.068c.156-.35.405-.628.746-.835.34-.211.747-.316 1.218-.316.594 0 1.079.186 1.454.559.377.372.566.933.566 1.683V765H68.27v-4.27c0-.443-.12-.764-.362-.963a1.316 1.316 0 0 0-.865-.298c-.415 0-.737.128-.967.383-.23.253-.346.578-.346.976V765h-1.27v-4.351c0-.355-.11-.64-.332-.856-.221-.216-.51-.324-.865-.324-.241 0-.464.064-.669.192a1.403 1.403 0 0 0-.49.524 1.602 1.602 0 0 0-.183.779V765h-1.274Zm13.426.132c-.645 0-1.2-.138-1.666-.413a2.806 2.806 0 0 1-1.074-1.172c-.25-.506-.375-1.098-.375-1.777 0-.671.125-1.261.375-1.773.253-.511.605-.91 1.057-1.197.454-.287.986-.431 1.594-.431.369 0 .727.061 1.073.184.347.122.658.313.934.575.275.261.493.601.652 1.018.159.415.238.919.238 1.513v.452h-5.203v-.955h3.955c0-.335-.069-.632-.205-.89a1.54 1.54 0 0 0-.575-.618 1.604 1.604 0 0 0-.86-.226c-.359 0-.671.088-.938.264a1.773 1.773 0 0 0-.614.682 1.967 1.967 0 0 0-.213.908v.745c0 .438.077.81.23 1.117.156.307.374.541.652.703.278.159.604.239.976.239.241 0 .462-.035.66-.103a1.366 1.366 0 0 0 .848-.831l1.206.218c-.096.355-.27.666-.52.933-.247.264-.558.47-.933.618a3.49 3.49 0 0 1-1.274.217ZM144.653 745.167a9.167 9.167 0 0 1-9.167-9.167 9.167 9.167 0 0 1 9.167-9.167A9.167 9.167 0 0 1 153.82 736a9.167 9.167 0 0 1-9.167 9.167Zm0-1.834c1.945 0 3.81-.772 5.185-2.148a7.333 7.333 0 1 0-5.185 2.148Zm-3.208-5.5h5.041a.457.457 0 1 0 0-.916h-3.666a2.293 2.293 0 0 1 0-4.584h.916V730.5h1.834v1.833h2.291v1.834h-5.041a.457.457 0 1 0 0 .916h3.666a2.292 2.292 0 1 1 0 4.584h-.916v1.833h-1.834v-1.833h-2.291v-1.834ZM127.372 758.565a1.243 1.243 0 0 0-.562-.937c-.33-.225-.745-.337-1.245-.337-.358 0-.667.057-.929.171-.261.11-.464.264-.609.46a1.085 1.085 0 0 0-.213.66c0 .208.048.387.145.537.099.151.228.277.388.38.161.099.335.183.519.251.185.065.363.119.533.162l.852.222c.279.068.564.16.857.277.292.116.564.269.814.46.25.19.451.426.605.707.156.281.234.618.234 1.01 0 .494-.128.933-.383 1.317-.253.383-.621.686-1.104.907-.48.222-1.061.333-1.743.333-.653 0-1.219-.104-1.696-.311-.477-.208-.851-.502-1.121-.882-.269-.384-.419-.838-.447-1.364h1.321c.026.315.128.578.307.788.182.208.413.363.694.465.284.099.596.149.934.149.372 0 .703-.058.993-.175.292-.119.522-.284.69-.494.167-.213.251-.462.251-.746a.92.92 0 0 0-.221-.635 1.65 1.65 0 0 0-.593-.409 5.746 5.746 0 0 0-.839-.285l-1.031-.282c-.699-.19-1.253-.47-1.662-.839-.407-.369-.61-.858-.61-1.466 0-.503.137-.942.409-1.317a2.684 2.684 0 0 1 1.108-.873 3.8 3.8 0 0 1 1.577-.316c.591 0 1.112.104 1.564.311.455.208.813.493 1.074.857.261.361.398.776.409 1.244h-1.27Zm4.765 6.58c-.414 0-.789-.077-1.125-.23a1.892 1.892 0 0 1-.797-.678c-.193-.295-.289-.657-.289-1.086 0-.37.071-.674.213-.912.142-.239.334-.428.575-.567a3.01 3.01 0 0 1 .81-.315c.298-.071.602-.125.912-.162l.954-.111c.244-.031.422-.081.533-.149.111-.069.166-.179.166-.333v-.03c0-.372-.105-.66-.315-.865-.208-.204-.517-.306-.929-.306-.429 0-.767.095-1.014.285-.245.188-.414.396-.508.626l-1.197-.272c.142-.398.349-.719.622-.963a2.53 2.53 0 0 1 .95-.537 3.703 3.703 0 0 1 1.13-.171c.261 0 .538.032.831.094.295.06.571.171.826.332.259.162.471.394.635.695.165.298.247.686.247 1.163V765h-1.244v-.895h-.051a1.798 1.798 0 0 1-.371.486 1.966 1.966 0 0 1-.635.396 2.463 2.463 0 0 1-.929.158Zm.277-1.023c.353 0 .654-.069.904-.209.253-.139.444-.321.575-.545.134-.227.2-.47.2-.729v-.844c-.045.046-.133.089-.264.128-.128.037-.274.07-.439.098l-.481.073-.392.051a3.135 3.135 0 0 0-.678.158c-.202.073-.364.18-.486.319-.119.137-.179.318-.179.546 0 .315.117.554.35.716.233.159.53.238.89.238Zm10.016-5.667L140.056 765h-1.364l-2.377-6.545h1.367l1.658 5.036h.068l1.654-5.036h1.368Zm1.197 6.545v-6.545h1.274V765h-1.274Zm.644-7.555a.812.812 0 0 1-.572-.222.722.722 0 0 1-.234-.537c0-.21.078-.389.234-.537.16-.15.35-.226.572-.226.221 0 .41.076.566.226a.707.707 0 0 1 .239.537c0 .207-.08.386-.239.537a.793.793 0 0 1-.566.222Zm3.618 3.669V765h-1.274v-6.545h1.223v1.065h.081c.151-.347.387-.625.708-.835.324-.211.731-.316 1.223-.316.446 0 .836.094 1.172.282.335.184.595.46.779.826.185.367.277.82.277 1.36V765h-1.274v-4.01c0-.474-.123-.845-.37-1.112-.248-.27-.587-.405-1.019-.405-.295 0-.558.064-.788.192a1.38 1.38 0 0 0-.542.562c-.13.245-.196.54-.196.887Zm8.643 6.477c-.52 0-.968-.068-1.343-.205a2.59 2.59 0 0 1-.912-.541 2.256 2.256 0 0 1-.528-.737l1.095-.452c.077.125.179.257.307.397.131.142.307.262.528.362.225.099.513.149.865.149.483 0 .882-.118 1.198-.354.315-.233.473-.605.473-1.116v-1.287h-.081a2.911 2.911 0 0 1-.333.464 1.789 1.789 0 0 1-.588.443c-.25.125-.575.188-.976.188a2.73 2.73 0 0 1-1.397-.362c-.412-.245-.739-.604-.98-1.078-.239-.478-.358-1.064-.358-1.76s.118-1.293.353-1.79c.239-.497.566-.878.98-1.142a2.55 2.55 0 0 1 1.411-.401c.406 0 .734.069.984.205.25.133.445.29.584.469.142.179.252.336.328.473h.094v-1.061h1.249v6.69c0 .562-.131 1.024-.392 1.385a2.306 2.306 0 0 1-1.061.801c-.444.173-.944.26-1.5.26Zm-.013-3.746c.366 0 .676-.085.929-.256.255-.173.449-.42.579-.741.134-.324.201-.712.201-1.163 0-.441-.066-.828-.196-1.164a1.735 1.735 0 0 0-.576-.784c-.253-.19-.565-.285-.937-.285-.384 0-.703.099-.959.298a1.8 1.8 0 0 0-.58.801 3.204 3.204 0 0 0-.191 1.134c0 .429.065.805.196 1.129.13.324.324.577.579.758.259.182.577.273.955.273Zm9.579-3.792-1.155.204a1.367 1.367 0 0 0-.23-.422 1.138 1.138 0 0 0-.417-.328 1.518 1.518 0 0 0-.661-.128c-.361 0-.662.081-.903.243-.242.159-.362.365-.362.618 0 .219.081.395.242.528.162.134.424.243.785.329l1.039.238c.603.139 1.051.354 1.347.644.295.289.443.666.443 1.129 0 .392-.114.741-.341 1.048-.224.304-.538.543-.942.716-.4.173-.865.26-1.393.26-.733 0-1.331-.156-1.794-.469-.463-.315-.747-.762-.852-1.342l1.231-.187c.077.321.235.563.473.728.239.162.55.243.933.243.418 0 .752-.087 1.002-.26.25-.176.375-.39.375-.643a.67.67 0 0 0-.23-.516c-.151-.139-.382-.244-.695-.315l-1.108-.243c-.611-.139-1.062-.361-1.355-.665-.29-.304-.435-.689-.435-1.155 0-.386.108-.724.324-1.014.216-.29.515-.516.895-.678a3.28 3.28 0 0 1 1.308-.247c.708 0 1.265.154 1.671.461.406.304.675.711.805 1.223ZM220.403 727.75h16.5a.92.92 0 0 1 .917.917v14.666a.919.919 0 0 1-.917.917h-16.5a.92.92 0 0 1-.917-.917v-14.666a.919.919 0 0 1 .917-.917Zm15.583 8.25H221.32v6.417h14.666V736Zm0-3.667v-2.75H221.32v2.75h14.666ZM219.861 759.111h-1.33a2.035 2.035 0 0 0-.797-1.3 2.212 2.212 0 0 0-.677-.341 2.637 2.637 0 0 0-.789-.115c-.502 0-.953.127-1.35.379-.395.253-.708.624-.938 1.113-.227.488-.341 1.085-.341 1.789 0 .711.114 1.31.341 1.799.23.488.544.858.942 1.108.398.25.845.375 1.342.375.276 0 .537-.037.784-.111.25-.077.476-.189.678-.337a2.043 2.043 0 0 0 .805-1.282l1.33.004a3.54 3.54 0 0 1-.414 1.184 3.252 3.252 0 0 1-.779.929 3.53 3.53 0 0 1-1.083.601 4 4 0 0 1-1.329.213c-.756 0-1.429-.179-2.02-.537-.591-.36-1.057-.876-1.398-1.546-.338-.671-.507-1.471-.507-2.4 0-.931.17-1.731.511-2.399.341-.67.807-1.184 1.398-1.542.591-.361 1.263-.542 2.016-.542.463 0 .894.067 1.295.201.403.13.766.324 1.087.579.321.253.586.563.797.929.21.364.352.78.426 1.249Zm3.378 6.034c-.415 0-.79-.077-1.125-.23a1.892 1.892 0 0 1-.797-.678c-.193-.295-.29-.657-.29-1.086 0-.37.071-.674.213-.912.142-.239.334-.428.576-.567.241-.139.511-.244.809-.315.299-.071.603-.125.912-.162l.955-.111c.244-.031.422-.081.532-.149.111-.069.167-.179.167-.333v-.03c0-.372-.106-.66-.316-.865-.207-.204-.517-.306-.929-.306-.429 0-.767.095-1.014.285-.244.188-.413.396-.507.626l-1.197-.272c.142-.398.349-.719.622-.963.275-.247.592-.426.95-.537a3.697 3.697 0 0 1 1.129-.171c.262 0 .539.032.831.094.296.06.571.171.827.332.258.162.47.394.635.695.165.298.247.686.247 1.163V765h-1.244v-.895h-.051a1.818 1.818 0 0 1-.371.486 1.977 1.977 0 0 1-.635.396 2.466 2.466 0 0 1-.929.158Zm.277-1.023c.352 0 .653-.069.903-.209.253-.139.445-.321.576-.545.133-.227.2-.47.2-.729v-.844a.654.654 0 0 1-.264.128c-.128.037-.274.07-.439.098l-.482.073-.392.051a3.125 3.125 0 0 0-.677.158c-.202.073-.364.18-.486.319-.12.137-.179.318-.179.546 0 .315.116.554.349.716.233.159.53.238.891.238Zm4.65.878v-6.545h1.232v1.039h.068a1.58 1.58 0 0 1 .631-.831 1.804 1.804 0 0 1 1.031-.306 5.063 5.063 0 0 1 .541.029v1.219a2.3 2.3 0 0 0-.273-.047c-.13-.02-.261-.03-.392-.03a1.66 1.66 0 0 0-.805.192 1.425 1.425 0 0 0-.759 1.283V765h-1.274Zm6.821.128c-.528 0-1-.135-1.414-.405-.412-.273-.736-.661-.972-1.163-.233-.506-.349-1.113-.349-1.82 0-.707.118-1.312.353-1.815.239-.503.566-.888.98-1.155a2.55 2.55 0 0 1 1.411-.401c.406 0 .733.069.98.205.25.133.443.29.58.469.139.179.247.336.324.473h.076v-3.243h1.274V765h-1.244v-1.018h-.106a3.41 3.41 0 0 1-.333.477 1.853 1.853 0 0 1-.588.469c-.25.133-.574.2-.972.2Zm.282-1.087c.366 0 .676-.096.929-.29.255-.196.449-.467.579-.813.134-.347.201-.751.201-1.211a3.34 3.34 0 0 0-.196-1.193 1.759 1.759 0 0 0-.576-.797c-.253-.19-.565-.285-.937-.285-.384 0-.703.099-.959.298-.256.199-.449.47-.58.814a3.338 3.338 0 0 0-.191 1.163c0 .438.065.831.196 1.181.13.349.324.626.579.831.259.201.577.302.955.302Zm9.685-3.988-1.155.204a1.367 1.367 0 0 0-.23-.422 1.142 1.142 0 0 0-.418-.328 1.513 1.513 0 0 0-.66-.128c-.361 0-.662.081-.904.243-.241.159-.362.365-.362.618a.65.65 0 0 0 .243.528c.162.134.423.243.784.329l1.04.238c.602.139 1.051.354 1.346.644.296.289.444.666.444 1.129 0 .392-.114.741-.341 1.048-.225.304-.539.543-.942.716-.401.173-.865.26-1.394.26-.733 0-1.331-.156-1.794-.469-.463-.315-.747-.762-.852-1.342l1.232-.187c.076.321.234.563.473.728.238.162.549.243.933.243.418 0 .751-.087 1.001-.26.25-.176.375-.39.375-.643a.666.666 0 0 0-.23-.516c-.15-.139-.382-.244-.694-.315l-1.108-.243c-.611-.139-1.063-.361-1.355-.665-.29-.304-.435-.689-.435-1.155 0-.386.108-.724.324-1.014.216-.29.514-.516.895-.678.38-.164.816-.247 1.308-.247.707 0 1.264.154 1.67.461.407.304.675.711.806 1.223ZM320.987 745.167h-1.833v-1.834a2.75 2.75 0 0 0-2.75-2.75h-5.5a2.75 2.75 0 0 0-2.75 2.75v1.834h-1.834v-1.834a4.58 4.58 0 0 1 1.343-3.24 4.58 4.58 0 0 1 3.241-1.343h5.5a4.584 4.584 0 0 1 4.583 4.583v1.834Zm-7.333-8.25a5.505 5.505 0 0 1-5.082-3.395 5.512 5.512 0 0 1 0-4.21 5.501 5.501 0 0 1 10.582 2.105 5.504 5.504 0 0 1-5.5 5.5Zm0-1.834a3.663 3.663 0 0 0 3.666-3.666 3.666 3.666 0 1 0-3.666 3.666ZM291.349 765h-1.397l3.14-8.727h1.522l3.14 8.727h-1.398l-2.467-7.142h-.068L291.349 765Zm.235-3.418h4.534v1.108h-4.534v-1.108Zm9.98 3.55c-.634 0-1.179-.143-1.637-.43a2.85 2.85 0 0 1-1.048-1.198c-.244-.508-.366-1.091-.366-1.747 0-.665.125-1.251.375-1.76.25-.511.602-.91 1.057-1.197.454-.287.99-.431 1.606-.431.497 0 .94.093 1.33.277.389.182.703.438.941.767.242.33.385.715.431 1.155h-1.24a1.483 1.483 0 0 0-.469-.792c-.242-.222-.565-.333-.972-.333-.355 0-.666.094-.933.281-.264.185-.47.449-.618.793-.148.341-.221.744-.221 1.21 0 .478.072.889.217 1.236.145.347.349.615.614.805.267.191.581.286.941.286.242 0 .461-.044.657-.132.198-.091.365-.22.498-.388.137-.168.232-.369.286-.605h1.24a2.404 2.404 0 0 1-.414 1.133 2.38 2.38 0 0 1-.924.785c-.384.19-.834.285-1.351.285Zm6.808 0c-.633 0-1.179-.143-1.636-.43a2.85 2.85 0 0 1-1.048-1.198c-.245-.508-.367-1.091-.367-1.747 0-.665.125-1.251.375-1.76.25-.511.603-.91 1.057-1.197.455-.287.99-.431 1.607-.431.497 0 .94.093 1.329.277.389.182.703.438.942.767.241.33.385.715.43 1.155h-1.24a1.481 1.481 0 0 0-.468-.792c-.242-.222-.566-.333-.972-.333-.355 0-.666.094-.933.281-.264.185-.47.449-.618.793-.148.341-.222.744-.222 1.21 0 .478.073.889.218 1.236.144.347.349.615.613.805.267.191.581.286.942.286.241 0 .46-.044.656-.132.199-.091.365-.22.499-.388.136-.168.231-.369.285-.605h1.24a2.403 2.403 0 0 1-.413 1.133c-.23.333-.538.594-.925.785-.383.19-.834.285-1.351.285Zm6.809 0c-.614 0-1.149-.141-1.607-.422a2.843 2.843 0 0 1-1.065-1.18c-.253-.506-.379-1.097-.379-1.773 0-.679.126-1.273.379-1.781a2.839 2.839 0 0 1 1.065-1.185c.458-.281.993-.422 1.607-.422s1.149.141 1.607.422c.457.281.812.676 1.065 1.185.253.508.379 1.102.379 1.781 0 .676-.126 1.267-.379 1.773a2.843 2.843 0 0 1-1.065 1.18c-.458.281-.993.422-1.607.422Zm.004-1.07c.398 0 .728-.105.989-.315.261-.21.454-.49.579-.839a3.34 3.34 0 0 0 .192-1.155c0-.418-.064-.801-.192-1.151a1.877 1.877 0 0 0-.579-.848c-.261-.213-.591-.319-.989-.319-.4 0-.733.106-.997.319a1.91 1.91 0 0 0-.584.848c-.125.35-.187.733-.187 1.151 0 .42.062.805.187 1.155.128.349.323.629.584.839.264.21.597.315.997.315Zm8.616-1.776v-3.831h1.278V765h-1.253v-1.134h-.068c-.15.35-.392.641-.724.874-.33.23-.74.345-1.232.345-.42 0-.793-.092-1.116-.277a1.944 1.944 0 0 1-.759-.831c-.182-.366-.273-.819-.273-1.359v-4.163h1.275v4.009c0 .447.123.802.37 1.066s.568.396.963.396c.239 0 .476-.06.712-.179.239-.119.436-.3.592-.541.159-.242.238-.548.235-.92Zm4.264-1.172V765h-1.274v-6.545h1.223v1.065h.081c.151-.347.386-.625.707-.835.324-.211.732-.316 1.223-.316.447 0 .837.094 1.172.282.336.184.596.46.78.826.185.367.277.82.277 1.36V765h-1.274v-4.01c0-.474-.124-.845-.371-1.112-.247-.27-.586-.405-1.018-.405-.296 0-.558.064-.789.192a1.384 1.384 0 0 0-.541.562c-.13.245-.196.54-.196.887Zm8.953-2.659v1.022h-3.575v-1.022h3.575Zm-2.616-1.569h1.274v6.192c0 .247.037.433.111.558a.58.58 0 0 0 .285.252c.12.042.249.064.388.064.102 0 .192-.007.269-.022l.179-.034.23 1.053a2.516 2.516 0 0 1-.827.136 2.242 2.242 0 0 1-.938-.179 1.614 1.614 0 0 1-.703-.579c-.179-.262-.268-.59-.268-.985v-6.456Z"/></g><rect width="370" height="790" x="5.653" y="5" stroke="#1A191E" stroke-width="10" rx="45"/><defs><clipPath id="a"><rect width="380" height="800" x=".653" fill="#fff" rx="50"/></clipPath></defs></svg>