<svg xmlns="http://www.w3.org/2000/svg" width="381" height="800" fill="none"><g clip-path="url(#a)"><rect width="380" height="800" x=".653" fill="#fff" rx="50"/><path fill="#1A191E" d="M45.481 54h12.172v2H45.481l5.364 5.364-1.414 1.414L41.653 55l7.778-7.778 1.414 1.414L45.481 54ZM161.693 62.24c-1.026 0-1.926-.18-2.7-.54-.773-.36-1.38-.873-1.82-1.54-.426-.667-.646-1.46-.66-2.38h2.24c.014.747.274 1.38.78 1.9.507.52 1.22.78 2.14.78.814 0 1.447-.193 1.9-.58.467-.4.7-.907.7-1.52 0-.493-.113-.893-.34-1.2a2.42 2.42 0 0 0-.9-.76c-.373-.2-.806-.38-1.3-.54-.493-.16-1.013-.333-1.56-.52-1.08-.36-1.893-.827-2.44-1.4-.533-.573-.8-1.327-.8-2.26-.013-.787.167-1.473.54-2.06.387-.587.92-1.04 1.6-1.36.694-.333 1.5-.5 2.42-.5.907 0 1.7.167 2.38.5.694.333 1.234.8 1.62 1.4.387.587.587 1.273.6 2.06h-2.24c0-.36-.093-.7-.28-1.02a2.194 2.194 0 0 0-.82-.82c-.36-.213-.8-.32-1.32-.32-.666-.013-1.22.153-1.66.5-.426.347-.64.827-.64 1.44 0 .547.16.967.48 1.26.32.293.76.54 1.32.74.56.187 1.2.407 1.92.66.694.227 1.314.5 1.86.82.547.32.98.74 1.3 1.26.334.52.5 1.18.5 1.98 0 .707-.18 1.367-.54 1.98-.36.6-.9 1.093-1.62 1.48-.72.373-1.606.56-2.66.56Zm9.818 0c-.84 0-1.533-.14-2.08-.42-.547-.28-.953-.647-1.22-1.1a3.008 3.008 0 0 1-.4-1.52c0-.96.373-1.72 1.12-2.28.747-.56 1.813-.84 3.2-.84h2.6v-.18c0-.773-.213-1.353-.64-1.74-.413-.387-.953-.58-1.62-.58-.587 0-1.1.147-1.54.44-.427.28-.687.7-.78 1.26h-2.12c.067-.72.307-1.333.72-1.84a4.05 4.05 0 0 1 1.6-1.18 5.376 5.376 0 0 1 2.14-.42c1.387 0 2.46.367 3.22 1.1.76.72 1.14 1.707 1.14 2.96V62h-1.84l-.18-1.7a3.772 3.772 0 0 1-1.22 1.38c-.533.373-1.233.56-2.1.56Zm.42-1.72c.573 0 1.053-.133 1.44-.4.4-.28.707-.647.92-1.1a4.23 4.23 0 0 0 .42-1.5h-2.36c-.84 0-1.44.147-1.8.44-.347.293-.52.66-.52 1.1 0 .453.167.813.5 1.08.347.253.813.38 1.4.38Zm9.24 1.48-3.72-9.92h2.22l2.76 7.9 2.76-7.9h2.2l-3.7 9.92h-2.52Zm8.562-11.8c-.4 0-.733-.12-1-.36a1.278 1.278 0 0 1-.38-.94c0-.373.127-.68.38-.92.267-.253.6-.38 1-.38s.727.127.98.38c.267.24.4.547.4.92s-.133.687-.4.94c-.253.24-.58.36-.98.36Zm-1.06 11.8v-9.92h2.12V62h-2.12Zm4.319 0v-9.92h1.88l.16 1.74a3.402 3.402 0 0 1 1.34-1.44c.6-.36 1.286-.54 2.06-.54 1.2 0 2.14.373 2.82 1.12.693.747 1.04 1.86 1.04 3.34V62h-2.1v-5.48c0-1.92-.787-2.88-2.36-2.88-.787 0-1.44.28-1.96.84-.507.56-.76 1.36-.76 2.4V62h-2.12Zm15.257-3.04c-.52 0-1-.06-1.44-.18l-.86.84c.146.093.326.173.54.24.213.067.513.127.9.18.386.053.913.107 1.58.16 1.32.12 2.273.44 2.86.96.586.507.88 1.187.88 2.04 0 .587-.16 1.14-.48 1.66-.307.533-.794.96-1.46 1.28-.654.333-1.494.5-2.52.5-1.387 0-2.514-.267-3.38-.8-.854-.52-1.28-1.313-1.28-2.38 0-.413.106-.827.32-1.24.226-.4.58-.78 1.06-1.14a5.43 5.43 0 0 1-.74-.38c-.2-.147-.38-.293-.54-.44v-.48l1.72-1.76c-.774-.667-1.16-1.54-1.16-2.62 0-.653.153-1.247.46-1.78.32-.547.78-.98 1.38-1.3.6-.32 1.32-.48 2.16-.48.56 0 1.08.08 1.56.24h3.7v1.4l-1.76.1c.32.547.48 1.153.48 1.82a3.43 3.43 0 0 1-.48 1.8c-.307.533-.76.96-1.36 1.28-.587.32-1.3.48-2.14.48Zm0-1.66c.613 0 1.106-.16 1.48-.48.386-.333.58-.8.58-1.4 0-.613-.194-1.08-.58-1.4-.374-.32-.867-.48-1.48-.48-.627 0-1.134.16-1.52.48-.374.32-.56.787-.56 1.4 0 .6.186 1.067.56 1.4.386.32.893.48 1.52.48Zm-2.66 5.96c0 .573.253 1 .76 1.28.506.293 1.14.44 1.9.44.733 0 1.326-.16 1.78-.48.453-.307.68-.72.68-1.24 0-.387-.154-.72-.46-1-.307-.267-.887-.433-1.74-.5-.64-.04-1.207-.1-1.7-.18-.467.253-.787.527-.96.82-.174.293-.26.58-.26.86Zm13.171-1.02c-1.254 0-2.287-.307-3.1-.92-.814-.613-1.28-1.427-1.4-2.44h2.14c.106.453.36.847.76 1.18.4.32.926.48 1.58.48.64 0 1.106-.133 1.4-.4.293-.267.44-.573.44-.92 0-.507-.207-.847-.62-1.02-.4-.187-.96-.353-1.68-.5-.56-.12-1.12-.28-1.68-.48a3.87 3.87 0 0 1-1.38-.84c-.36-.373-.54-.873-.54-1.5 0-.867.333-1.587 1-2.16.666-.587 1.6-.88 2.8-.88 1.106 0 2 .267 2.68.8.693.533 1.1 1.287 1.22 2.26h-2.04a1.459 1.459 0 0 0-.6-1c-.32-.24-.754-.36-1.3-.36-.534 0-.947.113-1.24.34-.294.213-.44.493-.44.84s.2.62.6.82c.413.2.953.38 1.62.54.666.147 1.28.32 1.84.52.573.187 1.033.467 1.38.84.346.373.52.92.52 1.64.013.907-.34 1.66-1.06 2.26-.707.6-1.674.9-2.9.9ZM330.653 65c-5.523 0-10-4.477-10-10s4.477-10 10-10 10 4.477 10 10-4.477 10-10 10Zm0-2a8 8 0 1 0 0-16 8 8 0 0 0 0 16Zm-1-5h2v2h-2v-2Zm2-1.645V57h-2v-1.5a1.002 1.002 0 0 1 1-1 1.502 1.502 0 0 0 1.489-1.683 1.504 1.504 0 0 0-1.017-1.241 1.501 1.501 0 0 0-1.943 1.13l-1.962-.393a3.509 3.509 0 0 1 2.342-2.64 3.502 3.502 0 1 1 2.091 6.682Z"/><path fill="#fff" d="M.653 705h380v95h-380z"/><path fill="#1A191E" d="M68.903 743.333a.917.917 0 0 1-.916.917H53.32a.917.917 0 0 1-.917-.917v-9.634a.914.914 0 0 1 .354-.724l7.334-5.704a.918.918 0 0 1 1.125 0l7.333 5.704a.915.915 0 0 1 .354.724v9.634Zm-1.833-.917v-8.27l-6.417-4.99-6.416 4.99v8.27H67.07ZM44.612 765v-8.727h1.317v3.792h4.35v-3.792h1.322V765H50.28v-3.805h-4.351V765h-1.317Zm11.561.132c-.613 0-1.149-.141-1.606-.422a2.84 2.84 0 0 1-1.066-1.18c-.252-.506-.379-1.097-.379-1.773 0-.679.127-1.273.38-1.781a2.836 2.836 0 0 1 1.065-1.185c.457-.281.993-.422 1.606-.422.614 0 1.15.141 1.607.422.457.281.812.676 1.065 1.185.253.508.38 1.102.38 1.781 0 .676-.127 1.267-.38 1.773a2.84 2.84 0 0 1-1.065 1.18c-.458.281-.993.422-1.607.422Zm.005-1.07c.397 0 .727-.105.988-.315.262-.21.455-.49.58-.839.127-.35.191-.735.191-1.155a3.33 3.33 0 0 0-.191-1.151 1.875 1.875 0 0 0-.58-.848c-.261-.213-.59-.319-.988-.319-.401 0-.733.106-.998.319a1.905 1.905 0 0 0-.584.848c-.124.35-.187.733-.187 1.151 0 .42.063.805.188 1.155.127.349.322.629.583.839.264.21.597.315.998.315Zm4.469.938v-6.545h1.223v1.065h.08c.137-.361.36-.642.67-.844.31-.204.68-.307 1.112-.307.437 0 .804.103 1.1.307.297.205.518.486.66.844h.068c.156-.35.405-.628.746-.835.34-.211.747-.316 1.218-.316.594 0 1.079.186 1.454.559.377.372.566.933.566 1.683V765H68.27v-4.27c0-.443-.12-.764-.362-.963a1.316 1.316 0 0 0-.865-.298c-.415 0-.737.128-.967.383-.23.253-.346.578-.346.976V765h-1.27v-4.351c0-.355-.11-.64-.332-.856-.221-.216-.51-.324-.865-.324-.241 0-.464.064-.669.192a1.403 1.403 0 0 0-.49.524 1.602 1.602 0 0 0-.183.779V765h-1.274Zm13.426.132c-.645 0-1.2-.138-1.666-.413a2.806 2.806 0 0 1-1.074-1.172c-.25-.506-.375-1.098-.375-1.777 0-.671.125-1.261.375-1.773.253-.511.605-.91 1.057-1.197.454-.287.986-.431 1.594-.431.369 0 .727.061 1.073.184.347.122.658.313.934.575.275.261.493.601.652 1.018.159.415.238.919.238 1.513v.452h-5.203v-.955h3.955c0-.335-.069-.632-.205-.89a1.54 1.54 0 0 0-.575-.618 1.604 1.604 0 0 0-.86-.226c-.359 0-.671.088-.938.264a1.773 1.773 0 0 0-.614.682 1.967 1.967 0 0 0-.213.908v.745c0 .438.077.81.23 1.117.156.307.374.541.652.703.278.159.604.239.976.239.241 0 .462-.035.66-.103a1.366 1.366 0 0 0 .848-.831l1.206.218c-.096.355-.27.666-.52.933-.247.264-.558.47-.933.618a3.49 3.49 0 0 1-1.274.217Z"/><path fill="#5BB5A2" d="M144.653 745.167a9.167 9.167 0 0 1-9.167-9.167 9.167 9.167 0 0 1 9.167-9.167A9.167 9.167 0 0 1 153.82 736a9.167 9.167 0 0 1-9.167 9.167Zm0-1.834a7.332 7.332 0 1 0 0-14.666c-1.945 0-3.81.772-5.185 2.148a7.333 7.333 0 0 0 5.185 12.518Zm-3.208-5.5h5.041a.457.457 0 1 0 0-.916h-3.666a2.292 2.292 0 1 1 0-4.584h.916V730.5h1.834v1.833h2.291v1.834h-5.041a.457.457 0 1 0 0 .916h3.666a2.293 2.293 0 0 1 0 4.584h-.916v1.833h-1.834v-1.833h-2.291v-1.834ZM127.372 758.565a1.243 1.243 0 0 0-.562-.937c-.33-.225-.745-.337-1.245-.337-.358 0-.667.057-.929.171-.261.11-.464.264-.609.46a1.085 1.085 0 0 0-.213.66c0 .208.048.387.145.537.099.151.228.277.388.38.161.099.335.183.519.251.185.065.363.119.533.162l.852.222c.279.068.564.16.857.277.292.116.564.269.814.46.25.19.451.426.605.707.156.281.234.618.234 1.01 0 .494-.128.933-.383 1.317-.253.383-.621.686-1.104.907-.48.222-1.061.333-1.743.333-.653 0-1.219-.104-1.696-.311-.477-.208-.851-.502-1.121-.882-.269-.384-.419-.838-.447-1.364h1.321c.026.315.128.578.307.788.182.208.413.363.694.465.284.099.596.149.934.149.372 0 .703-.058.993-.175.292-.119.522-.284.69-.494.167-.213.251-.462.251-.746a.92.92 0 0 0-.221-.635 1.65 1.65 0 0 0-.593-.409 5.746 5.746 0 0 0-.839-.285l-1.031-.282c-.699-.19-1.253-.47-1.662-.839-.407-.369-.61-.858-.61-1.466 0-.503.137-.942.409-1.317a2.684 2.684 0 0 1 1.108-.873 3.8 3.8 0 0 1 1.577-.316c.591 0 1.112.104 1.564.311.455.208.813.493 1.074.857.261.361.398.776.409 1.244h-1.27Zm4.765 6.58c-.414 0-.789-.077-1.125-.23a1.892 1.892 0 0 1-.797-.678c-.193-.295-.289-.657-.289-1.086 0-.37.071-.674.213-.912.142-.239.334-.428.575-.567a3.01 3.01 0 0 1 .81-.315c.298-.071.602-.125.912-.162l.954-.111c.244-.031.422-.081.533-.149.111-.069.166-.179.166-.333v-.03c0-.372-.105-.66-.315-.865-.208-.204-.517-.306-.929-.306-.429 0-.767.095-1.014.285-.245.188-.414.396-.508.626l-1.197-.272c.142-.398.349-.719.622-.963a2.53 2.53 0 0 1 .95-.537 3.703 3.703 0 0 1 1.13-.171c.261 0 .538.032.831.094.295.06.571.171.826.332.259.162.471.394.635.695.165.298.247.686.247 1.163V765h-1.244v-.895h-.051a1.798 1.798 0 0 1-.371.486 1.966 1.966 0 0 1-.635.396 2.463 2.463 0 0 1-.929.158Zm.277-1.023c.353 0 .654-.069.904-.209.253-.139.444-.321.575-.545.134-.227.2-.47.2-.729v-.844c-.045.046-.133.089-.264.128-.128.037-.274.07-.439.098l-.481.073-.392.051a3.135 3.135 0 0 0-.678.158c-.202.073-.364.18-.486.319-.119.137-.179.318-.179.546 0 .315.117.554.35.716.233.159.53.238.89.238Zm10.016-5.667L140.056 765h-1.364l-2.377-6.545h1.367l1.658 5.036h.068l1.654-5.036h1.368Zm1.197 6.545v-6.545h1.274V765h-1.274Zm.644-7.555a.812.812 0 0 1-.572-.222.722.722 0 0 1-.234-.537c0-.21.078-.389.234-.537.16-.15.35-.226.572-.226.221 0 .41.076.566.226a.707.707 0 0 1 .239.537c0 .207-.08.386-.239.537a.793.793 0 0 1-.566.222Zm3.618 3.669V765h-1.274v-6.545h1.223v1.065h.081c.151-.347.387-.625.708-.835.324-.211.731-.316 1.223-.316.446 0 .836.094 1.172.282.335.184.595.46.779.826.185.367.277.82.277 1.36V765h-1.274v-4.01c0-.474-.123-.845-.37-1.112-.248-.27-.587-.405-1.019-.405-.295 0-.558.064-.788.192a1.38 1.38 0 0 0-.542.562c-.13.245-.196.54-.196.887Zm8.643 6.477c-.52 0-.968-.068-1.343-.205a2.59 2.59 0 0 1-.912-.541 2.256 2.256 0 0 1-.528-.737l1.095-.452c.077.125.179.257.307.397.131.142.307.262.528.362.225.099.513.149.865.149.483 0 .882-.118 1.198-.354.315-.233.473-.605.473-1.116v-1.287h-.081a2.911 2.911 0 0 1-.333.464 1.789 1.789 0 0 1-.588.443c-.25.125-.575.188-.976.188a2.73 2.73 0 0 1-1.397-.362c-.412-.245-.739-.604-.98-1.078-.239-.478-.358-1.064-.358-1.76s.118-1.293.353-1.79c.239-.497.566-.878.98-1.142a2.55 2.55 0 0 1 1.411-.401c.406 0 .734.069.984.205.25.133.445.29.584.469.142.179.252.336.328.473h.094v-1.061h1.249v6.69c0 .562-.131 1.024-.392 1.385a2.306 2.306 0 0 1-1.061.801c-.444.173-.944.26-1.5.26Zm-.013-3.746c.366 0 .676-.085.929-.256.255-.173.449-.42.579-.741.134-.324.201-.712.201-1.163 0-.441-.066-.828-.196-1.164a1.735 1.735 0 0 0-.576-.784c-.253-.19-.565-.285-.937-.285-.384 0-.703.099-.959.298a1.8 1.8 0 0 0-.58.801 3.204 3.204 0 0 0-.191 1.134c0 .429.065.805.196 1.129.13.324.324.577.579.758.259.182.577.273.955.273Zm9.579-3.792-1.155.204a1.367 1.367 0 0 0-.23-.422 1.138 1.138 0 0 0-.417-.328 1.518 1.518 0 0 0-.661-.128c-.361 0-.662.081-.903.243-.242.159-.362.365-.362.618 0 .219.081.395.242.528.162.134.424.243.785.329l1.039.238c.603.139 1.051.354 1.347.644.295.289.443.666.443 1.129 0 .392-.114.741-.341 1.048-.224.304-.538.543-.942.716-.4.173-.865.26-1.393.26-.733 0-1.331-.156-1.794-.469-.463-.315-.747-.762-.852-1.342l1.231-.187c.077.321.235.563.473.728.239.162.55.243.933.243.418 0 .752-.087 1.002-.26.25-.176.375-.39.375-.643a.67.67 0 0 0-.23-.516c-.151-.139-.382-.244-.695-.315l-1.108-.243c-.611-.139-1.062-.361-1.355-.665-.29-.304-.435-.689-.435-1.155 0-.386.108-.724.324-1.014.216-.29.515-.516.895-.678a3.28 3.28 0 0 1 1.308-.247c.708 0 1.265.154 1.671.461.406.304.675.711.805 1.223Z"/><path fill="#1A191E" d="M220.403 727.75h16.5a.92.92 0 0 1 .917.917v14.666a.919.919 0 0 1-.917.917h-16.5a.92.92 0 0 1-.917-.917v-14.666a.919.919 0 0 1 .917-.917Zm15.583 8.25H221.32v6.417h14.666V736Zm0-3.667v-2.75H221.32v2.75h14.666ZM219.861 759.111h-1.33a2.035 2.035 0 0 0-.797-1.3 2.212 2.212 0 0 0-.677-.341 2.637 2.637 0 0 0-.789-.115c-.502 0-.953.127-1.35.379-.395.253-.708.624-.938 1.113-.227.488-.341 1.085-.341 1.789 0 .711.114 1.31.341 1.799.23.488.544.858.942 1.108.398.25.845.375 1.342.375.276 0 .537-.037.784-.111.25-.077.476-.189.678-.337a2.043 2.043 0 0 0 .805-1.282l1.33.004a3.54 3.54 0 0 1-.414 1.184 3.252 3.252 0 0 1-.779.929 3.53 3.53 0 0 1-1.083.601 4 4 0 0 1-1.329.213c-.756 0-1.429-.179-2.02-.537-.591-.36-1.057-.876-1.398-1.546-.338-.671-.507-1.471-.507-2.4 0-.931.17-1.731.511-2.399.341-.67.807-1.184 1.398-1.542.591-.361 1.263-.542 2.016-.542.463 0 .894.067 1.295.201.403.13.766.324 1.087.579.321.253.586.563.797.929.21.364.352.78.426 1.249Zm3.378 6.034c-.415 0-.79-.077-1.125-.23a1.892 1.892 0 0 1-.797-.678c-.193-.295-.29-.657-.29-1.086 0-.37.071-.674.213-.912.142-.239.334-.428.576-.567.241-.139.511-.244.809-.315.299-.071.603-.125.912-.162l.955-.111c.244-.031.422-.081.532-.149.111-.069.167-.179.167-.333v-.03c0-.372-.106-.66-.316-.865-.207-.204-.517-.306-.929-.306-.429 0-.767.095-1.014.285-.244.188-.413.396-.507.626l-1.197-.272c.142-.398.349-.719.622-.963.275-.247.592-.426.95-.537a3.697 3.697 0 0 1 1.129-.171c.262 0 .539.032.831.094.296.06.571.171.827.332.258.162.47.394.635.695.165.298.247.686.247 1.163V765h-1.244v-.895h-.051a1.818 1.818 0 0 1-.371.486 1.977 1.977 0 0 1-.635.396 2.466 2.466 0 0 1-.929.158Zm.277-1.023c.352 0 .653-.069.903-.209.253-.139.445-.321.576-.545.133-.227.2-.47.2-.729v-.844a.654.654 0 0 1-.264.128c-.128.037-.274.07-.439.098l-.482.073-.392.051a3.125 3.125 0 0 0-.677.158c-.202.073-.364.18-.486.319-.12.137-.179.318-.179.546 0 .315.116.554.349.716.233.159.53.238.891.238Zm4.65.878v-6.545h1.232v1.039h.068a1.58 1.58 0 0 1 .631-.831 1.804 1.804 0 0 1 1.031-.306 5.063 5.063 0 0 1 .541.029v1.219a2.3 2.3 0 0 0-.273-.047c-.13-.02-.261-.03-.392-.03a1.66 1.66 0 0 0-.805.192 1.425 1.425 0 0 0-.759 1.283V765h-1.274Zm6.821.128c-.528 0-1-.135-1.414-.405-.412-.273-.736-.661-.972-1.163-.233-.506-.349-1.113-.349-1.82 0-.707.118-1.312.353-1.815.239-.503.566-.888.98-1.155a2.55 2.55 0 0 1 1.411-.401c.406 0 .733.069.98.205.25.133.443.29.58.469.139.179.247.336.324.473h.076v-3.243h1.274V765h-1.244v-1.018h-.106a3.41 3.41 0 0 1-.333.477 1.853 1.853 0 0 1-.588.469c-.25.133-.574.2-.972.2Zm.282-1.087c.366 0 .676-.096.929-.29.255-.196.449-.467.579-.813.134-.347.201-.751.201-1.211a3.34 3.34 0 0 0-.196-1.193 1.759 1.759 0 0 0-.576-.797c-.253-.19-.565-.285-.937-.285-.384 0-.703.099-.959.298-.256.199-.449.47-.58.814a3.338 3.338 0 0 0-.191 1.163c0 .438.065.831.196 1.181.13.349.324.626.579.831.259.201.577.302.955.302Zm9.685-3.988-1.155.204a1.367 1.367 0 0 0-.23-.422 1.142 1.142 0 0 0-.418-.328 1.513 1.513 0 0 0-.66-.128c-.361 0-.662.081-.904.243-.241.159-.362.365-.362.618a.65.65 0 0 0 .243.528c.162.134.423.243.784.329l1.04.238c.602.139 1.051.354 1.346.644.296.289.444.666.444 1.129 0 .392-.114.741-.341 1.048-.225.304-.539.543-.942.716-.401.173-.865.26-1.394.26-.733 0-1.331-.156-1.794-.469-.463-.315-.747-.762-.852-1.342l1.232-.187c.076.321.234.563.473.728.238.162.549.243.933.243.418 0 .751-.087 1.001-.26.25-.176.375-.39.375-.643a.666.666 0 0 0-.23-.516c-.15-.139-.382-.244-.694-.315l-1.108-.243c-.611-.139-1.063-.361-1.355-.665-.29-.304-.435-.689-.435-1.155 0-.386.108-.724.324-1.014.216-.29.514-.516.895-.678.38-.164.816-.247 1.308-.247.707 0 1.264.154 1.67.461.407.304.675.711.806 1.223ZM320.987 745.167h-1.833v-1.834a2.75 2.75 0 0 0-2.75-2.75h-5.5a2.75 2.75 0 0 0-2.75 2.75v1.834h-1.834v-1.834a4.584 4.584 0 0 1 4.584-4.583h5.5c1.215 0 2.381.483 3.241 1.342a4.587 4.587 0 0 1 1.342 3.241v1.834Zm-7.333-8.25a5.505 5.505 0 0 1-5.082-3.396 5.503 5.503 0 0 1 2.977-7.186 5.504 5.504 0 0 1 5.994 1.192 5.505 5.505 0 0 1 0 7.779 5.504 5.504 0 0 1-3.889 1.611Zm0-1.834a3.663 3.663 0 0 0 3.666-3.666 3.664 3.664 0 0 0-3.666-3.667 3.666 3.666 0 1 0 0 7.333ZM291.349 765h-1.397l3.14-8.727h1.522l3.14 8.727h-1.398l-2.467-7.142h-.068L291.349 765Zm.235-3.418h4.534v1.108h-4.534v-1.108Zm9.98 3.55c-.634 0-1.179-.143-1.637-.43a2.85 2.85 0 0 1-1.048-1.198c-.244-.508-.366-1.091-.366-1.747 0-.665.125-1.251.375-1.76.25-.511.602-.91 1.057-1.197.454-.287.99-.431 1.606-.431.497 0 .94.093 1.33.277.389.182.703.438.941.767.242.33.385.715.431 1.155h-1.24a1.483 1.483 0 0 0-.469-.792c-.242-.222-.565-.333-.972-.333-.355 0-.666.094-.933.281-.264.185-.47.449-.618.793-.148.341-.221.744-.221 1.21 0 .478.072.889.217 1.236.145.347.349.615.614.805.267.191.581.286.941.286.242 0 .461-.044.657-.132.198-.091.365-.22.498-.388.137-.168.232-.369.286-.605h1.24a2.404 2.404 0 0 1-.414 1.133 2.38 2.38 0 0 1-.924.785c-.384.19-.834.285-1.351.285Zm6.808 0c-.633 0-1.179-.143-1.636-.43a2.85 2.85 0 0 1-1.048-1.198c-.245-.508-.367-1.091-.367-1.747 0-.665.125-1.251.375-1.76.25-.511.603-.91 1.057-1.197.455-.287.99-.431 1.607-.431.497 0 .94.093 1.329.277.389.182.703.438.942.767.241.33.385.715.43 1.155h-1.24a1.481 1.481 0 0 0-.468-.792c-.242-.222-.566-.333-.972-.333-.355 0-.666.094-.933.281-.264.185-.47.449-.618.793-.148.341-.222.744-.222 1.21 0 .478.073.889.218 1.236.144.347.349.615.613.805.267.191.581.286.942.286.241 0 .46-.044.656-.132.199-.091.365-.22.499-.388.136-.168.231-.369.285-.605h1.24a2.403 2.403 0 0 1-.413 1.133c-.23.333-.538.594-.925.785-.383.19-.834.285-1.351.285Zm6.809 0c-.614 0-1.149-.141-1.607-.422a2.843 2.843 0 0 1-1.065-1.18c-.253-.506-.379-1.097-.379-1.773 0-.679.126-1.273.379-1.781a2.839 2.839 0 0 1 1.065-1.185c.458-.281.993-.422 1.607-.422s1.149.141 1.607.422c.457.281.812.676 1.065 1.185.253.508.379 1.102.379 1.781 0 .676-.126 1.267-.379 1.773a2.843 2.843 0 0 1-1.065 1.18c-.458.281-.993.422-1.607.422Zm.004-1.07c.398 0 .728-.105.989-.315.261-.21.454-.49.579-.839a3.34 3.34 0 0 0 .192-1.155c0-.418-.064-.801-.192-1.151a1.877 1.877 0 0 0-.579-.848c-.261-.213-.591-.319-.989-.319-.4 0-.733.106-.997.319a1.91 1.91 0 0 0-.584.848c-.125.35-.187.733-.187 1.151 0 .42.062.805.187 1.155.128.349.323.629.584.839.264.21.597.315.997.315Zm8.616-1.776v-3.831h1.278V765h-1.253v-1.134h-.068c-.15.35-.392.641-.724.874-.33.23-.74.345-1.232.345-.42 0-.793-.092-1.116-.277a1.944 1.944 0 0 1-.759-.831c-.182-.366-.273-.819-.273-1.359v-4.163h1.275v4.009c0 .447.123.802.37 1.066s.568.396.963.396c.239 0 .476-.06.712-.179.239-.119.436-.3.592-.541.159-.242.238-.548.235-.92Zm4.264-1.172V765h-1.274v-6.545h1.223v1.065h.081c.151-.347.386-.625.707-.835.324-.211.732-.316 1.223-.316.447 0 .837.094 1.172.282.336.184.596.46.78.826.185.367.277.82.277 1.36V765h-1.274v-4.01c0-.474-.124-.845-.371-1.112-.247-.27-.586-.405-1.018-.405-.296 0-.558.064-.789.192a1.384 1.384 0 0 0-.541.562c-.13.245-.196.54-.196.887Zm8.953-2.659v1.022h-3.575v-1.022h3.575Zm-2.616-1.569h1.274v6.192c0 .247.037.433.111.558a.58.58 0 0 0 .285.252c.12.042.249.064.388.064.102 0 .192-.007.269-.022l.179-.034.23 1.053a2.516 2.516 0 0 1-.827.136 2.242 2.242 0 0 1-.938-.179 1.614 1.614 0 0 1-.703-.579c-.179-.262-.268-.59-.268-.985v-6.456Z"/><rect width="147" height="138" x="30.653" y="103" fill="#E8F2EE" rx="10"/><g clip-path="url(#b)"><path fill="#CCD6DD" d="M125.987 186.795c-.556-1.284-1.195-2.678-2.667-2.678h-1.333a2.671 2.671 0 0 0 2.666-2.677v-22.763a2.661 2.661 0 0 0-.779-1.891 2.673 2.673 0 0 0-1.887-.786H87.32a2.673 2.673 0 0 0-2.667 2.677v22.763a2.672 2.672 0 0 0 2.667 2.677h-1.333c-1.472 0-2.223 1.339-2.667 2.678l-2.667 6.526A2.673 2.673 0 0 0 83.32 196h42.667a2.672 2.672 0 0 0 2.666-2.677l-2.666-6.528Z"/><path fill="#9AAAB4" d="m80.664 193.433.008.076.227.923A2.665 2.665 0 0 0 83.32 196h42.667a2.667 2.667 0 0 0 2.656-2.567H80.664Z"/><path fill="#5DADEC" d="M121.987 180.1c0 .74-.596 1.339-1.333 1.339h-32a1.336 1.336 0 0 1-1.334-1.339v-20.083c0-.74.598-1.338 1.334-1.338h32c.737 0 1.333.6 1.333 1.338V180.1Z"/><path fill="#AEBBC1" d="m124.528 189.389-1.013-2.9c-.319-.613-.847-1.116-1.584-1.116H87.467c-.736 0-1.208.544-1.541 1.382l-.918 2.636c-.292.794.598 1.338 1.334 1.338h10.103s1.25-.062 1.471-.81c.256-.864.553-2.166.618-2.395.098-.352.517-.708 1.14-.708h11.438c.667 0 .995.337 1.081.755.056.272.416 1.521.584 2.376.148.761 1.628.781 1.628.781h8.792c.735 0 1.623-.628 1.331-1.339Z"/><path fill="#9AAAB4" d="M110.487 192.151h-10.375c-.5 0-.717-.458-.645-.9.072-.442.478-2.391.51-2.618.031-.228.366-.5.699-.5h9.353c.396 0 .654.218.734.652.078.436.402 2.188.428 2.588.025.402-.226.778-.704.778Z"/></g><path fill="#1A191E" d="M31.79 265v-11.2h1.695l5.616 8.432V253.8h1.696V265h-1.696l-5.616-8.432V265H31.79Zm14.449.192c-.78 0-1.472-.171-2.08-.512a3.768 3.768 0 0 1-1.408-1.456c-.342-.619-.512-1.339-.512-2.16 0-.832.165-1.563.496-2.192.34-.629.81-1.12 1.408-1.472.608-.352 1.312-.528 2.112-.528.778 0 1.456.176 2.032.528.576.341 1.024.8 1.344 1.376.32.576.48 1.211.48 1.904 0 .107-.006.224-.016.352 0 .117-.006.251-.016.4h-6.176c.053.768.304 1.355.752 1.76.458.395.986.592 1.584.592.48 0 .88-.107 1.2-.32.33-.224.576-.523.736-.896h1.696c-.214.747-.64 1.371-1.28 1.872-.63.501-1.414.752-2.352.752Zm0-6.928a2.38 2.38 0 0 0-1.504.512c-.438.331-.704.832-.8 1.504h4.48c-.032-.619-.251-1.109-.656-1.472-.406-.363-.912-.544-1.52-.544ZM52.662 265l-2.336-7.936h1.696l1.536 5.984 1.728-5.984h1.888l1.728 5.984 1.536-5.984h1.696L59.798 265h-1.744l-1.824-6.24-1.824 6.24h-1.744Zm14.004 0v-11.2h1.696v9.856h5.088V265h-6.784Zm10.754.192c-.672 0-1.227-.112-1.664-.336-.438-.224-.763-.517-.976-.88a2.409 2.409 0 0 1-.32-1.216c0-.768.298-1.376.896-1.824.597-.448 1.45-.672 2.56-.672h2.08v-.144c0-.619-.171-1.083-.512-1.392-.331-.309-.763-.464-1.296-.464-.47 0-.88.117-1.232.352-.342.224-.55.56-.624 1.008h-1.696c.053-.576.245-1.067.576-1.472a3.235 3.235 0 0 1 1.28-.944 4.3 4.3 0 0 1 1.712-.336c1.109 0 1.968.293 2.576.88.608.576.912 1.365.912 2.368V265H80.22l-.144-1.36c-.224.437-.55.805-.976 1.104-.427.299-.987.448-1.68.448Zm.336-1.376c.458 0 .842-.107 1.152-.32.32-.224.565-.517.736-.88.18-.363.293-.763.336-1.2h-1.888c-.672 0-1.152.117-1.44.352a1.106 1.106 0 0 0-.416.88c0 .363.133.651.4.864.277.203.65.304 1.12.304Zm5.433 4.704v-11.456h1.52l.176 1.232a3.648 3.648 0 0 1 1.056-.992c.448-.288 1.024-.432 1.728-.432.768 0 1.445.181 2.032.544a3.785 3.785 0 0 1 1.376 1.488c.341.629.512 1.344.512 2.144s-.17 1.515-.512 2.144a3.809 3.809 0 0 1-1.376 1.472c-.587.352-1.27.528-2.048.528-.619 0-1.168-.123-1.648-.368a2.839 2.839 0 0 1-1.12-1.04v4.736H83.19Zm4.176-4.8c.725 0 1.323-.245 1.792-.736.47-.501.704-1.152.704-1.952 0-.523-.107-.987-.32-1.392a2.354 2.354 0 0 0-.88-.944 2.381 2.381 0 0 0-1.296-.352c-.725 0-1.323.251-1.792.752-.459.501-.688 1.147-.688 1.936 0 .8.23 1.451.688 1.952.47.491 1.067.736 1.792.736ZM95.96 265c-.779 0-1.397-.187-1.856-.56-.459-.384-.688-1.061-.688-2.032v-3.92h-1.36v-1.424h1.36l.208-2.016h1.488v2.016h2.24v1.424h-2.24v3.92c0 .437.09.741.272.912.192.16.517.24.976.24h.912V265h-1.312Zm6.17.192c-.758 0-1.44-.171-2.048-.512a3.884 3.884 0 0 1-1.424-1.456c-.352-.629-.528-1.36-.528-2.192 0-.832.176-1.557.528-2.176a3.816 3.816 0 0 1 1.456-1.456 3.98 3.98 0 0 1 2.032-.528c.757 0 1.434.176 2.032.528a3.707 3.707 0 0 1 1.44 1.456c.362.619.544 1.344.544 2.176 0 .832-.182 1.563-.544 2.192a3.85 3.85 0 0 1-1.44 1.456c-.608.341-1.291.512-2.048.512Zm0-1.456c.405 0 .778-.101 1.12-.304.352-.203.634-.501.848-.896.213-.405.32-.907.32-1.504s-.107-1.093-.32-1.488a2.108 2.108 0 0 0-.832-.912 2.153 2.153 0 0 0-1.12-.304c-.406 0-.784.101-1.136.304-.342.203-.619.507-.832.912-.214.395-.32.891-.32 1.488s.106 1.099.32 1.504c.213.395.49.693.832.896.341.203.714.304 1.12.304Zm5.386 4.784v-11.456h1.52l.176 1.232a3.648 3.648 0 0 1 1.056-.992c.448-.288 1.024-.432 1.728-.432.768 0 1.445.181 2.032.544a3.791 3.791 0 0 1 1.376 1.488c.341.629.512 1.344.512 2.144s-.171 1.515-.512 2.144a3.816 3.816 0 0 1-1.376 1.472c-.587.352-1.27.528-2.048.528-.619 0-1.168-.123-1.648-.368a2.833 2.833 0 0 1-1.12-1.04v4.736h-1.696Zm4.176-4.8c.725 0 1.322-.245 1.792-.736.469-.501.704-1.152.704-1.952 0-.523-.107-.987-.32-1.392a2.36 2.36 0 0 0-.88-.944 2.384 2.384 0 0 0-1.296-.352c-.726 0-1.323.251-1.792.752-.459.501-.688 1.147-.688 1.936 0 .8.229 1.451.688 1.952.469.491 1.066.736 1.792.736Z"/><path fill="#1A191E" fill-opacity=".5" d="M31.419 285.011v-1.243l4.4-6.95h.98v1.83h-.622l-3.147 4.981v.08h6.03v1.302H31.42ZM36.246 287v-2.366l.01-.567v-7.249h1.457V287h-1.467Zm8.092.169c-.786-.003-1.457-.21-2.014-.621-.557-.411-.983-1.01-1.278-1.795-.294-.786-.442-1.732-.442-2.839 0-1.104.148-2.047.442-2.829.299-.782.726-1.379 1.283-1.79.56-.411 1.23-.616 2.009-.616.779 0 1.446.207 2.003.621.557.411.983 1.008 1.278 1.79.298.779.447 1.72.447 2.824 0 1.11-.147 2.058-.442 2.844-.295.782-.721 1.38-1.278 1.795-.557.411-1.226.616-2.008.616Zm0-1.327c.689 0 1.228-.337 1.615-1.01.391-.672.587-1.645.587-2.918 0-.845-.09-1.559-.268-2.143-.176-.586-.43-1.03-.761-1.332a1.664 1.664 0 0 0-1.173-.457c-.687 0-1.225.338-1.616 1.014-.391.676-.588 1.649-.592 2.918 0 .849.088 1.566.264 2.153.179.583.432 1.026.76 1.327a1.7 1.7 0 0 0 1.184.448Zm9.037 1.327c-.786-.003-1.457-.21-2.014-.621-.557-.411-.982-1.01-1.277-1.795-.295-.786-.443-1.732-.443-2.839 0-1.104.148-2.047.443-2.829.298-.782.725-1.379 1.282-1.79.56-.411 1.23-.616 2.009-.616.779 0 1.447.207 2.003.621.557.411.983 1.008 1.278 1.79.298.779.447 1.72.447 2.824 0 1.11-.147 2.058-.442 2.844-.295.782-.72 1.38-1.278 1.795-.557.411-1.226.616-2.008.616Zm0-1.327c.69 0 1.228-.337 1.615-1.01.392-.672.587-1.645.587-2.918 0-.845-.09-1.559-.268-2.143-.176-.586-.43-1.03-.761-1.332a1.664 1.664 0 0 0-1.173-.457c-.686 0-1.225.338-1.616 1.014-.391.676-.588 1.649-.592 2.918 0 .849.088 1.566.264 2.153.179.583.432 1.026.76 1.327a1.7 1.7 0 0 0 1.184.448Zm8.634 2.431v-12.728h.816v12.728h-.816Zm2.55-8.78a1.453 1.453 0 0 0-.656-1.094c-.384-.262-.868-.393-1.451-.393-.418 0-.78.067-1.084.199-.305.13-.542.308-.711.537a1.269 1.269 0 0 0-.249.771c0 .242.057.451.17.626.115.176.266.323.452.443.189.116.39.213.606.293.216.076.423.139.622.189l.994.258c.325.08.658.188 1 .324.34.135.657.314.949.537.292.222.527.497.706.825.182.328.273.721.273 1.178 0 .577-.149 1.089-.447 1.536-.295.448-.724.801-1.288 1.059-.56.259-1.238.388-2.033.388-.762 0-1.422-.121-1.979-.363-.557-.242-.992-.585-1.307-1.029-.315-.447-.49-.978-.522-1.591h1.54c.03.368.15.675.359.92.212.242.482.422.81.542.332.116.694.174 1.089.174.434 0 .82-.068 1.158-.204.342-.139.61-.332.806-.577.195-.248.293-.538.293-.87 0-.301-.086-.548-.259-.741-.169-.192-.399-.351-.69-.477a6.73 6.73 0 0 0-.98-.333l-1.203-.328c-.815-.222-1.462-.549-1.939-.98-.474-.43-.711-1-.711-1.71 0-.586.16-1.098.477-1.536.319-.437.75-.777 1.293-1.019.544-.245 1.157-.368 1.84-.368.689 0 1.297.121 1.824.363.53.242.948.575 1.253.999.305.421.464.905.477 1.452H64.56Z"/><rect width="147" height="138" x="193.653" y="103" fill="#F1DFDF" rx="10"/><g clip-path="url(#c)"><path fill="#EA596E" d="M251.153 181c2.936 0 5.45 1.702 6.683 4.158l5.215-2.608c-2.166-4.463-6.729-7.55-12.024-7.55-1.887 0-3.753.403-5.473 1.181l2.502 5.505a7.443 7.443 0 0 1 3.097-.686Zm33 0c2.201 0 4.158.965 5.532 2.472l4.346-3.952a13.319 13.319 0 0 0-10.004-4.52c-5.364 0-9.978 3.166-12.109 7.725l5.472 2.583c1.203-2.538 3.768-4.308 6.763-4.308Z"/><path fill="#292F33" d="M251.153 178a10.511 10.511 0 0 0-7.424 3.075 10.494 10.494 0 0 0 0 14.85 10.502 10.502 0 0 0 14.849 0A10.502 10.502 0 0 0 251.153 178Zm0 18a7.499 7.499 0 0 1-5.303-12.803 7.499 7.499 0 0 1 12.803 5.303 7.5 7.5 0 0 1-7.5 7.5Zm33-18a10.503 10.503 0 0 0-10.5 10.501 10.506 10.506 0 0 0 3.076 7.425 10.496 10.496 0 0 0 11.444 2.276 10.493 10.493 0 0 0 5.683-5.683 10.494 10.494 0 0 0-2.277-11.444 10.506 10.506 0 0 0-7.426-3.075Zm0 18a7.499 7.499 0 0 1-5.303-12.803 7.499 7.499 0 0 1 12.803 5.303 7.5 7.5 0 0 1-7.5 7.5Z"/><path fill="#DD2E44" d="M285.629 188.383c-.009-.101-.03-.2-.06-.297a1.541 1.541 0 0 0-.106-.279c-.02-.036-.023-.078-.044-.113l-10.5-16.5a1.494 1.494 0 0 0-1.525-.672c-.194.034-.38.106-.546.212a1.476 1.476 0 0 0-.668 1.264h-13.527a1.5 1.5 0 0 0 0 3h15c.041 0 .075-.021.116-.024L281.42 187h-13.767a1.499 1.499 0 0 0-1.06 2.561c.281.281.662.439 1.06.439h16.502a1.52 1.52 0 0 0 .66-.168c.046-.026.099-.036.145-.066.045-.03.072-.077.113-.108a1.527 1.527 0 0 0 .489-.704c.03-.098.05-.199.06-.301.006-.054.031-.099.031-.153 0-.041-.021-.076-.024-.117Z"/><path fill="#DD2E44" d="m273.025 169-4.348 12.176-8.894-10.163a1.504 1.504 0 0 0-1.031-.521 1.507 1.507 0 0 0-1.096.367 1.505 1.505 0 0 0-.51 1.038 1.507 1.507 0 0 0 .38 1.092l9.996 11.422-1.281 3.585a1.501 1.501 0 0 0 2.055 1.86c.36-.171.637-.477.771-.852L276.211 169h-3.186Z"/><path fill="#DD2E44" d="M251.153 190a1.495 1.495 0 0 1-1.274-.712 1.501 1.501 0 0 1-.066-1.459l4.593-9.159c.026-.042 2.747-4.194 2.747-8.17 0-4.863-3.44-6.065-3.474-6.077a1.488 1.488 0 0 1-.882-.749 1.488 1.488 0 0 1-.085-1.154c.063-.189.163-.363.293-.513a1.52 1.52 0 0 1 .468-.359 1.504 1.504 0 0 1 1.155-.07c.225.075 5.525 1.921 5.525 8.922 0 4.602-2.754 9.063-3.197 9.745l-4.461 8.924a1.496 1.496 0 0 1-1.342.831Z"/><path fill="#292F33" d="M262.571 165.495c-.083 0-.166-.007-.247-.021l-9-1.5a1.503 1.503 0 0 1-1.233-1.727 1.498 1.498 0 0 1 1.726-1.233l9 1.5a1.497 1.497 0 0 1 1.254 1.604 1.5 1.5 0 0 1-1.5 1.377Zm17.657 5.005c-.045 0-.089-.003-.134-.009l-8.508-1.062a1.061 1.061 0 0 1 .131-2.119c.061 0 6.1-.027 8.983-1.949a1.072 1.072 0 0 1 1.236.039 1.073 1.073 0 0 1 .362 1.182l-1.064 3.191a1.053 1.053 0 0 1-1.006.727Z"/><path fill="#66757F" d="M270.653 188.5a3 3 0 1 1-5.999.001 3 3 0 0 1 5.999-.001Z"/></g><path fill="#1A191E" d="M194.789 265v-11.2h3.632c1.312 0 2.39.229 3.232.688.854.459 1.483 1.109 1.888 1.952.416.832.624 1.824.624 2.976 0 1.141-.208 2.133-.624 2.976-.405.832-1.034 1.477-1.888 1.936-.842.448-1.92.672-3.232.672h-3.632Zm1.696-1.44h1.872c1.014 0 1.814-.165 2.4-.496a2.818 2.818 0 0 0 1.28-1.424c.267-.619.4-1.36.4-2.224 0-.864-.133-1.611-.4-2.24a2.813 2.813 0 0 0-1.28-1.44c-.586-.341-1.386-.512-2.4-.512h-1.872v8.336Zm9.01 1.44v-7.936h1.52l.144 1.504a3.138 3.138 0 0 1 1.152-1.232c.502-.309 1.104-.464 1.808-.464v1.776h-.464c-.469 0-.89.08-1.264.24-.362.149-.656.411-.88.784-.213.363-.32.869-.32 1.52V265h-1.696Zm9.092.192c-.779 0-1.472-.171-2.08-.512a3.762 3.762 0 0 1-1.408-1.456c-.342-.619-.512-1.339-.512-2.16 0-.832.165-1.563.496-2.192.341-.629.81-1.12 1.408-1.472.608-.352 1.312-.528 2.112-.528.778 0 1.456.176 2.032.528.576.341 1.024.8 1.344 1.376.32.576.48 1.211.48 1.904 0 .107-.006.224-.016.352 0 .117-.006.251-.016.4h-6.176c.053.768.304 1.355.752 1.76.458.395.986.592 1.584.592.48 0 .88-.107 1.2-.32.33-.224.576-.523.736-.896h1.696a3.586 3.586 0 0 1-1.28 1.872c-.63.501-1.414.752-2.352.752Zm0-6.928c-.566 0-1.067.171-1.504.512-.438.331-.704.832-.8 1.504h4.48c-.032-.619-.251-1.109-.656-1.472-.406-.363-.912-.544-1.52-.544Zm7.839 6.928c-.672 0-1.226-.112-1.664-.336-.437-.224-.762-.517-.976-.88a2.413 2.413 0 0 1-.32-1.216c0-.768.299-1.376.896-1.824.598-.448 1.451-.672 2.56-.672h2.08v-.144c0-.619-.17-1.083-.512-1.392-.33-.309-.762-.464-1.296-.464-.469 0-.88.117-1.232.352-.341.224-.549.56-.624 1.008h-1.696c.054-.576.246-1.067.576-1.472a3.24 3.24 0 0 1 1.28-.944 4.304 4.304 0 0 1 1.712-.336c1.11 0 1.968.293 2.576.88.608.576.912 1.365.912 2.368V265h-1.472l-.144-1.36a3.018 3.018 0 0 1-.976 1.104c-.426.299-.986.448-1.68.448Zm.336-1.376c.459 0 .843-.107 1.152-.32.32-.224.566-.517.736-.88.182-.363.294-.763.336-1.2h-1.888c-.672 0-1.152.117-1.44.352a1.107 1.107 0 0 0-.416.88c0 .363.134.651.4.864.278.203.651.304 1.12.304Zm5.434 1.184v-7.936h1.504l.144 1.12a2.81 2.81 0 0 1 1.008-.96c.427-.235.917-.352 1.472-.352 1.259 0 2.133.496 2.624 1.488a3.134 3.134 0 0 1 1.152-1.088 3.264 3.264 0 0 1 1.584-.4c.992 0 1.771.299 2.336.896s.848 1.488.848 2.672V265h-1.696v-4.384c0-1.536-.587-2.304-1.76-2.304-.597 0-1.088.224-1.472.672-.373.448-.56 1.088-.56 1.92V265h-1.696v-4.384c0-1.536-.592-2.304-1.776-2.304-.587 0-1.072.224-1.456.672-.373.448-.56 1.088-.56 1.92V265h-1.696Zm22.191.192c-.618 0-1.168-.123-1.648-.368a2.846 2.846 0 0 1-1.12-1.04l-.176 1.216h-1.52v-11.52h1.696v4.816a3.648 3.648 0 0 1 1.056-.992c.448-.288 1.024-.432 1.728-.432.768 0 1.446.181 2.032.544a3.777 3.777 0 0 1 1.376 1.488c.342.629.512 1.344.512 2.144s-.17 1.515-.512 2.144a3.8 3.8 0 0 1-1.376 1.472c-.586.352-1.269.528-2.048.528Zm-.288-1.472c.726 0 1.323-.245 1.792-.736.47-.501.704-1.152.704-1.952 0-.523-.106-.987-.32-1.392a2.347 2.347 0 0 0-.88-.944c-.373-.235-.805-.352-1.296-.352-.725 0-1.322.251-1.792.752-.458.501-.688 1.147-.688 1.936 0 .8.23 1.451.688 1.952.47.491 1.067.736 1.792.736Zm6.539-8.16a1.15 1.15 0 0 1-.8-.288 1.02 1.02 0 0 1-.304-.752c0-.299.101-.544.304-.736.213-.203.48-.304.8-.304.32 0 .581.101.784.304.213.192.32.437.32.736a.997.997 0 0 1-.32.752c-.203.192-.464.288-.784.288Zm-.848 9.44v-7.936h1.696V265h-1.696Zm3.455 0v-11.52h1.696v6.864l3.04-3.28h2.032l-3.376 3.6 3.872 4.336h-2.144l-3.424-4.064V265h-1.696Zm11.2.192c-.778 0-1.472-.171-2.08-.512a3.776 3.776 0 0 1-1.408-1.456c-.341-.619-.512-1.339-.512-2.16 0-.832.166-1.563.496-2.192a3.751 3.751 0 0 1 1.408-1.472c.608-.352 1.312-.528 2.112-.528.779 0 1.456.176 2.032.528.576.341 1.024.8 1.344 1.376.32.576.48 1.211.48 1.904 0 .107-.005.224-.016.352 0 .117-.005.251-.016.4h-6.176c.054.768.304 1.355.752 1.76.459.395.987.592 1.584.592.48 0 .88-.107 1.2-.32a2.02 2.02 0 0 0 .736-.896h1.696c-.213.747-.64 1.371-1.28 1.872-.629.501-1.413.752-2.352.752Zm0-6.928c-.565 0-1.066.171-1.504.512-.437.331-.704.832-.8 1.504h4.48c-.032-.619-.25-1.109-.656-1.472-.405-.363-.912-.544-1.52-.544Z"/><path fill="#1A191E" fill-opacity=".5" d="M194.633 287v-1.114l3.445-3.569c.368-.388.671-.728.91-1.019.242-.295.422-.575.542-.841.119-.265.179-.546.179-.845 0-.338-.08-.63-.239-.875a1.567 1.567 0 0 0-.651-.572 2.083 2.083 0 0 0-.93-.203c-.364 0-.683.074-.954.223a1.54 1.54 0 0 0-.627.632c-.146.272-.219.59-.219.954h-1.466c0-.619.142-1.161.427-1.625a2.9 2.9 0 0 1 1.174-1.079c.497-.259 1.062-.388 1.695-.388.64 0 1.203.128 1.69.383.491.252.874.596 1.149 1.034.275.434.412.925.412 1.471 0 .378-.071.748-.213 1.109-.14.361-.383.764-.731 1.208-.348.441-.832.976-1.452 1.606l-2.023 2.118v.075h4.583V287h-6.701Zm12.13.169c-.785-.003-1.456-.21-2.013-.621-.557-.411-.983-1.01-1.278-1.795-.295-.786-.442-1.732-.442-2.839 0-1.104.147-2.047.442-2.829.299-.782.726-1.379 1.283-1.79.56-.411 1.23-.616 2.008-.616.779 0 1.447.207 2.004.621.557.411.983 1.008 1.278 1.79.298.779.447 1.72.447 2.824 0 1.11-.147 2.058-.442 2.844-.295.782-.721 1.38-1.278 1.795-.557.411-1.226.616-2.009.616Zm0-1.327c.69 0 1.228-.337 1.616-1.01.391-.672.587-1.645.587-2.918 0-.845-.09-1.559-.269-2.143-.175-.586-.429-1.03-.76-1.332a1.665 1.665 0 0 0-1.174-.457c-.686 0-1.224.338-1.615 1.014-.391.676-.589 1.649-.592 2.918 0 .849.088 1.566.264 2.153.178.583.432 1.026.76 1.327a1.7 1.7 0 0 0 1.183.448Zm9.038 1.327c-.786-.003-1.457-.21-2.014-.621-.557-.411-.983-1.01-1.278-1.795-.295-.786-.442-1.732-.442-2.839 0-1.104.147-2.047.442-2.829.299-.782.726-1.379 1.283-1.79.56-.411 1.23-.616 2.009-.616.778 0 1.446.207 2.003.621.557.411.983 1.008 1.278 1.79.298.779.447 1.72.447 2.824 0 1.11-.147 2.058-.442 2.844-.295.782-.721 1.38-1.278 1.795-.557.411-1.226.616-2.008.616Zm0-1.327c.689 0 1.227-.337 1.615-1.01.391-.672.587-1.645.587-2.918 0-.845-.09-1.559-.269-2.143-.175-.586-.429-1.03-.76-1.332a1.663 1.663 0 0 0-1.173-.457c-.687 0-1.225.338-1.616 1.014-.391.676-.589 1.649-.592 2.918 0 .849.088 1.566.264 2.153.179.583.432 1.026.76 1.327a1.7 1.7 0 0 0 1.184.448Zm8.634 2.431v-12.728h.815v12.728h-.815Zm2.55-8.78a1.451 1.451 0 0 0-.656-1.094c-.384-.262-.868-.393-1.452-.393-.417 0-.778.067-1.083.199-.305.13-.542.308-.711.537a1.267 1.267 0 0 0-.249.771c0 .242.056.451.169.626.116.176.267.323.453.443.188.116.391.213.606.293.215.076.423.139.622.189l.994.258c.325.08.658.188.999.324.341.135.658.314.95.537.291.222.527.497.706.825.182.328.273.721.273 1.178 0 .577-.149 1.089-.447 1.536-.295.448-.725.801-1.288 1.059-.56.259-1.238.388-2.033.388-.763 0-1.422-.121-1.979-.363-.557-.242-.993-.585-1.308-1.029-.314-.447-.488-.978-.522-1.591h1.542c.029.368.149.675.358.92.212.242.482.422.81.542.331.116.694.174 1.089.174.434 0 .82-.068 1.158-.204.341-.139.61-.332.805-.577.196-.248.294-.538.294-.87 0-.301-.086-.548-.259-.741a1.91 1.91 0 0 0-.691-.477 6.737 6.737 0 0 0-.979-.333l-1.203-.328c-.816-.222-1.462-.549-1.939-.98-.474-.43-.711-1-.711-1.71 0-.586.159-1.098.477-1.536a3.136 3.136 0 0 1 1.293-1.019c.543-.245 1.156-.368 1.839-.368.69 0 1.298.121 1.825.363.53.242.948.575 1.253.999.305.421.464.905.477 1.452h-1.482Z"/><rect width="147" height="138" x="30.653" y="313" fill="#DFE1F1" rx="10"/><path fill="#66757F" d="M119.32 389.123a1.222 1.222 0 0 1-1.332.266 1.222 1.222 0 0 1-.396-.266l-1.728-1.728a1.206 1.206 0 0 1-.36-.864 1.21 1.21 0 0 1 .36-.864l3.456-3.457a1.235 1.235 0 0 1 .864-.358 1.229 1.229 0 0 1 .864.358l1.728 1.728a1.21 1.21 0 0 1 .36.865 1.218 1.218 0 0 1-.36.864l-3.456 3.456Zm-18.333-18.333a1.233 1.233 0 0 1-.396.266 1.236 1.236 0 0 1-.936 0 1.222 1.222 0 0 1-.397-.266l-1.728-1.728a1.223 1.223 0 0 1 0-1.729l3.457-3.456a1.203 1.203 0 0 1 .864-.358 1.217 1.217 0 0 1 .864.358l1.728 1.728a1.222 1.222 0 0 1 .266 1.332 1.222 1.222 0 0 1-.266.396l-3.456 3.457Z"/><path fill="#55ACEE" d="M85.097 386.889c2.445 0 13.445 1.222 13.445 1.222s1.222 11 1.222 13.445c0 2.444-2.444 2.444-3.667 1.222-1.222-1.222-4.889-7.333-4.889-7.333s-6.11-3.667-7.333-4.889c-1.222-1.222-1.222-3.667 1.222-3.667Zm2.445-19.508c3.666-.047 30.555 1.175 30.555 1.175s1.13 26.889 1.176 30.555c.047 3.667-3.377 4.892-4.72.002-1.343-4.891-6.233-20.779-6.233-20.779s-17.057-5.399-20.784-6.236c-4.883-1.098-3.662-4.67.006-4.717Z"/><path fill="#CCD6DD" d="M115.653 363.667c2.445-2.445 8.556-3.667 9.778-2.445 1.222 1.222 0 7.333-2.445 9.778-2.444 2.444-23.222 22-23.222 22s-7.944 5.5-9.777 3.667c-1.834-1.834 3.666-9.778 3.666-9.778s19.556-20.778 22-23.222Z"/><path fill="#66757F" d="M99.764 386.889s.611.611-4.888 6.111c-5.5 5.5-6.112 4.889-6.112 4.889s-.61-.611 4.89-6.111 6.11-4.889 6.11-4.889Zm18.334-22a3.663 3.663 0 0 1 3.666 3.666h.984c.14-.385.239-.788.239-1.222 0-.972-.387-1.905-1.074-2.593a3.67 3.67 0 0 0-2.593-1.073 3.57 3.57 0 0 0-1.222.238v.984Z"/><path fill="#1A191E" d="M31.79 475v-11.2h1.695v4.8h5.424v-4.8h1.696V475H38.91v-5.008h-5.424V475H31.79Zm14.261.192c-.757 0-1.44-.171-2.048-.512a3.886 3.886 0 0 1-1.424-1.456c-.352-.629-.528-1.36-.528-2.192 0-.832.176-1.557.528-2.176a3.817 3.817 0 0 1 1.456-1.456 3.982 3.982 0 0 1 2.032-.528c.757 0 1.435.176 2.032.528a3.707 3.707 0 0 1 1.44 1.456c.363.619.544 1.344.544 2.176 0 .832-.181 1.563-.544 2.192a3.85 3.85 0 0 1-1.44 1.456c-.608.341-1.29.512-2.048.512Zm0-1.456c.405 0 .779-.101 1.12-.304.352-.203.635-.501.848-.896.213-.405.32-.907.32-1.504s-.107-1.093-.32-1.488a2.106 2.106 0 0 0-.832-.912 2.151 2.151 0 0 0-1.12-.304c-.405 0-.784.101-1.136.304-.341.203-.619.507-.832.912-.213.395-.32.891-.32 1.488s.107 1.099.32 1.504c.213.395.49.693.832.896a2.15 2.15 0 0 0 1.12.304ZM51.437 475v-11.52h1.696V475h-1.696Zm4.324-9.44c-.32 0-.587-.096-.8-.288a1.022 1.022 0 0 1-.304-.752.97.97 0 0 1 .304-.736c.213-.203.48-.304.8-.304.32 0 .581.101.784.304.213.192.32.437.32.736a.995.995 0 0 1-.32.752c-.203.192-.464.288-.784.288Zm-.848 9.44v-7.936h1.696V475h-1.696Zm7.07.192c-.767 0-1.444-.181-2.031-.544a3.785 3.785 0 0 1-1.376-1.488c-.33-.629-.496-1.344-.496-2.144s.165-1.509.496-2.128c.33-.629.79-1.12 1.376-1.472.597-.363 1.28-.544 2.048-.544.63 0 1.178.123 1.648.368.48.245.853.592 1.12 1.04v-4.8h1.696V475h-1.52l-.176-1.232a3.648 3.648 0 0 1-1.056.992c-.448.288-1.024.432-1.728.432Zm.305-1.472c.725 0 1.317-.251 1.776-.752.47-.501.704-1.147.704-1.936 0-.8-.235-1.445-.704-1.936-.459-.501-1.05-.752-1.776-.752-.725 0-1.323.251-1.792.752-.47.491-.704 1.136-.704 1.936 0 .523.106.987.32 1.392.213.405.506.725.88.96.384.224.816.336 1.296.336Zm8.522 1.472c-.672 0-1.227-.112-1.664-.336-.437-.224-.763-.517-.976-.88a2.41 2.41 0 0 1-.32-1.216c0-.768.299-1.376.896-1.824.598-.448 1.45-.672 2.56-.672h2.08v-.144c0-.619-.17-1.083-.512-1.392-.33-.309-.762-.464-1.296-.464-.47 0-.88.117-1.232.352-.341.224-.55.56-.624 1.008h-1.696c.053-.576.246-1.067.576-1.472a3.235 3.235 0 0 1 1.28-.944 4.3 4.3 0 0 1 1.712-.336c1.11 0 1.968.293 2.576.88.608.576.912 1.365.912 2.368V475H73.61l-.144-1.36a3.02 3.02 0 0 1-.976 1.104c-.426.299-.986.448-1.68.448Zm.336-1.376c.459 0 .843-.107 1.152-.32.32-.224.566-.517.736-.88.181-.363.293-.763.336-1.2h-1.888c-.672 0-1.152.117-1.44.352a1.107 1.107 0 0 0-.416.88c0 .363.133.651.4.864.278.203.65.304 1.12.304Zm6.112 4.704 1.904-4.176h-.464l-3.136-7.28h1.84l2.432 5.872 2.544-5.872h1.792l-5.12 11.456h-1.792Z"/><path fill="#1A191E" fill-opacity=".5" d="M31.419 495.011v-1.243l4.4-6.95h.98v1.83h-.622l-3.147 4.981v.08h6.03v1.302H31.42ZM36.246 497v-2.366l.01-.567v-7.249h1.457V497h-1.467Zm8.092.169c-.786-.003-1.457-.21-2.014-.621-.557-.411-.983-1.01-1.278-1.795-.294-.786-.442-1.732-.442-2.839 0-1.104.148-2.047.442-2.829.299-.782.726-1.379 1.283-1.79.56-.411 1.23-.616 2.009-.616.779 0 1.446.207 2.003.621.557.411.983 1.008 1.278 1.79.298.779.447 1.72.447 2.824 0 1.11-.147 2.058-.442 2.844-.295.782-.721 1.38-1.278 1.795-.557.411-1.226.616-2.008.616Zm0-1.327c.689 0 1.228-.337 1.615-1.01.391-.672.587-1.645.587-2.918 0-.845-.09-1.559-.268-2.143-.176-.586-.43-1.03-.761-1.332a1.664 1.664 0 0 0-1.173-.457c-.687 0-1.225.338-1.616 1.014-.391.676-.588 1.649-.592 2.918 0 .849.088 1.566.264 2.153.179.583.432 1.026.76 1.327a1.7 1.7 0 0 0 1.184.448Zm9.037 1.327c-.786-.003-1.457-.21-2.014-.621-.557-.411-.982-1.01-1.277-1.795-.295-.786-.443-1.732-.443-2.839 0-1.104.148-2.047.443-2.829.298-.782.725-1.379 1.282-1.79.56-.411 1.23-.616 2.009-.616.779 0 1.447.207 2.003.621.557.411.983 1.008 1.278 1.79.298.779.447 1.72.447 2.824 0 1.11-.147 2.058-.442 2.844-.295.782-.72 1.38-1.278 1.795-.557.411-1.226.616-2.008.616Zm0-1.327c.69 0 1.228-.337 1.615-1.01.392-.672.587-1.645.587-2.918 0-.845-.09-1.559-.268-2.143-.176-.586-.43-1.03-.761-1.332a1.664 1.664 0 0 0-1.173-.457c-.686 0-1.225.338-1.616 1.014-.391.676-.588 1.649-.592 2.918 0 .849.088 1.566.264 2.153.179.583.432 1.026.76 1.327a1.7 1.7 0 0 0 1.184.448Zm8.634 2.431v-12.728h.816v12.728h-.816Zm2.55-8.78a1.453 1.453 0 0 0-.656-1.094c-.384-.262-.868-.393-1.451-.393-.418 0-.78.067-1.084.199-.305.13-.542.308-.711.537a1.269 1.269 0 0 0-.249.771c0 .242.057.451.17.626.115.176.266.323.452.443.189.116.39.213.606.293.216.076.423.139.622.189l.994.258c.325.08.658.188 1 .324.34.135.657.314.949.537.292.222.527.497.706.825.182.328.273.721.273 1.178 0 .577-.149 1.089-.447 1.536-.295.448-.724.801-1.288 1.059-.56.259-1.238.388-2.033.388-.762 0-1.422-.121-1.979-.363-.557-.242-.992-.585-1.307-1.029-.315-.447-.49-.978-.522-1.591h1.54c.03.368.15.675.359.92.212.242.482.422.81.542.332.116.694.174 1.089.174.434 0 .82-.068 1.158-.204.342-.139.61-.332.806-.577.195-.248.293-.538.293-.87 0-.301-.086-.548-.259-.741-.169-.192-.399-.351-.69-.477a6.73 6.73 0 0 0-.98-.333l-1.203-.328c-.815-.222-1.462-.549-1.939-.98-.474-.43-.711-1-.711-1.71 0-.586.16-1.098.477-1.536.319-.437.75-.777 1.293-1.019.544-.245 1.157-.368 1.84-.368.689 0 1.297.121 1.824.363.53.242.948.575 1.253.999.305.421.464.905.477 1.452H64.56Z"/><rect width="147" height="138" x="193.653" y="313" fill="#DFEBF1" rx="10"/><g clip-path="url(#d)"><path fill="#31373D" d="M245.653 372.222s0-4.889 4.889-4.889h34.222s4.889 0 4.889 4.889v22s0 4.889-4.889 4.889h-34.222s-4.889 0-4.889-4.889v-22Z"/><path fill="#CCD6DD" d="M271.32 395.444c6.75 0 12.222-5.472 12.222-12.222 0-6.75-5.472-12.222-12.222-12.222-6.75 0-12.222 5.472-12.222 12.222 0 6.75 5.472 12.222 12.222 12.222Z"/><path fill="#31373D" d="M271.32 393c5.4 0 9.778-4.378 9.778-9.778s-4.378-9.778-9.778-9.778-9.778 4.378-9.778 9.778S265.92 393 271.32 393Z"/><path fill="#3B88C3" d="M271.32 389.334a6.111 6.111 0 1 0 0-12.222 6.111 6.111 0 0 0 0 12.222Z"/><path fill="#fff" d="M285.375 373.444a1.833 1.833 0 1 0 .002-3.666 1.833 1.833 0 0 0-.002 3.666Z"/><path fill="#FFAC33" d="m265.209 371 3.667-7.333-7.334 2.444-4.889-6.111-2.444 6.111-7.333-1.222 4.888 7.333-6.111 4.889h7.334l-2.445 7.333 7.334-3.666 7.333 6.111-1.222-9.778 7.333-1.222-6.111-4.889Z"/><path fill="#fff" d="m257.876 377.111-3.667 2.444 1.222-3.666-3.666-1.223 3.666-2.444-3.666-3.667h4.889l1.222-3.666 2.444 3.666 3.667-1.222-2.445 3.667 3.667 3.666-3.667 1.223 1.223 4.889-4.889-3.667Z"/></g><path fill="#1A191E" d="M199.781 475.192c-1.109 0-2.069-.24-2.88-.72a4.963 4.963 0 0 1-1.856-2.032c-.437-.875-.656-1.883-.656-3.024 0-1.152.219-2.16.656-3.024a4.938 4.938 0 0 1 1.856-2.048c.811-.491 1.771-.736 2.88-.736 1.312 0 2.384.32 3.216.96.832.64 1.36 1.536 1.584 2.688h-1.888c-.149-.651-.469-1.168-.96-1.552-.49-.384-1.146-.576-1.968-.576-1.12 0-2.005.384-2.656 1.152-.65.757-.976 1.803-.976 3.136 0 1.323.326 2.363.976 3.12.651.757 1.536 1.136 2.656 1.136.822 0 1.478-.181 1.968-.544.491-.363.811-.859.96-1.488h1.888c-.224 1.109-.752 1.979-1.584 2.608-.832.629-1.904.944-3.216.944Zm8.809 0c-.672 0-1.227-.112-1.664-.336-.438-.224-.763-.517-.976-.88a2.403 2.403 0 0 1-.32-1.216c0-.768.298-1.376.896-1.824.597-.448 1.45-.672 2.56-.672h2.08v-.144c0-.619-.171-1.083-.512-1.392-.331-.309-.763-.464-1.296-.464-.47 0-.88.117-1.232.352-.342.224-.55.56-.624 1.008h-1.696c.053-.576.245-1.067.576-1.472a3.233 3.233 0 0 1 1.28-.944 4.297 4.297 0 0 1 1.712-.336c1.109 0 1.968.293 2.576.88.608.576.912 1.365.912 2.368V475h-1.472l-.144-1.36c-.224.437-.55.805-.976 1.104-.427.299-.987.448-1.68.448Zm.336-1.376c.458 0 .842-.107 1.152-.32.32-.224.565-.517.736-.88.181-.363.293-.763.336-1.2h-1.888c-.672 0-1.152.117-1.44.352a1.104 1.104 0 0 0-.416.88c0 .363.133.651.4.864.277.203.65.304 1.12.304Zm5.433 1.184v-7.936h1.504l.144 1.12a2.81 2.81 0 0 1 1.008-.96c.427-.235.917-.352 1.472-.352 1.259 0 2.133.496 2.624 1.488a3.134 3.134 0 0 1 1.152-1.088 3.264 3.264 0 0 1 1.584-.4c.992 0 1.771.299 2.336.896s.848 1.488.848 2.672V475h-1.696v-4.384c0-1.536-.587-2.304-1.76-2.304-.597 0-1.088.224-1.472.672-.373.448-.56 1.088-.56 1.92V475h-1.696v-4.384c0-1.536-.592-2.304-1.776-2.304-.587 0-1.072.224-1.456.672-.373.448-.56 1.088-.56 1.92V475h-1.696Zm17.888.192c-.778 0-1.472-.171-2.08-.512a3.776 3.776 0 0 1-1.408-1.456c-.341-.619-.512-1.339-.512-2.16 0-.832.166-1.563.496-2.192a3.751 3.751 0 0 1 1.408-1.472c.608-.352 1.312-.528 2.112-.528.779 0 1.456.176 2.032.528.576.341 1.024.8 1.344 1.376.32.576.48 1.211.48 1.904 0 .107-.005.224-.016.352 0 .117-.005.251-.016.4h-6.176c.054.768.304 1.355.752 1.76.459.395.987.592 1.584.592.48 0 .88-.107 1.2-.32a2.02 2.02 0 0 0 .736-.896h1.696c-.213.747-.64 1.371-1.28 1.872-.629.501-1.413.752-2.352.752Zm0-6.928c-.565 0-1.066.171-1.504.512-.437.331-.704.832-.8 1.504h4.48c-.032-.619-.25-1.109-.656-1.472-.405-.363-.912-.544-1.52-.544Zm5.152 6.736v-7.936h1.52l.144 1.504a3.124 3.124 0 0 1 1.152-1.232c.501-.309 1.104-.464 1.808-.464v1.776h-.464c-.469 0-.891.08-1.264.24-.363.149-.656.411-.88.784-.213.363-.32.869-.32 1.52V475h-1.696Zm8.286.192c-.672 0-1.226-.112-1.664-.336-.437-.224-.762-.517-.976-.88a2.413 2.413 0 0 1-.32-1.216c0-.768.299-1.376.896-1.824.598-.448 1.451-.672 2.56-.672h2.08v-.144c0-.619-.17-1.083-.512-1.392-.33-.309-.762-.464-1.296-.464-.469 0-.88.117-1.232.352-.341.224-.549.56-.624 1.008h-1.696c.054-.576.246-1.067.576-1.472a3.24 3.24 0 0 1 1.28-.944 4.304 4.304 0 0 1 1.712-.336c1.11 0 1.968.293 2.576.88.608.576.912 1.365.912 2.368V475h-1.472l-.144-1.36a3.018 3.018 0 0 1-.976 1.104c-.426.299-.986.448-1.68.448Zm.336-1.376c.459 0 .843-.107 1.152-.32.32-.224.566-.517.736-.88.182-.363.294-.763.336-1.2h-1.888c-.672 0-1.152.117-1.44.352a1.107 1.107 0 0 0-.416.88c0 .363.134.651.4.864.278.203.651.304 1.12.304Z"/><path fill="#1A191E" fill-opacity=".5" d="M194.633 497v-1.114l3.445-3.569c.368-.388.671-.728.91-1.019.242-.295.422-.575.542-.841.119-.265.179-.546.179-.845 0-.338-.08-.63-.239-.875a1.567 1.567 0 0 0-.651-.572 2.083 2.083 0 0 0-.93-.203c-.364 0-.683.074-.954.223a1.54 1.54 0 0 0-.627.632c-.146.272-.219.59-.219.954h-1.466c0-.619.142-1.161.427-1.625a2.9 2.9 0 0 1 1.174-1.079c.497-.259 1.062-.388 1.695-.388.64 0 1.203.128 1.69.383.491.252.874.596 1.149 1.034.275.434.412.925.412 1.471 0 .378-.071.748-.213 1.109-.14.361-.383.764-.731 1.208-.348.441-.832.976-1.452 1.606l-2.023 2.118v.075h4.583V497h-6.701Zm12.13.169c-.785-.003-1.456-.21-2.013-.621-.557-.411-.983-1.01-1.278-1.795-.295-.786-.442-1.732-.442-2.839 0-1.104.147-2.047.442-2.829.299-.782.726-1.379 1.283-1.79.56-.411 1.23-.616 2.008-.616.779 0 1.447.207 2.004.621.557.411.983 1.008 1.278 1.79.298.779.447 1.72.447 2.824 0 1.11-.147 2.058-.442 2.844-.295.782-.721 1.38-1.278 1.795-.557.411-1.226.616-2.009.616Zm0-1.327c.69 0 1.228-.337 1.616-1.01.391-.672.587-1.645.587-2.918 0-.845-.09-1.559-.269-2.143-.175-.586-.429-1.03-.76-1.332a1.665 1.665 0 0 0-1.174-.457c-.686 0-1.224.338-1.615 1.014-.391.676-.589 1.649-.592 2.918 0 .849.088 1.566.264 2.153.178.583.432 1.026.76 1.327a1.7 1.7 0 0 0 1.183.448Zm9.038 1.327c-.786-.003-1.457-.21-2.014-.621-.557-.411-.983-1.01-1.278-1.795-.295-.786-.442-1.732-.442-2.839 0-1.104.147-2.047.442-2.829.299-.782.726-1.379 1.283-1.79.56-.411 1.23-.616 2.009-.616.778 0 1.446.207 2.003.621.557.411.983 1.008 1.278 1.79.298.779.447 1.72.447 2.824 0 1.11-.147 2.058-.442 2.844-.295.782-.721 1.38-1.278 1.795-.557.411-1.226.616-2.008.616Zm0-1.327c.689 0 1.227-.337 1.615-1.01.391-.672.587-1.645.587-2.918 0-.845-.09-1.559-.269-2.143-.175-.586-.429-1.03-.76-1.332a1.663 1.663 0 0 0-1.173-.457c-.687 0-1.225.338-1.616 1.014-.391.676-.589 1.649-.592 2.918 0 .849.088 1.566.264 2.153.179.583.432 1.026.76 1.327a1.7 1.7 0 0 0 1.184.448Zm8.634 2.431v-12.728h.815v12.728h-.815Zm2.55-8.78a1.451 1.451 0 0 0-.656-1.094c-.384-.262-.868-.393-1.452-.393-.417 0-.778.067-1.083.199-.305.13-.542.308-.711.537a1.267 1.267 0 0 0-.249.771c0 .242.056.451.169.626.116.176.267.323.453.443.188.116.391.213.606.293.215.076.423.139.622.189l.994.258c.325.08.658.188.999.324.341.135.658.314.95.537.291.222.527.497.706.825.182.328.273.721.273 1.178 0 .577-.149 1.089-.447 1.536-.295.448-.725.801-1.288 1.059-.56.259-1.238.388-2.033.388-.763 0-1.422-.121-1.979-.363-.557-.242-.993-.585-1.308-1.029-.314-.447-.488-.978-.522-1.591h1.542c.029.368.149.675.358.92.212.242.482.422.81.542.331.116.694.174 1.089.174.434 0 .82-.068 1.158-.204.341-.139.61-.332.805-.577.196-.248.294-.538.294-.87 0-.301-.086-.548-.259-.741a1.91 1.91 0 0 0-.691-.477 6.737 6.737 0 0 0-.979-.333l-1.203-.328c-.816-.222-1.462-.549-1.939-.98-.474-.43-.711-1-.711-1.71 0-.586.159-1.098.477-1.536a3.136 3.136 0 0 1 1.293-1.019c.543-.245 1.156-.368 1.839-.368.69 0 1.298.121 1.825.363.53.242.948.575 1.253.999.305.421.464.905.477 1.452h-1.482Z"/><rect width="147" height="138" x="30.653" y="523" fill="#F8F8F8" rx="10"/><rect width="40" height="40" x="84.653" y="572" fill="#5BB5A2" rx="20"/><path fill="#fff" d="M103.736 591.083v-5.5h1.834v5.5h5.5v1.834h-5.5v5.5h-1.834v-5.5h-5.5v-1.834h5.5Z"/><path fill="#5BB5A2" d="M53.577 685h-1.63l3.664-10.182h1.775L61.05 685h-1.631l-2.879-8.332h-.08L53.578 685Zm.274-3.987h5.29v1.292h-5.29v-1.292Zm11.285 4.136a2.958 2.958 0 0 1-1.65-.472c-.48-.318-.859-.771-1.134-1.357-.272-.59-.407-1.298-.407-2.123 0-.826.137-1.532.412-2.118.279-.587.66-1.036 1.144-1.347a2.97 2.97 0 0 1 1.645-.468c.474 0 .855.08 1.144.239.291.156.517.338.676.547.162.209.288.392.378.552h.09v-3.784h1.486V685h-1.452v-1.188h-.124c-.09.162-.22.348-.388.557a2.153 2.153 0 0 1-.686.546c-.292.156-.67.234-1.134.234Zm.328-1.268c.428 0 .79-.112 1.084-.338.299-.228.524-.545.676-.949.156-.405.234-.875.234-1.412 0-.53-.076-.995-.229-1.392-.152-.398-.376-.708-.67-.93-.296-.222-.66-.333-1.095-.333-.447 0-.82.116-1.118.348a2.128 2.128 0 0 0-.676.95 3.87 3.87 0 0 0-.224 1.357c0 .51.076.969.229 1.377.152.408.377.731.676.969.301.236.673.353 1.113.353Zm8.436 1.268a2.958 2.958 0 0 1-1.65-.472c-.481-.318-.859-.771-1.134-1.357-.272-.59-.408-1.298-.408-2.123 0-.826.138-1.532.413-2.118.278-.587.66-1.036 1.143-1.347a2.97 2.97 0 0 1 1.646-.468c.474 0 .855.08 1.143.239.292.156.517.338.677.547.162.209.288.392.377.552h.09v-3.784h1.486V685h-1.451v-1.188h-.125c-.09.162-.218.348-.388.557a2.153 2.153 0 0 1-.685.546c-.292.156-.67.234-1.134.234Zm.328-1.268c.428 0 .789-.112 1.084-.338.298-.228.524-.545.676-.949.156-.405.234-.875.234-1.412 0-.53-.077-.995-.229-1.392-.152-.398-.376-.708-.671-.93-.295-.222-.66-.333-1.094-.333-.447 0-.82.116-1.118.348a2.13 2.13 0 0 0-.677.95c-.149.401-.223.853-.223 1.357 0 .51.076.969.228 1.377.153.408.378.731.676.969.302.236.673.353 1.114.353Zm17.62-9.063V685h-1.412l-5.176-7.467h-.094V685h-1.537v-10.182h1.422l5.18 7.477h.095v-7.477h1.521Zm5.412 10.336c-.752 0-1.4-.161-1.944-.482a3.276 3.276 0 0 1-1.252-1.367c-.292-.59-.438-1.281-.438-2.073 0-.783.146-1.472.438-2.069a3.402 3.402 0 0 1 1.232-1.397c.53-.334 1.15-.502 1.86-.502.43 0 .848.071 1.253.214a3.04 3.04 0 0 1 1.088.671c.322.305.575.701.761 1.188.186.484.278 1.073.278 1.765v.527h-6.07v-1.113h4.614c0-.391-.08-.738-.239-1.039a1.8 1.8 0 0 0-.671-.721 1.873 1.873 0 0 0-1.004-.264c-.418 0-.782.103-1.094.308a2.077 2.077 0 0 0-.716.796 2.298 2.298 0 0 0-.248 1.059v.87c0 .51.089.944.268 1.302.182.358.436.632.76.821.325.185.705.278 1.14.278.28 0 .538-.04.77-.119a1.594 1.594 0 0 0 .99-.97l1.406.254a2.558 2.558 0 0 1-.606 1.089 2.951 2.951 0 0 1-1.09.721c-.433.169-.929.253-1.486.253Zm6.568-.154-2.247-7.636h1.536l1.496 5.608h.075l1.501-5.608h1.536l1.492 5.583h.074l1.487-5.583h1.536L110.072 685h-1.516l-1.551-5.513h-.115L105.339 685h-1.511Zm19.324-5.772-1.347.239a1.582 1.582 0 0 0-.269-.493 1.322 1.322 0 0 0-.487-.382c-.205-.1-.462-.15-.77-.15-.421 0-.773.095-1.054.284-.282.185-.423.426-.423.721 0 .255.095.46.283.616.189.156.494.284.915.383l1.213.278c.703.163 1.227.413 1.571.751.345.338.517.777.517 1.318 0 .457-.132.865-.397 1.223-.262.354-.628.633-1.099.835-.467.202-1.009.303-1.626.303-.855 0-1.553-.182-2.093-.547-.54-.368-.871-.89-.994-1.566l1.437-.219c.089.375.273.658.552.851.278.189.641.283 1.088.283.488 0 .877-.101 1.169-.303.291-.206.437-.456.437-.751a.78.78 0 0 0-.268-.602c-.176-.162-.446-.285-.811-.367l-1.292-.284c-.713-.162-1.24-.421-1.581-.775-.338-.355-.507-.804-.507-1.348 0-.45.126-.845.377-1.183.252-.338.6-.602 1.044-.79.445-.193.953-.289 1.527-.289.825 0 1.475.179 1.949.537.474.355.787.83.939 1.427Zm1.784 8.636v-10.5h1.452v1.238h.124c.086-.16.21-.343.373-.552.162-.209.387-.391.676-.547.288-.159.669-.239 1.143-.239a2.98 2.98 0 0 1 1.651.468c.484.311.863.76 1.138 1.347.279.586.418 1.292.418 2.118 0 .825-.138 1.533-.413 2.123-.275.586-.653 1.039-1.133 1.357a2.935 2.935 0 0 1-1.646.472c-.464 0-.843-.078-1.138-.234a2.141 2.141 0 0 1-.686-.546 4.11 4.11 0 0 1-.383-.557h-.09v4.052h-1.486Zm1.456-6.682c0 .537.078 1.007.234 1.412.156.404.381.721.676.949.295.226.657.338 1.084.338.444 0 .815-.117 1.114-.353a2.19 2.19 0 0 0 .676-.969c.156-.408.234-.867.234-1.377 0-.504-.077-.956-.229-1.357a2.082 2.082 0 0 0-.676-.95c-.299-.232-.671-.348-1.119-.348-.431 0-.795.111-1.094.333-.295.222-.518.532-.671.93-.152.397-.229.862-.229 1.392Zm9.407 3.987a3.12 3.12 0 0 1-1.313-.268 2.21 2.21 0 0 1-.929-.791c-.226-.345-.339-.767-.339-1.268 0-.431.083-.785.249-1.064.166-.278.39-.498.671-.661a3.53 3.53 0 0 1 .945-.368 9.313 9.313 0 0 1 1.064-.189l1.113-.129c.285-.036.493-.094.622-.174.129-.079.194-.209.194-.388v-.034c0-.435-.123-.771-.368-1.01-.242-.238-.603-.358-1.084-.358-.5 0-.895.111-1.183.333-.285.219-.482.463-.592.731l-1.397-.318c.166-.464.408-.838.726-1.124a2.939 2.939 0 0 1 1.109-.626 4.308 4.308 0 0 1 1.317-.199c.305 0 .628.037.97.11.344.069.666.198.964.387.302.189.549.459.741.811.192.348.288.8.288 1.357V685h-1.451v-1.044h-.06a2.11 2.11 0 0 1-.433.567 2.314 2.314 0 0 1-.74.462c-.302.123-.663.184-1.084.184Zm.323-1.193c.411 0 .762-.081 1.054-.244.295-.162.519-.374.671-.636a1.65 1.65 0 0 0 .234-.85v-.985c-.053.053-.156.103-.309.15a4.734 4.734 0 0 1-.512.114c-.192.03-.379.058-.561.084l-.458.06a3.66 3.66 0 0 0-.79.184c-.236.086-.425.21-.567.373-.139.159-.209.371-.209.636 0 .368.136.647.408.835.272.186.618.279 1.039.279Zm8.642 1.178c-.739 0-1.376-.167-1.909-.502a3.32 3.32 0 0 1-1.223-1.397c-.285-.593-.428-1.273-.428-2.038 0-.776.146-1.46.438-2.054a3.347 3.347 0 0 1 1.233-1.397c.53-.334 1.155-.502 1.874-.502.58 0 1.097.108 1.551.323a2.714 2.714 0 0 1 1.601 2.243h-1.447a1.73 1.73 0 0 0-.547-.925c-.281-.259-.659-.388-1.133-.388-.415 0-.778.109-1.089.328-.308.216-.549.524-.721.925-.172.398-.258.868-.258 1.412 0 .557.084 1.037.253 1.442.169.404.408.717.716.939.312.222.678.333 1.099.333.281 0 .537-.051.765-.154a1.57 1.57 0 0 0 .582-.452c.159-.196.27-.431.333-.706h1.447a2.814 2.814 0 0 1-.482 1.322 2.776 2.776 0 0 1-1.079.915c-.448.222-.973.333-1.576.333Zm8.018 0c-.753 0-1.401-.161-1.944-.482a3.278 3.278 0 0 1-1.253-1.367c-.292-.59-.438-1.281-.438-2.073 0-.783.146-1.472.438-2.069a3.403 3.403 0 0 1 1.233-1.397c.53-.334 1.15-.502 1.859-.502.431 0 .849.071 1.253.214.404.143.767.366 1.089.671.321.305.575.701.761 1.188.185.484.278 1.073.278 1.765v.527h-6.07v-1.113h4.613c0-.391-.079-.738-.238-1.039a1.797 1.797 0 0 0-.672-.721 1.87 1.87 0 0 0-1.004-.264c-.417 0-.782.103-1.094.308a2.076 2.076 0 0 0-.715.796 2.294 2.294 0 0 0-.249 1.059v.87c0 .51.089.944.268 1.302.183.358.436.632.761.821.325.185.704.278 1.139.278.281 0 .538-.04.77-.119.232-.083.433-.206.602-.368a1.6 1.6 0 0 0 .388-.602l1.407.254a2.554 2.554 0 0 1-.607 1.089 2.945 2.945 0 0 1-1.089.721c-.434.169-.929.253-1.486.253Z"/></g><rect width="370" height="790" x="5.653" y="5" stroke="#1A191E" stroke-width="10" rx="45"/><defs><clipPath id="a"><rect width="380" height="800" x=".653" fill="#fff" rx="50"/></clipPath><clipPath id="b"><path fill="#fff" d="M80.653 148h48v48h-48z"/></clipPath><clipPath id="c"><path fill="#fff" d="M240.653 145h54v54h-54z"/></clipPath><clipPath id="d"><path fill="#fff" d="M245.653 360h44v44h-44z"/></clipPath></defs></svg>