<svg xmlns="http://www.w3.org/2000/svg" width="379" height="212" fill="none"><rect width="131.397" height="60" x="-4.852" fill="#fff" rx="10"/><g clip-path="url(#a)"><path fill="#3A60F8" d="M43.244 27.276c0-1.783-1.734-3.677-4.734-3.677-3.37 0-7.071 2.472-7.637 7.403-.578 4.98 2.52 7.194 5.644 7.194s4.76-1.217 6.432-2.84c-1.439-1.808-3.296-.972-3.652-.788-.394.197-.898.468-1.931.468-1.205 0-2.435-.541-2.435-2.792 7.723-.762 8.313-3.185 8.313-4.968Zm-3.825.295c-.049.554-.27 1.5-4.18 2.03.823-2.927 2.397-3.149 3.123-3.149.676 0 1.107.53 1.057 1.12Zm-13.084.48s-1.66 5.214-1.795 5.644c-.05-.442-1.267-9.8-1.267-9.8-2.828 0-4.34 2.016-5.14 4.144l-2.189 5.669c-.012-.406-.307-5.608-.307-5.608-.172-2.607-2.558-4.193-4.489-4.193l2.337 14.178c2.963-.012 4.562-2.016 5.398-4.144 0 0 1.783-4.611 1.857-4.82.013.197 1.28 8.964 1.28 8.964 2.975 0 4.574-1.881 5.434-3.935l4.17-10.243c-2.94 0-4.49 2.004-5.289 4.144Zm27.829-4.476c-1.833 0-3.234.996-4.415 2.46v-.013l1.058-8.522c-2.435 0-4.415 2.115-4.796 5.263l-1.845 15.212c1.402 0 2.89-.406 3.69-1.44.712.923 1.782 1.661 3.369 1.661 4.107 0 6.923-4.771 6.923-9.247-.025-4.083-2.005-5.374-3.984-5.374Zm-.382 7.317c-.43 2.496-1.82 4.193-3.16 4.193-1.353 0-1.93-.603-1.93-.603.258-2.189.418-3.529.91-4.685.491-1.156 1.66-3 2.877-3 1.193 0 1.734 1.586 1.303 4.095Zm14.622-6.985h-2.865l.012-.148c.197-1.869.64-2.853 2.103-3.013.996-.098 1.438-.614 1.549-1.18.086-.443.357-1.98.357-1.98-5.755-.037-7.563 2.447-8.03 6.235l-.013.086h-.061c-.935 0-1.968 1.057-2.14 2.398l-.061.492h1.918l-1.61 13.305-.493 2.386c.062 0 .136.012.197.012 2.693-.098 4.415-2.226 4.796-5.312l1.254-10.391h.898c.885 0 1.918-.886 2.103-2.361l.086-.53Zm14.904-.246c-3.308 0-6.432 2.435-7.39 6.26-.96 3.824.491 8.349 5.36 8.349 4.858 0 7.662-4.71 7.662-8.633 0-3.898-2.644-5.976-5.632-5.976Zm1.34 7.108c-.172 1.733-.934 4.365-3.025 4.365-2.103 0-1.808-3.074-1.599-4.538.222-1.561 1.095-3.787 2.976-3.787 1.685 0 1.845 2.004 1.648 3.96Zm20.635-2.718-1.796 5.644c-.049-.442-1.266-9.8-1.266-9.8-2.829 0-4.341 2.016-5.14 4.144 0 0-2.017 5.226-2.19 5.669-.012-.406-.307-5.608-.307-5.608-.172-2.607-2.558-4.193-4.488-4.193l2.324 14.178c2.964-.012 4.562-2.016 5.398-4.144 0 0 1.784-4.611 1.845-4.82.025.197 1.279 8.964 1.279 8.964 2.976 0 4.574-1.881 5.435-3.935l4.169-10.243c-2.927 0-4.476 2.004-5.263 4.144ZM71.109 17.586 68.7 37.028l-.492 2.398c.062 0 .135.012.197.012 2.594-.037 4.439-2.312 4.783-5.177l1.39-11.154c.418-3.406-1.611-5.52-3.468-5.52Z"/></g><rect width="137.738" height="60" x="142.546" fill="#fff" rx="10"/><g clip-path="url(#b)"><path fill="#95BF47" d="M181.354 20.682a.287.287 0 0 0-.259-.24c-.107-.01-2.208-.042-2.208-.042s-1.757-1.706-1.93-1.88c-.174-.173-.513-.12-.645-.081l-.882.273a6.237 6.237 0 0 0-.423-1.038c-.625-1.193-1.541-1.824-2.648-1.826h-.004c-.077 0-.153.007-.23.014a4.472 4.472 0 0 0-.1-.116c-.482-.515-1.1-.767-1.841-.745-1.429.041-2.853 1.074-4.007 2.907-.812 1.29-1.431 2.912-1.606 4.166l-2.814.872c-.829.26-.855.286-.963 1.067-.08.59-2.248 17.353-2.248 17.353l18.167 3.142 7.874-1.957s-3.213-21.72-3.233-21.869Zm-6.834-1.688-1.409.436c-.011-.723-.097-1.73-.434-2.6 1.084.205 1.618 1.432 1.843 2.164Zm-2.36.731-3.033.939c.293-1.122.849-2.24 1.532-2.973.254-.272.609-.576 1.03-.75.395.826.481 1.994.471 2.784Zm-1.947-3.772c.335-.008.618.066.859.225-.386.2-.76.488-1.11.864-.908.974-1.604 2.486-1.881 3.945l-2.491.772c.492-2.297 2.416-5.742 4.623-5.806Z"/><path fill="#5E8E3E" d="M181.096 20.442c-.107-.009-2.208-.04-2.208-.04s-1.757-1.707-1.93-1.88a.43.43 0 0 0-.244-.112l.001 26.098 7.873-1.957s-3.213-21.719-3.233-21.868a.288.288 0 0 0-.259-.24Z"/><path fill="#fff" d="m172.349 24.49-.914 3.422s-1.02-.464-2.229-.388c-1.774.112-1.792 1.23-1.774 1.51.096 1.531 4.121 1.865 4.347 5.45.178 2.819-1.495 4.747-3.906 4.9-2.894.182-4.487-1.525-4.487-1.525l.613-2.608s1.604 1.21 2.887 1.129c.839-.053 1.138-.735 1.108-1.217-.126-1.996-3.404-1.878-3.611-5.158-.175-2.76 1.638-5.556 5.637-5.808 1.541-.1 2.329.294 2.329.294Z"/><path fill="#000" d="M194.955 31.654c-.905-.491-1.37-.905-1.37-1.474 0-.725.646-1.19 1.655-1.19 1.175 0 2.224.491 2.224.491l.828-2.535s-.761-.595-3.001-.595c-3.116 0-5.276 1.785-5.276 4.294 0 1.422 1.009 2.509 2.354 3.284 1.086.62 1.475 1.06 1.475 1.707 0 .672-.544 1.216-1.552 1.216-1.503 0-2.922-.777-2.922-.777l-.88 2.535s1.312.88 3.518.88c3.207 0 5.509-1.578 5.509-4.423-.001-1.525-1.164-2.611-2.562-3.413ZM207.732 26.326c-1.577 0-2.819.75-3.775 1.888l-.052-.026 1.37-7.164h-3.569l-3.466 18.234h3.57l1.189-6.233c.466-2.354 1.681-3.802 2.819-3.802.802 0 1.113.544 1.113 1.32 0 .491-.052 1.086-.155 1.578l-1.345 7.138h3.57l1.396-7.372c.155-.776.259-1.706.259-2.328-.001-2.017-1.062-3.233-2.924-3.233ZM218.724 26.326c-4.294 0-7.138 3.88-7.138 8.199 0 2.767 1.706 4.991 4.914 4.991 4.216 0 7.061-3.776 7.061-8.199 0-2.56-1.501-4.99-4.837-4.99Zm-1.759 10.45c-1.215 0-1.733-1.035-1.733-2.328 0-2.043 1.061-5.38 3.001-5.38 1.267 0 1.68 1.087 1.68 2.147 0 2.198-1.059 5.56-2.948 5.56ZM232.691 26.326c-2.409 0-3.776 2.121-3.776 2.121h-.052l.207-1.914h-3.155a76.265 76.265 0 0 1-.724 4.733l-2.483 13.061h3.57l.982-5.276h.078s.732.465 2.095.465c4.19 0 6.931-4.293 6.931-8.639 0-2.404-1.061-4.55-3.673-4.55Zm-3.414 10.5c-.927 0-1.475-.517-1.475-.517l.595-3.336c.414-2.224 1.578-3.698 2.82-3.698 1.086 0 1.422 1.008 1.422 1.965 0 2.302-1.371 5.587-3.362 5.587ZM241.459 21.205c-1.138 0-2.043.905-2.043 2.069 0 1.06.672 1.785 1.681 1.785h.052c1.112 0 2.069-.75 2.095-2.07 0-1.034-.699-1.784-1.785-1.784ZM236.468 39.258h3.568l2.432-12.647h-3.595l-2.405 12.646ZM251.547 26.585h-2.484l.129-.595c.207-1.216.932-2.302 2.121-2.302.635 0 1.138.181 1.138.181l.698-2.793s-.62-.31-1.94-.31c-1.267 0-2.534.362-3.491 1.19-1.216 1.034-1.785 2.533-2.069 4.034l-.103.595h-1.656l-.517 2.69h1.656l-1.888 9.983h3.569l1.888-9.983h2.457l.492-2.69ZM260.133 26.611s-2.231 5.622-3.233 8.69h-.052c-.068-.988-.879-8.69-.879-8.69h-3.751l2.148 11.612c.052.258.026.414-.078.596-.414.8-1.112 1.577-1.94 2.146-.672.492-1.422.802-2.017 1.009l.983 3.026c.724-.155 2.224-.75 3.491-1.94 1.63-1.525 3.129-3.88 4.681-7.087l4.371-9.363h-3.724v.001Z"/></g><rect width="97.502" height="60" x="296.283" fill="#fff" rx="10"/><g clip-path="url(#c)"><path fill="#FF4A00" d="M351.589 28.047h-1.633a3.267 3.267 0 0 1-.075-.465 5.367 5.367 0 0 1 0-1.03 3.3 3.3 0 0 1 .075-.464h4.069v12.884a6.1 6.1 0 0 1-.615.075c-.205.016-.41.024-.616.025a8.196 8.196 0 0 1-.59-.025 6.072 6.072 0 0 1-.615-.075V28.046Zm14.165 3.24c0-.47-.063-.917-.188-1.344a3.434 3.434 0 0 0-.553-1.118 2.697 2.697 0 0 0-.929-.765c-.377-.193-.825-.29-1.344-.29-1.021 0-1.804.31-2.348.93-.545.62-.875 1.482-.992 2.587h6.354Zm-6.379 1.858c.033 1.407.397 2.437 1.092 3.09.695.652 1.72.98 3.077.98 1.188 0 2.319-.21 3.39-.629.134.251.243.557.326.917.083.35.133.708.151 1.067-.552.235-1.16.41-1.821.528-.661.117-1.394.176-2.197.176-1.173 0-2.177-.164-3.014-.49-.837-.327-1.528-.788-2.072-1.382a5.47 5.47 0 0 1-1.193-2.11c-.251-.811-.377-1.703-.377-2.674 0-.955.121-1.846.364-2.675a6.032 6.032 0 0 1 1.117-2.16 5.405 5.405 0 0 1 1.897-1.457c.761-.36 1.661-.54 2.7-.54.887 0 1.666.15 2.336.452a4.75 4.75 0 0 1 1.682 1.243 5.394 5.394 0 0 1 1.03 1.884c.234.729.352 1.52.352 2.374 0 .234-.009.48-.026.74-.013.222-.03.444-.05.666h-8.765.001Zm11.579-7.057a5.452 5.452 0 0 1 1.055-.1c.184 0 .368.008.552.024.185.017.352.043.503.076.05.25.1.582.15.992.05.41.076.757.076 1.042a5.2 5.2 0 0 1 1.393-1.482c.578-.418 1.319-.628 2.223-.628.134 0 .272.005.414.013.122.006.244.019.365.037.033.151.058.31.075.478a5.537 5.537 0 0 1-.013 1.155c-.024.21-.053.419-.087.627a1.733 1.733 0 0 0-.415-.05h-.339c-.452 0-.884.063-1.294.189-.41.125-.778.347-1.105.665-.326.318-.586.754-.778 1.306-.193.553-.289 1.265-.289 2.135v6.405a6.1 6.1 0 0 1-.615.075 8.355 8.355 0 0 1-.616.025 8.428 8.428 0 0 1-1.256-.1V26.088h.001Zm-17.627-6.88c0 .3-.054.599-.16.88-.282.106-.58.16-.881.16h-.003a2.5 2.5 0 0 1-.881-.16 2.497 2.497 0 0 1-.16-.88v-.004c0-.31.057-.607.16-.88.281-.107.579-.161.88-.16h.004c.31 0 .606.056.88.16.106.28.16.579.16.88v.004h.001Zm3.069-.697h-2.434l1.721-1.72a4.194 4.194 0 0 0-.983-.983l-1.721 1.72v-2.433a4.191 4.191 0 0 0-.692-.058h-.005c-.236 0-.467.02-.692.058v2.433l-1.722-1.72a4.157 4.157 0 0 0-.982.983l1.721 1.72h-2.434s-.058.457-.058.693v.003c0 .237.02.468.058.694h2.434l-1.721 1.72c.271.38.603.712.983.983l1.721-1.72v2.433c.225.038.456.058.691.058h.006c.232 0 .463-.02.692-.058v-2.434l1.721 1.721c.19-.135.368-.285.532-.45h.001c.164-.165.315-.343.449-.532l-1.72-1.721h2.434c.038-.226.058-.456.058-.692v-.006c0-.232-.02-.463-.058-.692Zm-44.113 20.11 6.782-10.55h-5.978a6.16 6.16 0 0 1-.075-1.004c0-.351.025-.678.075-.98h9.67l.126.328-6.832 10.573h6.404c.05.335.076.678.076 1.03 0 .335-.025.653-.076.954h-10.046l-.126-.352Zm19.565-5.702a22.983 22.983 0 0 0-.954-.1 11.72 11.72 0 0 0-.979-.05c-1.039 0-1.83.192-2.374.577-.544.386-.816.972-.816 1.759 0 .502.092.895.276 1.18.184.285.415.502.691.653.276.15.582.243.916.276.335.034.653.05.955.05.385 0 .782-.02 1.193-.063.41-.041.774-.104 1.092-.188V32.92Zm0-2.436c0-.988-.251-1.675-.753-2.06-.503-.385-1.231-.577-2.185-.577-.587 0-1.135.046-1.645.138-.505.09-1.005.212-1.495.364-.318-.553-.477-1.214-.477-1.985a11.572 11.572 0 0 1 1.883-.426c.687-.1 1.348-.151 1.985-.151 1.674 0 2.946.381 3.817 1.143.87.762 1.306 1.98 1.306 3.654v8.063c-.586.134-1.298.272-2.135.414-.846.143-1.703.214-2.561.214-.821 0-1.562-.075-2.223-.226-.662-.151-1.223-.394-1.683-.729a3.38 3.38 0 0 1-1.068-1.28c-.251-.52-.376-1.147-.376-1.884 0-.72.146-1.352.439-1.897a3.97 3.97 0 0 1 1.193-1.356 5.328 5.328 0 0 1 1.733-.803 7.895 7.895 0 0 1 2.06-.264c.536 0 .975.013 1.318.038.343.025.632.054.867.088v-.478Zm7.635 6.38c.317.116.645.2.98.25.335.05.77.076 1.306.076.603 0 1.155-.096 1.657-.289a3.29 3.29 0 0 0 1.294-.892c.36-.401.644-.907.854-1.52.209-.61.314-1.334.314-2.172 0-1.339-.248-2.402-.741-3.19-.495-.786-1.302-1.18-2.424-1.18-.418 0-.821.076-1.205.227-.386.15-.729.376-1.03.678a3.34 3.34 0 0 0-.728 1.143c-.185.46-.277 1.008-.277 1.645v5.223Zm-2.486-10.776a5.26 5.26 0 0 1 1.055-.1c.167 0 .342.009.527.025.184.017.36.043.527.075.017.035.038.139.063.315s.05.364.075.564l.076.578c.025.185.037.302.037.352a5.2 5.2 0 0 1 .603-.778c.235-.252.515-.478.842-.678.326-.202.694-.36 1.105-.478.41-.117.866-.176 1.369-.176.753 0 1.452.126 2.097.377a4.2 4.2 0 0 1 1.657 1.168c.46.527.82 1.197 1.08 2.01.259.812.389 1.77.389 2.875 0 2.21-.599 3.94-1.796 5.187-1.197 1.247-2.892 1.87-5.086 1.87a8.74 8.74 0 0 1-1.13-.075 6.73 6.73 0 0 1-1.005-.2V44.9a8.577 8.577 0 0 1-1.255.1c-.206 0-.411-.01-.616-.025a6.072 6.072 0 0 1-.615-.075V26.087h.001Z"/></g><rect width="125.939" height="60" x="-23.091" y="76" fill="#fff" rx="10"/><g clip-path="url(#d)"><path fill="#253B80" d="M27.917 98.613h-5.18a.72.72 0 0 0-.712.607l-2.096 13.286a.43.43 0 0 0 .428.498h2.473a.72.72 0 0 0 .711-.608l.566-3.583a.72.72 0 0 1 .71-.609h1.64c3.413 0 5.383-1.651 5.897-4.924.232-1.432.01-2.557-.66-3.344-.737-.866-2.043-1.323-3.777-1.323Zm.598 4.852c-.284 1.859-1.704 1.859-3.077 1.859h-.782l.548-3.472a.431.431 0 0 1 .427-.364h.358c.936 0 1.818 0 2.274.533.272.318.356.791.252 1.444ZM43.405 103.405h-2.481a.432.432 0 0 0-.427.365l-.11.694-.173-.252c-.537-.78-1.735-1.04-2.93-1.04-2.742 0-5.084 2.076-5.54 4.989-.237 1.453.1 2.843.924 3.812.756.891 1.838 1.262 3.125 1.262 2.21 0 3.434-1.421 3.434-1.421l-.11.69c-.042.263.161.5.426.5h2.235a.72.72 0 0 0 .71-.609l1.342-8.491a.43.43 0 0 0-.425-.499Zm-3.459 4.829c-.239 1.417-1.364 2.369-2.799 2.369-.72 0-1.296-.231-1.666-.669-.366-.435-.506-1.054-.39-1.743.224-1.405 1.368-2.388 2.781-2.388.705 0 1.277.234 1.655.676.378.446.528 1.069.42 1.755ZM56.618 103.405h-2.493a.722.722 0 0 0-.596.316l-3.439 5.065-1.457-4.867a.722.722 0 0 0-.691-.514h-2.45a.432.432 0 0 0-.41.571l2.746 8.06-2.582 3.644a.432.432 0 0 0 .352.682h2.49a.718.718 0 0 0 .592-.309l8.293-11.97a.432.432 0 0 0-.355-.678Z"/><path fill="#179BD7" d="M64.873 98.613h-5.182a.72.72 0 0 0-.71.607l-2.096 13.286a.43.43 0 0 0 .426.498h2.66c.246 0 .458-.18.496-.425l.595-3.766a.72.72 0 0 1 .71-.609h1.64c3.414 0 5.382-1.651 5.898-4.924.232-1.432.009-2.557-.662-3.344-.735-.866-2.04-1.323-3.775-1.323Zm.598 4.852c-.283 1.859-1.703 1.859-3.077 1.859h-.781l.549-3.472a.43.43 0 0 1 .426-.364h.358c.935 0 1.818 0 2.274.533.272.318.355.791.25 1.444ZM80.36 103.405h-2.48a.43.43 0 0 0-.426.365l-.11.694-.174-.252c-.537-.78-1.734-1.04-2.93-1.04-2.741 0-5.082 2.076-5.538 4.989-.236 1.453.1 2.843.923 3.812.758.891 1.838 1.262 3.125 1.262 2.21 0 3.434-1.421 3.434-1.421l-.11.69c-.042.263.161.5.427.5h2.234a.72.72 0 0 0 .71-.609l1.343-8.491a.433.433 0 0 0-.428-.499Zm-3.459 4.829c-.238 1.417-1.364 2.369-2.8 2.369-.718 0-1.295-.231-1.665-.669-.367-.435-.505-1.054-.39-1.743.226-1.405 1.368-2.388 2.78-2.388.706 0 1.278.234 1.656.676.379.446.529 1.069.42 1.755ZM83.284 98.978l-2.126 13.528a.432.432 0 0 0 .425.499h2.138a.72.72 0 0 0 .712-.609l2.097-13.284a.432.432 0 0 0-.426-.5H83.71a.433.433 0 0 0-.426.366Z"/><path fill="#253B80" d="m-1.586 115.586.396-2.516-.883-.021h-4.214l2.929-18.57a.245.245 0 0 1 .082-.145.239.239 0 0 1 .156-.058h7.106c2.359 0 3.987.49 4.837 1.46.398.454.652.93.775 1.452.129.549.13 1.204.005 2.003l-.01.058v.513l.4.225c.335.178.602.382.806.615.341.389.562.883.655 1.469.096.602.064 1.319-.093 2.13-.182.933-.476 1.746-.873 2.411a4.96 4.96 0 0 1-1.383 1.515 5.599 5.599 0 0 1-1.862.841c-.686.178-1.469.268-2.327.268h-.553c-.396 0-.78.143-1.081.398a1.676 1.676 0 0 0-.564 1.006l-.041.227-.7 4.435-.032.163c-.009.052-.023.078-.044.095a.116.116 0 0 1-.073.026h-3.414Z"/><path fill="#179BD7" d="M10.37 99.308c-.021.136-.045.274-.073.417-.937 4.811-4.143 6.473-8.237 6.473H-.025c-.501 0-.923.364-1.001.858l-1.068 6.77-.302 1.918c-.05.325.2.617.527.617h3.697a.89.89 0 0 0 .88-.75l.036-.188.696-4.418.045-.242a.89.89 0 0 1 .878-.752h.553c3.583 0 6.387-1.454 7.207-5.664.343-1.758.165-3.226-.74-4.259a3.54 3.54 0 0 0-1.013-.78Z"/><path fill="#222D65" d="M9.39 98.917a7.45 7.45 0 0 0-.912-.202 11.58 11.58 0 0 0-1.838-.134H1.07a.888.888 0 0 0-.878.751l-1.184 7.505-.034.219c.078-.494.5-.858 1-.858H2.06c4.095 0 7.301-1.662 8.238-6.473.028-.142.052-.281.073-.417a5.003 5.003 0 0 0-.98-.39Z"/><path fill="#253B80" d="M.193 99.333a.886.886 0 0 1 .878-.751h5.57c.66 0 1.275.043 1.837.134a7.374 7.374 0 0 1 1.122.267c.277.092.533.2.77.325.28-1.778-.002-2.988-.963-4.085-1.06-1.206-2.973-1.723-5.42-1.723H-3.12c-.5 0-.926.364-1.003.858l-2.96 18.762a.61.61 0 0 0 .602.706h4.387l1.102-6.989 1.185-7.504Z"/></g><rect width="72.625" height="60" x="118.849" y="76" fill="#fff" rx="10"/><g clip-path="url(#e)"><path fill="#FF5A00" d="M160.396 96.162h-10.889v19.564h10.889V96.162Z"/><path fill="#EB001B" d="M150.232 105.944c0-3.975 1.869-7.503 4.736-9.782a12.376 12.376 0 0 0-7.676-2.662c-6.878 0-12.443 5.565-12.443 12.444 0 6.878 5.565 12.443 12.443 12.443 2.904 0 5.566-1.002 7.676-2.662a12.419 12.419 0 0 1-4.736-9.781Z"/><path fill="#F79E1B" d="M175.087 105.944c0 6.878-5.565 12.443-12.444 12.443a12.37 12.37 0 0 1-7.675-2.662 12.377 12.377 0 0 0 4.736-9.781c0-3.975-1.869-7.503-4.736-9.782a12.356 12.356 0 0 1 7.671-2.662c6.883 0 12.448 5.602 12.448 12.444Z"/></g><rect width="93.598" height="60" x="207.474" y="76" fill="#fff" rx="10"/><g clip-path="url(#f)"><path fill="#1434CB" d="M263.586 96.03c-4.369 0-8.274 2.266-8.274 6.45 0 4.798 6.925 5.13 6.925 7.54 0 1.015-1.163 1.924-3.15 1.924-2.819 0-4.927-1.27-4.927-1.27l-.901 4.223s2.427 1.072 5.65 1.072c4.777 0 8.536-2.376 8.536-6.632 0-5.07-6.954-5.392-6.954-7.629 0-.795.955-1.666 2.936-1.666 2.236 0 4.059.923 4.059.923l.883-4.078s-1.985-.856-4.783-.856Zm-39.975.308-.106.616s1.838.337 3.494 1.008c2.131.77 2.283 1.217 2.642 2.609l3.912 15.081h5.245l8.079-19.314h-5.232l-5.192 13.132-2.118-11.13c-.194-1.275-1.178-2.002-2.383-2.002h-8.341Zm25.37 0-4.105 19.314h4.99l4.09-19.314h-4.975Zm27.828 0c-1.204 0-1.841.645-2.309 1.77l-7.31 17.544h5.233l1.012-2.924h6.374l.616 2.924h4.617l-4.028-19.314h-4.205Zm.68 5.218 1.551 7.248h-4.155l2.604-7.248Z"/></g><rect width="94.954" height="60" x="317.072" y="76" fill="#fff" rx="10"/><g clip-path="url(#g)"><path fill="#5F6368" d="M362.847 105.713v7.329h-2.325V94.944h6.166a5.572 5.572 0 0 1 3.993 1.567 5.033 5.033 0 0 1 1.668 3.819 5.016 5.016 0 0 1-1.668 3.841c-1.078 1.028-2.409 1.542-3.993 1.541h-3.841v.001Zm0-8.54v6.317h3.899c.428.012.853-.064 1.249-.225a3.09 3.09 0 0 0 1.051-.711 3.083 3.083 0 0 0 0-4.423 3.024 3.024 0 0 0-2.3-.96h-3.899v.001ZM377.706 100.255c1.719 0 3.075.459 4.069 1.377.995.919 1.492 2.178 1.491 3.778v7.632h-2.224v-1.719h-.101c-.963 1.415-2.243 2.123-3.841 2.123-1.364 0-2.506-.404-3.424-1.213a3.862 3.862 0 0 1-1.031-1.361 3.866 3.866 0 0 1-.347-1.672c0-1.281.485-2.3 1.453-3.056.969-.757 2.261-1.136 3.879-1.138 1.38 0 2.517.252 3.41.758v-.532a2.645 2.645 0 0 0-.96-2.057 3.29 3.29 0 0 0-2.244-.848c-1.298 0-2.326.548-3.083 1.643l-2.047-1.289c1.126-1.617 2.793-2.426 5-2.426Zm-3.008 8.996a1.852 1.852 0 0 0 .772 1.516 2.833 2.833 0 0 0 1.806.607 3.708 3.708 0 0 0 2.615-1.086c.77-.725 1.155-1.576 1.155-2.552-.725-.577-1.735-.866-3.032-.866-.945 0-1.732.228-2.363.683-.636.462-.953 1.024-.953 1.698Z"/><path fill="#4285F4" d="M353.453 104.134c0-.709-.059-1.416-.179-2.114h-9.805v4.004h5.615a4.798 4.798 0 0 1-2.076 3.159v2.599h3.352c1.962-1.809 3.093-4.485 3.093-7.648Z"/><path fill="#34A853" d="M343.469 114.294c2.806 0 5.168-.922 6.891-2.51l-3.352-2.599c-.933.632-2.134.993-3.539.993-2.712 0-5.014-1.828-5.837-4.291h-3.452v2.678a10.391 10.391 0 0 0 9.289 5.729Z"/><path fill="#FBBC04" d="M337.632 105.887a6.232 6.232 0 0 1 0-3.98v-2.678h-3.453a10.397 10.397 0 0 0 0 9.336l3.453-2.678Z"/><path fill="#EA4335" d="M343.469 97.616a5.644 5.644 0 0 1 3.988 1.56l2.968-2.968a9.99 9.99 0 0 0-6.956-2.708 10.4 10.4 0 0 0-9.289 5.728l3.452 2.679c.823-2.463 3.125-4.291 5.837-4.291Z"/></g><rect width="92.894" height="60" x="-25" y="152" fill="#fff" rx="10"/><g clip-path="url(#h)"><path fill="#000" d="M2.132 172.723c-.713.845-1.855 1.511-2.997 1.415-.143-1.141.416-2.354 1.07-3.104.714-.868 1.963-1.486 2.974-1.534.119 1.189-.345 2.355-1.047 3.223Zm1.035 1.641c-1.653-.095-3.069.94-3.854.94-.796 0-1.998-.892-3.306-.868-1.7.024-3.283.987-4.15 2.521-1.785 3.069-.465 7.612 1.26 10.11.844 1.237 1.855 2.592 3.187 2.545 1.261-.048 1.76-.821 3.283-.821 1.534 0 1.974.821 3.306.797 1.38-.024 2.248-1.237 3.093-2.474.963-1.403 1.355-2.771 1.38-2.842-.025-.024-2.665-1.035-2.689-4.08-.023-2.545 2.082-3.758 2.177-3.829-1.19-1.761-3.045-1.951-3.687-1.999Zm9.55-3.449v18.542h2.878v-6.339h3.985c3.64 0 6.196-2.498 6.196-6.113 0-3.616-2.51-6.09-6.101-6.09h-6.958Zm2.878 2.427h3.319c2.497 0 3.925 1.332 3.925 3.675s-1.428 3.687-3.937 3.687h-3.307v-7.362ZM31.034 189.6c1.808 0 3.485-.916 4.246-2.367h.06v2.224h2.664v-9.229c0-2.676-2.141-4.401-5.436-4.401-3.056 0-5.316 1.749-5.4 4.151h2.594c.214-1.142 1.272-1.891 2.723-1.891 1.76 0 2.747.821 2.747 2.331v1.023l-3.591.214c-3.342.202-5.15 1.57-5.15 3.949 0 2.402 1.867 3.996 4.543 3.996Zm.773-2.2c-1.534 0-2.51-.738-2.51-1.868 0-1.165.94-1.843 2.736-1.95l3.2-.202v1.046c0 1.737-1.475 2.974-3.426 2.974Zm9.753 7.1c2.807 0 4.127-1.07 5.28-4.317l5.055-14.177H48.97l-3.39 10.954h-.06l-3.39-10.954h-3.008l4.876 13.499-.262.82c-.44 1.392-1.153 1.927-2.426 1.927-.226 0-.666-.024-.844-.047v2.224c.166.047.88.071 1.094.071Z"/></g><rect width="162.316" height="60" x="83.894" y="152" fill="#fff" rx="10"/><g fill-rule="evenodd" clip-path="url(#i)" clip-rule="evenodd"><path fill="#F79C34" d="M151.316 189.056c-4.816 3.554-11.797 5.444-17.81 5.444-8.426 0-16.014-3.115-21.756-8.3-.45-.407-.049-.963.493-.648 6.195 3.605 13.857 5.777 21.769 5.777 5.338 0 11.205-1.109 16.604-3.399.815-.345 1.498.537.7 1.126Z"/><path fill="#F79C34" d="M153.321 186.768c-.617-.789-4.072-.374-5.624-.188-.47.057-.544-.354-.12-.652 2.757-1.936 7.274-1.377 7.799-.728.529.653-.139 5.182-2.722 7.343-.398.332-.776.155-.599-.283.582-1.453 1.882-4.702 1.266-5.492Z"/><path fill="#333E47" d="M147.806 172.249v-1.881a.464.464 0 0 1 .477-.476l8.432-.001a.47.47 0 0 1 .487.475v1.613c-.003.271-.231.624-.635 1.184l-4.368 6.237c1.621-.038 3.336.205 4.809 1.033.333.187.422.463.448.734v2.008c0 .277-.303.596-.622.43-2.595-1.36-6.039-1.508-8.909.016-.293.157-.6-.159-.6-.436v-1.908c0-.305.006-.828.314-1.293l5.06-7.26-4.406-.001a.469.469 0 0 1-.487-.474ZM117.047 184h-2.565a.482.482 0 0 1-.46-.433l.003-13.167c0-.263.221-.473.495-.473l2.389-.001c.25.013.45.202.466.442v1.719h.049c.622-1.663 1.795-2.439 3.376-2.439 1.604 0 2.61.776 3.329 2.439.622-1.663 2.035-2.439 3.543-2.439 1.078 0 2.251.444 2.97 1.442.814 1.108.647 2.715.647 4.128l-.003 8.309a.483.483 0 0 1-.494.473h-2.562a.48.48 0 0 1-.461-.472l-.001-6.98c0-.554.048-1.939-.072-2.466-.191-.887-.766-1.136-1.508-1.136-.623 0-1.269.415-1.533 1.08-.264.666-.239 1.773-.239 2.522v6.979a.484.484 0 0 1-.495.473h-2.562a.48.48 0 0 1-.461-.472l-.003-6.98c0-1.469.24-3.629-1.58-3.629-1.844 0-1.772 2.105-1.772 3.629l-.001 6.979a.484.484 0 0 1-.495.473ZM164.484 172.336c-1.891 0-2.011 2.576-2.011 4.184 0 1.607-.024 5.043 1.988 5.043 1.988 0 2.084-2.771 2.084-4.461 0-1.108-.049-2.439-.384-3.491-.287-.915-.863-1.275-1.677-1.275Zm-.023-2.688c3.807 0 5.867 3.271 5.867 7.427 0 4.016-2.275 7.203-5.867 7.203-3.736 0-5.772-3.27-5.772-7.342 0-4.101 2.059-7.288 5.772-7.288ZM175.266 184h-2.557a.48.48 0 0 1-.459-.472l-.005-13.172a.486.486 0 0 1 .493-.429l2.38-.001a.488.488 0 0 1 .456.368v2.014h.048c.719-1.801 1.724-2.66 3.496-2.66 1.149 0 2.275.416 2.993 1.552.671 1.053.671 2.826.671 4.101v8.285a.485.485 0 0 1-.492.414h-2.571a.482.482 0 0 1-.457-.414v-7.148c0-1.442.168-3.548-1.605-3.548-.622 0-1.197.416-1.484 1.053-.36.804-.408 1.607-.408 2.495v7.089a.49.49 0 0 1-.499.473ZM143.67 183.968a.53.53 0 0 1-.606.059c-.852-.708-1.004-1.035-1.47-1.709-1.408 1.434-2.406 1.865-4.23 1.865-2.159 0-3.84-1.334-3.84-3.999 0-2.083 1.129-3.499 2.736-4.193 1.392-.611 3.336-.722 4.824-.888v-.333c0-.612.048-1.333-.312-1.861-.312-.472-.912-.667-1.44-.667-.979 0-1.848.502-2.062 1.541-.045.231-.213.46-.445.472l-2.487-.269c-.21-.048-.443-.217-.383-.537.565-2.975 3.221-3.902 5.635-3.927h.191c1.235.015 2.814.354 3.775 1.276 1.248 1.167 1.127 2.722 1.127 4.416v3.996c0 1.203.5 1.73.969 2.378.165.234.201.51-.008.682-.524.439-1.455 1.247-1.967 1.704l-.007-.006Zm-2.586-6.255c0 1 .024 1.832-.48 2.721-.408.722-1.056 1.166-1.776 1.166-.983 0-1.559-.749-1.559-1.86 0-2.186 1.959-2.583 3.815-2.583v.556ZM110.041 183.968a.532.532 0 0 1-.607.059c-.852-.708-1.005-1.035-1.47-1.709-1.409 1.434-2.405 1.865-4.23 1.865-2.159 0-3.84-1.334-3.84-3.999 0-2.083 1.128-3.499 2.737-4.193 1.391-.611 3.335-.722 4.823-.888v-.333c0-.612.048-1.333-.312-1.861-.312-.472-.912-.667-1.44-.667-.978 0-1.849.502-2.061 1.541-.045.231-.214.46-.446.472l-2.487-.269c-.21-.048-.444-.217-.383-.537.563-2.975 3.22-3.902 5.635-3.927h.191c1.235.015 2.814.354 3.775 1.276 1.248 1.167 1.127 2.722 1.127 4.416v3.996c0 1.203.5 1.73.969 2.378.163.234.201.51-.008.682a105.25 105.25 0 0 0-1.968 1.704l-.005-.006Zm-2.587-6.255c0 1 .024 1.832-.48 2.721-.408.722-1.056 1.166-1.776 1.166-.984 0-1.56-.749-1.56-1.86 0-2.186 1.96-2.583 3.816-2.583v.556ZM217.85 188.724v-.967c0-.276.135-.466.423-.449.536.076 1.294.152 1.832.042.703-.146 1.207-.645 1.505-1.328.42-.961.699-1.736.874-2.245l-5.337-13.221c-.09-.224-.116-.64.332-.64h1.866c.355 0 .5.225.58.447l3.869 10.739 3.694-10.739c.075-.22.226-.447.579-.447h1.759c.446 0 .421.415.332.64l-5.294 13.634c-.685 1.815-1.598 4.705-3.653 5.207-1.031.269-2.331.172-3.094-.148-.193-.096-.267-.355-.267-.525ZM215.361 183.195a.448.448 0 0 1-.448.447h-1.316a.514.514 0 0 1-.515-.447l-.132-.896a7.663 7.663 0 0 1-2.151 1.275c-1.547.601-3.331.7-4.843-.229-1.093-.671-1.674-1.982-1.674-3.336 0-1.047.323-2.085 1.038-2.838.955-1.03 2.338-1.536 4.009-1.536 1.009 0 2.453.119 3.504.462v-1.802c0-1.832-.772-2.625-2.806-2.625-1.554 0-2.744.235-4.399.749-.265.009-.42-.193-.42-.438v-1.028c0-.247.21-.485.439-.557 1.182-.516 2.856-.837 4.636-.896 2.32 0 5.078.523 5.078 4.092v9.603Zm-2.528-2.631v-2.719c-.883-.242-2.344-.342-2.91-.342-.893 0-1.871.211-2.382.761-.382.403-.554.982-.554 1.541 0 .724.25 1.45.834 1.809.68.461 1.733.405 2.723.124.952-.271 1.845-.748 2.289-1.174ZM195.963 171.711c2.919 0 3.714 2.295 3.714 4.923.017 1.772-.309 3.352-1.227 4.256-.686.677-1.453.862-2.608.862-1.028 0-2.379-.536-3.389-1.283v-7.514c1.051-.808 2.392-1.244 3.51-1.244Zm-3.958 17.485h-1.762a.45.45 0 0 1-.448-.448v-18.361a.45.45 0 0 1 .448-.448h1.349c.283 0 .478.206.514.448l.141.962c1.264-1.122 2.89-1.841 4.44-1.841 4.34 0 5.767 3.576 5.767 7.295 0 3.979-2.183 7.175-5.875 7.175a6.177 6.177 0 0 1-4.126-1.57v6.34a.45.45 0 0 1-.448.448Z"/></g><rect width="151.725" height="60" x="262.21" y="152" fill="#fff" rx="10"/><g clip-path="url(#j)"><path fill="#F7931A" d="M302.832 185.025c-1.67 6.697-8.452 10.772-15.149 9.102-6.695-1.669-10.77-8.452-9.1-15.148 1.669-6.697 8.451-10.773 15.147-9.103 6.696 1.669 10.771 8.453 9.102 15.149Z"/><path fill="#fff" d="M296.218 180.221c.249-1.664-1.017-2.558-2.749-3.154l.562-2.253-1.372-.342-.547 2.193c-.36-.089-.73-.174-1.098-.258l.55-2.208-1.37-.342-.562 2.252a42.478 42.478 0 0 1-.876-.206l.001-.007-1.891-.472-.365 1.465s1.018.233.996.248c.556.138.656.506.639.797l-.64 2.567c.039.01.088.024.143.046a7.717 7.717 0 0 0-.145-.036l-.897 3.595c-.068.169-.24.422-.628.326.013.02-.997-.249-.997-.249l-.681 1.57 1.785.445c.332.083.657.17.977.252l-.567 2.279 1.37.342.562-2.255c.374.102.737.196 1.093.284l-.56 2.244 1.371.342.568-2.275c2.338.443 4.097.264 4.837-1.851.597-1.703-.03-2.685-1.26-3.326.896-.206 1.571-.796 1.751-2.013Zm-3.133 4.394c-.424 1.703-3.292.782-4.221.551l.753-3.019c.929.232 3.911.691 3.468 2.468Zm.424-4.419c-.387 1.549-2.774.762-3.548.569l.683-2.738c.774.193 3.268.553 2.865 2.169Z"/><path fill="#4D4D4D" d="M314.839 177.065c1.014 0 1.89.181 2.626.538.739.36 1.349.845 1.839 1.455a6.13 6.13 0 0 1 1.074 2.152c.231.824.346 1.709.346 2.657 0 1.456-.267 2.832-.805 4.129a10.724 10.724 0 0 1-2.199 3.386 10.342 10.342 0 0 1-3.291 2.276c-1.263.559-2.636.839-4.11.839-.191 0-.526-.006-.999-.015a14.748 14.748 0 0 1-1.627-.141 19.353 19.353 0 0 1-1.947-.382 9.798 9.798 0 0 1-1.946-.696l5.473-22.998 4.902-.76-1.959 8.162a7.643 7.643 0 0 1 1.264-.443 5.614 5.614 0 0 1 1.359-.159Zm-4.112 13.543c.739 0 1.434-.182 2.088-.539a5.506 5.506 0 0 0 1.695-1.439 7.242 7.242 0 0 0 1.122-2.041 6.967 6.967 0 0 0 .412-2.375c0-1.012-.169-1.801-.506-2.372-.338-.568-.961-.854-1.867-.854-.297 0-.68.056-1.154.157a2.891 2.891 0 0 0-1.283.666l-2.087 8.667c.126.023.237.044.332.064.093.021.196.036.298.047.109.012.232.018.382.018l.568.001ZM325.808 194.057h-4.682l3.954-16.64h4.715l-3.987 16.64Zm2.279-18.667a2.904 2.904 0 0 1-1.772-.584c-.53-.388-.793-.984-.793-1.788 0-.442.09-.857.268-1.249a3.338 3.338 0 0 1 1.741-1.693 3.136 3.136 0 0 1 1.252-.252c.653 0 1.242.194 1.77.584.526.392.79.988.79 1.788 0 .444-.089.86-.269 1.251-.179.39-.415.727-.711 1.013a3.431 3.431 0 0 1-1.027.678 3.082 3.082 0 0 1-1.249.252ZM333.898 173.271l4.904-.759-1.204 4.904h5.252l-.948 3.859h-5.221l-1.39 5.82a6.571 6.571 0 0 0-.222 1.359c-.023.423.031.787.158 1.093.125.306.351.543.68.71.326.17.794.255 1.407.255.505 0 .997-.048 1.473-.143.473-.094.952-.224 1.437-.395l.35 3.608a16.8 16.8 0 0 1-2.057.599c-.739.171-1.614.253-2.626.253-1.455 0-2.582-.216-3.386-.646-.802-.434-1.369-1.025-1.709-1.775-.335-.746-.484-1.607-.442-2.576.043-.972.189-1.993.442-3.069l3.102-13.097ZM342.644 187.412a11.7 11.7 0 0 1 .695-4.05 9.969 9.969 0 0 1 1.995-3.324c.862-.946 1.913-1.695 3.149-2.245 1.23-.547 2.608-.823 4.126-.823.951 0 1.8.09 2.546.27.75.182 1.429.417 2.043.711l-1.615 3.672c-.422-.171-.86-.322-1.313-.459-.453-.139-1.006-.206-1.66-.206-1.563 0-2.799.538-3.718 1.612-.916 1.075-1.377 2.521-1.377 4.336 0 1.075.232 1.945.697 2.61.463.665 1.319.996 2.562.996.613 0 1.205-.064 1.772-.189a8.784 8.784 0 0 0 1.519-.474l.35 3.764c-.592.229-1.245.437-1.962.618-.718.176-1.572.267-2.563.267-1.309 0-2.416-.192-3.322-.569-.906-.382-1.655-.891-2.245-1.534a5.785 5.785 0 0 1-1.282-2.264 9.295 9.295 0 0 1-.397-2.719ZM363.444 194.498c-1.118 0-2.088-.171-2.912-.508-.821-.337-1.501-.81-2.039-1.423-.539-.61-.942-1.333-1.218-2.167-.276-.832-.409-1.755-.409-2.765 0-1.268.204-2.535.615-3.798a10.738 10.738 0 0 1 1.821-3.416 9.713 9.713 0 0 1 2.94-2.487c1.157-.641 2.489-.964 3.984-.964 1.097 0 2.063.171 2.897.508.831.336 1.516.813 2.057 1.423a6.202 6.202 0 0 1 1.215 2.168c.275.831.411 1.756.411 2.767 0 1.264-.201 2.531-.599 3.798a10.974 10.974 0 0 1-1.772 3.416 9.296 9.296 0 0 1-2.926 2.482c-1.169.643-2.525.966-4.065.966Zm2.34-13.54c-.694 0-1.308.202-1.833.6-.527.402-.97.909-1.327 1.519a7.501 7.501 0 0 0-.81 2.009 8.677 8.677 0 0 0-.267 2.072c0 1.055.17 1.878.505 2.469.34.589.949.885 1.836.885.696 0 1.307-.2 1.835-.602.524-.4.968-.906 1.327-1.518.359-.61.629-1.281.81-2.009a8.774 8.774 0 0 0 .267-2.072c0-1.053-.17-1.877-.507-2.468-.338-.589-.95-.885-1.836-.885ZM377.909 194.057h-4.686l3.954-16.64h4.717l-3.985 16.64Zm2.275-18.667a2.898 2.898 0 0 1-1.77-.584c-.528-.388-.793-.984-.793-1.788 0-.442.091-.857.27-1.249.178-.39.416-.727.712-1.012.295-.284.64-.511 1.029-.681a3.112 3.112 0 0 1 1.247-.252c.655 0 1.246.194 1.773.584.527.392.793.988.793 1.788a3 3 0 0 1-.272 1.251c-.177.39-.415.727-.709 1.013a3.474 3.474 0 0 1-1.028.678 3.09 3.09 0 0 1-1.252.252Z"/></g><defs><clipPath id="a"><path fill="#fff" d="M11.148 17.5h99.397v25H11.148z"/></clipPath><clipPath id="b"><path fill="#fff" d="M158.546 15h105.738v30H158.546z"/></clipPath><clipPath id="c"><path fill="#fff" d="M312.283 15h65.502v30h-65.502z"/></clipPath><clipPath id="d"><path fill="#fff" d="M-7.09 93.5h93.938v25H-7.09z"/></clipPath><clipPath id="e"><path fill="#fff" d="M134.849 93.5h40.625v25h-40.625z"/></clipPath><clipPath id="f"><path fill="#fff" d="M223.474 96h61.598v20h-61.598z"/></clipPath><clipPath id="g"><path fill="#fff" d="M333.072 93.5h62.954v25h-62.954z"/></clipPath><clipPath id="h"><path fill="#fff" d="M-9 169.5h60.894v25H-9z"/></clipPath><clipPath id="i"><path fill="#fff" d="M99.894 169.5H230.21v25H99.894z"/></clipPath><clipPath id="j"><path fill="#fff" d="M278.21 169.5h119.725v25H278.21z"/></clipPath></defs></svg>