<svg width="379" height="212" viewBox="0 0 379 212" fill="none" xmlns="http://www.w3.org/2000/svg">
<rect x="-4.85156" width="131.397" height="60" rx="10" fill="white"/>
<g clip-path="url(#clip0_722_953)">
<path d="M43.2439 27.2762C43.2439 25.4931 41.51 23.5994 38.5095 23.5994C35.1401 23.5994 31.4386 26.0711 30.873 31.0022C30.295 35.9825 33.3939 38.196 36.5174 38.196C39.6408 38.196 41.2763 36.9786 42.9487 35.3554C41.51 33.5477 39.6531 34.3839 39.2965 34.5684C38.903 34.7651 38.3988 35.0357 37.3659 35.0357C36.1607 35.0357 34.931 34.4946 34.931 32.2442C42.6536 31.4818 43.2439 29.0593 43.2439 27.2762ZM39.4195 27.5713C39.3703 28.1247 39.1489 29.0716 35.2385 29.6003C36.0624 26.6736 37.6364 26.4523 38.3619 26.4523C39.0383 26.4523 39.4687 26.9811 39.4195 27.5713ZM26.3354 28.0509C26.3354 28.0509 24.6752 33.2649 24.54 33.6953C24.4908 33.2526 23.2734 23.8945 23.2734 23.8945C20.445 23.8945 18.9325 25.9112 18.1332 28.0386C18.1332 28.0386 16.1165 33.2649 15.9443 33.7076C15.932 33.3018 15.6369 28.1001 15.6369 28.1001C15.4647 25.4931 13.0791 23.9068 11.1484 23.9068L13.4849 38.0853C16.4485 38.073 18.0471 36.0686 18.8833 33.9412C18.8833 33.9412 20.6664 29.3298 20.7402 29.1208C20.7525 29.3175 22.0191 38.0853 22.0191 38.0853C24.995 38.0853 26.5936 36.2039 27.4544 34.1503L31.6231 23.9068C28.6841 23.9068 27.1347 25.9112 26.3354 28.0509ZM54.1637 23.5748C52.3314 23.5748 50.9296 24.5708 49.749 26.0342V26.0219L50.8066 17.5C48.3718 17.5 46.3919 19.6151 46.0107 22.7632L44.1661 37.9747C45.568 37.9747 47.056 37.5689 47.8553 36.5359C48.5685 37.4582 49.6384 38.196 51.2247 38.196C55.3319 38.196 58.1479 33.4247 58.1479 28.9486C58.1234 24.866 56.1435 23.5748 54.1637 23.5748ZM53.7825 30.8915C53.3521 33.3878 51.9625 35.0849 50.6221 35.0849C49.2694 35.0849 48.6915 34.4823 48.6915 34.4823C48.9497 32.2934 49.1096 30.953 49.6015 29.7971C50.0933 28.6412 51.2616 26.7966 52.479 26.7966C53.6718 26.7966 54.2129 28.3829 53.7825 30.8915ZM68.4037 23.9068H65.5385L65.5508 23.7592C65.7476 21.8901 66.1903 20.9063 67.6536 20.7464C68.6497 20.6481 69.0924 20.1316 69.203 19.5659C69.2891 19.1232 69.5597 17.5861 69.5597 17.5861C63.8046 17.5492 61.9969 20.0332 61.5297 23.8207L61.5174 23.9068H61.4559C60.5213 23.9068 59.4883 24.9643 59.3162 26.3047L59.2547 26.7966H61.173L59.5621 40.1021L59.0702 42.4877C59.1317 42.4877 59.2055 42.5 59.267 42.5C61.96 42.4016 63.6816 40.2742 64.0629 37.1877L65.3172 26.7966H66.2148C67.1002 26.7966 68.1332 25.9112 68.3176 24.4356L68.4037 23.9068ZM83.3078 23.6608C79.9999 23.6608 76.8764 26.0957 75.9173 29.9201C74.9581 33.7445 76.4091 38.2698 81.2788 38.2698C86.1361 38.2698 88.9399 33.56 88.9399 29.6372C88.9399 25.7391 86.296 23.6608 83.3078 23.6608ZM84.6482 30.7686C84.476 32.5025 83.7136 35.134 81.6231 35.134C79.5203 35.134 79.8154 32.0598 80.0245 30.5964C80.2458 29.0347 81.1189 26.8089 83.0004 26.8089C84.6851 26.8089 84.8449 28.8133 84.6482 30.7686ZM105.283 28.0509C105.283 28.0509 103.623 33.2649 103.487 33.6953C103.438 33.2526 102.221 23.8945 102.221 23.8945C99.3924 23.8945 97.8799 25.9112 97.0806 28.0386C97.0806 28.0386 95.0638 33.2649 94.8917 33.7076C94.8794 33.3018 94.5843 28.1001 94.5843 28.1001C94.4121 25.4931 92.0265 23.9068 90.0958 23.9068L92.42 38.0853C95.3836 38.073 96.9822 36.0686 97.8184 33.9412C97.8184 33.9412 99.6015 29.3298 99.6629 29.1208C99.6875 29.3175 100.942 38.0853 100.942 38.0853C103.918 38.0853 105.516 36.2039 106.377 34.1503L110.546 23.9068C107.619 23.9068 106.07 25.9112 105.283 28.0509ZM71.1091 17.5861L68.6989 37.0278L68.207 39.4257C68.2685 39.4257 68.3422 39.438 68.4037 39.438C70.9984 39.4011 72.843 37.1262 73.1873 34.2609L74.5769 23.1075C74.995 19.7012 72.966 17.5861 71.1091 17.5861Z" fill="#3A60F8"/>
</g>
<rect x="142.546" width="137.738" height="60" rx="10" fill="white"/>
<g clip-path="url(#clip1_722_953)">
<path d="M181.354 20.682C181.333 20.533 181.203 20.4503 181.095 20.4413C180.988 20.4323 178.887 20.4004 178.887 20.4004C178.887 20.4004 177.13 18.6943 176.957 18.5207C176.783 18.3472 176.444 18.3996 176.312 18.4389C176.311 18.4397 175.982 18.5412 175.43 18.7123C175.337 18.4127 175.201 18.0443 175.007 17.6743C174.382 16.4807 173.466 15.8495 172.359 15.8478C172.357 15.8478 172.357 15.8478 172.355 15.8478C172.278 15.8478 172.202 15.8552 172.125 15.8617C172.092 15.8225 172.059 15.784 172.025 15.7463C171.543 15.2306 170.925 14.9792 170.184 15.0013C168.755 15.0423 167.331 16.0746 166.177 17.9084C165.365 19.1986 164.746 20.8196 164.571 22.0745C162.93 22.5829 161.782 22.9382 161.757 22.9464C160.928 23.2067 160.902 23.2321 160.794 24.0131C160.714 24.6033 158.546 41.3662 158.546 41.3662L176.713 44.5082L184.587 42.5508C184.587 42.5508 181.374 20.831 181.354 20.682ZM174.52 18.9939C174.102 19.1233 173.626 19.2706 173.111 19.4303C173.1 18.7066 173.014 17.6996 172.677 16.8294C173.761 17.0349 174.295 18.2621 174.52 18.9939ZM172.16 19.725C171.208 20.0197 170.169 20.3414 169.127 20.664C169.42 19.5416 169.976 18.4241 170.659 17.6914C170.913 17.4188 171.268 17.1151 171.689 16.9416C172.084 17.7668 172.17 18.935 172.16 19.725ZM170.213 15.9526C170.548 15.9453 170.831 16.0189 171.072 16.1778C170.686 16.3783 170.312 16.6665 169.962 17.0423C169.054 18.0165 168.358 19.5285 168.081 20.9874C167.215 21.255 166.369 21.5179 165.59 21.7586C166.082 19.4622 168.006 16.0165 170.213 15.9526Z" fill="#95BF47"/>
<path d="M181.096 20.4424C180.989 20.4334 178.888 20.4015 178.888 20.4015C178.888 20.4015 177.131 18.6954 176.958 18.5218C176.893 18.4571 176.806 18.4236 176.714 18.4097L176.715 44.5077L184.588 42.5511C184.588 42.5511 181.375 20.8321 181.355 20.6831C181.334 20.5341 181.203 20.4514 181.096 20.4424Z" fill="#5E8E3E"/>
<path d="M172.349 24.4906L171.435 27.9117C171.435 27.9117 170.415 27.4475 169.206 27.5237C167.432 27.6359 167.414 28.7541 167.432 29.0349C167.528 30.565 171.553 30.899 171.779 34.4831C171.957 37.3025 170.284 39.2313 167.873 39.3836C164.979 39.5661 163.386 37.8592 163.386 37.8592L163.999 35.251C163.999 35.251 165.603 36.461 166.886 36.3799C167.725 36.3267 168.024 35.6448 167.994 35.1626C167.868 33.1667 164.59 33.2846 164.383 30.005C164.208 27.2454 166.021 24.4488 170.02 24.1967C171.561 24.0976 172.349 24.4906 172.349 24.4906Z" fill="white"/>
<path d="M194.955 31.6541C194.05 31.1629 193.585 30.7488 193.585 30.1796C193.585 29.4553 194.231 28.99 195.24 28.99C196.415 28.99 197.464 29.4813 197.464 29.4813L198.292 26.9463C198.292 26.9463 197.531 26.3511 195.291 26.3511C192.175 26.3511 190.015 28.1358 190.015 30.6448C190.015 32.0674 191.024 33.1538 192.369 33.9293C193.455 34.5496 193.844 34.9897 193.844 35.6361C193.844 36.3084 193.3 36.8516 192.292 36.8516C190.789 36.8516 189.37 36.0754 189.37 36.0754L188.49 38.6104C188.49 38.6104 189.802 39.4897 192.008 39.4897C195.215 39.4897 197.517 37.912 197.517 35.0669C197.516 33.542 196.353 32.4555 194.955 31.6541Z" fill="black"/>
<path d="M207.732 26.3262C206.155 26.3262 204.913 27.0764 203.957 28.214L203.905 28.188L205.275 21.0239H201.706L198.24 39.2578H201.81L202.999 33.025C203.465 30.6711 204.68 29.2233 205.818 29.2233C206.62 29.2233 206.931 29.7665 206.931 30.5428C206.931 31.034 206.879 31.6292 206.776 32.1205L205.431 39.2586H209.001L210.397 31.8874C210.552 31.1112 210.656 30.1807 210.656 29.5595C210.655 27.5417 209.594 26.3262 207.732 26.3262Z" fill="black"/>
<path d="M218.724 26.3262C214.43 26.3262 211.586 30.2059 211.586 34.5248C211.586 37.292 213.292 39.516 216.5 39.516C220.716 39.516 223.561 35.7403 223.561 31.3174C223.561 28.7573 222.06 26.3262 218.724 26.3262ZM216.965 36.7756C215.75 36.7756 215.232 35.7411 215.232 34.4476C215.232 32.4047 216.293 29.0683 218.233 29.0683C219.5 29.0683 219.913 30.1547 219.913 31.2151C219.913 33.4132 218.854 36.7756 216.965 36.7756Z" fill="black"/>
<path d="M232.691 26.3262C230.282 26.3262 228.915 28.4471 228.915 28.4471H228.863L229.07 26.5332H225.915C225.76 27.8267 225.475 29.7917 225.191 31.2663L222.708 44.327H226.278L227.26 39.0507H227.338C227.338 39.0507 228.07 39.516 229.433 39.516C233.623 39.516 236.364 35.2231 236.364 30.8774C236.364 28.4731 235.303 26.3262 232.691 26.3262ZM229.277 36.8267C228.35 36.8267 227.802 36.3095 227.802 36.3095L228.397 32.9731C228.811 30.7491 229.975 29.2745 231.217 29.2745C232.303 29.2745 232.639 30.283 232.639 31.2403C232.639 33.5423 231.268 36.8267 229.277 36.8267Z" fill="black"/>
<path d="M241.459 21.2051C240.321 21.2051 239.416 22.1104 239.416 23.274C239.416 24.3345 240.088 25.0588 241.097 25.0588H241.149C242.261 25.0588 243.218 24.3085 243.244 22.9898C243.244 21.9553 242.545 21.2051 241.459 21.2051Z" fill="black"/>
<path d="M236.468 39.2575H240.036L242.468 26.6108H238.873L236.468 39.2575Z" fill="black"/>
<path d="M251.547 26.5851H249.063L249.192 25.9899C249.399 24.7744 250.124 23.6879 251.313 23.6879C251.948 23.6879 252.451 23.869 252.451 23.869L253.149 21.0758C253.149 21.0758 252.529 20.7656 251.209 20.7656C249.942 20.7656 248.675 21.1277 247.718 21.9552C246.502 22.9897 245.933 24.4894 245.649 25.9899L245.546 26.5851H243.89L243.373 29.2752H245.029L243.141 39.2585H246.71L248.598 29.2752H251.055L251.547 26.5851Z" fill="black"/>
<path d="M260.133 26.6112C260.133 26.6112 257.902 32.2325 256.9 35.301H256.848C256.78 34.3128 255.969 26.6112 255.969 26.6112H252.218L254.366 38.2233C254.418 38.4815 254.392 38.6374 254.288 38.8185C253.874 39.6199 253.176 40.3962 252.348 40.9654C251.676 41.4566 250.926 41.7668 250.331 41.9738L251.314 45.0001C252.038 44.845 253.538 44.2499 254.805 43.0603C256.435 41.5346 257.934 39.1806 259.486 35.9733L263.857 26.6104H260.133V26.6112Z" fill="black"/>
</g>
<rect x="296.283" width="97.5022" height="60" rx="10" fill="white"/>
<g clip-path="url(#clip2_722_953)">
<path d="M351.589 28.0467H349.956C349.923 27.913 349.898 27.7581 349.881 27.5821C349.848 27.2397 349.848 26.8949 349.881 26.5524C349.898 26.3769 349.923 26.222 349.956 26.0876H354.025V38.9723C353.821 39.0077 353.616 39.0327 353.41 39.0472C353.205 39.0629 353 39.0712 352.794 39.0721C352.597 39.0709 352.401 39.0626 352.204 39.0472C351.998 39.0326 351.793 39.0075 351.589 38.9719V28.0461V28.0464L351.589 28.0467ZM365.754 31.2869C365.754 30.8179 365.691 30.3702 365.566 29.9428C365.44 29.5161 365.255 29.1437 365.013 28.8254C364.77 28.5075 364.46 28.2519 364.084 28.0595C363.707 27.8669 363.259 27.7705 362.74 27.7705C361.719 27.7705 360.936 28.0807 360.392 28.7C359.847 29.3194 359.517 30.1816 359.4 31.2869H365.754H365.754ZM359.375 33.1454C359.408 34.5518 359.772 35.5818 360.467 36.2344C361.162 36.8874 362.187 37.2144 363.544 37.2144C364.732 37.2144 365.863 37.0047 366.934 36.5862C367.068 36.8373 367.177 37.143 367.26 37.503C367.343 37.8535 367.393 38.2107 367.411 38.5702C366.859 38.8053 366.251 38.9803 365.59 39.0978C364.929 39.2147 364.196 39.2736 363.393 39.2736C362.22 39.2736 361.216 39.1099 360.379 38.7837C359.542 38.4568 358.851 37.9963 358.307 37.4022C357.763 36.808 357.365 36.1046 357.114 35.2924C356.863 34.4806 356.737 33.5888 356.737 32.6177C356.737 31.6633 356.858 30.7716 357.101 29.9426C357.343 29.1142 357.717 28.3941 358.218 27.783C358.721 27.1716 359.353 26.6862 360.115 26.3262C360.876 25.9662 361.776 25.7859 362.815 25.7859C363.702 25.7859 364.481 25.9368 365.151 26.2381C365.82 26.5395 366.381 26.954 366.833 27.4814C367.285 28.0089 367.629 28.6368 367.863 29.3648C368.097 30.0935 368.215 30.8845 368.215 31.7386C368.215 31.9731 368.206 32.2199 368.189 32.4793C368.176 32.7014 368.159 32.9232 368.139 33.1448H359.374L359.374 33.1452L359.375 33.1454ZM370.954 26.0876C371.129 26.0559 371.305 26.0308 371.481 26.0124C371.648 25.9961 371.825 25.9875 372.009 25.9875C372.193 25.9875 372.377 25.9961 372.561 26.0124C372.746 26.0295 372.913 26.0546 373.064 26.0876C373.114 26.3389 373.164 26.6699 373.214 27.0797C373.264 27.49 373.29 27.8372 373.29 28.122C373.641 27.5529 374.106 27.0586 374.683 26.6399C375.261 26.2216 376.002 26.012 376.906 26.012C377.04 26.012 377.178 26.0165 377.32 26.0249C377.442 26.0314 377.564 26.0437 377.685 26.0622C377.718 26.2131 377.743 26.3724 377.76 26.5396C377.776 26.7069 377.785 26.8828 377.785 27.0669C377.785 27.268 377.772 27.4775 377.747 27.6947C377.723 27.9046 377.694 28.1139 377.66 28.3224C377.524 28.289 377.385 28.2722 377.245 28.2723H376.906C376.454 28.2723 376.022 28.3351 375.612 28.4605C375.202 28.5863 374.834 28.8082 374.507 29.126C374.181 29.4444 373.921 29.8798 373.729 30.4324C373.536 30.985 373.44 31.6966 373.44 32.5671V38.9719C373.236 39.0073 373.031 39.0326 372.825 39.0471C372.599 39.0639 372.394 39.072 372.209 39.072C372.004 39.0712 371.799 39.0629 371.594 39.0471C371.379 39.0315 371.166 39.0065 370.953 38.972V26.0878L370.954 26.0876ZM353.327 19.2078C353.327 19.5084 353.273 19.8066 353.167 20.0879C352.885 20.1939 352.587 20.2482 352.286 20.2482H352.283C351.982 20.2483 351.684 20.194 351.402 20.088C351.296 19.8066 351.242 19.5084 351.242 19.2077V19.2037C351.242 18.8939 351.299 18.5972 351.402 18.3234C351.683 18.2173 351.981 18.163 352.282 18.1632H352.286C352.596 18.1632 352.892 18.22 353.166 18.3234C353.272 18.6048 353.326 18.903 353.326 19.2037V19.2077H353.327L353.327 19.2078ZM356.396 18.5109H353.962L355.683 16.7901C355.412 16.4101 355.08 16.078 354.7 15.8076L352.979 17.5283V15.0947C352.75 15.0562 352.519 15.0368 352.287 15.0366H352.282C352.046 15.0366 351.815 15.0568 351.59 15.0947V17.5283L349.868 15.8075C349.679 15.9424 349.501 16.0929 349.336 16.2576L349.336 16.2584C349.171 16.4229 349.021 16.6008 348.886 16.7902L350.607 18.5109H348.173C348.173 18.5109 348.115 18.9681 348.115 19.2044V19.2073C348.115 19.4436 348.135 19.6752 348.173 19.9007H350.607L348.886 21.6212C349.157 22.0011 349.489 22.3332 349.869 22.604L351.59 20.8833V23.3171C351.815 23.3549 352.046 23.3748 352.281 23.375H352.287C352.519 23.3748 352.75 23.3555 352.979 23.3171V20.8833L354.7 22.6044C354.89 22.4693 355.068 22.3187 355.232 22.1542H355.233C355.397 21.9895 355.548 21.8115 355.682 21.6219L353.962 19.9008H356.396C356.434 19.6755 356.454 19.4447 356.454 19.2088V19.2028C356.454 18.9709 356.434 18.7397 356.396 18.5111V18.5109H356.396ZM312.283 38.6208L319.065 28.0718H313.087C313.037 27.7705 313.012 27.4359 313.012 27.0674C313.012 26.7159 313.037 26.3891 313.087 26.0875H322.757L322.883 26.4146L316.051 36.9882H322.455C322.505 37.3232 322.531 37.6662 322.531 38.0177C322.531 38.353 322.506 38.671 322.455 38.9723H312.409L312.283 38.6204V38.6208ZM331.848 32.9191C331.597 32.886 331.279 32.8528 330.894 32.8189C330.509 32.7857 330.182 32.7687 329.915 32.7687C328.876 32.7687 328.085 32.9613 327.541 33.3464C326.997 33.7319 326.725 34.3176 326.725 35.1045C326.725 35.6068 326.817 36.0003 327.001 36.2849C327.185 36.5699 327.416 36.7871 327.692 36.9379C327.968 37.0886 328.274 37.1808 328.608 37.2144C328.943 37.2478 329.261 37.2644 329.563 37.2644C329.948 37.2644 330.345 37.2434 330.756 37.2015C331.166 37.16 331.53 37.097 331.848 37.0133V32.9191H331.848ZM331.848 30.4832C331.848 29.4949 331.597 28.8085 331.095 28.4233C330.592 28.0381 329.864 27.8456 328.91 27.8456C328.323 27.8456 327.775 27.8919 327.265 27.9839C326.76 28.0746 326.26 28.1961 325.77 28.3477C325.452 27.7951 325.293 27.1342 325.293 26.3635C325.862 26.1796 326.489 26.0373 327.176 25.9368C327.863 25.8362 328.524 25.7859 329.161 25.7859C330.835 25.7859 332.107 26.1671 332.978 26.9289C333.848 27.6914 334.284 28.9093 334.284 30.5834V38.6457C333.698 38.7796 332.986 38.9177 332.149 39.0601C331.303 39.203 330.446 39.2744 329.588 39.2736C328.767 39.2736 328.026 39.1985 327.365 39.0478C326.703 38.8967 326.142 38.6545 325.682 38.3191C325.221 37.9845 324.866 37.5574 324.614 37.0385C324.363 36.5194 324.238 35.8916 324.238 35.1547C324.238 34.435 324.384 33.8027 324.677 33.2583C324.965 32.7204 325.374 32.2562 325.87 31.9021C326.373 31.5426 326.95 31.2743 327.603 31.0988C328.257 30.9229 328.943 30.8348 329.663 30.8348C330.199 30.8348 330.638 30.8477 330.981 30.8728C331.324 30.8977 331.613 30.9271 331.848 30.9606V30.4833L331.848 30.4832ZM339.483 36.8621C339.8 36.9792 340.128 37.0634 340.463 37.1133C340.798 37.1638 341.233 37.1888 341.769 37.1888C342.372 37.1888 342.924 37.0928 343.426 36.9002C343.929 36.708 344.36 36.4105 344.72 36.0085C345.08 35.6068 345.364 35.1006 345.574 34.4888C345.783 33.8781 345.888 33.1541 345.888 32.3165C345.888 30.9771 345.64 29.9139 345.147 29.1268C344.652 28.34 343.845 27.9464 342.723 27.9464C342.305 27.9464 341.902 28.0216 341.518 28.1726C341.132 28.3232 340.789 28.5493 340.488 28.8506C340.186 29.1519 339.944 29.5332 339.76 29.9935C339.575 30.4544 339.483 31.0023 339.483 31.6387V36.8625V36.8622L339.483 36.8621ZM336.997 26.0874C337.167 26.0538 337.339 26.0288 337.511 26.0122C337.691 25.9956 337.871 25.9872 338.052 25.9873C338.219 25.9873 338.394 25.9959 338.579 26.0122C338.763 26.0292 338.939 26.0545 339.106 26.0875C339.123 26.1216 339.144 26.2257 339.169 26.4016C339.194 26.5776 339.219 26.7658 339.244 26.9665C339.27 27.1676 339.295 27.3606 339.32 27.5443C339.345 27.7287 339.357 27.846 339.357 27.8961C339.525 27.6285 339.726 27.3687 339.96 27.1176C340.195 26.8663 340.475 26.6403 340.802 26.4396C341.128 26.2385 341.496 26.0796 341.907 25.9623C342.317 25.8451 342.773 25.7861 343.276 25.7861C344.029 25.7861 344.728 25.9118 345.373 26.1631C346.017 26.4146 346.569 26.8033 347.03 27.3309C347.49 27.8584 347.85 28.5282 348.11 29.3401C348.369 30.1528 348.499 31.1112 348.499 32.2161C348.499 34.4262 347.9 36.1554 346.703 37.4026C345.506 38.6502 343.811 39.2736 341.617 39.2736C341.249 39.2736 340.872 39.2485 340.487 39.1983C340.102 39.1478 339.767 39.0808 339.482 38.9974V44.8997C339.27 44.9342 339.057 44.9594 338.842 44.975C338.616 44.9914 338.411 44.9999 338.227 44.9999C338.021 44.9991 337.816 44.9908 337.611 44.975C337.405 44.9604 337.2 44.9353 336.996 44.8997V26.0875L336.997 26.0874Z" fill="#FF4A00"/>
</g>
<rect x="-23.0908" y="76" width="125.939" height="60" rx="10" fill="white"/>
<g clip-path="url(#clip3_722_953)">
<path d="M27.9171 98.6128H22.7361C22.3815 98.6128 22.08 98.8704 22.0247 99.2204L19.9293 112.506C19.8876 112.768 20.0906 113.004 20.3565 113.004H22.83C23.1846 113.004 23.4861 112.747 23.5414 112.396L24.1065 108.813C24.1611 108.462 24.4634 108.204 24.8171 108.204H26.4573C29.8702 108.204 31.8399 106.553 32.3543 103.28C32.5861 101.848 32.3641 100.723 31.6937 99.9355C30.9573 99.0704 29.6512 98.6128 27.9171 98.6128ZM28.5149 103.465C28.2315 105.324 26.8111 105.324 25.4376 105.324H24.6558L25.2043 101.852C25.2368 101.642 25.4187 101.488 25.6308 101.488H25.9891C26.9247 101.488 27.8073 101.488 28.2634 102.021C28.5353 102.339 28.6187 102.812 28.5149 103.465Z" fill="#253B80"/>
<path d="M43.4047 103.405H40.9237C40.7123 103.405 40.5297 103.56 40.4972 103.77L40.3873 104.464L40.2138 104.212C39.6767 103.432 38.479 103.172 37.2835 103.172C34.5419 103.172 32.2002 105.248 31.7441 108.161C31.507 109.614 31.8441 111.004 32.6684 111.973C33.4244 112.864 34.5063 113.235 35.7934 113.235C38.0025 113.235 39.2275 111.814 39.2275 111.814L39.1169 112.504C39.0752 112.767 39.2782 113.004 39.5426 113.004H41.7775C42.1328 113.004 42.4328 112.746 42.4888 112.395L43.8297 103.904C43.8722 103.642 43.6699 103.405 43.4047 103.405ZM39.9464 108.234C39.707 109.651 38.582 110.603 37.1472 110.603C36.4267 110.603 35.851 110.372 35.4813 109.934C35.1146 109.499 34.9752 108.88 35.0919 108.191C35.3154 106.786 36.4593 105.803 37.8722 105.803C38.5767 105.803 39.1494 106.037 39.5267 106.479C39.9047 106.925 40.0547 107.548 39.9464 108.234Z" fill="#253B80"/>
<path d="M56.6182 103.405H54.125C53.8871 103.405 53.6636 103.523 53.5288 103.721L50.0901 108.786L48.6326 103.919C48.5409 103.614 48.2598 103.405 47.9416 103.405H45.4916C45.1939 103.405 44.9871 103.696 45.0818 103.976L47.828 112.036L45.2462 115.68C45.0432 115.967 45.2477 116.362 45.5985 116.362H48.0886C48.325 116.362 48.5462 116.247 48.6803 116.053L56.9727 104.083C57.1712 103.797 56.9674 103.405 56.6182 103.405Z" fill="#253B80"/>
<path d="M64.8732 98.6128H59.6914C59.3376 98.6128 59.0361 98.8704 58.9808 99.2204L56.8853 112.506C56.8437 112.768 57.0467 113.004 57.3111 113.004H59.9702C60.2171 113.004 60.4285 112.824 60.4671 112.579L61.0618 108.813C61.1164 108.462 61.4187 108.204 61.7724 108.204H63.4118C66.8255 108.204 68.7944 106.553 69.3096 103.28C69.5421 101.848 69.3187 100.723 68.6482 99.9355C67.9126 99.0704 66.6073 98.6128 64.8732 98.6128ZM65.4709 103.465C65.1884 105.324 63.7679 105.324 62.3937 105.324H61.6126L62.1618 101.852C62.1944 101.642 62.3747 101.488 62.5876 101.488H62.9459C63.8808 101.488 64.7641 101.488 65.2202 102.021C65.4921 102.339 65.5747 102.812 65.4709 103.465Z" fill="#179BD7"/>
<path d="M80.3595 103.405H77.88C77.6671 103.405 77.486 103.56 77.4542 103.77L77.3444 104.464L77.1701 104.212C76.633 103.432 75.436 103.172 74.2406 103.172C71.4989 103.172 69.158 105.248 68.7019 108.161C68.4656 109.614 68.8012 111.004 69.6254 111.973C70.383 112.864 71.4633 113.235 72.7504 113.235C74.9595 113.235 76.1845 111.814 76.1845 111.814L76.0739 112.504C76.0322 112.767 76.2353 113.004 76.5012 113.004H78.7353C79.0891 113.004 79.3906 112.746 79.4459 112.395L80.7875 103.904C80.8285 103.642 80.6254 103.405 80.3595 103.405ZM76.9012 108.234C76.6633 109.651 75.5368 110.603 74.1019 110.603C73.383 110.603 72.8057 110.372 72.436 109.934C72.0694 109.499 71.9315 108.88 72.0466 108.191C72.2716 106.786 73.4141 105.803 74.8269 105.803C75.5315 105.803 76.1042 106.037 76.4815 106.479C76.861 106.925 77.011 107.548 76.9012 108.234Z" fill="#179BD7"/>
<path d="M83.2843 98.9775L81.1578 112.506C81.1161 112.768 81.3192 113.005 81.5835 113.005H83.7214C84.0767 113.005 84.3782 112.747 84.4328 112.396L86.5298 99.1115C86.5714 98.8494 86.3684 98.6123 86.104 98.6123H83.7101C83.4987 98.6131 83.3169 98.7676 83.2843 98.9775Z" fill="#179BD7"/>
<path d="M-1.58635 115.586L-1.19014 113.07L-2.07272 113.049H-6.28711L-3.35832 94.4789C-3.34923 94.4228 -3.31969 94.3706 -3.2765 94.3335C-3.23332 94.2963 -3.17802 94.2759 -3.12044 94.2759H3.98562C6.34471 94.2759 7.97274 94.7668 8.82274 95.7357C9.22122 96.1903 9.47501 96.6653 9.59774 97.188C9.72652 97.7365 9.7288 98.3918 9.60304 99.191L9.59395 99.2494V99.7615L9.99243 99.9872C10.328 100.165 10.5947 100.369 10.7993 100.602C11.1402 100.991 11.3606 101.485 11.4538 102.071C11.55 102.673 11.5182 103.39 11.3606 104.201C11.1788 105.134 10.8849 105.947 10.4879 106.612C10.1227 107.225 9.65758 107.733 9.10531 108.127C8.57804 108.502 7.95152 108.786 7.24319 108.968C6.55683 109.146 5.77425 109.236 4.91592 109.236H4.36289C3.96743 109.236 3.58334 109.379 3.28183 109.634C2.97956 109.895 2.77956 110.251 2.71819 110.64L2.67653 110.867L1.97653 115.302L1.94471 115.465C1.93637 115.517 1.92198 115.543 1.90077 115.56C1.88183 115.576 1.85456 115.586 1.82804 115.586H-1.58635Z" fill="#253B80"/>
<path d="M10.3701 99.3081C10.3489 99.4437 10.3247 99.5823 10.2974 99.7248C9.36028 104.536 6.15422 106.198 2.05952 106.198H-0.0253236C-0.526081 106.198 -0.948051 106.562 -1.02608 107.056L-2.09351 113.826L-2.39578 115.744C-2.44654 116.069 -2.19654 116.361 -1.86926 116.361H1.82846C2.26634 116.361 2.63831 116.043 2.70725 115.611L2.74362 115.423L3.43983 111.005L3.48452 110.763C3.55271 110.329 3.92543 110.011 4.36331 110.011H4.91634C8.49892 110.011 11.3035 108.557 12.1232 104.347C12.4656 102.589 12.2883 101.121 11.3823 100.088C11.108 99.777 10.7679 99.5187 10.3701 99.3081Z" fill="#179BD7"/>
<path d="M9.38954 98.9174C9.24636 98.8758 9.09863 98.8379 8.94712 98.8038C8.79484 98.7704 8.63878 98.7409 8.47818 98.7151C7.91606 98.6242 7.30015 98.5811 6.6403 98.5811H1.0706C0.933481 98.5811 0.803178 98.6121 0.686511 98.6682C0.429693 98.7917 0.238784 99.0348 0.192572 99.3326L-0.992276 106.837L-1.02637 107.056C-0.948337 106.562 -0.526367 106.198 -0.0256097 106.198H2.05924C6.15393 106.198 9.35999 104.536 10.2971 99.725C10.3251 99.5826 10.3486 99.4439 10.3698 99.3083C10.1327 99.1826 9.8759 99.075 9.59939 98.9833C9.53121 98.9606 9.46075 98.9386 9.38954 98.9174Z" fill="#222D65"/>
<path d="M0.192504 99.3326C0.238716 99.0348 0.429625 98.7917 0.686443 98.6689C0.803867 98.6129 0.933413 98.5818 1.07053 98.5818H6.64023C7.30008 98.5818 7.91599 98.625 8.47811 98.7159C8.63872 98.7417 8.79478 98.7712 8.94705 98.8045C9.09856 98.8386 9.24629 98.8765 9.38947 98.9182C9.46068 98.9394 9.53114 98.9614 9.60008 98.9833C9.87659 99.075 10.1334 99.1833 10.3705 99.3083C10.6493 97.5303 10.3683 96.3197 9.4069 95.2235C8.34705 94.0167 6.43417 93.5 3.98644 93.5H-3.11962C-3.61962 93.5 -4.04613 93.8636 -4.1234 94.3583L-7.08325 113.12C-7.14159 113.491 -6.85522 113.826 -6.48098 113.826H-2.09386L-0.992344 106.837L0.192504 99.3326Z" fill="#253B80"/>
</g>
<rect x="118.849" y="76" width="72.625" height="60" rx="10" fill="white"/>
<g clip-path="url(#clip4_722_953)">
<path d="M160.396 96.1621H149.507V115.726H160.396V96.1621Z" fill="#FF5A00"/>
<path d="M150.232 105.944C150.232 101.969 152.101 98.4412 154.968 96.1619C152.858 94.5027 150.196 93.5 147.292 93.5C140.414 93.5 134.849 99.0654 134.849 105.944C134.849 112.822 140.414 118.387 147.292 118.387C150.196 118.387 152.858 117.385 154.968 115.725C152.097 113.478 150.232 109.918 150.232 105.944Z" fill="#EB001B"/>
<path d="M175.087 105.944C175.087 112.822 169.522 118.387 162.643 118.387C159.74 118.387 157.078 117.385 154.968 115.725C157.871 113.442 159.704 109.918 159.704 105.944C159.704 101.969 157.835 98.4412 154.968 96.1619C157.074 94.5027 159.736 93.5 162.639 93.5C169.522 93.5 175.087 99.1016 175.087 105.944Z" fill="#F79E1B"/>
</g>
<rect x="207.474" y="76" width="93.5984" height="60" rx="10" fill="white"/>
<g clip-path="url(#clip5_722_953)">
<path d="M263.586 96.0308C259.217 96.0308 255.312 98.2955 255.312 102.48C255.312 107.278 262.237 107.61 262.237 110.02C262.237 111.035 261.074 111.944 259.087 111.944C256.268 111.944 254.16 110.674 254.16 110.674L253.259 114.897C253.259 114.897 255.686 115.969 258.909 115.969C263.686 115.969 267.445 113.593 267.445 109.337C267.445 104.267 260.491 103.945 260.491 101.708C260.491 100.913 261.446 100.042 263.427 100.042C265.663 100.042 267.486 100.965 267.486 100.965L268.369 96.8868C268.369 96.8868 266.384 96.0308 263.586 96.0308ZM223.611 96.3385L223.505 96.9541C223.505 96.9541 225.343 97.2905 226.999 97.9616C229.13 98.7311 229.282 99.1791 229.641 100.571L233.553 115.652H238.798L246.877 96.3385H241.645L236.453 109.47L234.335 98.3391C234.141 97.0652 233.157 96.3385 231.952 96.3385H223.611ZM248.981 96.3385L244.876 115.652H249.866L253.956 96.3385H248.981ZM276.809 96.3385C275.605 96.3385 274.968 96.9827 274.5 98.1083L267.19 115.652H272.423L273.435 112.728H279.809L280.425 115.652H285.042L281.014 96.3385H276.809ZM277.489 101.556L279.04 108.804H274.885L277.489 101.556Z" fill="#1434CB"/>
</g>
<rect x="317.072" y="76" width="94.9541" height="60" rx="10" fill="white"/>
<g clip-path="url(#clip6_722_953)">
<path d="M362.847 105.713V113.042H360.522V94.9441H366.688C367.424 94.9287 368.156 95.0592 368.841 95.3282C369.527 95.5971 370.152 95.999 370.681 96.5108C371.215 96.9916 371.641 97.5811 371.928 98.2399C372.216 98.8987 372.359 99.6114 372.349 100.33C372.364 101.053 372.223 101.77 371.935 102.433C371.647 103.096 371.219 103.689 370.681 104.171C369.603 105.199 368.272 105.713 366.688 105.712H362.847V105.713ZM362.847 97.1722V103.49H366.746C367.174 103.502 367.599 103.426 367.995 103.265C368.391 103.103 368.749 102.861 369.046 102.554C369.342 102.267 369.577 101.923 369.738 101.543C369.898 101.163 369.981 100.755 369.981 100.342C369.981 99.9301 369.898 99.522 369.738 99.1421C369.577 98.7623 369.342 98.4184 369.046 98.131C368.753 97.8171 368.396 97.5691 367.999 97.4036C367.603 97.238 367.176 97.1587 366.746 97.1707H362.847V97.1722Z" fill="#5F6368"/>
<path d="M377.706 100.255C379.425 100.255 380.781 100.714 381.775 101.632C382.77 102.551 383.267 103.81 383.266 105.41V113.042H381.042V111.323H380.941C379.978 112.738 378.698 113.446 377.1 113.446C375.736 113.446 374.594 113.042 373.676 112.233C373.235 111.862 372.883 111.397 372.645 110.872C372.406 110.348 372.288 109.777 372.298 109.2C372.298 107.919 372.783 106.9 373.751 106.144C374.72 105.387 376.012 105.008 377.63 105.006C379.01 105.006 380.147 105.258 381.04 105.764V105.232C381.043 104.84 380.958 104.451 380.792 104.095C380.626 103.739 380.383 103.425 380.08 103.175C379.465 102.62 378.664 102.317 377.836 102.327C376.538 102.327 375.51 102.875 374.753 103.97L372.706 102.681C373.832 101.064 375.499 100.255 377.706 100.255ZM374.698 109.251C374.697 109.547 374.766 109.839 374.9 110.103C375.034 110.366 375.229 110.594 375.47 110.767C375.984 111.172 376.622 111.386 377.276 111.374C378.257 111.372 379.197 110.982 379.891 110.288C380.661 109.563 381.046 108.712 381.046 107.736C380.321 107.159 379.311 106.87 378.014 106.87C377.069 106.87 376.282 107.098 375.651 107.553C375.015 108.015 374.698 108.577 374.698 109.251Z" fill="#5F6368"/>
<path d="M353.453 104.134C353.453 103.425 353.394 102.718 353.274 102.02H343.469V106.024H349.084C348.97 106.663 348.726 107.273 348.369 107.816C348.013 108.359 347.549 108.824 347.008 109.183V111.782H350.36C352.322 109.973 353.453 107.297 353.453 104.134Z" fill="#4285F4"/>
<path d="M343.469 114.294C346.275 114.294 348.637 113.372 350.36 111.784L347.008 109.185C346.075 109.817 344.874 110.178 343.469 110.178C340.757 110.178 338.455 108.35 337.632 105.887H334.18V108.565C335.045 110.287 336.372 111.735 338.012 112.746C339.653 113.758 341.542 114.294 343.469 114.294Z" fill="#34A853"/>
<path d="M337.632 105.887C337.197 104.596 337.197 103.198 337.632 101.907V99.2285H334.179C333.451 100.677 333.072 102.276 333.072 103.897C333.072 105.518 333.451 107.117 334.179 108.565L337.632 105.887Z" fill="#FBBC04"/>
<path d="M343.469 97.6156C344.952 97.5914 346.384 98.1516 347.457 99.1751L350.425 96.2077C348.543 94.4403 346.05 93.47 343.469 93.5002C341.542 93.5003 339.653 94.036 338.012 95.0475C336.372 96.0591 335.045 97.5066 334.18 99.2285L337.632 101.907C338.455 99.4437 340.757 97.6156 343.469 97.6156Z" fill="#EA4335"/>
</g>
<rect x="-25" y="152" width="92.8944" height="60" rx="10" fill="white"/>
<g clip-path="url(#clip7_722_953)">
<path d="M2.13212 172.723C1.41851 173.568 0.27674 174.234 -0.86503 174.138C-1.00775 172.997 -0.44876 171.784 0.205379 171.034C0.918985 170.166 2.1678 169.548 3.17874 169.5C3.29767 170.689 2.83383 171.855 2.13212 172.723ZM3.16684 174.364C1.51366 174.269 0.0983381 175.304 -0.686628 175.304C-1.48349 175.304 -2.68473 174.412 -3.993 174.436C-5.69377 174.46 -7.27559 175.423 -8.14381 176.957C-9.92783 180.026 -8.60766 184.569 -6.88311 187.067C-6.03867 188.304 -5.02773 189.659 -3.69567 189.612C-2.43496 189.564 -1.93544 188.791 -0.41308 188.791C1.12117 188.791 1.56123 189.612 2.8933 189.588C4.27293 189.564 5.14116 188.351 5.98559 187.114C6.94896 185.711 7.34144 184.343 7.36523 184.272C7.34144 184.248 4.7011 183.237 4.67731 180.192C4.65352 177.647 6.75866 176.434 6.85381 176.363C5.66447 174.602 3.80909 174.412 3.16684 174.364ZM12.7173 170.915V189.457H15.5955V183.118H19.5798C23.2192 183.118 25.7763 180.62 25.7763 177.005C25.7763 173.389 23.2668 170.915 19.6749 170.915H12.7173ZM15.5955 173.342H18.9138C21.4114 173.342 22.8386 174.674 22.8386 177.017C22.8386 179.36 21.4114 180.704 18.9019 180.704H15.5955V173.342ZM31.0332 189.6C32.841 189.6 34.5179 188.684 35.2791 187.233H35.3386V189.457H38.0027V180.228C38.0027 177.552 35.8619 175.827 32.5674 175.827C29.5108 175.827 27.2511 177.576 27.1678 179.978H29.7606C29.9746 178.836 31.0332 178.087 32.4842 178.087C34.2444 178.087 35.2315 178.908 35.2315 180.418V181.441L31.6397 181.655C28.2977 181.857 26.4899 183.225 26.4899 185.604C26.4899 188.006 28.3571 189.6 31.0332 189.6ZM31.8062 187.4C30.272 187.4 29.2967 186.662 29.2967 185.532C29.2967 184.367 30.2363 183.689 32.0322 183.582L35.2315 183.38V184.426C35.2315 186.163 33.7568 187.4 31.8062 187.4ZM41.5589 194.5C44.3657 194.5 45.6859 193.43 46.8395 190.183L51.8942 176.006H48.9685L45.5788 186.96H45.5194L42.1297 176.006H39.1207L43.997 189.505L43.7354 190.325C43.2953 191.717 42.5817 192.252 41.3091 192.252C41.0831 192.252 40.6431 192.228 40.4647 192.205V194.429C40.6312 194.476 41.3448 194.5 41.5589 194.5Z" fill="black"/>
</g>
<rect x="83.8945" y="152" width="162.316" height="60" rx="10" fill="white"/>
<g clip-path="url(#clip8_722_953)">
<path fill-rule="evenodd" clip-rule="evenodd" d="M151.316 189.056C146.5 192.61 139.519 194.5 133.506 194.5C125.08 194.5 117.492 191.385 111.75 186.2C111.3 185.793 111.701 185.237 112.243 185.552C118.438 189.157 126.1 191.329 134.012 191.329C139.35 191.329 145.217 190.22 150.616 187.93C151.431 187.585 152.114 188.467 151.316 189.056Z" fill="#F79C34"/>
<path fill-rule="evenodd" clip-rule="evenodd" d="M153.321 186.768C152.704 185.979 149.249 186.394 147.697 186.58C147.227 186.637 147.153 186.226 147.577 185.928C150.334 183.992 154.851 184.551 155.376 185.2C155.905 185.853 155.237 190.382 152.654 192.543C152.256 192.875 151.878 192.698 152.055 192.26C152.637 190.807 153.937 187.558 153.321 186.768Z" fill="#F79C34"/>
<path fill-rule="evenodd" clip-rule="evenodd" d="M147.806 172.249V170.368C147.807 170.082 148.023 169.891 148.283 169.892L156.715 169.891C156.985 169.891 157.202 170.087 157.202 170.366V171.979C157.199 172.25 156.971 172.603 156.567 173.163L152.199 179.4C153.82 179.362 155.535 179.605 157.008 180.433C157.341 180.62 157.43 180.896 157.456 181.167V183.175C157.456 183.452 157.153 183.771 156.834 183.605C154.239 182.245 150.795 182.097 147.925 183.621C147.632 183.778 147.325 183.462 147.325 183.185V181.277C147.325 180.972 147.331 180.449 147.639 179.984L152.699 172.724L148.293 172.723C148.024 172.723 147.807 172.531 147.806 172.249Z" fill="#333E47"/>
<path fill-rule="evenodd" clip-rule="evenodd" d="M117.047 184H114.482C114.237 183.985 114.042 183.802 114.022 183.567L114.025 170.4C114.025 170.137 114.246 169.927 114.52 169.927L116.909 169.926C117.159 169.939 117.359 170.128 117.375 170.368V172.087H117.424C118.046 170.424 119.219 169.648 120.8 169.648C122.404 169.648 123.41 170.424 124.129 172.087C124.751 170.424 126.164 169.648 127.672 169.648C128.75 169.648 129.923 170.092 130.642 171.09C131.456 172.198 131.289 173.805 131.289 175.218L131.286 183.527C131.286 183.789 131.065 184 130.792 184H128.23C127.971 183.984 127.769 183.78 127.769 183.528L127.768 176.548C127.768 175.994 127.816 174.609 127.696 174.082C127.505 173.195 126.93 172.946 126.188 172.946C125.565 172.946 124.919 173.361 124.655 174.026C124.391 174.692 124.416 175.799 124.416 176.548V183.527C124.416 183.789 124.194 184 123.921 184H121.359C121.101 183.984 120.898 183.78 120.898 183.528L120.895 176.548C120.895 175.079 121.135 172.919 119.315 172.919C117.471 172.919 117.543 175.024 117.543 176.548L117.542 183.527C117.542 183.789 117.32 184 117.047 184Z" fill="#333E47"/>
<path fill-rule="evenodd" clip-rule="evenodd" d="M164.484 172.336C162.593 172.336 162.473 174.912 162.473 176.52C162.473 178.127 162.449 181.563 164.461 181.563C166.449 181.563 166.545 178.792 166.545 177.102C166.545 175.994 166.496 174.663 166.161 173.611C165.874 172.696 165.298 172.336 164.484 172.336ZM164.461 169.648C168.268 169.648 170.328 172.919 170.328 177.075C170.328 181.091 168.053 184.278 164.461 184.278C160.725 184.278 158.689 181.008 158.689 176.936C158.689 172.835 160.748 169.648 164.461 169.648Z" fill="#333E47"/>
<path fill-rule="evenodd" clip-rule="evenodd" d="M175.266 184H172.709C172.453 183.984 172.25 183.78 172.25 183.528L172.245 170.356C172.267 170.115 172.48 169.927 172.738 169.927L175.118 169.926C175.342 169.938 175.527 170.09 175.574 170.294V172.308H175.622C176.341 170.507 177.346 169.648 179.118 169.648C180.267 169.648 181.393 170.064 182.111 171.2C182.782 172.253 182.782 174.026 182.782 175.301V183.586C182.754 183.82 182.544 184 182.29 184H179.719C179.481 183.986 179.29 183.811 179.262 183.586V176.438C179.262 174.996 179.43 172.89 177.657 172.89C177.035 172.89 176.46 173.306 176.173 173.943C175.813 174.747 175.765 175.55 175.765 176.438V183.527C175.761 183.789 175.539 184 175.266 184Z" fill="#333E47"/>
<path fill-rule="evenodd" clip-rule="evenodd" d="M143.67 183.968C143.501 184.12 143.256 184.13 143.064 184.027C142.212 183.319 142.06 182.992 141.594 182.318C140.186 183.752 139.188 184.183 137.364 184.183C135.205 184.183 133.524 182.849 133.524 180.184C133.524 178.101 134.653 176.685 136.26 175.991C137.652 175.38 139.596 175.269 141.084 175.103V174.77C141.084 174.158 141.132 173.437 140.772 172.909C140.46 172.437 139.86 172.242 139.332 172.242C138.353 172.242 137.484 172.744 137.27 173.783C137.225 174.014 137.057 174.243 136.825 174.255L134.338 173.986C134.128 173.938 133.895 173.769 133.955 173.449C134.52 170.474 137.176 169.547 139.59 169.522H139.781C141.016 169.537 142.595 169.876 143.556 170.798C144.804 171.965 144.683 173.52 144.683 175.214V179.21C144.683 180.413 145.183 180.94 145.652 181.588C145.817 181.822 145.853 182.098 145.644 182.27C145.12 182.709 144.189 183.517 143.677 183.974L143.67 183.968ZM141.084 177.713C141.084 178.713 141.108 179.545 140.604 180.434C140.196 181.156 139.548 181.6 138.828 181.6C137.845 181.6 137.269 180.851 137.269 179.74C137.269 177.554 139.228 177.157 141.084 177.157V177.713Z" fill="#333E47"/>
<path fill-rule="evenodd" clip-rule="evenodd" d="M110.041 183.968C109.871 184.12 109.626 184.13 109.434 184.027C108.582 183.319 108.429 182.992 107.964 182.318C106.555 183.752 105.559 184.183 103.734 184.183C101.575 184.183 99.8945 182.849 99.8945 180.184C99.8945 178.101 101.022 176.685 102.631 175.991C104.022 175.38 105.966 175.269 107.454 175.103V174.77C107.454 174.158 107.502 173.437 107.142 172.909C106.83 172.437 106.23 172.242 105.702 172.242C104.724 172.242 103.853 172.744 103.641 173.783C103.596 174.014 103.427 174.243 103.195 174.255L100.708 173.986C100.498 173.938 100.264 173.769 100.325 173.449C100.888 170.474 103.545 169.547 105.96 169.522H106.151C107.386 169.537 108.965 169.876 109.926 170.798C111.174 171.965 111.053 173.52 111.053 175.214V179.21C111.053 180.413 111.553 180.94 112.022 181.588C112.185 181.822 112.223 182.098 112.014 182.27C111.49 182.709 110.558 183.517 110.046 183.974L110.041 183.968ZM107.454 177.713C107.454 178.713 107.478 179.545 106.974 180.434C106.566 181.156 105.918 181.6 105.198 181.6C104.214 181.6 103.638 180.851 103.638 179.74C103.638 177.554 105.598 177.157 107.454 177.157V177.713Z" fill="#333E47"/>
<path fill-rule="evenodd" clip-rule="evenodd" d="M217.85 188.724C217.85 188.39 217.85 188.09 217.85 187.757C217.85 187.481 217.985 187.291 218.273 187.308C218.809 187.384 219.567 187.46 220.105 187.35C220.808 187.204 221.312 186.705 221.61 186.022C222.03 185.061 222.309 184.286 222.484 183.777L217.147 170.556C217.057 170.332 217.031 169.916 217.479 169.916H219.345C219.7 169.916 219.845 170.141 219.925 170.363L223.794 181.102L227.488 170.363C227.563 170.143 227.714 169.916 228.067 169.916H229.826C230.272 169.916 230.247 170.331 230.158 170.556L224.864 184.19C224.179 186.005 223.266 188.895 221.211 189.397C220.18 189.666 218.88 189.569 218.117 189.249C217.924 189.153 217.85 188.894 217.85 188.724Z" fill="#333E47"/>
<path fill-rule="evenodd" clip-rule="evenodd" d="M215.361 183.195C215.361 183.441 215.16 183.642 214.913 183.642H213.597C213.313 183.642 213.119 183.437 213.082 183.195L212.95 182.299C212.346 182.811 211.604 183.261 210.799 183.574C209.252 184.175 207.468 184.274 205.956 183.345C204.863 182.674 204.282 181.363 204.282 180.009C204.282 178.962 204.605 177.924 205.32 177.171C206.275 176.141 207.658 175.635 209.329 175.635C210.338 175.635 211.782 175.754 212.833 176.097V174.295C212.833 172.463 212.061 171.67 210.027 171.67C208.473 171.67 207.283 171.905 205.628 172.419C205.363 172.428 205.208 172.226 205.208 171.981V170.953C205.208 170.706 205.418 170.468 205.647 170.396C206.829 169.88 208.503 169.559 210.283 169.5C212.603 169.5 215.361 170.023 215.361 173.592V183.195ZM212.833 180.564V177.845C211.95 177.603 210.489 177.503 209.923 177.503C209.03 177.503 208.052 177.714 207.541 178.264C207.159 178.667 206.987 179.246 206.987 179.805C206.987 180.529 207.237 181.255 207.821 181.614C208.501 182.075 209.554 182.019 210.544 181.738C211.496 181.467 212.389 180.99 212.833 180.564Z" fill="#333E47"/>
<path fill-rule="evenodd" clip-rule="evenodd" d="M195.963 171.711C198.882 171.711 199.677 174.006 199.677 176.634C199.694 178.406 199.368 179.986 198.45 180.89C197.764 181.567 196.997 181.752 195.842 181.752C194.814 181.752 193.463 181.216 192.453 180.469V172.955C193.504 172.147 194.845 171.711 195.963 171.711ZM192.005 189.196H190.243C189.996 189.196 189.795 188.994 189.795 188.748C189.795 182.628 189.795 176.507 189.795 170.387C189.795 170.141 189.996 169.939 190.243 169.939H191.592C191.875 169.939 192.07 170.145 192.106 170.387L192.247 171.349C193.511 170.227 195.137 169.508 196.687 169.508C201.027 169.508 202.454 173.084 202.454 176.803C202.454 180.782 200.271 183.978 196.579 183.978C195.024 183.978 193.57 183.405 192.453 182.408V188.748C192.453 188.994 192.251 189.196 192.005 189.196Z" fill="#333E47"/>
</g>
<rect x="262.21" y="152" width="151.725" height="60" rx="10" fill="white"/>
<g clip-path="url(#clip9_722_953)">
<path d="M302.832 185.025C301.162 191.722 294.38 195.797 287.683 194.127C280.988 192.458 276.913 185.675 278.583 178.979C280.252 172.282 287.034 168.206 293.73 169.876C300.426 171.545 304.501 178.329 302.832 185.025Z" fill="#F7931A"/>
<path d="M296.218 180.221C296.467 178.557 295.201 177.663 293.469 177.067L294.031 174.814L292.659 174.472L292.112 176.665C291.752 176.576 291.382 176.491 291.014 176.407L291.564 174.199L290.194 173.857L289.632 176.109C289.333 176.041 289.04 175.974 288.756 175.903L288.757 175.896L286.866 175.424L286.501 176.889C286.501 176.889 287.519 177.122 287.497 177.137C288.053 177.275 288.153 177.643 288.136 177.934L287.496 180.501C287.535 180.511 287.584 180.525 287.639 180.547C287.593 180.535 287.544 180.523 287.494 180.511L286.597 184.106C286.529 184.275 286.357 184.528 285.969 184.432C285.982 184.452 284.972 184.183 284.972 184.183L284.291 185.753L286.076 186.198C286.408 186.281 286.733 186.368 287.053 186.45L286.486 188.729L287.856 189.071L288.418 186.816C288.792 186.918 289.155 187.012 289.511 187.1L288.951 189.344L290.322 189.686L290.89 187.411C293.228 187.854 294.987 187.675 295.727 185.56C296.324 183.857 295.697 182.875 294.467 182.234C295.363 182.028 296.038 181.438 296.218 180.221ZM293.085 184.615C292.661 186.318 289.793 185.397 288.864 185.166L289.617 182.147C290.546 182.379 293.528 182.838 293.085 184.615ZM293.509 180.196C293.122 181.745 290.735 180.958 289.961 180.765L290.644 178.027C291.418 178.22 293.912 178.58 293.509 180.196Z" fill="white"/>
<path d="M314.839 177.065C315.853 177.065 316.729 177.246 317.465 177.603C318.204 177.963 318.814 178.448 319.304 179.058C319.787 179.672 320.146 180.388 320.378 181.21C320.609 182.034 320.724 182.919 320.724 183.867C320.724 185.323 320.457 186.699 319.919 187.996C319.38 189.295 318.649 190.421 317.72 191.382C316.791 192.342 315.694 193.099 314.429 193.658C313.166 194.217 311.793 194.497 310.319 194.497C310.128 194.497 309.793 194.491 309.32 194.482C308.846 194.472 308.302 194.423 307.693 194.341C307.079 194.255 306.431 194.128 305.746 193.959C305.062 193.792 304.412 193.559 303.8 193.263L309.273 170.265L314.175 169.505L312.216 177.667C312.635 177.478 313.058 177.331 313.48 177.224C313.902 177.119 314.355 177.065 314.839 177.065ZM310.727 190.608C311.466 190.608 312.161 190.426 312.815 190.069C313.47 189.712 314.036 189.23 314.51 188.63C314.984 188.027 315.359 187.348 315.632 186.589C315.905 185.83 316.044 185.038 316.044 184.214C316.044 183.202 315.875 182.413 315.538 181.842C315.2 181.274 314.577 180.988 313.671 180.988C313.374 180.988 312.991 181.044 312.517 181.145C312.041 181.253 311.616 181.476 311.234 181.811L309.147 190.478C309.273 190.501 309.384 190.522 309.479 190.542C309.572 190.563 309.675 190.578 309.777 190.589C309.886 190.601 310.009 190.607 310.159 190.607C310.309 190.607 310.496 190.608 310.727 190.608Z" fill="#4D4D4D"/>
<path d="M325.808 194.057H321.126L325.08 177.417H329.795L325.808 194.057ZM328.087 175.39C327.433 175.39 326.841 175.196 326.315 174.806C325.785 174.418 325.522 173.822 325.522 173.018C325.522 172.576 325.612 172.161 325.79 171.769C325.971 171.379 326.208 171.042 326.504 170.757C326.799 170.473 327.142 170.246 327.531 170.076C327.922 169.908 328.339 169.824 328.783 169.824C329.436 169.824 330.025 170.018 330.553 170.408C331.079 170.8 331.343 171.396 331.343 172.196C331.343 172.64 331.254 173.056 331.074 173.447C330.895 173.837 330.659 174.174 330.363 174.46C330.07 174.744 329.724 174.969 329.336 175.138C328.944 175.309 328.529 175.39 328.087 175.39Z" fill="#4D4D4D"/>
<path d="M333.898 173.271L338.802 172.512L337.598 177.416H342.85L341.902 181.275H336.681L335.291 187.095C335.162 187.58 335.09 188.033 335.069 188.454C335.046 188.877 335.1 189.241 335.227 189.547C335.352 189.853 335.578 190.09 335.907 190.257C336.233 190.427 336.701 190.512 337.314 190.512C337.819 190.512 338.311 190.464 338.787 190.369C339.26 190.275 339.739 190.145 340.224 189.974L340.574 193.582C339.941 193.814 339.256 194.013 338.517 194.181C337.778 194.352 336.903 194.434 335.891 194.434C334.436 194.434 333.309 194.218 332.505 193.788C331.703 193.354 331.136 192.763 330.796 192.013C330.461 191.267 330.312 190.406 330.354 189.437C330.397 188.465 330.543 187.444 330.796 186.368L333.898 173.271Z" fill="#4D4D4D"/>
<path d="M342.644 187.412C342.644 185.979 342.876 184.627 343.339 183.362C343.802 182.096 344.469 180.988 345.334 180.038C346.196 179.092 347.247 178.343 348.483 177.793C349.713 177.246 351.091 176.97 352.609 176.97C353.56 176.97 354.409 177.06 355.155 177.24C355.905 177.422 356.584 177.657 357.198 177.951L355.583 181.623C355.161 181.452 354.723 181.301 354.27 181.164C353.817 181.025 353.264 180.958 352.61 180.958C351.047 180.958 349.811 181.496 348.892 182.57C347.976 183.645 347.515 185.091 347.515 186.906C347.515 187.981 347.747 188.851 348.212 189.516C348.675 190.181 349.531 190.512 350.774 190.512C351.387 190.512 351.979 190.448 352.546 190.323C353.117 190.196 353.621 190.037 354.065 189.849L354.415 193.613C353.823 193.842 353.17 194.05 352.453 194.231C351.735 194.407 350.881 194.498 349.89 194.498C348.581 194.498 347.474 194.306 346.568 193.929C345.662 193.547 344.913 193.038 344.323 192.395C343.73 191.749 343.304 190.996 343.041 190.131C342.778 189.267 342.644 188.359 342.644 187.412Z" fill="#4D4D4D"/>
<path d="M363.444 194.498C362.326 194.498 361.356 194.327 360.532 193.99C359.711 193.653 359.031 193.18 358.493 192.567C357.954 191.957 357.551 191.234 357.275 190.4C356.999 189.568 356.866 188.645 356.866 187.635C356.866 186.367 357.07 185.1 357.481 183.837C357.89 182.57 358.498 181.432 359.302 180.421C360.099 179.408 361.083 178.58 362.242 177.934C363.399 177.293 364.731 176.97 366.226 176.97C367.323 176.97 368.289 177.141 369.123 177.478C369.954 177.814 370.639 178.291 371.18 178.901C371.715 179.515 372.121 180.235 372.395 181.069C372.67 181.9 372.806 182.825 372.806 183.836C372.806 185.1 372.605 186.367 372.207 187.634C371.808 188.896 371.216 190.036 370.435 191.05C369.655 192.061 368.68 192.889 367.509 193.532C366.34 194.175 364.984 194.498 363.444 194.498ZM365.784 180.958C365.09 180.958 364.476 181.16 363.951 181.558C363.424 181.96 362.981 182.467 362.624 183.077C362.263 183.69 361.995 184.359 361.814 185.086C361.635 185.815 361.547 186.503 361.547 187.158C361.547 188.213 361.717 189.036 362.052 189.627C362.392 190.216 363.001 190.512 363.888 190.512C364.584 190.512 365.195 190.312 365.723 189.91C366.247 189.51 366.691 189.004 367.05 188.392C367.409 187.782 367.679 187.111 367.86 186.383C368.037 185.657 368.127 184.964 368.127 184.311C368.127 183.258 367.957 182.434 367.62 181.843C367.282 181.254 366.67 180.958 365.784 180.958Z" fill="#4D4D4D"/>
<path d="M377.909 194.057H373.223L377.177 177.417H381.894L377.909 194.057ZM380.184 175.39C379.531 175.39 378.939 175.196 378.414 174.806C377.886 174.418 377.621 173.822 377.621 173.018C377.621 172.576 377.712 172.161 377.891 171.769C378.069 171.379 378.307 171.042 378.603 170.757C378.898 170.473 379.243 170.246 379.632 170.076C380.021 169.908 380.437 169.824 380.879 169.824C381.534 169.824 382.125 170.018 382.652 170.408C383.179 170.8 383.445 171.396 383.445 172.196C383.445 172.64 383.35 173.056 383.173 173.447C382.996 173.837 382.758 174.174 382.464 174.46C382.167 174.744 381.825 174.969 381.436 175.138C381.044 175.309 380.628 175.39 380.184 175.39Z" fill="#4D4D4D"/>
</g>
<defs>
<clipPath id="clip0_722_953">
<rect width="99.3974" height="25" fill="white" transform="translate(11.1484 17.5)"/>
</clipPath>
<clipPath id="clip1_722_953">
<rect width="105.738" height="30" fill="white" transform="translate(158.546 15)"/>
</clipPath>
<clipPath id="clip2_722_953">
<rect width="65.5022" height="30" fill="white" transform="translate(312.283 15)"/>
</clipPath>
<clipPath id="clip3_722_953">
<rect width="93.9394" height="25" fill="white" transform="translate(-7.09082 93.5)"/>
</clipPath>
<clipPath id="clip4_722_953">
<rect width="40.625" height="25" fill="white" transform="translate(134.849 93.5)"/>
</clipPath>
<clipPath id="clip5_722_953">
<rect width="61.5984" height="20" fill="white" transform="translate(223.474 96)"/>
</clipPath>
<clipPath id="clip6_722_953">
<rect width="62.9541" height="25" fill="white" transform="translate(333.072 93.5)"/>
</clipPath>
<clipPath id="clip7_722_953">
<rect width="60.8944" height="25" fill="white" transform="translate(-9 169.5)"/>
</clipPath>
<clipPath id="clip8_722_953">
<rect width="130.316" height="25" fill="white" transform="translate(99.8945 169.5)"/>
</clipPath>
<clipPath id="clip9_722_953">
<rect width="119.725" height="25" fill="white" transform="translate(278.21 169.5)"/>
</clipPath>
</defs>
</svg>
