<svg xmlns="http://www.w3.org/2000/svg" width="332" height="219" fill="none"><rect width="160" height="160" fill="#E8F2EE" rx="16"/><path fill="#CCD6DD" d="M108.444 99.726c-.741-1.712-1.592-3.57-3.555-3.57h-1.778a3.563 3.563 0 0 0 3.556-3.57v-30.35a3.565 3.565 0 0 0-3.556-3.57H56.889a3.563 3.563 0 0 0-3.556 3.57v30.35a3.563 3.563 0 0 0 3.556 3.57H55.11c-1.963 0-2.963 1.785-3.555 3.57L48 108.428A3.564 3.564 0 0 0 51.556 112h56.888a3.563 3.563 0 0 0 3.556-3.57l-3.556-8.704Z"/><path fill="#9AAAB4" d="m48.015 108.578.01.101.303 1.23A3.552 3.552 0 0 0 51.556 112h56.889a3.555 3.555 0 0 0 3.541-3.422H48.015Z"/><path fill="#5DADEC" d="M103.111 90.8a1.78 1.78 0 0 1-1.778 1.785H58.666A1.781 1.781 0 0 1 56.89 90.8V64.023c0-.986.796-1.785 1.777-1.785h42.667c.983 0 1.778.8 1.778 1.785V90.8Z"/><path fill="#AEBBC1" d="m106.5 103.186-1.351-3.867c-.425-.818-1.129-1.488-2.112-1.488H57.085c-.982 0-1.611.725-2.056 1.842l-1.223 3.514c-.389 1.06.797 1.785 1.778 1.785h13.472s1.666-.083 1.961-1.081c.341-1.152.738-2.887.823-3.192.132-.47.69-.944 1.522-.944h15.25c.889 0 1.326.449 1.442 1.006.074.362.554 2.028.778 3.168.198 1.015 2.17 1.042 2.17 1.042h11.724c.979 0 2.163-.838 1.774-1.785Z"/><path fill="#9AAAB4" d="M87.778 106.868H73.945c-.667 0-.957-.61-.86-1.2.095-.589.638-3.188.68-3.49.041-.304.487-.667.932-.667h12.47c.529 0 .872.29.979.87.105.581.537 2.917.57 3.45.034.535-.3 1.037-.938 1.037Z"/><path fill="#1A191E" d="M1.278 187v-12.6h1.908l6.318 9.486V174.4h1.908V187H9.504l-6.318-9.486V187H1.278Zm16.255.216c-.876 0-1.656-.192-2.34-.576a4.242 4.242 0 0 1-1.584-1.638c-.384-.696-.576-1.506-.576-2.43 0-.936.186-1.758.558-2.466a4.21 4.21 0 0 1 1.584-1.656c.684-.396 1.476-.594 2.376-.594.876 0 1.638.198 2.286.594a4.07 4.07 0 0 1 1.512 1.548c.36.648.54 1.362.54 2.142 0 .12-.006.252-.018.396 0 .132-.006.282-.018.45h-6.948c.06.864.342 1.524.846 1.98.516.444 1.11.666 1.782.666.54 0 .99-.12 1.35-.36.372-.252.648-.588.828-1.008h1.908c-.24.84-.72 1.542-1.44 2.106-.708.564-1.59.846-2.646.846Zm0-7.794c-.636 0-1.2.192-1.692.576-.492.372-.792.936-.9 1.692h5.04c-.036-.696-.282-1.248-.738-1.656-.456-.408-1.026-.612-1.71-.612ZM24.76 187l-2.628-8.928h1.908l1.728 6.732 1.944-6.732h2.124l1.944 6.732 1.728-6.732h1.908L32.788 187h-1.962l-2.052-7.02-2.052 7.02H24.76Zm15.754 0v-12.6h1.908v11.088h5.725V187h-7.633Zm12.098.216c-.756 0-1.38-.126-1.872-.378-.492-.252-.858-.582-1.098-.99a2.71 2.71 0 0 1-.36-1.368c0-.864.336-1.548 1.008-2.052.672-.504 1.632-.756 2.88-.756h2.34v-.162c0-.696-.192-1.218-.576-1.566-.372-.348-.858-.522-1.458-.522-.528 0-.99.132-1.386.396-.384.252-.618.63-.702 1.134H49.48c.06-.648.276-1.2.648-1.656a3.643 3.643 0 0 1 1.44-1.062 4.838 4.838 0 0 1 1.926-.378c1.248 0 2.214.33 2.898.99.684.648 1.026 1.536 1.026 2.664V187h-1.656l-.162-1.53a3.392 3.392 0 0 1-1.098 1.242c-.48.336-1.11.504-1.89.504Zm.378-1.548c.516 0 .948-.12 1.296-.36.36-.252.636-.582.828-.99a3.82 3.82 0 0 0 .378-1.35h-2.124c-.756 0-1.296.132-1.62.396a1.244 1.244 0 0 0-.468.99c0 .408.15.732.45.972.312.228.732.342 1.26.342Zm6.113 5.292v-12.888h1.71l.198 1.386c.288-.42.684-.792 1.188-1.116.504-.324 1.152-.486 1.944-.486.864 0 1.626.204 2.286.612.66.408 1.176.966 1.548 1.674.384.708.576 1.512.576 2.412 0 .9-.192 1.704-.576 2.412a4.284 4.284 0 0 1-1.548 1.656c-.66.396-1.428.594-2.304.594-.696 0-1.314-.138-1.854-.414a3.197 3.197 0 0 1-1.26-1.17v5.328h-1.908Zm4.698-5.4c.816 0 1.488-.276 2.016-.828.528-.564.792-1.296.792-2.196 0-.588-.12-1.11-.36-1.566-.24-.456-.57-.81-.99-1.062-.42-.264-.906-.396-1.458-.396-.816 0-1.488.282-2.016.846-.516.564-.774 1.29-.774 2.178 0 .9.258 1.632.774 2.196.528.552 1.2.828 2.016.828Zm9.668 1.44c-.876 0-1.572-.21-2.088-.63-.516-.432-.774-1.194-.774-2.286v-4.41h-1.53v-1.602h1.53l.234-2.268h1.674v2.268h2.52v1.602h-2.52v4.41c0 .492.102.834.306 1.026.216.18.582.27 1.098.27h1.026V187h-1.476Zm6.94.216c-.851 0-1.62-.192-2.303-.576a4.375 4.375 0 0 1-1.602-1.638c-.396-.708-.594-1.53-.594-2.466 0-.936.198-1.752.594-2.448a4.295 4.295 0 0 1 1.638-1.638 4.48 4.48 0 0 1 2.286-.594c.852 0 1.614.198 2.286.594a4.17 4.17 0 0 1 1.62 1.638c.408.696.612 1.512.612 2.448 0 .936-.204 1.758-.612 2.466a4.333 4.333 0 0 1-1.62 1.638c-.684.384-1.452.576-2.304.576Zm0-1.638c.457 0 .877-.114 1.26-.342a2.5 2.5 0 0 0 .955-1.008c.24-.456.36-1.02.36-1.692 0-.672-.12-1.23-.36-1.674-.228-.456-.54-.798-.936-1.026a2.423 2.423 0 0 0-1.26-.342c-.456 0-.882.114-1.278.342-.384.228-.696.57-.936 1.026-.24.444-.36 1.002-.36 1.674 0 .672.12 1.236.36 1.692.24.444.552.78.936 1.008.384.228.804.342 1.26.342Zm6.06 5.382v-12.888h1.71l.198 1.386c.288-.42.684-.792 1.188-1.116.504-.324 1.152-.486 1.944-.486.864 0 1.626.204 2.286.612.66.408 1.176.966 1.548 1.674.384.708.576 1.512.576 2.412 0 .9-.192 1.704-.576 2.412a4.284 4.284 0 0 1-1.548 1.656c-.66.396-1.428.594-2.304.594-.696 0-1.314-.138-1.854-.414a3.197 3.197 0 0 1-1.26-1.17v5.328h-1.908Zm4.698-5.4c.816 0 1.488-.276 2.016-.828.528-.564.792-1.296.792-2.196 0-.588-.12-1.11-.36-1.566-.24-.456-.57-.81-.99-1.062-.42-.264-.906-.396-1.458-.396-.816 0-1.488.282-2.016.846-.516.564-.774 1.29-.774 2.178 0 .9.258 1.632.774 2.196.528.552 1.2.828 2.016.828Z"/><path fill="#1A191E" fill-opacity=".5" d="M.766 211.011v-1.243l4.4-6.95h.979v1.83h-.622l-3.147 4.981v.08h6.031v1.302H.766ZM5.593 213v-2.366l.01-.567v-7.249H7.06V213H5.593Zm8.091.169c-.785-.003-1.456-.21-2.013-.621-.557-.411-.983-1.01-1.278-1.795-.295-.786-.442-1.732-.442-2.839 0-1.104.147-2.047.442-2.829.298-.782.726-1.379 1.283-1.79.56-.411 1.23-.616 2.008-.616.78 0 1.447.207 2.004.621.557.411.983 1.008 1.278 1.79.298.779.447 1.72.447 2.824 0 1.11-.148 2.058-.442 2.844-.296.782-.721 1.38-1.278 1.795-.557.411-1.226.616-2.009.616Zm0-1.327c.69 0 1.228-.337 1.616-1.01.391-.672.587-1.645.587-2.918 0-.845-.09-1.559-.269-2.143-.175-.586-.429-1.03-.76-1.332a1.664 1.664 0 0 0-1.174-.457c-.686 0-1.224.338-1.615 1.014-.392.676-.589 1.649-.592 2.918 0 .849.088 1.566.263 2.153.18.583.433 1.026.761 1.327a1.7 1.7 0 0 0 1.183.448Zm9.037 1.327c-.785-.003-1.456-.21-2.013-.621-.557-.411-.983-1.01-1.278-1.795-.295-.786-.442-1.732-.442-2.839 0-1.104.147-2.047.442-2.829.299-.782.726-1.379 1.283-1.79.56-.411 1.23-.616 2.008-.616.78 0 1.447.207 2.004.621.557.411.983 1.008 1.278 1.79.298.779.447 1.72.447 2.824 0 1.11-.147 2.058-.442 2.844-.295.782-.721 1.38-1.278 1.795-.557.411-1.226.616-2.009.616Zm0-1.327c.69 0 1.228-.337 1.616-1.01.391-.672.587-1.645.587-2.918 0-.845-.09-1.559-.269-2.143-.175-.586-.429-1.03-.76-1.332a1.664 1.664 0 0 0-1.174-.457c-.686 0-1.224.338-1.615 1.014-.392.676-.589 1.649-.592 2.918 0 .849.088 1.566.264 2.153.178.583.432 1.026.76 1.327a1.7 1.7 0 0 0 1.183.448Zm8.635 2.431v-12.728h.815v12.728h-.815Zm2.55-8.78a1.453 1.453 0 0 0-.656-1.094c-.385-.262-.868-.393-1.452-.393-.417 0-.779.067-1.083.199-.305.13-.542.308-.711.537a1.268 1.268 0 0 0-.249.771c0 .242.056.451.169.626.116.176.267.323.452.443.19.116.391.213.607.293.215.076.422.139.621.189l.995.258c.325.08.658.188.999.324.341.135.658.314.95.537.291.222.527.497.706.825.182.328.273.721.273 1.178 0 .577-.15 1.089-.447 1.536-.295.448-.725.801-1.288 1.059-.56.259-1.238.388-2.034.388-.762 0-1.421-.121-1.978-.363-.557-.242-.993-.585-1.308-1.029-.315-.447-.489-.978-.522-1.591h1.541c.03.368.15.675.358.92.213.242.483.422.81.542.332.116.695.174 1.09.174.434 0 .82-.068 1.158-.204.341-.139.61-.332.805-.577.196-.248.294-.538.294-.87 0-.301-.087-.548-.259-.741-.169-.192-.4-.351-.69-.477a6.73 6.73 0 0 0-.98-.333l-1.203-.328c-.816-.222-1.462-.549-1.94-.98-.473-.43-.71-1-.71-1.71 0-.586.159-1.098.477-1.536a3.138 3.138 0 0 1 1.293-1.019c.543-.245 1.156-.368 1.84-.368.689 0 1.297.121 1.824.363.53.242.948.575 1.252.999.305.421.465.905.478 1.452h-1.482Z"/><rect width="160" height="160" x="184" fill="#F1DFDF" rx="16"/><g clip-path="url(#a)"><path fill="#EA596E" d="M242 92c3.914 0 7.266 2.27 8.91 5.544l6.954-3.478C254.976 88.116 248.892 84 241.832 84c-2.517 0-5.005.537-7.298 1.574l3.336 7.34A9.942 9.942 0 0 1 242 92Zm44 0c2.934 0 5.544 1.286 7.376 3.296l5.794-5.27A17.77 17.77 0 0 0 285.832 84c-7.152 0-13.304 4.222-16.146 10.3l7.296 3.444C278.586 94.36 282.006 92 286 92Z"/><path fill="#292F33" d="M242 88a14.001 14.001 0 0 0-12.934 19.358 13.978 13.978 0 0 0 3.035 4.541 13.994 13.994 0 0 0 19.798 0 13.996 13.996 0 0 0 0-19.799A13.998 13.998 0 0 0 242 88Zm0 24a10.001 10.001 0 1 1 .001-20.002A10.001 10.001 0 0 1 242 112Zm44-24a14.003 14.003 0 0 0-14 14.002A14.001 14.001 0 1 0 286 88Zm0 24a10.001 10.001 0 1 1 .001-20.002A10.001 10.001 0 0 1 286 112Z"/><path fill="#DD2E44" d="M287.968 101.844a1.987 1.987 0 0 0-.08-.396 2.067 2.067 0 0 0-.142-.372c-.026-.048-.03-.104-.058-.15l-14-22a2.002 2.002 0 0 0-2.762-.614 1.96 1.96 0 0 0-.89 1.686H252a2 2 0 0 0 0 4h20c.054 0 .1-.028.154-.032L282.356 100H264a2 2 0 0 0 0 4h22.002a2.01 2.01 0 0 0 .88-.224c.062-.034.132-.048.194-.088.06-.04.096-.102.15-.144.207-.161.378-.363.502-.594.06-.112.11-.22.15-.344.041-.131.067-.266.08-.402.008-.072.042-.132.042-.204 0-.054-.028-.102-.032-.156Z"/><path fill="#DD2E44" d="m271.162 76-5.798 16.234-11.858-13.55a2 2 0 1 0-3.01 2.634l13.328 15.23-1.708 4.78a2.002 2.002 0 0 0 1.212 2.556 1.998 1.998 0 0 0 2.556-1.212L275.41 76h-4.248Z"/><path fill="#DD2E44" d="M242 104a1.995 1.995 0 0 1-1.699-.95 1.99 1.99 0 0 1-.087-1.944l6.124-12.212C246.372 88.838 250 83.302 250 78c0-6.484-4.586-8.086-4.632-8.102a2.006 2.006 0 0 1-1.387-1.758 2.008 2.008 0 0 1 1.113-1.942 1.994 1.994 0 0 1 1.54-.094c.3.1 7.366 2.562 7.366 11.896 0 6.136-3.672 12.084-4.262 12.994l-5.948 11.898A1.999 1.999 0 0 1 242 104Z"/><path fill="#292F33" d="M257.224 71.326a1.86 1.86 0 0 1-.33-.028l-12-2a2 2 0 1 1 .658-3.946l12 2a2 2 0 0 1-.328 3.974ZM280.766 78c-.06 0-.119-.004-.178-.012l-11.344-1.416a1.419 1.419 0 0 1-1.296-1.498 1.416 1.416 0 0 1 1.47-1.328c.082 0 8.134-.036 11.978-2.598a1.425 1.425 0 0 1 1.648.052 1.42 1.42 0 0 1 .482 1.576l-1.418 4.254a1.412 1.412 0 0 1-1.342.97Z"/><path fill="#66757F" d="M268 102a3.995 3.995 0 0 1-1.172 2.828 3.995 3.995 0 0 1-5.656 0 3.995 3.995 0 0 1 0-5.656A3.998 3.998 0 0 1 268 102Z"/></g><path fill="#1A191E" d="M185.278 187v-12.6h4.086c1.476 0 2.688.258 3.636.774.96.516 1.668 1.248 2.124 2.196.468.936.702 2.052.702 3.348 0 1.284-.234 2.4-.702 3.348-.456.936-1.164 1.662-2.124 2.178-.948.504-2.16.756-3.636.756h-4.086Zm1.908-1.62h2.106c1.14 0 2.04-.186 2.7-.558a3.174 3.174 0 0 0 1.44-1.602c.3-.696.45-1.53.45-2.502 0-.972-.15-1.812-.45-2.52a3.165 3.165 0 0 0-1.44-1.62c-.66-.384-1.56-.576-2.7-.576h-2.106v9.378Zm10.136 1.62v-8.928h1.71l.162 1.692a3.52 3.52 0 0 1 1.296-1.386c.564-.348 1.242-.522 2.034-.522v1.998h-.522c-.528 0-1.002.09-1.422.27-.408.168-.738.462-.99.882-.24.408-.36.978-.36 1.71V187h-1.908Zm10.228.216c-.876 0-1.656-.192-2.34-.576a4.242 4.242 0 0 1-1.584-1.638c-.384-.696-.576-1.506-.576-2.43 0-.936.186-1.758.558-2.466a4.21 4.21 0 0 1 1.584-1.656c.684-.396 1.476-.594 2.376-.594.876 0 1.638.198 2.286.594a4.07 4.07 0 0 1 1.512 1.548c.36.648.54 1.362.54 2.142 0 .12-.006.252-.018.396 0 .132-.006.282-.018.45h-6.948c.06.864.342 1.524.846 1.98.516.444 1.11.666 1.782.666.54 0 .99-.12 1.35-.36.372-.252.648-.588.828-1.008h1.908c-.24.84-.72 1.542-1.44 2.106-.708.564-1.59.846-2.646.846Zm0-7.794c-.636 0-1.2.192-1.692.576-.492.372-.792.936-.9 1.692h5.04c-.036-.696-.282-1.248-.738-1.656-.456-.408-1.026-.612-1.71-.612Zm8.82 7.794c-.756 0-1.38-.126-1.872-.378-.492-.252-.858-.582-1.098-.99a2.71 2.71 0 0 1-.36-1.368c0-.864.336-1.548 1.008-2.052.672-.504 1.632-.756 2.88-.756h2.34v-.162c0-.696-.192-1.218-.576-1.566-.372-.348-.858-.522-1.458-.522-.528 0-.99.132-1.386.396-.384.252-.618.63-.702 1.134h-1.908c.06-.648.276-1.2.648-1.656a3.643 3.643 0 0 1 1.44-1.062 4.838 4.838 0 0 1 1.926-.378c1.248 0 2.214.33 2.898.99.684.648 1.026 1.536 1.026 2.664V187h-1.656l-.162-1.53a3.392 3.392 0 0 1-1.098 1.242c-.48.336-1.11.504-1.89.504Zm.378-1.548c.516 0 .948-.12 1.296-.36.36-.252.636-.582.828-.99a3.82 3.82 0 0 0 .378-1.35h-2.124c-.756 0-1.296.132-1.62.396a1.244 1.244 0 0 0-.468.99c0 .408.15.732.45.972.312.228.732.342 1.26.342ZM222.86 187v-8.928h1.692l.162 1.26a3.155 3.155 0 0 1 1.134-1.08c.48-.264 1.032-.396 1.656-.396 1.416 0 2.4.558 2.952 1.674a3.526 3.526 0 0 1 1.296-1.224c.552-.3 1.146-.45 1.782-.45 1.116 0 1.992.336 2.628 1.008.636.672.954 1.674.954 3.006V187h-1.908v-4.932c0-1.728-.66-2.592-1.98-2.592-.672 0-1.224.252-1.656.756-.42.504-.63 1.224-.63 2.16V187h-1.908v-4.932c0-1.728-.666-2.592-1.998-2.592-.66 0-1.206.252-1.638.756-.42.504-.63 1.224-.63 2.16V187h-1.908Zm24.966.216c-.696 0-1.314-.138-1.854-.414a3.197 3.197 0 0 1-1.26-1.17l-.198 1.368h-1.71v-12.96h1.908v5.418c.288-.42.684-.792 1.188-1.116.504-.324 1.152-.486 1.944-.486.864 0 1.626.204 2.286.612.66.408 1.176.966 1.548 1.674.384.708.576 1.512.576 2.412 0 .9-.192 1.704-.576 2.412a4.284 4.284 0 0 1-1.548 1.656c-.66.396-1.428.594-2.304.594Zm-.324-1.656c.816 0 1.488-.276 2.016-.828.528-.564.792-1.296.792-2.196 0-.588-.12-1.11-.36-1.566-.24-.456-.57-.81-.99-1.062-.42-.264-.906-.396-1.458-.396-.816 0-1.488.282-2.016.846-.516.564-.774 1.29-.774 2.178 0 .9.258 1.632.774 2.196.528.552 1.2.828 2.016.828Zm7.356-9.18c-.36 0-.66-.108-.9-.324a1.15 1.15 0 0 1-.342-.846c0-.336.114-.612.342-.828.24-.228.54-.342.9-.342s.654.114.882.342c.24.216.36.492.36.828 0 .336-.12.618-.36.846-.228.216-.522.324-.882.324Zm-.954 10.62v-8.928h1.908V187h-1.908Zm3.886 0v-12.96h1.908v7.722l3.42-3.69h2.286l-3.798 4.05 4.356 4.878h-2.412l-3.852-4.572V187h-1.908Zm12.601.216c-.876 0-1.656-.192-2.34-.576a4.242 4.242 0 0 1-1.584-1.638c-.384-.696-.576-1.506-.576-2.43 0-.936.186-1.758.558-2.466a4.21 4.21 0 0 1 1.584-1.656c.684-.396 1.476-.594 2.376-.594.876 0 1.638.198 2.286.594a4.07 4.07 0 0 1 1.512 1.548c.36.648.54 1.362.54 2.142 0 .12-.006.252-.018.396 0 .132-.006.282-.018.45h-6.948c.06.864.342 1.524.846 1.98.516.444 1.11.666 1.782.666.54 0 .99-.12 1.35-.36.372-.252.648-.588.828-1.008h1.908c-.24.84-.72 1.542-1.44 2.106-.708.564-1.59.846-2.646.846Zm0-7.794c-.636 0-1.2.192-1.692.576-.492.372-.792.936-.9 1.692h5.04c-.036-.696-.282-1.248-.738-1.656-.456-.408-1.026-.612-1.71-.612Z"/><path fill="#1A191E" fill-opacity=".5" d="M184.979 213v-1.114l3.446-3.569c.368-.388.671-.728.91-1.019.241-.295.422-.575.541-.841.12-.265.179-.546.179-.845 0-.338-.079-.63-.238-.875a1.563 1.563 0 0 0-.652-.572 2.081 2.081 0 0 0-.929-.203c-.365 0-.683.074-.955.223-.272.15-.48.36-.626.632-.146.272-.219.59-.219.954h-1.467c0-.619.143-1.161.428-1.625a2.903 2.903 0 0 1 1.173-1.079c.497-.259 1.063-.388 1.696-.388.639 0 1.203.128 1.69.383.49.252.873.596 1.148 1.034.275.434.413.925.413 1.471 0 .378-.071.748-.214 1.109-.139.361-.383.764-.731 1.208-.348.441-.831.976-1.451 1.606l-2.024 2.118v.075h4.584V213h-6.702Zm12.131.169c-.785-.003-1.457-.21-2.013-.621-.557-.411-.983-1.01-1.278-1.795-.295-.786-.443-1.732-.443-2.839 0-1.104.148-2.047.443-2.829.298-.782.726-1.379 1.283-1.79.56-.411 1.229-.616 2.008-.616.779 0 1.447.207 2.004.621.556.411.982 1.008 1.277 1.79.299.779.448 1.72.448 2.824 0 1.11-.148 2.058-.443 2.844-.295.782-.721 1.38-1.277 1.795-.557.411-1.227.616-2.009.616Zm0-1.327c.689 0 1.228-.337 1.616-1.01.391-.672.586-1.645.586-2.918 0-.845-.089-1.559-.268-2.143-.176-.586-.429-1.03-.761-1.332a1.663 1.663 0 0 0-1.173-.457c-.686 0-1.225.338-1.616 1.014-.391.676-.588 1.649-.591 2.918 0 .849.088 1.566.263 2.153.179.583.433 1.026.761 1.327.328.298.722.448 1.183.448Zm9.037 1.327c-.785-.003-1.456-.21-2.013-.621-.557-.411-.983-1.01-1.278-1.795-.295-.786-.442-1.732-.442-2.839 0-1.104.147-2.047.442-2.829.298-.782.726-1.379 1.283-1.79.56-.411 1.229-.616 2.008-.616.779 0 1.447.207 2.004.621.557.411.982 1.008 1.277 1.79.299.779.448 1.72.448 2.824 0 1.11-.148 2.058-.443 2.844-.295.782-.72 1.38-1.277 1.795-.557.411-1.227.616-2.009.616Zm0-1.327c.69 0 1.228-.337 1.616-1.01.391-.672.587-1.645.587-2.918 0-.845-.09-1.559-.269-2.143-.176-.586-.429-1.03-.761-1.332a1.663 1.663 0 0 0-1.173-.457c-.686 0-1.224.338-1.616 1.014-.391.676-.588 1.649-.591 2.918 0 .849.088 1.566.263 2.153.179.583.433 1.026.761 1.327.328.298.722.448 1.183.448Zm8.635 2.431v-12.728h.815v12.728h-.815Zm2.55-8.78a1.454 1.454 0 0 0-.656-1.094c-.385-.262-.869-.393-1.452-.393-.418 0-.779.067-1.084.199-.305.13-.542.308-.711.537a1.273 1.273 0 0 0-.248.771c0 .242.056.451.169.626.116.176.267.323.452.443.189.116.391.213.607.293.215.076.422.139.621.189l.995.258c.324.08.657.188.999.324.341.135.658.314.949.537.292.222.527.497.706.825.183.328.274.721.274 1.178 0 .577-.149 1.089-.448 1.536-.295.448-.724.801-1.287 1.059-.56.259-1.238.388-2.034.388-.762 0-1.422-.121-1.978-.363-.557-.242-.993-.585-1.308-1.029-.315-.447-.489-.978-.522-1.591h1.541c.03.368.149.675.358.92.212.242.482.422.811.542.331.116.694.174 1.088.174.435 0 .821-.068 1.159-.204.341-.139.61-.332.805-.577.196-.248.293-.538.293-.87 0-.301-.086-.548-.258-.741a1.91 1.91 0 0 0-.691-.477 6.711 6.711 0 0 0-.98-.333l-1.203-.328c-.815-.222-1.461-.549-1.939-.98-.474-.43-.71-1-.71-1.71 0-.586.159-1.098.477-1.536a3.14 3.14 0 0 1 1.292-1.019c.544-.245 1.157-.368 1.84-.368.689 0 1.297.121 1.824.363.531.242.948.575 1.253.999.305.421.464.905.478 1.452h-1.482Z"/><defs><clipPath id="a"><path fill="#fff" d="M228 44h72v72h-72z"/></clipPath></defs></svg>