<svg width="332" height="219" viewBox="0 0 332 219" fill="none" xmlns="http://www.w3.org/2000/svg">
<rect width="160" height="160" rx="16" fill="#E8F2EE"/>
<path d="M108.444 99.7261C107.703 98.0141 106.852 96.1563 104.889 96.1563H103.111C105.074 96.1563 106.667 94.5581 106.667 92.5865V62.2363C106.668 61.7684 106.576 61.305 106.398 60.8724C106.22 60.4398 105.958 60.0465 105.628 59.715C105.298 59.3835 104.906 59.1203 104.474 58.9404C104.042 58.7605 103.579 58.6674 103.111 58.6665H56.8889C54.9262 58.6665 53.3333 60.2647 53.3333 62.2363V92.5865C53.3333 94.5581 54.9262 96.1563 56.8889 96.1563H55.1111C53.1484 96.1563 52.1476 97.9412 51.5556 99.7261L48 108.428C48 110.402 49.5929 112 51.5556 112H108.444C110.407 112 112 110.402 112 108.43L108.444 99.7261Z" fill="#CCD6DD"/>
<path d="M48.0146 108.578L48.0253 108.679L48.3275 109.909C48.6081 110.531 49.0618 111.059 49.6343 111.429C50.2068 111.8 50.8739 111.998 51.556 112H108.445C109.363 111.997 110.244 111.639 110.904 111.001C111.564 110.363 111.952 109.495 111.986 108.578H48.0146Z" fill="#9AAAB4"/>
<path d="M103.111 90.8001C103.111 91.7867 102.316 92.5849 101.333 92.5849H58.6664C57.6851 92.5849 56.8887 91.7867 56.8887 90.8001V64.0232C56.8887 63.0365 57.6851 62.2383 58.6664 62.2383H101.333C102.316 62.2383 103.111 63.0383 103.111 64.0232V90.8001Z" fill="#5DADEC"/>
<path d="M106.5 103.186L105.149 99.3191C104.724 98.5013 104.02 97.8311 103.037 97.8311H57.0846C56.1033 97.8311 55.474 98.5564 55.0295 99.6728L53.8064 103.187C53.4171 104.247 54.6029 104.972 55.5842 104.972H69.0562C69.0562 104.972 70.722 104.889 71.0171 103.891C71.3584 102.739 71.7549 101.004 71.8402 100.699C71.9717 100.229 72.53 99.7546 73.362 99.7546H88.6117C89.5006 99.7546 89.938 100.204 90.0535 100.761C90.1282 101.123 90.6082 102.789 90.8322 103.929C91.0295 104.944 93.0029 104.971 93.0029 104.971H104.726C105.705 104.971 106.889 104.133 106.5 103.186Z" fill="#AEBBC1"/>
<path d="M87.7777 106.868H73.9448C73.2781 106.868 72.9883 106.258 73.0843 105.668C73.1803 105.079 73.7226 102.48 73.7652 102.178C73.8061 101.874 74.2523 101.511 74.6968 101.511H87.1679C87.6959 101.511 88.039 101.801 88.1457 102.381C88.2506 102.962 88.6826 105.298 88.7163 105.831C88.7501 106.366 88.4159 106.868 87.7777 106.868Z" fill="#9AAAB4"/>
<path d="M1.278 187V174.4H3.186L9.504 183.886V174.4H11.412V187H9.504L3.186 177.514V187H1.278ZM17.5334 187.216C16.6574 187.216 15.8774 187.024 15.1934 186.64C14.5214 186.244 13.9934 185.698 13.6094 185.002C13.2254 184.306 13.0334 183.496 13.0334 182.572C13.0334 181.636 13.2194 180.814 13.5914 180.106C13.9754 179.398 14.5034 178.846 15.1754 178.45C15.8594 178.054 16.6514 177.856 17.5514 177.856C18.4274 177.856 19.1894 178.054 19.8374 178.45C20.4854 178.834 20.9894 179.35 21.3494 179.998C21.7094 180.646 21.8894 181.36 21.8894 182.14C21.8894 182.26 21.8834 182.392 21.8714 182.536C21.8714 182.668 21.8654 182.818 21.8534 182.986H14.9054C14.9654 183.85 15.2474 184.51 15.7514 184.966C16.2674 185.41 16.8614 185.632 17.5334 185.632C18.0734 185.632 18.5234 185.512 18.8834 185.272C19.2554 185.02 19.5314 184.684 19.7114 184.264H21.6194C21.3794 185.104 20.8994 185.806 20.1794 186.37C19.4714 186.934 18.5894 187.216 17.5334 187.216ZM17.5334 179.422C16.8974 179.422 16.3334 179.614 15.8414 179.998C15.3494 180.37 15.0494 180.934 14.9414 181.69H19.9814C19.9454 180.994 19.6994 180.442 19.2434 180.034C18.7874 179.626 18.2174 179.422 17.5334 179.422ZM24.7596 187L22.1316 178.072H24.0396L25.7676 184.804L27.7116 178.072H29.8356L31.7796 184.804L33.5076 178.072H35.4156L32.7876 187H30.8256L28.7736 179.98L26.7216 187H24.7596ZM40.5145 187V174.4H42.4225V185.488H48.1465V187H40.5145ZM52.612 187.216C51.856 187.216 51.232 187.09 50.74 186.838C50.248 186.586 49.882 186.256 49.642 185.848C49.402 185.428 49.282 184.972 49.282 184.48C49.282 183.616 49.618 182.932 50.29 182.428C50.962 181.924 51.922 181.672 53.17 181.672H55.51V181.51C55.51 180.814 55.318 180.292 54.934 179.944C54.562 179.596 54.076 179.422 53.476 179.422C52.948 179.422 52.486 179.554 52.09 179.818C51.706 180.07 51.472 180.448 51.388 180.952H49.48C49.54 180.304 49.756 179.752 50.128 179.296C50.512 178.828 50.992 178.474 51.568 178.234C52.156 177.982 52.798 177.856 53.494 177.856C54.742 177.856 55.708 178.186 56.392 178.846C57.076 179.494 57.418 180.382 57.418 181.51V187H55.762L55.6 185.47C55.348 185.962 54.982 186.376 54.502 186.712C54.022 187.048 53.392 187.216 52.612 187.216ZM52.99 185.668C53.506 185.668 53.938 185.548 54.286 185.308C54.646 185.056 54.922 184.726 55.114 184.318C55.318 183.91 55.444 183.46 55.492 182.968H53.368C52.612 182.968 52.072 183.1 51.748 183.364C51.436 183.628 51.28 183.958 51.28 184.354C51.28 184.762 51.43 185.086 51.73 185.326C52.042 185.554 52.462 185.668 52.99 185.668ZM59.1027 190.96V178.072H60.8127L61.0107 179.458C61.2987 179.038 61.6947 178.666 62.1987 178.342C62.7027 178.018 63.3507 177.856 64.1427 177.856C65.0067 177.856 65.7687 178.06 66.4287 178.468C67.0887 178.876 67.6047 179.434 67.9767 180.142C68.3607 180.85 68.5527 181.654 68.5527 182.554C68.5527 183.454 68.3607 184.258 67.9767 184.966C67.6047 185.662 67.0887 186.214 66.4287 186.622C65.7687 187.018 65.0007 187.216 64.1247 187.216C63.4287 187.216 62.8107 187.078 62.2707 186.802C61.7427 186.526 61.3227 186.136 61.0107 185.632V190.96H59.1027ZM63.8007 185.56C64.6167 185.56 65.2887 185.284 65.8167 184.732C66.3447 184.168 66.6087 183.436 66.6087 182.536C66.6087 181.948 66.4887 181.426 66.2487 180.97C66.0087 180.514 65.6787 180.16 65.2587 179.908C64.8387 179.644 64.3527 179.512 63.8007 179.512C62.9847 179.512 62.3127 179.794 61.7847 180.358C61.2687 180.922 61.0107 181.648 61.0107 182.536C61.0107 183.436 61.2687 184.168 61.7847 184.732C62.3127 185.284 62.9847 185.56 63.8007 185.56ZM73.4688 187C72.5928 187 71.8968 186.79 71.3808 186.37C70.8648 185.938 70.6068 185.176 70.6068 184.084V179.674H69.0768V178.072H70.6068L70.8408 175.804H72.5148V178.072H75.0348V179.674H72.5148V184.084C72.5148 184.576 72.6168 184.918 72.8208 185.11C73.0368 185.29 73.4028 185.38 73.9188 185.38H74.9448V187H73.4688ZM80.4097 187.216C79.5577 187.216 78.7897 187.024 78.1057 186.64C77.4337 186.244 76.8997 185.698 76.5037 185.002C76.1077 184.294 75.9097 183.472 75.9097 182.536C75.9097 181.6 76.1077 180.784 76.5037 180.088C76.9117 179.38 77.4577 178.834 78.1417 178.45C78.8257 178.054 79.5877 177.856 80.4277 177.856C81.2797 177.856 82.0417 178.054 82.7137 178.45C83.3977 178.834 83.9377 179.38 84.3337 180.088C84.7417 180.784 84.9457 181.6 84.9457 182.536C84.9457 183.472 84.7417 184.294 84.3337 185.002C83.9377 185.698 83.3977 186.244 82.7137 186.64C82.0297 187.024 81.2617 187.216 80.4097 187.216ZM80.4097 185.578C80.8657 185.578 81.2857 185.464 81.6697 185.236C82.0657 185.008 82.3837 184.672 82.6237 184.228C82.8637 183.772 82.9837 183.208 82.9837 182.536C82.9837 181.864 82.8637 181.306 82.6237 180.862C82.3957 180.406 82.0837 180.064 81.6877 179.836C81.3037 179.608 80.8837 179.494 80.4277 179.494C79.9717 179.494 79.5457 179.608 79.1497 179.836C78.7657 180.064 78.4537 180.406 78.2137 180.862C77.9737 181.306 77.8537 181.864 77.8537 182.536C77.8537 183.208 77.9737 183.772 78.2137 184.228C78.4537 184.672 78.7657 185.008 79.1497 185.236C79.5337 185.464 79.9537 185.578 80.4097 185.578ZM86.469 190.96V178.072H88.179L88.377 179.458C88.665 179.038 89.061 178.666 89.565 178.342C90.069 178.018 90.717 177.856 91.509 177.856C92.373 177.856 93.135 178.06 93.795 178.468C94.455 178.876 94.971 179.434 95.343 180.142C95.727 180.85 95.919 181.654 95.919 182.554C95.919 183.454 95.727 184.258 95.343 184.966C94.971 185.662 94.455 186.214 93.795 186.622C93.135 187.018 92.367 187.216 91.491 187.216C90.795 187.216 90.177 187.078 89.637 186.802C89.109 186.526 88.689 186.136 88.377 185.632V190.96H86.469ZM91.167 185.56C91.983 185.56 92.655 185.284 93.183 184.732C93.711 184.168 93.975 183.436 93.975 182.536C93.975 181.948 93.855 181.426 93.615 180.97C93.375 180.514 93.045 180.16 92.625 179.908C92.205 179.644 91.719 179.512 91.167 179.512C90.351 179.512 89.679 179.794 89.151 180.358C88.635 180.922 88.377 181.648 88.377 182.536C88.377 183.436 88.635 184.168 89.151 184.732C89.679 185.284 90.351 185.56 91.167 185.56Z" fill="#1A191E"/>
<path d="M0.765625 211.011V209.768L5.16548 202.818H6.14489V204.648H5.52344L2.37642 209.629V209.709H8.40696V211.011H0.765625ZM5.59304 213V210.634L5.60298 210.067V202.818H7.05966V213H5.59304ZM13.6843 213.169C12.8988 213.166 12.2276 212.959 11.6708 212.548C11.114 212.137 10.6881 211.538 10.3931 210.753C10.0981 209.967 9.95064 209.021 9.95064 207.914C9.95064 206.81 10.0981 205.867 10.3931 205.085C10.6914 204.303 11.119 203.706 11.6758 203.295C12.2359 202.884 12.9054 202.679 13.6843 202.679C14.4632 202.679 15.131 202.886 15.6879 203.3C16.2447 203.711 16.6706 204.308 16.9656 205.09C17.2638 205.869 17.413 206.81 17.413 207.914C17.413 209.024 17.2655 209.972 16.9705 210.758C16.6755 211.54 16.2496 212.138 15.6928 212.553C15.136 212.964 14.4665 213.169 13.6843 213.169ZM13.6843 211.842C14.3737 211.842 14.9123 211.505 15.3001 210.832C15.6912 210.16 15.8867 209.187 15.8867 207.914C15.8867 207.069 15.7972 206.355 15.6183 205.771C15.4426 205.185 15.189 204.741 14.8576 204.439C14.5295 204.134 14.1384 203.982 13.6843 203.982C12.9982 203.982 12.4596 204.32 12.0685 204.996C11.6774 205.672 11.4802 206.645 11.4769 207.914C11.4769 208.763 11.5647 209.48 11.7404 210.067C11.9194 210.65 12.1729 211.093 12.5011 211.394C12.8292 211.692 13.2236 211.842 13.6843 211.842ZM22.7214 213.169C21.9359 213.166 21.2647 212.959 20.7079 212.548C20.1511 212.137 19.7252 211.538 19.4302 210.753C19.1352 209.967 18.9877 209.021 18.9877 207.914C18.9877 206.81 19.1352 205.867 19.4302 205.085C19.7285 204.303 20.1561 203.706 20.7129 203.295C21.273 202.884 21.9425 202.679 22.7214 202.679C23.5003 202.679 24.1681 202.886 24.725 203.3C25.2818 203.711 25.7077 204.308 26.0027 205.09C26.301 205.869 26.4501 206.81 26.4501 207.914C26.4501 209.024 26.3026 209.972 26.0076 210.758C25.7127 211.54 25.2868 212.138 24.7299 212.553C24.1731 212.964 23.5036 213.169 22.7214 213.169ZM22.7214 211.842C23.4108 211.842 23.9494 211.505 24.3372 210.832C24.7283 210.16 24.9238 209.187 24.9238 207.914C24.9238 207.069 24.8343 206.355 24.6554 205.771C24.4797 205.185 24.2261 204.741 23.8947 204.439C23.5666 204.134 23.1755 203.982 22.7214 203.982C22.0353 203.982 21.4967 204.32 21.1056 204.996C20.7145 205.672 20.5173 206.645 20.514 207.914C20.514 208.763 20.6019 209.48 20.7775 210.067C20.9565 210.65 21.21 211.093 21.5382 211.394C21.8663 211.692 22.2607 211.842 22.7214 211.842ZM31.3558 214.273V201.545H32.1712V214.273H31.3558ZM33.9062 205.493C33.8532 205.022 33.6345 204.658 33.25 204.399C32.8655 204.137 32.3816 204.006 31.7983 204.006C31.3807 204.006 31.0194 204.073 30.7145 204.205C30.4096 204.335 30.1726 204.513 30.0036 204.742C29.8378 204.968 29.755 205.224 29.755 205.513C29.755 205.755 29.8113 205.964 29.924 206.139C30.04 206.315 30.1908 206.462 30.3764 206.582C30.5653 206.698 30.7675 206.795 30.983 206.875C31.1984 206.951 31.4055 207.014 31.6044 207.064L32.5987 207.322C32.9235 207.402 33.2566 207.51 33.598 207.646C33.9394 207.781 34.2559 207.96 34.5476 208.183C34.8393 208.405 35.0746 208.68 35.2536 209.008C35.4358 209.336 35.527 209.729 35.527 210.186C35.527 210.763 35.3778 211.275 35.0795 211.722C34.7846 212.17 34.3554 212.523 33.7919 212.781C33.2318 213.04 32.554 213.169 31.7585 213.169C30.9962 213.169 30.3366 213.048 29.7798 212.806C29.223 212.564 28.7872 212.221 28.4723 211.777C28.1574 211.33 27.9834 210.799 27.9503 210.186H29.4915C29.5213 210.554 29.6406 210.861 29.8494 211.106C30.0616 211.348 30.3317 211.528 30.6598 211.648C30.9912 211.764 31.3542 211.822 31.7486 211.822C32.1828 211.822 32.5689 211.754 32.907 211.618C33.2483 211.479 33.5168 211.286 33.7124 211.041C33.9079 210.793 34.0057 210.503 34.0057 210.171C34.0057 209.87 33.9195 209.623 33.7472 209.43C33.5781 209.238 33.3478 209.079 33.0561 208.953C32.7678 208.827 32.4413 208.716 32.0767 208.62L30.8736 208.292C30.0582 208.07 29.4119 207.743 28.9347 207.312C28.4607 206.882 28.2237 206.312 28.2237 205.602C28.2237 205.016 28.3828 204.504 28.701 204.066C29.0192 203.629 29.45 203.289 29.9936 203.047C30.5372 202.802 31.1503 202.679 31.8331 202.679C32.5225 202.679 33.1307 202.8 33.6577 203.042C34.188 203.284 34.6056 203.617 34.9105 204.041C35.2154 204.462 35.3745 204.946 35.3878 205.493H33.9062Z" fill="#1A191E" fill-opacity="0.5"/>
<rect x="184" width="160" height="160" rx="16" fill="#F1DFDF"/>
<g clip-path="url(#clip0_722_1953)">
<path d="M242 92C245.914 92 249.266 94.27 250.91 97.544L257.864 94.066C254.976 88.116 248.892 84 241.832 84C239.315 84.0006 236.827 84.5371 234.534 85.574L237.87 92.914C239.165 92.3166 240.574 92.0049 242 92ZM286 92C288.934 92 291.544 93.286 293.376 95.296L299.17 90.026C297.502 88.132 295.45 86.6149 293.15 85.5759C290.851 84.5368 288.356 83.9996 285.832 84C278.68 84 272.528 88.222 269.686 94.3L276.982 97.744C278.586 94.36 282.006 92 286 92Z" fill="#EA596E"/>
<path d="M242 88C240.161 88 238.341 88.3621 236.642 89.0657C234.944 89.7693 233.401 90.8005 232.101 92.1005C230.8 93.4005 229.769 94.9439 229.066 96.6424C228.362 98.341 228 100.161 228 102C228 103.839 228.362 105.659 229.066 107.358C229.769 109.056 230.8 110.599 232.101 111.899C233.401 113.2 234.944 114.231 236.642 114.934C238.341 115.638 240.161 116 242 116C245.713 116 249.274 114.525 251.899 111.899C254.525 109.274 256 105.713 256 102C256 98.287 254.525 94.726 251.899 92.1005C249.274 89.475 245.713 88 242 88ZM242 112C239.348 112 236.804 110.946 234.929 109.071C233.054 107.196 232 104.652 232 102C232 99.3478 233.054 96.8043 234.929 94.9289C236.804 93.0536 239.348 92 242 92C244.652 92 247.196 93.0536 249.071 94.9289C250.946 96.8043 252 99.3478 252 102C252 104.652 250.946 107.196 249.071 109.071C247.196 110.946 244.652 112 242 112ZM286 88C282.287 88.0003 278.726 89.4756 276.1 92.1015C273.475 94.7274 272 98.2887 272 102.002C272 105.715 273.476 109.276 276.102 111.902C278.727 114.527 282.289 116.002 286.002 116.002C287.841 116.002 289.661 115.64 291.36 114.936C293.059 114.232 294.602 113.201 295.902 111.9C297.202 110.6 298.233 109.057 298.937 107.358C299.64 105.659 300.002 103.839 300.002 102C300.002 100.161 299.64 98.3408 298.936 96.6421C298.232 94.9435 297.201 93.4001 295.9 92.1001C294.6 90.8001 293.057 89.7689 291.358 89.0654C289.659 88.3619 287.839 87.9999 286 88ZM286 112C283.348 112 280.804 110.946 278.929 109.071C277.054 107.196 276 104.652 276 102C276 99.3478 277.054 96.8043 278.929 94.9289C280.804 93.0536 283.348 92 286 92C288.652 92 291.196 93.0536 293.071 94.9289C294.946 96.8043 296 99.3478 296 102C296 104.652 294.946 107.196 293.071 109.071C291.196 110.946 288.652 112 286 112Z" fill="#292F33"/>
<path d="M287.968 101.844C287.955 101.71 287.928 101.577 287.888 101.448C287.853 101.32 287.805 101.195 287.746 101.076C287.72 101.028 287.716 100.972 287.688 100.926L273.688 78.926C273.547 78.7043 273.364 78.5125 273.149 78.3616C272.933 78.2107 272.691 78.1037 272.434 78.0467C272.178 77.9897 271.913 77.9837 271.654 78.0293C271.395 78.0748 271.148 78.1709 270.926 78.312C270.647 78.4943 270.418 78.7448 270.263 79.0398C270.107 79.3347 270.029 79.6645 270.036 79.998H252C251.47 79.998 250.961 80.2087 250.586 80.5838C250.211 80.9589 250 81.4676 250 81.998C250 82.5284 250.211 83.0371 250.586 83.4122C250.961 83.7873 251.47 83.998 252 83.998H272C272.054 83.998 272.1 83.97 272.154 83.966L282.356 100H264C263.47 100 262.961 100.211 262.586 100.586C262.211 100.961 262 101.47 262 102C262 102.53 262.211 103.039 262.586 103.414C262.961 103.789 263.47 104 264 104H286.002C286.309 103.993 286.61 103.917 286.882 103.776C286.944 103.742 287.014 103.728 287.076 103.688C287.136 103.648 287.172 103.586 287.226 103.544C287.433 103.383 287.604 103.181 287.728 102.95C287.788 102.838 287.838 102.73 287.878 102.606C287.919 102.475 287.945 102.34 287.958 102.204C287.966 102.132 288 102.072 288 102C288 101.946 287.972 101.898 287.968 101.844Z" fill="#DD2E44"/>
<path d="M271.162 76L265.364 92.234L253.506 78.684C253.334 78.483 253.124 78.3182 252.888 78.199C252.651 78.0798 252.394 78.0086 252.13 77.9896C251.866 77.9706 251.601 78.004 251.351 78.0881C251.1 78.1722 250.868 78.3051 250.669 78.4793C250.47 78.6535 250.308 78.8654 250.191 79.1029C250.075 79.3403 250.006 79.5985 249.99 79.8625C249.974 80.1265 250.01 80.3911 250.097 80.6409C250.184 80.8907 250.319 81.1209 250.496 81.318L263.824 96.548L262.116 101.328C261.938 101.828 261.965 102.378 262.192 102.857C262.42 103.336 262.828 103.706 263.328 103.884C263.828 104.062 264.378 104.035 264.857 103.807C265.336 103.58 265.706 103.172 265.884 102.672L275.41 76H271.162Z" fill="#DD2E44"/>
<path d="M242 104C241.659 104 241.324 103.912 241.027 103.746C240.73 103.58 240.48 103.34 240.301 103.05C240.122 102.761 240.02 102.43 240.005 102.09C239.99 101.749 240.062 101.411 240.214 101.106L246.338 88.8941C246.372 88.8381 250 83.3021 250 78.0001C250 71.5161 245.414 69.9141 245.368 69.8981C245.116 69.8176 244.882 69.6877 244.68 69.5161C244.478 69.3445 244.312 69.1345 244.193 68.8984C244.073 68.6622 244.001 68.4046 243.981 68.1404C243.962 67.8763 243.995 67.6109 244.079 67.3596C244.162 67.1084 244.295 66.8763 244.47 66.6768C244.644 66.4773 244.856 66.3145 245.094 66.1977C245.331 66.0809 245.59 66.0124 245.854 65.9964C246.119 65.9803 246.384 66.0169 246.634 66.1041C246.934 66.2041 254 68.6661 254 78.0001C254 84.1361 250.328 90.0841 249.738 90.9941L243.79 102.892C243.625 103.225 243.369 103.506 243.053 103.702C242.737 103.897 242.372 104.001 242 104Z" fill="#DD2E44"/>
<path d="M257.224 71.326C257.113 71.3265 257.003 71.3171 256.894 71.298L244.894 69.298C244.371 69.2107 243.903 68.9192 243.595 68.4874C243.287 68.0557 243.163 67.5192 243.25 66.996C243.337 66.4727 243.629 66.0055 244.06 65.6972C244.492 65.3889 245.029 65.2647 245.552 65.352L257.552 67.352C258.048 67.4328 258.496 67.6978 258.806 68.0942C259.116 68.4905 259.265 68.9891 259.224 69.4905C259.182 69.9919 258.954 70.4593 258.583 70.7994C258.212 71.1396 257.727 71.3276 257.224 71.326ZM280.766 78C280.706 77.9999 280.647 77.9959 280.588 77.988L269.244 76.572C268.875 76.5413 268.533 76.3673 268.29 76.0873C268.048 75.8072 267.925 75.4434 267.948 75.0738C267.971 74.7042 268.137 74.3582 268.412 74.11C268.687 73.8618 269.048 73.7311 269.418 73.746C269.5 73.746 277.552 73.71 281.396 71.148C281.642 70.9849 281.933 70.9023 282.228 70.9116C282.523 70.9209 282.808 71.0217 283.044 71.2C283.278 71.3803 283.45 71.6288 283.536 71.9111C283.622 72.1935 283.619 72.4957 283.526 72.776L282.108 77.03C282.015 77.3125 281.835 77.5585 281.594 77.7327C281.353 77.9069 281.063 78.0005 280.766 78Z" fill="#292F33"/>
<path d="M268 102C268 103.061 267.579 104.078 266.828 104.828C266.078 105.579 265.061 106 264 106C262.939 106 261.922 105.579 261.172 104.828C260.421 104.078 260 103.061 260 102C260 100.939 260.421 99.9217 261.172 99.1716C261.922 98.4214 262.939 98 264 98C265.061 98 266.078 98.4214 266.828 99.1716C267.579 99.9217 268 100.939 268 102Z" fill="#66757F"/>
</g>
<path d="M185.278 187V174.4H189.364C190.84 174.4 192.052 174.658 193 175.174C193.96 175.69 194.668 176.422 195.124 177.37C195.592 178.306 195.826 179.422 195.826 180.718C195.826 182.002 195.592 183.118 195.124 184.066C194.668 185.002 193.96 185.728 193 186.244C192.052 186.748 190.84 187 189.364 187H185.278ZM187.186 185.38H189.292C190.432 185.38 191.332 185.194 191.992 184.822C192.664 184.45 193.144 183.916 193.432 183.22C193.732 182.524 193.882 181.69 193.882 180.718C193.882 179.746 193.732 178.906 193.432 178.198C193.144 177.49 192.664 176.95 191.992 176.578C191.332 176.194 190.432 176.002 189.292 176.002H187.186V185.38ZM197.322 187V178.072H199.032L199.194 179.764C199.506 179.176 199.938 178.714 200.49 178.378C201.054 178.03 201.732 177.856 202.524 177.856V179.854H202.002C201.474 179.854 201 179.944 200.58 180.124C200.172 180.292 199.842 180.586 199.59 181.006C199.35 181.414 199.23 181.984 199.23 182.716V187H197.322ZM207.55 187.216C206.674 187.216 205.894 187.024 205.21 186.64C204.538 186.244 204.01 185.698 203.626 185.002C203.242 184.306 203.05 183.496 203.05 182.572C203.05 181.636 203.236 180.814 203.608 180.106C203.992 179.398 204.52 178.846 205.192 178.45C205.876 178.054 206.668 177.856 207.568 177.856C208.444 177.856 209.206 178.054 209.854 178.45C210.502 178.834 211.006 179.35 211.366 179.998C211.726 180.646 211.906 181.36 211.906 182.14C211.906 182.26 211.9 182.392 211.888 182.536C211.888 182.668 211.882 182.818 211.87 182.986H204.922C204.982 183.85 205.264 184.51 205.768 184.966C206.284 185.41 206.878 185.632 207.55 185.632C208.09 185.632 208.54 185.512 208.9 185.272C209.272 185.02 209.548 184.684 209.728 184.264H211.636C211.396 185.104 210.916 185.806 210.196 186.37C209.488 186.934 208.606 187.216 207.55 187.216ZM207.55 179.422C206.914 179.422 206.35 179.614 205.858 179.998C205.366 180.37 205.066 180.934 204.958 181.69H209.998C209.962 180.994 209.716 180.442 209.26 180.034C208.804 179.626 208.234 179.422 207.55 179.422ZM216.37 187.216C215.614 187.216 214.99 187.09 214.498 186.838C214.006 186.586 213.64 186.256 213.4 185.848C213.16 185.428 213.04 184.972 213.04 184.48C213.04 183.616 213.376 182.932 214.048 182.428C214.72 181.924 215.68 181.672 216.928 181.672H219.268V181.51C219.268 180.814 219.076 180.292 218.692 179.944C218.32 179.596 217.834 179.422 217.234 179.422C216.706 179.422 216.244 179.554 215.848 179.818C215.464 180.07 215.23 180.448 215.146 180.952H213.238C213.298 180.304 213.514 179.752 213.886 179.296C214.27 178.828 214.75 178.474 215.326 178.234C215.914 177.982 216.556 177.856 217.252 177.856C218.5 177.856 219.466 178.186 220.15 178.846C220.834 179.494 221.176 180.382 221.176 181.51V187H219.52L219.358 185.47C219.106 185.962 218.74 186.376 218.26 186.712C217.78 187.048 217.15 187.216 216.37 187.216ZM216.748 185.668C217.264 185.668 217.696 185.548 218.044 185.308C218.404 185.056 218.68 184.726 218.872 184.318C219.076 183.91 219.202 183.46 219.25 182.968H217.126C216.37 182.968 215.83 183.1 215.506 183.364C215.194 183.628 215.038 183.958 215.038 184.354C215.038 184.762 215.188 185.086 215.488 185.326C215.8 185.554 216.22 185.668 216.748 185.668ZM222.86 187V178.072H224.552L224.714 179.332C225.002 178.876 225.38 178.516 225.848 178.252C226.328 177.988 226.88 177.856 227.504 177.856C228.92 177.856 229.904 178.414 230.456 179.53C230.78 179.014 231.212 178.606 231.752 178.306C232.304 178.006 232.898 177.856 233.534 177.856C234.65 177.856 235.526 178.192 236.162 178.864C236.798 179.536 237.116 180.538 237.116 181.87V187H235.208V182.068C235.208 180.34 234.548 179.476 233.228 179.476C232.556 179.476 232.004 179.728 231.572 180.232C231.152 180.736 230.942 181.456 230.942 182.392V187H229.034V182.068C229.034 180.34 228.368 179.476 227.036 179.476C226.376 179.476 225.83 179.728 225.398 180.232C224.978 180.736 224.768 181.456 224.768 182.392V187H222.86ZM247.826 187.216C247.13 187.216 246.512 187.078 245.972 186.802C245.444 186.526 245.024 186.136 244.712 185.632L244.514 187H242.804V174.04H244.712V179.458C245 179.038 245.396 178.666 245.9 178.342C246.404 178.018 247.052 177.856 247.844 177.856C248.708 177.856 249.47 178.06 250.13 178.468C250.79 178.876 251.306 179.434 251.678 180.142C252.062 180.85 252.254 181.654 252.254 182.554C252.254 183.454 252.062 184.258 251.678 184.966C251.306 185.662 250.79 186.214 250.13 186.622C249.47 187.018 248.702 187.216 247.826 187.216ZM247.502 185.56C248.318 185.56 248.99 185.284 249.518 184.732C250.046 184.168 250.31 183.436 250.31 182.536C250.31 181.948 250.19 181.426 249.95 180.97C249.71 180.514 249.38 180.16 248.96 179.908C248.54 179.644 248.054 179.512 247.502 179.512C246.686 179.512 246.014 179.794 245.486 180.358C244.97 180.922 244.712 181.648 244.712 182.536C244.712 183.436 244.97 184.168 245.486 184.732C246.014 185.284 246.686 185.56 247.502 185.56ZM254.858 176.38C254.498 176.38 254.198 176.272 253.958 176.056C253.73 175.828 253.616 175.546 253.616 175.21C253.616 174.874 253.73 174.598 253.958 174.382C254.198 174.154 254.498 174.04 254.858 174.04C255.218 174.04 255.512 174.154 255.74 174.382C255.98 174.598 256.1 174.874 256.1 175.21C256.1 175.546 255.98 175.828 255.74 176.056C255.512 176.272 255.218 176.38 254.858 176.38ZM253.904 187V178.072H255.812V187H253.904ZM257.79 187V174.04H259.698V181.762L263.118 178.072H265.404L261.606 182.122L265.962 187H263.55L259.698 182.428V187H257.79ZM270.391 187.216C269.515 187.216 268.735 187.024 268.051 186.64C267.379 186.244 266.851 185.698 266.467 185.002C266.083 184.306 265.891 183.496 265.891 182.572C265.891 181.636 266.077 180.814 266.449 180.106C266.833 179.398 267.361 178.846 268.033 178.45C268.717 178.054 269.509 177.856 270.409 177.856C271.285 177.856 272.047 178.054 272.695 178.45C273.343 178.834 273.847 179.35 274.207 179.998C274.567 180.646 274.747 181.36 274.747 182.14C274.747 182.26 274.741 182.392 274.729 182.536C274.729 182.668 274.723 182.818 274.711 182.986H267.763C267.823 183.85 268.105 184.51 268.609 184.966C269.125 185.41 269.719 185.632 270.391 185.632C270.931 185.632 271.381 185.512 271.741 185.272C272.113 185.02 272.389 184.684 272.569 184.264H274.477C274.237 185.104 273.757 185.806 273.037 186.37C272.329 186.934 271.447 187.216 270.391 187.216ZM270.391 179.422C269.755 179.422 269.191 179.614 268.699 179.998C268.207 180.37 267.907 180.934 267.799 181.69H272.839C272.803 180.994 272.557 180.442 272.101 180.034C271.645 179.626 271.075 179.422 270.391 179.422Z" fill="#1A191E"/>
<path d="M184.979 213V211.886L188.425 208.317C188.793 207.929 189.096 207.589 189.335 207.298C189.576 207.003 189.757 206.723 189.876 206.457C189.996 206.192 190.055 205.911 190.055 205.612C190.055 205.274 189.976 204.982 189.817 204.737C189.658 204.489 189.441 204.298 189.165 204.165C188.89 204.03 188.58 203.962 188.236 203.962C187.871 203.962 187.553 204.036 187.281 204.185C187.009 204.335 186.801 204.545 186.655 204.817C186.509 205.089 186.436 205.407 186.436 205.771H184.969C184.969 205.152 185.112 204.61 185.397 204.146C185.682 203.682 186.073 203.322 186.57 203.067C187.067 202.808 187.633 202.679 188.266 202.679C188.905 202.679 189.469 202.807 189.956 203.062C190.446 203.314 190.829 203.658 191.104 204.096C191.379 204.53 191.517 205.021 191.517 205.567C191.517 205.945 191.446 206.315 191.303 206.676C191.164 207.037 190.92 207.44 190.572 207.884C190.224 208.325 189.741 208.86 189.121 209.49L187.097 211.608V211.683H191.681V213H184.979ZM197.11 213.169C196.325 213.166 195.653 212.959 195.097 212.548C194.54 212.137 194.114 211.538 193.819 210.753C193.524 209.967 193.376 209.021 193.376 207.914C193.376 206.81 193.524 205.867 193.819 205.085C194.117 204.303 194.545 203.706 195.102 203.295C195.662 202.884 196.331 202.679 197.11 202.679C197.889 202.679 198.557 202.886 199.114 203.3C199.67 203.711 200.096 204.308 200.391 205.09C200.69 205.869 200.839 206.81 200.839 207.914C200.839 209.024 200.691 209.972 200.396 210.758C200.101 211.54 199.675 212.138 199.119 212.553C198.562 212.964 197.892 213.169 197.11 213.169ZM197.11 211.842C197.799 211.842 198.338 211.505 198.726 210.832C199.117 210.16 199.312 209.187 199.312 207.914C199.312 207.069 199.223 206.355 199.044 205.771C198.868 205.185 198.615 204.741 198.283 204.439C197.955 204.134 197.564 203.982 197.11 203.982C196.424 203.982 195.885 204.32 195.494 204.996C195.103 205.672 194.906 206.645 194.903 207.914C194.903 208.763 194.991 209.48 195.166 210.067C195.345 210.65 195.599 211.093 195.927 211.394C196.255 211.692 196.649 211.842 197.11 211.842ZM206.147 213.169C205.362 213.166 204.691 212.959 204.134 212.548C203.577 212.137 203.151 211.538 202.856 210.753C202.561 209.967 202.414 209.021 202.414 207.914C202.414 206.81 202.561 205.867 202.856 205.085C203.154 204.303 203.582 203.706 204.139 203.295C204.699 202.884 205.368 202.679 206.147 202.679C206.926 202.679 207.594 202.886 208.151 203.3C208.708 203.711 209.133 204.308 209.428 205.09C209.727 205.869 209.876 206.81 209.876 207.914C209.876 209.024 209.728 209.972 209.433 210.758C209.138 211.54 208.713 212.138 208.156 212.553C207.599 212.964 206.929 213.169 206.147 213.169ZM206.147 211.842C206.837 211.842 207.375 211.505 207.763 210.832C208.154 210.16 208.35 209.187 208.35 207.914C208.35 207.069 208.26 206.355 208.081 205.771C207.905 205.185 207.652 204.741 207.32 204.439C206.992 204.134 206.601 203.982 206.147 203.982C205.461 203.982 204.923 204.32 204.531 204.996C204.14 205.672 203.943 206.645 203.94 207.914C203.94 208.763 204.028 209.48 204.203 210.067C204.382 210.65 204.636 211.093 204.964 211.394C205.292 211.692 205.686 211.842 206.147 211.842ZM214.782 214.273V201.545H215.597V214.273H214.782ZM217.332 205.493C217.279 205.022 217.06 204.658 216.676 204.399C216.291 204.137 215.807 204.006 215.224 204.006C214.806 204.006 214.445 204.073 214.14 204.205C213.835 204.335 213.598 204.513 213.429 204.742C213.264 204.968 213.181 205.224 213.181 205.513C213.181 205.755 213.237 205.964 213.35 206.139C213.466 206.315 213.617 206.462 213.802 206.582C213.991 206.698 214.193 206.795 214.409 206.875C214.624 206.951 214.831 207.014 215.03 207.064L216.025 207.322C216.349 207.402 216.682 207.51 217.024 207.646C217.365 207.781 217.682 207.96 217.973 208.183C218.265 208.405 218.5 208.68 218.679 209.008C218.862 209.336 218.953 209.729 218.953 210.186C218.953 210.763 218.804 211.275 218.505 211.722C218.21 212.17 217.781 212.523 217.218 212.781C216.658 213.04 215.98 213.169 215.184 213.169C214.422 213.169 213.762 213.048 213.206 212.806C212.649 212.564 212.213 212.221 211.898 211.777C211.583 211.33 211.409 210.799 211.376 210.186H212.917C212.947 210.554 213.066 210.861 213.275 211.106C213.487 211.348 213.757 211.528 214.086 211.648C214.417 211.764 214.78 211.822 215.174 211.822C215.609 211.822 215.995 211.754 216.333 211.618C216.674 211.479 216.943 211.286 217.138 211.041C217.334 210.793 217.431 210.503 217.431 210.171C217.431 209.87 217.345 209.623 217.173 209.43C217.004 209.238 216.774 209.079 216.482 208.953C216.194 208.827 215.867 208.716 215.502 208.62L214.299 208.292C213.484 208.07 212.838 207.743 212.36 207.312C211.886 206.882 211.65 206.312 211.65 205.602C211.65 205.016 211.809 204.504 212.127 204.066C212.445 203.629 212.876 203.289 213.419 203.047C213.963 202.802 214.576 202.679 215.259 202.679C215.948 202.679 216.556 202.8 217.083 203.042C217.614 203.284 218.031 203.617 218.336 204.041C218.641 204.462 218.8 204.946 218.814 205.493H217.332Z" fill="#1A191E" fill-opacity="0.5"/>
<defs>
<clipPath id="clip0_722_1953">
<rect width="72" height="72" fill="white" transform="translate(228 44)"/>
</clipPath>
</defs>
</svg>
