<svg width="300" height="268" viewBox="0 0 300 268" fill="none" xmlns="http://www.w3.org/2000/svg">
<rect width="300" height="83" rx="10" fill="white"/>
<rect x="16" y="16.5" width="50" height="50" rx="8" fill="#5BB5A2"/>
<path d="M40.5616 35.9257C39.5396 35.9257 37.9576 34.7637 36.2916 34.8057C34.0936 34.8337 32.0776 36.0797 30.9436 38.0537C28.6616 42.0157 30.3556 47.8677 32.5816 51.0877C33.6736 52.6557 34.9616 54.4197 36.6696 54.3637C38.3076 54.2937 38.9236 53.2997 40.9116 53.2997C42.8856 53.2997 43.4456 54.3637 45.1816 54.3217C46.9456 54.2937 48.0656 52.7257 49.1436 51.1437C50.3896 49.3237 50.9076 47.5597 50.9356 47.4617C50.8936 47.4477 47.5056 46.1457 47.4636 42.2257C47.4356 38.9497 50.1376 37.3817 50.2636 37.3117C48.7236 35.0577 46.3576 34.8057 45.5316 34.7497C43.3756 34.5817 41.5696 35.9257 40.5616 35.9257ZM44.2016 32.6217C45.1116 31.5297 45.7136 30.0037 45.5456 28.4917C44.2436 28.5477 42.6756 29.3597 41.7376 30.4517C40.8976 31.4177 40.1696 32.9717 40.3656 34.4557C41.8076 34.5677 43.2916 33.7137 44.2016 32.6217Z" fill="white"/>
<path d="M82.468 35L87.112 22.4H89.2L93.808 35H91.792L90.712 31.922H85.564L84.484 35H82.468ZM86.104 30.41H90.172L88.138 24.668L86.104 30.41ZM94.9531 38.96V26.072H96.6631L96.8611 27.458C97.1491 27.038 97.5451 26.666 98.0491 26.342C98.5531 26.018 99.2011 25.856 99.9931 25.856C100.857 25.856 101.619 26.06 102.279 26.468C102.939 26.876 103.455 27.434 103.827 28.142C104.211 28.85 104.403 29.654 104.403 30.554C104.403 31.454 104.211 32.258 103.827 32.966C103.455 33.662 102.939 34.214 102.279 34.622C101.619 35.018 100.851 35.216 99.9751 35.216C99.2791 35.216 98.6611 35.078 98.1211 34.802C97.5931 34.526 97.1731 34.136 96.8611 33.632V38.96H94.9531ZM99.6511 33.56C100.467 33.56 101.139 33.284 101.667 32.732C102.195 32.168 102.459 31.436 102.459 30.536C102.459 29.948 102.339 29.426 102.099 28.97C101.859 28.514 101.529 28.16 101.109 27.908C100.689 27.644 100.203 27.512 99.6511 27.512C98.8351 27.512 98.1631 27.794 97.6351 28.358C97.1191 28.922 96.8611 29.648 96.8611 30.536C96.8611 31.436 97.1191 32.168 97.6351 32.732C98.1631 33.284 98.8351 33.56 99.6511 33.56ZM105.927 38.96V26.072H107.637L107.835 27.458C108.123 27.038 108.519 26.666 109.023 26.342C109.527 26.018 110.175 25.856 110.967 25.856C111.831 25.856 112.593 26.06 113.253 26.468C113.913 26.876 114.429 27.434 114.801 28.142C115.185 28.85 115.377 29.654 115.377 30.554C115.377 31.454 115.185 32.258 114.801 32.966C114.429 33.662 113.913 34.214 113.253 34.622C112.593 35.018 111.825 35.216 110.949 35.216C110.253 35.216 109.635 35.078 109.095 34.802C108.567 34.526 108.147 34.136 107.835 33.632V38.96H105.927ZM110.625 33.56C111.441 33.56 112.113 33.284 112.641 32.732C113.169 32.168 113.433 31.436 113.433 30.536C113.433 29.948 113.313 29.426 113.073 28.97C112.833 28.514 112.503 28.16 112.083 27.908C111.663 27.644 111.177 27.512 110.625 27.512C109.809 27.512 109.137 27.794 108.609 28.358C108.093 28.922 107.835 29.648 107.835 30.536C107.835 31.436 108.093 32.168 108.609 32.732C109.137 33.284 109.809 33.56 110.625 33.56ZM116.9 35V22.04H118.808V35H116.9ZM124.861 35.216C123.985 35.216 123.205 35.024 122.521 34.64C121.849 34.244 121.321 33.698 120.937 33.002C120.553 32.306 120.361 31.496 120.361 30.572C120.361 29.636 120.547 28.814 120.919 28.106C121.303 27.398 121.831 26.846 122.503 26.45C123.187 26.054 123.979 25.856 124.879 25.856C125.755 25.856 126.517 26.054 127.165 26.45C127.813 26.834 128.317 27.35 128.677 27.998C129.037 28.646 129.217 29.36 129.217 30.14C129.217 30.26 129.211 30.392 129.199 30.536C129.199 30.668 129.193 30.818 129.181 30.986H122.233C122.293 31.85 122.575 32.51 123.079 32.966C123.595 33.41 124.189 33.632 124.861 33.632C125.401 33.632 125.851 33.512 126.211 33.272C126.583 33.02 126.859 32.684 127.039 32.264H128.947C128.707 33.104 128.227 33.806 127.507 34.37C126.799 34.934 125.917 35.216 124.861 35.216ZM124.861 27.422C124.225 27.422 123.661 27.614 123.169 27.998C122.677 28.37 122.377 28.934 122.269 29.69H127.309C127.273 28.994 127.027 28.442 126.571 28.034C126.115 27.626 125.545 27.422 124.861 27.422Z" fill="#1A191E"/>
<path d="M83.2784 60V48.3636H90.5739V49.875H85.0341V53.4205H90.1932V54.9261H85.0341V58.4886H90.642V60H83.2784ZM94.4815 48.3636V60H92.7827V48.3636H94.4815ZM100.528 60.1761C99.6686 60.1761 98.928 59.9924 98.3068 59.625C97.6894 59.2538 97.2121 58.733 96.875 58.0625C96.5417 57.3883 96.375 56.5985 96.375 55.6932C96.375 54.7992 96.5417 54.0114 96.875 53.3295C97.2121 52.6477 97.6818 52.1155 98.2841 51.733C98.8902 51.3504 99.5985 51.1591 100.409 51.1591C100.902 51.1591 101.379 51.2405 101.841 51.4034C102.303 51.5663 102.718 51.822 103.085 52.1705C103.453 52.5189 103.742 52.9716 103.955 53.5284C104.167 54.0814 104.273 54.7538 104.273 55.5455V56.1477H97.3352V54.875H102.608C102.608 54.428 102.517 54.0322 102.335 53.6875C102.153 53.339 101.898 53.0644 101.568 52.8636C101.242 52.6629 100.86 52.5625 100.42 52.5625C99.9432 52.5625 99.5265 52.6799 99.1705 52.9148C98.8182 53.1458 98.5455 53.4489 98.3523 53.8239C98.1629 54.1951 98.0682 54.5985 98.0682 55.0341V56.0284C98.0682 56.6117 98.1705 57.108 98.375 57.517C98.5833 57.9261 98.8731 58.2386 99.2443 58.4545C99.6155 58.6667 100.049 58.7727 100.545 58.7727C100.867 58.7727 101.161 58.7273 101.426 58.6364C101.691 58.5417 101.92 58.4015 102.114 58.2159C102.307 58.0303 102.455 57.8011 102.557 57.5284L104.165 57.8182C104.036 58.2917 103.805 58.7064 103.472 59.0625C103.142 59.4148 102.727 59.6894 102.227 59.8864C101.731 60.0795 101.165 60.1761 100.528 60.1761ZM109.834 60.1761C108.989 60.1761 108.262 59.9848 107.652 59.6023C107.046 59.2159 106.58 58.6837 106.254 58.0057C105.929 57.3277 105.766 56.5511 105.766 55.6761C105.766 54.7898 105.932 54.0076 106.266 53.3295C106.599 52.6477 107.069 52.1155 107.675 51.733C108.281 51.3504 108.995 51.1591 109.817 51.1591C110.48 51.1591 111.071 51.2822 111.589 51.5284C112.108 51.7708 112.527 52.1117 112.845 52.5511C113.167 52.9905 113.358 53.5038 113.419 54.0909H111.766C111.675 53.6818 111.466 53.3295 111.141 53.0341C110.819 52.7386 110.387 52.5909 109.845 52.5909C109.372 52.5909 108.957 52.7159 108.601 52.9659C108.249 53.2121 107.974 53.5644 107.777 54.0227C107.58 54.4773 107.482 55.0152 107.482 55.6364C107.482 56.2727 107.578 56.822 107.771 57.2841C107.964 57.7462 108.237 58.1042 108.589 58.358C108.946 58.6117 109.364 58.7386 109.845 58.7386C110.167 58.7386 110.459 58.6799 110.72 58.5625C110.985 58.4413 111.207 58.2689 111.385 58.0455C111.567 57.822 111.694 57.553 111.766 57.2386H113.419C113.358 57.803 113.175 58.3068 112.868 58.75C112.561 59.1932 112.15 59.5417 111.635 59.7955C111.124 60.0492 110.523 60.1761 109.834 60.1761ZM119.31 51.2727V52.6364H114.543V51.2727H119.31ZM115.821 49.1818H117.52V57.4375C117.52 57.767 117.569 58.0152 117.668 58.1818C117.766 58.3447 117.893 58.4564 118.048 58.517C118.207 58.5739 118.38 58.6023 118.565 58.6023C118.702 58.6023 118.821 58.5928 118.923 58.5739C119.026 58.5549 119.105 58.5398 119.162 58.5284L119.469 59.9318C119.37 59.9697 119.23 60.0076 119.048 60.0455C118.866 60.0871 118.639 60.1098 118.366 60.1136C117.92 60.1212 117.503 60.0417 117.116 59.875C116.73 59.7083 116.418 59.4508 116.179 59.1023C115.94 58.7538 115.821 58.3163 115.821 57.7898V49.1818ZM121.189 60V51.2727H122.831V52.6591H122.922C123.081 52.1894 123.361 51.8201 123.763 51.5511C124.168 51.2784 124.626 51.142 125.138 51.142C125.244 51.142 125.369 51.1458 125.513 51.1534C125.661 51.161 125.776 51.1705 125.859 51.1818V52.8068C125.791 52.7879 125.67 52.767 125.496 52.7443C125.321 52.7178 125.147 52.7045 124.973 52.7045C124.571 52.7045 124.214 52.7898 123.899 52.9602C123.589 53.1269 123.342 53.3598 123.161 53.6591C122.979 53.9545 122.888 54.2917 122.888 54.6705V60H121.189ZM130.693 60.1761C129.875 60.1761 129.161 59.9886 128.551 59.6136C127.941 59.2386 127.468 58.714 127.131 58.0398C126.794 57.3655 126.625 56.5777 126.625 55.6761C126.625 54.7708 126.794 53.9792 127.131 53.3011C127.468 52.6231 127.941 52.0966 128.551 51.7216C129.161 51.3466 129.875 51.1591 130.693 51.1591C131.511 51.1591 132.225 51.3466 132.835 51.7216C133.445 52.0966 133.919 52.6231 134.256 53.3011C134.593 53.9792 134.761 54.7708 134.761 55.6761C134.761 56.5777 134.593 57.3655 134.256 58.0398C133.919 58.714 133.445 59.2386 132.835 59.6136C132.225 59.9886 131.511 60.1761 130.693 60.1761ZM130.699 58.75C131.229 58.75 131.669 58.6098 132.017 58.3295C132.366 58.0492 132.623 57.6761 132.79 57.2102C132.96 56.7443 133.045 56.2311 133.045 55.6705C133.045 55.1136 132.96 54.6023 132.79 54.1364C132.623 53.6667 132.366 53.2898 132.017 53.0057C131.669 52.7216 131.229 52.5795 130.699 52.5795C130.165 52.5795 129.722 52.7216 129.369 53.0057C129.021 53.2898 128.761 53.6667 128.591 54.1364C128.424 54.6023 128.341 55.1136 128.341 55.6705C128.341 56.2311 128.424 56.7443 128.591 57.2102C128.761 57.6761 129.021 58.0492 129.369 58.3295C129.722 58.6098 130.165 58.75 130.699 58.75ZM138.357 54.8182V60H136.658V51.2727H138.288V52.6932H138.396C138.597 52.2311 138.911 51.8598 139.339 51.5795C139.771 51.2992 140.315 51.1591 140.97 51.1591C141.565 51.1591 142.086 51.2841 142.533 51.5341C142.98 51.7803 143.326 52.1477 143.572 52.6364C143.819 53.125 143.942 53.7292 143.942 54.4489V60H142.243V54.6534C142.243 54.0208 142.078 53.5265 141.749 53.1705C141.419 52.8106 140.966 52.6307 140.391 52.6307C139.997 52.6307 139.646 52.7159 139.339 52.8864C139.036 53.0568 138.796 53.3068 138.618 53.6364C138.444 53.9621 138.357 54.3561 138.357 54.8182ZM146.22 60V51.2727H147.919V60H146.22ZM147.078 49.9261C146.783 49.9261 146.529 49.8277 146.317 49.6307C146.108 49.4299 146.004 49.1913 146.004 48.9148C146.004 48.6345 146.108 48.3958 146.317 48.1989C146.529 47.9981 146.783 47.8977 147.078 47.8977C147.374 47.8977 147.625 47.9981 147.834 48.1989C148.046 48.3958 148.152 48.6345 148.152 48.9148C148.152 49.1913 148.046 49.4299 147.834 49.6307C147.625 49.8277 147.374 49.9261 147.078 49.9261ZM153.881 60.1761C153.036 60.1761 152.309 59.9848 151.699 59.6023C151.093 59.2159 150.627 58.6837 150.301 58.0057C149.975 57.3277 149.812 56.5511 149.812 55.6761C149.812 54.7898 149.979 54.0076 150.312 53.3295C150.646 52.6477 151.116 52.1155 151.722 51.733C152.328 51.3504 153.042 51.1591 153.864 51.1591C154.527 51.1591 155.117 51.2822 155.636 51.5284C156.155 51.7708 156.574 52.1117 156.892 52.5511C157.214 52.9905 157.405 53.5038 157.466 54.0909H155.812C155.722 53.6818 155.513 53.3295 155.188 53.0341C154.866 52.7386 154.434 52.5909 153.892 52.5909C153.419 52.5909 153.004 52.7159 152.648 52.9659C152.295 53.2121 152.021 53.5644 151.824 54.0227C151.627 54.4773 151.528 55.0152 151.528 55.6364C151.528 56.2727 151.625 56.822 151.818 57.2841C152.011 57.7462 152.284 58.1042 152.636 58.358C152.992 58.6117 153.411 58.7386 153.892 58.7386C154.214 58.7386 154.506 58.6799 154.767 58.5625C155.032 58.4413 155.254 58.2689 155.432 58.0455C155.614 57.822 155.741 57.553 155.812 57.2386H157.466C157.405 57.803 157.222 58.3068 156.915 58.75C156.608 59.1932 156.197 59.5417 155.682 59.7955C155.17 60.0492 154.57 60.1761 153.881 60.1761Z" fill="#1A191E" fill-opacity="0.5"/>
<path d="M176.026 43.572V41.97H183.352V43.572H176.026ZM184.97 48L189.848 37.038H183.296V35.4H191.81V36.786L186.968 48H184.97ZM197.059 48.216C196.231 48.216 195.523 48.054 194.935 47.73C194.347 47.406 193.885 46.974 193.549 46.434C193.225 45.894 193.027 45.306 192.955 44.67H194.737C194.845 45.294 195.103 45.774 195.511 46.11C195.919 46.446 196.441 46.614 197.077 46.614C197.953 46.614 198.673 46.206 199.237 45.39C199.813 44.562 200.119 43.296 200.155 41.592C199.867 42.12 199.417 42.57 198.805 42.942C198.205 43.314 197.509 43.5 196.717 43.5C196.009 43.5 195.343 43.332 194.719 42.996C194.095 42.66 193.591 42.192 193.207 41.592C192.823 40.98 192.631 40.26 192.631 39.432C192.631 38.7 192.811 38.01 193.171 37.362C193.531 36.714 194.035 36.192 194.683 35.796C195.343 35.388 196.123 35.184 197.023 35.184C197.947 35.184 198.727 35.358 199.363 35.706C199.999 36.054 200.509 36.516 200.893 37.092C201.277 37.668 201.553 38.316 201.721 39.036C201.901 39.756 201.991 40.494 201.991 41.25C201.991 42.642 201.793 43.86 201.397 44.904C201.013 45.948 200.455 46.764 199.723 47.352C198.991 47.928 198.103 48.216 197.059 48.216ZM197.149 41.862C197.653 41.862 198.103 41.748 198.499 41.52C198.895 41.292 199.207 40.992 199.435 40.62C199.675 40.236 199.795 39.816 199.795 39.36C199.795 38.868 199.675 38.436 199.435 38.064C199.207 37.68 198.889 37.38 198.481 37.164C198.085 36.948 197.635 36.84 197.131 36.84C196.627 36.84 196.177 36.948 195.781 37.164C195.385 37.38 195.067 37.68 194.827 38.064C194.599 38.436 194.485 38.862 194.485 39.342C194.485 40.11 194.737 40.722 195.241 41.178C195.745 41.634 196.381 41.862 197.149 41.862ZM207.892 48.216C207.064 48.216 206.356 48.054 205.768 47.73C205.18 47.406 204.718 46.974 204.382 46.434C204.058 45.894 203.86 45.306 203.788 44.67H205.57C205.678 45.294 205.936 45.774 206.344 46.11C206.752 46.446 207.274 46.614 207.91 46.614C208.786 46.614 209.506 46.206 210.07 45.39C210.646 44.562 210.952 43.296 210.988 41.592C210.7 42.12 210.25 42.57 209.638 42.942C209.038 43.314 208.342 43.5 207.55 43.5C206.842 43.5 206.176 43.332 205.552 42.996C204.928 42.66 204.424 42.192 204.04 41.592C203.656 40.98 203.464 40.26 203.464 39.432C203.464 38.7 203.644 38.01 204.004 37.362C204.364 36.714 204.868 36.192 205.516 35.796C206.176 35.388 206.956 35.184 207.856 35.184C208.78 35.184 209.56 35.358 210.196 35.706C210.832 36.054 211.342 36.516 211.726 37.092C212.11 37.668 212.386 38.316 212.554 39.036C212.734 39.756 212.824 40.494 212.824 41.25C212.824 42.642 212.626 43.86 212.23 44.904C211.846 45.948 211.288 46.764 210.556 47.352C209.824 47.928 208.936 48.216 207.892 48.216ZM207.982 41.862C208.486 41.862 208.936 41.748 209.332 41.52C209.728 41.292 210.04 40.992 210.268 40.62C210.508 40.236 210.628 39.816 210.628 39.36C210.628 38.868 210.508 38.436 210.268 38.064C210.04 37.68 209.722 37.38 209.314 37.164C208.918 36.948 208.468 36.84 207.964 36.84C207.46 36.84 207.01 36.948 206.614 37.164C206.218 37.38 205.9 37.68 205.66 38.064C205.432 38.436 205.318 38.862 205.318 39.342C205.318 40.11 205.57 40.722 206.074 41.178C206.578 41.634 207.214 41.862 207.982 41.862ZM217.897 49.566V48.18C216.721 48.048 215.779 47.634 215.071 46.938C214.363 46.242 214.003 45.33 213.991 44.202H216.007C216.019 44.766 216.187 45.264 216.511 45.696C216.835 46.116 217.297 46.398 217.897 46.542V42.204C217.801 42.18 217.699 42.15 217.591 42.114C217.495 42.078 217.393 42.042 217.285 42.006C216.313 41.682 215.581 41.262 215.089 40.746C214.609 40.23 214.369 39.552 214.369 38.712C214.357 37.728 214.675 36.924 215.323 36.3C215.971 35.676 216.829 35.31 217.897 35.202V33.762H219.121V35.22C220.165 35.34 221.005 35.718 221.641 36.354C222.277 36.99 222.601 37.788 222.613 38.748H220.597C220.585 38.352 220.453 37.98 220.201 37.632C219.961 37.272 219.601 37.026 219.121 36.894V40.746C219.217 40.782 219.313 40.818 219.409 40.854C219.505 40.878 219.601 40.908 219.697 40.944C220.321 41.148 220.879 41.394 221.371 41.682C221.863 41.97 222.253 42.348 222.541 42.816C222.841 43.284 222.991 43.878 222.991 44.598C222.991 45.198 222.847 45.762 222.559 46.29C222.271 46.806 221.839 47.238 221.263 47.586C220.687 47.934 219.973 48.138 219.121 48.198V49.566H217.897ZM216.349 38.55C216.349 39.03 216.487 39.402 216.763 39.666C217.039 39.918 217.417 40.14 217.897 40.332V36.84C217.441 36.924 217.069 37.116 216.781 37.416C216.493 37.704 216.349 38.082 216.349 38.55ZM220.975 44.724C220.975 44.136 220.801 43.692 220.453 43.392C220.105 43.08 219.661 42.822 219.121 42.618V46.578C219.709 46.506 220.165 46.302 220.489 45.966C220.813 45.63 220.975 45.216 220.975 44.724Z" fill="#1A191E"/>
<rect y="99" width="300" height="83" rx="10" fill="white"/>
<rect x="16" y="115.5" width="50" height="50" rx="8" fill="#5BB5A2"/>
<path d="M52.6624 147.768C52.6624 148.616 52.1899 150.25 51.1294 151.147C50.9171 151.31 50.7036 151.218 50.7969 150.98C51.1061 150.224 51.8143 148.475 51.4818 148.073C51.2484 147.767 50.2801 147.789 49.4541 147.861C49.0761 147.908 48.7459 147.93 48.4881 147.983C48.2513 148.003 48.2023 147.793 48.4403 147.629C48.7459 147.414 49.0761 147.25 49.4553 147.13C50.7969 146.729 52.3486 146.97 52.5703 147.227C52.6123 147.276 52.6636 147.414 52.6636 147.767L52.6624 147.768ZM50.4213 149.278C50.1132 149.513 49.7897 149.728 49.4529 149.92C46.9773 151.407 43.7713 152.186 40.9853 152.186C36.5018 152.186 32.4919 150.533 29.4493 147.767C29.1891 147.555 29.4049 147.247 29.7094 147.414C32.9878 149.327 37.0454 150.484 41.2466 150.484C44.0553 150.476 46.8381 149.948 49.4541 148.926C49.6431 148.854 49.8554 148.758 50.0409 148.69C50.4691 148.497 50.8459 148.973 50.4213 149.278ZM43.2229 136.41C43.2229 135.195 43.2708 134.48 42.8683 133.866C42.5113 133.361 41.8964 133.058 41.0389 133.106C40.1079 133.157 39.1081 133.767 38.8526 134.886C38.8036 135.143 38.6531 135.395 38.3439 135.449L35.5019 135.088C35.2989 135.041 34.9909 134.886 35.0913 134.48C35.7014 131.269 38.4454 130.15 41.0389 130H41.6491C43.0724 130 44.9006 130.407 46.0708 131.475C47.4906 132.8 47.3401 134.58 47.3401 136.515V141.096C47.3401 142.47 47.8966 143.079 48.4578 143.796C48.6094 144.051 48.6608 144.352 48.4053 144.56C47.6705 145.216 46.9249 145.859 46.1688 146.49C45.9658 146.645 45.5994 146.661 45.4571 146.542C44.5588 145.79 44.3394 145.372 43.7829 144.608C42.8146 145.624 42.0026 146.185 41.0354 146.49C40.3553 146.662 39.6558 146.747 38.9541 146.742C36.5158 146.742 34.5838 145.221 34.5838 142.215C34.5838 139.825 35.8554 138.199 37.7338 137.431C39.6121 136.661 42.3421 136.415 43.2218 136.411L43.2229 136.41ZM42.6653 142.467C43.2719 141.45 43.2218 140.617 43.2218 138.751C42.4623 138.751 41.6981 138.804 41.0389 138.959C39.8198 139.312 38.8526 140.08 38.8526 141.706C38.8526 142.978 39.5141 143.844 40.6318 143.844C40.7858 143.844 40.9211 143.825 41.0389 143.791C41.8206 143.574 42.3083 143.182 42.6653 142.467Z" fill="white"/>
<path d="M82.468 134L87.112 121.4H89.2L93.808 134H91.792L90.712 130.922H85.564L84.484 134H82.468ZM86.104 129.41H90.172L88.138 123.668L86.104 129.41ZM94.9531 134V125.072H96.6451L96.8071 126.332C97.0951 125.876 97.4731 125.516 97.9411 125.252C98.4211 124.988 98.9731 124.856 99.5971 124.856C101.013 124.856 101.997 125.414 102.549 126.53C102.873 126.014 103.305 125.606 103.845 125.306C104.397 125.006 104.991 124.856 105.627 124.856C106.743 124.856 107.619 125.192 108.255 125.864C108.891 126.536 109.209 127.538 109.209 128.87V134H107.301V129.068C107.301 127.34 106.641 126.476 105.321 126.476C104.649 126.476 104.097 126.728 103.665 127.232C103.245 127.736 103.035 128.456 103.035 129.392V134H101.127V129.068C101.127 127.34 100.461 126.476 99.1291 126.476C98.4691 126.476 97.9231 126.728 97.4911 127.232C97.0711 127.736 96.8611 128.456 96.8611 129.392V134H94.9531ZM113.925 134.216C113.169 134.216 112.545 134.09 112.053 133.838C111.561 133.586 111.195 133.256 110.955 132.848C110.715 132.428 110.595 131.972 110.595 131.48C110.595 130.616 110.931 129.932 111.603 129.428C112.275 128.924 113.235 128.672 114.483 128.672H116.823V128.51C116.823 127.814 116.631 127.292 116.247 126.944C115.875 126.596 115.389 126.422 114.789 126.422C114.261 126.422 113.799 126.554 113.403 126.818C113.019 127.07 112.785 127.448 112.701 127.952H110.793C110.853 127.304 111.069 126.752 111.441 126.296C111.825 125.828 112.305 125.474 112.881 125.234C113.469 124.982 114.111 124.856 114.807 124.856C116.055 124.856 117.021 125.186 117.705 125.846C118.389 126.494 118.731 127.382 118.731 128.51V134H117.075L116.913 132.47C116.661 132.962 116.295 133.376 115.815 133.712C115.335 134.048 114.705 134.216 113.925 134.216ZM114.303 132.668C114.819 132.668 115.251 132.548 115.599 132.308C115.959 132.056 116.235 131.726 116.427 131.318C116.631 130.91 116.757 130.46 116.805 129.968H114.681C113.925 129.968 113.385 130.1 113.061 130.364C112.749 130.628 112.593 130.958 112.593 131.354C112.593 131.762 112.743 132.086 113.043 132.326C113.355 132.554 113.775 132.668 114.303 132.668ZM119.822 134V132.452L124.592 126.656H119.894V125.072H126.752V126.62L121.946 132.416H126.842V134H119.822ZM132.437 134.216C131.585 134.216 130.817 134.024 130.133 133.64C129.461 133.244 128.927 132.698 128.531 132.002C128.135 131.294 127.937 130.472 127.937 129.536C127.937 128.6 128.135 127.784 128.531 127.088C128.939 126.38 129.485 125.834 130.169 125.45C130.853 125.054 131.615 124.856 132.455 124.856C133.307 124.856 134.069 125.054 134.741 125.45C135.425 125.834 135.965 126.38 136.361 127.088C136.769 127.784 136.973 128.6 136.973 129.536C136.973 130.472 136.769 131.294 136.361 132.002C135.965 132.698 135.425 133.244 134.741 133.64C134.057 134.024 133.289 134.216 132.437 134.216ZM132.437 132.578C132.893 132.578 133.313 132.464 133.697 132.236C134.093 132.008 134.411 131.672 134.651 131.228C134.891 130.772 135.011 130.208 135.011 129.536C135.011 128.864 134.891 128.306 134.651 127.862C134.423 127.406 134.111 127.064 133.715 126.836C133.331 126.608 132.911 126.494 132.455 126.494C131.999 126.494 131.573 126.608 131.177 126.836C130.793 127.064 130.481 127.406 130.241 127.862C130.001 128.306 129.881 128.864 129.881 129.536C129.881 130.208 130.001 130.772 130.241 131.228C130.481 131.672 130.793 132.008 131.177 132.236C131.561 132.464 131.981 132.578 132.437 132.578ZM138.496 134V125.072H140.188L140.332 126.638C140.608 126.086 141.01 125.654 141.538 125.342C142.078 125.018 142.696 124.856 143.392 124.856C144.472 124.856 145.318 125.192 145.93 125.864C146.554 126.536 146.866 127.538 146.866 128.87V134H144.976V129.068C144.976 127.34 144.268 126.476 142.852 126.476C142.144 126.476 141.556 126.728 141.088 127.232C140.632 127.736 140.404 128.456 140.404 129.392V134H138.496Z" fill="#1A191E"/>
<path d="M89.625 150.42C89.5644 149.883 89.3144 149.466 88.875 149.17C88.4356 148.871 87.8826 148.722 87.2159 148.722C86.7386 148.722 86.3258 148.797 85.9773 148.949C85.6288 149.097 85.358 149.301 85.1648 149.562C84.9754 149.82 84.8807 150.114 84.8807 150.443C84.8807 150.72 84.9451 150.958 85.0739 151.159C85.2064 151.36 85.3788 151.528 85.5909 151.665C85.8068 151.797 86.0379 151.909 86.2841 152C86.5303 152.087 86.767 152.159 86.9943 152.216L88.1307 152.511C88.5019 152.602 88.8826 152.725 89.2727 152.881C89.6629 153.036 90.0246 153.241 90.358 153.494C90.6913 153.748 90.9602 154.062 91.1648 154.438C91.3731 154.812 91.4773 155.261 91.4773 155.784C91.4773 156.443 91.3068 157.028 90.9659 157.54C90.6288 158.051 90.1383 158.455 89.4943 158.75C88.8542 159.045 88.0795 159.193 87.1705 159.193C86.2992 159.193 85.5455 159.055 84.9091 158.778C84.2727 158.502 83.7746 158.11 83.4148 157.602C83.0549 157.091 82.8561 156.485 82.8182 155.784H84.5795C84.6136 156.205 84.75 156.555 84.9886 156.835C85.2311 157.112 85.5398 157.318 85.9148 157.455C86.2936 157.587 86.7083 157.653 87.1591 157.653C87.6553 157.653 88.0966 157.576 88.483 157.42C88.8731 157.261 89.1799 157.042 89.4034 156.761C89.6269 156.477 89.7386 156.146 89.7386 155.767C89.7386 155.422 89.6402 155.14 89.4432 154.92C89.25 154.701 88.9867 154.519 88.6534 154.375C88.3239 154.231 87.9508 154.104 87.5341 153.994L86.1591 153.619C85.2273 153.366 84.4886 152.992 83.9432 152.5C83.4015 152.008 83.1307 151.356 83.1307 150.545C83.1307 149.875 83.3125 149.29 83.6761 148.79C84.0398 148.29 84.5322 147.902 85.1534 147.625C85.7746 147.345 86.4754 147.205 87.2557 147.205C88.0436 147.205 88.7386 147.343 89.3409 147.619C89.947 147.896 90.4242 148.277 90.7727 148.761C91.1212 149.242 91.303 149.795 91.3182 150.42H89.625ZM95.1378 153.818V159H93.4389V147.364H95.1151V151.693H95.223C95.4276 151.223 95.7401 150.85 96.1605 150.574C96.581 150.297 97.1302 150.159 97.8082 150.159C98.4067 150.159 98.9295 150.282 99.3764 150.528C99.8272 150.775 100.176 151.142 100.422 151.631C100.672 152.116 100.797 152.722 100.797 153.449V159H99.098V153.653C99.098 153.013 98.9332 152.517 98.6037 152.165C98.2741 151.809 97.8158 151.631 97.2287 151.631C96.8272 151.631 96.4673 151.716 96.1491 151.886C95.8348 152.057 95.5866 152.307 95.4048 152.636C95.2268 152.962 95.1378 153.356 95.1378 153.818ZM106.74 159.176C105.922 159.176 105.208 158.989 104.598 158.614C103.988 158.239 103.515 157.714 103.178 157.04C102.84 156.366 102.672 155.578 102.672 154.676C102.672 153.771 102.84 152.979 103.178 152.301C103.515 151.623 103.988 151.097 104.598 150.722C105.208 150.347 105.922 150.159 106.74 150.159C107.558 150.159 108.272 150.347 108.882 150.722C109.492 151.097 109.965 151.623 110.303 152.301C110.64 152.979 110.808 153.771 110.808 154.676C110.808 155.578 110.64 156.366 110.303 157.04C109.965 157.714 109.492 158.239 108.882 158.614C108.272 158.989 107.558 159.176 106.74 159.176ZM106.746 157.75C107.276 157.75 107.715 157.61 108.064 157.33C108.412 157.049 108.67 156.676 108.837 156.21C109.007 155.744 109.092 155.231 109.092 154.67C109.092 154.114 109.007 153.602 108.837 153.136C108.67 152.667 108.412 152.29 108.064 152.006C107.715 151.722 107.276 151.58 106.746 151.58C106.212 151.58 105.768 151.722 105.416 152.006C105.068 152.29 104.808 152.667 104.638 153.136C104.471 153.602 104.388 154.114 104.388 154.67C104.388 155.231 104.471 155.744 104.638 156.21C104.808 156.676 105.068 157.049 105.416 157.33C105.768 157.61 106.212 157.75 106.746 157.75ZM112.705 162.273V150.273H114.364V151.688H114.506C114.604 151.506 114.746 151.295 114.932 151.057C115.117 150.818 115.375 150.61 115.705 150.432C116.034 150.25 116.47 150.159 117.011 150.159C117.716 150.159 118.345 150.337 118.898 150.693C119.451 151.049 119.884 151.562 120.199 152.233C120.517 152.903 120.676 153.71 120.676 154.653C120.676 155.597 120.519 156.405 120.205 157.08C119.89 157.75 119.458 158.267 118.909 158.631C118.36 158.991 117.733 159.17 117.028 159.17C116.498 159.17 116.064 159.081 115.727 158.903C115.394 158.725 115.133 158.517 114.943 158.278C114.754 158.04 114.608 157.828 114.506 157.642H114.403V162.273H112.705ZM114.369 154.636C114.369 155.25 114.458 155.788 114.636 156.25C114.814 156.712 115.072 157.074 115.409 157.335C115.746 157.593 116.159 157.722 116.648 157.722C117.155 157.722 117.58 157.587 117.92 157.318C118.261 157.045 118.519 156.676 118.693 156.21C118.871 155.744 118.96 155.22 118.96 154.636C118.96 154.061 118.873 153.544 118.699 153.085C118.528 152.627 118.271 152.265 117.926 152C117.585 151.735 117.159 151.602 116.648 151.602C116.155 151.602 115.739 151.729 115.398 151.983C115.061 152.237 114.805 152.591 114.631 153.045C114.456 153.5 114.369 154.03 114.369 154.636ZM122.58 162.273V150.273H124.239V151.688H124.381C124.479 151.506 124.621 151.295 124.807 151.057C124.992 150.818 125.25 150.61 125.58 150.432C125.909 150.25 126.345 150.159 126.886 150.159C127.591 150.159 128.22 150.337 128.773 150.693C129.326 151.049 129.759 151.562 130.074 152.233C130.392 152.903 130.551 153.71 130.551 154.653C130.551 155.597 130.394 156.405 130.08 157.08C129.765 157.75 129.333 158.267 128.784 158.631C128.235 158.991 127.608 159.17 126.903 159.17C126.373 159.17 125.939 159.081 125.602 158.903C125.269 158.725 125.008 158.517 124.818 158.278C124.629 158.04 124.483 157.828 124.381 157.642H124.278V162.273H122.58ZM124.244 154.636C124.244 155.25 124.333 155.788 124.511 156.25C124.689 156.712 124.947 157.074 125.284 157.335C125.621 157.593 126.034 157.722 126.523 157.722C127.03 157.722 127.455 157.587 127.795 157.318C128.136 157.045 128.394 156.676 128.568 156.21C128.746 155.744 128.835 155.22 128.835 154.636C128.835 154.061 128.748 153.544 128.574 153.085C128.403 152.627 128.146 152.265 127.801 152C127.46 151.735 127.034 151.602 126.523 151.602C126.03 151.602 125.614 151.729 125.273 151.983C124.936 152.237 124.68 152.591 124.506 153.045C124.331 153.5 124.244 154.03 124.244 154.636ZM132.455 159V150.273H134.153V159H132.455ZM133.312 148.926C133.017 148.926 132.763 148.828 132.551 148.631C132.343 148.43 132.239 148.191 132.239 147.915C132.239 147.634 132.343 147.396 132.551 147.199C132.763 146.998 133.017 146.898 133.312 146.898C133.608 146.898 133.86 146.998 134.068 147.199C134.28 147.396 134.386 147.634 134.386 147.915C134.386 148.191 134.28 148.43 134.068 148.631C133.86 148.828 133.608 148.926 133.312 148.926ZM138.138 153.818V159H136.439V150.273H138.07V151.693H138.178C138.378 151.231 138.693 150.86 139.121 150.58C139.553 150.299 140.096 150.159 140.751 150.159C141.346 150.159 141.867 150.284 142.314 150.534C142.761 150.78 143.107 151.148 143.354 151.636C143.6 152.125 143.723 152.729 143.723 153.449V159H142.024V153.653C142.024 153.021 141.859 152.527 141.53 152.17C141.2 151.811 140.748 151.631 140.172 151.631C139.778 151.631 139.428 151.716 139.121 151.886C138.818 152.057 138.577 152.307 138.399 152.636C138.225 152.962 138.138 153.356 138.138 153.818ZM149.661 162.455C148.967 162.455 148.371 162.364 147.871 162.182C147.375 162 146.969 161.759 146.655 161.46C146.34 161.161 146.106 160.833 145.95 160.477L147.411 159.875C147.513 160.042 147.649 160.218 147.82 160.403C147.994 160.593 148.229 160.754 148.524 160.886C148.823 161.019 149.208 161.085 149.678 161.085C150.321 161.085 150.854 160.928 151.274 160.614C151.695 160.303 151.905 159.807 151.905 159.125V157.409H151.797C151.695 157.595 151.547 157.801 151.354 158.028C151.164 158.256 150.903 158.453 150.57 158.619C150.236 158.786 149.803 158.869 149.268 158.869C148.579 158.869 147.958 158.708 147.405 158.386C146.856 158.061 146.42 157.581 146.098 156.949C145.78 156.312 145.621 155.53 145.621 154.602C145.621 153.674 145.778 152.879 146.092 152.216C146.411 151.553 146.846 151.045 147.399 150.693C147.952 150.337 148.579 150.159 149.28 150.159C149.821 150.159 150.259 150.25 150.592 150.432C150.926 150.61 151.185 150.818 151.371 151.057C151.56 151.295 151.706 151.506 151.808 151.688H151.933V150.273H153.598V159.193C153.598 159.943 153.424 160.559 153.075 161.04C152.727 161.521 152.255 161.877 151.661 162.108C151.07 162.339 150.403 162.455 149.661 162.455ZM149.643 157.46C150.132 157.46 150.545 157.347 150.882 157.119C151.223 156.888 151.481 156.559 151.655 156.131C151.833 155.699 151.922 155.182 151.922 154.58C151.922 153.992 151.835 153.475 151.661 153.028C151.486 152.581 151.231 152.233 150.893 151.983C150.556 151.729 150.14 151.602 149.643 151.602C149.132 151.602 148.706 151.735 148.365 152C148.024 152.261 147.767 152.617 147.592 153.068C147.422 153.519 147.337 154.023 147.337 154.58C147.337 155.152 147.424 155.653 147.598 156.085C147.772 156.517 148.03 156.854 148.371 157.097C148.715 157.339 149.14 157.46 149.643 157.46Z" fill="#1A191E" fill-opacity="0.5"/>
<path d="M172.026 142.572V140.97H179.352V142.572H172.026ZM185.32 147.216C184.492 147.216 183.784 147.054 183.196 146.73C182.608 146.406 182.146 145.974 181.81 145.434C181.486 144.894 181.288 144.306 181.216 143.67H182.998C183.106 144.294 183.364 144.774 183.772 145.11C184.18 145.446 184.702 145.614 185.338 145.614C186.214 145.614 186.934 145.206 187.498 144.39C188.074 143.562 188.38 142.296 188.416 140.592C188.128 141.12 187.678 141.57 187.066 141.942C186.466 142.314 185.77 142.5 184.978 142.5C184.27 142.5 183.604 142.332 182.98 141.996C182.356 141.66 181.852 141.192 181.468 140.592C181.084 139.98 180.892 139.26 180.892 138.432C180.892 137.7 181.072 137.01 181.432 136.362C181.792 135.714 182.296 135.192 182.944 134.796C183.604 134.388 184.384 134.184 185.284 134.184C186.208 134.184 186.988 134.358 187.624 134.706C188.26 135.054 188.77 135.516 189.154 136.092C189.538 136.668 189.814 137.316 189.982 138.036C190.162 138.756 190.252 139.494 190.252 140.25C190.252 141.642 190.054 142.86 189.658 143.904C189.274 144.948 188.716 145.764 187.984 146.352C187.252 146.928 186.364 147.216 185.32 147.216ZM185.41 140.862C185.914 140.862 186.364 140.748 186.76 140.52C187.156 140.292 187.468 139.992 187.696 139.62C187.936 139.236 188.056 138.816 188.056 138.36C188.056 137.868 187.936 137.436 187.696 137.064C187.468 136.68 187.15 136.38 186.742 136.164C186.346 135.948 185.896 135.84 185.392 135.84C184.888 135.84 184.438 135.948 184.042 136.164C183.646 136.38 183.328 136.68 183.088 137.064C182.86 137.436 182.746 137.862 182.746 138.342C182.746 139.11 182.998 139.722 183.502 140.178C184.006 140.634 184.642 140.862 185.41 140.862ZM196.153 147.216C195.325 147.216 194.617 147.054 194.029 146.73C193.441 146.406 192.979 145.974 192.643 145.434C192.319 144.894 192.121 144.306 192.049 143.67H193.831C193.939 144.294 194.197 144.774 194.605 145.11C195.013 145.446 195.535 145.614 196.171 145.614C197.047 145.614 197.767 145.206 198.331 144.39C198.907 143.562 199.213 142.296 199.249 140.592C198.961 141.12 198.511 141.57 197.899 141.942C197.299 142.314 196.603 142.5 195.811 142.5C195.103 142.5 194.437 142.332 193.813 141.996C193.189 141.66 192.685 141.192 192.301 140.592C191.917 139.98 191.725 139.26 191.725 138.432C191.725 137.7 191.905 137.01 192.265 136.362C192.625 135.714 193.129 135.192 193.777 134.796C194.437 134.388 195.217 134.184 196.117 134.184C197.041 134.184 197.821 134.358 198.457 134.706C199.093 135.054 199.603 135.516 199.987 136.092C200.371 136.668 200.647 137.316 200.815 138.036C200.995 138.756 201.085 139.494 201.085 140.25C201.085 141.642 200.887 142.86 200.491 143.904C200.107 144.948 199.549 145.764 198.817 146.352C198.085 146.928 197.197 147.216 196.153 147.216ZM196.243 140.862C196.747 140.862 197.197 140.748 197.593 140.52C197.989 140.292 198.301 139.992 198.529 139.62C198.769 139.236 198.889 138.816 198.889 138.36C198.889 137.868 198.769 137.436 198.529 137.064C198.301 136.68 197.983 136.38 197.575 136.164C197.179 135.948 196.729 135.84 196.225 135.84C195.721 135.84 195.271 135.948 194.875 136.164C194.479 136.38 194.161 136.68 193.921 137.064C193.693 137.436 193.579 137.862 193.579 138.342C193.579 139.11 193.831 139.722 194.335 140.178C194.839 140.634 195.475 140.862 196.243 140.862ZM206.158 148.566V147.18C204.982 147.048 204.04 146.634 203.332 145.938C202.624 145.242 202.264 144.33 202.252 143.202H204.268C204.28 143.766 204.448 144.264 204.772 144.696C205.096 145.116 205.558 145.398 206.158 145.542V141.204C206.062 141.18 205.96 141.15 205.852 141.114C205.756 141.078 205.654 141.042 205.546 141.006C204.574 140.682 203.842 140.262 203.35 139.746C202.87 139.23 202.63 138.552 202.63 137.712C202.618 136.728 202.936 135.924 203.584 135.3C204.232 134.676 205.09 134.31 206.158 134.202V132.762H207.382V134.22C208.426 134.34 209.266 134.718 209.902 135.354C210.538 135.99 210.862 136.788 210.874 137.748H208.858C208.846 137.352 208.714 136.98 208.462 136.632C208.222 136.272 207.862 136.026 207.382 135.894V139.746C207.478 139.782 207.574 139.818 207.67 139.854C207.766 139.878 207.862 139.908 207.958 139.944C208.582 140.148 209.14 140.394 209.632 140.682C210.124 140.97 210.514 141.348 210.802 141.816C211.102 142.284 211.252 142.878 211.252 143.598C211.252 144.198 211.108 144.762 210.82 145.29C210.532 145.806 210.1 146.238 209.524 146.586C208.948 146.934 208.234 147.138 207.382 147.198V148.566H206.158ZM204.61 137.55C204.61 138.03 204.748 138.402 205.024 138.666C205.3 138.918 205.678 139.14 206.158 139.332V135.84C205.702 135.924 205.33 136.116 205.042 136.416C204.754 136.704 204.61 137.082 204.61 137.55ZM209.236 143.724C209.236 143.136 209.062 142.692 208.714 142.392C208.366 142.08 207.922 141.822 207.382 141.618V145.578C207.97 145.506 208.426 145.302 208.75 144.966C209.074 144.63 209.236 144.216 209.236 143.724Z" fill="#1A191E"/>
<rect y="198" width="300" height="83" rx="10" fill="white"/>
<rect x="16" y="214.5" width="50" height="50" rx="8" fill="#5BB5A2"/>
<path d="M30.5743 234.262C31.545 232.329 33.0341 230.704 34.8752 229.569C36.7162 228.434 38.8367 227.833 40.9997 227.833C44.1438 227.833 46.7852 228.988 48.8047 230.873L45.4598 234.219C44.25 233.062 42.7123 232.473 40.9997 232.473C37.9605 232.473 35.388 234.527 34.4722 237.283C34.2388 237.983 34.1058 238.73 34.1058 239.5C34.1058 240.27 34.2388 241.017 34.4722 241.717C35.3892 244.475 37.9605 246.527 40.9997 246.527C42.5688 246.527 43.9047 246.113 44.95 245.413C45.556 245.014 46.0748 244.496 46.4751 243.891C46.8753 243.286 47.1487 242.606 47.2787 241.892H40.9997V237.379H51.9873C52.125 238.142 52.1997 238.938 52.1997 239.765C52.1997 243.319 50.928 246.31 48.7207 248.34C46.791 250.123 44.1497 251.167 40.9997 251.167C39.4674 251.167 37.9501 250.866 36.5343 250.28C35.1186 249.694 33.8322 248.835 32.7487 247.751C31.6653 246.668 30.8059 245.381 30.2198 243.966C29.6337 242.55 29.3324 241.032 29.333 239.5C29.333 237.617 29.7833 235.837 30.5743 234.262Z" fill="white"/>
<path d="M88.75 233.216C87.562 233.216 86.524 232.946 85.636 232.406C84.748 231.866 84.058 231.11 83.566 230.138C83.074 229.166 82.828 228.032 82.828 226.736C82.828 225.452 83.08 224.318 83.584 223.334C84.088 222.35 84.802 221.582 85.726 221.03C86.662 220.466 87.766 220.184 89.038 220.184C90.478 220.184 91.678 220.532 92.638 221.228C93.598 221.924 94.222 222.884 94.51 224.108H92.35C92.158 223.436 91.78 222.908 91.216 222.524C90.652 222.14 89.926 221.948 89.038 221.948C87.718 221.948 86.68 222.374 85.924 223.226C85.168 224.078 84.79 225.254 84.79 226.754C84.79 228.254 85.162 229.424 85.906 230.264C86.65 231.104 87.64 231.524 88.876 231.524C90.124 231.524 91.06 231.17 91.684 230.462C92.32 229.754 92.692 228.812 92.8 227.636H89.38V226.16H94.726V233H92.98L92.818 231.146C92.398 231.806 91.87 232.316 91.234 232.676C90.598 233.036 89.77 233.216 88.75 233.216ZM100.606 233.216C99.7537 233.216 98.9857 233.024 98.3017 232.64C97.6297 232.244 97.0957 231.698 96.6997 231.002C96.3037 230.294 96.1057 229.472 96.1057 228.536C96.1057 227.6 96.3037 226.784 96.6997 226.088C97.1077 225.38 97.6537 224.834 98.3377 224.45C99.0217 224.054 99.7837 223.856 100.624 223.856C101.476 223.856 102.238 224.054 102.91 224.45C103.594 224.834 104.134 225.38 104.53 226.088C104.938 226.784 105.142 227.6 105.142 228.536C105.142 229.472 104.938 230.294 104.53 231.002C104.134 231.698 103.594 232.244 102.91 232.64C102.226 233.024 101.458 233.216 100.606 233.216ZM100.606 231.578C101.062 231.578 101.482 231.464 101.866 231.236C102.262 231.008 102.58 230.672 102.82 230.228C103.06 229.772 103.18 229.208 103.18 228.536C103.18 227.864 103.06 227.306 102.82 226.862C102.592 226.406 102.28 226.064 101.884 225.836C101.5 225.608 101.08 225.494 100.624 225.494C100.168 225.494 99.7417 225.608 99.3457 225.836C98.9617 226.064 98.6497 226.406 98.4097 226.862C98.1697 227.306 98.0497 227.864 98.0497 228.536C98.0497 229.208 98.1697 229.772 98.4097 230.228C98.6497 230.672 98.9617 231.008 99.3457 231.236C99.7297 231.464 100.15 231.578 100.606 231.578ZM110.841 233.216C109.989 233.216 109.221 233.024 108.537 232.64C107.865 232.244 107.331 231.698 106.935 231.002C106.539 230.294 106.341 229.472 106.341 228.536C106.341 227.6 106.539 226.784 106.935 226.088C107.343 225.38 107.889 224.834 108.573 224.45C109.257 224.054 110.019 223.856 110.859 223.856C111.711 223.856 112.473 224.054 113.145 224.45C113.829 224.834 114.369 225.38 114.765 226.088C115.173 226.784 115.377 227.6 115.377 228.536C115.377 229.472 115.173 230.294 114.765 231.002C114.369 231.698 113.829 232.244 113.145 232.64C112.461 233.024 111.693 233.216 110.841 233.216ZM110.841 231.578C111.297 231.578 111.717 231.464 112.101 231.236C112.497 231.008 112.815 230.672 113.055 230.228C113.295 229.772 113.415 229.208 113.415 228.536C113.415 227.864 113.295 227.306 113.055 226.862C112.827 226.406 112.515 226.064 112.119 225.836C111.735 225.608 111.315 225.494 110.859 225.494C110.403 225.494 109.977 225.608 109.581 225.836C109.197 226.064 108.885 226.406 108.645 226.862C108.405 227.306 108.285 227.864 108.285 228.536C108.285 229.208 108.405 229.772 108.645 230.228C108.885 230.672 109.197 231.008 109.581 231.236C109.965 231.464 110.385 231.578 110.841 231.578ZM120.08 230.264C119.612 230.264 119.18 230.21 118.784 230.102L118.01 230.858C118.142 230.942 118.304 231.014 118.496 231.074C118.688 231.134 118.958 231.188 119.306 231.236C119.654 231.284 120.128 231.332 120.728 231.38C121.916 231.488 122.774 231.776 123.302 232.244C123.83 232.7 124.094 233.312 124.094 234.08C124.094 234.608 123.95 235.106 123.662 235.574C123.386 236.054 122.948 236.438 122.348 236.726C121.76 237.026 121.004 237.176 120.08 237.176C118.832 237.176 117.818 236.936 117.038 236.456C116.27 235.988 115.886 235.274 115.886 234.314C115.886 233.942 115.982 233.57 116.174 233.198C116.378 232.838 116.696 232.496 117.128 232.172C116.876 232.064 116.654 231.95 116.462 231.83C116.282 231.698 116.12 231.566 115.976 231.434V231.002L117.524 229.418C116.828 228.818 116.48 228.032 116.48 227.06C116.48 226.472 116.618 225.938 116.894 225.458C117.182 224.966 117.596 224.576 118.136 224.288C118.676 224 119.324 223.856 120.08 223.856C120.584 223.856 121.052 223.928 121.484 224.072H124.814V225.332L123.23 225.422C123.518 225.914 123.662 226.46 123.662 227.06C123.662 227.66 123.518 228.2 123.23 228.68C122.954 229.16 122.546 229.544 122.006 229.832C121.478 230.12 120.836 230.264 120.08 230.264ZM120.08 228.77C120.632 228.77 121.076 228.626 121.412 228.338C121.76 228.038 121.934 227.618 121.934 227.078C121.934 226.526 121.76 226.106 121.412 225.818C121.076 225.53 120.632 225.386 120.08 225.386C119.516 225.386 119.06 225.53 118.712 225.818C118.376 226.106 118.208 226.526 118.208 227.078C118.208 227.618 118.376 228.038 118.712 228.338C119.06 228.626 119.516 228.77 120.08 228.77ZM117.686 234.134C117.686 234.65 117.914 235.034 118.37 235.286C118.826 235.55 119.396 235.682 120.08 235.682C120.74 235.682 121.274 235.538 121.682 235.25C122.09 234.974 122.294 234.602 122.294 234.134C122.294 233.786 122.156 233.486 121.88 233.234C121.604 232.994 121.082 232.844 120.314 232.784C119.738 232.748 119.228 232.694 118.784 232.622C118.364 232.85 118.076 233.096 117.92 233.36C117.764 233.624 117.686 233.882 117.686 234.134ZM125.976 233V220.04H127.884V233H125.976ZM133.936 233.216C133.06 233.216 132.28 233.024 131.596 232.64C130.924 232.244 130.396 231.698 130.012 231.002C129.628 230.306 129.436 229.496 129.436 228.572C129.436 227.636 129.622 226.814 129.994 226.106C130.378 225.398 130.906 224.846 131.578 224.45C132.262 224.054 133.054 223.856 133.954 223.856C134.83 223.856 135.592 224.054 136.24 224.45C136.888 224.834 137.392 225.35 137.752 225.998C138.112 226.646 138.292 227.36 138.292 228.14C138.292 228.26 138.286 228.392 138.274 228.536C138.274 228.668 138.268 228.818 138.256 228.986H131.308C131.368 229.85 131.65 230.51 132.154 230.966C132.67 231.41 133.264 231.632 133.936 231.632C134.476 231.632 134.926 231.512 135.286 231.272C135.658 231.02 135.934 230.684 136.114 230.264H138.022C137.782 231.104 137.302 231.806 136.582 232.37C135.874 232.934 134.992 233.216 133.936 233.216ZM133.936 225.422C133.3 225.422 132.736 225.614 132.244 225.998C131.752 226.37 131.452 226.934 131.344 227.69H136.384C136.348 226.994 136.102 226.442 135.646 226.034C135.19 225.626 134.62 225.422 133.936 225.422Z" fill="#1A191E"/>
<path d="M84.2614 258H82.3977L86.5852 246.364H88.6136L92.8011 258H90.9375L87.6477 248.477H87.5568L84.2614 258ZM84.5739 253.443H90.6193V254.92H84.5739V253.443ZM97.4716 258.17C96.767 258.17 96.1383 257.991 95.5852 257.631C95.036 257.267 94.6042 256.75 94.2898 256.08C93.9792 255.405 93.8239 254.597 93.8239 253.653C93.8239 252.71 93.9811 251.903 94.2955 251.233C94.6136 250.562 95.0492 250.049 95.6023 249.693C96.1553 249.337 96.7822 249.159 97.483 249.159C98.0246 249.159 98.4602 249.25 98.7898 249.432C99.1231 249.61 99.3807 249.818 99.5625 250.057C99.7481 250.295 99.892 250.506 99.9943 250.688H100.097V246.364H101.795V258H100.136V256.642H99.9943C99.892 256.828 99.7443 257.04 99.5511 257.278C99.3617 257.517 99.1004 257.725 98.767 257.903C98.4337 258.081 98.0019 258.17 97.4716 258.17ZM97.8466 256.722C98.3352 256.722 98.7481 256.593 99.0852 256.335C99.4261 256.074 99.6837 255.712 99.858 255.25C100.036 254.788 100.125 254.25 100.125 253.636C100.125 253.03 100.038 252.5 99.8636 252.045C99.6894 251.591 99.4337 251.237 99.0966 250.983C98.7595 250.729 98.3428 250.602 97.8466 250.602C97.3352 250.602 96.9091 250.735 96.5682 251C96.2273 251.265 95.9697 251.627 95.7955 252.085C95.625 252.544 95.5398 253.061 95.5398 253.636C95.5398 254.22 95.6269 254.744 95.8011 255.21C95.9754 255.676 96.233 256.045 96.5739 256.318C96.9186 256.587 97.3428 256.722 97.8466 256.722ZM110.76 251.403L109.22 251.676C109.156 251.479 109.054 251.292 108.913 251.114C108.777 250.936 108.591 250.79 108.357 250.676C108.122 250.562 107.828 250.506 107.476 250.506C106.995 250.506 106.593 250.614 106.271 250.83C105.949 251.042 105.788 251.316 105.788 251.653C105.788 251.945 105.896 252.18 106.112 252.358C106.328 252.536 106.677 252.682 107.158 252.795L108.544 253.114C109.347 253.299 109.946 253.585 110.339 253.972C110.733 254.358 110.93 254.86 110.93 255.477C110.93 256 110.779 256.466 110.476 256.875C110.177 257.28 109.758 257.598 109.22 257.83C108.686 258.061 108.067 258.176 107.362 258.176C106.385 258.176 105.588 257.968 104.97 257.551C104.353 257.131 103.974 256.534 103.834 255.761L105.476 255.511C105.578 255.939 105.788 256.263 106.107 256.483C106.425 256.699 106.839 256.807 107.351 256.807C107.908 256.807 108.353 256.691 108.686 256.46C109.019 256.225 109.186 255.939 109.186 255.602C109.186 255.33 109.084 255.1 108.879 254.915C108.679 254.729 108.37 254.589 107.953 254.494L106.476 254.17C105.661 253.985 105.059 253.689 104.669 253.284C104.283 252.879 104.089 252.366 104.089 251.744C104.089 251.229 104.233 250.778 104.521 250.392C104.809 250.006 105.207 249.705 105.714 249.489C106.222 249.269 106.804 249.159 107.459 249.159C108.402 249.159 109.144 249.364 109.686 249.773C110.228 250.178 110.586 250.722 110.76 251.403Z" fill="#1A191E" fill-opacity="0.5"/>
<path d="M157.026 241.572V239.97H164.352V241.572H157.026ZM170.32 246.216C169.492 246.216 168.784 246.054 168.196 245.73C167.608 245.406 167.146 244.974 166.81 244.434C166.486 243.894 166.288 243.306 166.216 242.67H167.998C168.106 243.294 168.364 243.774 168.772 244.11C169.18 244.446 169.702 244.614 170.338 244.614C171.214 244.614 171.934 244.206 172.498 243.39C173.074 242.562 173.38 241.296 173.416 239.592C173.128 240.12 172.678 240.57 172.066 240.942C171.466 241.314 170.77 241.5 169.978 241.5C169.27 241.5 168.604 241.332 167.98 240.996C167.356 240.66 166.852 240.192 166.468 239.592C166.084 238.98 165.892 238.26 165.892 237.432C165.892 236.7 166.072 236.01 166.432 235.362C166.792 234.714 167.296 234.192 167.944 233.796C168.604 233.388 169.384 233.184 170.284 233.184C171.208 233.184 171.988 233.358 172.624 233.706C173.26 234.054 173.77 234.516 174.154 235.092C174.538 235.668 174.814 236.316 174.982 237.036C175.162 237.756 175.252 238.494 175.252 239.25C175.252 240.642 175.054 241.86 174.658 242.904C174.274 243.948 173.716 244.764 172.984 245.352C172.252 245.928 171.364 246.216 170.32 246.216ZM170.41 239.862C170.914 239.862 171.364 239.748 171.76 239.52C172.156 239.292 172.468 238.992 172.696 238.62C172.936 238.236 173.056 237.816 173.056 237.36C173.056 236.868 172.936 236.436 172.696 236.064C172.468 235.68 172.15 235.38 171.742 235.164C171.346 234.948 170.896 234.84 170.392 234.84C169.888 234.84 169.438 234.948 169.042 235.164C168.646 235.38 168.328 235.68 168.088 236.064C167.86 236.436 167.746 236.862 167.746 237.342C167.746 238.11 167.998 238.722 168.502 239.178C169.006 239.634 169.642 239.862 170.41 239.862ZM181.153 246.216C180.325 246.216 179.617 246.054 179.029 245.73C178.441 245.406 177.979 244.974 177.643 244.434C177.319 243.894 177.121 243.306 177.049 242.67H178.831C178.939 243.294 179.197 243.774 179.605 244.11C180.013 244.446 180.535 244.614 181.171 244.614C182.047 244.614 182.767 244.206 183.331 243.39C183.907 242.562 184.213 241.296 184.249 239.592C183.961 240.12 183.511 240.57 182.899 240.942C182.299 241.314 181.603 241.5 180.811 241.5C180.103 241.5 179.437 241.332 178.813 240.996C178.189 240.66 177.685 240.192 177.301 239.592C176.917 238.98 176.725 238.26 176.725 237.432C176.725 236.7 176.905 236.01 177.265 235.362C177.625 234.714 178.129 234.192 178.777 233.796C179.437 233.388 180.217 233.184 181.117 233.184C182.041 233.184 182.821 233.358 183.457 233.706C184.093 234.054 184.603 234.516 184.987 235.092C185.371 235.668 185.647 236.316 185.815 237.036C185.995 237.756 186.085 238.494 186.085 239.25C186.085 240.642 185.887 241.86 185.491 242.904C185.107 243.948 184.549 244.764 183.817 245.352C183.085 245.928 182.197 246.216 181.153 246.216ZM181.243 239.862C181.747 239.862 182.197 239.748 182.593 239.52C182.989 239.292 183.301 238.992 183.529 238.62C183.769 238.236 183.889 237.816 183.889 237.36C183.889 236.868 183.769 236.436 183.529 236.064C183.301 235.68 182.983 235.38 182.575 235.164C182.179 234.948 181.729 234.84 181.225 234.84C180.721 234.84 180.271 234.948 179.875 235.164C179.479 235.38 179.161 235.68 178.921 236.064C178.693 236.436 178.579 236.862 178.579 237.342C178.579 238.11 178.831 238.722 179.335 239.178C179.839 239.634 180.475 239.862 181.243 239.862ZM191.158 247.566V246.18C189.982 246.048 189.04 245.634 188.332 244.938C187.624 244.242 187.264 243.33 187.252 242.202H189.268C189.28 242.766 189.448 243.264 189.772 243.696C190.096 244.116 190.558 244.398 191.158 244.542V240.204C191.062 240.18 190.96 240.15 190.852 240.114C190.756 240.078 190.654 240.042 190.546 240.006C189.574 239.682 188.842 239.262 188.35 238.746C187.87 238.23 187.63 237.552 187.63 236.712C187.618 235.728 187.936 234.924 188.584 234.3C189.232 233.676 190.09 233.31 191.158 233.202V231.762H192.382V233.22C193.426 233.34 194.266 233.718 194.902 234.354C195.538 234.99 195.862 235.788 195.874 236.748H193.858C193.846 236.352 193.714 235.98 193.462 235.632C193.222 235.272 192.862 235.026 192.382 234.894V238.746C192.478 238.782 192.574 238.818 192.67 238.854C192.766 238.878 192.862 238.908 192.958 238.944C193.582 239.148 194.14 239.394 194.632 239.682C195.124 239.97 195.514 240.348 195.802 240.816C196.102 241.284 196.252 241.878 196.252 242.598C196.252 243.198 196.108 243.762 195.82 244.29C195.532 244.806 195.1 245.238 194.524 245.586C193.948 245.934 193.234 246.138 192.382 246.198V247.566H191.158ZM189.61 236.55C189.61 237.03 189.748 237.402 190.024 237.666C190.3 237.918 190.678 238.14 191.158 238.332V234.84C190.702 234.924 190.33 235.116 190.042 235.416C189.754 235.704 189.61 236.082 189.61 236.55ZM194.236 242.724C194.236 242.136 194.062 241.692 193.714 241.392C193.366 241.08 192.922 240.822 192.382 240.618V244.578C192.97 244.506 193.426 244.302 193.75 243.966C194.074 243.63 194.236 243.216 194.236 242.724Z" fill="#1A191E"/>
</svg>
