<svg xmlns="http://www.w3.org/2000/svg" width="300" height="268" fill="none"><rect width="300" height="83" fill="#fff" rx="10"/><rect width="50" height="50" x="16" y="16.5" fill="#5BB5A2" rx="8"/><path fill="#fff" d="M40.562 35.926c-1.022 0-2.604-1.162-4.27-1.12-2.198.028-4.214 1.274-5.348 3.248-2.282 3.962-.588 9.814 1.638 13.034 1.092 1.568 2.38 3.332 4.088 3.276 1.638-.07 2.254-1.064 4.242-1.064 1.974 0 2.534 1.064 4.27 1.022 1.764-.028 2.884-1.596 3.962-3.178 1.246-1.82 1.764-3.584 1.792-3.682-.042-.014-3.43-1.316-3.472-5.236-.028-3.276 2.674-4.844 2.8-4.914-1.54-2.254-3.906-2.506-4.732-2.562-2.156-.168-3.962 1.176-4.97 1.176Zm3.64-3.304c.91-1.092 1.512-2.618 1.344-4.13-1.302.056-2.87.868-3.808 1.96-.84.966-1.568 2.52-1.372 4.004 1.442.112 2.926-.742 3.836-1.834Z"/><path fill="#1A191E" d="m82.468 35 4.644-12.6H89.2L93.808 35h-2.016l-1.08-3.078h-5.148L84.484 35h-2.016Zm3.636-4.59h4.068l-2.034-5.742-2.034 5.742Zm8.85 8.55V26.072h1.71l.197 1.386c.288-.42.684-.792 1.188-1.116.504-.324 1.152-.486 1.944-.486.864 0 1.626.204 2.286.612.66.408 1.176.966 1.548 1.674.384.708.576 1.512.576 2.412 0 .9-.192 1.704-.576 2.412a4.284 4.284 0 0 1-1.548 1.656c-.66.396-1.428.594-2.304.594-.696 0-1.314-.138-1.854-.414a3.197 3.197 0 0 1-1.26-1.17v5.328h-1.908Zm4.697-5.4c.816 0 1.488-.276 2.016-.828.528-.564.792-1.296.792-2.196 0-.588-.12-1.11-.36-1.566-.24-.456-.57-.81-.99-1.062-.42-.264-.906-.396-1.458-.396-.816 0-1.488.282-2.016.846-.516.564-.774 1.29-.774 2.178 0 .9.258 1.632.774 2.196.528.552 1.2.828 2.016.828Zm6.276 5.4V26.072h1.71l.198 1.386c.288-.42.684-.792 1.188-1.116.504-.324 1.152-.486 1.944-.486.864 0 1.626.204 2.286.612.66.408 1.176.966 1.548 1.674.384.708.576 1.512.576 2.412 0 .9-.192 1.704-.576 2.412a4.284 4.284 0 0 1-1.548 1.656c-.66.396-1.428.594-2.304.594-.696 0-1.314-.138-1.854-.414a3.197 3.197 0 0 1-1.26-1.17v5.328h-1.908Zm4.698-5.4c.816 0 1.488-.276 2.016-.828.528-.564.792-1.296.792-2.196 0-.588-.12-1.11-.36-1.566-.24-.456-.57-.81-.99-1.062-.42-.264-.906-.396-1.458-.396-.816 0-1.488.282-2.016.846-.516.564-.774 1.29-.774 2.178 0 .9.258 1.632.774 2.196.528.552 1.2.828 2.016.828ZM116.9 35V22.04h1.908V35H116.9Zm7.961.216c-.876 0-1.656-.192-2.34-.576a4.242 4.242 0 0 1-1.584-1.638c-.384-.696-.576-1.506-.576-2.43 0-.936.186-1.758.558-2.466a4.21 4.21 0 0 1 1.584-1.656c.684-.396 1.476-.594 2.376-.594.876 0 1.638.198 2.286.594a4.07 4.07 0 0 1 1.512 1.548c.36.648.54 1.362.54 2.142 0 .12-.006.252-.018.396 0 .132-.006.282-.018.45h-6.948c.06.864.342 1.524.846 1.98.516.444 1.11.666 1.782.666.54 0 .99-.12 1.35-.36.372-.252.648-.588.828-1.008h1.908c-.24.84-.72 1.542-1.44 2.106-.708.564-1.59.846-2.646.846Zm0-7.794c-.636 0-1.2.192-1.692.576-.492.372-.792.936-.9 1.692h5.04c-.036-.696-.282-1.248-.738-1.656-.456-.408-1.026-.612-1.71-.612Z"/><path fill="#1A191E" fill-opacity=".5" d="M83.278 60V48.364h7.296v1.511h-5.54v3.545h5.16v1.506h-5.16v3.563h5.608V60h-7.364Zm11.203-11.636V60h-1.698V48.364h1.698Zm6.047 11.812c-.86 0-1.6-.184-2.221-.551a3.738 3.738 0 0 1-1.432-1.563c-.333-.674-.5-1.463-.5-2.369 0-.894.167-1.682.5-2.363a3.882 3.882 0 0 1 1.41-1.597c.605-.383 1.314-.574 2.124-.574.493 0 .97.081 1.432.244.462.163.877.419 1.244.767.368.349.657.802.87 1.358.212.553.318 1.226.318 2.017v.603h-6.938v-1.273h5.273c0-.447-.091-.843-.273-1.188a2.06 2.06 0 0 0-.767-.823c-.326-.201-.708-.301-1.148-.301-.477 0-.894.117-1.25.352a2.364 2.364 0 0 0-.818.909c-.19.371-.284.775-.284 1.21v.994c0 .584.103 1.08.307 1.489.208.41.498.722.87.938.37.212.804.318 1.3.318.322 0 .616-.046.881-.137.265-.094.494-.235.688-.42.193-.186.341-.415.443-.688l1.608.29c-.129.474-.36.888-.693 1.245-.33.352-.745.626-1.245.823-.496.194-1.062.29-1.699.29Zm9.306 0c-.845 0-1.572-.191-2.182-.574a3.802 3.802 0 0 1-1.398-1.596c-.325-.678-.488-1.455-.488-2.33 0-.886.166-1.668.5-2.346a3.827 3.827 0 0 1 1.409-1.597c.606-.383 1.32-.574 2.142-.574.663 0 1.254.123 1.772.37.519.242.938.583 1.256 1.022.322.44.513.953.574 1.54h-1.653c-.091-.41-.3-.761-.625-1.057-.322-.295-.754-.443-1.296-.443a2.11 2.11 0 0 0-1.244.375c-.352.246-.627.598-.824 1.057-.197.454-.295.992-.295 1.613 0 .637.096 1.186.289 1.648.193.462.466.82.818 1.074.357.254.775.38 1.256.38.322 0 .614-.058.875-.175.265-.122.487-.294.665-.518.182-.223.309-.492.381-.806h1.653a3.215 3.215 0 0 1-.551 1.511 3.174 3.174 0 0 1-1.233 1.045c-.511.254-1.112.381-1.801.381Zm9.476-8.903v1.363h-4.767v-1.363h4.767Zm-3.489-2.091h1.699v8.255c0 .33.049.578.148.745a.768.768 0 0 0 .38.335c.159.057.332.085.517.085.137 0 .256-.01.358-.028.103-.02.182-.034.239-.046l.307 1.404a2.878 2.878 0 0 1-.421.113 3.335 3.335 0 0 1-.682.069 2.995 2.995 0 0 1-1.25-.239 2.147 2.147 0 0 1-.937-.773c-.239-.348-.358-.786-.358-1.312v-8.608ZM121.189 60v-8.727h1.642v1.386h.091c.159-.47.439-.839.841-1.108.405-.273.863-.409 1.375-.409a7.242 7.242 0 0 1 .721.04v1.625a3.033 3.033 0 0 0-.363-.063 3.485 3.485 0 0 0-.523-.04c-.402 0-.759.086-1.074.256a1.896 1.896 0 0 0-1.011 1.71V60h-1.699Zm9.504.176c-.818 0-1.532-.187-2.142-.562a3.79 3.79 0 0 1-1.42-1.574c-.337-.675-.506-1.462-.506-2.364 0-.905.169-1.697.506-2.375a3.783 3.783 0 0 1 1.42-1.58c.61-.374 1.324-.562 2.142-.562.818 0 1.532.188 2.142.563.61.375 1.084.901 1.421 1.58.337.677.505 1.469.505 2.374 0 .902-.168 1.69-.505 2.364a3.792 3.792 0 0 1-1.421 1.574c-.61.375-1.324.562-2.142.562Zm.006-1.426c.53 0 .97-.14 1.318-.42.349-.28.606-.654.773-1.12.17-.466.255-.979.255-1.54 0-.556-.085-1.068-.255-1.534a2.498 2.498 0 0 0-.773-1.13c-.348-.284-.788-.426-1.318-.426-.534 0-.977.142-1.33.426a2.539 2.539 0 0 0-.778 1.13c-.167.466-.25.978-.25 1.534 0 .561.083 1.074.25 1.54.17.466.43.84.778 1.12.353.28.796.42 1.33.42Zm7.658-3.932V60h-1.699v-8.727h1.63v1.42h.108c.201-.462.515-.833.943-1.113.432-.28.976-.42 1.631-.42.595 0 1.116.124 1.563.374.447.246.793.614 1.039 1.102.247.489.37 1.093.37 1.813V60h-1.699v-5.347c0-.632-.165-1.127-.494-1.483-.33-.36-.783-.54-1.358-.54-.394 0-.745.086-1.052.256-.303.17-.543.42-.721.75-.174.326-.261.72-.261 1.182ZM146.22 60v-8.727h1.699V60h-1.699Zm.858-10.074a1.08 1.08 0 0 1-.761-.295.959.959 0 0 1-.313-.716c0-.28.104-.52.313-.716.212-.2.466-.301.761-.301.296 0 .547.1.756.3a.941.941 0 0 1 .318.717.953.953 0 0 1-.318.716 1.06 1.06 0 0 1-.756.295Zm6.803 10.25c-.845 0-1.572-.191-2.182-.574a3.802 3.802 0 0 1-1.398-1.596c-.326-.678-.489-1.455-.489-2.33 0-.886.167-1.668.5-2.346a3.836 3.836 0 0 1 1.41-1.597c.606-.383 1.32-.574 2.142-.574.663 0 1.253.123 1.772.37.519.242.938.583 1.256 1.022.322.44.513.953.574 1.54h-1.654a1.978 1.978 0 0 0-.624-1.057c-.322-.295-.754-.443-1.296-.443a2.11 2.11 0 0 0-1.244.375c-.353.246-.627.598-.824 1.057-.197.454-.296.992-.296 1.613 0 .637.097 1.186.29 1.648.193.462.466.82.818 1.074.356.254.775.38 1.256.38.322 0 .614-.058.875-.175.265-.122.487-.294.665-.518a1.93 1.93 0 0 0 .38-.806h1.654a3.215 3.215 0 0 1-.551 1.511 3.174 3.174 0 0 1-1.233 1.045c-.512.254-1.112.381-1.801.381Z"/><path fill="#1A191E" d="M176.026 43.572V41.97h7.326v1.602h-7.326ZM184.97 48l4.878-10.962h-6.552V35.4h8.514v1.386L186.968 48h-1.998Zm12.089.216c-.828 0-1.536-.162-2.124-.486a3.7 3.7 0 0 1-1.386-1.296 4.336 4.336 0 0 1-.594-1.764h1.782c.108.624.366 1.104.774 1.44.408.336.93.504 1.566.504.876 0 1.596-.408 2.16-1.224.576-.828.882-2.094.918-3.798-.288.528-.738.978-1.35 1.35-.6.372-1.296.558-2.088.558a4.151 4.151 0 0 1-1.998-.504 4.045 4.045 0 0 1-1.512-1.404c-.384-.612-.576-1.332-.576-2.16 0-.732.18-1.422.54-2.07.36-.648.864-1.17 1.512-1.566.66-.408 1.44-.612 2.34-.612.924 0 1.704.174 2.34.522.636.348 1.146.81 1.53 1.386.384.576.66 1.224.828 1.944.18.72.27 1.458.27 2.214 0 1.392-.198 2.61-.594 3.654-.384 1.044-.942 1.86-1.674 2.448-.732.576-1.62.864-2.664.864Zm.09-6.354c.504 0 .954-.114 1.35-.342.396-.228.708-.528.936-.9.24-.384.36-.804.36-1.26 0-.492-.12-.924-.36-1.296a2.38 2.38 0 0 0-.954-.9 2.773 2.773 0 0 0-1.35-.324c-.504 0-.954.108-1.35.324a2.544 2.544 0 0 0-.954.9 2.396 2.396 0 0 0-.342 1.278c0 .768.252 1.38.756 1.836.504.456 1.14.684 1.908.684Zm10.743 6.354c-.828 0-1.536-.162-2.124-.486a3.7 3.7 0 0 1-1.386-1.296 4.336 4.336 0 0 1-.594-1.764h1.782c.108.624.366 1.104.774 1.44.408.336.93.504 1.566.504.876 0 1.596-.408 2.16-1.224.576-.828.882-2.094.918-3.798-.288.528-.738.978-1.35 1.35-.6.372-1.296.558-2.088.558a4.151 4.151 0 0 1-1.998-.504 4.045 4.045 0 0 1-1.512-1.404c-.384-.612-.576-1.332-.576-2.16 0-.732.18-1.422.54-2.07.36-.648.864-1.17 1.512-1.566.66-.408 1.44-.612 2.34-.612.924 0 1.704.174 2.34.522.636.348 1.146.81 1.53 1.386.384.576.66 1.224.828 1.944.18.72.27 1.458.27 2.214 0 1.392-.198 2.61-.594 3.654-.384 1.044-.942 1.86-1.674 2.448-.732.576-1.62.864-2.664.864Zm.09-6.354c.504 0 .954-.114 1.35-.342.396-.228.708-.528.936-.9.24-.384.36-.804.36-1.26 0-.492-.12-.924-.36-1.296a2.38 2.38 0 0 0-.954-.9 2.773 2.773 0 0 0-1.35-.324c-.504 0-.954.108-1.35.324a2.544 2.544 0 0 0-.954.9 2.396 2.396 0 0 0-.342 1.278c0 .768.252 1.38.756 1.836.504.456 1.14.684 1.908.684Zm9.915 7.704V48.18c-1.176-.132-2.118-.546-2.826-1.242-.708-.696-1.068-1.608-1.08-2.736h2.016c.012.564.18 1.062.504 1.494.324.42.786.702 1.386.846v-4.338a4.17 4.17 0 0 1-.306-.09 8.783 8.783 0 0 0-.306-.108c-.972-.324-1.704-.744-2.196-1.26-.48-.516-.72-1.194-.72-2.034-.012-.984.306-1.788.954-2.412.648-.624 1.506-.99 2.574-1.098v-1.44h1.224v1.458c1.044.12 1.884.498 2.52 1.134.636.636.96 1.434.972 2.394h-2.016a1.974 1.974 0 0 0-.396-1.116c-.24-.36-.6-.606-1.08-.738v3.852l.288.108c.096.024.192.054.288.09.624.204 1.182.45 1.674.738s.882.666 1.17 1.134c.3.468.45 1.062.45 1.782 0 .6-.144 1.164-.432 1.692-.288.516-.72.948-1.296 1.296-.576.348-1.29.552-2.142.612v1.368h-1.224Zm-1.548-11.016c0 .48.138.852.414 1.116.276.252.654.474 1.134.666V36.84c-.456.084-.828.276-1.116.576-.288.288-.432.666-.432 1.134Zm4.626 6.174c0-.588-.174-1.032-.522-1.332-.348-.312-.792-.57-1.332-.774v3.96c.588-.072 1.044-.276 1.368-.612a1.72 1.72 0 0 0 .486-1.242Z"/><rect width="300" height="83" y="99" fill="#fff" rx="10"/><rect width="50" height="50" x="16" y="115.5" fill="#5BB5A2" rx="8"/><path fill="#fff" d="M52.662 147.768c0 .848-.472 2.482-1.533 3.379-.212.163-.425.071-.332-.167.31-.756 1.017-2.505.685-2.907-.234-.306-1.202-.284-2.028-.212-.378.047-.708.069-.966.122-.237.02-.286-.19-.048-.354a3.643 3.643 0 0 1 1.015-.499c1.342-.401 2.894-.16 3.115.097.042.049.094.187.094.54l-.002.001Zm-2.24 1.51c-.309.235-.632.45-.97.642-2.475 1.487-5.68 2.266-8.467 2.266-4.483 0-8.493-1.653-11.536-4.419-.26-.212-.044-.52.26-.353 3.279 1.913 7.336 3.07 11.538 3.07a22.732 22.732 0 0 0 8.207-1.558c.19-.072.401-.168.587-.236.428-.193.805.283.38.588Zm-7.2-12.868c0-1.215.049-1.93-.354-2.544-.357-.505-.972-.808-1.83-.76-.93.051-1.93.661-2.185 1.78-.05.257-.2.509-.51.563l-2.841-.361c-.203-.047-.511-.202-.41-.608.61-3.211 3.353-4.33 5.947-4.48h.61c1.423 0 3.252.407 4.422 1.475 1.42 1.325 1.27 3.105 1.27 5.04v4.581c0 1.374.556 1.983 1.117 2.7.151.255.203.556-.053.764a88.578 88.578 0 0 1-2.236 1.93c-.203.155-.57.171-.712.052-.898-.752-1.118-1.17-1.674-1.934-.968 1.016-1.78 1.577-2.748 1.882a8.25 8.25 0 0 1-2.08.252c-2.44 0-4.371-1.521-4.371-4.527 0-2.39 1.271-4.016 3.15-4.784 1.878-.77 4.608-1.016 5.488-1.02v-.001Zm-.557 6.057c.607-1.017.557-1.85.557-3.716-.76 0-1.524.053-2.183.208-1.22.353-2.186 1.121-2.186 2.747 0 1.272.661 2.138 1.779 2.138.154 0 .29-.019.407-.053.782-.217 1.27-.609 1.626-1.324Z"/><path fill="#1A191E" d="m82.468 134 4.644-12.6H89.2l4.608 12.6h-2.016l-1.08-3.078h-5.148L84.484 134h-2.016Zm3.636-4.59h4.068l-2.034-5.742-2.034 5.742Zm8.85 4.59v-8.928h1.691l.162 1.26a3.155 3.155 0 0 1 1.134-1.08c.48-.264 1.032-.396 1.656-.396 1.416 0 2.4.558 2.952 1.674a3.526 3.526 0 0 1 1.296-1.224c.552-.3 1.146-.45 1.782-.45 1.116 0 1.992.336 2.628 1.008.636.672.954 1.674.954 3.006V134h-1.908v-4.932c0-1.728-.66-2.592-1.98-2.592-.672 0-1.224.252-1.656.756-.42.504-.63 1.224-.63 2.16V134h-1.908v-4.932c0-1.728-.666-2.592-1.998-2.592-.66 0-1.206.252-1.638.756-.42.504-.63 1.224-.63 2.16V134h-1.908Zm18.971.216c-.756 0-1.38-.126-1.872-.378-.492-.252-.858-.582-1.098-.99a2.71 2.71 0 0 1-.36-1.368c0-.864.336-1.548 1.008-2.052.672-.504 1.632-.756 2.88-.756h2.34v-.162c0-.696-.192-1.218-.576-1.566-.372-.348-.858-.522-1.458-.522-.528 0-.99.132-1.386.396-.384.252-.618.63-.702 1.134h-1.908c.06-.648.276-1.2.648-1.656a3.643 3.643 0 0 1 1.44-1.062 4.838 4.838 0 0 1 1.926-.378c1.248 0 2.214.33 2.898.99.684.648 1.026 1.536 1.026 2.664V134h-1.656l-.162-1.53a3.392 3.392 0 0 1-1.098 1.242c-.48.336-1.11.504-1.89.504Zm.378-1.548c.516 0 .948-.12 1.296-.36.36-.252.636-.582.828-.99a3.82 3.82 0 0 0 .378-1.35h-2.124c-.756 0-1.296.132-1.62.396a1.244 1.244 0 0 0-.468.99c0 .408.15.732.45.972.312.228.732.342 1.26.342Zm5.519 1.332v-1.548l4.77-5.796h-4.698v-1.584h6.858v1.548l-4.806 5.796h4.896V134h-7.02Zm12.615.216c-.852 0-1.62-.192-2.304-.576a4.375 4.375 0 0 1-1.602-1.638c-.396-.708-.594-1.53-.594-2.466 0-.936.198-1.752.594-2.448a4.295 4.295 0 0 1 1.638-1.638 4.48 4.48 0 0 1 2.286-.594c.852 0 1.614.198 2.286.594a4.17 4.17 0 0 1 1.62 1.638c.408.696.612 1.512.612 2.448 0 .936-.204 1.758-.612 2.466a4.333 4.333 0 0 1-1.62 1.638c-.684.384-1.452.576-2.304.576Zm0-1.638c.456 0 .876-.114 1.26-.342a2.5 2.5 0 0 0 .954-1.008c.24-.456.36-1.02.36-1.692 0-.672-.12-1.23-.36-1.674-.228-.456-.54-.798-.936-1.026a2.423 2.423 0 0 0-1.26-.342c-.456 0-.882.114-1.278.342-.384.228-.696.57-.936 1.026-.24.444-.36 1.002-.36 1.674 0 .672.12 1.236.36 1.692.24.444.552.78.936 1.008.384.228.804.342 1.26.342Zm6.059 1.422v-8.928h1.692l.144 1.566a3.067 3.067 0 0 1 1.206-1.296c.54-.324 1.158-.486 1.854-.486 1.08 0 1.926.336 2.538 1.008.624.672.936 1.674.936 3.006V134h-1.89v-4.932c0-1.728-.708-2.592-2.124-2.592-.708 0-1.296.252-1.764.756-.456.504-.684 1.224-.684 2.16V134h-1.908Z"/><path fill="#1A191E" fill-opacity=".5" d="M89.625 150.42a1.662 1.662 0 0 0-.75-1.25c-.44-.299-.992-.448-1.66-.448-.476 0-.89.075-1.238.227a1.91 1.91 0 0 0-.812.613c-.19.258-.284.552-.284.881 0 .277.064.515.193.716.132.201.305.369.517.506.216.132.447.244.693.335.246.087.483.159.71.216l1.137.295c.37.091.752.214 1.142.37.39.155.752.36 1.085.613.333.254.602.568.807.944.208.374.312.823.312 1.346 0 .659-.17 1.244-.511 1.756-.337.511-.828.915-1.472 1.21-.64.295-1.415.443-2.323.443-.872 0-1.626-.138-2.262-.415-.636-.276-1.134-.668-1.494-1.176-.36-.511-.559-1.117-.597-1.818h1.761c.035.421.171.771.41 1.051.242.277.55.483.926.62.379.132.793.198 1.244.198.496 0 .938-.077 1.324-.233.39-.159.697-.378.92-.659a1.56 1.56 0 0 0 .336-.994c0-.345-.099-.627-.296-.847a2.192 2.192 0 0 0-.79-.545 7.725 7.725 0 0 0-1.119-.381l-1.375-.375c-.932-.253-1.67-.627-2.216-1.119-.541-.492-.812-1.144-.812-1.955 0-.67.181-1.255.545-1.755.364-.5.856-.888 1.477-1.165.622-.28 1.322-.42 2.103-.42.788 0 1.483.138 2.085.414.606.277 1.083.658 1.432 1.142.348.481.53 1.034.545 1.659h-1.693Zm5.513 3.398V159h-1.7v-11.636h1.677v4.329h.108c.205-.47.517-.843.938-1.119.42-.277.97-.415 1.647-.415.599 0 1.121.123 1.568.369.451.247.8.614 1.046 1.103.25.485.375 1.091.375 1.818V159h-1.699v-5.347c0-.64-.165-1.136-.494-1.488-.33-.356-.788-.534-1.375-.534-.402 0-.762.085-1.08.255a1.85 1.85 0 0 0-.744.75c-.178.326-.267.72-.267 1.182Zm11.602 5.358c-.818 0-1.532-.187-2.142-.562a3.792 3.792 0 0 1-1.42-1.574c-.338-.674-.506-1.462-.506-2.364 0-.905.168-1.697.506-2.375a3.781 3.781 0 0 1 1.42-1.579c.61-.375 1.324-.563 2.142-.563.818 0 1.532.188 2.142.563a3.79 3.79 0 0 1 1.421 1.579c.337.678.505 1.47.505 2.375 0 .902-.168 1.69-.505 2.364a3.8 3.8 0 0 1-1.421 1.574c-.61.375-1.324.562-2.142.562Zm.006-1.426c.53 0 .969-.14 1.318-.42.348-.281.606-.654.773-1.12.17-.466.255-.979.255-1.54 0-.556-.085-1.068-.255-1.534a2.507 2.507 0 0 0-.773-1.13c-.349-.284-.788-.426-1.318-.426-.534 0-.978.142-1.33.426a2.54 2.54 0 0 0-.778 1.13 4.52 4.52 0 0 0-.25 1.534c0 .561.083 1.074.25 1.54.17.466.43.839.778 1.12.352.28.796.42 1.33.42Zm5.959 4.523v-12h1.659v1.415h.142c.098-.182.24-.393.426-.631.185-.239.443-.447.773-.625.329-.182.765-.273 1.306-.273.705 0 1.334.178 1.887.534.553.356.986.869 1.301 1.54.318.67.477 1.477.477 2.42 0 .944-.157 1.752-.471 2.427-.315.67-.747 1.187-1.296 1.551-.549.36-1.176.539-1.881.539-.53 0-.964-.089-1.301-.267a2.467 2.467 0 0 1-.784-.625 4.668 4.668 0 0 1-.437-.636h-.103v4.631h-1.698Zm1.664-7.637c0 .614.089 1.152.267 1.614.178.462.436.824.773 1.085.337.258.75.387 1.239.387.507 0 .932-.135 1.272-.404.341-.273.599-.642.773-1.108.178-.466.267-.99.267-1.574a4.35 4.35 0 0 0-.261-1.551c-.171-.458-.428-.82-.773-1.085-.341-.265-.767-.398-1.278-.398-.493 0-.909.127-1.25.381-.337.254-.593.608-.767 1.062-.175.455-.262.985-.262 1.591Zm8.211 7.637v-12h1.659v1.415h.142c.098-.182.24-.393.426-.631.185-.239.443-.447.773-.625.329-.182.765-.273 1.306-.273.705 0 1.334.178 1.887.534.553.356.986.869 1.301 1.54.318.67.477 1.477.477 2.42 0 .944-.157 1.752-.471 2.427-.315.67-.747 1.187-1.296 1.551-.549.36-1.176.539-1.881.539-.53 0-.964-.089-1.301-.267a2.467 2.467 0 0 1-.784-.625 4.668 4.668 0 0 1-.437-.636h-.103v4.631h-1.698Zm1.664-7.637c0 .614.089 1.152.267 1.614.178.462.436.824.773 1.085.337.258.75.387 1.239.387.507 0 .932-.135 1.272-.404.341-.273.599-.642.773-1.108.178-.466.267-.99.267-1.574a4.35 4.35 0 0 0-.261-1.551c-.171-.458-.428-.82-.773-1.085-.341-.265-.767-.398-1.278-.398-.493 0-.909.127-1.25.381-.337.254-.593.608-.767 1.062-.175.455-.262.985-.262 1.591Zm8.211 4.364v-8.727h1.698V159h-1.698Zm.857-10.074a1.08 1.08 0 0 1-.761-.295.963.963 0 0 1-.312-.716c0-.281.104-.519.312-.716.212-.201.466-.301.761-.301.296 0 .548.1.756.301a.94.94 0 0 1 .318.716.954.954 0 0 1-.318.716c-.208.197-.46.295-.756.295Zm4.826 4.892V159h-1.699v-8.727h1.631v1.42h.108c.2-.462.515-.833.943-1.113.432-.281.975-.421 1.63-.421.595 0 1.116.125 1.563.375.447.246.793.614 1.04 1.102.246.489.369 1.093.369 1.813V159h-1.699v-5.347c0-.632-.165-1.126-.494-1.483-.33-.359-.782-.539-1.358-.539-.394 0-.744.085-1.051.255a1.846 1.846 0 0 0-.722.75c-.174.326-.261.72-.261 1.182Zm11.523 8.637c-.694 0-1.29-.091-1.79-.273-.496-.182-.902-.423-1.216-.722a3.031 3.031 0 0 1-.705-.983l1.461-.602c.102.167.238.343.409.528.174.19.409.351.704.483.299.133.684.199 1.154.199.643 0 1.176-.157 1.596-.471.421-.311.631-.807.631-1.489v-1.716h-.108c-.102.186-.25.392-.443.619-.19.228-.451.425-.784.591-.334.167-.767.25-1.302.25-.689 0-1.31-.161-1.863-.483-.549-.325-.985-.805-1.307-1.437-.318-.637-.477-1.419-.477-2.347 0-.928.157-1.723.471-2.386.319-.663.754-1.171 1.307-1.523a3.4 3.4 0 0 1 1.881-.534c.541 0 .979.091 1.312.273.334.178.593.386.779.625.189.238.335.449.437.631h.125v-1.415h1.665v8.92c0 .75-.174 1.366-.523 1.847-.348.481-.82.837-1.414 1.068-.591.231-1.258.347-2 .347Zm-.018-4.995c.489 0 .902-.113 1.239-.341.341-.231.599-.56.773-.988.178-.432.267-.949.267-1.551 0-.588-.087-1.105-.261-1.552-.175-.447-.43-.795-.768-1.045-.337-.254-.753-.381-1.25-.381-.511 0-.937.133-1.278.398-.341.261-.598.617-.773 1.068a4.26 4.26 0 0 0-.255 1.512c0 .572.087 1.073.261 1.505.174.432.432.769.773 1.012.344.242.769.363 1.272.363Z"/><path fill="#1A191E" d="M172.026 142.572v-1.602h7.326v1.602h-7.326Zm13.294 4.644c-.828 0-1.536-.162-2.124-.486a3.7 3.7 0 0 1-1.386-1.296 4.336 4.336 0 0 1-.594-1.764h1.782c.108.624.366 1.104.774 1.44.408.336.93.504 1.566.504.876 0 1.596-.408 2.16-1.224.576-.828.882-2.094.918-3.798-.288.528-.738.978-1.35 1.35-.6.372-1.296.558-2.088.558a4.151 4.151 0 0 1-1.998-.504 4.045 4.045 0 0 1-1.512-1.404c-.384-.612-.576-1.332-.576-2.16 0-.732.18-1.422.54-2.07.36-.648.864-1.17 1.512-1.566.66-.408 1.44-.612 2.34-.612.924 0 1.704.174 2.34.522.636.348 1.146.81 1.53 1.386.384.576.66 1.224.828 1.944.18.72.27 1.458.27 2.214 0 1.392-.198 2.61-.594 3.654-.384 1.044-.942 1.86-1.674 2.448-.732.576-1.62.864-2.664.864Zm.09-6.354c.504 0 .954-.114 1.35-.342.396-.228.708-.528.936-.9.24-.384.36-.804.36-1.26 0-.492-.12-.924-.36-1.296a2.38 2.38 0 0 0-.954-.9 2.773 2.773 0 0 0-1.35-.324c-.504 0-.954.108-1.35.324a2.544 2.544 0 0 0-.954.9 2.396 2.396 0 0 0-.342 1.278c0 .768.252 1.38.756 1.836.504.456 1.14.684 1.908.684Zm10.743 6.354c-.828 0-1.536-.162-2.124-.486a3.7 3.7 0 0 1-1.386-1.296 4.336 4.336 0 0 1-.594-1.764h1.782c.108.624.366 1.104.774 1.44.408.336.93.504 1.566.504.876 0 1.596-.408 2.16-1.224.576-.828.882-2.094.918-3.798-.288.528-.738.978-1.35 1.35-.6.372-1.296.558-2.088.558a4.151 4.151 0 0 1-1.998-.504 4.045 4.045 0 0 1-1.512-1.404c-.384-.612-.576-1.332-.576-2.16 0-.732.18-1.422.54-2.07.36-.648.864-1.17 1.512-1.566.66-.408 1.44-.612 2.34-.612.924 0 1.704.174 2.34.522.636.348 1.146.81 1.53 1.386.384.576.66 1.224.828 1.944.18.72.27 1.458.27 2.214 0 1.392-.198 2.61-.594 3.654-.384 1.044-.942 1.86-1.674 2.448-.732.576-1.62.864-2.664.864Zm.09-6.354c.504 0 .954-.114 1.35-.342.396-.228.708-.528.936-.9.24-.384.36-.804.36-1.26 0-.492-.12-.924-.36-1.296a2.38 2.38 0 0 0-.954-.9 2.773 2.773 0 0 0-1.35-.324c-.504 0-.954.108-1.35.324a2.544 2.544 0 0 0-.954.9 2.396 2.396 0 0 0-.342 1.278c0 .768.252 1.38.756 1.836.504.456 1.14.684 1.908.684Zm9.915 7.704v-1.386c-1.176-.132-2.118-.546-2.826-1.242-.708-.696-1.068-1.608-1.08-2.736h2.016c.012.564.18 1.062.504 1.494.324.42.786.702 1.386.846v-4.338a4.17 4.17 0 0 1-.306-.09 8.783 8.783 0 0 0-.306-.108c-.972-.324-1.704-.744-2.196-1.26-.48-.516-.72-1.194-.72-2.034-.012-.984.306-1.788.954-2.412.648-.624 1.506-.99 2.574-1.098v-1.44h1.224v1.458c1.044.12 1.884.498 2.52 1.134.636.636.96 1.434.972 2.394h-2.016a1.974 1.974 0 0 0-.396-1.116c-.24-.36-.6-.606-1.08-.738v3.852l.288.108c.096.024.192.054.288.09.624.204 1.182.45 1.674.738s.882.666 1.17 1.134c.3.468.45 1.062.45 1.782 0 .6-.144 1.164-.432 1.692-.288.516-.72.948-1.296 1.296-.576.348-1.29.552-2.142.612v1.368h-1.224Zm-1.548-11.016c0 .48.138.852.414 1.116.276.252.654.474 1.134.666v-3.492c-.456.084-.828.276-1.116.576-.288.288-.432.666-.432 1.134Zm4.626 6.174c0-.588-.174-1.032-.522-1.332-.348-.312-.792-.57-1.332-.774v3.96c.588-.072 1.044-.276 1.368-.612a1.72 1.72 0 0 0 .486-1.242Z"/><rect width="300" height="83" y="198" fill="#fff" rx="10"/><rect width="50" height="50" x="16" y="214.5" fill="#5BB5A2" rx="8"/><path fill="#fff" d="M30.574 234.262A11.66 11.66 0 0 1 41 227.833c3.144 0 5.785 1.155 7.805 3.04l-3.345 3.346c-1.21-1.157-2.748-1.746-4.46-1.746-3.04 0-5.612 2.054-6.528 4.81a7.009 7.009 0 0 0-.366 2.217c0 .77.133 1.517.366 2.217.917 2.758 3.489 4.81 6.528 4.81 1.569 0 2.905-.414 3.95-1.114a5.37 5.37 0 0 0 2.329-3.521h-6.28v-4.513h10.988c.138.763.213 1.559.213 2.386 0 3.554-1.272 6.545-3.48 8.575-1.929 1.783-4.57 2.827-7.72 2.827a11.676 11.676 0 0 1-8.251-3.416 11.664 11.664 0 0 1-2.175-13.489Z"/><path fill="#1A191E" d="M88.75 233.216c-1.188 0-2.226-.27-3.114-.81-.888-.54-1.578-1.296-2.07-2.268-.492-.972-.738-2.106-.738-3.402 0-1.284.252-2.418.756-3.402a5.595 5.595 0 0 1 2.142-2.304c.936-.564 2.04-.846 3.312-.846 1.44 0 2.64.348 3.6 1.044.96.696 1.584 1.656 1.872 2.88h-2.16a2.779 2.779 0 0 0-1.134-1.584c-.564-.384-1.29-.576-2.178-.576-1.32 0-2.358.426-3.114 1.278-.756.852-1.134 2.028-1.134 3.528s.372 2.67 1.116 3.51c.744.84 1.734 1.26 2.97 1.26 1.248 0 2.184-.354 2.808-1.062.636-.708 1.008-1.65 1.116-2.826h-3.42v-1.476h5.346V233H92.98l-.162-1.854c-.42.66-.948 1.17-1.584 1.53-.636.36-1.464.54-2.484.54Zm11.856 0c-.852 0-1.62-.192-2.304-.576a4.375 4.375 0 0 1-1.602-1.638c-.396-.708-.594-1.53-.594-2.466 0-.936.198-1.752.594-2.448a4.295 4.295 0 0 1 1.638-1.638 4.48 4.48 0 0 1 2.286-.594c.852 0 1.614.198 2.286.594a4.17 4.17 0 0 1 1.62 1.638c.408.696.612 1.512.612 2.448 0 .936-.204 1.758-.612 2.466a4.333 4.333 0 0 1-1.62 1.638c-.684.384-1.452.576-2.304.576Zm0-1.638c.456 0 .876-.114 1.26-.342a2.5 2.5 0 0 0 .954-1.008c.24-.456.36-1.02.36-1.692 0-.672-.12-1.23-.36-1.674-.228-.456-.54-.798-.936-1.026a2.423 2.423 0 0 0-1.26-.342 2.52 2.52 0 0 0-1.278.342c-.384.228-.696.57-.936 1.026-.24.444-.36 1.002-.36 1.674 0 .672.12 1.236.36 1.692.24.444.552.78.936 1.008.384.228.804.342 1.26.342Zm10.235 1.638c-.852 0-1.62-.192-2.304-.576a4.375 4.375 0 0 1-1.602-1.638c-.396-.708-.594-1.53-.594-2.466 0-.936.198-1.752.594-2.448a4.295 4.295 0 0 1 1.638-1.638 4.48 4.48 0 0 1 2.286-.594c.852 0 1.614.198 2.286.594a4.17 4.17 0 0 1 1.62 1.638c.408.696.612 1.512.612 2.448 0 .936-.204 1.758-.612 2.466a4.333 4.333 0 0 1-1.62 1.638c-.684.384-1.452.576-2.304.576Zm0-1.638c.456 0 .876-.114 1.26-.342a2.5 2.5 0 0 0 .954-1.008c.24-.456.36-1.02.36-1.692 0-.672-.12-1.23-.36-1.674-.228-.456-.54-.798-.936-1.026a2.423 2.423 0 0 0-1.26-.342c-.456 0-.882.114-1.278.342-.384.228-.696.57-.936 1.026-.24.444-.36 1.002-.36 1.674 0 .672.12 1.236.36 1.692.24.444.552.78.936 1.008.384.228.804.342 1.26.342Zm9.239-1.314c-.468 0-.9-.054-1.296-.162l-.774.756c.132.084.294.156.486.216s.462.114.81.162c.348.048.822.096 1.422.144 1.188.108 2.046.396 2.574.864.528.456.792 1.068.792 1.836 0 .528-.144 1.026-.432 1.494-.276.48-.714.864-1.314 1.152-.588.3-1.344.45-2.268.45-1.248 0-2.262-.24-3.042-.72-.768-.468-1.152-1.182-1.152-2.142 0-.372.096-.744.288-1.116.204-.36.522-.702.954-1.026a4.902 4.902 0 0 1-.666-.342 5.759 5.759 0 0 1-.486-.396v-.432l1.548-1.584c-.696-.6-1.044-1.386-1.044-2.358 0-.588.138-1.122.414-1.602a3.08 3.08 0 0 1 1.242-1.17c.54-.288 1.188-.432 1.944-.432.504 0 .972.072 1.404.216h3.33v1.26l-1.584.09c.288.492.432 1.038.432 1.638 0 .6-.144 1.14-.432 1.62-.276.48-.684.864-1.224 1.152-.528.288-1.17.432-1.926.432Zm0-1.494c.552 0 .996-.144 1.332-.432.348-.3.522-.72.522-1.26 0-.552-.174-.972-.522-1.26-.336-.288-.78-.432-1.332-.432-.564 0-1.02.144-1.368.432-.336.288-.504.708-.504 1.26 0 .54.168.96.504 1.26.348.288.804.432 1.368.432Zm-2.394 5.364c0 .516.228.9.684 1.152.456.264 1.026.396 1.71.396.66 0 1.194-.144 1.602-.432.408-.276.612-.648.612-1.116 0-.348-.138-.648-.414-.9-.276-.24-.798-.39-1.566-.45a15.825 15.825 0 0 1-1.53-.162c-.42.228-.708.474-.864.738a1.518 1.518 0 0 0-.234.774Zm8.29-1.134v-12.96h1.908V233h-1.908Zm7.96.216c-.876 0-1.656-.192-2.34-.576a4.242 4.242 0 0 1-1.584-1.638c-.384-.696-.576-1.506-.576-2.43 0-.936.186-1.758.558-2.466a4.21 4.21 0 0 1 1.584-1.656c.684-.396 1.476-.594 2.376-.594.876 0 1.638.198 2.286.594a4.07 4.07 0 0 1 1.512 1.548c.36.648.54 1.362.54 2.142 0 .12-.006.252-.018.396 0 .132-.006.282-.018.45h-6.948c.06.864.342 1.524.846 1.98.516.444 1.11.666 1.782.666.54 0 .99-.12 1.35-.36.372-.252.648-.588.828-1.008h1.908c-.24.84-.72 1.542-1.44 2.106-.708.564-1.59.846-2.646.846Zm0-7.794c-.636 0-1.2.192-1.692.576-.492.372-.792.936-.9 1.692h5.04c-.036-.696-.282-1.248-.738-1.656-.456-.408-1.026-.612-1.71-.612Z"/><path fill="#1A191E" fill-opacity=".5" d="M84.261 258h-1.863l4.187-11.636h2.029L92.8 258h-1.864l-3.29-9.523h-.09L84.26 258Zm.313-4.557h6.045v1.477h-6.045v-1.477Zm12.898 4.727c-.705 0-1.334-.179-1.887-.539-.549-.364-.98-.881-1.295-1.551-.31-.675-.466-1.483-.466-2.427 0-.943.157-1.75.472-2.42.318-.671.753-1.184 1.306-1.54a3.399 3.399 0 0 1 1.881-.534c.542 0 .977.091 1.307.273.333.178.59.386.772.625.186.238.33.449.432.631h.103v-4.324h1.698V258h-1.659v-1.358h-.142c-.102.186-.25.398-.443.636-.19.239-.45.447-.784.625-.333.178-.765.267-1.295.267Zm.375-1.448c.488 0 .901-.129 1.238-.387.341-.261.599-.623.773-1.085.178-.462.267-1 .267-1.614 0-.606-.087-1.136-.261-1.591-.175-.454-.43-.808-.767-1.062s-.754-.381-1.25-.381c-.512 0-.938.133-1.279.398-.34.265-.598.627-.772 1.085a4.43 4.43 0 0 0-.256 1.551c0 .584.087 1.108.261 1.574.174.466.432.835.773 1.108.345.269.769.404 1.273.404Zm12.913-5.319-1.54.273a1.796 1.796 0 0 0-.307-.562 1.524 1.524 0 0 0-.556-.438c-.235-.114-.529-.17-.881-.17-.481 0-.883.108-1.205.324-.322.212-.483.486-.483.823 0 .292.108.527.324.705.216.178.565.324 1.046.437l1.386.319c.803.185 1.402.471 1.795.858.394.386.591.888.591 1.505 0 .523-.151.989-.454 1.398-.299.405-.718.723-1.256.955-.534.231-1.153.346-1.858.346-.977 0-1.774-.208-2.392-.625-.617-.42-.996-1.017-1.136-1.79l1.642-.25c.102.428.312.752.631.972.318.216.732.324 1.244.324.557 0 1.002-.116 1.335-.347.333-.235.5-.521.5-.858a.89.89 0 0 0-.307-.687c-.2-.186-.509-.326-.926-.421l-1.477-.324c-.815-.185-1.417-.481-1.807-.886-.386-.405-.58-.918-.58-1.54a2.2 2.2 0 0 1 .432-1.352c.288-.386.686-.687 1.193-.903.508-.22 1.09-.33 1.745-.33.943 0 1.685.205 2.227.614.542.405.9.949 1.074 1.63Z"/><path fill="#1A191E" d="M157.026 241.572v-1.602h7.326v1.602h-7.326Zm13.294 4.644c-.828 0-1.536-.162-2.124-.486a3.7 3.7 0 0 1-1.386-1.296 4.336 4.336 0 0 1-.594-1.764h1.782c.108.624.366 1.104.774 1.44.408.336.93.504 1.566.504.876 0 1.596-.408 2.16-1.224.576-.828.882-2.094.918-3.798-.288.528-.738.978-1.35 1.35-.6.372-1.296.558-2.088.558a4.151 4.151 0 0 1-1.998-.504 4.045 4.045 0 0 1-1.512-1.404c-.384-.612-.576-1.332-.576-2.16 0-.732.18-1.422.54-2.07.36-.648.864-1.17 1.512-1.566.66-.408 1.44-.612 2.34-.612.924 0 1.704.174 2.34.522.636.348 1.146.81 1.53 1.386.384.576.66 1.224.828 1.944.18.72.27 1.458.27 2.214 0 1.392-.198 2.61-.594 3.654-.384 1.044-.942 1.86-1.674 2.448-.732.576-1.62.864-2.664.864Zm.09-6.354c.504 0 .954-.114 1.35-.342.396-.228.708-.528.936-.9.24-.384.36-.804.36-1.26 0-.492-.12-.924-.36-1.296a2.38 2.38 0 0 0-.954-.9 2.773 2.773 0 0 0-1.35-.324c-.504 0-.954.108-1.35.324a2.544 2.544 0 0 0-.954.9 2.396 2.396 0 0 0-.342 1.278c0 .768.252 1.38.756 1.836.504.456 1.14.684 1.908.684Zm10.743 6.354c-.828 0-1.536-.162-2.124-.486a3.7 3.7 0 0 1-1.386-1.296 4.336 4.336 0 0 1-.594-1.764h1.782c.108.624.366 1.104.774 1.44.408.336.93.504 1.566.504.876 0 1.596-.408 2.16-1.224.576-.828.882-2.094.918-3.798-.288.528-.738.978-1.35 1.35-.6.372-1.296.558-2.088.558a4.151 4.151 0 0 1-1.998-.504 4.045 4.045 0 0 1-1.512-1.404c-.384-.612-.576-1.332-.576-2.16 0-.732.18-1.422.54-2.07.36-.648.864-1.17 1.512-1.566.66-.408 1.44-.612 2.34-.612.924 0 1.704.174 2.34.522.636.348 1.146.81 1.53 1.386.384.576.66 1.224.828 1.944.18.72.27 1.458.27 2.214 0 1.392-.198 2.61-.594 3.654-.384 1.044-.942 1.86-1.674 2.448-.732.576-1.62.864-2.664.864Zm.09-6.354c.504 0 .954-.114 1.35-.342.396-.228.708-.528.936-.9.24-.384.36-.804.36-1.26 0-.492-.12-.924-.36-1.296a2.38 2.38 0 0 0-.954-.9 2.773 2.773 0 0 0-1.35-.324c-.504 0-.954.108-1.35.324a2.544 2.544 0 0 0-.954.9 2.396 2.396 0 0 0-.342 1.278c0 .768.252 1.38.756 1.836.504.456 1.14.684 1.908.684Zm9.915 7.704v-1.386c-1.176-.132-2.118-.546-2.826-1.242-.708-.696-1.068-1.608-1.08-2.736h2.016c.012.564.18 1.062.504 1.494.324.42.786.702 1.386.846v-4.338a4.17 4.17 0 0 1-.306-.09 8.783 8.783 0 0 0-.306-.108c-.972-.324-1.704-.744-2.196-1.26-.48-.516-.72-1.194-.72-2.034-.012-.984.306-1.788.954-2.412.648-.624 1.506-.99 2.574-1.098v-1.44h1.224v1.458c1.044.12 1.884.498 2.52 1.134.636.636.96 1.434.972 2.394h-2.016a1.974 1.974 0 0 0-.396-1.116c-.24-.36-.6-.606-1.08-.738v3.852l.288.108c.096.024.192.054.288.09.624.204 1.182.45 1.674.738s.882.666 1.17 1.134c.3.468.45 1.062.45 1.782 0 .6-.144 1.164-.432 1.692-.288.516-.72.948-1.296 1.296-.576.348-1.29.552-2.142.612v1.368h-1.224Zm-1.548-11.016c0 .48.138.852.414 1.116.276.252.654.474 1.134.666v-3.492c-.456.084-.828.276-1.116.576-.288.288-.432.666-.432 1.134Zm4.626 6.174c0-.588-.174-1.032-.522-1.332-.348-.312-.792-.57-1.332-.774v3.96c.588-.072 1.044-.276 1.368-.612a1.72 1.72 0 0 0 .486-1.242Z"/></svg>